<svg id="Layer_1" data-name="Layer 1" xmlns="http://www.w3.org/2000/svg" xmlns:xlink="http://www.w3.org/1999/xlink" viewBox="0 0 800 450"><defs><clipPath id="clip-path"><rect x="-847.6" width="800" height="450" style="fill:none"/></clipPath><clipPath id="clip-path-2"><rect width="800" height="449.49" style="fill:none"/></clipPath></defs><title>accreditation</title><g style="clip-path:url(#clip-path)"><path d="M-866.9,573H49.5L32,423.7s-309.8-35.4-460.7-35.4S-809,409.9-890,414.9" style="fill:#8ea43b"/></g><g style="clip-path:url(#clip-path-2)"><path d="M-78.5,508.4H837.9l-9.5-182.9s-317.8-25.8-468.7-25.8S2,322.9-79,327.9" style="fill:#a3c23b"/><path d="M139.1,206.7,161,219.3a8.4,8.4,0,0,1,4.2,7.2v25.2a8.4,8.4,0,0,1-4.2,7.2l-21.8,12.6a8.4,8.4,0,0,1-8.4,0L109,258.9a8.4,8.4,0,0,1-4.2-7.2V226.5a8.4,8.4,0,0,1,4.2-7.2l21.8-12.6A8.4,8.4,0,0,1,139.1,206.7Z" style="fill:#6e8c3b"/><path d="M137.3,203.4,159.1,216a8.4,8.4,0,0,1,4.2,7.2v25.2a8.4,8.4,0,0,1-4.2,7.2l-21.8,12.6a8.4,8.4,0,0,1-8.4,0l-21.8-12.6a8.4,8.4,0,0,1-4.2-7.2V223.2a8.4,8.4,0,0,1,4.2-7.2L129,203.4A8.4,8.4,0,0,1,137.3,203.4Z" style="fill:#a3c23a"/><polygon points="134.3 230.3 133.9 241.2 122.5 227 133.9 242.4 131.1 332.2 137 332.2 135.3 258.7 140.5 241.2 135.1 252.9 134.3 230.3" style="fill:#967e2e"/><path d="M113.2,225.2l17.1,9.9a6.6,6.6,0,0,1,3.3,5.7v19.8a6.6,6.6,0,0,1-3.3,5.7l-17.1,9.9a6.6,6.6,0,0,1-6.6,0l-17.1-9.9a6.6,6.6,0,0,1-3.3-5.7V240.8a6.6,6.6,0,0,1,3.3-5.7l17.1-9.9A6.6,6.6,0,0,1,113.2,225.2Z" style="fill:#bbbe3a"/><path d="M111.2,222.9l17.1,9.9a6.6,6.6,0,0,1,3.3,5.7v19.8a6.6,6.6,0,0,1-3.3,5.7l-17.1,9.9a6.6,6.6,0,0,1-6.6,0l-17.1-9.9a6.6,6.6,0,0,1-3.3-5.7V238.4a6.6,6.6,0,0,1,3.3-5.7l17.1-9.9A6.6,6.6,0,0,1,111.2,222.9Z" style="fill:#d3de46"/><polygon points="107 248.8 106.7 257.2 97.8 246.2 106.7 258.1 104.5 320.4 109.1 320.4 107.7 270.7 111.8 257.2 107.6 266.3 107 248.8" style="fill:#967e2e"/><path d="M755.7,161.7l32.6,18.8a12.5,12.5,0,0,1,6.2,10.8v37.6a12.5,12.5,0,0,1-6.2,10.8l-32.6,18.8a12.5,12.5,0,0,1-12.5,0l-32.6-18.8a12.5,12.5,0,0,1-6.2-10.8V191.3a12.5,12.5,0,0,1,6.2-10.8l32.6-18.8A12.5,12.5,0,0,1,755.7,161.7Z" style="fill:#6e8c3b"/><path d="M753,156.7l32.6,18.8a12.5,12.5,0,0,1,6.2,10.8v37.6a12.5,12.5,0,0,1-6.2,10.8L753,253.5a12.5,12.5,0,0,1-12.5,0L708,234.7a12.5,12.5,0,0,1-6.2-10.8V186.3a12.5,12.5,0,0,1,6.2-10.8l32.6-18.8A12.5,12.5,0,0,1,753,156.7Z" style="fill:#a3c23a"/><polygon points="748.5 196.9 747.9 213.1 730.9 191.9 747.9 214.9 743.8 349 752.6 349 750 239.2 757.7 213.1 749.7 230.7 748.5 196.9" style="fill:#967e2e"/><path d="M717,189.3,742.6,204a9.8,9.8,0,0,1,4.9,8.5V242a9.8,9.8,0,0,1-4.9,8.5L717,265.2a9.8,9.8,0,0,1-9.8,0l-25.5-14.8a9.8,9.8,0,0,1-4.9-8.5V212.5a9.8,9.8,0,0,1,4.9-8.5l25.5-14.8A9.8,9.8,0,0,1,717,189.3Z" style="fill:#bbbe3a"/><path d="M714.1,185.8l25.5,14.8a9.8,9.8,0,0,1,4.9,8.5v29.5a9.8,9.8,0,0,1-4.9,8.5l-25.5,14.8a9.8,9.8,0,0,1-9.8,0L678.8,247a9.8,9.8,0,0,1-4.9-8.5V209.1a9.8,9.8,0,0,1,4.9-8.5l25.5-14.8A9.8,9.8,0,0,1,714.1,185.8Z" style="fill:#d3de46"/><polygon points="707.7 224.5 707.3 237 694.1 220.7 707.3 238.5 704.1 331.3 710.9 331.3 708.9 257.2 714.9 237 708.7 250.6 707.7 224.5" style="fill:#967e2e"/><path d="M.7,573H917L899.6,423.7s-309.8-35.4-460.7-35.4S58.6,409.9-22.4,414.9" style="fill:#8ea43b"/><path d="M406.7,340.9s7-15,6.1-24.6c0,0,1.6,14.2.1,19.1,0,0,3.1-5.5,4.8-6.8,0,0-2.3,5.4-1.4,8.8,0,0,5.6-.5,7-12.5,0,0,.3,11.6,1.2,14.2,0,0,3.8-12.7,5.5-15,0,0-.6,9.3,0,11.6a13.2,13.2,0,0,0,3.5-3.4s-2.7,4.9-.6,7.2a13,13,0,0,0,6.1-8.1s.3,6.3,2,9.5Z" style="fill:#d3de46"/><path d="M375.9,340.9s7-15,6.1-24.6c0,0,1.6,14.2.1,19.1,0,0,3.1-5.5,4.8-6.8,0,0-2.3,5.4-1.4,8.8,0,0,5.6-.5,7-12.5,0,0,.3,11.6,1.2,14.2,0,0,3.8-12.7,5.5-15,0,0-.6,9.3,0,11.6a13.2,13.2,0,0,0,3.5-3.4s-2.7,4.9-.6,7.2a13,13,0,0,0,6.1-8.1s.3,6.3,2,9.5Z" style="fill:#d3de46"/><path d="M472.9,340.9s7-15,6.1-24.6c0,0,1.6,14.2.1,19.1,0,0,3.1-5.5,4.8-6.8,0,0-2.3,5.4-1.4,8.8,0,0,5.6-.5,7-12.5,0,0,.3,11.6,1.2,14.2,0,0,3.8-12.7,5.5-15,0,0-.6,9.3,0,11.6a13.2,13.2,0,0,0,3.5-3.4s-2.7,4.9-.6,7.2a13,13,0,0,0,6.1-8.1s.3,6.3,2,9.5Z" style="fill:#d3de46"/><path d="M442,340.9s7-15,6.1-24.6c0,0,1.6,14.2.1,19.1,0,0,3.1-5.5,4.8-6.8,0,0-2.3,5.4-1.4,8.8,0,0,5.6-.5,7-12.5,0,0,.3,11.6,1.2,14.2,0,0,3.8-12.7,5.5-15,0,0-.6,9.3,0,11.6a13.2,13.2,0,0,0,3.5-3.4s-2.7,4.9-.6,7.2a13,13,0,0,0,6.1-8.1s.3,6.3,2,9.5Z" style="fill:#d3de46"/><path d="M539.7,411.6s7-15,6.1-24.6c0,0,1.6,14.2.1,19.1,0,0,3.1-5.5,4.8-6.8,0,0-2.3,5.4-1.4,8.8,0,0,5.6-.5,7-12.5,0,0,.3,11.6,1.2,14.2,0,0,3.8-12.7,5.5-15,0,0-.6,9.3,0,11.6a13.2,13.2,0,0,0,3.5-3.4s-2.7,4.9-.6,7.2a13,13,0,0,0,6.1-8.1s.3,6.3,2,9.5Z" style="fill:#d3de46"/><path d="M116.1,341.2s7-15,6.1-24.6c0,0,1.6,14.2.1,19.1,0,0,3.1-5.5,4.8-6.8,0,0-2.3,5.4-1.4,8.8,0,0,5.6-.5,7-12.5,0,0,.3,11.6,1.2,14.2,0,0,3.8-12.7,5.5-15,0,0-.6,9.3,0,11.6a13.2,13.2,0,0,0,3.5-3.4s-2.7,4.9-.6,7.2a13,13,0,0,0,6.1-8.1s.3,6.3,2,9.5Z" style="fill:#d3de46"/><path d="M692.1,410.6s7-15,6.1-24.6c0,0,1.6,14.2.1,19.1,0,0,3.1-5.5,4.8-6.8,0,0-2.3,5.4-1.4,8.8,0,0,5.6-.5,7-12.5,0,0,.3,11.6,1.2,14.2,0,0,3.8-12.7,5.5-15,0,0-.6,9.3,0,11.6a13.2,13.2,0,0,0,3.5-3.4s-2.7,4.9-.6,7.2a13,13,0,0,0,6.1-8.1s.3,6.3,2,9.5Z" style="fill:#d3de46"/><path d="M661.2,410.6s7-15,6.1-24.6c0,0,1.6,14.2.1,19.1,0,0,3.1-5.5,4.8-6.8,0,0-2.3,5.4-1.4,8.8,0,0,5.6-.5,7-12.5,0,0,.3,11.6,1.2,14.2,0,0,3.8-12.7,5.5-15,0,0-.6,9.3,0,11.6a13.2,13.2,0,0,0,3.5-3.4s-2.7,4.9-.6,7.2a13,13,0,0,0,6.1-8.1s.3,6.3,2,9.5Z" style="fill:#d3de46"/><path d="M212.4,319.6l4.5,2.6a1.7,1.7,0,0,1,.9,1.5v5.2a1.7,1.7,0,0,1-.9,1.5l-4.5,2.6a1.7,1.7,0,0,1-1.7,0l-4.5-2.6a1.7,1.7,0,0,1-.9-1.5v-5.2a1.7,1.7,0,0,1,.9-1.5l4.5-2.6A1.7,1.7,0,0,1,212.4,319.6Z" style="fill:#bbbe3a"/><path d="M212.4,316.9l5.1,2.9a1.9,1.9,0,0,1,1,1.7v5.9a1.9,1.9,0,0,1-1,1.7l-5.1,2.9a1.9,1.9,0,0,1-1.9,0l-5.1-2.9a1.9,1.9,0,0,1-1-1.7v-5.9a1.9,1.9,0,0,1,1-1.7l5.1-2.9A1.9,1.9,0,0,1,212.4,316.9Z" style="fill:#d3de46"/><path d="M202.8,324.4l4.5,2.6a1.7,1.7,0,0,1,.9,1.5v5.2a1.7,1.7,0,0,1-.9,1.5l-4.5,2.6a1.7,1.7,0,0,1-1.7,0l-4.5-2.6a1.7,1.7,0,0,1-.9-1.5v-5.2a1.7,1.7,0,0,1,.9-1.5l4.5-2.6A1.7,1.7,0,0,1,202.8,324.4Z" style="fill:#bbbe3a"/><path d="M202.8,321.7l5.1,2.9a1.9,1.9,0,0,1,1,1.7v5.9a1.9,1.9,0,0,1-1,1.7l-5.1,2.9a1.9,1.9,0,0,1-1.9,0l-5.1-2.9a1.9,1.9,0,0,1-1-1.7v-5.9a1.9,1.9,0,0,1,1-1.7l5.1-2.9A1.9,1.9,0,0,1,202.8,321.7Z" style="fill:#d3de46"/><rect x="203.7" y="334.2" width="7.2" height="4.56" style="fill:#6e8c3b"/><path d="M201.1,320.9l1.1,1.9a.7.7,0,0,1,0,.7l-1.1,1.9a.7.7,0,0,1-.6.4h-2.2a.7.7,0,0,1-.6-.4l-1.1-1.9a.7.7,0,0,1,0-.7l1.1-1.9a.7.7,0,0,1,.6-.4h2.2A.7.7,0,0,1,201.1,320.9Z" style="fill:#6e8c3b"/><path d="M201.1,320.6l1.1,1.9a.7.7,0,0,1,0,.7l-1.1,1.9a.7.7,0,0,1-.6.4h-2.2a.7.7,0,0,1-.6-.4l-1.1-1.9a.7.7,0,0,1,0-.7l1.1-1.9a.7.7,0,0,1,.6-.4h2.2A.7.7,0,0,1,201.1,320.6Z" style="fill:#8ea43b"/><path d="M209.1,318.8l6.6,3.8a2.5,2.5,0,0,1,1.3,2.2v7.6a2.5,2.5,0,0,1-1.3,2.2l-6.6,3.8a2.5,2.5,0,0,1-2.5,0l-6.6-3.8a2.5,2.5,0,0,1-1.3-2.2v-7.6a2.5,2.5,0,0,1,1.3-2.2l6.6-3.8A2.5,2.5,0,0,1,209.1,318.8Z" style="fill:#6e8c3b"/><path d="M208.6,317.8l6.6,3.8a2.5,2.5,0,0,1,1.3,2.2v7.6a2.5,2.5,0,0,1-1.3,2.2l-6.6,3.8a2.5,2.5,0,0,1-2.5,0l-6.6-3.8a2.5,2.5,0,0,1-1.3-2.2v-7.6a2.5,2.5,0,0,1,1.3-2.2l6.6-3.8A2.5,2.5,0,0,1,208.6,317.8Z" style="fill:#a3c23a"/><path d="M217.7,325.9l2.7,4.7a1.8,1.8,0,0,1,0,1.8l-2.7,4.6a1.8,1.8,0,0,1-1.5.9h-5.4a1.8,1.8,0,0,1-1.5-.9l-2.7-4.7a1.8,1.8,0,0,1,0-1.8l2.7-4.6a1.8,1.8,0,0,1,1.5-.9h5.4A1.8,1.8,0,0,1,217.7,325.9Z" style="fill:#6e8c3b"/><path d="M217.8,325.1l2.7,4.7a1.8,1.8,0,0,1,0,1.8l-2.7,4.6a1.8,1.8,0,0,1-1.5.9h-5.4a1.8,1.8,0,0,1-1.5-.9l-2.7-4.7a1.8,1.8,0,0,1,0-1.8l2.7-4.6a1.8,1.8,0,0,1,1.5-.9h5.4A1.8,1.8,0,0,1,217.8,325.1Z" style="fill:#8ea43b"/><path d="M107.1,308.3l6.3,3.6a2.4,2.4,0,0,1,1.2,2.1v7.3a2.4,2.4,0,0,1-1.2,2.1l-6.3,3.6a2.4,2.4,0,0,1-2.4,0l-6.3-3.6a2.4,2.4,0,0,1-1.2-2.1V314a2.4,2.4,0,0,1,1.2-2.1l6.3-3.6A2.4,2.4,0,0,1,107.1,308.3Z" style="fill:#bbbe3a"/><path d="M107.1,304.5l7.1,4.1a2.7,2.7,0,0,1,1.4,2.4v8.2a2.7,2.7,0,0,1-1.4,2.4l-7.1,4.1a2.7,2.7,0,0,1-2.7,0l-7.1-4.1a2.7,2.7,0,0,1-1.4-2.4V311a2.7,2.7,0,0,1,1.4-2.4l7.1-4.1A2.7,2.7,0,0,1,107.1,304.5Z" style="fill:#d3de46"/><path d="M93.6,315l6.3,3.6a2.4,2.4,0,0,1,1.2,2.1V328a2.4,2.4,0,0,1-1.2,2.1l-6.3,3.6a2.4,2.4,0,0,1-2.4,0l-6.3-3.6a2.4,2.4,0,0,1-1.2-2.1v-7.3a2.4,2.4,0,0,1,1.2-2.1l6.3-3.6A2.4,2.4,0,0,1,93.6,315Z" style="fill:#bbbe3a"/><path d="M93.6,311.3l7.1,4.1a2.7,2.7,0,0,1,1.4,2.4V326a2.7,2.7,0,0,1-1.4,2.4l-7.1,4.1a2.7,2.7,0,0,1-2.7,0l-7.1-4.1a2.7,2.7,0,0,1-1.4-2.4v-8.2a2.7,2.7,0,0,1,1.4-2.4l7.1-4.1A2.7,2.7,0,0,1,93.6,311.3Z" style="fill:#d3de46"/><rect x="94.9" y="328.9" width="10.1" height="6.41" style="fill:#6e8c3b"/><path d="M91.2,310.1l1.5,2.6a1,1,0,0,1,0,1l-1.5,2.6a1,1,0,0,1-.9.5h-3a1,1,0,0,1-.9-.5l-1.5-2.6a1,1,0,0,1,0-1l1.5-2.6a1,1,0,0,1,.9-.5h3A1,1,0,0,1,91.2,310.1Z" style="fill:#6e8c3b"/><path d="M91.3,309.7l1.5,2.6a1,1,0,0,1,0,1l-1.5,2.6a1,1,0,0,1-.9.5h-3a1,1,0,0,1-.9-.5L85,313.3a1,1,0,0,1,0-1l1.5-2.6a1,1,0,0,1,.9-.5h3A1,1,0,0,1,91.3,309.7Z" style="fill:#8ea43b"/><path d="M102.5,307.1l9.2,5.3a3.5,3.5,0,0,1,1.8,3.1v10.7a3.5,3.5,0,0,1-1.8,3.1l-9.2,5.3a3.5,3.5,0,0,1-3.5,0l-9.2-5.3a3.5,3.5,0,0,1-1.8-3.1V315.6a3.5,3.5,0,0,1,1.8-3.1l9.2-5.3A3.5,3.5,0,0,1,102.5,307.1Z" style="fill:#6e8c3b"/><path d="M101.7,305.7l9.2,5.3a3.5,3.5,0,0,1,1.8,3.1v10.7a3.5,3.5,0,0,1-1.8,3.1l-9.2,5.3a3.5,3.5,0,0,1-3.5,0l-9.2-5.3a3.5,3.5,0,0,1-1.8-3.1V314.2a3.5,3.5,0,0,1,1.8-3.1l9.2-5.3A3.5,3.5,0,0,1,101.7,305.7Z" style="fill:#a3c23a"/><path d="M114.6,317.2l3.7,6.6a2.5,2.5,0,0,1,0,2.5l-3.8,6.5a2.5,2.5,0,0,1-2.2,1.2h-7.5a2.5,2.5,0,0,1-2.2-1.3l-3.7-6.6a2.5,2.5,0,0,1,0-2.5l3.8-6.5a2.5,2.5,0,0,1,2.2-1.2h7.5A2.5,2.5,0,0,1,114.6,317.2Z" style="fill:#6e8c3b"/><path d="M114.6,316l3.7,6.6a2.5,2.5,0,0,1,0,2.5l-3.8,6.5a2.5,2.5,0,0,1-2.2,1.2h-7.5a2.5,2.5,0,0,1-2.2-1.3L98.9,325a2.5,2.5,0,0,1,0-2.5l3.8-6.5a2.5,2.5,0,0,1,2.2-1.2h7.5A2.5,2.5,0,0,1,114.6,316Z" style="fill:#8ea43b"/><rect x="185.8" y="88.1" width="266.6" height="185.72" style="fill:#f2d6bb"/><path d="M318.2,88.1H185.8V273.8H312.7C297.2,197.4,310.3,122,318.2,88.1Z" style="opacity:0.05"/><polygon points="236 204.5 226.5 246.6 245 235.4 261.3 246.6 254 204.5 236 204.5" style="fill:#1c75bc"/><path d="M232.9,218.2a22.4,22.4,0,0,0,23.5.4L254,204.5H236Z" style="opacity:0.1"/><path d="M440.3,99.9v161H196.2V99.9H440.3m3.2-3.2H193.1V264H443.5V96.7Z" style="fill:#fbb040"/><circle cx="245" cy="195.9" r="22.5" style="fill:#1c75bc"/><circle cx="245" cy="195.9" r="16.8" style="fill:none;stroke:#2b3990;stroke-miterlimit:10;stroke-width:2.387310368292482px"/><text transform="translate(296.6 147.7)" style="font-size:40.121185302734375px;fill:#262320;font-family:BernardMT-Condensed, Bernard MT Condensed">NVQ</text><line x1="300.6" y1="187.1" x2="409.5" y2="187.1" style="fill:none;stroke:#2b3990;stroke-miterlimit:10;stroke-width:2.387310368292482px"/><line x1="300.6" y1="199.5" x2="409.5" y2="199.5" style="fill:none;stroke:#2b3990;stroke-miterlimit:10;stroke-width:2.387310368292482px"/><line x1="300.6" y1="213.1" x2="376.7" y2="213.1" style="fill:none;stroke:#2b3990;stroke-miterlimit:10;stroke-width:2.387310368292482px"/><path d="M675.7,135c.8-17.5-1.2-28.9-5.9-33.8a6.2,6.2,0,0,0-4.4-2.2v4.5a5.1,5.1,0,0,1,1.1.9c1.7,1.8,5.6,8.3,4.6,30.5,0,0-5,1.1-2.7,13.1l5.5-2C677.4,144.6,677.9,138.3,675.7,135Z" style="fill:#fbb040"/><polygon points="617.5 48.3 526.4 96.2 617.5 135.4 706.1 91.8 617.5 48.3" style="fill:#3c4060"/><polygon points="616.3 48.9 526.4 96.2 616.3 134.9 616.3 48.9" style="opacity:0.1"/><path d="M571.4,97.1s43.5-13.1,87.1,0v34H571.4Z" style="fill:#3c4060"/><ellipse cx="615" cy="131" rx="43.5" ry="7.4" style="fill:#292c3f"/><path d="M571.4,97.1v34h5.5c-.3-11.9,8.9-33.3,81.6-26.5V97.1C615,84,571.4,97.1,571.4,97.1Z" style="opacity:0.1"/><path d="M477.1,263.5,324.8,277.4,172.6,263.5s-26.9,41.7,0,66.5l152.3-10.3L477.1,330C504,305.1,477.1,263.5,477.1,263.5Z" style="fill:#f2d6bb"/><path d="M164.5,319.3a36.5,36.5,0,0,0,8.1,10.7l152.3-10.3L477.1,330a36.3,36.3,0,0,0,8.5-11.7C321.9,281.7,205.1,307.4,164.5,319.3Z" style="opacity:0.1"/><polyline points="308.6 313.2 287.5 369.1 302.7 360.1 308.6 377 321.8 319.5 308.6 313.2" style="fill:#be1e2d"/><polyline points="338.9 313.2 360.1 369.1 344.8 360.1 338.9 377 325.7 319.5 338.9 313.2" style="fill:#be1e2d"/><path d="M338.9,313.2l-13.2,6.3,3.7,16.1a58,58,0,0,0,16.2-4.9Z" style="opacity:0.1"/><path d="M301.8,331.2a45.7,45.7,0,0,0,16.3,4.7l3.8-16.4-13.2-6.3Z" style="opacity:0.1"/><path d="M329.6,266h0a7.5,7.5,0,0,1,13.1,5.4h0a7.5,7.5,0,0,0,7.9,7.9h0a7.5,7.5,0,0,1,5.4,13.1h0a7.5,7.5,0,0,0,0,11.2h0a7.5,7.5,0,0,1-5.4,13.1h0a7.5,7.5,0,0,0-7.9,7.9h0a7.5,7.5,0,0,1-13.1,5.4h0a7.5,7.5,0,0,0-11.2,0h0a7.5,7.5,0,0,1-13.1-5.4h0a7.5,7.5,0,0,0-7.9-7.9h0a7.5,7.5,0,0,1-5.4-13.1h0a7.5,7.5,0,0,0,0-11.2h0a7.5,7.5,0,0,1,5.4-13.1h0a7.5,7.5,0,0,0,7.9-7.9h0a7.5,7.5,0,0,1,13.1-5.4h0A7.5,7.5,0,0,0,329.6,266Z" style="fill:#fbb040"/><circle cx="323.7" cy="298.5" r="21.1" style="fill:#be1e2d;stroke:#871826;stroke-miterlimit:10;stroke-width:3.449712095068591px"/><path d="M613.7,121.5c-89.1,1.8-67.6,110.7-67.9,147.5h67.9Z" style="fill:#c67314"/><path d="M613.8,121.5c92.5,3.5,67.6,110.7,67.9,147.5H613.8Z" style="fill:#ea9524"/><path d="M571,206.8c.9,6.3-2.6,12-7.9,12.8h0c-5.3.8-10.4-3.6-11.3-9.9l-1.2-7.9c-.9-6.3,2.6-12,7.8-12.8h0c5.3-.8,10.4,3.6,11.3,9.9Z" style="fill:#e09b7f"/><path d="M656.5,206.1c-.9,6.3,2.6,12,7.9,12.8h0c5.3.8,10.4-3.6,11.3-9.9l1.2-7.9c.9-6.3-2.6-12-7.9-12.8h0c-5.3-.8-10.4,3.6-11.3,9.9Z" style="fill:#eeb7a5"/><path d="M644.3,340.7s48.2,15.5,112.7-163.3l-17.5-5.9c-9.5,20.2-63.1,129.4-86.6,128.3Z" style="fill:#e09b7f"/><path d="M744.5,130.4c-2.9,9.3-6,38.6-4.3,43.7l16.1,4.8c3.8-10.3,10.9-16.7,10-28.4-.7-9.3-4-18.1-7.4-26.8C753.9,111.1,747.1,122.3,744.5,130.4Z" style="fill:#e09b7f"/><rect x="599.3" y="242.2" width="14.5" height="45.11" style="fill:#e09b7f"/><rect x="613.7" y="242.2" width="14.5" height="45.11" style="fill:#eeb7a5"/><path d="M563.5,336.3s-49.8,9.2-91-176.4l18.2-3.6c6.9,21.3,46.2,136.4,69.6,138.3Z" style="fill:#f4c3ae"/><path d="M490.9,114.9c1.7,9.6,1.1,39.1-1.3,43.9l-16.6,2.6c-2.4-10.6-8.7-18-6.3-29.4,2-9.2,6.2-17.5,10.7-25.5C483.9,94.7,489.4,106.5,490.9,114.9Z" style="fill:#f4c3ae"/><path d="M613.8,166.2H559.1s-9.2,96.2,54.7,96.9Z" style="fill:#eaaf93"/><path d="M613.7,166.2h54.7s9.2,96.2-54.7,96.9Z" style="fill:#f4c3ae"/><path d="M613.8,284.6c-7.1-.9-44.8-4.8-59.6,15.3-11.2,15.3,17.2,73,20.9,102.1s-28,52.1-17.5,78.4c8.7,21.8,33.7,32.9,56.3,33.3V284.6Z" style="fill:#eaaf93"/><path d="M613.8,284.6c7.1-.9,44.8-4.8,59.6,15.3,11.2,15.3-17.2,73-20.9,102.1s28,52.1,17.5,78.4c-8.7,21.8-33.7,32.9-56.3,33.3V284.6Z" style="fill:#f4c3ae"/><path d="M613.7,128.6c-33.2.4-60.1,31.4-60.3,64h60.3Z" style="fill:#ea9524"/><path d="M613.8,128.6c33.2.4,60.1,31.4,60.3,64H613.8Z" style="fill:#f9b03d"/><path d="M563.4,442.3c-6,12.7-11,25.2-5.9,38.1,8.7,21.8,33.7,32.9,56.3,33.3V442.3Z" style="fill:#02679a"/><path d="M613.8,442.3v71.5c22.6-.5,47.6-11.5,56.3-33.3,5.2-13,.1-25.5-5.9-38.1Z" style="fill:#1485b3"/><path d="M558.3,454.2h55.5V308.3h-1A35.3,35.3,0,0,1,587.9,298a34.4,34.4,0,0,1-8-12.5c-6.6,1.4-11.6,2.7-16.9,5.8-2.8,1.6-8.3,46.7-2.3,61.1,7.4,17.8,12.8,37.1,14.4,49.7C577.3,420.3,564.3,437.2,558.3,454.2Z" style="fill:#07aa9e"/><path d="M669.3,454.2H613.8V308.3h1A35.3,35.3,0,0,0,639.7,298a34.4,34.4,0,0,0,8-12.5c6.6,1.4,11.6,2.7,16.9,5.8,2.8,1.6,8.3,46.7,2.3,61.1-7.4,17.8-12.8,37.1-14.4,49.7C650.2,420.3,663.2,437.2,669.3,454.2Z" style="fill:#56bbaf"/><polygon points="613.5 462.4 554.2 462.4 558.6 446 613.5 446 613.5 462.4" style="fill:#39343c"/><polygon points="672.8 462.4 613.5 462.4 613.5 446 668.3 446 672.8 462.4" style="fill:#575758"/><path d="M613.8,308.3s-25.2-2.3-34-25.1l-21.3,8.1S576.3,349.9,613.8,308.3Z" style="fill:#cdcccc"/><path d="M613.6,308.3s25.2-2.3,34-25.1l21.3,8.1S651.2,349.9,613.6,308.3Z" style="fill:#f2f2f2"/><path d="M687.5,350c-38.7,3.5-35.3-68.8-35.3-68.8-26.7.4-27,11-27,11s-5.4,55-4,104.8l70.6-7.7Z" style="fill:#e9f81f"/><path d="M626.7,448.6c11.9,51.2,73.9,21.2,73.9,21.2l-3.3-30-70.8,7.7Z" style="fill:#e9f81f"/><path d="M622.1,415.3c.4,4.9.8,9.7,1.3,14.3l71.9-7.8-1.6-14.3Z" style="fill:#e9f81f"/><path d="M693.8,407.5l-2-18.1L621.2,397c.2,6.2.5,12.3.9,18.2Z" style="fill:#b8b8b8"/><path d="M626.4,447.6l70.8-7.7-2-18.1-71.9,7.8A182.1,182.1,0,0,0,626.4,447.6Z" style="fill:#b8b8b8"/><rect x="643" y="281.9" width="11.6" height="120.96" transform="translate(-33.2 72.1) rotate(-6.2)" style="fill:#b8b8b8"/><path d="M610,413.3l-72-1.6-.3,14.4,72.3,1.6C610,423,610.1,418.2,610,413.3Z" style="fill:#e9f81f"/><path d="M536.5,474.4s64.3,24.6,71.8-27.5v-1l-71.2-1.6Z" style="fill:#e9f81f"/><path d="M596.4,291s1.1-15.1-27.8-6.7c0,0,9.6,69.7-29.3,69.5l-.9,39.6,71,1.6C606.5,345.3,596.4,291,596.4,291Z" style="fill:#e9f81f"/><path d="M609.3,395l-71-1.6-.4,18.2,72,1.6C609.9,407.3,609.7,401.2,609.3,395Z" style="fill:#b8b8b8"/><path d="M537.6,426l-.4,18.2,71.2,1.6a182.1,182.1,0,0,0,1.4-18.2Z" style="fill:#b8b8b8"/><polygon points="581 403.5 569.4 403.2 572.2 283.3 583.7 281.6 581 403.5" style="fill:#b8b8b8"/><path d="M42.9,190.6l26.3,15.2a10.1,10.1,0,0,1,5,8.7v30.3a10.1,10.1,0,0,1-5,8.7L42.9,268.6a10.1,10.1,0,0,1-10.1,0L6.6,253.5a10.1,10.1,0,0,1-5-8.7V214.4a10.1,10.1,0,0,1,5-8.7l26.3-15.2A10.1,10.1,0,0,1,42.9,190.6Z" style="fill:#6e8c3b"/><path d="M40.7,186.6,67,201.8a10.1,10.1,0,0,1,5,8.7v30.3a10.1,10.1,0,0,1-5,8.7L40.7,264.7a10.1,10.1,0,0,1-10.1,0L4.4,249.5a10.1,10.1,0,0,1-5-8.7V210.5a10.1,10.1,0,0,1,5-8.7l26.3-15.2A10.1,10.1,0,0,1,40.7,186.6Z" style="fill:#a3c23a"/><polygon points="37.1 219 36.6 232.1 22.8 215 36.6 233.5 33.3 341.7 40.3 341.7 38.2 253.1 44.5 232.1 38.1 246.2 37.1 219" style="fill:#967e2e"/><path d="M184.9,400.6s7-15,6.1-24.6c0,0,1.6,14.2.1,19.1,0,0,3.1-5.5,4.8-6.8,0,0-2.3,5.4-1.4,8.8,0,0,5.6-.5,7-12.5,0,0,.3,11.6,1.2,14.2,0,0,3.8-12.7,5.5-15,0,0-.6,9.3,0,11.6a13.2,13.2,0,0,0,3.5-3.4s-2.7,4.9-.6,7.2a13,13,0,0,0,6.1-8.1s.3,6.3,2,9.5Z" style="fill:#d3de46"/><path d="M10.9,343.7s7-15,6.1-24.6c0,0,1.6,14.2.1,19.1,0,0,3.1-5.5,4.8-6.8,0,0-2.3,5.4-1.4,8.8,0,0,5.6-.5,7-12.5,0,0,.3,11.6,1.2,14.2,0,0,3.8-12.7,5.5-15,0,0-.6,9.3,0,11.6a13.2,13.2,0,0,0,3.5-3.4s-2.7,4.9-.6,7.2a13,13,0,0,0,6.1-8.1s.3,6.3,2,9.5Z" style="fill:#d3de46"/><path d="M729.7,351.8s7-15,6.1-24.6c0,0,1.6,14.2.1,19.1,0,0,3.1-5.5,4.8-6.8,0,0-2.3,5.4-1.4,8.8,0,0,5.6-.5,7-12.5,0,0,.3,11.6,1.2,14.2,0,0,3.8-12.7,5.5-15,0,0-.6,9.3,0,11.6a13.2,13.2,0,0,0,3.5-3.4s-2.7,4.9-.6,7.2a13,13,0,0,0,6.1-8.1s.3,6.3,2,9.5Z" style="fill:#d3de46"/></g></svg>