<svg id="Layer_1" data-name="Layer 1" xmlns="http://www.w3.org/2000/svg" xmlns:xlink="http://www.w3.org/1999/xlink" viewBox="0 0 800 450"><defs><clipPath id="clip-path"><rect x="-862" y="-678.1" width="800" height="449.49" style="fill:none"/></clipPath><clipPath id="clip-path-2"><rect x="-862" width="800" height="450" style="fill:none"/></clipPath><clipPath id="clip-path-3"><rect width="800" height="449.49" style="fill:none"/></clipPath></defs><title>topic page header assets</title><g style="clip-path:url(#clip-path-2)"><path d="M-881.3,573H35L17.6,423.7s-309.8-35.4-460.7-35.4-380.3,21.6-461.3,26.6" style="fill:#8ea43b"/></g><g style="clip-path:url(#clip-path-3)"><path d="M-78.5,508.4H837.9l-9.5-182.9s-317.8-25.8-468.7-25.8S2,322.9-79,327.9" style="fill:#a3c23b"/><path d="M139.1,206.7,161,219.3a8.4,8.4,0,0,1,4.2,7.2v25.2a8.4,8.4,0,0,1-4.2,7.2l-21.8,12.6a8.4,8.4,0,0,1-8.4,0L109,258.9a8.4,8.4,0,0,1-4.2-7.2V226.5a8.4,8.4,0,0,1,4.2-7.2l21.8-12.6A8.4,8.4,0,0,1,139.1,206.7Z" style="fill:#6e8c3b"/><path d="M137.3,203.4,159.1,216a8.4,8.4,0,0,1,4.2,7.2v25.2a8.4,8.4,0,0,1-4.2,7.2l-21.8,12.6a8.4,8.4,0,0,1-8.4,0l-21.8-12.6a8.4,8.4,0,0,1-4.2-7.2V223.2a8.4,8.4,0,0,1,4.2-7.2L129,203.4A8.4,8.4,0,0,1,137.3,203.4Z" style="fill:#a3c23a"/><polygon points="134.3 230.3 133.9 241.2 122.5 227 133.9 242.4 131.1 332.2 137 332.2 135.3 258.7 140.5 241.2 135.1 252.9 134.3 230.3" style="fill:#967e2e"/><path d="M113.2,225.2l17.1,9.9a6.6,6.6,0,0,1,3.3,5.7v19.8a6.6,6.6,0,0,1-3.3,5.7l-17.1,9.9a6.6,6.6,0,0,1-6.6,0l-17.1-9.9a6.6,6.6,0,0,1-3.3-5.7V240.8a6.6,6.6,0,0,1,3.3-5.7l17.1-9.9A6.6,6.6,0,0,1,113.2,225.2Z" style="fill:#bbbe3a"/><path d="M111.2,222.9l17.1,9.9a6.6,6.6,0,0,1,3.3,5.7v19.8a6.6,6.6,0,0,1-3.3,5.7l-17.1,9.9a6.6,6.6,0,0,1-6.6,0l-17.1-9.9a6.6,6.6,0,0,1-3.3-5.7V238.4a6.6,6.6,0,0,1,3.3-5.7l17.1-9.9A6.6,6.6,0,0,1,111.2,222.9Z" style="fill:#d3de46"/><polygon points="107 248.8 106.7 257.2 97.8 246.2 106.7 258.1 104.5 320.4 109.1 320.4 107.7 270.7 111.8 257.2 107.6 266.3 107 248.8" style="fill:#967e2e"/><path d="M.7,573H917L899.6,423.7s-309.8-35.4-460.7-35.4S58.6,409.9-22.4,414.9" style="fill:#8ea43b"/><path d="M539.7,411.6s7-15,6.1-24.6c0,0,1.6,14.2.1,19.1,0,0,3.1-5.5,4.8-6.8,0,0-2.3,5.4-1.4,8.8,0,0,5.6-.5,7-12.5,0,0,.3,11.6,1.2,14.2,0,0,3.8-12.7,5.5-15,0,0-.6,9.3,0,11.6a13.2,13.2,0,0,0,3.5-3.4s-2.7,4.9-.6,7.2a13,13,0,0,0,6.1-8.1s.3,6.3,2,9.5Z" style="fill:#d3de46"/><path d="M116.1,341.2s7-15,6.1-24.6c0,0,1.6,14.2.1,19.1,0,0,3.1-5.5,4.8-6.8,0,0-2.3,5.4-1.4,8.8,0,0,5.6-.5,7-12.5,0,0,.3,11.6,1.2,14.2,0,0,3.8-12.7,5.5-15,0,0-.6,9.3,0,11.6a13.2,13.2,0,0,0,3.5-3.4s-2.7,4.9-.6,7.2a13,13,0,0,0,6.1-8.1s.3,6.3,2,9.5Z" style="fill:#d3de46"/><path d="M692.1,410.6s7-15,6.1-24.6c0,0,1.6,14.2.1,19.1,0,0,3.1-5.5,4.8-6.8,0,0-2.3,5.4-1.4,8.8,0,0,5.6-.5,7-12.5,0,0,.3,11.6,1.2,14.2,0,0,3.8-12.7,5.5-15,0,0-.6,9.3,0,11.6a13.2,13.2,0,0,0,3.5-3.4s-2.7,4.9-.6,7.2a13,13,0,0,0,6.1-8.1s.3,6.3,2,9.5Z" style="fill:#d3de46"/><path d="M661.2,410.6s7-15,6.1-24.6c0,0,1.6,14.2.1,19.1,0,0,3.1-5.5,4.8-6.8,0,0-2.3,5.4-1.4,8.8,0,0,5.6-.5,7-12.5,0,0,.3,11.6,1.2,14.2,0,0,3.8-12.7,5.5-15,0,0-.6,9.3,0,11.6a13.2,13.2,0,0,0,3.5-3.4s-2.7,4.9-.6,7.2a13,13,0,0,0,6.1-8.1s.3,6.3,2,9.5Z" style="fill:#d3de46"/><path d="M212.4,319.6l4.5,2.6a1.7,1.7,0,0,1,.9,1.5v5.2a1.7,1.7,0,0,1-.9,1.5l-4.5,2.6a1.7,1.7,0,0,1-1.7,0l-4.5-2.6a1.7,1.7,0,0,1-.9-1.5v-5.2a1.7,1.7,0,0,1,.9-1.5l4.5-2.6A1.7,1.7,0,0,1,212.4,319.6Z" style="fill:#bbbe3a"/><path d="M212.4,316.9l5.1,2.9a1.9,1.9,0,0,1,1,1.7v5.9a1.9,1.9,0,0,1-1,1.7l-5.1,2.9a1.9,1.9,0,0,1-1.9,0l-5.1-2.9a1.9,1.9,0,0,1-1-1.7v-5.9a1.9,1.9,0,0,1,1-1.7l5.1-2.9A1.9,1.9,0,0,1,212.4,316.9Z" style="fill:#d3de46"/><path d="M202.8,324.4l4.5,2.6a1.7,1.7,0,0,1,.9,1.5v5.2a1.7,1.7,0,0,1-.9,1.5l-4.5,2.6a1.7,1.7,0,0,1-1.7,0l-4.5-2.6a1.7,1.7,0,0,1-.9-1.5v-5.2a1.7,1.7,0,0,1,.9-1.5l4.5-2.6A1.7,1.7,0,0,1,202.8,324.4Z" style="fill:#bbbe3a"/><path d="M202.8,321.7l5.1,2.9a1.9,1.9,0,0,1,1,1.7v5.9a1.9,1.9,0,0,1-1,1.7l-5.1,2.9a1.9,1.9,0,0,1-1.9,0l-5.1-2.9a1.9,1.9,0,0,1-1-1.7v-5.9a1.9,1.9,0,0,1,1-1.7l5.1-2.9A1.9,1.9,0,0,1,202.8,321.7Z" style="fill:#d3de46"/><rect x="203.7" y="334.2" width="7.2" height="4.56" style="fill:#6e8c3b"/><path d="M201.1,320.9l1.1,1.9a.7.7,0,0,1,0,.7l-1.1,1.9a.7.7,0,0,1-.6.4h-2.2a.7.7,0,0,1-.6-.4l-1.1-1.9a.7.7,0,0,1,0-.7l1.1-1.9a.7.7,0,0,1,.6-.4h2.2A.7.7,0,0,1,201.1,320.9Z" style="fill:#6e8c3b"/><path d="M201.1,320.6l1.1,1.9a.7.7,0,0,1,0,.7l-1.1,1.9a.7.7,0,0,1-.6.4h-2.2a.7.7,0,0,1-.6-.4l-1.1-1.9a.7.7,0,0,1,0-.7l1.1-1.9a.7.7,0,0,1,.6-.4h2.2A.7.7,0,0,1,201.1,320.6Z" style="fill:#8ea43b"/><path d="M209.1,318.8l6.6,3.8a2.5,2.5,0,0,1,1.3,2.2v7.6a2.5,2.5,0,0,1-1.3,2.2l-6.6,3.8a2.5,2.5,0,0,1-2.5,0l-6.6-3.8a2.5,2.5,0,0,1-1.3-2.2v-7.6a2.5,2.5,0,0,1,1.3-2.2l6.6-3.8A2.5,2.5,0,0,1,209.1,318.8Z" style="fill:#6e8c3b"/><path d="M208.6,317.8l6.6,3.8a2.5,2.5,0,0,1,1.3,2.2v7.6a2.5,2.5,0,0,1-1.3,2.2l-6.6,3.8a2.5,2.5,0,0,1-2.5,0l-6.6-3.8a2.5,2.5,0,0,1-1.3-2.2v-7.6a2.5,2.5,0,0,1,1.3-2.2l6.6-3.8A2.5,2.5,0,0,1,208.6,317.8Z" style="fill:#a3c23a"/><path d="M217.7,325.9l2.7,4.7a1.8,1.8,0,0,1,0,1.8l-2.7,4.6a1.8,1.8,0,0,1-1.5.9h-5.4a1.8,1.8,0,0,1-1.5-.9l-2.7-4.7a1.8,1.8,0,0,1,0-1.8l2.7-4.6a1.8,1.8,0,0,1,1.5-.9h5.4A1.8,1.8,0,0,1,217.7,325.9Z" style="fill:#6e8c3b"/><path d="M217.8,325.1l2.7,4.7a1.8,1.8,0,0,1,0,1.8l-2.7,4.6a1.8,1.8,0,0,1-1.5.9h-5.4a1.8,1.8,0,0,1-1.5-.9l-2.7-4.7a1.8,1.8,0,0,1,0-1.8l2.7-4.6a1.8,1.8,0,0,1,1.5-.9h5.4A1.8,1.8,0,0,1,217.8,325.1Z" style="fill:#8ea43b"/><path d="M107.1,308.3l6.3,3.6a2.4,2.4,0,0,1,1.2,2.1v7.3a2.4,2.4,0,0,1-1.2,2.1l-6.3,3.6a2.4,2.4,0,0,1-2.4,0l-6.3-3.6a2.4,2.4,0,0,1-1.2-2.1V314a2.4,2.4,0,0,1,1.2-2.1l6.3-3.6A2.4,2.4,0,0,1,107.1,308.3Z" style="fill:#bbbe3a"/><path d="M107.1,304.5l7.1,4.1a2.7,2.7,0,0,1,1.4,2.4v8.2a2.7,2.7,0,0,1-1.4,2.4l-7.1,4.1a2.7,2.7,0,0,1-2.7,0l-7.1-4.1a2.7,2.7,0,0,1-1.4-2.4V311a2.7,2.7,0,0,1,1.4-2.4l7.1-4.1A2.7,2.7,0,0,1,107.1,304.5Z" style="fill:#d3de46"/><path d="M93.6,315l6.3,3.6a2.4,2.4,0,0,1,1.2,2.1V328a2.4,2.4,0,0,1-1.2,2.1l-6.3,3.6a2.4,2.4,0,0,1-2.4,0l-6.3-3.6a2.4,2.4,0,0,1-1.2-2.1v-7.3a2.4,2.4,0,0,1,1.2-2.1l6.3-3.6A2.4,2.4,0,0,1,93.6,315Z" style="fill:#bbbe3a"/><path d="M93.6,311.3l7.1,4.1a2.7,2.7,0,0,1,1.4,2.4V326a2.7,2.7,0,0,1-1.4,2.4l-7.1,4.1a2.7,2.7,0,0,1-2.7,0l-7.1-4.1a2.7,2.7,0,0,1-1.4-2.4v-8.2a2.7,2.7,0,0,1,1.4-2.4l7.1-4.1A2.7,2.7,0,0,1,93.6,311.3Z" style="fill:#d3de46"/><rect x="94.9" y="328.9" width="10.1" height="6.41" style="fill:#6e8c3b"/><path d="M91.2,310.1l1.5,2.6a1,1,0,0,1,0,1l-1.5,2.6a1,1,0,0,1-.9.5h-3a1,1,0,0,1-.9-.5l-1.5-2.6a1,1,0,0,1,0-1l1.5-2.6a1,1,0,0,1,.9-.5h3A1,1,0,0,1,91.2,310.1Z" style="fill:#6e8c3b"/><path d="M91.3,309.7l1.5,2.6a1,1,0,0,1,0,1l-1.5,2.6a1,1,0,0,1-.9.5h-3a1,1,0,0,1-.9-.5L85,313.3a1,1,0,0,1,0-1l1.5-2.6a1,1,0,0,1,.9-.5h3A1,1,0,0,1,91.3,309.7Z" style="fill:#8ea43b"/><path d="M102.5,307.1l9.2,5.3a3.5,3.5,0,0,1,1.8,3.1v10.7a3.5,3.5,0,0,1-1.8,3.1l-9.2,5.3a3.5,3.5,0,0,1-3.5,0l-9.2-5.3a3.5,3.5,0,0,1-1.8-3.1V315.6a3.5,3.5,0,0,1,1.8-3.1l9.2-5.3A3.5,3.5,0,0,1,102.5,307.1Z" style="fill:#6e8c3b"/><path d="M101.7,305.7l9.2,5.3a3.5,3.5,0,0,1,1.8,3.1v10.7a3.5,3.5,0,0,1-1.8,3.1l-9.2,5.3a3.5,3.5,0,0,1-3.5,0l-9.2-5.3a3.5,3.5,0,0,1-1.8-3.1V314.2a3.5,3.5,0,0,1,1.8-3.1l9.2-5.3A3.5,3.5,0,0,1,101.7,305.7Z" style="fill:#a3c23a"/><path d="M114.6,317.2l3.7,6.6a2.5,2.5,0,0,1,0,2.5l-3.8,6.5a2.5,2.5,0,0,1-2.2,1.2h-7.5a2.5,2.5,0,0,1-2.2-1.3l-3.7-6.6a2.5,2.5,0,0,1,0-2.5l3.8-6.5a2.5,2.5,0,0,1,2.2-1.2h7.5A2.5,2.5,0,0,1,114.6,317.2Z" style="fill:#6e8c3b"/><path d="M114.6,316l3.7,6.6a2.5,2.5,0,0,1,0,2.5l-3.8,6.5a2.5,2.5,0,0,1-2.2,1.2h-7.5a2.5,2.5,0,0,1-2.2-1.3L98.9,325a2.5,2.5,0,0,1,0-2.5l3.8-6.5a2.5,2.5,0,0,1,2.2-1.2h7.5A2.5,2.5,0,0,1,114.6,316Z" style="fill:#8ea43b"/><path d="M42.9,190.6l26.3,15.2a10.1,10.1,0,0,1,5,8.7v30.3a10.1,10.1,0,0,1-5,8.7L42.9,268.6a10.1,10.1,0,0,1-10.1,0L6.6,253.5a10.1,10.1,0,0,1-5-8.7V214.4a10.1,10.1,0,0,1,5-8.7l26.3-15.2A10.1,10.1,0,0,1,42.9,190.6Z" style="fill:#6e8c3b"/><path d="M40.7,186.6,67,201.8a10.1,10.1,0,0,1,5,8.7v30.3a10.1,10.1,0,0,1-5,8.7L40.7,264.7a10.1,10.1,0,0,1-10.1,0L4.4,249.5a10.1,10.1,0,0,1-5-8.7V210.5a10.1,10.1,0,0,1,5-8.7l26.3-15.2A10.1,10.1,0,0,1,40.7,186.6Z" style="fill:#a3c23a"/><polygon points="37.1 219 36.6 232.1 22.8 215 36.6 233.5 33.3 341.7 40.3 341.7 38.2 253.1 44.5 232.1 38.1 246.2 37.1 219" style="fill:#967e2e"/><path d="M184.9,400.6s7-15,6.1-24.6c0,0,1.6,14.2.1,19.1,0,0,3.1-5.5,4.8-6.8,0,0-2.3,5.4-1.4,8.8,0,0,5.6-.5,7-12.5,0,0,.3,11.6,1.2,14.2,0,0,3.8-12.7,5.5-15,0,0-.6,9.3,0,11.6a13.2,13.2,0,0,0,3.5-3.4s-2.7,4.9-.6,7.2a13,13,0,0,0,6.1-8.1s.3,6.3,2,9.5Z" style="fill:#d3de46"/><path d="M10.9,343.7s7-15,6.1-24.6c0,0,1.6,14.2.1,19.1,0,0,3.1-5.5,4.8-6.8,0,0-2.3,5.4-1.4,8.8,0,0,5.6-.5,7-12.5,0,0,.3,11.6,1.2,14.2,0,0,3.8-12.7,5.5-15,0,0-.6,9.3,0,11.6a13.2,13.2,0,0,0,3.5-3.4s-2.7,4.9-.6,7.2a13,13,0,0,0,6.1-8.1s.3,6.3,2,9.5Z" style="fill:#d3de46"/><path d="M729.7,351.8s7-15,6.1-24.6c0,0,1.6,14.2.1,19.1,0,0,3.1-5.5,4.8-6.8,0,0-2.3,5.4-1.4,8.8,0,0,5.6-.5,7-12.5,0,0,.3,11.6,1.2,14.2,0,0,3.8-12.7,5.5-15,0,0-.6,9.3,0,11.6a13.2,13.2,0,0,0,3.5-3.4s-2.7,4.9-.6,7.2a13,13,0,0,0,6.1-8.1s.3,6.3,2,9.5Z" style="fill:#d3de46"/><polygon points="674.7 301.2 674.7 327.3 641.9 329.4 641.9 301.2 674.7 301.2" style="fill:#f4f4f4"/><path d="M396,335.1c-51,1.6-77,29-77,29H603.5L524,336S447,333.5,396,335.1Z" style="fill:#a4c441"/><path d="M500,338.6S341,345.4,403.9,366h40.7L500,346.9Z" style="fill:#c4c4c4"/><path d="M495,345.5s-132.7,4.2-67.3,20.5l112.9-.7,49.8-17.1Z" style="fill:#1f90c9"/><path d="M807,337c38.6,1.6,58.3,29,58.3,29H649.9L749.7,336S768.4,335.3,807,337Z" style="fill:#a4c441"/><polygon points="519.1 301.3 519.1 326.4 644.9 329.2 644.9 305.5 519.1 301.3" style="fill:#231f20"/><rect x="585.1" y="305" width="1.2" height="24.26" style="fill:#58595b"/><rect x="589.3" y="305" width="1.2" height="24.26" style="fill:#58595b"/><rect x="593.1" y="305" width="1.2" height="24.26" style="fill:#58595b"/><rect x="615.4" y="305" width="1.2" height="24.26" style="fill:#58595b"/><rect x="618.6" y="305" width="1.2" height="24.26" style="fill:#58595b"/><rect x="621.2" y="305" width="0.9" height="24.26" style="fill:#6b6b6b"/><rect x="623.9" y="305" width="0.9" height="24.26" style="fill:#6b6b6b"/><rect x="626" y="305" width="0.9" height="24.26" style="fill:#6b6b6b"/><rect x="628.6" y="305" width="0.9" height="24.26" style="fill:#6b6b6b"/><rect x="611.6" y="305" width="1.2" height="24.26" style="fill:#58595b"/><rect x="606.9" y="305" width="1.2" height="24.26" style="fill:#58595b"/><rect x="602.1" y="305" width="1.2" height="24.26" style="fill:#58595b"/><rect x="597.3" y="305" width="1.2" height="24.26" style="fill:#58595b"/><path d="M507.3,330.5l-12.2,15a343,343,0,0,0,75.7,7.4l29.4-4.7-13.1-15.7Z" style="fill:#e8e8e8"/><path d="M755.4,35.3s-8.6.7-32.2,8.8S700.8,56.9,697.7,48s-7.2-6.4-8.8-8c0,0-2.3,11.7-1,12.8s3.7,2.1-2.4,5.6l-4.3,2.9s7.4-1,10.7,4.8,10.8,20.4,26.4,12c0,0,16.6-16.1,33.6-3.7Z" style="fill:#be1e2d"/><rect x="696.5" y="301.4" width="105.7" height="23.55" style="fill:#e8e8e8"/><polygon points="724.7 247.2 724.7 259.1 802.2 254.1 802.2 242.7 724.7 247.2" style="fill:#231f20"/><polyline points="706.8 191.8 707.1 258 706.8 191.8 724.7 240.7 718.8 240.7 718.6 247.2 724.7 247.2 724.7 257 707.1 258" style="fill:#c4c4c4"/><polygon points="718.8 240.7 802.8 235 802.8 242.7 718.6 247.2 718.8 240.7" style="fill:#929497"/><polygon points="802.8 325 682.2 325 653.2 327.8 672.1 336.8 802.4 338.1 802.8 325" style="fill:#bbbdbf"/><polygon points="674.5 306.2 673.7 326 685.6 325 700 325 700 308.2 674.5 306.2" style="fill:#231f20"/><polygon points="733 304.9 732.6 324.8 737.6 326 743.6 326 743.6 307.2 733 304.9" style="fill:#231f20"/><polygon points="777 306.2 776.7 323.9 781.6 325 787.6 325 787.6 308.2 777 306.2" style="fill:#231f20"/><rect x="729.2" y="327.1" width="73.4" height="8.92" style="fill:#707070"/><path d="M674.7,307.3s12,2.1,14.2,5h8.8s22.6-8.3,33.4-2.5l6.4,2.5h7a61.6,61.6,0,0,1,42.2,0h8.7s4.8-4.1,6.9-2.5v-5.5l-124.4.9Z" style="fill:#231f20"/><polygon points="605.9 344.6 519.1 365.1 677.8 366 693.6 357.5 784.2 359.9 774.1 344.6 757.9 344.6 757.9 336 749.7 336 745.1 334.3 728.5 334.3 670.7 334.3 670.7 332.6 667.5 332.6 667.5 331.3 662.9 331.3 662.9 329.9 660.6 329.9 660.6 328.6 656.8 328.6 656.8 327.8 653.2 327.8 644.2 327.8 605.9 344.6" style="fill:#c9bc9f"/><polygon points="706.8 191.8 700.6 191.6 700 258.8 707.1 258 706.8 191.8" style="fill:#929497"/><polygon points="689.3 258.8 700 258.8 700.9 153.4 689.3 120.2 689.3 258.8" style="fill:#e8e8e8"/><polygon points="679.9 258.8 802.2 254.1 802.2 258.8 680.1 264 679.9 258.8" style="fill:#a6a8ab"/><path d="M655.4,95.7V82.4s10.1-7,22.8,0V95.7S667.2,90.1,655.4,95.7Z" style="fill:#13605c"/><rect x="579.8" y="305" width="1.6" height="24.26" style="fill:#58595b"/><rect x="575" y="305" width="1.6" height="24.26" style="fill:#58595b"/><rect x="570.7" y="305" width="1.6" height="24.26" style="fill:#58595b"/><rect x="565.4" y="305" width="1.6" height="24.26" style="fill:#58595b"/><rect x="560.6" y="304.4" width="1.6" height="24.26" style="fill:#58595b"/><rect x="556.9" y="304.4" width="1.6" height="24.26" style="fill:#58595b"/><rect x="521.9" y="302.8" width="1.2" height="24.26" style="fill:#404041"/><rect x="524" y="302.8" width="1.2" height="24.26" style="fill:#404041"/><rect x="526.1" y="302.8" width="1.2" height="24.26" style="fill:#404041"/><rect x="528.2" y="302.8" width="1.2" height="24.26" style="fill:#404041"/><rect x="530.4" y="302.8" width="1.2" height="24.26" style="fill:#404041"/><rect x="533" y="302.8" width="1.2" height="24.26" style="fill:#404041"/><rect x="536.2" y="302.8" width="1.2" height="24.26" style="fill:#404041"/><rect x="539.4" y="302.8" width="1.2" height="24.26" style="fill:#404041"/><rect x="552.7" y="304.4" width="1.6" height="24.26" style="fill:#58595b"/><rect x="547.9" y="303.9" width="1.6" height="24.26" style="fill:#58595b"/><rect x="543.1" y="303.4" width="1.6" height="24.26" style="fill:#58595b"/><path d="M674.7,306.2v-3s-137.2-15.8-181.7-4.6a32.5,32.5,0,0,0,12.1,3.4c7.6.8,78.5,4.9,159.4,5C664.5,307,668,307.5,674.7,306.2Z" style="fill:#707070"/><polygon points="802.2 258.8 680.1 264 681.2 301.4 802.2 301.4 802.2 258.8" style="fill:#a5c4ce"/><polygon points="679.9 275.9 802.2 273 802.2 280 677.8 283.2 679.9 275.9" style="fill:#a6a8ab"/><path d="M681.2,301.4H802.2v6.4s-5-.5-13.8,3.2h-5a60.1,60.1,0,0,0-24.2-4.8c-14.3,0-18.1,4.8-18.1,4.8h-5.5s-12.2-4.8-25-4.8a46.9,46.9,0,0,0-21.3,4.8,45.8,45.8,0,0,0-14.6-2.7v-6.9Z" style="fill:#929497"/><path d="M647.2,123.9l.3-23.9s17.8-18.6,39.4,1.2v16.3Z" style="fill:#064c47"/><path d="M662.8,71.7s-.9-.2-.7-.9a2.2,2.2,0,0,1,.1-.8c.3-.6,1-1.4,1-1.7a2.3,2.3,0,0,1,.7-1.5,3.2,3.2,0,0,0,1.1-1.5h.3V63.7l.5-.2s-.4-17.1,0-18,.8-.5,1,0,0,17.9,0,17.9l.7.3v1.3l.3.2s.5,1.8.9,2a1.2,1.2,0,0,1,.8,1.1c-.1.5-.2,1.1,0,1.2l.9.2v1l-1.1,1.1S667.1,70.1,662.8,71.7Z" style="fill:#d0d2d3"/><path d="M662.8,71.7v7.9h6.5V71.9S667,69.4,662.8,71.7Z" style="fill:#a6a8ab"/><path d="M668.5,38.5V34.4s.9-1.6,2.5-.1V38Z" style="fill:#f4f4f4"/><path d="M661.6,39.4V36s.9-1.6,2.5-.1v3.8Z" style="fill:#f4f4f4"/><path d="M649.2,124.9l.3-20.6s15.3-16,34,1.1v14.1Z" style="fill:#1f302d"/><path d="M649.1,107.7l1.4-3.2s14.6-10.8,32.4,1.1l.7,3.2S669,95.5,649.1,107.7Z" style="fill:#484c4b"/><path d="M649,111.9l1.4-3.2s14.6-10.8,32.4,1.1l.7,3.2S668.9,99.7,649,111.9Z" style="fill:#484c4b"/><path d="M648.9,115.6l1.4-3.2s14.6-10.8,32.4,1.1l.7,3.2S668.8,103.4,648.9,115.6Z" style="fill:#484c4b"/><path d="M648.8,119.9l1.4-3.2s14.6-10.8,32.4,1.1l.7,3.2S668.6,107.7,648.8,119.9Z" style="fill:#484c4b"/><path d="M649.2,123.6l1.4-3.2s15.1-10.8,33.6,1.1l.7,3.2S669.8,111.4,649.2,123.6Z" style="fill:#484c4b"/><path d="M665.1,44.5V41.3s.9-1.5,2.5-.1v3.7Z" style="fill:#f4f4f4"/><path d="M665.8,46.2s-1.2-.7-.9-1.3,1-.9,1.8-.9,1.7,1,.3,2.2S665.8,46.2,665.8,46.2Z" style="fill:#404041"/><path d="M669.2,39.6s-1.2-.7-.9-1.3,1-.9,1.8-.9,1.7,1,.3,2.2S669.2,39.6,669.2,39.6Z" style="fill:#404041"/><path d="M662.3,41.2s-1.2-.7-.9-1.3,1-.9,1.8-.9,1.7,1,.3,2.2S662.3,41.2,662.3,41.2Z" style="fill:#404041"/><path d="M690.9,90.3l.6.2c.6.1.9-.1,1.1.3s.1,1.2.8,1.2.8-.1.9-.6-.6-.8-.6-1,.1-1.8-.4-2.2.1-.7-.2-1.1.1-.7-.7-.8-4.8.6-5.5,4.1l4.2-.5Z" style="fill:#99740e"/><path d="M680,76.9a3.2,3.2,0,0,1-.6-2.1.6.6,0,0,0,.6-.1c.3-.2.5-.2.5,0s.1.7.3.7,1,.2,1-.4,0-.7-.4-.9-.6-1.6-.5-1.7.2-1.1-.1-1.3-.2-.5-.5-.5-2.6-4.4-4.1,8.4l1.7-2Z" style="fill:#b78f0f"/><path d="M665.4,74.3a18.3,18.3,0,0,0,0,2h1.4c.2-.4.1-1.6.2-2S665.4,74.3,665.4,74.3Z" style="fill:#99740e"/><path d="M653.1,75.7s-.1,1.2-.5,1.5h1.5a1.4,1.4,0,0,0,0-2.1Z" style="fill:#99740e"/><polygon points="680 90.3 690.9 89.9 690.9 120.7 688.4 118.2 688.2 92.9 680 93.3 680 90.3" style="fill:#08726d"/><path d="M648.1,87.3s16.7-12.8,37-.5v3.8c-2.6-2.3-20.6-11.5-37,.7Z" style="fill:#08726d"/><polygon points="665.2 76.3 666.9 76.3 666.9 120.2 665.2 120.7 665.2 76.3" style="fill:#098985"/><path d="M572.4,214.1s-.2-7.3,15.9-5.3,20.3,8.3,20.3,8.3Z" style="fill:#58595b"/><polygon points="628.2 132.4 627.6 131 689.9 118.6 701.4 152.4 700.9 153.4 689.3 120.2 628.2 132.4" style="fill:#bbbdbf"/><polygon points="641.4 124.9 641.9 92.3 644.1 92.3 644.1 124.4 641.4 124.9" style="fill:#08726d"/><polygon points="652.7 85.5 644.9 84.2 645 124.2 648.1 123.7 648.1 88.3 652.7 88.8 652.7 85.5" style="fill:#0db2aa"/><polygon points="652.6 77.2 652.6 122.8 654.1 122.5 654.1 77.2 652.6 77.2" style="fill:#098985"/><polygon points="678.2 76.9 678.2 117.8 675.7 118.6 675.7 84.5 672.4 87.5 672.4 84.2 678.2 76.9" style="fill:#098985"/><polygon points="654.1 77.2 660.9 83.2 660.9 86.5 656.1 83 656.1 122.2 654.1 122.5 654.1 77.2" style="fill:#0db2aa"/><path d="M641.9,92.3s.2-1.1-.5-.8,0,.3-.8.8-.7.1-.8.7-.5,1.7-1.5.8.1-1,.8-1.5.1-2.2.5-2.9a14.1,14.1,0,0,0,1.2-1.9s3.3,0,3.3.8v4Z" style="fill:#b78f0f"/><polygon points="680 84.7 688.4 82.8 688 116.4 685.1 116.8 685.1 86.4 680 88.5 680 84.7" style="fill:#098985"/><polygon points="688.4 82.8 688.9 83.5 688.9 118.8 687.9 119 688.4 82.8" style="fill:#0db2aa"/><polygon points="648.1 92.3 652.6 92.7 652.6 95.3 648.1 95.3 648.1 92.3" style="fill:#08726d"/><polygon points="644.1 84.6 644.9 84.2 645 124.2 644.1 124.4 644.1 84.6" style="fill:#064c47"/><path d="M643.9,84.6s1-2.4-.1-1.8a1.4,1.4,0,0,1-1,.2.4.4,0,0,0-.5.6s0,1-.6.8-1.3-.5-.9-1.1.7-.5.9-.9-.4-2.8,0-3.1,1.1-1.2,1.6-1,3.8,1.2,4.8,6.6l-3.3-.6Z" style="fill:#b78f0f"/><path d="M650.6,75.7s-.1,1,.6.8.6.2.9-.4.6-.4.9-.4,1-.5,1-.6.5,1.7,0,2.1l1.4,1.3s.2-5.3-2.3-7a3.2,3.2,0,0,0-1.2,0,1,1,0,0,0-.4,1,6.6,6.6,0,0,1-.2,2C651.2,74.8,650.6,75.3,650.6,75.7Z" style="fill:#b78f0f"/><path d="M665.7,69.8l-.2.3h-.2a2.2,2.2,0,0,0-.1.9,5.7,5.7,0,0,0,.3,1.9c.2.7-.1.8-.1,1.2a.8.8,0,0,0,.8.7V69.8Z" style="fill:#a57a11"/><path d="M667,74.1a1.9,1.9,0,0,1,0-1c.1-.2.2-1.4.3-1.7s0-1.1-.1-1.1H667c0-.1,0-.3-.3-.4h-.5V75a.6.6,0,0,0,.5-.3A.5.5,0,0,0,667,74.1Z" style="fill:#b78f0f"/><polygon points="678.2 118.6 680 117.7 680 76.9 678.2 76.9 678.2 118.6" style="fill:#0db2aa"/><path d="M677.6,72.4s.2,2.9,1.9,2.5c0,0-.7.1-.9.7l-.3,1.4L676.3,79S676.7,74.1,677.6,72.4Z" style="fill:#99740e"/><polygon points="631.7 130.1 631.3 126.8 688.4 115.6 688.9 118.8 631.7 130.1" style="fill:#1d1e1e"/><path d="M688.9,83.5a5.4,5.4,0,0,0-.2-1.7c-.2-.7-.2-.6.2-.5s.7.3,1.1.2.1.7.6.9,1.3.2,1.3-.6-.4-.6-.8-.9-.4-1.5-.7-1.8-.2-1-.5-1.3-.3-.8-.7-.8-3.6,2.4-5,6.8l4.2-1Z" style="fill:#99740e"/><path d="M662.3,40.8V46a1.7,1.7,0,0,0,1.9,1.9,19.5,19.5,0,0,0,5.1-.8,3.2,3.2,0,0,0,1.3-2.4V39s-.8-1.1-1.4,0v5.5s0,1.3-1,1.6l-3.5.5s-1.3.3-1.3-.9,0-4.9,0-4.9S662.8,39.7,662.3,40.8Z" style="fill:#d6d6d6"/><circle cx="666.4" cy="66.1" r="1.9" style="fill:#a6a8ab"/><polygon points="635.8 323.9 642.9 323.1 649.9 342.7 637.3 345.5 635.8 323.9" style="fill:#e8e8e8"/><circle cx="666.5" cy="66.1" r="1.9" style="fill:#d0d2d3"/><rect x="798.1" y="253" width="0.7" height="50.86" style="fill:#404041"/><rect x="792.2" y="253" width="0.7" height="50.86" style="fill:#404041"/><rect x="786.9" y="253.7" width="0.7" height="50.16" style="fill:#404041"/><rect x="781.6" y="253.7" width="0.7" height="50.16" style="fill:#404041"/><rect x="776.3" y="253.7" width="0.7" height="50.16" style="fill:#404041"/><rect x="771" y="254.1" width="0.7" height="49.76" style="fill:#404041"/><rect x="765.7" y="254.5" width="0.7" height="49.43" style="fill:#404041"/><rect x="760.4" y="254.7" width="0.7" height="49.16" style="fill:#404041"/><rect x="755" y="254.7" width="0.7" height="49.16" style="fill:#404041"/><rect x="749.7" y="255.2" width="0.7" height="48.71" style="fill:#404041"/><rect x="744.4" y="255.2" width="0.7" height="48.71" style="fill:#404041"/><rect x="739.1" y="255.6" width="0.7" height="48.29" style="fill:#404041"/><rect x="733.8" y="255.8" width="0.7" height="48.07" style="fill:#404041"/><rect x="728.5" y="256.3" width="0.7" height="47.65" style="fill:#404041"/><rect x="723.2" y="256.3" width="0.7" height="47.65" style="fill:#404041"/><rect x="717.9" y="256.6" width="0.7" height="47.28" style="fill:#404041"/><rect x="712.5" y="256.9" width="0.7" height="46.96" style="fill:#404041"/><rect x="707.8" y="257.1" width="0.7" height="46.75" style="fill:#404041"/><rect x="702.5" y="257.4" width="0.7" height="46.53" style="fill:#404041"/><rect x="697.7" y="257.4" width="0.7" height="46.53" style="fill:#404041"/><rect x="692.9" y="257.7" width="0.7" height="46.22" style="fill:#404041"/><rect x="683.3" y="257.7" width="0.7" height="46.22" style="fill:#404041"/><rect x="687.6" y="257.7" width="0.7" height="46.22" style="fill:#404041"/><polygon points="649.9 342.7 649.9 344.5 637.3 347.6 606 346.4 605.9 344.6 637.3 345.5 649.9 342.7" style="fill:#6d6e70"/><ellipse cx="734.4" cy="149.4" rx="2.2" ry="1.1" style="fill:#e8e8e8"/><ellipse cx="734.4" cy="149.9" rx="2.2" ry="1.1" style="fill:#929497"/><path d="M735.5,150.3l.6,187.8a3.3,3.3,0,0,1-3.5,0l.5-187.8A3,3,0,0,1,735.5,150.3Z" style="fill:#f4f4f4"/><ellipse cx="743.4" cy="104.6" rx="2.5" ry="1.5" style="fill:#e8e8e8"/><ellipse cx="743.4" cy="104.9" rx="2.5" ry="1.3" style="fill:#929497"/><path d="M518.8,325c10.3,1.7,78.1,3.9,102.1,3.2V335s-99.3-.6-113.7-4.5v-5.4A31.5,31.5,0,0,1,518.8,325Z" style="fill:#bbbdbf"/><path d="M744.9,105.3l.8,238.1s-1.8,1.7-4.5,0l.7-238.1A2.2,2.2,0,0,1,744.9,105.3Z" style="fill:#f4f4f4"/><ellipse cx="757.2" cy="23.8" rx="3.4" ry="2.1" style="fill:#e8e8e8"/><ellipse cx="757.2" cy="24.1" rx="3.4" ry="1.7" style="fill:#929497"/><path d="M759.2,24.7l1.1,327.2a4.7,4.7,0,0,1-6.1,0l.9-327.2A3,3,0,0,1,759.2,24.7Z" style="fill:#f4f4f4"/><path d="M579.8,339.5l4.4-8,51.7-7.7,1.5,21.6-31.3-.9-15.5,3.6A18.1,18.1,0,0,0,579.8,339.5Z" style="fill:#bbbdbf"/><path d="M697.7,48s2,5.4,1.2,8.6-8.9-1.2-6,5.5c0,0,1.6,9,3.6,11.3,0,0,7.4-3.3,3-8-2.6-2.7,6.8-5.1,4.1-7.3S697.7,48,697.7,48Z" style="fill:#991a2a"/><path d="M500,338.6s-161.5,3.8-97.2,27.4h24.9c-35.5-10.2-12.1-18.2-1.4-20.5S500,338.6,500,338.6Z" style="fill:#e8e8e8"/><polygon points="628.2 220.6 628.2 132.4 689.3 120.2 689.3 258.8 679.9 258.8 628.2 220.6" style="fill:#f4f4f4"/><path d="M679.1,242.7c-10.2-8.5-42.1-21.5-97.7-25.6s-87.2,14.1-87.2,14.1a270.3,270.3,0,0,0-1.1,67.3c46.3-5.5,187.9,5.1,187.9,5.1C682,297.8,679.1,242.7,679.1,242.7Z" style="fill:#bbbdbf"/><path d="M494.2,231.2s22.4-22.4,92.2-16.2c0,0,64,2.2,92.8,27.7a154.6,154.6,0,0,0-46.4-17.5C600.7,218.6,539.3,209.2,494.2,231.2Z" style="fill:#d0d2d3"/><path d="M426.5,369.3s7-15,6.1-24.6c0,0,1.6,14.2.1,19.1,0,0,3.1-5.5,4.8-6.8,0,0-2.3,5.4-1.4,8.8,0,0,5.6-.5,7-12.5,0,0,.3,11.6,1.2,14.2,0,0,3.8-12.7,5.5-15,0,0-.6,9.3,0,11.6a13.2,13.2,0,0,0,3.5-3.4s-2.7,4.9-.6,7.2a13,13,0,0,0,6.1-8.1s.3,6.3,2,9.5Z" style="fill:#d3de46"/><path d="M395.7,369.3s7-15,6.1-24.6c0,0,1.6,14.2.1,19.1,0,0,3.1-5.5,4.8-6.8,0,0-2.3,5.4-1.4,8.8,0,0,5.6-.5,7-12.5,0,0,.3,11.6,1.2,14.2,0,0,3.8-12.7,5.5-15,0,0-.6,9.3,0,11.6a13.2,13.2,0,0,0,3.5-3.4s-2.7,4.9-.6,7.2a13,13,0,0,0,6.1-8.1s.3,6.3,2,9.5Z" style="fill:#d3de46"/><path d="M492.7,369.3s7-15,6.1-24.6c0,0,1.6,14.2.1,19.1,0,0,3.1-5.5,4.8-6.8,0,0-2.3,5.4-1.4,8.8,0,0,5.6-.5,7-12.5,0,0,.3,11.6,1.2,14.2,0,0,3.8-12.7,5.5-15,0,0-.6,9.3,0,11.6a13.2,13.2,0,0,0,3.5-3.4s-2.7,4.9-.6,7.2a13,13,0,0,0,6.1-8.1s.3,6.3,2,9.5Z" style="fill:#d3de46"/><path d="M461.8,369.3s7-15,6.1-24.6c0,0,1.6,14.2.1,19.1,0,0,3.1-5.5,4.8-6.8,0,0-2.3,5.4-1.4,8.8,0,0,5.6-.5,7-12.5,0,0,.3,11.6,1.2,14.2,0,0,3.8-12.7,5.5-15,0,0-.6,9.3,0,11.6a13.2,13.2,0,0,0,3.5-3.4s-2.7,4.9-.6,7.2a13,13,0,0,0,6.1-8.1s.3,6.3,2,9.5Z" style="fill:#d3de46"/><path d="M358.6,256.7c.1-5.1.7-10.3.2-15.4s1.6-4.8,4.9-4.7h4.9a31.9,31.9,0,0,1,3.4,1.1c5.5,2.5,8.1,5.9,7.6,9.9s-5.4,9.8-9.9,10.2S362.3,257.1,358.6,256.7Z" style="fill:#f18e6b"/><path d="M287.1,215.4c2.1.1,4.5-.4,6.4.3a18.3,18.3,0,0,0,12.6-.2,9.3,9.3,0,0,1,3.1-.1c-1.4,3.5-2.6,6.8-3.9,10s.5,5.4,2.4,7.6c.1.1,1-.6,1.5-.9,3.6,3.7,7.9,4.9,13,4.7,10.3-.3,20.6-.2,30.9-.2l7.3.3v19.7a6.6,6.6,0,0,1-2.1.8c-15.1,0-30.2.7-45.3-.4s-25.6-14.4-26.1-28.9C287,223.8,287.1,219.6,287.1,215.4Z" style="fill:#373c3f"/><path d="M288.9,302.9a50.8,50.8,0,0,0-.9,6.8c-.1,21.8,0,43.6,0,65.4,0,3.3,0,6.6,0,10.4-6.5-4.7-13.5-4.7-20.3-5.3V323.2H257.3v57.1H235.8v-5.4l-.3-14.6.2-15.9c0-48.2-.1-96.5.1-144.7,0-6.5-2.8-10.2-8.3-12.6l-5.1-2.3c-.8,2.6-.8,5.5-2.1,6.4-4.1,2.7-3.3,6.5-3.3,10.2q0,40,0,79.9c0,11,0,22.1-.1,33.1,0,1.9,1.1,4.6-2.2,5.3l-.7-1.3v-.2c.5-2.4,1.4-4.9,1.4-7.3q.1-51.5,0-103c0-5-.2-10.1-.3-15.1l.8-3.1.7-1.2c3.1-8.6,9.6-12.5,18.5-13,3.5-.2,7.1.1,10.7.1a.7.7,0,0,0,.3.8c.1,4-.1,8.1.5,12.1,1.7,10.9,10,18.3,20.4,18.6s19.5-7.3,21.2-18.4c.6-3.9.2-8.1.3-12.1,1.5-.3,3.2-1,4.6-.7,9.6,2,16.1,10,16.2,20.1s.2,19.6,0,29.4c-.1,5.8-.3,14,0,15a18.3,18.3,0,0,1,.2,12.6c-.7,1.9-.3,4.3-.3,6.4.1,7,.2,13.9.1,20.9-.1,11.1-6.1,18.4-16.9,21A25.2,25.2,0,0,0,288.9,302.9ZM278,217.1h21.1c-1.6-6.9-4.3-9.7-9.4-10.1S280.7,209.3,278,217.1Z" style="fill:#292c2f"/><path d="M293.1,107.8c.1,2.8.1,5.6.2,8.4.3,7.1.9,14.2,1.1,21.4.1,3.7.6,7.4-1.9,11s-5.3,5.3-9.4,5.3H271.6c-.3-.3-.6-.8-1-.9-7.5-2.2-7.6-2.4-7.7-10.2s-.1-13.8-.2-20.6c0-3.3.3-6.7.1-10s1.3-4.5,4.6-4.5C276,107.7,284.6,107.7,293.1,107.8Z" style="fill:#f38d6b"/><path d="M288.8,176.6c-.1,4,.3,8.1-.3,12.1-1.8,11.1-10.8,18.7-21.2,18.4s-18.7-7.7-20.4-18.6c-.6-4-.3-8.1-.5-12.1h.9a36.1,36.1,0,0,0,.4,6.4c.2,1.1,1.7,2.7,2.5,2.6,4.8-.2,10.1,1.9,14.1-2.8,2.2-2.5,4.5-2.6,7.2.1a10.8,10.8,0,0,0,6.9,2.7c10.6.2,9.3,1.1,9.4-8.9Z" style="fill:#bed5eb"/><path d="M252.6,103.4c1.3-7,5.8-11.6,12.4-12,13-.8,26.1-.2,39.1-.2,1.4,10.3-.7,13.6-9.3,15.3-13.1,0-26.2-.2-39.2.2C252.1,106.8,253.2,104.9,252.6,103.4Z" style="fill:#282b29"/><path d="M271.6,153.8H273q0,10.5,0,21.1l-20.2.2V137.8C255.7,148.5,261.7,153.8,271.6,153.8Z" style="fill:#c55932"/><path d="M271.6,153.8c-9.9,0-15.9-5.3-18.8-16v37.4a5.4,5.4,0,0,0-.1,1.1h-.9a.7.7,0,0,1-.3-.8c0-12.1,0-24.3,0-36.4,0-2.7-.3-4.9-2.4-7.1s-3-4.6.8-8.7a16.5,16.5,0,0,0,1.9-3.6c1.1,1.1.6,3.9,3.7,2.8s4.7-.4,7-.5q.1,10.3.2,20.6c.1,7.9.2,8,7.7,10.2C271,153,271.2,153.5,271.6,153.8Z" style="fill:#e1764e"/><path d="M247.2,176.4a5.4,5.4,0,0,1,.1-1.1l20.2-.2c5,.2,9.9.2,14.9.5a34.5,34.5,0,0,1,5.3,1.1c-.1,10,1.2,9-9.4,8.9a10.8,10.8,0,0,1-6.9-2.7c-2.7-2.7-5-2.7-7.2-.1-4.1,4.7-9.3,2.6-14.1,2.8-.8,0-2.3-1.6-2.5-2.6A36.1,36.1,0,0,1,247.2,176.4Z" style="fill:#fbfbf9"/><path d="M262.7,122c-2.4.1-4.9-.2-7,.5s-2.6-1.7-3.7-2.8l.7-16.3c.6,1.4-.5,3.4,3,3.3,13.1-.5,26.1-.2,39.2-.2l-1.7,1.3c-8.6-.1-17.2-.1-25.7-.3-3.3-.1-4.8,1-4.6,4.5S262.7,118.6,262.7,122Z" style="fill:#826150"/><path d="M288.9,302.9a50.7,50.7,0,0,0-.9,6.8c-.1,21.8,0,43.6,0,65.4,0,3.3,0,6.6,0,10.4-6.5-4.7-13.5-4.7-20.3-5.3H179.5l-2.2.2c-12.1.4-15,3.4-15,15.7q0,34.5,0,69.1a51.4,51.4,0,0,0,.1,6.5,10.8,10.8,0,0,0,10.6,9.6l5,.2h57.8c5-.1,10.1-.2,15.1-.1s5.2.2,5.2,5.3c.1,15.6,0,31.2.1,46.8a82.6,82.6,0,0,0,.9,8.4q.2-25.9.3-51.8c0-2.6,0-5.2,0-8.5h10.2l5-.2c8.2-.1,8.2-.1,14.8-5.2.1,2.9.4,5.3.4,7.8,0,19.3,0,38.6.1,58a50.9,50.9,0,0,0,.9,6.8c.1-5,.2-10.1.2-15.1q0-75,0-149.9C289.1,356.7,288.9,329.8,288.9,302.9Z" style="fill:#974627"/><path d="M235.8,344.3l-14.6-.4-5.4-1.1c-.5-1.3-1.4-2.5-1.4-3.8,0-6.4.3-12.9.4-19.3,3.2-.7,2.2-3.3,2.2-5.3.1-11,.1-22.1.1-33.1q0-40,0-79.9c0-3.7-.8-7.5,3.3-10.2,1.4-.9,1.3-3.9,2.1-6.4l5.1,2.3c5.5,2.4,8.3,6.1,8.3,12.6C235.7,247.8,235.8,296,235.8,344.3Z" style="fill:#383b42"/><path d="M235.9,374.8c-5.1.3-10.2.8-15.4,1-1.7,0-3.5-.9-5.2-1.3l-.2-9.9c.1-4.8,2.2-8.3,6.9-9.7s8.4,0,11.2,4c.5.7,1.6.9,2.4,1.3Z" style="fill:#e07450"/><path d="M278,217.1c2.7-7.8,6-10.5,11.7-10.1s7.8,3.2,9.4,10.1Z" style="fill:#f5f6f7"/><path d="M215.1,364.6l.2,9.9a6.3,6.3,0,0,1-1.8,1.1c-4.5.8-8.5-1.1-9.2-4.3s1.9-6,7.3-6.7A24.8,24.8,0,0,1,215.1,364.6Z" style="fill:#6d4127"/><path d="M225.5,418.1q0,.6,1.2.6v1.1h-4.8v-1.1q1.2,0,1.2-.6v-6.9q0-.6-1.2-.6v-1.1h3.7Z" style="fill:#fff"/><path d="M228.5,416.4a3.5,3.5,0,0,0,.4,1.8,1.4,1.4,0,0,0,1.3.6,2.1,2.1,0,0,0,1.2-.3,1.7,1.7,0,0,0,.7-1h1.2a3.2,3.2,0,0,1-.3.9l-.6.8-1,.5-1.3.2-1.5-.2a3.3,3.3,0,0,1-1.3-.6,2.9,2.9,0,0,1-.9-1.1,4.2,4.2,0,0,1-.3-1.8,4.3,4.3,0,0,1,.3-1.5,3.1,3.1,0,0,1,.7-1.2,3.3,3.3,0,0,1,1.2-.7l1.6-.3a3.7,3.7,0,0,1,2.7.9,3.8,3.8,0,0,1,.9,2.8Zm2.9-.9a2.8,2.8,0,0,0-.1-.7l-.2-.6-.4-.4-.6-.2a1.3,1.3,0,0,0-1,.4,2.4,2.4,0,0,0-.5,1.4Z" style="fill:#fff"/><path d="M236.4,413h1.8v1.1h-1.7v4.3a.7.7,0,0,0,.1.5h.4l.4-.2a.8.8,0,0,0,.1-.4v-.6h.8v.4a2.7,2.7,0,0,1-.1.8,1.4,1.4,0,0,1-.3.6l-.6.4h-1a2.5,2.5,0,0,1-1.8-.5,2,2,0,0,1-.5-1.4V414h-1.2v-.8h.7l.6-.3.5-.6a2.2,2.2,0,0,0,.2-.9V411h1.7Z" style="fill:#fff"/><path d="M237.7,413.2l.9-.6a1.1,1.1,0,0,0,.2-.6c0-.2-.1-.3-.2-.3a1,1,0,0,1-.8-.3,1.1,1.1,0,0,1-.3-.8,1.1,1.1,0,0,1,.3-.9,1.3,1.3,0,0,1,.9-.3,1.3,1.3,0,0,1,1,.4,1.6,1.6,0,0,1,.4,1.1,2.7,2.7,0,0,1-.5,1.7,4.4,4.4,0,0,1-1.5,1.1Z" style="fill:#fff"/><path d="M245.6,415.3h-1.1a1.6,1.6,0,0,0-.8-1.1,2.9,2.9,0,0,0-1.4-.3l-.8.2a.5.5,0,0,0-.3.4.6.6,0,0,0,.4.5l.9.3,1.2.2,1.2.4a2.5,2.5,0,0,1,.9.7,1.6,1.6,0,0,1,.4,1.1,2,2,0,0,1-.2,1l-.6.7-.8.4h-2.5l-.9-.3h-.4q-.3,0-.3.5h-1.1v-2.4h1.1a1.4,1.4,0,0,0,.3.6l.6.5.8.3h.9l.8-.2a.6.6,0,0,0,.3-.5.5.5,0,0,0-.2-.5l-.7-.3-.9-.2-1.1-.2a2.8,2.8,0,0,1-1.5-.8,1.9,1.9,0,0,1-.4-1.3,1.9,1.9,0,0,1,.7-1.5,2.8,2.8,0,0,1,1.9-.6h.9l.7.2.5.2h.6V413h1Z" style="fill:#fff"/><path d="M255.2,413H257v1.1h-1.7v4.3a.7.7,0,0,0,.1.5h.4l.4-.2a.8.8,0,0,0,.1-.4v-.6h.8v.4a2.7,2.7,0,0,1-.1.8,1.4,1.4,0,0,1-.3.6l-.6.4h-1a2.5,2.5,0,0,1-1.8-.5,2,2,0,0,1-.5-1.4V414h-1.2v-.8h.7l.6-.3.5-.6a2.2,2.2,0,0,0,.2-.9V411h1.7Z" style="fill:#fff"/><path d="M263.6,418.3q0,.6.4.6l.3-.2a.8.8,0,0,0,.1-.4v-.7h.8v.4a2.1,2.1,0,0,1-.2.9l-.4.6-.6.3h-.7a1.8,1.8,0,0,1-1.3-.4,1.9,1.9,0,0,1-.5-1l-.4.6-.6.5-.8.3h-1a2.8,2.8,0,0,1-1.9-.5,1.7,1.7,0,0,1-.6-1.4,1.8,1.8,0,0,1,.2-.9l.5-.6.8-.3,1-.2,1.2-.2,1.2-.3v-.4a1.9,1.9,0,0,0-.1-.5l-.3-.5-.5-.3h-1.6l-.7.3.6.2a.6.6,0,0,1,.2.5.8.8,0,0,1-.3.7,1.2,1.2,0,0,1-.8.2q-1.1,0-1.1-1a1.3,1.3,0,0,1,.2-.7l.7-.6,1.1-.4,1.4-.2h1.3l1.1.4a2.2,2.2,0,0,1,.8.7,2.2,2.2,0,0,1,.3,1.2Zm-2.4-2.2-1.1.4-.9.3-.5.4a.9.9,0,0,0-.2.6.7.7,0,0,0,.2.6,1.1,1.1,0,0,0,.8.2,1.7,1.7,0,0,0,1-.3,2,2,0,0,0,.7-.7Z" style="fill:#fff"/><path d="M268,418.1q0,.6,1.2.6v1.1h-4.8v-1.1q1.2,0,1.2-.6v-6.9q0-.6-1.2-.6v-1.1H268Z" style="fill:#fff"/><path d="M278.5,414.1l-1.2.2-1,.5-.7.5,2.1,3.1a1.3,1.3,0,0,0,1.2.5v1.1H274v-1.1h.5c.2,0,.4-.1.4-.3h-.1l-1.2-1.8-1.5.9v.8a.5.5,0,0,0,.3.5h.8v1.1h-4.8v-1.1q1.2,0,1.2-.6v-7q0-.6-1.2-.6v-1.1h3.7v6.7l2.4-1.6a.3.3,0,0,0,.2-.3v-.2h-.9V413h4.9Z" style="fill:#fff"/><path d="M229.5,422.8l2.1.2a3.9,3.9,0,0,1,1.5.6,2.7,2.7,0,0,1,1,1.2,4.6,4.6,0,0,1,.3,1.9,5.1,5.1,0,0,1-.3,1.9,3.1,3.1,0,0,1-1,1.3,3.9,3.9,0,0,1-1.5.7l-2.1.2h-2.4v2.7q0,.8,2,.8v1.4H222v-1.4q1.6,0,1.6-.8V425q0-.8-1.6-.8v-1.4Zm-2.4,1.9v4.2h1.5a2.5,2.5,0,0,0,1.8-.5,2.5,2.5,0,0,0,.5-1.8,1.9,1.9,0,0,0-.5-1.4,2.6,2.6,0,0,0-1.8-.5Z" style="fill:#fff"/><path d="M242.7,433.7q0,.7.5.7l.4-.2a1,1,0,0,0,.1-.5v-.9h1v.6a2.7,2.7,0,0,1-.2,1.2,2,2,0,0,1-.6.7l-.8.4h-.9a2.3,2.3,0,0,1-1.6-.5,2.5,2.5,0,0,1-.7-1.3l-.5.7-.7.6-1,.4-1.3.2a3.6,3.6,0,0,1-2.4-.7,2.3,2.3,0,0,1-.8-1.8,2.4,2.4,0,0,1,.2-1.1,2.1,2.1,0,0,1,.7-.7l1-.5,1.3-.3,1.5-.3,1.6-.4v-.5a2.4,2.4,0,0,0-.1-.7,1.7,1.7,0,0,0-.3-.6l-.6-.4-.9-.2h-1.2l-.9.4.7.2a.8.8,0,0,1,.3.7,1.1,1.1,0,0,1-.4.9,1.6,1.6,0,0,1-1.1.3q-1.4,0-1.4-1.4a1.7,1.7,0,0,1,.3-.9,2.6,2.6,0,0,1,.9-.8l1.4-.5,1.9-.2h1.6l1.5.5a2.9,2.9,0,0,1,1,1,2.8,2.8,0,0,1,.4,1.6Zm-3.1-2.8-1.5.6-1.1.5-.7.5a1.2,1.2,0,0,0-.2.8,1,1,0,0,0,.3.7,1.5,1.5,0,0,0,1,.3,2.3,2.3,0,0,0,1.3-.4,2.6,2.6,0,0,0,.9-1Z" style="fill:#fff"/><path d="M248.8,428.4a3.3,3.3,0,0,1,1.2-1.4,2.9,2.9,0,0,1,1.6-.5h.9l.8.4.6.7a2,2,0,0,1,.2,1,2.1,2.1,0,0,1-.4,1.4,1.4,1.4,0,0,1-1.2.5,1.5,1.5,0,0,1-1.1-.3,1.2,1.2,0,0,1-.4-.9,1.3,1.3,0,0,1,.3-.8,1.1,1.1,0,0,1,.9-.4l-.4-.4h-.5l-.7.2-.7.6-.6.8a4.8,4.8,0,0,0-.4,1.1v3a.6.6,0,0,0,.5.6l1.2.2v1.4H244v-1.4q1.5,0,1.5-.8V429q0-.8-1.5-.8v-1.4h4.8Z" style="fill:#fff"/><path d="M265.8,428.2l-1.6.2-1.3.6-.9.6,2.7,4a1.7,1.7,0,0,0,1.5.6v1.4h-6.2v-1.4h.7q.5,0,.5-.3H261l-1.6-2.4-1.9,1.2v1a.6.6,0,0,0,.4.6l1,.2v1.4h-6.2v-1.4q1.5,0,1.5-.8v-9q0-.8-1.5-.8v-1.4h4.8V431l3.1-2a.5.5,0,0,0,.2-.4v-.3h-1.2v-1.4h6.3Z" style="fill:#fff"/><path d="M273.8,429.9h-1.4a2.1,2.1,0,0,0-1-1.5,3.8,3.8,0,0,0-1.9-.4l-1,.2a.7.7,0,0,0-.4.6.7.7,0,0,0,.5.7l1.2.4,1.5.3,1.5.5a3.3,3.3,0,0,1,1.2.9,2.1,2.1,0,0,1,.5,1.4,2.5,2.5,0,0,1-.3,1.2,2.6,2.6,0,0,1-.8.9l-1.1.5-1.3.2-1.9-.2-1.1-.4h-.5q-.3,0-.4.6h-1.4v-3.1H267a1.8,1.8,0,0,0,.4.8l.8.6,1.1.4h1.2a1.7,1.7,0,0,0,1-.3.8.8,0,0,0,.4-.7.7.7,0,0,0-.3-.6l-.9-.3-1.2-.2L268,432a3.7,3.7,0,0,1-1.9-1,2.5,2.5,0,0,1-.6-1.7,2.4,2.4,0,0,1,.9-1.9,3.6,3.6,0,0,1,2.4-.7H270l.9.3.7.3h.8l.2-.4h1.3Z" style="fill:#fff"/><path d="M277.8,434.2a1.5,1.5,0,0,1-.5,1.1,1.6,1.6,0,0,1-1.1.5,1.6,1.6,0,0,1-1.2-.5,1.5,1.5,0,0,1-.5-1.1,1.5,1.5,0,0,1,.5-1.1,1.6,1.6,0,0,1,1.2-.5h.6l.5.3.3.5A1.5,1.5,0,0,1,277.8,434.2Z" style="fill:#fff"/><path d="M178.1,421.8c1.2,1.9,2.4,3.7,3.7,5.5a20.7,20.7,0,0,0,2,2.1,5.8,5.8,0,0,0-.3-7.4,15.2,15.2,0,0,0-1.9-1.8c-2.1-1.6-4.1-3.3-5.4-6a13.7,13.7,0,0,0-1.3,7.3c.2,5,2.3,7.4,7.1,9a9,9,0,0,1,3,2.2l.7.5a2.4,2.4,0,0,0,2.3-.1,33.5,33.5,0,0,1,16.7-3.4h1.1l1.1.3c-4.8.3-9.7.4-14.5,2.6l1.1,1.3c2.9,2.8,6.3,3.7,10.1,2.2l3.3-1.4c3.1-1.4,6.2-2.8,9.8-2.1v-.3c-1-.9-2-1.9-3.1-2.7a22.3,22.3,0,0,0-8.6-4.5c-4.8-1.1-8.9.1-12,3.8-1.6,1.9-3.6,2.1-6,2.9,2-10.4,5.9-19.3,13.6-26.3l-3,4.2a48,48,0,0,0-6.3,12.3,16.5,16.5,0,0,0-.4,2.9,14.6,14.6,0,0,0,3,0c5.1-1,8.7-3.6,9.6-9.1a74.4,74.4,0,0,1,1.7-7.6,38.1,38.1,0,0,1,2.3-6.4,32,32,0,0,1,3.2-4.5h-.6a38.2,38.2,0,0,0-15.5,5.7c-6.9,4.7-9.5,11.4-7.4,19.6a5.4,5.4,0,0,1-.1,3.2c-.6,2-1.1,4-1.6,6.1a4,4,0,0,1-1-.4,24.4,24.4,0,0,1-6.2-8.1,7.7,7.7,0,0,1-.4-1.5Z" style="fill:#fff"/><path d="M517.2,323.5c4.3,7.8,4.9,16.3,4.4,24.9-.7,11.2-3.7,21.9-7.7,32.3s-6.5,22.1-8,33.6a338.2,338.2,0,0,0-2.4,57.3c.6,15.3,2,30.6,3,45.9.1,1.3.1,2.6.2,4.3H495.2c-1.5,0-1.4-1.2-1.6-2.1-1.7-7.7-3.6-15.4-5-23.1-2.3-13-4.6-26-6.4-39.1-1.4-9.8-2.2-19.7-3-29.5C478,412,477,396,476,380a2.3,2.3,0,0,0-.8-1.6c-.9,5.1-1.9,10.2-2.7,15.3-2.9,19.7-3.7,39.6-3.8,59.5s.6,39.1,2.2,58.7c.3,3.1.4,6.2.7,9.8-3.6,0-7.3.1-10.9-.1-.5,0-1.1-1.2-1.3-2-1.1-4.6-2.2-9.3-3.1-14-2.4-12.4-4.9-24.8-7-37.3s-3.6-22.8-5.1-34.2-2.3-20.5-3.2-30.8c-1.4-16.2-2.3-32.4-1.3-48.6a109.6,109.6,0,0,1,6.1-29.9,15.2,15.2,0,0,1,1.1-2h.6a7,7,0,0,0,1.8.5h48.4l8-.3c1.5,3,2.3,3.5,5.4,2.5Z" style="fill:#33383e"/><path d="M505.8,323l-8,.3H449.5a7,7,0,0,1-1.8-.5h15.7c.8,0,1.9-.3,2.2-.8a15,15,0,0,0,1.5-4c1.5-6.1,3.1-12.1,4.3-18.3a124.8,124.8,0,0,0,1.8-13.7,69,69,0,0,0,0-10,38.5,38.5,0,0,0-1.3-6.4c-.9-3.9-3.9-6.4-6.6-8.9s-4.1-6-4.8-9.6c-.3-1.4-.8-2.9-.5-4.2a59.6,59.6,0,0,1,2.8-8.1c2-5,4.4-9.7,5.3-15.3s1.6-11,4.3-16.1,2.6-4.7,6.9-4.7h13l11.5.2-1.5.7a12.6,12.6,0,0,0-7.7,11.2c-.3,5.3,1.9,9.4,6.5,12.2l11.8,7.3-1.2,7.5c-1,6.3-2.5,12.6-2.9,18.9a155.2,155.2,0,0,0,2.8,41.9c-.2,1.1-.5,2-1.9,2.3s-3.1,1-3.1,2.9c-.2,4.2-.2,8.4-.4,12.6C506,321.1,505.9,322,505.8,323Z" style="fill:#292c2f"/><path d="M492.2,202.5h-13c-4.3,0-4.8.7-6.9,4.7s-3.4,10.7-4.3,16.1-3.3,10.3-5.3,15.3a59.6,59.6,0,0,0-2.8,8.1c-.3,1.3.2,2.8.5,4.2.7,3.6,1.9,6.9,4.8,9.6s5.7,5,6.6,8.9a38.5,38.5,0,0,1,1.3,6.4,69,69,0,0,1,0,10,124.8,124.8,0,0,1-1.8,13.7c-1.2,6.1-2.8,12.2-4.3,18.3a15,15,0,0,1-1.5,4c-.3.5-1.5.8-2.2.8H447.1c1-3.6,1.9-7.2,2.9-10.9s2.6-9.6,3.5-14.5c1.2-7,2.2-14.1,1.5-21.2-.5-4.5-1.5-9-4.9-12.4l-3.1-3a17.7,17.7,0,0,1-3.6-20.5c.9-2.1,2.2-4.1,3-6.3s1.9-6.5,2.8-9.8,1.9-8.2,3.5-12c2.2-5.4,6.1-9.2,12.5-9.5.7.8,1.4.8,2-.1l5.4-.8h17.9Z" style="fill:#292c2f"/><path d="M469.1,189.9c-3.2,3-6.1,2.6-8.8-.3a43.4,43.4,0,0,1-5.5-8.1,60.2,60.2,0,0,1-4.9-12.1c-1.5-4.6-2.7-9.4-3.7-14.1-.5-2.1-.2-4.4-.3-6.6.4-.1,1.1,0,1.3-.3,2.3-4,6.1-5.1,10.4-5.1,7.4-.1,14,2.5,20,6.7,2.1,1.4,4.2,3.2,6.5,3.8s7.4,1.1,11.1,1.6c.5.4,1,1.1,1.6,1.3s2.4,1.6,2.5,3.4c.2,3.5-.2,4.7-2.8,6.8a3.3,3.3,0,0,1-1.8.6h-4a16.6,16.6,0,0,0-.9,2.3c-2,7.8-6.3,13.9-13.6,17.6a6.3,6.3,0,0,0-2.8,3.4l-.8-1.9C471.2,188.5,469.8,188.2,469.1,189.9Z" style="fill:#f79f82"/><path d="M495.1,155.2c-3.7-.5-7.5-.6-11.1-1.6s-4.4-2.4-6.5-3.8c-6-4.1-12.6-6.7-20-6.7-4.3,0-8,1.1-10.4,5.1-.2.3-.8.2-1.3.3.2-4.1-.3-8.3.7-12.2,1.9-7.5,6.5-13,14.2-15.3l2.2-.6.7-.6h0a11.3,11.3,0,0,0,2.6-.1c4.1-1.2,8.1-.2,11.9.8s6.8,3,10.1,4.6c8.7,7,10.2,16,7.6,26.3Z" style="fill:#b88858"/><path d="M401.5,233.5c-1.3.8-.8,1.7-.1,2.4,2.9,3.2,5.6,6.6,8.8,9.4s9.8,7.3,14.7,10.9a13.7,13.7,0,0,0,2.4,1.1l6.2,4.9c4.5,3.4,5.3,6.4,3.2,11.8a8.3,8.3,0,0,1-7.7,4,6.9,6.9,0,0,1-5.5-2.4c-2.7-3.1-5.9-5.6-8.6-8.7-4.3-4.9-9.1-9.4-12.2-15.3a14,14,0,0,0-1-1.3,141.2,141.2,0,0,1-9.9-16.8Z" style="fill:#eb8a6d"/><path d="M393.3,216.5c-.5,1.2.2,2,1,2.9l9.9,10.8c1.9,2.1,1.8,3.6-.5,5.2a22,22,0,0,1-10.8,4.1,9.4,9.4,0,0,1-8.6-4.1c-2.4-2.1-3.8-4.6-2.6-7.9a39.4,39.4,0,0,1,2.1-4.3c.7-1.3,1.4-2.7,2.2-4a24.8,24.8,0,0,1,2.2-2.8c.7-.8,1.5-1,2.2-.1S392.3,217.4,393.3,216.5Z" style="fill:#f79f82"/><path d="M436.7,274c2.1-5.4,1.3-8.4-3.2-11.8l-6.2-4.9c2.2-2.7,4.7-5.3,6.7-8.2s5.7-8.6,8.4-13,4.5-7.9,6.8-11.9c-.9,3.3-1.7,6.6-2.8,9.8s-2,4.2-3,6.3a17.7,17.7,0,0,0,3.6,20.5l3.1,3c-3.7,3.3-7.4,6.7-11.1,9.9C438.5,274,437.5,273.9,436.7,274Z" style="fill:#383b42"/><path d="M473.3,190.5a6.3,6.3,0,0,1,2.8-3.4c7.3-3.7,11.6-9.7,13.6-17.6a16.6,16.6,0,0,1,.9-2.3c-.6,11.5-1.5,23.1-.2,34.6H472.5Z" style="fill:#eb8a6d"/><path d="M469.1,189.9c.7-1.6,2.1-1.3,3.4-1.3Z" style="fill:#eb8a6d"/><path d="M467.1,202.6c-.6.9-1.3.9-2,.1Z" style="fill:#466caf"/><path d="M463.8,119.8l-.7.6Z" style="fill:#d9b058"/><path d="M503.1,203.2h-13c-4.3,0-4.8.7-6.9,4.7s-3.4,10.7-4.3,16.1-3.3,10.3-5.3,15.3a59.6,59.6,0,0,0-2.8,8.1c-.3,1.3.2,2.8.5,4.2.7,3.6,1.9,6.9,4.8,9.6s5.7,5,6.6,8.9a38.5,38.5,0,0,1,1.3,6.4,69,69,0,0,1,0,10,124.8,124.8,0,0,1-1.8,13.7c-1.2,6.1-2.8,12.2-4.3,18.3a15,15,0,0,1-1.5,4c-.3.5-1.5.8-2.2.8H458c1-3.6,1.9-7.2,2.9-10.9s2.6-9.6,3.5-14.5c1.2-7,2.2-14.1,1.5-21.2-.5-4.5-1.5-9-4.9-12.4l-3.1-3a17.7,17.7,0,0,1-3.6-20.5c.9-2.1,2.2-4.1,3-6.3s1.9-6.5,2.8-9.8,1.9-8.2,3.5-12c2.2-5.4,6.1-9.2,12.5-9.5.7.8,1.4.8,2-.1l5.4-.8h17.9Z" style="fill:#fff"/><path d="M548.6,263.4c6.7,1.6,14.1-.9,16.8-6.8A5.7,5.7,0,0,1,567,263a66.5,66.5,0,0,1-4,10.4c-2.1,4.1-4.7,7.9-7,11.9a97.9,97.9,0,0,1-11.3,15.4,128.7,128.7,0,0,1-11.5,10.9c-3,2.6-6.1,5-9.3,7.3-1.7,1.2-3.6,2.1-5.4,3.2a8.1,8.1,0,0,0-1.4,1.4l-5.9,2c-3.1.9-3.9.5-5.4-2.5.1-1,.2-1.9.2-2.9.1-4.2.2-8.4.4-12.6.1-1.9,1.7-2.5,3.1-2.9s1.7-1.2,1.9-2.3a3.4,3.4,0,0,0,3.6,2.3h14a3.2,3.2,0,0,0,2.7-1.4,58.1,58.1,0,0,0,12.1-21.6C545.6,275.7,547,269.5,548.6,263.4Z" style="fill:#eb8a6e"/><path d="M512.8,234,501,226.7c-4.5-2.8-6.8-6.9-6.5-12.2a12.6,12.6,0,0,1,7.7-11.2l1.5-.7c7-2.2,12,1.8,16.7,5.8,1.5,1.2,3.2,2.1,4.7,3.2a201.5,201.5,0,0,1,26.6,24.4,150.8,150.8,0,0,1,11.3,14.6c1.2,1.7,1.7,4,2.5,6-2.7,5.9-10.1,8.4-16.8,6.8a65.3,65.3,0,0,0-5.7-6.5c-4.3-3.8-8.8-7.3-13.2-11S518.5,237.9,512.8,234Z" style="fill:#383b42"/><circle cx="489.6" cy="120.9" r="14.5" style="fill:#b88858"/><polygon points="466.1 199.4 475.3 206.2 479 202.3 466.1 199.4" style="fill:#6d6e71"/><polyline points="480.1 202.3 493 199.4 483.8 206.2" style="fill:#6d6e71"/><path d="M454.1,282l5.5,3.2a2.1,2.1,0,0,1,1,1.8v6.3a2.1,2.1,0,0,1-1,1.8l-5.5,3.2a2.1,2.1,0,0,1-2.1,0l-5.5-3.2a2.1,2.1,0,0,1-1-1.8V287a2.1,2.1,0,0,1,1-1.8L452,282A2.1,2.1,0,0,1,454.1,282Z" style="fill:#dbdddd"/><path d="M453.6,281.3l5.5,3.2a2.1,2.1,0,0,1,1,1.8v6.3a2.1,2.1,0,0,1-1,1.8l-5.5,3.2a2.1,2.1,0,0,1-2.1,0l-5.5-3.2a2.1,2.1,0,0,1-1-1.8v-6.3a2.1,2.1,0,0,1,1-1.8l5.5-3.2A2.1,2.1,0,0,1,453.6,281.3Z" style="fill:#f2f2f2"/></g></svg>