<svg id="Layer_1" data-name="Layer 1" xmlns="http://www.w3.org/2000/svg" xmlns:xlink="http://www.w3.org/1999/xlink" viewBox="0 0 800 450"><defs><clipPath id="clip-path"><rect width="800" height="450" style="fill:none"/></clipPath></defs><title>car parks</title><g style="clip-path:url(#clip-path)"><path d="M30.9,186.5l26.3,15.2a10.1,10.1,0,0,1,5,8.7v30.3a10.1,10.1,0,0,1-5,8.7L30.9,264.6a10.1,10.1,0,0,1-10.1,0L-5.4,249.4a10.1,10.1,0,0,1-5-8.7V210.4a10.1,10.1,0,0,1,5-8.7l26.3-15.2A10.1,10.1,0,0,1,30.9,186.5Z" style="fill:#6e8c3b"/><path d="M28.7,182.5,55,197.7a10.1,10.1,0,0,1,5,8.7v30.3a10.1,10.1,0,0,1-5,8.7L28.7,260.6a10.1,10.1,0,0,1-10.1,0L-7.6,245.4a10.1,10.1,0,0,1-5-8.7V206.4a10.1,10.1,0,0,1,5-8.7l26.3-15.2A10.1,10.1,0,0,1,28.7,182.5Z" style="fill:#a3c23a"/><polygon points="25 214.9 24.6 228 10.8 210.9 24.5 229.5 21.2 337.6 28.3 337.6 26.2 249.1 32.5 228 26 242.2 25 214.9" style="fill:#967e2e"/><path d="M199.1,206.7,221,219.3a8.4,8.4,0,0,1,4.2,7.2v25.2a8.4,8.4,0,0,1-4.2,7.2l-21.8,12.6a8.4,8.4,0,0,1-8.4,0L169,258.9a8.4,8.4,0,0,1-4.2-7.2V226.5a8.4,8.4,0,0,1,4.2-7.2l21.8-12.6A8.4,8.4,0,0,1,199.1,206.7Z" style="fill:#6e8c3b"/><path d="M197.3,203.4,219.2,216a8.4,8.4,0,0,1,4.2,7.2v25.2a8.4,8.4,0,0,1-4.2,7.2l-21.8,12.6a8.4,8.4,0,0,1-8.4,0l-21.8-12.6a8.4,8.4,0,0,1-4.2-7.2V223.2a8.4,8.4,0,0,1,4.2-7.2L189,203.4A8.4,8.4,0,0,1,197.3,203.4Z" style="fill:#a3c23a"/><polygon points="194.3 230.3 193.9 241.2 182.5 227 193.9 242.4 191.1 332.2 197 332.2 195.3 258.7 200.5 241.2 195.1 252.9 194.3 230.3" style="fill:#967e2e"/><path d="M173.2,225.2l17.1,9.9a6.6,6.6,0,0,1,3.3,5.7v19.8a6.6,6.6,0,0,1-3.3,5.7l-17.1,9.9a6.6,6.6,0,0,1-6.6,0l-17.1-9.9a6.6,6.6,0,0,1-3.3-5.7V240.8a6.6,6.6,0,0,1,3.3-5.7l17.1-9.9A6.6,6.6,0,0,1,173.2,225.2Z" style="fill:#bbbe3a"/><path d="M171.2,222.9l17.1,9.9a6.6,6.6,0,0,1,3.3,5.7v19.8a6.6,6.6,0,0,1-3.3,5.7l-17.1,9.9a6.6,6.6,0,0,1-6.6,0l-17.1-9.9a6.6,6.6,0,0,1-3.3-5.7V238.4a6.6,6.6,0,0,1,3.3-5.7l17.1-9.9A6.6,6.6,0,0,1,171.2,222.9Z" style="fill:#d3de46"/><polygon points="167 248.8 166.7 257.2 157.8 246.2 166.7 258.1 164.5 320.4 169.1 320.4 167.7 270.7 171.8 257.2 167.6 266.3 167 248.8" style="fill:#967e2e"/><path d="M735.7,161.7l32.6,18.8a12.5,12.5,0,0,1,6.2,10.8v37.6a12.5,12.5,0,0,1-6.2,10.8l-32.6,18.8a12.5,12.5,0,0,1-12.5,0l-32.6-18.8a12.5,12.5,0,0,1-6.2-10.8V191.3a12.5,12.5,0,0,1,6.2-10.8l32.6-18.8A12.5,12.5,0,0,1,735.7,161.7Z" style="fill:#6e8c3b"/><path d="M733,156.7l32.6,18.8a12.5,12.5,0,0,1,6.2,10.8v37.6a12.5,12.5,0,0,1-6.2,10.8L733,253.5a12.5,12.5,0,0,1-12.5,0L688,234.7a12.5,12.5,0,0,1-6.2-10.8V186.3a12.5,12.5,0,0,1,6.2-10.8l32.6-18.8A12.5,12.5,0,0,1,733,156.7Z" style="fill:#a3c23a"/><polygon points="728.5 196.9 727.9 213.1 710.9 191.9 727.9 214.9 723.8 349 732.6 349 730 239.2 737.7 213.1 729.7 230.7 728.5 196.9" style="fill:#967e2e"/><path d="M697,189.3,722.6,204a9.8,9.8,0,0,1,4.9,8.5V242a9.8,9.8,0,0,1-4.9,8.5L697,265.2a9.8,9.8,0,0,1-9.8,0l-25.5-14.8a9.8,9.8,0,0,1-4.9-8.5V212.5a9.8,9.8,0,0,1,4.9-8.5l25.5-14.8A9.8,9.8,0,0,1,697,189.3Z" style="fill:#bbbe3a"/><path d="M694.1,185.8l25.5,14.8a9.8,9.8,0,0,1,4.9,8.5v29.5a9.8,9.8,0,0,1-4.9,8.5l-25.5,14.8a9.8,9.8,0,0,1-9.8,0L658.8,247a9.8,9.8,0,0,1-4.9-8.5V209.1a9.8,9.8,0,0,1,4.9-8.5l25.5-14.8A9.8,9.8,0,0,1,694.1,185.8Z" style="fill:#d3de46"/><polygon points="687.7 224.5 687.3 237 674.1 220.7 687.3 238.5 684.1 331.3 690.9 331.3 688.9 257.2 694.9 237 688.7 250.6 687.7 224.5" style="fill:#967e2e"/><path d="M-98.5,520.4H817.9l-9.5-182.9s-317.8-25.8-468.7-25.8S-18,334.9-99,339.9" style="fill:#a3c23b"/><path d="M-19.3,573H897L879.6,423.7s-309.8-35.4-460.7-35.4S38.6,409.9-42.4,414.9" style="fill:#8ea43b"/><polygon points="319.6 358.1 806.5 358.1 814.9 386.1 665 409.9 303.5 409.9 246.7 358.1 319.6 358.1" style="fill:#6d6e71"/><rect x="488.6" y="144.8" width="34.2" height="52.86" style="fill:#6e8c3b"/><rect x="530.2" y="171.2" width="54.3" height="28.86" style="fill:#977f2e"/><rect x="481.3" y="197.6" width="99.2" height="43.15" style="fill:#d3de46"/><polygon points="501.2 238.7 555.7 171.2 562.2 171.2 505.4 238.8 501.2 238.7" style="fill:#dcd3c0"/><polygon points="541.4 171.2 552.5 240.8 559.4 240.8 546.9 171.2 541.4 171.2" style="fill:#dcd3c0"/><polygon points="576 171.2 530.9 240.8 537.7 240.8 582.7 171.2 576 171.2" style="fill:#dcd3c0"/><polygon points="500.5 144.8 514.8 240.8 520.5 240.8 505.2 144.8 500.5 144.8" style="fill:#dcd3c0"/><path d="M585.2,327.1a32.6,32.6,0,0,0-30.7,43.8h12.3l38-3,12.5-2.3a32.6,32.6,0,0,0-32.1-38.5Z" style="fill:#99691c"/><path d="M390.2,327.1a32.6,32.6,0,0,0-31.5,41h46.7l6.8,2.8h8.7a32.6,32.6,0,0,0-30.7-43.8Z" style="fill:#99691c"/><path d="M670.8,317.7l-343.2,2.1,2.3,33.9L355,368.1h3.6a32.6,32.6,0,1,1,62.2,2.8H554.5a32.6,32.6,0,1,1,62.8-5.3l53.5-9.8Z" style="fill:#e2892f"/><circle cx="390.2" cy="359.7" r="24.6" style="fill:#4d4d4d"/><polygon points="327.5 315.6 327.5 312.8 414.8 305.7 467.8 237.6 626 243.1 670.8 313.1 327.5 315.6" style="fill:#c24c1c"/><polygon points="477.2 245 513.2 245 513.2 302.3 435.9 305.7 477.2 245" style="fill:#bdf6ff"/><polygon points="522.8 246.1 524 302.3 579.3 302.3 566.5 248.1 522.8 246.1" style="fill:#bdf6ff"/><polygon points="579.3 248.8 619.3 248.8 651.8 305.7 593.8 303.6 579.3 248.8" style="fill:#bdf6ff"/><circle cx="390.2" cy="359.7" r="12.6" style="fill:#f8f8f8"/><circle cx="390.2" cy="359.7" r="9.8" style="fill:#6d6e71"/><circle cx="390.2" cy="359.7" r="4" style="fill:#f8f8f8"/><circle cx="584.2" cy="359.7" r="24.6" style="fill:#4d4d4d"/><circle cx="584.2" cy="359.7" r="12.6" style="fill:#f8f8f8"/><circle cx="584.2" cy="359.7" r="9.8" style="fill:#6d6e71"/><circle cx="584.2" cy="359.7" r="4" style="fill:#f8f8f8"/><polygon points="607.6 244.1 602 244.1 602 234.3 494.9 230.5 494.9 240.3 489.2 240.3 489.2 224.7 607.6 228.9 607.6 244.1" style="fill:#c24c1c"/><rect x="556.7" y="230" width="5.7" height="10.79" style="fill:#c24c1c"/><rect x="520" y="228.7" width="5.7" height="12.1" style="fill:#c24c1c"/><polygon points="323.3 342.1 325.8 365.3 336.8 365.3 336.8 342.1 323.3 342.1" style="fill:#f8f8f8"/><polygon points="327.5 315.6 327.5 319.8 670.8 317.7 670.8 313.1 327.5 315.6" style="fill:#f8f8f8"/><rect x="659.3" y="327.1" width="11.5" height="8" style="fill:#dd172f"/><rect x="337.8" y="323.8" width="7.8" height="10" style="fill:#fcee21"/><rect x="428.3" y="339.6" width="87.5" height="2.5" style="fill:#f8f8f8"/><rect x="520.8" y="339.6" width="24.8" height="2.5" style="fill:#f8f8f8"/><path d="M552.3,369.3s-3.2-45.3,29-45.3,36.5,21,36.5,31.6c0,0-6-24.6-31.9-24.6C551.2,331.1,552.3,369.3,552.3,369.3Z" style="fill:#f8f8f8"/><path d="M357.3,366.3s-3.2-45.3,29-45.3,36.5,21,36.5,31.6c0,0-6-24.6-31.9-24.6C356.2,328.1,357.3,366.3,357.3,366.3Z" style="fill:#f8f8f8"/><polygon points="659.3 346.7 657.5 363.7 670.8 363.7 672.5 346.7 659.3 346.7" style="fill:#f8f8f8"/><rect x="422.8" y="368" width="129.4" height="6.67" style="fill:#f8f8f8"/><ellipse cx="278.6" cy="347.9" rx="17.8" ry="4.1" style="fill:#4d4d4d"/><circle cx="277.6" cy="208.8" r="28.8" style="fill:#6d6e71"/><circle cx="277.6" cy="208.8" r="20.3" style="fill:#f8f8f8"/><line x1="290.5" y1="198.1" x2="284.9" y2="203.1" style="fill:none;stroke:#4d4d4d;stroke-miterlimit:10;stroke-width:1.4173228740692139px"/><path d="M288.1,272.9H267.7a3,3,0,0,1-3-2.5l-9-51.1a3,3,0,0,1,3-3.5h38.3a3,3,0,0,1,3,3.5l-9,51.1A3,3,0,0,1,288.1,272.9Z" style="fill:#6d6e71"/><path d="M286.1,267.4H269.7a2.4,2.4,0,0,1-2.4-2l-7.2-41.2a2.4,2.4,0,0,1,2.4-2.8h30.8a2.4,2.4,0,0,1,2.4,2.8l-7.2,41.2A2.4,2.4,0,0,1,286.1,267.4Z" style="fill:#dcd3c0"/><polygon points="277.6 207.8 287.5 197.8 280.3 212.5 277.6 207.8" style="fill:#dd172f"/><circle cx="277.8" cy="210.9" r="4.8" style="fill:#4d4d4d"/><rect x="273.8" y="269.2" width="7.7" height="78.82" style="fill:#6d6e71"/><rect x="284.8" y="229.1" width="2.7" height="8.42" style="fill:#6d6e71"/><rect x="285.4" y="230.1" width="1.5" height="6.49" style="fill:#4d4d4d"/><path d="M278.7,236.4c3.7,0,5.9,1.8,5.9,5.1s-2.1,5.4-5.9,5.4h-2.9v5.2h-3.3V236.4Zm-2.9,7.7h2.8c1.8,0,2.9-.8,2.9-2.5s-1.1-2.5-2.9-2.5h-2.7Z" style="fill:#fff"/><line x1="261" y1="211.6" x2="268.5" y2="211.6" style="fill:none;stroke:#4d4d4d;stroke-miterlimit:10;stroke-width:1.4173228740692139px"/><line x1="287" y1="211.6" x2="294.5" y2="211.6" style="fill:none;stroke:#4d4d4d;stroke-miterlimit:10;stroke-width:1.4173228740692139px"/><line x1="264.9" y1="199.1" x2="270.5" y2="204.1" style="fill:none;stroke:#4d4d4d;stroke-miterlimit:10;stroke-width:1.4173228740692139px"/><line x1="277.7" y1="191.8" x2="277.7" y2="199.3" style="fill:none;stroke:#4d4d4d;stroke-miterlimit:10;stroke-width:1.4173228740692139px"/><path d="M335.2,411.6s7-15,6.1-24.6c0,0,1.6,14.2.1,19.1,0,0,3.1-5.5,4.8-6.8,0,0-2.3,5.4-1.4,8.8,0,0,5.6-.5,7-12.5,0,0,.3,11.6,1.2,14.2,0,0,3.8-12.7,5.5-15,0,0-.6,9.3,0,11.6a13.2,13.2,0,0,0,3.5-3.4s-2.7,4.9-.6,7.2a13,13,0,0,0,6.1-8.1s.3,6.3,2,9.5Z" style="fill:#d3de46"/><path d="M304.4,411.6s7-15,6.1-24.6c0,0,1.6,14.2.1,19.1,0,0,3.1-5.5,4.8-6.8,0,0-2.3,5.4-1.4,8.8,0,0,5.6-.5,7-12.5,0,0,.3,11.6,1.2,14.2,0,0,3.8-12.7,5.5-15,0,0-.6,9.3,0,11.6a13.2,13.2,0,0,0,3.5-3.4s-2.7,4.9-.6,7.2a13,13,0,0,0,6.1-8.1s.3,6.3,2,9.5Z" style="fill:#d3de46"/><path d="M401.4,411.6s7-15,6.1-24.6c0,0,1.6,14.2.1,19.1,0,0,3.1-5.5,4.8-6.8,0,0-2.3,5.4-1.4,8.8,0,0,5.6-.5,7-12.5,0,0,.3,11.6,1.2,14.2,0,0,3.8-12.7,5.5-15,0,0-.6,9.3,0,11.6a13.2,13.2,0,0,0,3.5-3.4s-2.7,4.9-.6,7.2a13,13,0,0,0,6.1-8.1s.3,6.3,2,9.5Z" style="fill:#d3de46"/><path d="M370.5,411.6s7-15,6.1-24.6c0,0,1.6,14.2.1,19.1,0,0,3.1-5.5,4.8-6.8,0,0-2.3,5.4-1.4,8.8,0,0,5.6-.5,7-12.5,0,0,.3,11.6,1.2,14.2,0,0,3.8-12.7,5.5-15,0,0-.6,9.3,0,11.6a13.2,13.2,0,0,0,3.5-3.4s-2.7,4.9-.6,7.2a13,13,0,0,0,6.1-8.1s.3,6.3,2,9.5Z" style="fill:#d3de46"/><path d="M519.7,411.6s7-15,6.1-24.6c0,0,1.6,14.2.1,19.1,0,0,3.1-5.5,4.8-6.8,0,0-2.3,5.4-1.4,8.8,0,0,5.6-.5,7-12.5,0,0,.3,11.6,1.2,14.2,0,0,3.8-12.7,5.5-15,0,0-.6,9.3,0,11.6a13.2,13.2,0,0,0,3.5-3.4s-2.7,4.9-.6,7.2a13,13,0,0,0,6.1-8.1s.3,6.3,2,9.5Z" style="fill:#d3de46"/><path d="M488.8,411.6s7-15,6.1-24.6c0,0,1.6,14.2.1,19.1,0,0,3.1-5.5,4.8-6.8,0,0-2.3,5.4-1.4,8.8,0,0,5.6-.5,7-12.5,0,0,.3,11.6,1.2,14.2,0,0,3.8-12.7,5.5-15,0,0-.6,9.3,0,11.6a13.2,13.2,0,0,0,3.5-3.4s-2.7,4.9-.6,7.2a13,13,0,0,0,6.1-8.1s.3,6.3,2,9.5Z" style="fill:#d3de46"/><path d="M672.1,410.6s7-15,6.1-24.6c0,0,1.6,14.2.1,19.1,0,0,3.1-5.5,4.8-6.8,0,0-2.3,5.4-1.4,8.8,0,0,5.6-.5,7-12.5,0,0,.3,11.6,1.2,14.2,0,0,3.8-12.7,5.5-15,0,0-.6,9.3,0,11.6a13.2,13.2,0,0,0,3.5-3.4s-2.7,4.9-.6,7.2a13,13,0,0,0,6.1-8.1s.3,6.3,2,9.5Z" style="fill:#d3de46"/><path d="M641.2,410.6s7-15,6.1-24.6c0,0,1.6,14.2.1,19.1,0,0,3.1-5.5,4.8-6.8,0,0-2.3,5.4-1.4,8.8,0,0,5.6-.5,7-12.5,0,0,.3,11.6,1.2,14.2,0,0,3.8-12.7,5.5-15,0,0-.6,9.3,0,11.6a13.2,13.2,0,0,0,3.5-3.4s-2.7,4.9-.6,7.2a13,13,0,0,0,6.1-8.1s.3,6.3,2,9.5Z" style="fill:#d3de46"/><path d="M232.4,309.6l4.5,2.6a1.7,1.7,0,0,1,.9,1.5v5.2a1.7,1.7,0,0,1-.9,1.5l-4.5,2.6a1.7,1.7,0,0,1-1.7,0l-4.5-2.6a1.7,1.7,0,0,1-.9-1.5v-5.2a1.7,1.7,0,0,1,.9-1.5l4.5-2.6A1.7,1.7,0,0,1,232.4,309.6Z" style="fill:#bbbe3a"/><path d="M232.4,306.9l5.1,2.9a1.9,1.9,0,0,1,1,1.7v5.9a1.9,1.9,0,0,1-1,1.7l-5.1,2.9a1.9,1.9,0,0,1-1.9,0l-5.1-2.9a1.9,1.9,0,0,1-1-1.7v-5.9a1.9,1.9,0,0,1,1-1.7l5.1-2.9A1.9,1.9,0,0,1,232.4,306.9Z" style="fill:#d3de46"/><path d="M222.8,314.4l4.5,2.6a1.7,1.7,0,0,1,.9,1.5v5.2a1.7,1.7,0,0,1-.9,1.5l-4.5,2.6a1.7,1.7,0,0,1-1.7,0l-4.5-2.6a1.7,1.7,0,0,1-.9-1.5v-5.2a1.7,1.7,0,0,1,.9-1.5l4.5-2.6A1.7,1.7,0,0,1,222.8,314.4Z" style="fill:#bbbe3a"/><path d="M222.8,311.7l5.1,2.9a1.9,1.9,0,0,1,1,1.7v5.9a1.9,1.9,0,0,1-1,1.7l-5.1,2.9a1.9,1.9,0,0,1-1.9,0l-5.1-2.9a1.9,1.9,0,0,1-1-1.7v-5.9a1.9,1.9,0,0,1,1-1.7l5.1-2.9A1.9,1.9,0,0,1,222.8,311.7Z" style="fill:#d3de46"/><rect x="223.7" y="324.2" width="7.2" height="4.56" style="fill:#6e8c3b"/><path d="M221.1,310.9l1.1,1.9a.7.7,0,0,1,0,.7l-1.1,1.9a.7.7,0,0,1-.6.4h-2.2a.7.7,0,0,1-.6-.4l-1.1-1.9a.7.7,0,0,1,0-.7l1.1-1.9a.7.7,0,0,1,.6-.4h2.2A.7.7,0,0,1,221.1,310.9Z" style="fill:#6e8c3b"/><path d="M221.1,310.6l1.1,1.9a.7.7,0,0,1,0,.7l-1.1,1.9a.7.7,0,0,1-.6.4h-2.2a.7.7,0,0,1-.6-.4l-1.1-1.9a.7.7,0,0,1,0-.7l1.1-1.9a.7.7,0,0,1,.6-.4h2.2A.7.7,0,0,1,221.1,310.6Z" style="fill:#8ea43b"/><path d="M229.1,308.8l6.6,3.8a2.5,2.5,0,0,1,1.3,2.2v7.6a2.5,2.5,0,0,1-1.3,2.2l-6.6,3.8a2.5,2.5,0,0,1-2.5,0l-6.6-3.8a2.5,2.5,0,0,1-1.3-2.2v-7.6a2.5,2.5,0,0,1,1.3-2.2l6.6-3.8A2.5,2.5,0,0,1,229.1,308.8Z" style="fill:#6e8c3b"/><path d="M228.6,307.8l6.6,3.8a2.5,2.5,0,0,1,1.3,2.2v7.6a2.5,2.5,0,0,1-1.3,2.2l-6.6,3.8a2.5,2.5,0,0,1-2.5,0l-6.6-3.8a2.5,2.5,0,0,1-1.3-2.2v-7.6a2.5,2.5,0,0,1,1.3-2.2l6.6-3.8A2.5,2.5,0,0,1,228.6,307.8Z" style="fill:#a3c23a"/><path d="M237.7,315.9l2.7,4.7a1.8,1.8,0,0,1,0,1.8l-2.7,4.6a1.8,1.8,0,0,1-1.5.9h-5.4a1.8,1.8,0,0,1-1.5-.9l-2.7-4.7a1.8,1.8,0,0,1,0-1.8l2.7-4.6a1.8,1.8,0,0,1,1.5-.9h5.4A1.8,1.8,0,0,1,237.7,315.9Z" style="fill:#6e8c3b"/><path d="M237.8,315.1l2.7,4.7a1.8,1.8,0,0,1,0,1.8l-2.7,4.6a1.8,1.8,0,0,1-1.5.9h-5.4a1.8,1.8,0,0,1-1.5-.9l-2.7-4.7a1.8,1.8,0,0,1,0-1.8l2.7-4.6a1.8,1.8,0,0,1,1.5-.9h5.4A1.8,1.8,0,0,1,237.8,315.1Z" style="fill:#8ea43b"/><path d="M86.1,348.3l6.3,3.6a2.4,2.4,0,0,1,1.2,2.1v7.3a2.4,2.4,0,0,1-1.2,2.1L86.1,367a2.4,2.4,0,0,1-2.4,0l-6.3-3.6a2.4,2.4,0,0,1-1.2-2.1V354a2.4,2.4,0,0,1,1.2-2.1l6.3-3.6A2.4,2.4,0,0,1,86.1,348.3Z" style="fill:#bbbe3a"/><path d="M86.1,344.5l7.1,4.1a2.7,2.7,0,0,1,1.4,2.4v8.2a2.7,2.7,0,0,1-1.4,2.4l-7.1,4.1a2.7,2.7,0,0,1-2.7,0l-7.1-4.1a2.7,2.7,0,0,1-1.4-2.4V351a2.7,2.7,0,0,1,1.4-2.4l7.1-4.1A2.7,2.7,0,0,1,86.1,344.5Z" style="fill:#d3de46"/><path d="M72.6,355l6.3,3.6a2.4,2.4,0,0,1,1.2,2.1V368a2.4,2.4,0,0,1-1.2,2.1l-6.3,3.6a2.4,2.4,0,0,1-2.4,0l-6.3-3.6a2.4,2.4,0,0,1-1.2-2.1v-7.3a2.4,2.4,0,0,1,1.2-2.1l6.3-3.6A2.4,2.4,0,0,1,72.6,355Z" style="fill:#bbbe3a"/><path d="M72.6,351.3l7.1,4.1a2.7,2.7,0,0,1,1.4,2.4V366a2.7,2.7,0,0,1-1.4,2.4l-7.1,4.1a2.7,2.7,0,0,1-2.7,0l-7.1-4.1a2.7,2.7,0,0,1-1.4-2.4v-8.2a2.7,2.7,0,0,1,1.4-2.4l7.1-4.1A2.7,2.7,0,0,1,72.6,351.3Z" style="fill:#d3de46"/><rect x="73.9" y="368.9" width="10.1" height="6.41" style="fill:#6e8c3b"/><path d="M70.2,350.2l1.5,2.6a1,1,0,0,1,0,1l-1.5,2.6a1,1,0,0,1-.9.5h-3a1,1,0,0,1-.9-.5l-1.5-2.6a1,1,0,0,1,0-1l1.5-2.6a1,1,0,0,1,.9-.5h3A1,1,0,0,1,70.2,350.2Z" style="fill:#6e8c3b"/><path d="M70.3,349.7l1.5,2.6a1,1,0,0,1,0,1l-1.5,2.6a1,1,0,0,1-.9.5h-3a1,1,0,0,1-.9-.5L64,353.3a1,1,0,0,1,0-1l1.5-2.6a1,1,0,0,1,.9-.5h3A1,1,0,0,1,70.3,349.7Z" style="fill:#8ea43b"/><path d="M81.4,347.2l9.2,5.3a3.5,3.5,0,0,1,1.8,3.1v10.7a3.5,3.5,0,0,1-1.8,3.1l-9.2,5.3a3.5,3.5,0,0,1-3.5,0l-9.2-5.3a3.5,3.5,0,0,1-1.8-3.1V355.6a3.5,3.5,0,0,1,1.8-3.1l9.2-5.3A3.5,3.5,0,0,1,81.4,347.2Z" style="fill:#6e8c3b"/><path d="M80.7,345.8l9.2,5.3a3.5,3.5,0,0,1,1.8,3.1v10.7a3.5,3.5,0,0,1-1.8,3.1l-9.2,5.3a3.5,3.5,0,0,1-3.5,0l-9.2-5.3a3.5,3.5,0,0,1-1.8-3.1V354.2a3.5,3.5,0,0,1,1.8-3.1l9.2-5.3A3.5,3.5,0,0,1,80.7,345.8Z" style="fill:#a3c23a"/><path d="M93.6,357.2l3.7,6.6a2.5,2.5,0,0,1,0,2.5l-3.8,6.5a2.5,2.5,0,0,1-2.2,1.2H83.7a2.5,2.5,0,0,1-2.2-1.3l-3.7-6.6a2.5,2.5,0,0,1,0-2.5l3.8-6.5a2.5,2.5,0,0,1,2.2-1.2h7.5A2.5,2.5,0,0,1,93.6,357.2Z" style="fill:#6e8c3b"/><path d="M93.6,356l3.7,6.6a2.5,2.5,0,0,1,0,2.5l-3.8,6.5a2.5,2.5,0,0,1-2.2,1.2H83.8a2.5,2.5,0,0,1-2.2-1.3L77.9,365a2.5,2.5,0,0,1,0-2.5l3.8-6.5a2.5,2.5,0,0,1,2.2-1.2h7.5A2.5,2.5,0,0,1,93.6,356Z" style="fill:#8ea43b"/></g></svg>