<svg id="Layer_1" data-name="Layer 1" xmlns="http://www.w3.org/2000/svg" xmlns:xlink="http://www.w3.org/1999/xlink" viewBox="0 0 800 450"><defs><clipPath id="clip-path"><rect width="800" height="450" style="fill:none"/></clipPath></defs><title>decision-topic</title><g style="clip-path:url(#clip-path)"><polygon points="391.2 241.4 203.6 261.7 180 280.8 205.2 297 391.2 281.2 391.2 241.4" style="fill:#4d4d4d"/><path d="M227.1,274l-.2,3.5,6.5-.5v2.7l-6.5.5-.3,5.3-3.3.3.8-14.1,10.4-.9-.2,2.6Z" style="fill:#fff"/><path d="M250.3,276.4a8.7,8.7,0,0,1-8.1,7.8c-4.4.4-7.6-2.4-7.3-6.5a8.6,8.6,0,0,1,8.1-7.8C247.4,269.5,250.5,272.3,250.3,276.4Zm-12.1,1a3.8,3.8,0,0,0,4.2,4,5.2,5.2,0,0,0,4.6-4.8,3.7,3.7,0,0,0-4.1-4A5.2,5.2,0,0,0,238.2,277.4Z" style="fill:#fff"/><path d="M258.9,278.7h-.3l-3,.3-.2,4-3.3.3.8-14.1,6.3-.5c3.8-.3,5.8,1.3,5.6,4.4a5.5,5.5,0,0,1-2.9,4.8l2.8,4.4-3.7.3Zm-.2-2.6c1.8-.2,2.9-1,3-2.7s-.9-2.3-2.7-2.1l-3,.3-.3,4.8Z" style="fill:#fff"/><path d="M278.8,269.7l-.6,11.4-3.3.3.6-11.4-4.4.4v-2.7l12-1v2.7Z" style="fill:#fff"/><path d="M294.1,279.7l.3-5.6-6.5.6-.3,5.6-3.3.3.8-14.1,3.3-.3L288,272l6.5-.6.3-5.9,3.3-.3-.8,14.1Z" style="fill:#fff"/><path d="M304.4,267.4l-.2,3.1,7-.6v2.6l-7,.6-.2,3.1,7.9-.7v2.6l-11.2.9.8-14.1,11-.9v2.6Z" style="fill:#fff"/><path d="M326.6,262.9c3.2-.3,5.1.9,5,3.1a3.7,3.7,0,0,1-2.7,3.3,2.9,2.9,0,0,1,2.8,3.3c-.1,2.4-2.3,4.1-5.7,4.4l-6.9.6.8-14.1Zm-3.7,6,3.2-.3c1.2-.1,2-.8,2.1-1.7s-.7-1.4-1.9-1.3l-3.2.3Zm-.3,5.8,3.2-.3c1.5-.1,2.5-.8,2.6-1.9s-.8-1.6-2.4-1.4l-3.2.3Z" style="fill:#fff"/><path d="M337.7,264.6l-.2,3.1,7-.6v2.6l-7,.6-.2,3.1,7.9-.7v2.6l-11.2.9.8-14.1,11-.9V264Z" style="fill:#fff"/><path d="M359,261.6l-1.4,2.7a9.2,9.2,0,0,0-4.4-1.1c-1.1.1-1.9.5-1.9,1.3-.1,2.6,7.6.5,7.3,5.6-.2,2.8-2.7,4.5-5.9,4.7a9.1,9.1,0,0,1-6.2-1.7l1.4-2.7a7.5,7.5,0,0,0,5,1.7c1.3-.1,2.2-.7,2.2-1.5.1-2.7-7.6-.5-7.3-5.5.1-2.6,2.5-4.4,5.8-4.6A9.5,9.5,0,0,1,359,261.6Z" style="fill:#fff"/><path d="M367.5,262.2l-.6,11.4-3.3.3.6-11.4-4.4.4v-2.7l12-1v2.7Z" style="fill:#fff"/><polygon points="213.7 58.4 220.8 57.4 220.8 114 213.7 114.7 166.5 76.4 213.7 58.4" style="fill:#e5ad23"/><polygon points="308 216.9 302.9 216.9 282.6 235.8 302.9 253.8 308 254.6 308 216.9" style="fill:#8fa534"/><path d="M-98.5,520.4H817.9l-9.5-182.9s-317.8-25.8-468.7-25.8S-18,334.9-99,339.9" style="fill:#a3c23b"/><path d="M-19.3,573H897L879.6,423.7s-309.8-35.4-460.7-35.4S38.6,409.9-42.4,414.9" style="fill:#8ea43b"/><path d="M30.9,186.5l26.3,15.2a10.1,10.1,0,0,1,5,8.7v30.3a10.1,10.1,0,0,1-5,8.7L30.9,264.6a10.1,10.1,0,0,1-10.1,0L-5.4,249.4a10.1,10.1,0,0,1-5-8.7V210.4a10.1,10.1,0,0,1,5-8.7l26.3-15.2A10.1,10.1,0,0,1,30.9,186.5Z" style="fill:#6e8c3b"/><path d="M28.7,182.5,55,197.7a10.1,10.1,0,0,1,5,8.7v30.3a10.1,10.1,0,0,1-5,8.7L28.7,260.6a10.1,10.1,0,0,1-10.1,0L-7.6,245.4a10.1,10.1,0,0,1-5-8.7V206.4a10.1,10.1,0,0,1,5-8.7l26.3-15.2A10.1,10.1,0,0,1,28.7,182.5Z" style="fill:#a3c23a"/><polygon points="25 214.9 24.6 228 10.8 210.9 24.5 229.5 21.2 337.6 28.3 337.6 26.2 249.1 32.5 228 26 242.2 25 214.9" style="fill:#967e2e"/><path d="M149.1,216.7,171,229.3a8.4,8.4,0,0,1,4.2,7.2v25.2a8.4,8.4,0,0,1-4.2,7.2l-21.8,12.6a8.4,8.4,0,0,1-8.4,0L119,268.9a8.4,8.4,0,0,1-4.2-7.2V236.5a8.4,8.4,0,0,1,4.2-7.2l21.8-12.6A8.4,8.4,0,0,1,149.1,216.7Z" style="fill:#6e8c3b"/><path d="M147.3,213.4,169.1,226a8.4,8.4,0,0,1,4.2,7.2v25.2a8.4,8.4,0,0,1-4.2,7.2l-21.8,12.6a8.4,8.4,0,0,1-8.4,0l-21.8-12.6a8.4,8.4,0,0,1-4.2-7.2V233.2a8.4,8.4,0,0,1,4.2-7.2L139,213.4A8.4,8.4,0,0,1,147.3,213.4Z" style="fill:#a3c23a"/><polygon points="144.3 240.3 143.9 251.2 132.5 237 143.9 252.4 141.1 342.2 147 342.2 145.3 268.7 150.5 251.2 145.1 262.9 144.3 240.3" style="fill:#967e2e"/><path d="M123.2,235.2l17.1,9.9a6.6,6.6,0,0,1,3.3,5.7v19.8a6.6,6.6,0,0,1-3.3,5.7l-17.1,9.9a6.6,6.6,0,0,1-6.6,0l-17.1-9.9a6.6,6.6,0,0,1-3.3-5.7V250.8a6.6,6.6,0,0,1,3.3-5.7l17.1-9.9A6.6,6.6,0,0,1,123.2,235.2Z" style="fill:#bbbe3a"/><path d="M121.2,232.9l17.1,9.9a6.6,6.6,0,0,1,3.3,5.7v19.8a6.6,6.6,0,0,1-3.3,5.7l-17.1,9.9a6.6,6.6,0,0,1-6.6,0l-17.1-9.9a6.6,6.6,0,0,1-3.3-5.7V248.4a6.6,6.6,0,0,1,3.3-5.7l17.1-9.9A6.6,6.6,0,0,1,121.2,232.9Z" style="fill:#d3de46"/><polygon points="117 258.8 116.7 267.2 107.8 256.2 116.7 268.1 114.5 330.4 119.1 330.4 117.7 280.7 121.8 267.2 117.6 276.3 117 258.8" style="fill:#967e2e"/><path d="M232.4,309.6l4.5,2.6a1.7,1.7,0,0,1,.9,1.5v5.2a1.7,1.7,0,0,1-.9,1.5l-4.5,2.6a1.7,1.7,0,0,1-1.7,0l-4.5-2.6a1.7,1.7,0,0,1-.9-1.5v-5.2a1.7,1.7,0,0,1,.9-1.5l4.5-2.6A1.7,1.7,0,0,1,232.4,309.6Z" style="fill:#bbbe3a"/><path d="M232.4,306.9l5.1,2.9a1.9,1.9,0,0,1,1,1.7v5.9a1.9,1.9,0,0,1-1,1.7l-5.1,2.9a1.9,1.9,0,0,1-1.9,0l-5.1-2.9a1.9,1.9,0,0,1-1-1.7v-5.9a1.9,1.9,0,0,1,1-1.7l5.1-2.9A1.9,1.9,0,0,1,232.4,306.9Z" style="fill:#d3de46"/><path d="M222.8,314.4l4.5,2.6a1.7,1.7,0,0,1,.9,1.5v5.2a1.7,1.7,0,0,1-.9,1.5l-4.5,2.6a1.7,1.7,0,0,1-1.7,0l-4.5-2.6a1.7,1.7,0,0,1-.9-1.5v-5.2a1.7,1.7,0,0,1,.9-1.5l4.5-2.6A1.7,1.7,0,0,1,222.8,314.4Z" style="fill:#bbbe3a"/><path d="M222.8,311.7l5.1,2.9a1.9,1.9,0,0,1,1,1.7v5.9a1.9,1.9,0,0,1-1,1.7l-5.1,2.9a1.9,1.9,0,0,1-1.9,0l-5.1-2.9a1.9,1.9,0,0,1-1-1.7v-5.9a1.9,1.9,0,0,1,1-1.7l5.1-2.9A1.9,1.9,0,0,1,222.8,311.7Z" style="fill:#d3de46"/><rect x="223.7" y="324.2" width="7.2" height="4.56" style="fill:#6e8c3b"/><path d="M221.1,310.9l1.1,1.9a.7.7,0,0,1,0,.7l-1.1,1.9a.7.7,0,0,1-.6.4h-2.2a.7.7,0,0,1-.6-.4l-1.1-1.9a.7.7,0,0,1,0-.7l1.1-1.9a.7.7,0,0,1,.6-.4h2.2A.7.7,0,0,1,221.1,310.9Z" style="fill:#6e8c3b"/><path d="M221.1,310.6l1.1,1.9a.7.7,0,0,1,0,.7l-1.1,1.9a.7.7,0,0,1-.6.4h-2.2a.7.7,0,0,1-.6-.4l-1.1-1.9a.7.7,0,0,1,0-.7l1.1-1.9a.7.7,0,0,1,.6-.4h2.2A.7.7,0,0,1,221.1,310.6Z" style="fill:#8ea43b"/><path d="M229.1,308.8l6.6,3.8a2.5,2.5,0,0,1,1.3,2.2v7.6a2.5,2.5,0,0,1-1.3,2.2l-6.6,3.8a2.5,2.5,0,0,1-2.5,0l-6.6-3.8a2.5,2.5,0,0,1-1.3-2.2v-7.6a2.5,2.5,0,0,1,1.3-2.2l6.6-3.8A2.5,2.5,0,0,1,229.1,308.8Z" style="fill:#6e8c3b"/><path d="M228.6,307.8l6.6,3.8a2.5,2.5,0,0,1,1.3,2.2v7.6a2.5,2.5,0,0,1-1.3,2.2l-6.6,3.8a2.5,2.5,0,0,1-2.5,0l-6.6-3.8a2.5,2.5,0,0,1-1.3-2.2v-7.6a2.5,2.5,0,0,1,1.3-2.2l6.6-3.8A2.5,2.5,0,0,1,228.6,307.8Z" style="fill:#a3c23a"/><path d="M237.7,315.9l2.7,4.7a1.8,1.8,0,0,1,0,1.8l-2.7,4.6a1.8,1.8,0,0,1-1.5.9h-5.4a1.8,1.8,0,0,1-1.5-.9l-2.7-4.7a1.8,1.8,0,0,1,0-1.8l2.7-4.6a1.8,1.8,0,0,1,1.5-.9h5.4A1.8,1.8,0,0,1,237.7,315.9Z" style="fill:#6e8c3b"/><path d="M237.8,315.1l2.7,4.7a1.8,1.8,0,0,1,0,1.8l-2.7,4.6a1.8,1.8,0,0,1-1.5.9h-5.4a1.8,1.8,0,0,1-1.5-.9l-2.7-4.7a1.8,1.8,0,0,1,0-1.8l2.7-4.6a1.8,1.8,0,0,1,1.5-.9h5.4A1.8,1.8,0,0,1,237.8,315.1Z" style="fill:#8ea43b"/><path d="M86.1,348.3l6.3,3.6a2.4,2.4,0,0,1,1.2,2.1v7.3a2.4,2.4,0,0,1-1.2,2.1L86.1,367a2.4,2.4,0,0,1-2.4,0l-6.3-3.6a2.4,2.4,0,0,1-1.2-2.1V354a2.4,2.4,0,0,1,1.2-2.1l6.3-3.6A2.4,2.4,0,0,1,86.1,348.3Z" style="fill:#bbbe3a"/><path d="M86.1,344.5l7.1,4.1a2.7,2.7,0,0,1,1.4,2.4v8.2a2.7,2.7,0,0,1-1.4,2.4l-7.1,4.1a2.7,2.7,0,0,1-2.7,0l-7.1-4.1a2.7,2.7,0,0,1-1.4-2.4V351a2.7,2.7,0,0,1,1.4-2.4l7.1-4.1A2.7,2.7,0,0,1,86.1,344.5Z" style="fill:#d3de46"/><path d="M72.6,355l6.3,3.6a2.4,2.4,0,0,1,1.2,2.1V368a2.4,2.4,0,0,1-1.2,2.1l-6.3,3.6a2.4,2.4,0,0,1-2.4,0l-6.3-3.6a2.4,2.4,0,0,1-1.2-2.1v-7.3a2.4,2.4,0,0,1,1.2-2.1l6.3-3.6A2.4,2.4,0,0,1,72.6,355Z" style="fill:#bbbe3a"/><path d="M72.6,351.3l7.1,4.1a2.7,2.7,0,0,1,1.4,2.4V366a2.7,2.7,0,0,1-1.4,2.4l-7.1,4.1a2.7,2.7,0,0,1-2.7,0l-7.1-4.1a2.7,2.7,0,0,1-1.4-2.4v-8.2a2.7,2.7,0,0,1,1.4-2.4l7.1-4.1A2.7,2.7,0,0,1,72.6,351.3Z" style="fill:#d3de46"/><rect x="73.9" y="368.9" width="10.1" height="6.41" style="fill:#6e8c3b"/><path d="M70.2,350.2l1.5,2.6a1,1,0,0,1,0,1l-1.5,2.6a1,1,0,0,1-.9.5h-3a1,1,0,0,1-.9-.5l-1.5-2.6a1,1,0,0,1,0-1l1.5-2.6a1,1,0,0,1,.9-.5h3A1,1,0,0,1,70.2,350.2Z" style="fill:#6e8c3b"/><path d="M70.3,349.7l1.5,2.6a1,1,0,0,1,0,1l-1.5,2.6a1,1,0,0,1-.9.5h-3a1,1,0,0,1-.9-.5L64,353.3a1,1,0,0,1,0-1l1.5-2.6a1,1,0,0,1,.9-.5h3A1,1,0,0,1,70.3,349.7Z" style="fill:#8ea43b"/><path d="M81.4,347.2l9.2,5.3a3.5,3.5,0,0,1,1.8,3.1v10.7a3.5,3.5,0,0,1-1.8,3.1l-9.2,5.3a3.5,3.5,0,0,1-3.5,0l-9.2-5.3a3.5,3.5,0,0,1-1.8-3.1V355.6a3.5,3.5,0,0,1,1.8-3.1l9.2-5.3A3.5,3.5,0,0,1,81.4,347.2Z" style="fill:#6e8c3b"/><path d="M80.7,345.8l9.2,5.3a3.5,3.5,0,0,1,1.8,3.1v10.7a3.5,3.5,0,0,1-1.8,3.1l-9.2,5.3a3.5,3.5,0,0,1-3.5,0l-9.2-5.3a3.5,3.5,0,0,1-1.8-3.1V354.2a3.5,3.5,0,0,1,1.8-3.1l9.2-5.3A3.5,3.5,0,0,1,80.7,345.8Z" style="fill:#a3c23a"/><path d="M93.6,357.2l3.7,6.6a2.5,2.5,0,0,1,0,2.5l-3.8,6.5a2.5,2.5,0,0,1-2.2,1.2H83.7a2.5,2.5,0,0,1-2.2-1.3l-3.7-6.6a2.5,2.5,0,0,1,0-2.5l3.8-6.5a2.5,2.5,0,0,1,2.2-1.2h7.5A2.5,2.5,0,0,1,93.6,357.2Z" style="fill:#6e8c3b"/><path d="M93.6,356l3.7,6.6a2.5,2.5,0,0,1,0,2.5l-3.8,6.5a2.5,2.5,0,0,1-2.2,1.2H83.8a2.5,2.5,0,0,1-2.2-1.3L77.9,365a2.5,2.5,0,0,1,0-2.5l3.8-6.5a2.5,2.5,0,0,1,2.2-1.2h7.5A2.5,2.5,0,0,1,93.6,356Z" style="fill:#8ea43b"/><path d="M178.5,399.7s7-15,6.1-24.6c0,0,1.6,14.2.1,19.1,0,0,3.1-5.5,4.8-6.8,0,0-2.3,5.4-1.4,8.8,0,0,5.6-.5,7-12.5,0,0,.3,11.6,1.2,14.2,0,0,3.8-12.7,5.5-15,0,0-.6,9.3,0,11.6a13.2,13.2,0,0,0,3.5-3.4s-2.7,4.9-.6,7.2a13,13,0,0,0,6.1-8.1s.3,6.3,2,9.5Z" style="fill:#d3de46"/><path d="M147.6,399.7s7-15,6.1-24.6c0,0,1.6,14.2.1,19.1,0,0,3.1-5.5,4.8-6.8,0,0-2.3,5.4-1.4,8.8,0,0,5.6-.5,7-12.5,0,0,.3,11.6,1.2,14.2,0,0,3.8-12.7,5.5-15,0,0-.6,9.3,0,11.6a13.2,13.2,0,0,0,3.5-3.4s-2.7,4.9-.6,7.2a13,13,0,0,0,6.1-8.1s.3,6.3,2,9.5Z" style="fill:#d3de46"/><path d="M244.6,399.7s7-15,6.1-24.6c0,0,1.6,14.2.1,19.1,0,0,3.1-5.5,4.8-6.8,0,0-2.3,5.4-1.4,8.8,0,0,5.6-.5,7-12.5,0,0,.3,11.6,1.2,14.2,0,0,3.8-12.7,5.5-15,0,0-.6,9.3,0,11.6a13.2,13.2,0,0,0,3.5-3.4s-2.7,4.9-.6,7.2a13,13,0,0,0,6.1-8.1s.3,6.3,2,9.5Z" style="fill:#d3de46"/><path d="M213.8,399.7s7-15,6.1-24.6c0,0,1.6,14.2.1,19.1,0,0,3.1-5.5,4.8-6.8,0,0-2.3,5.4-1.4,8.8,0,0,5.6-.5,7-12.5,0,0,.3,11.6,1.2,14.2,0,0,3.8-12.7,5.5-15,0,0-.6,9.3,0,11.6a13.2,13.2,0,0,0,3.5-3.4s-2.7,4.9-.6,7.2a13,13,0,0,0,6.1-8.1s.3,6.3,2,9.5Z" style="fill:#d3de46"/><path d="M711.1,356.3s7-15,6.1-24.6c0,0,1.6,14.2.1,19.1,0,0,3.1-5.5,4.8-6.8,0,0-2.3,5.4-1.4,8.8,0,0,5.6-.5,7-12.5,0,0,.3,11.6,1.2,14.2,0,0,3.8-12.7,5.5-15,0,0-.6,9.3,0,11.6a13.2,13.2,0,0,0,3.5-3.4s-2.7,4.9-.6,7.2a13,13,0,0,0,6.1-8.1s.3,6.3,2,9.5Z" style="fill:#d3de46"/><path d="M158.2,326.7s7-15,6.1-24.6c0,0,1.6,14.2.1,19.1,0,0,3.1-5.5,4.8-6.8,0,0-2.3,5.4-1.4,8.8,0,0,5.6-.5,7-12.5,0,0,.3,11.6,1.2,14.2,0,0,3.8-12.7,5.5-15,0,0-.6,9.3,0,11.6a13.2,13.2,0,0,0,3.5-3.4s-2.7,4.9-.6,7.2a13,13,0,0,0,6.1-8.1s.3,6.3,2,9.5Z" style="fill:#d3de46"/><path d="M735.7,161.7l32.6,18.8a12.5,12.5,0,0,1,6.2,10.8v37.6a12.5,12.5,0,0,1-6.2,10.8l-32.6,18.8a12.5,12.5,0,0,1-12.5,0l-32.6-18.8a12.5,12.5,0,0,1-6.2-10.8V191.3a12.5,12.5,0,0,1,6.2-10.8l32.6-18.8A12.5,12.5,0,0,1,735.7,161.7Z" style="fill:#6e8c3b"/><path d="M733,156.7l32.6,18.8a12.5,12.5,0,0,1,6.2,10.8v37.6a12.5,12.5,0,0,1-6.2,10.8L733,253.5a12.5,12.5,0,0,1-12.5,0L688,234.7a12.5,12.5,0,0,1-6.2-10.8V186.3a12.5,12.5,0,0,1,6.2-10.8l32.6-18.8A12.5,12.5,0,0,1,733,156.7Z" style="fill:#a3c23a"/><polygon points="728.5 196.9 727.9 213.1 710.9 191.9 727.9 214.9 723.8 349 732.6 349 730 239.2 737.7 213.1 729.7 230.7 728.5 196.9" style="fill:#967e2e"/><path d="M697,189.3,722.6,204a9.8,9.8,0,0,1,4.9,8.5V242a9.8,9.8,0,0,1-4.9,8.5L697,265.2a9.8,9.8,0,0,1-9.8,0l-25.5-14.8a9.8,9.8,0,0,1-4.9-8.5V212.5a9.8,9.8,0,0,1,4.9-8.5l25.5-14.8A9.8,9.8,0,0,1,697,189.3Z" style="fill:#bbbe3a"/><path d="M694.1,185.8l25.5,14.8a9.8,9.8,0,0,1,4.9,8.5v29.5a9.8,9.8,0,0,1-4.9,8.5l-25.5,14.8a9.8,9.8,0,0,1-9.8,0L658.8,247a9.8,9.8,0,0,1-4.9-8.5V209.1a9.8,9.8,0,0,1,4.9-8.5l25.5-14.8A9.8,9.8,0,0,1,694.1,185.8Z" style="fill:#d3de46"/><polygon points="687.7 224.5 687.3 237 674.1 220.7 687.3 238.5 684.1 331.3 690.9 331.3 688.9 257.2 694.9 237 688.7 250.6 687.7 224.5" style="fill:#967e2e"/><path d="M670.2,338.3s7-15,6.1-24.6c0,0,1.6,14.2.1,19.1,0,0,3.1-5.5,4.8-6.8,0,0-2.3,5.4-1.4,8.8,0,0,5.6-.5,7-12.5,0,0,.3,11.6,1.2,14.2,0,0,3.8-12.7,5.5-15,0,0-.6,9.3,0,11.6a13.2,13.2,0,0,0,3.5-3.4s-2.7,4.9-.6,7.2a13,13,0,0,0,6.1-8.1s.3,6.3,2,9.5Z" style="fill:#d3de46"/><path d="M598.7,345.7l6.3,3.6a2.4,2.4,0,0,1,1.2,2.1v7.3a2.4,2.4,0,0,1-1.2,2.1l-6.3,3.6a2.4,2.4,0,0,1-2.4,0l-6.3-3.6a2.4,2.4,0,0,1-1.2-2.1v-7.3a2.4,2.4,0,0,1,1.2-2.1l6.3-3.6A2.4,2.4,0,0,1,598.7,345.7Z" style="fill:#bbbe3a"/><path d="M598.7,341.9l7.1,4.1a2.7,2.7,0,0,1,1.4,2.4v8.2a2.7,2.7,0,0,1-1.4,2.4l-7.1,4.1a2.7,2.7,0,0,1-2.7,0l-7.1-4.1a2.7,2.7,0,0,1-1.4-2.4v-8.2a2.7,2.7,0,0,1,1.4-2.4l7.1-4.1A2.7,2.7,0,0,1,598.7,341.9Z" style="fill:#d3de46"/><path d="M585.2,352.4l6.3,3.6a2.4,2.4,0,0,1,1.2,2.1v7.3a2.4,2.4,0,0,1-1.2,2.1l-6.3,3.6a2.4,2.4,0,0,1-2.4,0l-6.3-3.6a2.4,2.4,0,0,1-1.2-2.1v-7.3a2.4,2.4,0,0,1,1.2-2.1l6.3-3.6A2.4,2.4,0,0,1,585.2,352.4Z" style="fill:#bbbe3a"/><path d="M585.2,348.7l7.1,4.1a2.7,2.7,0,0,1,1.4,2.4v8.2a2.7,2.7,0,0,1-1.4,2.4l-7.1,4.1a2.7,2.7,0,0,1-2.7,0l-7.1-4.1a2.7,2.7,0,0,1-1.4-2.4v-8.2a2.7,2.7,0,0,1,1.4-2.4l7.1-4.1A2.7,2.7,0,0,1,585.2,348.7Z" style="fill:#d3de46"/><rect x="586.5" y="366.2" width="10.1" height="6.41" style="fill:#6e8c3b"/><path d="M582.8,347.5l1.5,2.6a1,1,0,0,1,0,1l-1.5,2.6a1,1,0,0,1-.9.5h-3a1,1,0,0,1-.9-.5l-1.5-2.6a1,1,0,0,1,0-1l1.5-2.6a1,1,0,0,1,.9-.5h3A1,1,0,0,1,582.8,347.5Z" style="fill:#6e8c3b"/><path d="M582.8,347.1l1.5,2.6a1,1,0,0,1,0,1l-1.5,2.6a1,1,0,0,1-.9.5h-3a1,1,0,0,1-.9-.5l-1.5-2.6a1,1,0,0,1,0-1l1.5-2.6a1,1,0,0,1,.9-.5h3A1,1,0,0,1,582.8,347.1Z" style="fill:#8ea43b"/><path d="M594,344.5l9.2,5.3a3.5,3.5,0,0,1,1.8,3.1v10.7a3.5,3.5,0,0,1-1.8,3.1L594,372a3.5,3.5,0,0,1-3.5,0l-9.2-5.3a3.5,3.5,0,0,1-1.8-3.1V352.9a3.5,3.5,0,0,1,1.8-3.1l9.2-5.3A3.5,3.5,0,0,1,594,344.5Z" style="fill:#6e8c3b"/><path d="M593.3,343.1l9.2,5.3a3.5,3.5,0,0,1,1.8,3.1v10.7a3.5,3.5,0,0,1-1.8,3.1l-9.2,5.3a3.5,3.5,0,0,1-3.5,0l-9.2-5.3a3.5,3.5,0,0,1-1.8-3.1V351.5a3.5,3.5,0,0,1,1.8-3.1l9.2-5.3A3.5,3.5,0,0,1,593.3,343.1Z" style="fill:#a3c23a"/><path d="M606.2,354.5l3.7,6.6a2.5,2.5,0,0,1,0,2.5l-3.8,6.5a2.5,2.5,0,0,1-2.2,1.2h-7.5a2.5,2.5,0,0,1-2.2-1.3l-3.7-6.6a2.5,2.5,0,0,1,0-2.5l3.8-6.5a2.5,2.5,0,0,1,2.2-1.2H604A2.5,2.5,0,0,1,606.2,354.5Z" style="fill:#6e8c3b"/><path d="M606.2,353.4l3.7,6.6a2.5,2.5,0,0,1,0,2.5l-3.8,6.5a2.5,2.5,0,0,1-2.2,1.2h-7.5a2.5,2.5,0,0,1-2.2-1.3l-3.7-6.6a2.5,2.5,0,0,1,0-2.5l3.8-6.5a2.5,2.5,0,0,1,2.2-1.2H604A2.5,2.5,0,0,1,606.2,353.4Z" style="fill:#8ea43b"/><path d="M494.2,338.8s7-15,6.1-24.6c0,0,1.6,14.2.1,19.1,0,0,3.1-5.5,4.8-6.8,0,0-2.3,5.4-1.4,8.8,0,0,5.6-.5,7-12.5,0,0,.3,11.6,1.2,14.2,0,0,3.8-12.7,5.5-15,0,0-.6,9.3,0,11.6a13.2,13.2,0,0,0,3.5-3.4s-2.7,4.9-.6,7.2a13,13,0,0,0,6.1-8.1s.3,6.3,2,9.5Z" style="fill:#d3de46"/><polygon points="409.7 304.6 419.5 304.6 573.1 287 605.4 256.5 562.9 232.1 556.8 230.7 409.7 304.6" style="fill:#204c18"/><polygon points="565.6 180 560.8 181.1 415.1 147.9 416.1 145.8 565.6 180" style="fill:#1a7b99"/><polygon points="414.4 124.2 422 124.2 607.5 105.5 639 74.5 592.7 48.7 414.4 124.2" style="fill:#4ea598"/><polygon points="391.2 578.9 391.2 84.4 402.1 60.2 406 80.5 406 578.9 391.2 578.9" style="fill:#c99f6f"/><polygon points="402.1 60.2 406 80.5 406 578.9 416.1 578.9 416.1 82 402.1 60.2" style="fill:#784e26"/><polygon points="398.6 92.1 220.8 57.4 171.5 76.9 219.8 114 398.6 142.8 398.6 92.1" style="fill:#f9c023"/><polygon points="391.2 153.7 281.3 173.9 267.3 196.5 286 210.6 391.2 193.4 391.2 153.7" style="fill:#b51024"/><polygon points="416.1 106 569.7 145 590.8 167.6 565.6 180 416.1 145.8 416.1 106" style="fill:#1d88b2"/><polygon points="415.4 221.1 481.5 231.1 500.5 220.4 483.5 206.1 415.4 190.5 415.4 221.1" style="fill:#ff8600"/><polygon points="400.1 223.1 308 216.9 288.1 236 308 254.6 400.1 248.4 400.1 223.1" style="fill:#a3c23b"/><polygon points="414.4 124.2 600.5 104 633.1 73.6 592.7 48.7 414.4 84.5 414.4 124.2" style="fill:#56bbaf"/><polygon points="409.7 304.6 564.6 285.9 597.3 255.6 556.8 230.7 409.7 264.9 409.7 304.6" style="fill:#2a6821"/><polygon points="482.5 231.1 479.4 231.1 415.3 221.7 416.4 221.1 482.5 231.1" style="fill:#e57200"/><polygon points="391.2 193.4 391.2 195.3 291.5 210.8 286 210.6 391.2 193.4" style="fill:#4d4d4d"/><path d="M228.3,90.4h-.3l-3.2-.5.3,5.3-3.5-.6-1-18.4,6.8,1.1a7.5,7.5,0,0,1,6.7,7.5c.2,2.8-.7,4.7-2.6,5.5l3.7,6.6-4-.7Zm-.5-3.5c1.9.3,3-.5,2.9-2.6a3.6,3.6,0,0,0-3.2-3.6l-3.2-.5.4,6.2Z" style="fill:#fff"/><path d="M237.5,97.2l-1-18.4,3.5.6,1,18.4Z" style="fill:#fff"/><path d="M257.4,91.3l.4,7.1a8.6,8.6,0,0,1-6.2,1.3c-4.7-.8-8.5-5.4-8.8-10.8s3.1-8.7,8-7.9a11.5,11.5,0,0,1,6.4,3.7l-1.8,2.6a7.9,7.9,0,0,0-4.4-2.8c-2.8-.5-4.7,1.7-4.6,4.9s2.5,6.1,5.2,6.6a5.4,5.4,0,0,0,3-.5l-.3-4.8Z" style="fill:#fff"/><path d="M271.6,102.9l-.4-7.3-7-1.2.4,7.3-3.5-.6-1-18.4,3.5.6.4,7.7,7,1.2-.4-7.7,3.5.6,1,18.4Z" style="fill:#fff"/><path d="M284.4,90.3l.8,14.9-3.5-.6-.8-14.9-4.7-.8-.2-3.5,13,2.2.2,3.5Z" style="fill:#fff"/><path d="M309.6,93.9l-1.9,2.6a7.1,7.1,0,0,0-4.2-3.1c-2.7-.4-4.6,1.7-4.4,4.9s2.4,6,5.1,6.5a4.4,4.4,0,0,0,3.9-1.5l2.2,3a6.7,6.7,0,0,1-6.1,2.2c-4.6-.8-8.4-5.4-8.7-10.8s3-8.7,7.8-7.9A10.8,10.8,0,0,1,309.6,93.9Z" style="fill:#fff"/><path d="M323.2,111.5l-.4-7.3-7-1.2.4,7.3-3.5-.6-1-18.4,3.5.6.4,7.7,7,1.2-.4-7.7,3.5.6,1,18.4Z" style="fill:#fff"/><path d="M345.1,106.1c.3,5.3-3.1,8.8-7.8,8s-8.6-5.4-8.9-10.8,3.1-8.7,7.8-7.9S344.8,100.8,345.1,106.1ZM332,103.9c.2,3.2,2.5,6.1,5.1,6.6s4.6-1.7,4.4-5-2.4-6.1-5-6.5S331.9,100.7,332,103.9Z" style="fill:#fff"/><path d="M348,115.7l-1-18.4,3.5.6,1,18.4Z" style="fill:#fff"/><path d="M367.3,103.6l-1.9,2.6a7.1,7.1,0,0,0-4.2-3.1c-2.7-.4-4.6,1.7-4.4,4.9s2.4,6,5.1,6.5a4.4,4.4,0,0,0,3.9-1.5l2.2,3a6.7,6.7,0,0,1-6.1,2.2c-4.6-.8-8.4-5.4-8.7-10.8s3-8.7,7.8-7.9A10.8,10.8,0,0,1,367.3,103.6Z" style="fill:#fff"/><path d="M373,105.1l.2,4,7.5,1.3.2,3.4-7.5-1.3.2,4.1,8.6,1.4.2,3.4-12.1-2-1-18.4,11.8,2,.2,3.4Z" style="fill:#fff"/><path d="M285,187.3c2.2-.3,3.5.4,3.4,1.9a2.9,2.9,0,0,1-1.9,2.4,1.8,1.8,0,0,1,1.9,2.1c-.2,1.7-1.7,2.9-4,3.3l-4.8.7.9-9.7Zm-2.7,4.3,2.2-.3a1.5,1.5,0,0,0,1.5-1.3c.1-.7-.4-1-1.3-.8l-2.2.3Zm-.4,4,2.2-.3c1.1-.2,1.8-.7,1.8-1.4s-.5-1-1.6-.9l-2.2.3Z" style="fill:#fff"/><path d="M292.7,187.9l-.2,2.1,4.9-.7-.2,1.8-4.9.7-.2,2.1,5.5-.8-.2,1.8-7.8,1.2.9-9.7,7.7-1.2-.2,1.8Z" style="fill:#fff"/><path d="M307.6,184.8l-1,1.9a6.1,6.1,0,0,0-3-.5c-.8.1-1.3.5-1.4,1s5.3,0,4.9,3.5c-.2,1.9-2,3.2-4.2,3.5a6,6,0,0,1-4.3-.9l1.1-1.9a4.9,4.9,0,0,0,3.4.9c.9-.1,1.5-.6,1.6-1.2s-5.3,0-5-3.4c.2-1.8,1.8-3.1,4.2-3.4A6.4,6.4,0,0,1,307.6,184.8Z" style="fill:#fff"/><path d="M313.5,184.8l-.7,7.8-2.3.3.7-7.8-3.1.5.2-1.9,8.4-1.3-.2,1.9Z" style="fill:#fff"/><path d="M325.7,181.1c3.1-.5,5.1,1.2,4.8,4.1a6.6,6.6,0,0,1-5.8,5.7l-4.2.6.9-9.7Zm-2.7,8.1,2.1-.3a3.8,3.8,0,0,0,3.2-3.4,2.2,2.2,0,0,0-2.7-2.6l-2,.3Z" style="fill:#fff"/><path d="M334.6,181.6l-.2,2.1,4.9-.7-.2,1.8-4.9.7-.2,2.1,5.5-.8-.2,1.8-7.8,1.2.9-9.7,7.7-1.2-.2,1.8Z" style="fill:#fff"/><path d="M350.6,178.9l-1.5,1.7a2.9,2.9,0,0,0-2.5-.9,4,4,0,0,0-3.3,3.4,2.2,2.2,0,0,0,2.8,2.5,5.2,5.2,0,0,0,2.7-1.5l1.2,1.2a7.9,7.9,0,0,1-4.2,2.3c-3,.5-5.1-1.4-4.8-4.2a6.8,6.8,0,0,1,5.8-5.7A4.7,4.7,0,0,1,350.6,178.9Z" style="fill:#fff"/><path d="M351.2,186.9l.9-9.7,2.3-.3-.9,9.7Z" style="fill:#fff"/><path d="M364,176.3l-1,1.9a6.1,6.1,0,0,0-3-.5c-.8.1-1.3.5-1.4,1s5.3,0,4.9,3.5c-.2,1.9-2,3.2-4.2,3.5a6,6,0,0,1-4.3-.9l1.1-1.9a4.9,4.9,0,0,0,3.4.9c.9-.1,1.5-.6,1.6-1.2s-5.3,0-5-3.4c.2-1.8,1.8-3.1,4.2-3.4A6.4,6.4,0,0,1,364,176.3Z" style="fill:#fff"/><path d="M364.8,184.8l.9-9.7,2.3-.3-.9,9.7Z" style="fill:#fff"/><path d="M379.9,177.8a6.9,6.9,0,0,1-5.9,5.8c-3.1.5-5.2-1.3-4.9-4.1a6.8,6.8,0,0,1,5.9-5.7C378,173.2,380.1,175,379.9,177.8Zm-8.5,1.3a2.3,2.3,0,0,0,2.8,2.6,4.1,4.1,0,0,0,3.3-3.5,2.3,2.3,0,0,0-2.8-2.5A4.1,4.1,0,0,0,371.4,179.1Z" style="fill:#fff"/><path d="M387.9,181.4l-4.3-5.5-.6,6.2-2.2.3.9-9.7,2.1-.3,4.3,5.5.6-6.2,2.2-.3L390,181Z" style="fill:#fff"/><path d="M437.4,99.9l.4,5.6a10.3,10.3,0,0,1-5.3,2.7,6.6,6.6,0,0,1-7.8-6.3,8,8,0,0,1,6.8-8.5,7.6,7.6,0,0,1,5.6,1.3l-1.5,2.6a5.1,5.1,0,0,0-3.8-1,4.8,4.8,0,0,0-3.9,5.2,4,4,0,0,0,4.6,3.9,6.3,6.3,0,0,0,2.6-1.2l-.3-3.8Z" style="fill:#fff"/><path d="M446.4,101.7h-.3l-2.8.4.3,4.2-3,.5-1.1-14.6,5.8-.9c3.5-.5,5.7,1,5.9,4.2a5.3,5.3,0,0,1-2.2,5.1l3.2,4.4-3.4.5Zm-.5-2.7a2.5,2.5,0,0,0,2.4-2.9c-.1-1.6-1.2-2.3-2.8-2l-2.8.4.4,4.9Z" style="fill:#fff"/><path d="M456.6,92.3l.2,3.2,6.5-1,.2,2.7-6.5,1,.3,3.2,7.4-1.2.2,2.7-10.5,1.6-1.1-14.6,10.3-1.6.2,2.7Z" style="fill:#fff"/><path d="M469.8,99.4l-.8,3-3.1.5,4.7-15.5,3.1-.5,6.9,13.7-3.2.5L476,98.4Zm2.5-8.8-1.7,6,4.2-.7Z" style="fill:#fff"/><path d="M485.4,87.9l.9,11.8-3,.5-.9-11.8-4.1.6-.2-2.8,11.2-1.8.2,2.8Z" style="fill:#fff"/><path d="M501.3,82.6c4.2-.7,7.3,1.9,7.6,6.2a7.6,7.6,0,0,1-6.6,8.4l-5.6.9-1.1-14.6Zm-1.7,12.2,2.7-.4c2.2-.4,3.8-2.4,3.6-5.1s-2.1-4.3-4.4-3.9l-2.6.4Z" style="fill:#fff"/><path d="M511.5,95.7l-1.1-14.6,3-.5,1.1,14.6Z" style="fill:#fff"/><path d="M523.3,89.7h-.3l-2.8.4.3,4.2-3,.5-1.1-14.6,5.8-.9c3.5-.5,5.7,1,5.9,4.2a5.3,5.3,0,0,1-2.2,5.1l3.2,4.4-3.4.5Zm-.5-2.7a2.5,2.5,0,0,0,2.4-2.9c-.1-1.6-1.2-2.3-2.8-2l-2.8.4.4,4.9Z" style="fill:#fff"/><path d="M533.6,80.3l.2,3.2,6.5-1,.2,2.7-6.5,1,.3,3.2,7.4-1.2.2,2.7-10.5,1.6L530.3,78l10.3-1.6.2,2.7Z" style="fill:#fff"/><path d="M554.8,76.6l-1.6,2.6a4.4,4.4,0,0,0-3.6-1.3,4.7,4.7,0,0,0-3.7,5.1,3.9,3.9,0,0,0,4.4,3.9,5.6,5.6,0,0,0,3.4-2.3l2,1.8a8.4,8.4,0,0,1-5.2,3.5c-4,.6-7.3-2.1-7.6-6.4a7.9,7.9,0,0,1,6.6-8.5A6.9,6.9,0,0,1,554.8,76.6Z" style="fill:#fff"/><path d="M562.5,75.8l.9,11.8-3,.5-.9-11.8-4.1.6-.2-2.8,11.2-1.8.2,2.8Z" style="fill:#fff"/><path d="M569.2,86.7,568,72.2l3-.5,1.1,14.6Z" style="fill:#fff"/><path d="M588.1,76.4a7.9,7.9,0,0,1-6.6,8.6,6.6,6.6,0,0,1-7.8-6.3,7.9,7.9,0,0,1,6.7-8.5A6.6,6.6,0,0,1,588.1,76.4Zm-11.3,1.8a4,4,0,0,0,4.5,3.9,4.8,4.8,0,0,0,3.7-5.2,3.9,3.9,0,0,0-4.4-3.9A4.8,4.8,0,0,0,576.8,78.2Z" style="fill:#fff"/><path d="M600.1,81.9l-7.3-8.3.7,9.4-2.9.5-1.1-14.6,2.8-.4,7.3,8.4-.7-9.4,2.9-.5,1.1,14.6Z" style="fill:#fff"/><path d="M436.9,126.4c2.5.6,4.1,2,4.1,3.7a1.8,1.8,0,0,1-2,1.9,3.6,3.6,0,0,1,2.4,3.3c0,1.9-1.7,2.6-4.4,2l-5.5-1.3V125.1Zm-2.7,3.7,2.6.6c1,.2,1.6-.1,1.6-.8s-.6-1.3-1.6-1.5l-2.6-.6Zm0,4.5,2.6.6c1.2.3,2,0,2-.9s-.7-1.5-2-1.7l-2.6-.6Z" style="fill:#fff"/><path d="M445.9,130.6V133l5.6,1.3v2l-5.6-1.3v2.4l6.4,1.5v2l-9-2.1V127.9l8.8,2.1v2Z" style="fill:#fff"/><path d="M463,133.7l-1,1.8a10.8,10.8,0,0,0-3.6-2c-.9-.2-1.5-.1-1.5.5s6.2,2.4,6.1,6.3c0,2.1-2,2.8-4.5,2.2a10.9,10.9,0,0,1-5.1-2.9l1-1.8a9.3,9.3,0,0,0,4.1,2.6c1.1.3,1.7,0,1.7-.6s-6.2-2.3-6.2-6.2c0-2,1.8-2.8,4.5-2.2A10.9,10.9,0,0,1,463,133.7Z" style="fill:#fff"/><path d="M469.9,136.3v8.8l-2.6-.6v-8.8l-3.5-.8v-2.1l9.7,2.3v2.1Z" style="fill:#fff"/><path d="M490.4,144.6c0,3.1-2.7,4.9-6.2,4.1s-6.2-3.9-6.2-7,2.7-4.9,6.2-4S490.4,141.4,490.4,144.6Zm-9.8-2.3a4.7,4.7,0,0,0,3.6,4.3,2.6,2.6,0,0,0,3.5-2.6,4.6,4.6,0,0,0-3.5-4.2C482.3,139.2,480.6,140.3,480.6,142.2Z" style="fill:#fff"/><path d="M502.3,148.3c0,2.9-2,4.2-5.2,3.4s-5.3-3-5.2-5.9v-6.3l2.6.6v6.3a3.2,3.2,0,0,0,2.6,3.1c1.6.4,2.6-.3,2.6-1.9v-6.3l2.6.6Z" style="fill:#fff"/><path d="M509.7,145.8v8.8L507,154v-8.8l-3.5-.8v-2.1l9.7,2.3v2.1Z" style="fill:#fff"/><path d="M523.9,148.8l-1.5,1.4a5.7,5.7,0,0,0-3-2.1c-2-.5-3.5.6-3.5,2.5a4.5,4.5,0,0,0,3.5,4.2,3.8,3.8,0,0,0,3-.6l1.5,1.9a5.8,5.8,0,0,1-4.7.8c-3.5-.8-6.1-3.9-6.1-7s2.7-4.9,6.2-4A8.9,8.9,0,0,1,523.9,148.8Z" style="fill:#fff"/><path d="M536.8,155.6c0,3.1-2.7,4.9-6.2,4.1s-6.2-3.9-6.2-7,2.7-4.9,6.2-4S536.8,152.4,536.8,155.6Zm-9.8-2.3a4.7,4.7,0,0,0,3.6,4.3,2.6,2.6,0,0,0,3.5-2.6,4.6,4.6,0,0,0-3.5-4.2C528.7,150.3,527.1,151.4,527.1,153.3Z" style="fill:#fff"/><path d="M548.7,163.9v-7.3l-3.1,5.5-1.7-.4-3.1-7V162l-2.4-.6V150.5l2.9.7,3.4,7.5,3.4-5.9,2.9.7v10.9Z" style="fill:#fff"/><path d="M556.3,156.8v2.4l5.6,1.3v2l-5.6-1.3v2.4l6.4,1.5v2l-9-2.1V154.1l8.8,2.1v2Z" style="fill:#fff"/><path d="M431.2,206.7l-1,1.1a4,4,0,0,0-2.2-1.3,1.8,1.8,0,0,0-2.3,2.1,3.3,3.3,0,0,0,2.7,2.8,2.6,2.6,0,0,0,2-.6l1.2,1.3a3.9,3.9,0,0,1-3.2.9,5.5,5.5,0,0,1-4.7-4.7c-.2-2.3,1.5-3.7,4-3.3A6.2,6.2,0,0,1,431.2,206.7Z" style="fill:#fff"/><path d="M440.6,210.8c.2,2.3-1.5,3.7-4,3.4a5.6,5.6,0,0,1-4.8-4.7c-.2-2.3,1.5-3.7,4-3.4A5.6,5.6,0,0,1,440.6,210.8Zm-6.9-1a3.4,3.4,0,0,0,2.8,2.8,1.9,1.9,0,0,0,2.3-2.1,3.3,3.3,0,0,0-2.7-2.8A1.9,1.9,0,0,0,433.7,209.8Z" style="fill:#fff"/><path d="M445.7,213.2h-.2l-1.7-.3.2,2.3-1.9-.3-.8-7.9,3.6.5c2.1.3,3.5,1.5,3.6,3.2a2,2,0,0,1-1.3,2.3l2,2.9-2.1-.3Zm-.3-1.5c1,.2,1.6-.2,1.5-1.1a1.8,1.8,0,0,0-1.7-1.6l-1.7-.3.3,2.7Z" style="fill:#fff"/><path d="M454.2,214.5H454l-1.7-.3.2,2.3-1.9-.3-.8-7.9,3.6.5c2.1.3,3.5,1.5,3.6,3.2a2,2,0,0,1-1.3,2.3l2,2.9-2.1-.3Zm-.3-1.5c1,.2,1.6-.2,1.5-1.1a1.8,1.8,0,0,0-1.7-1.6l-1.7-.3.3,2.7Z" style="fill:#fff"/><path d="M460.4,211.3l.2,1.7,4,.6v1.5l-4-.6.2,1.8,4.5.7v1.5l-6.4-.9-.8-7.9,6.3.9V212Z" style="fill:#fff"/><path d="M473.4,213l-1,1.1a4,4,0,0,0-2.2-1.3,1.8,1.8,0,0,0-2.3,2.1,3.3,3.3,0,0,0,2.7,2.8,2.6,2.6,0,0,0,2-.6l1.2,1.3a3.9,3.9,0,0,1-3.2.9,5.5,5.5,0,0,1-4.7-4.7c-.2-2.3,1.5-3.7,4-3.3A6.2,6.2,0,0,1,473.4,213Z" style="fill:#fff"/><path d="M478.1,214l.6,6.4-1.9-.3-.6-6.4-2.5-.4v-1.5l6.9,1v1.5Z" style="fill:#fff"/><path d="M431.5,279.2l-.5,5.2A13.5,13.5,0,0,1,425,287c-4.3.6-7.2-1.9-6.8-5.9s4-7.4,8.4-8a7.5,7.5,0,0,1,5.5,1.2l-2,2.5a4.9,4.9,0,0,0-3.7-1,5.8,5.8,0,0,0-4.9,4.9c-.2,2.4,1.5,4,4,3.6a8.1,8.1,0,0,0,2.8-1.1l.4-3.6Z" style="fill:#fff"/><path d="M448.4,276.8c-.4,3.9-4,7.4-8.3,8s-7.3-1.9-6.9-5.9,4-7.4,8.3-8S448.8,272.8,448.4,276.8Zm-11.9,1.7a3.2,3.2,0,0,0,3.9,3.6,5.7,5.7,0,0,0,4.7-4.9,3.2,3.2,0,0,0-3.9-3.6A5.8,5.8,0,0,0,436.5,278.5Z" style="fill:#fff"/><path d="M464.3,274.5c-.4,3.9-4,7.4-8.3,8s-7.3-1.9-6.9-5.9,4-7.4,8.3-8S464.7,270.6,464.3,274.5Zm-11.9,1.7a3.2,3.2,0,0,0,3.9,3.6A5.7,5.7,0,0,0,461,275a3.2,3.2,0,0,0-3.9-3.6A5.8,5.8,0,0,0,452.4,276.2Z" style="fill:#fff"/><path d="M473.1,266.5c4.4-.6,7.1,1.7,6.7,5.7s-3.8,7.3-8.2,7.9l-5.9.8,1.4-13.6ZM469.2,278l2.9-.4a5.4,5.4,0,0,0,4.5-4.8c.3-2.5-1.4-4-3.8-3.6l-2.7.4Z" style="fill:#fff"/><path d="M489.1,275l-1.4,2.8-3.3.5,7.5-14.5,3.3-.5,4.7,12.8-3.4.5-.8-2.5Zm4.1-8.2-2.8,5.6,4.5-.6Z" style="fill:#fff"/><path d="M511.3,274.5l-6-7.8-.9,8.7-3,.4,1.4-13.6,2.9-.4,6,7.8.9-8.8,3-.4L514.2,274Z" style="fill:#fff"/><path d="M529.1,259.8l-1.5,2.7a8.5,8.5,0,0,0-4.3-.8c-1.1.2-1.8.6-1.9,1.4-.3,2.5,7.4,0,6.9,4.9-.3,2.7-2.8,4.5-5.9,4.9a8.4,8.4,0,0,1-6-1.3l1.5-2.7a6.8,6.8,0,0,0,4.8,1.3c1.3-.2,2.1-.8,2.2-1.6.3-2.6-7.4,0-6.9-4.8.2-2.5,2.6-4.3,5.9-4.8A8.9,8.9,0,0,1,529.1,259.8Z" style="fill:#fff"/><path d="M542.3,270l-1.9-9.3-3.9,10.1-3.3.5-3.3-13,3.4-.5,1.9,9.9,4-10.7,3.1-.4,2,9.8,4-10.7,3.3-.5-6,14.3Z" style="fill:#fff"/><path d="M556,257.1l-.3,3,6.8-1-.3,2.5-6.8,1-.3,3,7.8-1.1-.3,2.5-11,1.6L553,255l10.8-1.5-.3,2.5Z" style="fill:#fff"/><path d="M572,261.9h-.3l-2.9.4-.4,3.9-3.2.5,1.4-13.6,6.1-.9c3.7-.5,5.6.9,5.3,3.9a6,6,0,0,1-3.1,4.8l2.6,4.1-3.6.5Zm0-2.5c1.8-.3,2.8-1.2,3-2.7s-.8-2.1-2.5-1.9l-2.9.4-.5,4.6Z" style="fill:#fff"/><path d="M300.2,240.9v-3.6H296v3.6h-2.1v-9.2H296v3.8h4.2v-3.8h2.1v9.2Z" style="fill:#fff"/><path d="M306.1,239.1l-.7,1.8h-2.1l4-9.2h2.1l3.9,9.2h-2.2l-.7-1.8Zm2.1-5.3-1.5,3.6h2.9Z" style="fill:#fff"/><path d="M321.1,232.6l-.8,1.7a6.4,6.4,0,0,0-2.9-.9c-.7,0-1.2.3-1.2.8s4.9.8,4.9,4.1c0,1.8-1.6,2.8-3.6,2.8a6.5,6.5,0,0,1-4.1-1.5l.8-1.7a5.5,5.5,0,0,0,3.3,1.4c.9,0,1.4-.3,1.4-.9s-4.9-.7-4.9-4c0-1.7,1.4-2.7,3.6-2.7A6.6,6.6,0,0,1,321.1,232.6Z" style="fill:#fff"/><path d="M329.7,233.4v7.5h-2.1v-7.5h-2.8v-1.8h7.7v1.8Z" style="fill:#fff"/><path d="M342.4,236.3a5,5,0,1,1-4.9-4.7A4.7,4.7,0,0,1,342.4,236.3Zm-7.8,0a2.9,2.9,0,0,0,2.8,2.9,2.9,2.9,0,1,0-2.8-2.9Z" style="fill:#fff"/><path d="M351.2,231.7c2,0,3.3.9,3.3,2.3a2,2,0,0,1-1.6,2,2.3,2.3,0,0,1,1.9,2.3c0,1.6-1.3,2.6-3.5,2.6h-4.4v-9.2Zm-2.2,3.7h2.1c.8,0,1.3-.4,1.3-1s-.5-1-1.3-1H349Zm0,3.8h2.1c1,0,1.6-.4,1.6-1.1s-.6-1.1-1.6-1.1H349Z" style="fill:#fff"/><path d="M358.4,233.4v2h4.4v1.7h-4.4v2h5.1v1.7h-7.2v-9.2h7v1.7Z" style="fill:#fff"/><path d="M372.2,233.4v7.5h-2.1v-7.5h-2.8v-1.8h7.7v1.8Z" style="fill:#fff"/><path d="M382.4,240.9v-3.6h-4.2v3.6h-2.1v-9.2h2.1v3.8h4.2v-3.8h2.1v9.2Z" style="fill:#fff"/><path d="M386.5,240.9v-9.2h2.1v9.2Z" style="fill:#fff"/><path d="M397.5,232.6l-.8,1.7a6.4,6.4,0,0,0-2.9-.9c-.7,0-1.2.3-1.2.8s4.9.8,4.9,4.1c0,1.8-1.6,2.8-3.6,2.8a6.5,6.5,0,0,1-4.1-1.5l.8-1.7a5.5,5.5,0,0,0,3.3,1.4c.9,0,1.4-.3,1.4-.9s-4.9-.7-4.9-4c0-1.7,1.4-2.7,3.6-2.7A6.6,6.6,0,0,1,397.5,232.6Z" style="fill:#fff"/><polygon points="205.2 297 217.9 297 391.2 284.3 391.2 281.2 205.2 297"/><path d="M352,449.3s10.8-23.4,9.5-38.2c0,0,2.5,22.1.1,29.7,0,0,4.8-8.6,7.5-10.6,0,0-3.6,8.3-2.3,13.7,0,0,8.6-.8,10.8-19.4,0,0,.5,18,1.8,22,0,0,5.9-19.8,8.6-23.4,0,0-.9,14.4,0,18a20.5,20.5,0,0,0,5.5-5.4s-4.1,7.6-1,11.2c0,0,7.7-4.1,9.5-12.6,0,0,.5,9.9,3.2,14.8Z" style="fill:#d3de46"/><path d="M304,449.3s10.8-23.4,9.5-38.2c0,0,2.5,22.1.1,29.7,0,0,4.8-8.6,7.5-10.6,0,0-3.6,8.3-2.3,13.7,0,0,8.6-.8,10.8-19.4,0,0,.5,18,1.8,22,0,0,5.9-19.8,8.6-23.4,0,0-.9,14.4,0,18a20.5,20.5,0,0,0,5.5-5.4s-4.1,7.6-1,11.2c0,0,7.7-4.1,9.5-12.6,0,0,.5,9.9,3.2,14.8Z" style="fill:#d3de46"/><path d="M454.8,449.3s10.8-23.4,9.5-38.2c0,0,2.5,22.1.1,29.7,0,0,4.8-8.6,7.5-10.6,0,0-3.6,8.3-2.3,13.7,0,0,8.6-.8,10.8-19.4,0,0,.5,18,1.8,22,0,0,5.9-19.8,8.6-23.4,0,0-.9,14.4,0,18a20.5,20.5,0,0,0,5.5-5.4s-4.1,7.6-1,11.2c0,0,7.7-4.1,9.5-12.6,0,0,.5,9.9,3.2,14.8Z" style="fill:#d3de46"/><path d="M406.8,449.3s10.8-23.4,9.5-38.2c0,0,2.5,22.1.1,29.7,0,0,4.8-8.6,7.5-10.6,0,0-3.6,8.3-2.3,13.7,0,0,8.6-.8,10.8-19.4,0,0,.5,18,1.8,22,0,0,5.9-19.8,8.6-23.4,0,0-.9,14.4,0,18a20.5,20.5,0,0,0,5.5-5.4s-4.1,7.6-1,11.2c0,0,7.7-4.1,9.5-12.6,0,0,.5,9.9,3.2,14.8Z" style="fill:#d3de46"/><path d="M459.8,364.9c0-.5,4-.9,9-.9s9,.4,9,.9-4,.9-9,.9-9-.4-9-.9" style="fill:#687833"/><path d="M470.9,311.5l10,5.8a3.8,3.8,0,0,1,1.9,3.3v11.6a3.8,3.8,0,0,1-1.9,3.3l-10,5.8a3.8,3.8,0,0,1-3.8,0l-10-5.8a3.8,3.8,0,0,1-1.9-3.3V320.6a3.8,3.8,0,0,1,1.9-3.3l10-5.8a3.8,3.8,0,0,1,3.8,0" style="fill:#c4bf2f"/><path d="M470.1,310l10,5.8a3.8,3.8,0,0,1,1.9,3.3v11.6a3.8,3.8,0,0,1-1.9,3.3l-10,5.8a3.8,3.8,0,0,1-3.8,0l-10-5.8a3.8,3.8,0,0,1-1.9-3.3V319.1a3.8,3.8,0,0,1,1.9-3.3l10-5.8a3.8,3.8,0,0,1,3.8,0" style="fill:#dbdc2b"/><polygon points="468.7 322.4 468.5 327.4 463.2 320.8 468.5 327.9 467.2 365 470 365 469.1 335.4 471.5 327.4 469.1 332.8 468.7 322.4" style="fill:#9d802e"/><polygon points="398.6 142.8 389.6 143 213.7 114.7 219.2 113.7 398.6 142.8" style="fill:#e5ad23"/></g></svg>