<svg id="Layer_1" data-name="Layer 1" xmlns="http://www.w3.org/2000/svg" xmlns:xlink="http://www.w3.org/1999/xlink" viewBox="0 0 800 450"><defs><clipPath id="clip-path"><rect x="847.6" y="-678.1" width="800" height="449.49" style="fill:none"/></clipPath><clipPath id="clip-path-2"><rect width="800" height="450" style="fill:none"/></clipPath><clipPath id="clip-path-3"><rect x="847.6" width="800" height="450" style="fill:none"/></clipPath></defs><title>decisions</title><g style="clip-path:url(#clip-path-2)"><path d="M-98.5,520.4H817.9l-9.5-182.9s-317.8-25.8-468.7-25.8S-18,334.9-99,339.9" style="fill:#a3c23b"/><path d="M25.9,409.4s6-15.5,4.5-24.9c0,0,2.5,14.1,1.3,19.1,0,0,2.8-5.7,4.4-7.1,0,0-2,5.5-.9,8.9,0,0,5.5-.9,6.2-12.9,0,0,1,11.5,2,14.1,0,0,3-12.9,4.6-15.4,0,0,0,9.3.7,11.6a13.2,13.2,0,0,0,3.3-3.7s-2.4,5-.2,7.2a13,13,0,0,0,5.6-8.5s.7,6.3,2.6,9.4Z" style="fill:#d3de46"/><path d="M-4.9,411.3s6-15.5,4.5-24.9c0,0,2.5,14.1,1.3,19.1,0,0,2.8-5.7,4.4-7.1,0,0-2,5.5-.9,8.9,0,0,5.5-.9,6.2-12.9,0,0,1,11.5,2,14.1,0,0,3-12.9,4.6-15.4,0,0,0,9.3.7,11.6a13.2,13.2,0,0,0,3.3-3.7s-2.4,5-.2,7.2a13,13,0,0,0,5.6-8.5s.7,6.3,2.6,9.4Z" style="fill:#d3de46"/><path d="M91.9,405.3s6-15.5,4.5-24.9c0,0,2.5,14.1,1.3,19.1,0,0,2.8-5.7,4.4-7.1,0,0-2,5.5-.9,8.9,0,0,5.5-.9,6.2-12.9,0,0,1,11.5,2,14.1,0,0,3-12.9,4.6-15.4,0,0,0,9.3.7,11.6A13.2,13.2,0,0,0,118,395s-2.4,5-.2,7.2a13,13,0,0,0,5.6-8.5s.7,6.3,2.6,9.4Z" style="fill:#d3de46"/><path d="M61.1,407.2s6-15.5,4.5-24.9c0,0,2.5,14.1,1.3,19.1,0,0,2.8-5.7,4.4-7.1,0,0-2,5.5-.9,8.9,0,0,5.5-.9,6.2-12.9,0,0,1,11.5,2,14.1,0,0,3-12.9,4.6-15.4,0,0,0,9.3.7,11.6a13.2,13.2,0,0,0,3.3-3.7s-2.4,5-.2,7.2a13,13,0,0,0,5.6-8.5s.7,6.3,2.6,9.4Z" style="fill:#d3de46"/><path d="M73.5,153l31.4,18.1a12,12,0,0,1,6,10.4v36.2a12,12,0,0,1-6,10.4L73.5,246.2a12,12,0,0,1-12,0L30.1,228.1a12,12,0,0,1-6-10.4V181.5a12,12,0,0,1,6-10.4L61.5,153a12,12,0,0,1,12,0" style="fill:#6e8c3b"/><path d="M70.9,148.3l31.4,18.1a12,12,0,0,1,6,10.4V213a12,12,0,0,1-6,10.4L70.9,241.5a12,12,0,0,1-12,0L27.5,223.4a12,12,0,0,1-6-10.4V176.8a12,12,0,0,1,6-10.4l31.4-18.1a12,12,0,0,1,12,0" style="fill:#a3c23a"/><polygon points="66.5 186.9 66 202.6 49.6 182.2 66 204.3 62 336.3 70.5 336.3 68 227.7 75.4 202.6 67.7 219.5 66.5 186.9" style="fill:#9d802e"/><path d="M711.3,103.1l46.9,27a17.9,17.9,0,0,1,9,15.5v54.1a17.9,17.9,0,0,1-9,15.5l-46.9,27a17.9,17.9,0,0,1-17.9,0l-46.9-27a17.9,17.9,0,0,1-9-15.5V145.7a17.9,17.9,0,0,1,9-15.5l46.9-27A17.9,17.9,0,0,1,711.3,103.1Z" style="fill:#6e8c3b"/><path d="M707.4,96l46.9,27a17.9,17.9,0,0,1,9,15.5v54.1a17.9,17.9,0,0,1-9,15.5l-46.9,27a17.9,17.9,0,0,1-17.9,0l-46.9-27a17.9,17.9,0,0,1-9-15.5V138.6a17.9,17.9,0,0,1,9-15.5l46.9-27A17.9,17.9,0,0,1,707.4,96Z" style="fill:#a3c23a"/><polygon points="700.9 153.7 700.1 177.1 675.5 146.6 700 179.7 694.1 372.7 706.8 372.7 703 214.7 714.1 177.1 702.7 202.4 700.9 153.7" style="fill:#967e2e"/><path d="M655.6,142.8,692.4,164a14.1,14.1,0,0,1,7,12.2v42.4a14.1,14.1,0,0,1-7,12.2l-36.8,21.2a14.1,14.1,0,0,1-14.1,0l-36.8-21.2a14.1,14.1,0,0,1-7-12.2V176.2a14.1,14.1,0,0,1,7-12.2l36.8-21.2A14.1,14.1,0,0,1,655.6,142.8Z" style="fill:#bbbe3a"/><path d="M651.4,137.9l36.8,21.2a14.1,14.1,0,0,1,7,12.2v42.4a14.1,14.1,0,0,1-7,12.2l-36.8,21.2a14.1,14.1,0,0,1-14.1,0l-36.8-21.2a14.1,14.1,0,0,1-7-12.2V171.3a14.1,14.1,0,0,1,7-12.2l36.8-21.2A14.1,14.1,0,0,1,651.4,137.9Z" style="fill:#d3de46"/><polygon points="642.2 193.5 641.6 211.5 622.6 188 641.5 213.6 637 347.2 646.8 347.2 643.9 240.6 652.5 211.5 643.6 231.1 642.2 193.5" style="fill:#967e2e"/><path d="M-19.3,573H897L879.6,423.7s-309.8-35.4-460.7-35.4S38.6,409.9-42.4,414.9" style="fill:#8ea43b"/><path d="M631.5,348.6s7-15,6.1-24.6c0,0,1.6,14.2.1,19.1,0,0,3.1-5.5,4.8-6.8,0,0-2.3,5.4-1.4,8.8,0,0,5.6-.5,7-12.5,0,0,.3,11.6,1.2,14.2,0,0,3.8-12.7,5.5-15,0,0-.6,9.3,0,11.6a13.2,13.2,0,0,0,3.5-3.4s-2.7,4.9-.6,7.2a13,13,0,0,0,6.1-8.1s.3,6.3,2,9.5Z" style="fill:#d3de46"/><path d="M681.3,374.1s7-15,6.1-24.6c0,0,1.6,14.2.1,19.1,0,0,3.1-5.5,4.8-6.8,0,0-2.3,5.4-1.4,8.8,0,0,5.6-.5,7-12.5,0,0,.3,11.6,1.2,14.2,0,0,3.8-12.7,5.5-15,0,0-.6,9.3,0,11.6a13.2,13.2,0,0,0,3.5-3.4s-2.7,4.9-.6,7.2a13,13,0,0,0,6.1-8.1s.3,6.3,2,9.5Z" style="fill:#d3de46"/><path d="M403.1,355.3H362.7s-2.9-11.9,11.5-11.9h13.1s-7.8-62.2,5.3-99.6l2.1-5,8.5-1.6Z" style="fill:#e6c13c"/><line x1="216.9" y1="272.8" x2="263.4" y2="142.1" style="fill:none;stroke:#c4a531;stroke-linecap:round;stroke-linejoin:round;stroke-width:2.947594970480168px"/><path d="M403.1,227.3V148.9l-8.6,8.3s-8.6,46.3,0,66.5Z" style="fill:#e6c13c"/><path d="M384.3,120.8s-21.4-8.9-41.6-7.6-39.1,14-51.4,17.6-22.6,8.2-26.3,6.6-10.7-2.1-10.7,2.1,2.1,5.3,7,6.2,34.1-2.1,45.1-4.5,26.5-7,36.2-5.7,45.9,18.4,45.9,18.4Z" style="fill:#dec245"/><path d="M403.1,355.3h40.5s2.9-11.9-11.5-11.9H419s7.8-62.2-5.3-99.6l-2.1-5-8.5-1.6Z" style="fill:#dec245"/><line x1="589.3" y1="273.8" x2="542.8" y2="143.1" style="fill:none;stroke:#c4a531;stroke-linecap:round;stroke-linejoin:round;stroke-width:2.947594970480168px"/><path d="M422,121.8s21.4-8.9,41.6-7.6,39.1,14,51.4,17.6,22.6,8.2,26.3,6.6,10.7-2.1,10.7,2.1-2.1,5.3-7,6.2-34.1-2.1-45.1-4.5-26.5-7-36.2-5.7-45.9,18.4-45.9,18.4Z" style="fill:#dec245"/><path d="M491.5,273.8s41.4-119.7,43.9-127.4,5.8-8.1,5.8-8.1l-.5,135.4" style="fill:none;stroke:#c4a531;stroke-linecap:round;stroke-linejoin:round;stroke-width:2.947594970480168px"/><path d="M403.1,227.3V148.9l8.6,8.3s8.6,46.3,0,66.5Z" style="fill:#dec245"/><path d="M403.1,92.3v67.3S454.6,153.8,403.1,92.3Z" style="fill:#c4a531"/><ellipse cx="403.1" cy="233.1" rx="18.9" ry="10.7" style="fill:#cca234"/><path d="M403.1,92.3v67.3S351.7,153.8,403.1,92.3Z" style="fill:#c4a531"/><path d="M314.8,272.8s-41.4-119.7-43.9-127.4-5.8-8.1-5.8-8.1V272.8" style="fill:none;stroke:#c4a531;stroke-linecap:round;stroke-linejoin:round;stroke-width:2.947594970480168px"/><circle cx="403.5" cy="133.6" r="11.3" style="fill:#dec245"/><path d="M581.3,288.8a43.1,43.1,0,0,0,11.3-14.9H489.9a33.4,33.4,0,0,0,9.6,15.2c11.3-2.8,25.7-4.5,41.5-4.5A180.9,180.9,0,0,1,581.3,288.8Z" style="fill:#dec245"/><path d="M581.3,288.8a180.9,180.9,0,0,0-40.3-4.2c-15.7,0-30.2,1.7-41.5,4.5,6.6,6.2,17.4,11.9,35.1,11.9C558.7,300.9,572.6,296,581.3,288.8Z" style="fill:#cca234"/><path d="M305.6,289.1c8.7-7.5,10.7-16.2,10.7-16.2H213.7A43.8,43.8,0,0,0,224,287a188,188,0,0,1,36.4-3.3C277.9,283.7,293.8,285.7,305.6,289.1Z" style="fill:#dec245"/><path d="M305.6,289.1c-11.7-3.4-27.6-5.4-45.1-5.4A188,188,0,0,0,224,287c8.6,7.6,22.6,12.9,47.5,12.9C288.3,299.9,298.9,294.8,305.6,289.1Z" style="fill:#cca234"/><circle cx="403.5" cy="133.6" r="9.2" style="fill:#c4a531"/><circle cx="403.5" cy="133.6" r="7.7" style="fill:#dec245"/><path d="M349.6,355.3H455.3a6.9,6.9,0,0,1,6.9,6.9v5.6a0,0,0,0,1,0,0H342.7a0,0,0,0,1,0,0v-5.6a6.9,6.9,0,0,1,6.9-6.9Z" style="fill:#654023"/><path d="M332.1,367.8H472.8a7.9,7.9,0,0,1,7.9,7.9v4.6a0,0,0,0,1,0,0H324.1a0,0,0,0,1,0,0v-4.6A7.9,7.9,0,0,1,332.1,367.8Z" style="fill:#462d11"/><path d="M285.1,385s7-15,6.1-24.6c0,0,1.6,14.2.1,19.1,0,0,3.1-5.5,4.8-6.8,0,0-2.3,5.4-1.4,8.8,0,0,5.6-.5,7-12.5,0,0,.3,11.6,1.2,14.2,0,0,3.8-12.7,5.5-15,0,0-.6,9.3,0,11.6a13.2,13.2,0,0,0,3.5-3.4s-2.7,4.9-.6,7.2a13,13,0,0,0,6.1-8.1s.3,6.3,2,9.5Z" style="fill:#d3de46"/><path d="M254.2,385s7-15,6.1-24.6c0,0,1.6,14.2.1,19.1,0,0,3.1-5.5,4.8-6.8,0,0-2.3,5.4-1.4,8.8,0,0,5.6-.5,7-12.5,0,0,.3,11.6,1.2,14.2,0,0,3.8-12.7,5.5-15,0,0-.6,9.3,0,11.6a13.2,13.2,0,0,0,3.5-3.4s-2.7,4.9-.6,7.2a13,13,0,0,0,6.1-8.1s.3,6.3,2,9.5Z" style="fill:#d3de46"/><path d="M351.2,385s7-15,6.1-24.6c0,0,1.6,14.2.1,19.1,0,0,3.1-5.5,4.8-6.8,0,0-2.3,5.4-1.4,8.8,0,0,5.6-.5,7-12.5,0,0,.3,11.6,1.2,14.2,0,0,3.8-12.7,5.5-15,0,0-.6,9.3,0,11.6a13.2,13.2,0,0,0,3.5-3.4s-2.7,4.9-.6,7.2a13,13,0,0,0,6.1-8.1s.3,6.3,2,9.5Z" style="fill:#d3de46"/><path d="M320.3,385s7-15,6.1-24.6c0,0,1.6,14.2.1,19.1,0,0,3.1-5.5,4.8-6.8,0,0-2.3,5.4-1.4,8.8,0,0,5.6-.5,7-12.5,0,0,.3,11.6,1.2,14.2,0,0,3.8-12.7,5.5-15,0,0-.6,9.3,0,11.6a13.2,13.2,0,0,0,3.5-3.4s-2.7,4.9-.6,7.2a13,13,0,0,0,6.1-8.1s.3,6.3,2,9.5Z" style="fill:#d3de46"/><path d="M472.9,382.3s7-15,6.1-24.6c0,0,1.6,14.2.1,19.1,0,0,3.1-5.5,4.8-6.8,0,0-2.3,5.4-1.4,8.8,0,0,5.6-.5,7-12.5,0,0,.3,11.6,1.2,14.2,0,0,3.8-12.7,5.5-15,0,0-.6,9.3,0,11.6a13.2,13.2,0,0,0,3.5-3.4s-2.7,4.9-.6,7.2a13,13,0,0,0,6.1-8.1s.3,6.3,2,9.5Z" style="fill:#d3de46"/><path d="M354.6,269.8l8.7,5a3.3,3.3,0,0,1,1.7,2.9v10a3.3,3.3,0,0,1-1.7,2.9l-8.7,5a3.3,3.3,0,0,1-3.3,0l-8.7-5a3.3,3.3,0,0,1-1.7-2.9v-10a3.3,3.3,0,0,1,1.7-2.9l8.7-5A3.3,3.3,0,0,1,354.6,269.8Z" style="fill:#6e8c3b"/><path d="M353.9,268.5l8.7,5a3.3,3.3,0,0,1,1.7,2.9v10a3.3,3.3,0,0,1-1.7,2.9l-8.7,5a3.3,3.3,0,0,1-3.3,0l-8.7-5a3.3,3.3,0,0,1-1.7-2.9v-10a3.3,3.3,0,0,1,1.7-2.9l8.7-5A3.3,3.3,0,0,1,353.9,268.5Z" style="fill:#a3c23a"/><polygon points="352.7 279.2 352.6 283.5 348 277.9 352.6 284 351.5 319.8 353.8 319.8 353.1 290.5 355.2 283.5 353 288.2 352.7 279.2" style="fill:#967e2e"/><path d="M344.3,277.2l6.8,3.9a2.6,2.6,0,0,1,1.3,2.3v7.9a2.6,2.6,0,0,1-1.3,2.3l-6.8,3.9a2.6,2.6,0,0,1-2.6,0l-6.8-3.9a2.6,2.6,0,0,1-1.3-2.3v-7.9a2.6,2.6,0,0,1,1.3-2.3l6.8-3.9A2.6,2.6,0,0,1,344.3,277.2Z" style="fill:#bbbe3a"/><path d="M343.5,276.3l6.8,3.9a2.6,2.6,0,0,1,1.3,2.3v7.9a2.6,2.6,0,0,1-1.3,2.3l-6.8,3.9a2.6,2.6,0,0,1-2.6,0l-6.8-3.9a2.6,2.6,0,0,1-1.3-2.3v-7.9a2.6,2.6,0,0,1,1.3-2.3l6.8-3.9A2.6,2.6,0,0,1,343.5,276.3Z" style="fill:#d3de46"/><polygon points="341.8 286.6 341.7 289.9 338.2 285.6 341.7 290.3 340.9 315.1 342.7 315.1 342.2 295.3 343.7 289.9 342.1 293.5 341.8 286.6" style="fill:#967e2e"/></g><path d="M153.7,232.6l21.8,12.6a8.4,8.4,0,0,1,4.2,7.2v25.2a8.4,8.4,0,0,1-4.2,7.2l-21.8,12.6a8.4,8.4,0,0,1-8.4,0l-21.8-12.6a8.4,8.4,0,0,1-4.2-7.2V252.4a8.4,8.4,0,0,1,4.2-7.2l21.8-12.6A8.4,8.4,0,0,1,153.7,232.6Z" style="fill:#6e8c3b"/><path d="M151.9,229.3l21.8,12.6a8.4,8.4,0,0,1,4.2,7.2v25.2a8.4,8.4,0,0,1-4.2,7.2l-21.8,12.6a8.4,8.4,0,0,1-8.4,0l-21.8-12.6a8.4,8.4,0,0,1-4.2-7.2V249.1a8.4,8.4,0,0,1,4.2-7.2l21.8-12.6A8.4,8.4,0,0,1,151.9,229.3Z" style="fill:#a3c23a"/><polygon points="148.9 256.1 148.5 267 137.1 252.8 148.5 268.3 145.7 358.1 151.6 358.1 149.9 284.5 155.1 267 149.7 278.8 148.9 256.1" style="fill:#967e2e"/><path d="M127.8,251.1l17.1,9.9a6.6,6.6,0,0,1,3.3,5.7v19.8a6.6,6.6,0,0,1-3.3,5.7L127.8,302a6.6,6.6,0,0,1-6.6,0l-17.1-9.9a6.6,6.6,0,0,1-3.3-5.7V266.6a6.6,6.6,0,0,1,3.3-5.7l17.1-9.9A6.6,6.6,0,0,1,127.8,251.1Z" style="fill:#bbbe3a"/><path d="M125.8,248.8l17.1,9.9a6.6,6.6,0,0,1,3.3,5.7v19.8a6.6,6.6,0,0,1-3.3,5.7l-17.1,9.9a6.6,6.6,0,0,1-6.6,0l-17.1-9.9a6.6,6.6,0,0,1-3.3-5.7V264.3a6.6,6.6,0,0,1,3.3-5.7l17.1-9.9A6.6,6.6,0,0,1,125.8,248.8Z" style="fill:#d3de46"/><polygon points="121.6 274.7 121.3 283.1 112.4 272.1 121.3 284 119.1 346.3 123.7 346.3 122.3 296.6 126.3 283.1 122.2 292.2 121.6 274.7" style="fill:#967e2e"/><path d="M129.1,339.4l6.3,3.6a2.4,2.4,0,0,1,1.2,2.1v7.3a2.4,2.4,0,0,1-1.2,2.1l-6.3,3.6a2.4,2.4,0,0,1-2.4,0l-6.3-3.6a2.4,2.4,0,0,1-1.2-2.1v-7.3a2.4,2.4,0,0,1,1.2-2.1l6.3-3.6A2.4,2.4,0,0,1,129.1,339.4Z" style="fill:#bbbe3a"/><path d="M129.1,335.7l7.1,4.1a2.7,2.7,0,0,1,1.4,2.4v8.2a2.7,2.7,0,0,1-1.4,2.4l-7.1,4.1a2.7,2.7,0,0,1-2.7,0l-7.1-4.1a2.7,2.7,0,0,1-1.4-2.4v-8.2a2.7,2.7,0,0,1,1.4-2.4l7.1-4.1A2.7,2.7,0,0,1,129.1,335.7Z" style="fill:#d3de46"/><path d="M115.6,346.2l6.3,3.6a2.4,2.4,0,0,1,1.2,2.1v7.3a2.4,2.4,0,0,1-1.2,2.1l-6.3,3.6a2.4,2.4,0,0,1-2.4,0l-6.3-3.6a2.4,2.4,0,0,1-1.2-2.1v-7.3a2.4,2.4,0,0,1,1.2-2.1l6.3-3.6A2.4,2.4,0,0,1,115.6,346.2Z" style="fill:#bbbe3a"/><path d="M115.6,342.4l7.1,4.1a2.7,2.7,0,0,1,1.4,2.4v8.2a2.7,2.7,0,0,1-1.4,2.4l-7.1,4.1a2.7,2.7,0,0,1-2.7,0l-7.1-4.1a2.7,2.7,0,0,1-1.4-2.4v-8.2a2.7,2.7,0,0,1,1.4-2.4l7.1-4.1A2.7,2.7,0,0,1,115.6,342.4Z" style="fill:#d3de46"/><rect x="116.9" y="360" width="10.1" height="6.41" style="fill:#6e8c3b"/><path d="M113.3,341.3l1.5,2.6a1,1,0,0,1,0,1l-1.5,2.6a1,1,0,0,1-.9.5h-3a1,1,0,0,1-.9-.5l-1.5-2.6a1,1,0,0,1,0-1l1.5-2.6a1,1,0,0,1,.9-.5h3A1,1,0,0,1,113.3,341.3Z" style="fill:#6e8c3b"/><path d="M113.3,340.8l1.5,2.6a1,1,0,0,1,0,1l-1.5,2.6a1,1,0,0,1-.9.5h-3a1,1,0,0,1-.9-.5l-1.5-2.6a1,1,0,0,1,0-1l1.5-2.6a1,1,0,0,1,.9-.5h3A1,1,0,0,1,113.3,340.8Z" style="fill:#8ea43b"/><path d="M124.5,338.3l9.2,5.3a3.5,3.5,0,0,1,1.8,3.1v10.7a3.5,3.5,0,0,1-1.8,3.1l-9.2,5.3a3.5,3.5,0,0,1-3.5,0l-9.2-5.3a3.5,3.5,0,0,1-1.8-3.1V346.7a3.5,3.5,0,0,1,1.8-3.1l9.2-5.3A3.5,3.5,0,0,1,124.5,338.3Z" style="fill:#6e8c3b"/><path d="M123.7,336.9l9.2,5.3a3.5,3.5,0,0,1,1.8,3.1V356A3.5,3.5,0,0,1,133,359l-9.2,5.3a3.5,3.5,0,0,1-3.5,0l-9.2-5.3a3.5,3.5,0,0,1-1.8-3.1V345.3a3.5,3.5,0,0,1,1.8-3.1l9.2-5.3A3.5,3.5,0,0,1,123.7,336.9Z" style="fill:#a3c23a"/><path d="M136.6,348.3l3.7,6.6a2.5,2.5,0,0,1,0,2.5l-3.8,6.5a2.5,2.5,0,0,1-2.2,1.2h-7.5a2.5,2.5,0,0,1-2.2-1.3l-3.7-6.6a2.5,2.5,0,0,1,0-2.5l3.8-6.5a2.5,2.5,0,0,1,2.2-1.2h7.5A2.5,2.5,0,0,1,136.6,348.3Z" style="fill:#6e8c3b"/><path d="M136.6,347.2l3.7,6.6a2.5,2.5,0,0,1,0,2.5l-3.8,6.5a2.5,2.5,0,0,1-2.2,1.2h-7.5a2.5,2.5,0,0,1-2.2-1.3l-3.7-6.6a2.5,2.5,0,0,1,0-2.5l3.8-6.5a2.5,2.5,0,0,1,2.2-1.2h7.5A2.5,2.5,0,0,1,136.6,347.2Z" style="fill:#8ea43b"/><path d="M467.5,304.2l7.1,4.1a2.7,2.7,0,0,1,1.4,2.4v8.2a2.7,2.7,0,0,1-1.4,2.4l-7.1,4.1a2.7,2.7,0,0,1-2.7,0l-7.1-4.1a2.7,2.7,0,0,1-1.4-2.4v-8.2a2.7,2.7,0,0,1,1.4-2.4l7.1-4.1A2.7,2.7,0,0,1,467.5,304.2Z" style="fill:#bbbe3a"/><path d="M467.5,299.9l8,4.6a3.1,3.1,0,0,1,1.5,2.7v9.3a3.1,3.1,0,0,1-1.5,2.7l-8,4.6a3.1,3.1,0,0,1-3.1,0l-8-4.6a3.1,3.1,0,0,1-1.5-2.7v-9.3a3.1,3.1,0,0,1,1.5-2.7l8-4.6A3.1,3.1,0,0,1,467.5,299.9Z" style="fill:#d3de46"/><path d="M452.2,311.8l7.1,4.1a2.7,2.7,0,0,1,1.4,2.4v8.2a2.7,2.7,0,0,1-1.4,2.4l-7.1,4.1a2.7,2.7,0,0,1-2.7,0l-7.1-4.1a2.7,2.7,0,0,1-1.4-2.4v-8.2a2.7,2.7,0,0,1,1.4-2.4l7.1-4.1A2.7,2.7,0,0,1,452.2,311.8Z" style="fill:#bbbe3a"/><path d="M452.2,307.6l8,4.6a3.1,3.1,0,0,1,1.5,2.7v9.3a3.1,3.1,0,0,1-1.5,2.7l-8,4.6a3.1,3.1,0,0,1-3.1,0l-8-4.6a3.1,3.1,0,0,1-1.5-2.7v-9.3a3.1,3.1,0,0,1,1.5-2.7l8-4.6A3.1,3.1,0,0,1,452.2,307.6Z" style="fill:#d3de46"/><rect x="453.7" y="327.4" width="11.4" height="7.24" style="fill:#6e8c3b"/><path d="M449.6,306.3l1.7,3a1.1,1.1,0,0,1,0,1.1l-1.7,2.9a1.1,1.1,0,0,1-1,.6h-3.4a1.1,1.1,0,0,1-1-.6l-1.7-3a1.1,1.1,0,0,1,0-1.1l1.7-2.9a1.1,1.1,0,0,1,1-.6h3.4A1.1,1.1,0,0,1,449.6,306.3Z" style="fill:#6e8c3b"/><path d="M449.6,305.8l1.7,3a1.1,1.1,0,0,1,0,1.1l-1.7,2.9a1.1,1.1,0,0,1-1,.6h-3.4a1.1,1.1,0,0,1-1-.6l-1.7-3a1.1,1.1,0,0,1,0-1.1l1.7-2.9a1.1,1.1,0,0,1,1-.6h3.4A1.1,1.1,0,0,1,449.6,305.8Z" style="fill:#8ea43b"/><path d="M462.2,302.9l10.4,6a4,4,0,0,1,2,3.5v12.1a4,4,0,0,1-2,3.5l-10.4,6a4,4,0,0,1-4,0l-10.4-6a4,4,0,0,1-2-3.5V312.4a4,4,0,0,1,2-3.5l10.4-6A4,4,0,0,1,462.2,302.9Z" style="fill:#6e8c3b"/><path d="M461.3,301.3l10.4,6a4,4,0,0,1,2,3.5v12.1a4,4,0,0,1-2,3.5l-10.4,6a4,4,0,0,1-4,0l-10.4-6a4,4,0,0,1-2-3.5V310.8a4,4,0,0,1,2-3.5l10.4-6A4,4,0,0,1,461.3,301.3Z" style="fill:#a3c23a"/><path d="M475.9,314.2l4.2,7.4a2.8,2.8,0,0,1,0,2.8l-4.3,7.3a2.8,2.8,0,0,1-2.5,1.4h-8.5a2.8,2.8,0,0,1-2.4-1.4l-4.2-7.4a2.8,2.8,0,0,1,0-2.8l4.3-7.3a2.8,2.8,0,0,1,2.5-1.4h8.5A2.8,2.8,0,0,1,475.9,314.2Z" style="fill:#6e8c3b"/><path d="M475.9,312.9l4.2,7.4a2.8,2.8,0,0,1,0,2.8l-4.3,7.3a2.8,2.8,0,0,1-2.5,1.4h-8.5a2.8,2.8,0,0,1-2.4-1.4l-4.2-7.4a2.8,2.8,0,0,1,0-2.8l4.3-7.3a2.8,2.8,0,0,1,2.5-1.4h8.5A2.8,2.8,0,0,1,475.9,312.9Z" style="fill:#8ea43b"/><path d="M139.3,433.8s7-15,6.1-24.6c0,0,1.6,14.2.1,19.1,0,0,3.1-5.5,4.8-6.8,0,0-2.3,5.4-1.4,8.8,0,0,5.6-.5,7-12.5,0,0,.3,11.6,1.2,14.2,0,0,3.8-12.7,5.5-15,0,0-.6,9.3,0,11.6a13.2,13.2,0,0,0,3.5-3.4s-2.7,4.9-.6,7.2a13,13,0,0,0,6.1-8.1s.3,6.3,2,9.5Z" style="fill:#d3de46"/><path d="M650.7,367.8l7.1,4.1a2.7,2.7,0,0,1,1.4,2.4v8.2a2.7,2.7,0,0,1-1.4,2.4l-7.1,4.1a2.7,2.7,0,0,1-2.7,0l-7.1-4.1a2.7,2.7,0,0,1-1.4-2.4v-8.2a2.7,2.7,0,0,1,1.4-2.4l7.1-4.1A2.7,2.7,0,0,1,650.7,367.8Z" style="fill:#bbbe3a"/><path d="M650.7,363.6l8,4.6a3.1,3.1,0,0,1,1.5,2.7v9.3a3.1,3.1,0,0,1-1.5,2.7l-8,4.6a3.1,3.1,0,0,1-3.1,0l-8-4.6a3.1,3.1,0,0,1-1.5-2.7v-9.3a3.1,3.1,0,0,1,1.5-2.7l8-4.6A3.1,3.1,0,0,1,650.7,363.6Z" style="fill:#d3de46"/><path d="M635.4,375.5l7.1,4.1a2.7,2.7,0,0,1,1.4,2.4v8.2a2.7,2.7,0,0,1-1.4,2.4l-7.1,4.1a2.7,2.7,0,0,1-2.7,0l-7.1-4.1a2.7,2.7,0,0,1-1.4-2.4v-8.2a2.7,2.7,0,0,1,1.4-2.4l7.1-4.1A2.7,2.7,0,0,1,635.4,375.5Z" style="fill:#bbbe3a"/><path d="M635.4,371.2l8,4.6a3.1,3.1,0,0,1,1.5,2.7v9.3a3.1,3.1,0,0,1-1.5,2.7l-8,4.6a3.1,3.1,0,0,1-3.1,0l-8-4.6a3.1,3.1,0,0,1-1.5-2.7v-9.3a3.1,3.1,0,0,1,1.5-2.7l8-4.6A3.1,3.1,0,0,1,635.4,371.2Z" style="fill:#d3de46"/><rect x="636.8" y="391.1" width="11.4" height="7.24" style="fill:#6e8c3b"/><path d="M632.8,370l1.7,3a1.1,1.1,0,0,1,0,1.1l-1.7,2.9a1.1,1.1,0,0,1-1,.6h-3.4a1.1,1.1,0,0,1-1-.6l-1.7-3a1.1,1.1,0,0,1,0-1.1l1.7-2.9a1.1,1.1,0,0,1,1-.6h3.4A1.1,1.1,0,0,1,632.8,370Z" style="fill:#6e8c3b"/><path d="M632.8,369.4l1.7,3a1.1,1.1,0,0,1,0,1.1l-1.7,2.9a1.1,1.1,0,0,1-1,.6h-3.4a1.1,1.1,0,0,1-1-.6l-1.7-3a1.1,1.1,0,0,1,0-1.1l1.7-2.9a1.1,1.1,0,0,1,1-.6h3.4A1.1,1.1,0,0,1,632.8,369.4Z" style="fill:#8ea43b"/><path d="M645.4,366.6l10.4,6a4,4,0,0,1,2,3.5v12.1a4,4,0,0,1-2,3.5l-10.4,6a4,4,0,0,1-4,0l-10.4-6a4,4,0,0,1-2-3.5V376.1a4,4,0,0,1,2-3.5l10.4-6A4,4,0,0,1,645.4,366.6Z" style="fill:#6e8c3b"/><path d="M644.5,365l10.4,6a4,4,0,0,1,2,3.5v12.1a4,4,0,0,1-2,3.5l-10.4,6a4,4,0,0,1-4,0l-10.4-6a4,4,0,0,1-2-3.5V374.5a4,4,0,0,1,2-3.5l10.4-6A4,4,0,0,1,644.5,365Z" style="fill:#a3c23a"/><path d="M659.1,377.9l4.2,7.4a2.8,2.8,0,0,1,0,2.8l-4.3,7.3a2.8,2.8,0,0,1-2.5,1.4H648a2.8,2.8,0,0,1-2.4-1.4l-4.2-7.4a2.8,2.8,0,0,1,0-2.8l4.3-7.3a2.8,2.8,0,0,1,2.5-1.4h8.5A2.8,2.8,0,0,1,659.1,377.9Z" style="fill:#6e8c3b"/><path d="M659.1,376.6l4.2,7.4a2.8,2.8,0,0,1,0,2.8l-4.3,7.3a2.8,2.8,0,0,1-2.5,1.4H648a2.8,2.8,0,0,1-2.4-1.4l-4.2-7.4a2.8,2.8,0,0,1,0-2.8l4.3-7.3a2.8,2.8,0,0,1,2.5-1.4h8.5A2.8,2.8,0,0,1,659.1,376.6Z" style="fill:#8ea43b"/><g style="clip-path:url(#clip-path-3)"><path d="M749.1,549.4h916.3L1656,366.4s-317.8-25.8-468.7-25.8-357.8,23.2-438.8,28.2" style="fill:#a3c23b"/></g></svg>