<svg id="Layer_1" data-name="Layer 1" xmlns="http://www.w3.org/2000/svg" xmlns:xlink="http://www.w3.org/1999/xlink" viewBox="0 0 800 450"><defs><clipPath id="clip-path"><rect x="-862" width="800" height="450" style="fill:none"/></clipPath><clipPath id="clip-path-2"><rect width="800" height="450" style="fill:none"/></clipPath><clipPath id="clip-path-3"><path d="M582.9,13.8A207.6,207.6,0,0,0,400.7,121.7,207.6,207.6,0,0,0,218.5,13.8c-114.7,0-207.7,93-207.7,207.7s93,207.7,207.7,207.7A207.6,207.6,0,0,0,400.7,321.3,207.6,207.6,0,0,0,582.9,429.2c114.7,0,207.7-93,207.7-207.7S697.6,13.8,582.9,13.8Z" style="fill:none"/></clipPath><clipPath id="clip-path-4"><path d="M262.4,258.1a82.7,82.7,0,0,0-20.2-2.3c-35.8,0-64.9,49.2-64.9,85a64.9,64.9,0,0,0,101.4,53.6c26.4.3,45.7-3.2,45.7-52.6C324.5,307.1,296.8,259.7,262.4,258.1Z" style="fill:none"/></clipPath></defs><title>1</title><g style="clip-path:url(#clip-path)"><path d="M-871.3,538H45L27.6,388.7s-309.8-35.4-460.7-35.4-380.3,41.6-461.3,46.6" style="fill:#8ea43b"/></g><g style="clip-path:url(#clip-path-2)"><path d="M811.1,482.3s194.1-237.5,8.4-237.5c-109.1,0-637.7-23.3-854.5,5.2l6,225.4Z" style="fill:#8ea43b"/></g><g style="clip-path:url(#clip-path-3)"><path d="M-261.5,394.2S34.1,203.6,450.7,203.6c244.8,0,722.7,128.4,1107.4,190.6Z" style="fill:#a3c23b"/><path d="M853.7,429.3S558.2,238.7,141.6,238.7c-244.8,0-722.7,128.4-1107.4,190.6Z" style="fill:#8ea43b"/><path d="M182,52.5l40.5,23.4a15.5,15.5,0,0,1,7.7,13.4v46.7a15.5,15.5,0,0,1-7.7,13.4L182,172.9a15.5,15.5,0,0,1-15.5,0l-40.5-23.4a15.5,15.5,0,0,1-7.7-13.4V89.3a15.5,15.5,0,0,1,7.7-13.4l40.5-23.4A15.5,15.5,0,0,1,182,52.5Z" style="fill:#6e8c3b"/><path d="M178.7,46.4l40.5,23.4a15.5,15.5,0,0,1,7.7,13.4v46.7a15.5,15.5,0,0,1-7.7,13.4l-40.5,23.4a15.5,15.5,0,0,1-15.5,0l-40.5-23.4a15.5,15.5,0,0,1-7.7-13.4V83.2a15.5,15.5,0,0,1,7.7-13.4l40.5-23.4A15.5,15.5,0,0,1,178.7,46.4Z" style="fill:#a3c23a"/><polygon points="173.1 96.3 172.4 116.5 151.2 90.2 172.3 118.8 167.2 268.2 178.2 268.2 174.9 149 184.5 116.5 174.6 138.4 173.1 96.3" style="fill:#967e2e"/><path d="M134,86.9l31.8,18.3a12.2,12.2,0,0,1,6.1,10.5v36.7a12.2,12.2,0,0,1-6.1,10.5L134,181.3a12.2,12.2,0,0,1-12.2,0L90,163A12.2,12.2,0,0,1,84,152.4V115.7A12.2,12.2,0,0,1,90,105.2l31.8-18.3A12.2,12.2,0,0,1,134,86.9Z" style="fill:#bbbe3a"/><path d="M130.3,82.6l31.8,18.3a12.2,12.2,0,0,1,6.1,10.5v36.7a12.2,12.2,0,0,1-6.1,10.5L130.3,177a12.2,12.2,0,0,1-12.2,0L86.4,158.7a12.2,12.2,0,0,1-6.1-10.5V111.5a12.2,12.2,0,0,1,6.1-10.5l31.8-18.3A12.2,12.2,0,0,1,130.3,82.6Z" style="fill:#d3de46"/><polygon points="122.4 130.6 121.9 146.3 105.5 125.9 121.8 148 117.9 263.5 126.3 263.5 123.8 171.3 131.3 146.3 123.6 163.1 122.4 130.6" style="fill:#967e2e"/><path d="M619.5,355.4l8.4,4.8a3.2,3.2,0,0,1,1.6,2.8v9.7a3.2,3.2,0,0,1-1.6,2.8l-8.4,4.8a3.2,3.2,0,0,1-3.2,0l-8.4-4.8a3.2,3.2,0,0,1-1.6-2.8V363a3.2,3.2,0,0,1,1.6-2.8l8.4-4.8A3.2,3.2,0,0,1,619.5,355.4Z" style="fill:#6e8c3b"/><path d="M618.8,354.1l8.4,4.8a3.2,3.2,0,0,1,1.6,2.8v9.7a3.2,3.2,0,0,1-1.6,2.8l-8.4,4.8a3.2,3.2,0,0,1-3.2,0l-8.4-4.8a3.2,3.2,0,0,1-1.6-2.8v-9.7a3.2,3.2,0,0,1,1.6-2.8l8.4-4.8A3.2,3.2,0,0,1,618.8,354.1Z" style="fill:#a3c23a"/><polygon points="617.5 364.5 617.6 368.7 622 363.2 617.7 369.1 618.7 400.1 616.4 400.1 617.1 375.4 615.1 368.7 617.2 373.2 617.5 364.5" style="fill:#967e2e"/><path d="M653,268.5c0-1,8.1-1.8,18.1-1.8s18.1.8,18.1,1.8-8.1,1.8-18.1,1.8-18.1-.8-18.1-1.8" style="fill:#687833"/><path d="M675.3,161.2l20.2,11.7a7.7,7.7,0,0,1,3.9,6.7v23.3a7.7,7.7,0,0,1-3.9,6.7l-20.2,11.7a7.7,7.7,0,0,1-7.7,0l-20.2-11.7a7.7,7.7,0,0,1-3.9-6.7V179.6a7.7,7.7,0,0,1,3.9-6.7l20.2-11.7a7.7,7.7,0,0,1,7.7,0" style="fill:#c4bf2f"/><path d="M673.7,158.2l20.2,11.7a7.7,7.7,0,0,1,3.9,6.7v23.3a7.7,7.7,0,0,1-3.9,6.7l-20.2,11.7a7.7,7.7,0,0,1-7.7,0l-20.2-11.7a7.7,7.7,0,0,1-3.9-6.7V176.5a7.7,7.7,0,0,1,3.9-6.7l20.2-11.7a7.7,7.7,0,0,1,7.7,0" style="fill:#dbdc2b"/><polygon points="670.9 183 670.5 193.1 659.9 180 670.5 194.2 667.9 268.7 673.4 268.7 671.8 209.3 676.6 193.1 671.6 204 670.9 183" style="fill:#9d802e"/><path d="M307.1,340.8a64.9,64.9,0,0,1-129.7,0c0-35.8,29-85,64.9-85C301.2,255.8,307.1,304.9,307.1,340.8Z" style="fill:#7f6828"/><path d="M324.5,341.7c0,60.2-28.6,52.3-63.9,52.3s-63.9-17-63.9-52.3S225.3,258,260.6,258,324.5,306.5,324.5,341.7Z" style="fill:#967e2e"/><path d="M208.8,421.1s10.3-22.3,9-36.5c0,0,2.4,21,.1,28.3,0,0,4.6-8.2,7.2-10.1,0,0-3.4,8-2.1,13.1,0,0,8.2-.8,10.3-18.5,0,0,.4,17.1,1.7,21,0,0,5.6-18.9,8.2-22.3,0,0-.9,13.7,0,17.2a19.6,19.6,0,0,0,5.2-5.1s-4,7.3-.9,10.7c0,0,7.3-3.9,9-12,0,0,.4,9.4,3,14.2Z" style="fill:#d3de46"/><circle cx="289.6" cy="274" r="3.9" style="fill:#7f6828"/><circle cx="229.6" cy="291.4" r="3.9" style="fill:#7f6828"/><circle cx="293.5" cy="335" r="3.9" style="fill:#7f6828"/><circle cx="204.4" cy="359.2" r="3.9" style="fill:#7f6828"/><ellipse cx="247" cy="335.9" rx="3.9" ry="5.8" style="fill:#7f6828"/><circle cx="234.4" cy="298.2" r="2.9" style="fill:#7f6828"/><circle cx="228.2" cy="298.2" r="1.9" style="fill:#7f6828"/><path d="M370.9,432.1s8.8-19,7.7-31c0,0,2,17.9.1,24.1,0,0,3.9-6.9,6.1-8.6,0,0-2.9,6.8-1.8,11.1,0,0,7-.7,8.8-15.7,0,0,.4,14.6,1.5,17.9,0,0,4.7-16,6.9-19,0,0-.7,11.7,0,14.6a16.6,16.6,0,0,0,4.5-4.3s-3.4,6.2-.8,9.1c0,0,6.2-3.3,7.7-10.2,0,0,.4,8,2.6,12Z" style="fill:#d3de46"/><path d="M332,432.1s8.8-19,7.7-31c0,0,2,17.9.1,24.1,0,0,3.9-6.9,6.1-8.6,0,0-2.9,6.8-1.8,11.1,0,0,7-.7,8.8-15.7,0,0,.4,14.6,1.5,17.9,0,0,4.7-16,6.9-19,0,0-.7,11.7,0,14.6a16.6,16.6,0,0,0,4.5-4.3s-3.4,6.2-.8,9.1c0,0,6.2-3.3,7.7-10.2,0,0,.4,8,2.6,12Z" style="fill:#d3de46"/><g style="clip-path:url(#clip-path-4)"><path d="M65.2,357.7s-6,4-5.3,7.1.6,3.7,2.6,6.9S74,387.8,74,387.8l13.9,5.3s1.1-1.1.4-6.1c-.4-3.2-8.7-9.1-12.9-13.9a8,8,0,0,1-1.9-6l2.6-6.1Z" style="fill:#231f20"/><path d="M116,392.7a14.4,14.4,0,0,0-14-11s-11.8,1.6-14.9-7.5c0,0-.1-3,2.7-3h0l-.5-13.5-16.3,7s-6,7.1,0,11.9c0,0,19.4,16.1,24.5,16.1Z" style="fill:#2f2d2e;stroke:#231f20;stroke-miterlimit:10;stroke-width:0.3093294155364931px"/><path d="M261.5,332c-7.7-5.2-22.3-8.6-28.1-10.2s-6.9-.2-12.1-3.8c-2.6-1.8-4.2-5-5.1-7.7-36.1-12.2-76.4-21.8-84.7-23.8-12-2.8-26.4-6.1-37.1-7.2s-30,4.3-41.5,14.2S33,326.8,27.7,338.2a20.4,20.4,0,0,1-6.1,27.4,49,49,0,0,0,15.9-2.1c13.5-4,19.5-13.3,19.5-13.3,9.2,15.7,32.9,20.9,32.9,20.9h91.5s74.5.2,80.4,0c3.5-.1,12.1-.8,19.6-1.8-16.9-.4-25.5-3.9-29.5-5.4-6.3-2.5-33.9-8.4-38.1-9.5s-10.4-.7-10.4-.7c6-2.2,14.1-6,32.5-6,16.1,0,13.1.7,34.7,8.3a246.6,246.6,0,0,0,27.3,8,20.5,20.5,0,0,0,3.2-3.8,17.8,17.8,0,0,1-6.4-2.6C279.3,349.5,269.2,337.2,261.5,332Z" style="fill:#2f2d2e"/><path d="M299.8,353.4a24.8,24.8,0,0,1-5.1,4.3,17.8,17.8,0,0,0,6.4,2.6,18.1,18.1,0,0,0,1.9-3.7C303.8,354.4,302.2,354.1,299.8,353.4Z" style="fill:#231f20"/><path d="M156.1,334.5a45,45,0,0,0-5.6,33.7" style="fill:none;stroke:#231f20;stroke-linecap:round;stroke-miterlimit:10;stroke-width:0.8768393125246665px"/><path d="M221.3,318.1c5.2,3.5,6.3,2.1,12.1,3.8s20.3,5,28.1,10.2,17.8,17.5,33.2,25.7a24.8,24.8,0,0,0,5.1-4.3l-1-.3c-2.9-1-27.4-15.7-30-18.6s-10.7-7-10.7-7c-11.1-6-26.1-11.9-41.9-17.2C217.1,313.1,218.7,316.3,221.3,318.1Z" style="fill:#d6d6d6"/><path d="M297.8,364.1a246.5,246.5,0,0,1-27.3-8c-21.7-7.6-18.7-8.3-34.7-8.3-18.4,0-26.5,3.7-32.5,6,0,0,6.2-.4,10.4.7s31.8,7,38.1,9.5c4,1.6,12.6,5.1,29.5,5.4,5.1-.7,9.8-1.5,12-2.4A15,15,0,0,0,297.8,364.1Z" style="fill:#d6d6d6"/><path d="M233,332.7a6.6,6.6,0,0,1,5.9-6.4h.1a.7.7,0,0,0,.2-1.4,7.6,7.6,0,1,0-2.6,14.8h0a.4.4,0,0,0,.2-.8A6.6,6.6,0,0,1,233,332.7Z" style="fill:#d6d6d6"/><path d="M263.7,344.7c-.4,1.8.1,3.1,1.1,3.3s2-.7,2.4-2.5-.1-3.7-1-3.9S264.1,343,263.7,344.7Z" style="fill:#231f20"/><path d="M189.8,371.3l8,4.3-7.2,3.8s6.7,8.4,14.8,2.4,0-10.5,0-10.5Z" style="fill:#231f20"/><path d="M181.4,371.2c-3,4.7-4.7,8.1-5.8,13.7,6.2.4,8.5,3.4,9.3,7.8H165.6a45.1,45.1,0,0,1-8.8-9.8h0a44.6,44.6,0,0,1-6.3-14.7" style="fill:#2f2d2e"/><path d="M197.8,355.8a45.1,45.1,0,0,0-14.4,12.4" style="fill:none;stroke:#231f20;stroke-linecap:round;stroke-miterlimit:10;stroke-width:0.8768393125246665px"/><path d="M103,370.1s16.9-3.2,21.6-7.8c6.6-6.6,7-18.2-3.3-35.4l-7-11.7" style="fill:none;stroke:#231f20;stroke-linecap:round;stroke-miterlimit:10;stroke-width:0.8768393125246665px"/><path d="M55.3,346.2c-2.5-7.9-5.7-26.1,7.9-46.3" style="fill:none;stroke:#231f20;stroke-linecap:round;stroke-miterlimit:10;stroke-width:0.8768393125246665px"/><path d="M30.6,348.7a20.3,20.3,0,0,0-2.9-10.5l-1.5,3.1c-4.9,9.3-23.7,8.1-23.7,8.1s-9,.8-.8,8.7c5,4.8,12.1,7.2,19.9,7.6A20.4,20.4,0,0,0,30.6,348.7Z" style="fill:#d6d6d6"/><circle cx="265.6" cy="343.1" r="0.4" style="fill:#fff"/><circle cx="302.1" cy="355.2" r="0.4" style="fill:#fff"/></g><path d="M326.7,175.6l12.2,7a4.7,4.7,0,0,1,2.3,4v14.1a4.7,4.7,0,0,1-2.3,4l-12.2,7a4.7,4.7,0,0,1-4.7,0l-12.2-7a4.7,4.7,0,0,1-2.3-4V186.7a4.7,4.7,0,0,1,2.3-4l12.2-7A4.7,4.7,0,0,1,326.7,175.6Z" style="fill:#bbbe3a"/><path d="M326.8,168.4l13.8,8a5.3,5.3,0,0,1,2.6,4.6v15.9a5.3,5.3,0,0,1-2.6,4.6l-13.8,8a5.3,5.3,0,0,1-5.3,0l-13.8-8a5.3,5.3,0,0,1-2.6-4.6V180.9a5.3,5.3,0,0,1,2.6-4.6l13.8-8A5.3,5.3,0,0,1,326.8,168.4Z" style="fill:#d3de46"/><path d="M300.6,188.7l12.2,7a4.7,4.7,0,0,1,2.3,4v14.1a4.7,4.7,0,0,1-2.3,4l-12.2,7a4.7,4.7,0,0,1-4.7,0l-12.2-7a4.7,4.7,0,0,1-2.3-4V199.8a4.7,4.7,0,0,1,2.3-4l12.2-7A4.7,4.7,0,0,1,300.6,188.7Z" style="fill:#bbbe3a"/><path d="M300.6,181.5l13.8,8A5.3,5.3,0,0,1,317,194v15.9a5.3,5.3,0,0,1-2.6,4.6l-13.8,8a5.3,5.3,0,0,1-5.3,0l-13.8-8a5.3,5.3,0,0,1-2.6-4.6V194a5.3,5.3,0,0,1,2.6-4.6l13.8-8A5.3,5.3,0,0,1,300.6,181.5Z" style="fill:#d3de46"/><rect x="303" y="215.5" width="19.6" height="12.41" style="fill:#6e8c3b"/><path d="M296,179.2l2.9,5.1a1.9,1.9,0,0,1,0,1.9l-3,5.1a1.9,1.9,0,0,1-1.7,1h-5.9a1.9,1.9,0,0,1-1.7-1l-2.9-5.1a1.9,1.9,0,0,1,0-1.9l3-5.1a1.9,1.9,0,0,1,1.7-1h5.9A1.9,1.9,0,0,1,296,179.2Z" style="fill:#6e8c3b"/><path d="M296,178.4l2.9,5.1a1.9,1.9,0,0,1,0,1.9l-3,5.1a1.9,1.9,0,0,1-1.7,1h-5.9a1.9,1.9,0,0,1-1.7-1l-2.9-5.1a1.9,1.9,0,0,1,0-1.9l3-5.1a1.9,1.9,0,0,1,1.7-1h5.9A1.9,1.9,0,0,1,296,178.4Z" style="fill:#8ea43b"/><path d="M317.7,173.4l17.9,10.3a6.9,6.9,0,0,1,3.4,5.9v20.7a6.9,6.9,0,0,1-3.4,5.9l-17.9,10.3a6.9,6.9,0,0,1-6.9,0L293,216.3a6.9,6.9,0,0,1-3.4-5.9V189.7a6.9,6.9,0,0,1,3.4-5.9l17.9-10.3A6.9,6.9,0,0,1,317.7,173.4Z" style="fill:#6e8c3b"/><path d="M316.2,170.7l17.9,10.3a6.9,6.9,0,0,1,3.4,5.9v20.7a6.9,6.9,0,0,1-3.4,5.9l-17.9,10.3a6.9,6.9,0,0,1-6.9,0l-17.9-10.3a6.9,6.9,0,0,1-3.4-5.9V187a6.9,6.9,0,0,1,3.4-5.9l17.9-10.3A6.9,6.9,0,0,1,316.2,170.7Z" style="fill:#a3c23a"/><path d="M341.2,192.8l7.2,12.7a4.8,4.8,0,0,1,0,4.8L341,223a4.8,4.8,0,0,1-4.2,2.4H322.2a4.8,4.8,0,0,1-4.2-2.5l-7.2-12.7a4.8,4.8,0,0,1,0-4.8l7.4-12.6a4.8,4.8,0,0,1,4.2-2.4H337A4.8,4.8,0,0,1,341.2,192.8Z" style="fill:#6e8c3b"/><path d="M341.3,190.6l7.2,12.7a4.8,4.8,0,0,1,0,4.8L341,220.8a4.8,4.8,0,0,1-4.2,2.4H322.2a4.8,4.8,0,0,1-4.2-2.5l-7.2-12.7a4.8,4.8,0,0,1,0-4.8l7.4-12.6a4.8,4.8,0,0,1,4.2-2.4h14.6A4.8,4.8,0,0,1,341.3,190.6Z" style="fill:#8ea43b"/><polygon points="432.1 143.4 432.1 162.1 416.8 157.5 432.1 143.4" style="fill:#ce6000"/><path d="M430.1,149.7s-5.1,4-7.2,8.5h7.1Z" style="fill:#dcd3c0"/><path d="M454.7,219.2s13.5,14.5,10,20-6.9,4.5-8.3,7.1-.4,4.2,5.5,4.2,6.2-4.5,8.6-5.3,9.2-7.8,7.4-13.7,7.6-7.2,7.6-7.2Z" style="fill:#ce6000"/><path d="M398.9,200.1s-3.8,10.6-11.2,16.3,3.4,18,9.3,20.5,12.4,1,12.4-1.2,1.4-3.3-3.7-3-6.6-1.6-5.1-4.4,5.1-2.8,10.8-2.9l11.9-.3Z" style="fill:#ce6000"/><path d="M450.5,173.7c-9.6-1.4-23.4.2-32.5-2.2-15.7-4-19.1,2.5-25,8.2v.2a55.6,55.6,0,0,0-1.6,13.5c.4,33.1,38.1,34.8,38.1,34.8V190.6s-3.2-1.5-4.3-3.2-4.2-6.9,4-7.8c16.5-1.7,21.6-3.1,21.6-3.1A4.2,4.2,0,0,1,450.5,173.7Z" style="fill:#dcd3c0"/><path d="M437.5,163.9c-4.2-7.8-15.2-8.8-15.2-8.8V141.2c-24.4,18.2-29,36.7-29.4,38.5l1.5-1.5c.6,1.6,1.3,9.1,1.3,9.1,0-5.3,7.3-11.4,7.3-11.1s2.3,4.4,2.3,4.4c-.1-5.9,5.9-7.3,5.9-7.3s1.5,5.6,1.5,5.6c.3-3.2,1.2-4.6,2.1-5l1.8.4,1.4.3h0c8.2,1.3,13-3.1,32.3-1a7.2,7.2,0,0,1,2.3-3.3A164.6,164.6,0,0,0,437.5,163.9Z" style="fill:#ff8600"/><path d="M573.7,171.5a91.1,91.1,0,0,0-.9,14.8c-1.7-.7-6.9-8.9-6.9-8.9,1.1,12.2-3,15.4-3,15.4-5.2-4.1-7.1-14-7.1-14-3.9,5.7-3.4,15-3.4,15a21.3,21.3,0,0,1-6.6-6.5c3.1,13.1,7.1,24.9-12.8,33.7-29.7,13.1-43.6-18.6-43.6-18.6v8s18.6,47.6,55.5,39.9c65.6-13.6,34.9-62.4,34.9-62.4A30.2,30.2,0,0,1,573.7,171.5Z" style="fill:#ff8600"/><path d="M552.4,193.8s-.5-9.4,3.4-15c0,0,1.8,9.9,7.1,14,0,0,4.1-3.2,3-15.4,0,0,5.2,8.1,6.9,8.9a91.1,91.1,0,0,1,.9-14.8c-1.2-12.8,3.9-25,3.9-25-21.9,0-34.3,11.6-33.6,29.3a60.4,60.4,0,0,0,1.8,11.5A21.3,21.3,0,0,0,552.4,193.8Z" style="fill:#dcd3c0"/><path d="M426.8,164.2c-.4,1.7.1,3,1,3.2s2-.7,2.4-2.4-.1-3.6-1-3.8S427.2,162.5,426.8,164.2Z" style="fill:#231f20"/><circle cx="428.7" cy="162.6" r="0.4" style="fill:#fff"/><path d="M489.5,202.4s-4.2-10.9-16.7-11.6-16.7,2.3-31.7,1.1c-11.1-.9-11.6-1.4-11.6-1.4s-18.8,2-18.8,15.7,10,20.4,18.8,21.9,23.5-1.7,27.6-2.4,15.8-1.1,20,2.8,4.7,8.4,10.7,8.6-.9,9.5-2,10.2a2,2,0,0,0,1.4,3.5c2.1,0,4.6-.5,5.5-1.7s6.5-12.3,3.7-17.1-6.1-5.7-6.9-21.6" style="fill:#ff8600"/><path d="M452.8,170.4s4,1.5,3.2,2.3-2.2,3.2-5.3,3.8C450.7,176.5,449,173.9,452.8,170.4Z" style="fill:#231f20"/><circle cx="454.9" cy="172.5" r="0.2" style="fill:#fff"/><path d="M416.5,221.5s13.5,14.5,10,20-6.9,4.5-8.3,7.1-.4,4.2,5.5,4.2,6.2-4.5,8.6-5.3,9.2-7.8,7.4-13.7,7.6-7.2,7.6-7.2Z" style="fill:#ff8600"/><path d="M420.1,146.5s-5,4-7.1,8.4h7Z" style="fill:#dcd3c0"/><path d="M606.3,421.1s8.8-19,7.7-31c0,0,2,17.9.1,24.1,0,0,3.9-6.9,6.1-8.6,0,0-2.9,6.8-1.8,11.1,0,0,7-.7,8.8-15.7,0,0,.4,14.6,1.5,17.9,0,0,4.7-16,6.9-19,0,0-.7,11.7,0,14.6a16.6,16.6,0,0,0,4.5-4.3s-3.4,6.2-.8,9.1c0,0,6.2-3.3,7.7-10.2,0,0,.4,8,2.6,12Z" style="fill:#d3de46"/><path d="M542.1,421.1s10.7-23.2,9.4-37.9c0,0,2.5,21.9.1,29.5,0,0,4.8-8.5,7.5-10.5,0,0-3.6,8.3-2.2,13.6,0,0,8.6-.8,10.7-19.2,0,0,.4,17.8,1.8,21.8,0,0,5.8-19.6,8.5-23.2,0,0-.9,14.3,0,17.8a20.4,20.4,0,0,0,5.4-5.3s-4.1,7.5-1,11.1c0,0,7.6-4,9.4-12.5,0,0,.4,9.8,3.1,14.7Z" style="fill:#d3de46"/><path d="M163.1,421.1s10.3-22.3,9-36.5c0,0,2.4,21,.1,28.3,0,0,4.6-8.2,7.2-10.1,0,0-3.4,8-2.1,13.1,0,0,8.2-.8,10.3-18.5,0,0,.4,17.1,1.7,21,0,0,5.6-18.9,8.2-22.3,0,0-.9,13.7,0,17.2a19.6,19.6,0,0,0,5.2-5.1s-4,7.3-.9,10.7c0,0,7.3-3.9,9-12,0,0,.4,9.4,3,14.2Z" style="fill:#d3de46"/><path d="M36,309.8s-3.5,2.3-3.1,4.2a8.5,8.5,0,0,0,1.5,4c1.2,1.9,6.8,9.4,6.8,9.4l8.1,3.1s.6-.6.3-3.6-5.1-5.3-7.6-8.1a4.7,4.7,0,0,1-1.1-3.5l1.5-3.6Z" style="fill:#231f20"/><path d="M65.8,330.3a8.4,8.4,0,0,0-8.2-6.4s-6.9.9-8.7-4.4c0,0-.1-1.8,1.6-1.8h0l-.3-7.9-9.6,4.1s-3.5,4.2,0,7c0,0,11.4,9.4,14.4,9.4Z" style="fill:#2f2d2e;stroke:#231f20;stroke-miterlimit:10;stroke-width:0.1813120273270165px"/><path d="M151.1,294.8c-4.5-3-13.1-5-16.4-6s-4.1-.1-7.1-2.2a8.9,8.9,0,0,1-3-4.5c-21.1-7.2-44.8-12.8-49.7-13.9-7-1.7-15.5-3.6-21.7-4.2s-17.6,2.5-24.3,8.3S17.2,291.7,14,298.4a11.9,11.9,0,0,1,1.7,6.2,11.9,11.9,0,0,1-5.3,9.9,28.7,28.7,0,0,0,9.3-1.2,21.3,21.3,0,0,0,11.4-7.8c5.4,9.2,19.3,12.3,19.3,12.3h53.7s43.7.1,47.1,0,7.1-.5,11.5-1.1c-9.9-.2-15-2.3-17.3-3.2s-19.9-4.9-22.4-5.6a24.2,24.2,0,0,0-6.1-.4c3.5-1.3,8.3-3.5,19.1-3.5s7.6.4,20.4,4.9a144.5,144.5,0,0,0,16,4.7,12,12,0,0,0,1.9-2.2,10.4,10.4,0,0,1-3.7-1.5C161.5,305,155.6,297.8,151.1,294.8Z" style="fill:#2f2d2e"/><path d="M173.5,307.3a14.5,14.5,0,0,1-3,2.5,10.4,10.4,0,0,0,3.7,1.5,10.6,10.6,0,0,0,1.1-2.2C175.9,307.9,174.9,307.7,173.5,307.3Z" style="fill:#231f20"/><path d="M89.3,296.2A26.4,26.4,0,0,0,86,316" style="fill:none;stroke:#231f20;stroke-linecap:round;stroke-miterlimit:10;stroke-width:0.5139553673488882px"/><path d="M127.5,286.6c3,2.1,3.7,1.2,7.1,2.2s11.9,3,16.4,6,10.5,10.3,19.5,15.1a14.5,14.5,0,0,0,3-2.5l-.6-.2c-1.7-.6-16.1-9.2-17.6-10.9s-6.3-4.1-6.3-4.1c-6.5-3.5-15.3-6.9-24.6-10.1A8.9,8.9,0,0,0,127.5,286.6Z" style="fill:#d6d6d6"/><path d="M172.4,313.6a144.5,144.5,0,0,1-16-4.7c-12.7-4.5-10.9-4.9-20.4-4.9s-15.6,2.2-19.1,3.5a24.2,24.2,0,0,1,6.1.4c2.5.6,18.6,4.1,22.4,5.6s7.4,3,17.3,3.2a36.8,36.8,0,0,0,7-1.4A8.8,8.8,0,0,0,172.4,313.6Z" style="fill:#d6d6d6"/><path d="M134.4,295.1a3.9,3.9,0,0,1,3.5-3.7h0a.4.4,0,0,0,.1-.8,4.5,4.5,0,1,0-1.5,8.7h0a.2.2,0,0,0,.1-.5A3.9,3.9,0,0,1,134.4,295.1Z" style="fill:#d6d6d6"/><path d="M152.4,302.2c-.2,1,.1,1.8.6,1.9s1.2-.4,1.4-1.5,0-2.2-.6-2.3S152.6,301.2,152.4,302.2Z" style="fill:#231f20"/><path d="M109.1,317.8l4.7,2.5-4.2,2.2s3.9,4.9,8.7,1.4,0-6.2,0-6.2Z" style="fill:#231f20"/><path d="M104.1,317.7a20.6,20.6,0,0,0-3.4,8.1c3.6.2,5,2,5.4,4.6H94.9a26.4,26.4,0,0,1-5.2-5.8h0A26.2,26.2,0,0,1,86,316" style="fill:#2f2d2e"/><path d="M113.7,308.7a26.4,26.4,0,0,0-8.4,7.3" style="fill:none;stroke:#231f20;stroke-linecap:round;stroke-miterlimit:10;stroke-width:0.5139553673488882px"/><path d="M58.2,317.1s9.9-1.9,12.6-4.6,4.1-10.6-2-20.8l-4.1-6.8" style="fill:none;stroke:#231f20;stroke-linecap:round;stroke-miterlimit:10;stroke-width:0.5139553673488882px"/><path d="M30.2,303.1c-1.4-4.6-3.3-15.3,4.6-27.2" style="fill:none;stroke:#231f20;stroke-linecap:round;stroke-miterlimit:10;stroke-width:0.5139553673488882px"/><path d="M15.7,304.5a11.9,11.9,0,0,0-1.7-6.2l-.9,1.8c-2.9,5.4-13.9,4.7-13.9,4.7s-5.3.5-.5,5.1c2.9,2.8,7.1,4.2,11.7,4.4A11.9,11.9,0,0,0,15.7,304.5Z" style="fill:#d6d6d6"/><circle cx="153.5" cy="301.3" r="0.3" style="fill:#fff"/><circle cx="174.9" cy="308.3" r="0.3" style="fill:#fff"/><path d="M-25.1,332.4s8.8-19,7.7-31c0,0,2,17.9.1,24.1,0,0,3.9-6.9,6.1-8.6,0,0-2.9,6.8-1.8,11.1,0,0,7-.7,8.8-15.7,0,0,.4,14.6,1.5,17.9,0,0,4.7-16,6.9-19,0,0-.7,11.7,0,14.6a16.6,16.6,0,0,0,4.5-4.3s-3.4,6.2-.8,9.1c0,0,6.2-3.3,7.7-10.2,0,0,.4,8,2.6,12Z" style="fill:#d3de46"/><path d="M58.2,332.4s8.8-19,7.7-31c0,0,2,17.9.1,24.1,0,0,3.9-6.9,6.1-8.6,0,0-2.9,6.8-1.8,11.1,0,0,7-.7,8.8-15.7,0,0,.4,14.6,1.5,17.9,0,0,4.7-16,6.9-19,0,0-.7,11.7,0,14.6a16.6,16.6,0,0,0,4.5-4.3s-3.4,6.2-.8,9.1c0,0,6.2-3.3,7.7-10.2,0,0,.4,8,2.6,12Z" style="fill:#d3de46"/><path d="M19.3,332.4s8.8-19,7.7-31c0,0,2,17.9.1,24.1,0,0,3.9-6.9,6.1-8.6,0,0-2.9,6.8-1.8,11.1,0,0,7-.7,8.8-15.7,0,0,.4,14.6,1.5,17.9,0,0,4.7-16,6.9-19,0,0-.7,11.7,0,14.6a16.6,16.6,0,0,0,4.5-4.3s-3.4,6.2-.8,9.1c0,0,6.2-3.3,7.7-10.2,0,0,.4,8,2.6,12Z" style="fill:#d3de46"/><path d="M643.9,244.2l12.2,7a4.7,4.7,0,0,1,2.3,4v14.1a4.7,4.7,0,0,1-2.3,4l-12.2,7a4.7,4.7,0,0,1-4.7,0l-12.2-7a4.7,4.7,0,0,1-2.3-4V255.3a4.7,4.7,0,0,1,2.3-4l12.2-7A4.7,4.7,0,0,1,643.9,244.2Z" style="fill:#bbbe3a"/><path d="M644,237l13.8,8a5.3,5.3,0,0,1,2.6,4.6v15.9a5.3,5.3,0,0,1-2.6,4.6L644,278a5.3,5.3,0,0,1-5.3,0l-13.8-8a5.3,5.3,0,0,1-2.6-4.6V249.5a5.3,5.3,0,0,1,2.6-4.6l13.8-8A5.3,5.3,0,0,1,644,237Z" style="fill:#d3de46"/><path d="M617.8,257.3l12.2,7a4.7,4.7,0,0,1,2.3,4v14.1a4.7,4.7,0,0,1-2.3,4l-12.2,7a4.7,4.7,0,0,1-4.7,0l-12.2-7a4.7,4.7,0,0,1-2.3-4V268.4a4.7,4.7,0,0,1,2.3-4l12.2-7A4.7,4.7,0,0,1,617.8,257.3Z" style="fill:#bbbe3a"/><path d="M617.8,250.1l13.8,8a5.3,5.3,0,0,1,2.6,4.6v15.9a5.3,5.3,0,0,1-2.6,4.6l-13.8,8a5.3,5.3,0,0,1-5.3,0l-13.8-8a5.3,5.3,0,0,1-2.6-4.6V262.6a5.3,5.3,0,0,1,2.6-4.6l13.8-8A5.3,5.3,0,0,1,617.8,250.1Z" style="fill:#d3de46"/><rect x="620.3" y="284.1" width="19.6" height="12.41" style="fill:#6e8c3b"/><path d="M613.2,247.9l2.9,5.1a1.9,1.9,0,0,1,0,1.9l-3,5.1a1.9,1.9,0,0,1-1.7,1h-5.9a1.9,1.9,0,0,1-1.7-1l-2.9-5.1a1.9,1.9,0,0,1,0-1.9l3-5.1a1.9,1.9,0,0,1,1.7-1h5.9A1.9,1.9,0,0,1,613.2,247.9Z" style="fill:#6e8c3b"/><path d="M613.3,247l2.9,5.1a1.9,1.9,0,0,1,0,1.9l-3,5.1a1.9,1.9,0,0,1-1.7,1h-5.9a1.9,1.9,0,0,1-1.7-1l-2.9-5.1a1.9,1.9,0,0,1,0-1.9l3-5.1a1.9,1.9,0,0,1,1.7-1h5.9A1.9,1.9,0,0,1,613.3,247Z" style="fill:#8ea43b"/><path d="M634.9,242l17.9,10.3a6.9,6.9,0,0,1,3.4,5.9V279a6.9,6.9,0,0,1-3.4,5.9l-17.9,10.3a6.9,6.9,0,0,1-6.9,0l-17.9-10.3a6.9,6.9,0,0,1-3.4-5.9V258.3a6.9,6.9,0,0,1,3.4-5.9L628.1,242A6.9,6.9,0,0,1,634.9,242Z" style="fill:#6e8c3b"/><path d="M633.4,239.3l17.9,10.3a6.9,6.9,0,0,1,3.4,5.9v20.7a6.9,6.9,0,0,1-3.4,5.9l-17.9,10.3a6.9,6.9,0,0,1-6.9,0l-17.9-10.3a6.9,6.9,0,0,1-3.4-5.9V255.6a6.9,6.9,0,0,1,3.4-5.9l17.9-10.3A6.9,6.9,0,0,1,633.4,239.3Z" style="fill:#a3c23a"/><path d="M658.4,261.4l7.2,12.7a4.8,4.8,0,0,1,0,4.8l-7.4,12.6A4.8,4.8,0,0,1,654,294H639.4a4.8,4.8,0,0,1-4.2-2.5L628,278.7a4.8,4.8,0,0,1,0-4.8l7.4-12.6a4.8,4.8,0,0,1,4.2-2.4h14.6A4.8,4.8,0,0,1,658.4,261.4Z" style="fill:#6e8c3b"/><path d="M658.5,259.2l7.2,12.7a4.8,4.8,0,0,1,0,4.8l-7.4,12.6a4.8,4.8,0,0,1-4.2,2.4H639.4a4.8,4.8,0,0,1-4.2-2.5L628,276.5a4.8,4.8,0,0,1,0-4.8l7.4-12.6a4.8,4.8,0,0,1,4.2-2.4h14.6A4.8,4.8,0,0,1,658.5,259.2Z" style="fill:#8ea43b"/><path d="M88.1,135.5l-2.9,1.2a.2.2,0,0,0,0,.3l2.9,1.2a.2.2,0,0,0,.2-.2v-2.4A.2.2,0,0,0,88.1,135.5Z" style="fill:#f2ad58"/><path d="M87.7,140.8a11.6,11.6,0,0,1-.2-1.9c0-.2,0-.3,0-.5s0-.3,0-.4a7.1,7.1,0,0,1,14.3,0h0a7.1,7.1,0,0,0,6.9,7.1,11.5,11.5,0,0,1-9.7,5.3l-2-.2A11.6,11.6,0,0,0,87.7,140.8Z" style="fill:#977f2e"/><path d="M87.7,140.8a11.6,11.6,0,0,1,9.3,9.4A11.5,11.5,0,0,1,87.7,140.8Z" style="fill:#dcd3c0"/><path d="M94.3,141.9a4.2,4.2,0,0,1,8.3-.9,5.2,5.2,0,0,0,2.5,2.8.3.3,0,0,1,.1.5c-1.3.9-5.4,3.6-8.3,1.8A4.2,4.2,0,0,1,94.3,141.9Z" style="fill:#dcd3c0"/><circle cx="91.2" cy="135.6" r="1.4" style="fill:#fff"/><circle cx="91.2" cy="135.6" r="1.1" style="fill:#221f1f"/><path d="M74.3,105.7l-3.8,1.6a.2.2,0,0,0,0,.4l3.8,1.6a.2.2,0,0,0,.3-.2v-3.2A.2.2,0,0,0,74.3,105.7Z" style="fill:#f2ad58"/><path d="M73.8,112.7a15.3,15.3,0,0,1-.2-2.5c0-.2,0-.4,0-.6s0-.3,0-.5a9.4,9.4,0,0,1,18.8,0h0a9.3,9.3,0,0,0,9.1,9.3,15.1,15.1,0,0,1-12.8,7.1l-2.6-.2A15.3,15.3,0,0,0,73.8,112.7Z" style="fill:#2aa9e0"/><path d="M73.8,112.7a15.3,15.3,0,0,1,12.3,12.4A15.2,15.2,0,0,1,73.8,112.7Z" style="fill:#bae5fa"/><path d="M82.5,114.1a5.6,5.6,0,0,1,11-1.2,6.8,6.8,0,0,0,3.3,3.7.4.4,0,0,1,.1.6c-1.7,1.2-7.1,4.8-10.9,2.4A5.6,5.6,0,0,1,82.5,114.1Z" style="fill:#bae5fa"/><circle cx="78.4" cy="105.8" r="1.9" style="fill:#fff"/><circle cx="78.4" cy="105.8" r="1.5" style="fill:#221f1f"/><path d="M334.4,163.8l2.9,1.2a.2.2,0,0,1,0,.3l-2.9,1.2a.2.2,0,0,1-.2-.2v-2.4A.2.2,0,0,1,334.4,163.8Z" style="fill:#f2ad58"/><path d="M334.7,169.1a11.6,11.6,0,0,0,.2-1.9c0-.2,0-.3,0-.5s0-.3,0-.4a7.1,7.1,0,0,0-14.3,0h0a7.1,7.1,0,0,1-6.9,7.1,11.5,11.5,0,0,0,9.7,5.3l2-.2A11.6,11.6,0,0,1,334.7,169.1Z" style="fill:#977f2e"/><path d="M334.7,169.1a11.6,11.6,0,0,0-9.3,9.4A11.5,11.5,0,0,0,334.7,169.1Z" style="fill:#dcd3c0"/><path d="M328.2,170.2a4.2,4.2,0,0,0-8.3-.9,5.2,5.2,0,0,1-2.5,2.8.3.3,0,0,0-.1.5c1.3.9,5.4,3.6,8.3,1.8A4.2,4.2,0,0,0,328.2,170.2Z" style="fill:#dcd3c0"/><circle cx="331.2" cy="163.9" r="1.4" style="fill:#fff"/><circle cx="331.2" cy="163.9" r="1.1" style="fill:#221f1f"/><path d="M239.1,124.1l3.8,1.6a.2.2,0,0,1,0,.4l-3.8,1.6a.2.2,0,0,1-.3-.2v-3.2A.2.2,0,0,1,239.1,124.1Z" style="fill:#f2ad58"/><path d="M239.6,131.1a15.3,15.3,0,0,0,.2-2.5c0-.2,0-.4,0-.6s0-.3,0-.5a9.4,9.4,0,0,0-18.8,0h0a9.3,9.3,0,0,1-9.1,9.3,15.1,15.1,0,0,0,12.8,7.1l2.6-.2A15.3,15.3,0,0,1,239.6,131.1Z" style="fill:#2aa9e0"/><path d="M239.6,131.1a15.3,15.3,0,0,0-12.3,12.4A15.2,15.2,0,0,0,239.6,131.1Z" style="fill:#bae5fa"/><path d="M231,132.5a5.6,5.6,0,0,0-11-1.2,6.8,6.8,0,0,1-3.3,3.7.4.4,0,0,0-.1.6c1.7,1.2,7.1,4.8,10.9,2.4A5.6,5.6,0,0,0,231,132.5Z" style="fill:#bae5fa"/><circle cx="235" cy="124.2" r="1.9" style="fill:#fff"/><circle cx="235" cy="124.2" r="1.5" style="fill:#221f1f"/></g><path d="M582.9,13.8A207.6,207.6,0,0,0,400.7,121.7,207.6,207.6,0,0,0,218.5,13.8c-114.7,0-207.7,93-207.7,207.7s93,207.7,207.7,207.7A207.6,207.6,0,0,0,400.7,321.3,207.6,207.6,0,0,0,582.9,429.2c114.7,0,207.7-93,207.7-207.7S697.6,13.8,582.9,13.8Z" style="fill:none;stroke:#333;stroke-miterlimit:10;stroke-width:25.511810302734375px"/></svg>