<svg id="Layer_1" data-name="Layer 1" xmlns="http://www.w3.org/2000/svg" xmlns:xlink="http://www.w3.org/1999/xlink" viewBox="0 0 800 450"><defs><clipPath id="clip-path"><rect x="-847.6" width="800" height="450" style="fill:none"/></clipPath><clipPath id="clip-path-2"><rect width="800" height="450" style="fill:none"/></clipPath><clipPath id="clip-path-4"><rect x="368.9" y="259.1" width="76.4" height="15.28" style="fill:none"/></clipPath><clipPath id="clip-path-5"><rect x="368.1" y="109.3" width="89.2" height="164.46" style="fill:none"/></clipPath></defs><title>events</title><g style="clip-path:url(#clip-path)"><path d="M-866.9,573H49.5L32,423.7s-309.8-35.4-460.7-35.4S-809,409.9-890,414.9" style="fill:#8ea43b"/></g><g style="clip-path:url(#clip-path-2)"><path d="M423.1,151.9s1.8,25.4,10.7,16.6l4,3.9s-20.3,20.5-20.3-20.7Z" style="fill:#8bc6ec"/><g style="clip-path:url(#clip-path-2)"><path d="M30.9,186.5l26.3,15.2a10.1,10.1,0,0,1,5,8.7v30.3a10.1,10.1,0,0,1-5,8.7L30.9,264.6a10.1,10.1,0,0,1-10.1,0L-5.4,249.4a10.1,10.1,0,0,1-5-8.7V210.4a10.1,10.1,0,0,1,5-8.7l26.3-15.2A10.1,10.1,0,0,1,30.9,186.5Z" style="fill:#6e8c3b"/><path d="M28.7,182.5,55,197.7a10.1,10.1,0,0,1,5,8.7v30.3a10.1,10.1,0,0,1-5,8.7L28.7,260.6a10.1,10.1,0,0,1-10.1,0L-7.6,245.4a10.1,10.1,0,0,1-5-8.7V206.4a10.1,10.1,0,0,1,5-8.7l26.3-15.2A10.1,10.1,0,0,1,28.7,182.5Z" style="fill:#a3c23a"/><polygon points="25 214.9 24.6 228 10.8 210.9 24.5 229.5 21.2 337.6 28.3 337.6 26.2 249.1 32.5 228 26 242.2 25 214.9" style="fill:#967e2e"/><path d="M199.1,206.7,221,219.3a8.4,8.4,0,0,1,4.2,7.2v25.2a8.4,8.4,0,0,1-4.2,7.2l-21.8,12.6a8.4,8.4,0,0,1-8.4,0L169,258.9a8.4,8.4,0,0,1-4.2-7.2V226.5a8.4,8.4,0,0,1,4.2-7.2l21.8-12.6A8.4,8.4,0,0,1,199.1,206.7Z" style="fill:#6e8c3b"/><path d="M197.3,203.4,219.2,216a8.4,8.4,0,0,1,4.2,7.2v25.2a8.4,8.4,0,0,1-4.2,7.2l-21.8,12.6a8.4,8.4,0,0,1-8.4,0l-21.8-12.6a8.4,8.4,0,0,1-4.2-7.2V223.2a8.4,8.4,0,0,1,4.2-7.2L189,203.4A8.4,8.4,0,0,1,197.3,203.4Z" style="fill:#a3c23a"/><polygon points="194.3 230.3 193.9 241.2 182.5 227 193.9 242.4 191.1 332.2 197 332.2 195.3 258.7 200.5 241.2 195.1 252.9 194.3 230.3" style="fill:#967e2e"/><path d="M173.2,225.2l17.1,9.9a6.6,6.6,0,0,1,3.3,5.7v19.8a6.6,6.6,0,0,1-3.3,5.7l-17.1,9.9a6.6,6.6,0,0,1-6.6,0l-17.1-9.9a6.6,6.6,0,0,1-3.3-5.7V240.8a6.6,6.6,0,0,1,3.3-5.7l17.1-9.9A6.6,6.6,0,0,1,173.2,225.2Z" style="fill:#bbbe3a"/><path d="M171.2,222.9l17.1,9.9a6.6,6.6,0,0,1,3.3,5.7v19.8a6.6,6.6,0,0,1-3.3,5.7l-17.1,9.9a6.6,6.6,0,0,1-6.6,0l-17.1-9.9a6.6,6.6,0,0,1-3.3-5.7V238.4a6.6,6.6,0,0,1,3.3-5.7l17.1-9.9A6.6,6.6,0,0,1,171.2,222.9Z" style="fill:#d3de46"/><polygon points="167 248.8 166.7 257.2 157.8 246.2 166.7 258.1 164.5 320.4 169.1 320.4 167.7 270.7 171.8 257.2 167.6 266.3 167 248.8" style="fill:#967e2e"/><path d="M735.7,161.7l32.6,18.8a12.5,12.5,0,0,1,6.2,10.8v37.6a12.5,12.5,0,0,1-6.2,10.8l-32.6,18.8a12.5,12.5,0,0,1-12.5,0l-32.6-18.8a12.5,12.5,0,0,1-6.2-10.8V191.3a12.5,12.5,0,0,1,6.2-10.8l32.6-18.8A12.5,12.5,0,0,1,735.7,161.7Z" style="fill:#6e8c3b"/><path d="M733,156.7l32.6,18.8a12.5,12.5,0,0,1,6.2,10.8v37.6a12.5,12.5,0,0,1-6.2,10.8L733,253.5a12.5,12.5,0,0,1-12.5,0L688,234.7a12.5,12.5,0,0,1-6.2-10.8V186.3a12.5,12.5,0,0,1,6.2-10.8l32.6-18.8A12.5,12.5,0,0,1,733,156.7Z" style="fill:#a3c23a"/><polygon points="728.5 196.9 727.9 213.1 710.9 191.9 727.9 214.9 723.8 349 732.6 349 730 239.2 737.7 213.1 729.7 230.7 728.5 196.9" style="fill:#967e2e"/><path d="M697,189.3,722.6,204a9.8,9.8,0,0,1,4.9,8.5V242a9.8,9.8,0,0,1-4.9,8.5L697,265.2a9.8,9.8,0,0,1-9.8,0l-25.5-14.8a9.8,9.8,0,0,1-4.9-8.5V212.5a9.8,9.8,0,0,1,4.9-8.5l25.5-14.8A9.8,9.8,0,0,1,697,189.3Z" style="fill:#bbbe3a"/><path d="M694.1,185.8l25.5,14.8a9.8,9.8,0,0,1,4.9,8.5v29.5a9.8,9.8,0,0,1-4.9,8.5l-25.5,14.8a9.8,9.8,0,0,1-9.8,0L658.8,247a9.8,9.8,0,0,1-4.9-8.5V209.1a9.8,9.8,0,0,1,4.9-8.5l25.5-14.8A9.8,9.8,0,0,1,694.1,185.8Z" style="fill:#d3de46"/><polygon points="687.7 224.5 687.3 237 674.1 220.7 687.3 238.5 684.1 331.3 690.9 331.3 688.9 257.2 694.9 237 688.7 250.6 687.7 224.5" style="fill:#967e2e"/><path d="M-98.5,520.4H817.9l-9.5-182.9s-317.8-25.8-468.7-25.8S-18,334.9-99,339.9" style="fill:#a3c23b"/><path d="M-19.3,573H897L879.6,423.7s-309.8-35.4-460.7-35.4S38.6,409.9-42.4,414.9" style="fill:#8ea43b"/><path d="M232.4,309.6l4.5,2.6a1.7,1.7,0,0,1,.9,1.5v5.2a1.7,1.7,0,0,1-.9,1.5l-4.5,2.6a1.7,1.7,0,0,1-1.7,0l-4.5-2.6a1.7,1.7,0,0,1-.9-1.5v-5.2a1.7,1.7,0,0,1,.9-1.5l4.5-2.6A1.7,1.7,0,0,1,232.4,309.6Z" style="fill:#bbbe3a"/><path d="M232.4,306.9l5.1,2.9a1.9,1.9,0,0,1,1,1.7v5.9a1.9,1.9,0,0,1-1,1.7l-5.1,2.9a1.9,1.9,0,0,1-1.9,0l-5.1-2.9a1.9,1.9,0,0,1-1-1.7v-5.9a1.9,1.9,0,0,1,1-1.7l5.1-2.9A1.9,1.9,0,0,1,232.4,306.9Z" style="fill:#d3de46"/><path d="M222.8,314.4l4.5,2.6a1.7,1.7,0,0,1,.9,1.5v5.2a1.7,1.7,0,0,1-.9,1.5l-4.5,2.6a1.7,1.7,0,0,1-1.7,0l-4.5-2.6a1.7,1.7,0,0,1-.9-1.5v-5.2a1.7,1.7,0,0,1,.9-1.5l4.5-2.6A1.7,1.7,0,0,1,222.8,314.4Z" style="fill:#bbbe3a"/><path d="M222.8,311.7l5.1,2.9a1.9,1.9,0,0,1,1,1.7v5.9a1.9,1.9,0,0,1-1,1.7l-5.1,2.9a1.9,1.9,0,0,1-1.9,0l-5.1-2.9a1.9,1.9,0,0,1-1-1.7v-5.9a1.9,1.9,0,0,1,1-1.7l5.1-2.9A1.9,1.9,0,0,1,222.8,311.7Z" style="fill:#d3de46"/><rect x="223.7" y="324.2" width="7.2" height="4.56" style="fill:#6e8c3b"/><path d="M221.1,310.9l1.1,1.9a.7.7,0,0,1,0,.7l-1.1,1.9a.7.7,0,0,1-.6.4h-2.2a.7.7,0,0,1-.6-.4l-1.1-1.9a.7.7,0,0,1,0-.7l1.1-1.9a.7.7,0,0,1,.6-.4h2.2A.7.7,0,0,1,221.1,310.9Z" style="fill:#6e8c3b"/><path d="M221.1,310.6l1.1,1.9a.7.7,0,0,1,0,.7l-1.1,1.9a.7.7,0,0,1-.6.4h-2.2a.7.7,0,0,1-.6-.4l-1.1-1.9a.7.7,0,0,1,0-.7l1.1-1.9a.7.7,0,0,1,.6-.4h2.2A.7.7,0,0,1,221.1,310.6Z" style="fill:#8ea43b"/><path d="M229.1,308.8l6.6,3.8a2.5,2.5,0,0,1,1.3,2.2v7.6a2.5,2.5,0,0,1-1.3,2.2l-6.6,3.8a2.5,2.5,0,0,1-2.5,0l-6.6-3.8a2.5,2.5,0,0,1-1.3-2.2v-7.6a2.5,2.5,0,0,1,1.3-2.2l6.6-3.8A2.5,2.5,0,0,1,229.1,308.8Z" style="fill:#6e8c3b"/><path d="M228.6,307.8l6.6,3.8a2.5,2.5,0,0,1,1.3,2.2v7.6a2.5,2.5,0,0,1-1.3,2.2l-6.6,3.8a2.5,2.5,0,0,1-2.5,0l-6.6-3.8a2.5,2.5,0,0,1-1.3-2.2v-7.6a2.5,2.5,0,0,1,1.3-2.2l6.6-3.8A2.5,2.5,0,0,1,228.6,307.8Z" style="fill:#a3c23a"/><path d="M237.7,315.9l2.7,4.7a1.8,1.8,0,0,1,0,1.8l-2.7,4.6a1.8,1.8,0,0,1-1.5.9h-5.4a1.8,1.8,0,0,1-1.5-.9l-2.7-4.7a1.8,1.8,0,0,1,0-1.8l2.7-4.6a1.8,1.8,0,0,1,1.5-.9h5.4A1.8,1.8,0,0,1,237.7,315.9Z" style="fill:#6e8c3b"/><path d="M237.8,315.1l2.7,4.7a1.8,1.8,0,0,1,0,1.8l-2.7,4.6a1.8,1.8,0,0,1-1.5.9h-5.4a1.8,1.8,0,0,1-1.5-.9l-2.7-4.7a1.8,1.8,0,0,1,0-1.8l2.7-4.6a1.8,1.8,0,0,1,1.5-.9h5.4A1.8,1.8,0,0,1,237.8,315.1Z" style="fill:#8ea43b"/><path d="M86.1,348.3l6.3,3.6a2.4,2.4,0,0,1,1.2,2.1v7.3a2.4,2.4,0,0,1-1.2,2.1L86.1,367a2.4,2.4,0,0,1-2.4,0l-6.3-3.6a2.4,2.4,0,0,1-1.2-2.1V354a2.4,2.4,0,0,1,1.2-2.1l6.3-3.6A2.4,2.4,0,0,1,86.1,348.3Z" style="fill:#bbbe3a"/><path d="M86.1,344.5l7.1,4.1a2.7,2.7,0,0,1,1.4,2.4v8.2a2.7,2.7,0,0,1-1.4,2.4l-7.1,4.1a2.7,2.7,0,0,1-2.7,0l-7.1-4.1a2.7,2.7,0,0,1-1.4-2.4V351a2.7,2.7,0,0,1,1.4-2.4l7.1-4.1A2.7,2.7,0,0,1,86.1,344.5Z" style="fill:#d3de46"/><path d="M72.6,355l6.3,3.6a2.4,2.4,0,0,1,1.2,2.1V368a2.4,2.4,0,0,1-1.2,2.1l-6.3,3.6a2.4,2.4,0,0,1-2.4,0l-6.3-3.6a2.4,2.4,0,0,1-1.2-2.1v-7.3a2.4,2.4,0,0,1,1.2-2.1l6.3-3.6A2.4,2.4,0,0,1,72.6,355Z" style="fill:#bbbe3a"/><path d="M72.6,351.3l7.1,4.1a2.7,2.7,0,0,1,1.4,2.4V366a2.7,2.7,0,0,1-1.4,2.4l-7.1,4.1a2.7,2.7,0,0,1-2.7,0l-7.1-4.1a2.7,2.7,0,0,1-1.4-2.4v-8.2a2.7,2.7,0,0,1,1.4-2.4l7.1-4.1A2.7,2.7,0,0,1,72.6,351.3Z" style="fill:#d3de46"/><rect x="73.9" y="368.9" width="10.1" height="6.41" style="fill:#6e8c3b"/><path d="M70.2,350.2l1.5,2.6a1,1,0,0,1,0,1l-1.5,2.6a1,1,0,0,1-.9.5h-3a1,1,0,0,1-.9-.5l-1.5-2.6a1,1,0,0,1,0-1l1.5-2.6a1,1,0,0,1,.9-.5h3A1,1,0,0,1,70.2,350.2Z" style="fill:#6e8c3b"/><path d="M70.3,349.7l1.5,2.6a1,1,0,0,1,0,1l-1.5,2.6a1,1,0,0,1-.9.5h-3a1,1,0,0,1-.9-.5L64,353.3a1,1,0,0,1,0-1l1.5-2.6a1,1,0,0,1,.9-.5h3A1,1,0,0,1,70.3,349.7Z" style="fill:#8ea43b"/><path d="M81.4,347.2l9.2,5.3a3.5,3.5,0,0,1,1.8,3.1v10.7a3.5,3.5,0,0,1-1.8,3.1l-9.2,5.3a3.5,3.5,0,0,1-3.5,0l-9.2-5.3a3.5,3.5,0,0,1-1.8-3.1V355.6a3.5,3.5,0,0,1,1.8-3.1l9.2-5.3A3.5,3.5,0,0,1,81.4,347.2Z" style="fill:#6e8c3b"/><path d="M80.7,345.8l9.2,5.3a3.5,3.5,0,0,1,1.8,3.1v10.7a3.5,3.5,0,0,1-1.8,3.1l-9.2,5.3a3.5,3.5,0,0,1-3.5,0l-9.2-5.3a3.5,3.5,0,0,1-1.8-3.1V354.2a3.5,3.5,0,0,1,1.8-3.1l9.2-5.3A3.5,3.5,0,0,1,80.7,345.8Z" style="fill:#a3c23a"/><path d="M93.6,357.2l3.7,6.6a2.5,2.5,0,0,1,0,2.5l-3.8,6.5a2.5,2.5,0,0,1-2.2,1.2H83.7a2.5,2.5,0,0,1-2.2-1.3l-3.7-6.6a2.5,2.5,0,0,1,0-2.5l3.8-6.5a2.5,2.5,0,0,1,2.2-1.2h7.5A2.5,2.5,0,0,1,93.6,357.2Z" style="fill:#6e8c3b"/><path d="M93.6,356l3.7,6.6a2.5,2.5,0,0,1,0,2.5l-3.8,6.5a2.5,2.5,0,0,1-2.2,1.2H83.8a2.5,2.5,0,0,1-2.2-1.3L77.9,365a2.5,2.5,0,0,1,0-2.5l3.8-6.5a2.5,2.5,0,0,1,2.2-1.2h7.5A2.5,2.5,0,0,1,93.6,356Z" style="fill:#8ea43b"/></g><rect x="259" y="261.2" width="312.2" height="101.88" style="fill:#e2892f"/><rect x="509.6" y="153.9" width="61.3" height="107.29" style="fill:#4d4d4d"/><circle cx="540.1" cy="232.3" r="21.5" style="fill:#f8f8f8"/><circle cx="540.1" cy="232.3" r="17.9" style="fill:#1a1a1a"/><circle cx="540.1" cy="232.3" r="6.3" style="fill:#f8f8f8"/><circle cx="540.1" cy="196.3" r="4.4" style="fill:#f8f8f8"/><circle cx="540.1" cy="175.9" r="8.6" style="fill:none;stroke:#f8f8f8;stroke-miterlimit:10;stroke-width:3.0684048975473712px"/><rect x="258.8" y="153.9" width="61.3" height="107.29" style="fill:#4d4d4d"/><circle cx="289.2" cy="232.3" r="21.5" style="fill:#f8f8f8"/><circle cx="289.2" cy="232.3" r="17.9" style="fill:#1a1a1a"/><circle cx="289.2" cy="232.3" r="6.3" style="fill:#f8f8f8"/><circle cx="289.2" cy="196.3" r="4.4" style="fill:#f8f8f8"/><circle cx="289.2" cy="175.9" r="8.6" style="fill:none;stroke:#f8f8f8;stroke-miterlimit:10;stroke-width:3.0684048975473712px"/><rect x="258.8" y="276.3" width="312.4" height="86.8" style="fill:#99691c"/><g style="opacity:0.19999699999999998"><g style="clip-path:url(#clip-path-4)"><path d="M407.1,263.8c-18.2,0-32.9,2.2-32.9,5s14.7,5,32.9,5,32.9-2.2,32.9-5-14.7-5-32.9-5" style="fill:#231f20"/></g></g><path d="M422.5,264.1l-7.6-4.8h-8.4v9.3h18.2v-2.4c-.3-1.5-2.2-2.1-2.2-2.1" style="fill:#e6b15a"/><rect x="368.1" y="109.3" width="89.2" height="164.46" style="fill:none"/><rect x="406.5" y="198" width="8.5" height="59.48" style="fill:#768584"/><path d="M390.5,143.5s-5.3-.7-4.8,23.5v25.5h34.3V156.2s.8-7.3-3-11.3Z" style="fill:#80b6dc"/><path d="M420.3,145.9a2.8,2.8,0,0,0-2.8,2.7v3.3h5.6v-3.3a2.8,2.8,0,0,0-2.8-2.7" style="fill:#8bc6ec"/><line x1="433.7" y1="168.4" x2="437.7" y2="172.3" style="fill:#8bc6ec"/><rect x="368.1" y="109.3" width="89.2" height="164.46" style="fill:none"/><rect x="406.5" y="253.5" width="8.5" height="3.98" style="fill:#a1abac"/><path d="M407.9,264.1l-7.6-4.8H392v9.3h18.2v-2.4c-.3-1.5-2.2-2.1-2.2-2.1" style="fill:#dfa138"/><path d="M402.8,210.9c9.5,0,17.2-8.2,17.2-18.3H385.7c0,10.1,7.7,18.3,17.2,18.3" style="fill:#6c7679"/><rect x="368.1" y="109.3" width="89.2" height="164.46" style="fill:none"/><rect x="391.8" y="198" width="8.5" height="59.48" style="fill:#6c7679"/><polygon points="400.4 253.5 400.4 253.5 400.4 257.4 391.8 257.4 391.8 257.5 400.4 257.5 400.4 253.5" style="fill:#fff"/><rect x="391.8" y="253.5" width="8.5" height="3.9" style="fill:#9ca0a2"/><path d="M390.7,131.7s4.8,15.4,4.7,17.4l5.3,4.5h4.1s3.9-5.8,6.5-7,1.2-9,1.4-10.7Z" style="fill:#eda479"/><path d="M412.2,136.6s0,6.7-9.6,6.7a27.9,27.9,0,0,1-4.2-1c-.9-.4,1.5,6.4-.5,8.4l4.1,4.1,3.1.7,6.6-8.6Z" style="fill:#eeb178"/><path d="M395.2,144.4s9.5,10.5,16.6-1.5l.6,13.1-25.6-.4,1.6-10.4,2.9-2.7Z" style="fill:#80b6dc"/><path d="M414.7,127.2c0,8.5-5.4,15.4-12.1,15.4s-12.1-6.9-12.1-15.4,5.4-15.4,12.1-15.4,12.1,6.9,12.1,15.4" style="fill:#eeb178"/><path d="M398.7,141.8a9.1,9.1,0,0,1-4-6.1c-.7-4.2-.6-1.3-1.2-1.2s-.8,1.7-.8,1.7l1.4,4.1Z" style="fill:#eda479"/><path d="M408.7,137.5c-.7.7-3.4,1.6-3.1-.3h-2.2s.3,1.5-2.1,1.2-1.4-2.8-1.4-2.8,2.9-2.7,8.9-.5c0,0,.7,1.8,0,2.5m1.4-3.7c-.7-.3-3.3-.9-4.1-.5s-3.3-.1-3.3-.1a3.7,3.7,0,0,0-3.2.5c-.7.3-2.2,1.3-1.7,1.7l.8.9c.2,2.8.7,5.4.7,5.4a9.4,9.4,0,0,0,10.9-.8c.3-1.2-.1-5.8-.1-5.8s.7-1.1,0-1.3" style="fill:#825c45"/><path d="M400.9,125.8c0,.8-.4,1.4-1,1.4s-1-.6-1-1.4.4-1.4,1-1.4,1,.6,1,1.4" style="fill:#363631"/><rect x="368.1" y="109.3" width="89.2" height="164.46" style="fill:none"/><rect x="399" y="123.6" width="1.9" height="2.18" style="fill:#363631"/><g style="clip-path:url(#clip-path-5)"><path d="M400.6,126.1a.4.4,0,1,1-.4-.4.4.4,0,0,1,.4.4" style="fill:#8a8989"/></g><rect x="396.4" y="123.1" width="5.5" height="1.43" style="fill:#825840"/><g style="clip-path:url(#clip-path-5)"><path d="M410,125.8c0,.8-.4,1.4-1,1.4s-1-.6-1-1.4.4-1.4,1-1.4,1,.6,1,1.4" style="fill:#363631"/></g><rect x="408.1" y="123.6" width="1.9" height="2.18" style="fill:#363631"/><g style="clip-path:url(#clip-path-5)"><path d="M409.7,126.1a.4.4,0,1,1-.4-.4.4.4,0,0,1,.4.4" style="fill:#8a8989"/></g><rect x="406.9" y="123.1" width="5.2" height="1.43" style="fill:#825840"/><g style="clip-path:url(#clip-path-5)"><path d="M401.7,136.8s.1-.9,2.4-1.1,2.3,0,2.5.4l-.2.5s.2-.4-2.3-.1-2.1.7-2.1.7" style="fill:#df8767"/></g><path d="M407.9,195.9a16.4,16.4,0,0,0,8.3-3.5c5.8-4.7,6.3-13.9,2.5-20.3s-13-11.7-21.4-6.8a16.4,16.4,0,0,0-5,4.6,3.2,3.2,0,0,1-3.3,1.3,21.7,21.7,0,0,0-15.1,2c-10.2,5.5-13.3,18.3-7.8,28.6s18.6,15.7,29.3,9.3a21.7,21.7,0,0,0,9.8-12.9A3.2,3.2,0,0,1,407.9,195.9Z" style="fill:#e2892f"/><rect x="422.6" y="144.3" width="6.2" height="46.76" transform="translate(351.5 -283.8) rotate(59.2)" style="fill:#4e5859"/><circle cx="400.1" cy="182.9" r="6.5" transform="translate(-37.2 230.9) rotate(-30.8)" style="fill:#1a1a1a;stroke:#8c6239;stroke-miterlimit:10;stroke-width:1.5674556203623524px"/><rect x="374.7" y="192.9" width="13" height="2.72" transform="translate(352.6 -232.6) rotate(59.2)" style="fill:#825840"/><polygon points="452.3 145.9 444.2 153 447.4 158.3 457.5 154.7 452.3 145.9" style="fill:#825840"/><rect x="454.9" y="155" width="1.6" height="0.61" transform="translate(355.4 -315.6) rotate(59.2)" style="fill:#e6b15a"/><rect x="455.4" y="155" width="1.3" height="1.84" rx="0.7" ry="0.7" transform="translate(356.2 -315.6) rotate(59.2)" style="fill:#e6b15a"/><rect x="451.8" y="156.1" width="1.6" height="0.61" transform="translate(354.9 -312.4) rotate(59.2)" style="fill:#e6b15a"/><rect x="452.4" y="156.1" width="1.3" height="1.84" rx="0.7" ry="0.7" transform="translate(355.7 -312.4) rotate(59.2)" style="fill:#e6b15a"/><rect x="448.7" y="157.3" width="1.6" height="0.61" transform="translate(354.4 -309.1) rotate(59.2)" style="fill:#e6b15a"/><rect x="449.2" y="157.4" width="1.3" height="1.84" rx="0.7" ry="0.7" transform="translate(355.2 -309.1) rotate(59.2)" style="fill:#e6b15a"/><rect x="450" y="146.8" width="1.6" height="0.61" transform="translate(555.5 609.6) rotate(-120.8)" style="fill:#e6b15a"/><rect x="449.7" y="145.5" width="1.3" height="1.84" rx="0.7" ry="0.7" transform="translate(555.5 608.2) rotate(-120.8)" style="fill:#e6b15a"/><rect x="447.6" y="148.9" width="1.6" height="0.61" transform="translate(550 610.7) rotate(-120.8)" style="fill:#e6b15a"/><rect x="447.3" y="147.6" width="1.3" height="1.84" rx="0.7" ry="0.7" transform="translate(550 609.3) rotate(-120.8)" style="fill:#e6b15a"/><rect x="445" y="151.1" width="1.6" height="0.61" transform="translate(544.2 611.8) rotate(-120.8)" style="fill:#e6b15a"/><rect x="444.7" y="149.8" width="1.3" height="1.84" rx="0.7" ry="0.7" transform="translate(544.2 610.4) rotate(-120.8)" style="fill:#e6b15a"/><rect x="442.5" y="155.6" width="6.2" height="0.38" transform="translate(351 -306.7) rotate(59.2)" style="fill:#1a1a1a"/><polyline points="380.6 191.7 445.6 152.9 446.2 152.1" style="fill:none;stroke:#fff;stroke-miterlimit:10;stroke-width:0.22215907515417296px"/><polyline points="381.5 193.3 446.5 154.5 451.2 147.8" style="fill:none;stroke:#fff;stroke-miterlimit:10;stroke-width:0.22215907515417296px"/><polyline points="382.5 194.9 447.5 156.1 452.2 155.7" style="fill:none;stroke:#fff;stroke-miterlimit:10;stroke-width:0.22215907515417296px"/><polyline points="383 195.7 448 156.9 449.1 156.9" style="fill:none;stroke:#fff;stroke-miterlimit:10;stroke-width:0.22215907515417296px"/><polyline points="382 194.1 447 155.3 455.3 154.6" style="fill:none;stroke:#fff;stroke-miterlimit:10;stroke-width:0.22215907515417296px"/><polyline points="381.1 192.5 446.1 153.7 448.8 149.9" style="fill:none;stroke:#fff;stroke-miterlimit:10;stroke-width:0.22215907515417296px"/><path d="M393.1,152c1.2,0,2.5-.7,2.5-4.5s-2.8-2.7-2.8-2.7-24.7-2.1-24.7,19.5,25,19.1,25,19.1v-5.7s-17.8,1.7-17.8-13.1S393.1,152,393.1,152" style="fill:#76a8c8"/><path d="M396.4,176.2h-2.9a1.6,1.6,0,0,0-1.6,1.2,5.6,5.6,0,0,1-1.6.6v5.7a3.8,3.8,0,0,1,1.9.9l.6.5h0l.7.2h2.9a1.6,1.6,0,0,0,1.6-1.6v-5.8a1.6,1.6,0,0,0-1.6-1.6" style="fill:#eda479"/><path d="M398.9,113.2a17,17,0,0,0,2.9.9c1.1.2,6.2,1.8,7.5,4.9s2.2,7.1,4.1,10a6.6,6.6,0,0,1,.8,2.7c0,1.3-2.9,5.7-3,8.3s0,4.8-.6,6.2-1.1,3.8-.6,4.9a4.8,4.8,0,0,0,2.2,2s-.5-.5.7-.8a5.1,5.1,0,0,1,2,.1,3.3,3.3,0,0,0,1.6.1s-1.2-.8,0-.9.7.1,1.8.4,1.5.4,1.9.2-2.7-1.2-1.4-2.2.5-.9-.6-1.1,3.5,1,5.4-.2a4.1,4.1,0,0,1-3.1-2.7c-1-2.4-.2-3.4.6-4.2s.7-2.8-1.6-4.2-1-3.2-.5-4a13.8,13.8,0,0,0-.2-8.9c-1.4-3.1-4.1-8-4.5-9s-6.2-9.1-15.1-5.7Z" style="fill:#825840"/><path d="M399.1,110.2a13.5,13.5,0,0,0-9.7,11.4,23.3,23.3,0,0,0-.8,9.1c.7,4.2-.2,5.5-.5,7.2s-1,4.2,0,5.8-.3,5.5-1.8,5.5a5,5,0,0,0,5.5-3.1h.4c.5.3-.1,2.3,1.4,3.7s.2-.5.5-1,.6-1.1,1-1,1.5,1.6,1.8,2.7.5-6.8-1.8-10.2-1.1-4.5-1.1-8.1-1.6-8-1.7-9.5,2.1-4.5,2.3-6,2.8-2.8,4.4-3.9Z" style="fill:#825840"/><path d="M404.8,111.3s8.8,2.8,9.9,11.2c0,0,.1-9.5-9.9-11.2" style="fill:#4d3c2f"/><path d="M414.7,131.2h0m.1,0c.4.2,1.8,1,1.5,4.4,0,0-.5,1,1.5,2.3s2.9,2.1,2.3,3.7c0,0,1.8-1.9-1.6-3.7s-2-2.1-1.9-4.2a2.3,2.3,0,0,0-1.9-2.6" style="fill:#4d3c2f"/><path d="M392,136.1a3.5,3.5,0,0,1-.6,3.5c-1.4,1.5-1.7,1.7-1.7,3s.9-1.5,2-1.5h.2c-.1,0-.4.2.4,2.8a17.1,17.1,0,0,0,1.8,4.2,7,7,0,0,1,0-2.6,18.4,18.4,0,0,0-2-9.4" style="fill:#4d3c2f"/><path d="M413.9,133.4a1.4,1.4,0,0,0-.1.5v-.5m-.1.5a25.8,25.8,0,0,1-1.1,2.6l-.4,1.8a42.5,42.5,0,0,0,.7,7.5l.4-3.1a31.1,31.1,0,0,1,.9-6.2,5.6,5.6,0,0,1-.5-2.6" style="fill:#4d3c2f"/><path d="M398.4,112.8s-5.5,3.1-5.6,6.4a8.5,8.5,0,0,1,5.6-6.4" style="fill:#1e2018"/><path d="M390.5,121.4a25,25,0,0,0,0,11.5s-.7-3.6-.3-5.3a11.6,11.6,0,0,0,.3-4.2,6.3,6.3,0,0,1,0-2" style="fill:#4d3c2f"/><path d="M394.7,126.7c0,1.3-.8,2.4-1.8,2.4s-1.8-1.1-1.8-2.4.8-2.4,1.8-2.4,1.8,1.1,1.8,2.4" style="fill:#eeb178"/><path d="M393.7,126.7c0,.7-.4,1.2-.8,1.2s-.8-.6-.8-1.2.4-1.2.8-1.2.8.6.8,1.2" style="fill:#e18869"/><path d="M437.7,156.4a2.8,2.8,0,0,1,4.2,0l3.7,3.6s1.9,2,.1,3.9l-8.1,8.3-4-3.9,2.3-2.3s2.1-1.6-.1-3.8-.7-3.3.1-4.1l1.8-1.8" style="fill:#eeb178"/><ellipse cx="460.9" cy="266.4" rx="7.6" ry="3" style="fill:#4d4d4d"/><ellipse cx="460.9" cy="264.4" rx="7.6" ry="3" style="fill:#6d6e71"/><rect x="459.8" y="175.5" width="1.9" height="89.44" style="fill:#a1abac"/><ellipse cx="455.8" cy="170.1" rx="3.6" ry="3.8" transform="translate(79.1 477.9) rotate(-59.7)" style="fill:#4d4d4d"/><polygon points="468.4 179.9 470.6 176.2 459.8 168.4 456.3 174.4 468.4 179.9" style="fill:#768584"/><polygon points="455.3 173.9 456.3 174.4 459.8 168.4 458.9 167.7 455.3 173.9" style="fill:#a1abac"/><polygon points="468.4 179.9 467.5 179.5 469.7 175.5 470.6 176.2 468.4 179.9" style="fill:#a1abac"/><path d="M571,153.9s177.1,116,302.2,105.3" style="fill:none;stroke:#dcd3c0;stroke-miterlimit:10;stroke-width:4.443181409655824px"/><path d="M258.8,153.9S41.7,255.2-160.3,263.4" style="fill:none;stroke:#dcd3c0;stroke-miterlimit:10;stroke-width:4.443181409655824px"/><polygon points="601.3 172.3 601.3 201.8 623.2 184.5 601.3 172.3" style="fill:#80b6dc"/><polygon points="626.8 188 629.1 217.4 649.6 198.4 626.8 188" style="fill:#dd172f"/><polygon points="653.2 201.6 655.5 231 676 212.1 653.2 201.6" style="fill:#fbb03b"/><polygon points="681.7 215.3 685.5 244.6 705 224.6 681.7 215.3" style="fill:#80b6dc"/><polygon points="709 227.6 715.1 256.4 733 235 709 227.6" style="fill:#dd172f"/><polygon points="737 237.7 743.1 266.6 760.9 245.1 737 237.7" style="fill:#fbb03b"/><polygon points="764.9 246.2 773.4 274.5 789.5 251.7 764.9 246.2" style="fill:#80b6dc"/><polygon points="793.9 253.9 804.6 281.4 818.7 257.4 793.9 253.9" style="fill:#dd172f"/><polygon points="246.5 159.7 244.5 189.2 223.8 170.4 246.5 159.7" style="fill:#80b6dc"/><polygon points="219 172.5 214.6 201.7 195.5 181.4 219 172.5" style="fill:#dd172f"/><polygon points="190.6 183.3 186.3 212.5 167.1 192.2 190.6 183.3" style="fill:#fbb03b"/><polygon points="161.2 195 155.4 224 137.3 202.7 161.2 195" style="fill:#80b6dc"/><polygon points="132.7 204.8 125.8 233.5 108.5 211.6 132.7 204.8" style="fill:#dd172f"/><polygon points="103.8 212.7 97.6 241.6 79.8 220 103.8 212.7" style="fill:#fbb03b"/><polygon points="75 222 67.5 250.6 50.7 228.3 75 222" style="fill:#80b6dc"/><polygon points="43.8 230.3 36.1 258.8 19.4 236.3 43.8 230.3" style="fill:#dd172f"/><polygon points="14 238.2 5 266.3 -10.6 243.2 14 238.2" style="fill:#fbb03b"/><path d="M674.6,377.4l6.3,3.6a2.4,2.4,0,0,1,1.2,2.1v7.3a2.4,2.4,0,0,1-1.2,2.1l-6.3,3.6a2.4,2.4,0,0,1-2.4,0l-6.3-3.6a2.4,2.4,0,0,1-1.2-2.1v-7.3a2.4,2.4,0,0,1,1.2-2.1l6.3-3.6A2.4,2.4,0,0,1,674.6,377.4Z" style="fill:#bbbe3a"/><path d="M674.6,373.6l7.1,4.1a2.7,2.7,0,0,1,1.4,2.4v8.2a2.7,2.7,0,0,1-1.4,2.4l-7.1,4.1a2.7,2.7,0,0,1-2.7,0l-7.1-4.1a2.7,2.7,0,0,1-1.4-2.4v-8.2a2.7,2.7,0,0,1,1.4-2.4l7.1-4.1A2.7,2.7,0,0,1,674.6,373.6Z" style="fill:#d3de46"/><path d="M661.1,384.1l6.3,3.6a2.4,2.4,0,0,1,1.2,2.1v7.3a2.4,2.4,0,0,1-1.2,2.1l-6.3,3.6a2.4,2.4,0,0,1-2.4,0l-6.3-3.6a2.4,2.4,0,0,1-1.2-2.1v-7.3a2.4,2.4,0,0,1,1.2-2.1l6.3-3.6A2.4,2.4,0,0,1,661.1,384.1Z" style="fill:#bbbe3a"/><path d="M661.1,380.4l7.1,4.1a2.7,2.7,0,0,1,1.4,2.4v8.2a2.7,2.7,0,0,1-1.4,2.4l-7.1,4.1a2.7,2.7,0,0,1-2.7,0l-7.1-4.1a2.7,2.7,0,0,1-1.4-2.4v-8.2a2.7,2.7,0,0,1,1.4-2.4l7.1-4.1A2.7,2.7,0,0,1,661.1,380.4Z" style="fill:#d3de46"/><rect x="662.4" y="398" width="10.1" height="6.41" style="fill:#6e8c3b"/><path d="M658.8,379.3l1.5,2.6a1,1,0,0,1,0,1l-1.5,2.6a1,1,0,0,1-.9.5h-3a1,1,0,0,1-.9-.5l-1.5-2.6a1,1,0,0,1,0-1l1.5-2.6a1,1,0,0,1,.9-.5h3A1,1,0,0,1,658.8,379.3Z" style="fill:#6e8c3b"/><path d="M658.8,378.8l1.5,2.6a1,1,0,0,1,0,1l-1.5,2.6a1,1,0,0,1-.9.5h-3a1,1,0,0,1-.9-.5l-1.5-2.6a1,1,0,0,1,0-1l1.5-2.6a1,1,0,0,1,.9-.5h3A1,1,0,0,1,658.8,378.8Z" style="fill:#8ea43b"/><path d="M670,376.3l9.2,5.3a3.5,3.5,0,0,1,1.8,3.1v10.7a3.5,3.5,0,0,1-1.8,3.1l-9.2,5.3a3.5,3.5,0,0,1-3.5,0l-9.2-5.3a3.5,3.5,0,0,1-1.8-3.1V384.7a3.5,3.5,0,0,1,1.8-3.1l9.2-5.3A3.5,3.5,0,0,1,670,376.3Z" style="fill:#6e8c3b"/><path d="M669.2,374.9l9.2,5.3a3.5,3.5,0,0,1,1.8,3.1v10.7a3.5,3.5,0,0,1-1.8,3.1l-9.2,5.3a3.5,3.5,0,0,1-3.5,0l-9.2-5.3a3.5,3.5,0,0,1-1.8-3.1V383.3a3.5,3.5,0,0,1,1.8-3.1l9.2-5.3A3.5,3.5,0,0,1,669.2,374.9Z" style="fill:#a3c23a"/><path d="M682.1,386.3l3.7,6.6a2.5,2.5,0,0,1,0,2.5l-3.8,6.5a2.5,2.5,0,0,1-2.2,1.2h-7.5a2.5,2.5,0,0,1-2.2-1.3l-3.7-6.6a2.5,2.5,0,0,1,0-2.5l3.8-6.5a2.5,2.5,0,0,1,2.2-1.2h7.5A2.5,2.5,0,0,1,682.1,386.3Z" style="fill:#6e8c3b"/><path d="M682.1,385.1l3.7,6.6a2.5,2.5,0,0,1,0,2.5l-3.8,6.5a2.5,2.5,0,0,1-2.2,1.2h-7.5a2.5,2.5,0,0,1-2.2-1.3l-3.7-6.6a2.5,2.5,0,0,1,0-2.5l3.8-6.5a2.5,2.5,0,0,1,2.2-1.2H680A2.5,2.5,0,0,1,682.1,385.1Z" style="fill:#8ea43b"/><path d="M274.9,364s7-15,6.1-24.6c0,0,1.6,14.2.1,19.1,0,0,3.1-5.5,4.8-6.8,0,0-2.3,5.4-1.4,8.8,0,0,5.6-.5,7-12.5,0,0,.3,11.6,1.2,14.2,0,0,3.8-12.7,5.5-15,0,0-.6,9.3,0,11.6a13.2,13.2,0,0,0,3.5-3.4s-2.7,4.9-.6,7.2a13,13,0,0,0,6.1-8.1s.3,6.3,2,9.5Z" style="fill:#d3de46"/><path d="M244,364s7-15,6.1-24.6c0,0,1.6,14.2.1,19.1,0,0,3.1-5.5,4.8-6.8,0,0-2.3,5.4-1.4,8.8,0,0,5.6-.5,7-12.5,0,0,.3,11.6,1.2,14.2,0,0,3.8-12.7,5.5-15,0,0-.6,9.3,0,11.6a13.2,13.2,0,0,0,3.5-3.4s-2.7,4.9-.6,7.2a13,13,0,0,0,6.1-8.1s.3,6.3,2,9.5Z" style="fill:#d3de46"/><path d="M341,364s7-15,6.1-24.6c0,0,1.6,14.2.1,19.1,0,0,3.1-5.5,4.8-6.8,0,0-2.3,5.4-1.4,8.8,0,0,5.6-.5,7-12.5,0,0,.3,11.6,1.2,14.2,0,0,3.8-12.7,5.5-15,0,0-.6,9.3,0,11.6a13.2,13.2,0,0,0,3.5-3.4s-2.7,4.9-.6,7.2a13,13,0,0,0,6.1-8.1s.3,6.3,2,9.5Z" style="fill:#d3de46"/><path d="M310.2,364s7-15,6.1-24.6c0,0,1.6,14.2.1,19.1,0,0,3.1-5.5,4.8-6.8,0,0-2.3,5.4-1.4,8.8,0,0,5.6-.5,7-12.5,0,0,.3,11.6,1.2,14.2,0,0,3.8-12.7,5.5-15,0,0-.6,9.3,0,11.6a13.2,13.2,0,0,0,3.5-3.4s-2.7,4.9-.6,7.2a13,13,0,0,0,6.1-8.1s.3,6.3,2,9.5Z" style="fill:#d3de46"/><path d="M459.3,364s7-15,6.1-24.6c0,0,1.6,14.2.1,19.1,0,0,3.1-5.5,4.8-6.8,0,0-2.3,5.4-1.4,8.8,0,0,5.6-.5,7-12.5,0,0,.3,11.6,1.2,14.2,0,0,3.8-12.7,5.5-15,0,0-.6,9.3,0,11.6a13.2,13.2,0,0,0,3.5-3.4s-2.7,4.9-.6,7.2a13,13,0,0,0,6.1-8.1s.3,6.3,2,9.5Z" style="fill:#d3de46"/><path d="M428.5,364s7-15,6.1-24.6c0,0,1.6,14.2.1,19.1,0,0,3.1-5.5,4.8-6.8,0,0-2.3,5.4-1.4,8.8,0,0,5.6-.5,7-12.5,0,0,.3,11.6,1.2,14.2,0,0,3.8-12.7,5.5-15,0,0-.6,9.3,0,11.6a13.2,13.2,0,0,0,3.5-3.4s-2.7,4.9-.6,7.2a13,13,0,0,0,6.1-8.1s.3,6.3,2,9.5Z" style="fill:#d3de46"/><path d="M561.7,363s7-15,6.1-24.6c0,0,1.6,14.2.1,19.1,0,0,3.1-5.5,4.8-6.8,0,0-2.3,5.4-1.4,8.8,0,0,5.6-.5,7-12.5,0,0,.3,11.6,1.2,14.2,0,0,3.8-12.7,5.5-15,0,0-.6,9.3,0,11.6a13.2,13.2,0,0,0,3.5-3.4s-2.7,4.9-.6,7.2a13,13,0,0,0,6.1-8.1s.3,6.3,2,9.5Z" style="fill:#d3de46"/><path d="M530.9,363s7-15,6.1-24.6c0,0,1.6,14.2.1,19.1,0,0,3.1-5.5,4.8-6.8,0,0-2.3,5.4-1.4,8.8,0,0,5.6-.5,7-12.5,0,0,.3,11.6,1.2,14.2,0,0,3.8-12.7,5.5-15,0,0-.6,9.3,0,11.6a13.2,13.2,0,0,0,3.5-3.4s-2.7,4.9-.6,7.2a13,13,0,0,0,6.1-8.1s.3,6.3,2,9.5Z" style="fill:#d3de46"/></g></svg>