<svg id="Layer_1" data-name="Layer 1" xmlns="http://www.w3.org/2000/svg" viewBox="0 0 849.3 553.7"><title>governance-22-22</title><path d="M0,553.7s281.6-14.1,507.7-14.1,341.6,14.1,341.6,14.1Z" style="fill:#8ea43b"/><path d="M405,532.3l4,2.3a1.5,1.5,0,0,1,.8,1.3v4.6a1.5,1.5,0,0,1-.8,1.3l-4,2.3a1.5,1.5,0,0,1-1.5,0l-4-2.3a1.5,1.5,0,0,1-.8-1.3v-4.6a1.5,1.5,0,0,1,.8-1.3l4-2.3A1.5,1.5,0,0,1,405,532.3Z" style="fill:#6e8c3b"/><path d="M404.6,531.6l4,2.3a1.5,1.5,0,0,1,.8,1.3v4.6a1.5,1.5,0,0,1-.8,1.3l-4,2.3a1.5,1.5,0,0,1-1.5,0l-4-2.3a1.5,1.5,0,0,1-.8-1.3v-4.6a1.5,1.5,0,0,1,.8-1.3l4-2.3A1.5,1.5,0,0,1,404.6,531.6Z" style="fill:#a3c23a"/><polygon points="404 536.6 404.1 538.6 406.2 536 404.1 538.8 404.6 553.7 403.5 553.7 403.8 541.8 402.9 538.6 403.8 540.8 404 536.6" style="fill:#967e2e"/><path d="M273,546.8c0-.5,3.9-.8,8.7-.8s8.7.4,8.7.8-3.9.8-8.7.8-8.7-.4-8.7-.8" style="fill:#687833"/><path d="M283.7,495.5l9.7,5.6a3.7,3.7,0,0,1,1.8,3.2v11.1a3.7,3.7,0,0,1-1.8,3.2l-9.7,5.6a3.7,3.7,0,0,1-3.7,0l-9.7-5.6a3.7,3.7,0,0,1-1.8-3.2V504.3a3.7,3.7,0,0,1,1.8-3.2l9.7-5.6a3.7,3.7,0,0,1,3.7,0" style="fill:#c4bf2f"/><path d="M282.9,494.1l9.7,5.6a3.7,3.7,0,0,1,1.8,3.2V514a3.7,3.7,0,0,1-1.8,3.2l-9.7,5.6a3.7,3.7,0,0,1-3.7,0l-9.7-5.6a3.7,3.7,0,0,1-1.8-3.2V502.8a3.7,3.7,0,0,1,1.8-3.2l9.7-5.6a3.7,3.7,0,0,1,3.7,0" style="fill:#dbdc2b"/><polygon points="281.5 506 281.4 510.8 276.3 504.5 281.3 511.3 280.1 547 282.7 547 282 518.5 284.3 510.8 281.9 516 281.5 506" style="fill:#9d802e"/><path d="M474.6,553.7s4.2-9.1,3.7-14.8c0,0,1,8.5,0,11.5,0,0,1.9-3.3,2.9-4.1s-1.4,3.2-.9,5.3c0,0,3.4-.3,4.2-7.5,0,0,.2,7,.7,8.5,0,0,2.3-7.7,3.3-9.1s-.3,5.6,0,7a8,8,0,0,0,2.1-2.1s-1.6,2.9-.4,4.3a7.8,7.8,0,0,0,3.7-4.9s.2,3.8,1.2,5.8Z" style="fill:#d3de46"/><path d="M456,553.7s4.2-9.1,3.7-14.8c0,0,1,8.5,0,11.5,0,0,1.9-3.3,2.9-4.1s-1.4,3.2-.9,5.3c0,0,3.4-.3,4.2-7.5,0,0,.2,7,.7,8.5,0,0,2.3-7.7,3.3-9.1s-.3,5.6,0,7a8,8,0,0,0,2.1-2.1s-1.6,2.9-.4,4.3a7.8,7.8,0,0,0,3.7-4.9s.2,3.8,1.2,5.8Z" style="fill:#d3de46"/><path d="M514.5,553.7s4.2-9.1,3.7-14.8c0,0,1,8.5,0,11.5,0,0,1.9-3.3,2.9-4.1s-1.4,3.2-.9,5.3c0,0,3.4-.3,4.2-7.5,0,0,.2,7,.7,8.5,0,0,2.3-7.7,3.3-9.1s-.3,5.6,0,7a8,8,0,0,0,2.1-2.1s-1.6,2.9-.4,4.3a7.8,7.8,0,0,0,3.7-4.9s.2,3.8,1.2,5.8Z" style="fill:#d3de46"/><path d="M495.9,553.7s4.2-9.1,3.7-14.8c0,0,1,8.5,0,11.5,0,0,1.9-3.3,2.9-4.1s-1.4,3.2-.9,5.3c0,0,3.4-.3,4.2-7.5,0,0,.2,7,.7,8.5,0,0,2.3-7.7,3.3-9.1s-.3,5.6,0,7a8,8,0,0,0,2.1-2.1s-1.6,2.9-.4,4.3a7.8,7.8,0,0,0,3.7-4.9s.2,3.8,1.2,5.8Z" style="fill:#d3de46"/><path d="M239.9,553.7s4.2-9.1,3.7-14.8c0,0,1,8.5,0,11.5,0,0,1.9-3.3,2.9-4.1s-1.4,3.2-.9,5.3c0,0,3.4-.3,4.2-7.5,0,0,.2,7,.7,8.5,0,0,2.3-7.7,3.3-9.1s-.3,5.6,0,7a8,8,0,0,0,2.1-2.1s-1.6,2.9-.4,4.3a7.8,7.8,0,0,0,3.7-4.9s.2,3.8,1.2,5.8Z" style="fill:#d3de46"/><path d="M221.3,553.7s4.2-9.1,3.7-14.8c0,0,1,8.5,0,11.5,0,0,1.9-3.3,2.9-4.1s-1.4,3.2-.9,5.3c0,0,3.4-.3,4.2-7.5,0,0,.2,7,.7,8.5,0,0,2.3-7.7,3.3-9.1s-.3,5.6,0,7a8,8,0,0,0,2.1-2.1s-1.6,2.9-.4,4.3a7.8,7.8,0,0,0,3.7-4.9s.2,3.8,1.2,5.8Z" style="fill:#d3de46"/><path d="M167.7,455.9,186,466.5a7,7,0,0,1,3.5,6.1v21.2a7,7,0,0,1-3.5,6.1l-18.3,10.6a7,7,0,0,1-7,0l-18.3-10.6a7,7,0,0,1-3.5-6.1V472.6a7,7,0,0,1,3.5-6.1l18.3-10.6A7,7,0,0,1,167.7,455.9Z" style="fill:#6e8c3b"/><path d="M166.2,453.2l18.3,10.6a7,7,0,0,1,3.5,6.1V491a7,7,0,0,1-3.5,6.1l-18.3,10.6a7,7,0,0,1-7,0l-18.3-10.6a7,7,0,0,1-3.5-6.1V469.8a7,7,0,0,1,3.5-6.1l18.3-10.6A7,7,0,0,1,166.2,453.2Z" style="fill:#a3c23a"/><polygon points="163.6 475.8 163.3 484.9 153.7 473 163.3 485.9 161 553.7 165.9 553.7 164.5 499.6 168.8 484.9 164.3 494.8 163.6 475.8" style="fill:#967e2e"/><path d="M145.9,471.5l14.4,8.3a5.5,5.5,0,0,1,2.8,4.8v16.6a5.5,5.5,0,0,1-2.8,4.8l-14.4,8.3a5.5,5.5,0,0,1-5.5,0L126,506a5.5,5.5,0,0,1-2.8-4.8V484.6a5.5,5.5,0,0,1,2.8-4.8l14.4-8.3A5.5,5.5,0,0,1,145.9,471.5Z" style="fill:#bbbe3a"/><path d="M144.2,469.5l14.4,8.3a5.5,5.5,0,0,1,2.8,4.8v16.6a5.5,5.5,0,0,1-2.8,4.8l-14.4,8.3a5.5,5.5,0,0,1-5.5,0L124.3,504a5.5,5.5,0,0,1-2.8-4.8V482.6a5.5,5.5,0,0,1,2.8-4.8l14.4-8.3A5.5,5.5,0,0,1,144.2,469.5Z" style="fill:#d3de46"/><polygon points="140.7 491.3 140.4 498.4 133 489.2 140.4 499.2 138.6 551.5 142.4 551.5 141.3 509.8 144.7 498.4 141.2 506 140.7 491.3" style="fill:#967e2e"/><polygon points="329.7 192.7 142.1 213 118.5 232.1 143.7 248.3 329.7 232.5 329.7 192.7" style="fill:#4d4d4d"/><path d="M165.6,225.2l-.2,3.5,6.5-.5v2.7l-6.5.5-.3,5.3-3.3.3.8-14.1,10.4-.9-.2,2.6Z" style="fill:#fff"/><path d="M188.8,227.7a8.7,8.7,0,0,1-8.1,7.8c-4.4.4-7.6-2.4-7.3-6.5a8.6,8.6,0,0,1,8.1-7.8C185.9,220.8,189,223.6,188.8,227.7Zm-12.1,1a3.8,3.8,0,0,0,4.2,4,5.2,5.2,0,0,0,4.6-4.8,3.7,3.7,0,0,0-4.1-4A5.2,5.2,0,0,0,176.7,228.7Z" style="fill:#fff"/><path d="M197.4,230H197l-3,.3-.2,4-3.3.3.8-14.1,6.3-.5c3.8-.3,5.8,1.3,5.6,4.4a5.5,5.5,0,0,1-2.9,4.8l2.8,4.4-3.7.3Zm-.2-2.6c1.8-.2,2.9-1,3-2.7s-.9-2.3-2.7-2.1l-3,.3-.3,4.8Z" style="fill:#fff"/><path d="M217.3,221l-.6,11.4-3.3.3.6-11.4-4.4.4v-2.7l12-1v2.7Z" style="fill:#fff"/><path d="M232.6,231l.3-5.6-6.5.6-.3,5.6-3.3.3.8-14.1,3.3-.3-.3,5.9,6.5-.6.3-5.9,3.3-.3-.8,14.1Z" style="fill:#fff"/><path d="M242.9,218.7l-.2,3.1,7-.6v2.6l-7,.6-.2,3.1,7.9-.7v2.6l-11.2.9.8-14.1,11-.9v2.6Z" style="fill:#fff"/><path d="M265.1,214.2c3.2-.3,5.1.9,5,3.1a3.7,3.7,0,0,1-2.7,3.3,2.9,2.9,0,0,1,2.8,3.3c-.1,2.4-2.3,4.1-5.7,4.4l-6.9.6.8-14.1Zm-3.7,6,3.2-.3c1.2-.1,2-.8,2.1-1.7s-.7-1.4-1.9-1.3l-3.2.3Zm-.3,5.8,3.2-.3c1.5-.1,2.5-.8,2.6-1.9s-.8-1.6-2.4-1.4l-3.2.3Z" style="fill:#fff"/><path d="M276.2,215.9,276,219l7-.6V221l-7,.6-.2,3.1,7.9-.7v2.6l-11.2.9.8-14.1,11-.9v2.6Z" style="fill:#fff"/><path d="M297.5,212.9l-1.4,2.7a9.2,9.2,0,0,0-4.4-1.1c-1.1.1-1.9.5-1.9,1.3-.1,2.6,7.6.5,7.3,5.6-.2,2.8-2.7,4.5-5.9,4.7a9.1,9.1,0,0,1-6.2-1.7l1.4-2.7a7.5,7.5,0,0,0,5,1.7c1.3-.1,2.2-.7,2.2-1.5.1-2.7-7.6-.5-7.3-5.5.1-2.6,2.5-4.4,5.8-4.6A9.5,9.5,0,0,1,297.5,212.9Z" style="fill:#fff"/><path d="M306,213.5l-.6,11.4-3.3.3.6-11.4-4.4.4v-2.7l12-1v2.7Z" style="fill:#fff"/><polygon points="246.5 168.2 241.4 168.2 221.1 187.1 241.4 205.1 246.5 205.9 246.5 168.2" style="fill:#8fa534"/><polygon points="348.2 255.9 358 255.9 511.6 238.3 543.9 207.8 501.4 183.4 495.3 181.9 348.2 255.9" style="fill:#204c18"/><polygon points="504.1 131.3 499.3 132.4 353.6 99.2 354.6 97.1 504.1 131.3" style="fill:#1a7b99"/><polygon points="352.9 75.5 360.5 75.5 546 56.8 577.5 25.8 531.2 0 352.9 75.5" style="fill:#4ea598"/><polygon points="329.7 530.2 329.7 35.6 340.6 11.5 344.5 31.8 344.5 530.2 329.7 530.2" style="fill:#c99f6f"/><polygon points="340.6 11.5 344.5 31.8 344.5 530.2 354.6 530.2 354.6 33.3 340.6 11.5" style="fill:#784e26"/><polygon points="337.1 43.4 159.3 8.7 110 28.1 158.3 65.3 337.1 94.1 337.1 43.4" style="fill:#f9c023"/><polygon points="329.7 105 219.8 125.2 205.8 147.8 224.5 161.9 329.7 144.7 329.7 105" style="fill:#b51024"/><polygon points="354.6 57.3 508.2 96.3 529.3 118.8 504.1 131.3 354.6 97.1 354.6 57.3" style="fill:#1d88b2"/><polygon points="353.9 172.4 420 182.4 439 171.7 422 157.4 353.9 141.8 353.9 172.4" style="fill:#ff8600"/><polygon points="338.6 174.4 246.5 168.2 226.6 187.3 246.5 205.9 338.6 199.7 338.6 174.4" style="fill:#a3c23b"/><polygon points="352.9 75.5 539 55.3 571.6 24.9 531.2 0 352.9 35.8 352.9 75.5" style="fill:#56bbaf"/><polygon points="348.2 255.9 503.1 237.2 535.8 206.9 495.3 181.9 348.2 216.2 348.2 255.9" style="fill:#2a6821"/><polygon points="421 182.4 417.9 182.4 353.8 173 354.9 172.4 421 182.4" style="fill:#e57200"/><polygon points="329.7 144.7 329.7 146.6 230 162.1 224.5 161.9 329.7 144.7" style="fill:#4d4d4d"/><path d="M166.8,41.7h-.3l-3.2-.5.3,5.3-3.5-.6-1-18.4,6.8,1.1a7.5,7.5,0,0,1,6.7,7.5c.2,2.8-.7,4.7-2.6,5.5l3.7,6.6-4-.7Zm-.5-3.5c1.9.3,3-.5,2.9-2.6a3.6,3.6,0,0,0-3.2-3.6l-3.2-.5.4,6.2Z" style="fill:#fff"/><path d="M176,48.5l-1-18.4,3.5.6,1,18.4Z" style="fill:#fff"/><path d="M196,42.6l.4,7.1a8.6,8.6,0,0,1-6.2,1.3c-4.7-.8-8.5-5.4-8.8-10.8s3.1-8.7,8-7.9a11.5,11.5,0,0,1,6.4,3.7l-1.8,2.6a7.9,7.9,0,0,0-4.4-2.8c-2.8-.5-4.7,1.7-4.6,4.9s2.5,6.1,5.2,6.6a5.4,5.4,0,0,0,3-.5l-.3-4.8Z" style="fill:#fff"/><path d="M210.1,54.2l-.4-7.3-7-1.2L203,53l-3.5-.6-1-18.4,3.5.6.4,7.7,7,1.2-.4-7.7,3.5.6,1,18.4Z" style="fill:#fff"/><path d="M222.9,41.6l.8,14.9-3.5-.6L219.4,41l-4.7-.8-.2-3.5,13,2.2.2,3.5Z" style="fill:#fff"/><path d="M248.1,45.2l-1.9,2.6a7.1,7.1,0,0,0-4.2-3.1c-2.7-.4-4.6,1.7-4.4,4.9s2.4,6,5.1,6.5a4.4,4.4,0,0,0,3.9-1.5l2.2,3a6.7,6.7,0,0,1-6.1,2.2c-4.6-.8-8.4-5.4-8.7-10.8s3-8.7,7.8-7.9A10.8,10.8,0,0,1,248.1,45.2Z" style="fill:#fff"/><path d="M261.7,62.8l-.4-7.3-7-1.2.4,7.3-3.5-.6-1-18.4,3.5.6.4,7.7,7,1.2-.4-7.7,3.5.6,1,18.4Z" style="fill:#fff"/><path d="M283.6,57.4c.3,5.3-3.1,8.8-7.8,8s-8.6-5.4-8.9-10.8,3.1-8.7,7.8-7.9S283.3,52.1,283.6,57.4Zm-13.1-2.2c.2,3.2,2.5,6.1,5.1,6.6s4.6-1.7,4.4-5-2.4-6.1-5-6.5S270.4,52,270.5,55.2Z" style="fill:#fff"/><path d="M286.5,67l-1-18.4,3.5.6,1,18.4Z" style="fill:#fff"/><path d="M305.8,54.9,304,57.5a7.1,7.1,0,0,0-4.2-3.1c-2.7-.4-4.6,1.7-4.4,4.9s2.4,6,5.1,6.5a4.4,4.4,0,0,0,3.9-1.5l2.2,3a6.7,6.7,0,0,1-6.1,2.2c-4.6-.8-8.4-5.4-8.7-10.8s3-8.7,7.8-7.9A10.8,10.8,0,0,1,305.8,54.9Z" style="fill:#fff"/><path d="M311.5,56.4l.2,4,7.5,1.3.2,3.4-7.5-1.3.2,4.1,8.6,1.4.2,3.4-12.1-2-1-18.4,11.8,2,.2,3.4Z" style="fill:#fff"/><path d="M223.5,138.6c2.2-.3,3.5.4,3.4,1.9a2.9,2.9,0,0,1-1.9,2.4,1.8,1.8,0,0,1,1.9,2.1c-.2,1.7-1.7,2.9-4,3.3l-4.8.7.9-9.7Zm-2.7,4.3,2.2-.3a1.5,1.5,0,0,0,1.5-1.3c.1-.7-.4-1-1.3-.8l-2.2.3Zm-.4,4,2.2-.3c1.1-.2,1.8-.7,1.8-1.4s-.5-1-1.6-.9l-2.2.3Z" style="fill:#fff"/><path d="M231.2,139.2l-.2,2.1,4.9-.7-.2,1.8-4.9.7-.2,2.1,5.5-.8-.2,1.8-7.8,1.2.9-9.7,7.7-1.2-.2,1.8Z" style="fill:#fff"/><path d="M246.1,136.1l-1,1.9a6.1,6.1,0,0,0-3-.5c-.8.1-1.3.5-1.4,1s5.3,0,4.9,3.5c-.2,1.9-2,3.2-4.2,3.5a6,6,0,0,1-4.3-.9l1.1-1.9a4.9,4.9,0,0,0,3.4.9c.9-.1,1.5-.6,1.6-1.2s-5.3,0-5-3.4c.2-1.8,1.8-3.1,4.2-3.4A6.4,6.4,0,0,1,246.1,136.1Z" style="fill:#fff"/><path d="M252,136.1l-.7,7.8-2.3.3.7-7.8-3.1.5.2-1.9,8.4-1.3-.2,1.9Z" style="fill:#fff"/><path d="M264.2,132.4c3.1-.5,5.1,1.2,4.8,4.1a6.6,6.6,0,0,1-5.8,5.7l-4.2.6.9-9.7Zm-2.7,8.1,2.1-.3a3.8,3.8,0,0,0,3.2-3.4,2.2,2.2,0,0,0-2.7-2.6l-2,.3Z" style="fill:#fff"/><path d="M273.1,132.9l-.2,2.1,4.9-.7-.2,1.8-4.9.7-.2,2.1,5.5-.8-.2,1.8-7.8,1.2.9-9.7,7.7-1.2-.2,1.8Z" style="fill:#fff"/><path d="M289.1,130.2l-1.5,1.7a2.9,2.9,0,0,0-2.5-.9,4,4,0,0,0-3.3,3.4,2.2,2.2,0,0,0,2.8,2.5,5.2,5.2,0,0,0,2.7-1.5l1.2,1.2a7.9,7.9,0,0,1-4.2,2.3c-3,.5-5.1-1.4-4.8-4.2a6.8,6.8,0,0,1,5.8-5.7A4.7,4.7,0,0,1,289.1,130.2Z" style="fill:#fff"/><path d="M289.7,138.2l.9-9.7,2.3-.3-.9,9.7Z" style="fill:#fff"/><path d="M302.5,127.6l-1,1.9a6.1,6.1,0,0,0-3-.5c-.8.1-1.3.5-1.4,1s5.3,0,4.9,3.5c-.2,1.9-2,3.2-4.2,3.5a6,6,0,0,1-4.3-.9l1.1-1.9a4.9,4.9,0,0,0,3.4.9c.9-.1,1.5-.6,1.6-1.2s-5.3,0-5-3.4c.2-1.8,1.8-3.1,4.2-3.4A6.4,6.4,0,0,1,302.5,127.6Z" style="fill:#fff"/><path d="M303.3,136.1l.9-9.7,2.3-.3-.9,9.7Z" style="fill:#fff"/><path d="M318.4,129.1a6.9,6.9,0,0,1-5.9,5.8c-3.1.5-5.2-1.3-4.9-4.1a6.8,6.8,0,0,1,5.9-5.7C316.5,124.5,318.6,126.3,318.4,129.1Zm-8.5,1.3a2.3,2.3,0,0,0,2.8,2.6,4.1,4.1,0,0,0,3.3-3.5,2.3,2.3,0,0,0-2.8-2.5A4.1,4.1,0,0,0,309.9,130.4Z" style="fill:#fff"/><path d="M326.4,132.6l-4.3-5.5-.6,6.2-2.2.3.9-9.7,2.1-.3,4.3,5.5.6-6.2,2.2-.3-.9,9.7Z" style="fill:#fff"/><path d="M375.9,51.2l.4,5.6a10.3,10.3,0,0,1-5.3,2.7,6.6,6.6,0,0,1-7.8-6.3,8,8,0,0,1,6.8-8.5,7.6,7.6,0,0,1,5.6,1.3l-1.5,2.6a5.1,5.1,0,0,0-3.8-1,4.8,4.8,0,0,0-3.9,5.2,4,4,0,0,0,4.6,3.9,6.3,6.3,0,0,0,2.6-1.2l-.3-3.8Z" style="fill:#fff"/><path d="M384.9,53h-.3l-2.8.4.3,4.2-3,.5L378,43.5l5.8-.9c3.5-.5,5.7,1,5.9,4.2a5.3,5.3,0,0,1-2.2,5.1l3.2,4.4-3.4.5Zm-.5-2.7a2.5,2.5,0,0,0,2.4-2.9c-.1-1.6-1.2-2.3-2.8-2l-2.8.4.4,4.9Z" style="fill:#fff"/><path d="M395.1,43.6l.2,3.2,6.5-1,.2,2.7-6.5,1,.3,3.2,7.4-1.2.2,2.7L393,55.9l-1.1-14.6,10.3-1.6.2,2.7Z" style="fill:#fff"/><path d="M408.3,50.7l-.8,3-3.1.5L409,38.7l3.1-.5,6.9,13.7-3.2.5-1.3-2.7Zm2.5-8.8-1.7,6,4.2-.7Z" style="fill:#fff"/><path d="M423.9,39.2l.9,11.8-3,.5-.9-11.8-4.1.6-.2-2.8,11.2-1.8.2,2.8Z" style="fill:#fff"/><path d="M439.8,33.9c4.2-.7,7.3,1.9,7.6,6.2a7.6,7.6,0,0,1-6.6,8.4l-5.6.9-1.1-14.6Zm-1.7,12.2,2.7-.4c2.2-.4,3.8-2.4,3.6-5.1s-2.1-4.3-4.4-3.9l-2.6.4Z" style="fill:#fff"/><path d="M450,47l-1.1-14.6,3-.5,1.1,14.6Z" style="fill:#fff"/><path d="M461.8,41h-.3l-2.8.4.3,4.2-3,.5-1.1-14.6,5.8-.9c3.5-.5,5.7,1,5.9,4.2a5.3,5.3,0,0,1-2.2,5.1l3.2,4.4-3.4.5Zm-.5-2.7a2.5,2.5,0,0,0,2.4-2.9c-.1-1.6-1.2-2.3-2.8-2l-2.8.4.4,4.9Z" style="fill:#fff"/><path d="M472.1,31.6l.2,3.2,6.5-1,.2,2.7-6.5,1,.3,3.2,7.4-1.2.2,2.7-10.5,1.6-1.1-14.6,10.3-1.6.2,2.7Z" style="fill:#fff"/><path d="M493.3,27.8l-1.6,2.6a4.4,4.4,0,0,0-3.6-1.3,4.7,4.7,0,0,0-3.7,5.1,3.9,3.9,0,0,0,4.4,3.9,5.6,5.6,0,0,0,3.4-2.3l2,1.8a8.4,8.4,0,0,1-5.2,3.5c-4,.6-7.3-2.1-7.6-6.4a7.9,7.9,0,0,1,6.6-8.5A6.9,6.9,0,0,1,493.3,27.8Z" style="fill:#fff"/><path d="M501,27.1l.9,11.8-3,.5L498,27.6l-4.1.6-.2-2.8,11.2-1.8.2,2.8Z" style="fill:#fff"/><path d="M507.7,38l-1.1-14.6,3-.5,1.1,14.6Z" style="fill:#fff"/><path d="M526.6,27.7a7.9,7.9,0,0,1-6.6,8.6,6.6,6.6,0,0,1-7.8-6.3,7.9,7.9,0,0,1,6.7-8.5A6.6,6.6,0,0,1,526.6,27.7Zm-11.3,1.8a4,4,0,0,0,4.5,3.9,4.8,4.8,0,0,0,3.7-5.2,3.9,3.9,0,0,0-4.4-3.9A4.8,4.8,0,0,0,515.3,29.5Z" style="fill:#fff"/><path d="M538.6,33.2l-7.3-8.3.7,9.4-2.9.5L528,20.1l2.8-.4,7.3,8.4-.7-9.4,2.9-.5,1.1,14.6Z" style="fill:#fff"/><path d="M375.4,77.7c2.5.6,4.1,2,4.1,3.7a1.8,1.8,0,0,1-2,1.9,3.6,3.6,0,0,1,2.4,3.3c0,1.9-1.7,2.6-4.4,2L370,87.3V76.4Zm-2.7,3.7,2.6.6c1,.2,1.6-.1,1.6-.8s-.6-1.3-1.6-1.5l-2.6-.6Zm0,4.5,2.6.6c1.2.3,2,0,2-.9s-.7-1.5-2-1.7l-2.6-.6Z" style="fill:#fff"/><path d="M384.4,81.9v2.4l5.6,1.3v2l-5.6-1.3v2.4l6.4,1.5v2l-9-2.1V79.2l8.8,2.1v2Z" style="fill:#fff"/><path d="M401.5,85l-1,1.8a10.8,10.8,0,0,0-3.6-2c-.9-.2-1.5-.1-1.5.5s6.2,2.4,6.1,6.3c0,2.1-2,2.8-4.5,2.2a10.9,10.9,0,0,1-5.1-2.9l1-1.8a9.3,9.3,0,0,0,4.1,2.6c1.1.3,1.7,0,1.7-.6s-6.2-2.3-6.2-6.2c0-2,1.8-2.8,4.5-2.2A10.9,10.9,0,0,1,401.5,85Z" style="fill:#fff"/><path d="M408.4,87.6v8.8l-2.6-.6V87l-3.5-.8V84.1l9.7,2.3v2.1Z" style="fill:#fff"/><path d="M428.9,95.9c0,3.1-2.7,4.9-6.2,4.1s-6.2-3.9-6.2-7,2.7-4.9,6.2-4S428.9,92.7,428.9,95.9Zm-9.8-2.3a4.7,4.7,0,0,0,3.6,4.3,2.6,2.6,0,0,0,3.5-2.6,4.6,4.6,0,0,0-3.5-4.2C420.8,90.5,419.1,91.6,419.1,93.5Z" style="fill:#fff"/><path d="M440.8,99.6c0,2.9-2,4.2-5.2,3.4s-5.3-3-5.2-5.9V90.8l2.6.6v6.3a3.2,3.2,0,0,0,2.6,3.1c1.6.4,2.6-.3,2.6-1.9V92.6l2.6.6Z" style="fill:#fff"/><path d="M448.2,97.1v8.8l-2.6-.6V96.4l-3.5-.8V93.5l9.7,2.3v2.1Z" style="fill:#fff"/><path d="M462.4,100.1l-1.5,1.4a5.7,5.7,0,0,0-3-2.1c-2-.5-3.5.6-3.5,2.5a4.5,4.5,0,0,0,3.5,4.2,3.8,3.8,0,0,0,3-.6l1.5,1.9a5.8,5.8,0,0,1-4.7.8c-3.5-.8-6.1-3.9-6.1-7s2.7-4.9,6.2-4A8.9,8.9,0,0,1,462.4,100.1Z" style="fill:#fff"/><path d="M475.3,106.9c0,3.1-2.7,4.9-6.2,4.1s-6.2-3.9-6.2-7,2.7-4.9,6.2-4S475.3,103.7,475.3,106.9Zm-9.8-2.3a4.7,4.7,0,0,0,3.6,4.3,2.6,2.6,0,0,0,3.5-2.6,4.6,4.6,0,0,0-3.5-4.2C467.2,101.6,465.6,102.6,465.6,104.6Z" style="fill:#fff"/><path d="M487.2,115.2v-7.3l-3.1,5.5-1.7-.4-3.1-7v7.3l-2.4-.6V101.8l2.9.7,3.4,7.5,3.4-5.9,2.9.7v10.9Z" style="fill:#fff"/><path d="M494.8,108.1v2.4l5.6,1.3v2l-5.6-1.3v2.4l6.4,1.5v2l-9-2.1V105.4l8.8,2.1v2Z" style="fill:#fff"/><path d="M369.7,158l-1,1.1a4,4,0,0,0-2.2-1.3,1.8,1.8,0,0,0-2.3,2.1,3.3,3.3,0,0,0,2.7,2.8,2.6,2.6,0,0,0,2-.6l1.2,1.3a3.9,3.9,0,0,1-3.2.9,5.5,5.5,0,0,1-4.7-4.7c-.2-2.3,1.5-3.7,4-3.3A6.2,6.2,0,0,1,369.7,158Z" style="fill:#fff"/><path d="M379.1,162.1c.2,2.3-1.5,3.7-4,3.4a5.6,5.6,0,0,1-4.8-4.7c-.2-2.3,1.5-3.7,4-3.4A5.6,5.6,0,0,1,379.1,162.1Zm-6.9-1a3.4,3.4,0,0,0,2.8,2.8,1.9,1.9,0,0,0,2.3-2.1,3.3,3.3,0,0,0-2.7-2.8A1.9,1.9,0,0,0,372.2,161.1Z" style="fill:#fff"/><path d="M384.2,164.5H384l-1.7-.3.2,2.3-1.9-.3-.8-7.9,3.6.5c2.1.3,3.5,1.5,3.6,3.2a2,2,0,0,1-1.3,2.3l2,2.9-2.1-.3Zm-.3-1.5c1,.2,1.6-.2,1.5-1.1a1.8,1.8,0,0,0-1.7-1.6l-1.7-.3.3,2.7Z" style="fill:#fff"/><path d="M392.7,165.8h-.2l-1.7-.3.2,2.3-1.9-.3-.8-7.9,3.6.5c2.1.3,3.5,1.5,3.6,3.2a2,2,0,0,1-1.3,2.3l2,2.9-2.1-.3Zm-.3-1.5c1,.2,1.6-.2,1.5-1.1a1.8,1.8,0,0,0-1.7-1.6l-1.7-.3.3,2.7Z" style="fill:#fff"/><path d="M398.9,162.6l.2,1.7,4,.6v1.5l-4-.6.2,1.8,4.5.7v1.5l-6.4-.9-.8-7.9,6.3.9v1.5Z" style="fill:#fff"/><path d="M411.9,164.3l-1,1.1a4,4,0,0,0-2.2-1.3,1.8,1.8,0,0,0-2.3,2.1,3.3,3.3,0,0,0,2.7,2.8,2.6,2.6,0,0,0,2-.6l1.2,1.3a3.9,3.9,0,0,1-3.2.9,5.5,5.5,0,0,1-4.7-4.7c-.2-2.3,1.5-3.7,4-3.3A6.2,6.2,0,0,1,411.9,164.3Z" style="fill:#fff"/><path d="M416.6,165.3l.6,6.4-1.9-.3-.6-6.4-2.5-.4v-1.5l6.9,1v1.5Z" style="fill:#fff"/><path d="M370,230.5l-.5,5.2a13.5,13.5,0,0,1-5.9,2.6c-4.3.6-7.2-1.9-6.8-5.9s4-7.4,8.4-8a7.5,7.5,0,0,1,5.5,1.2l-2,2.5a4.9,4.9,0,0,0-3.7-1A5.8,5.8,0,0,0,360,232c-.2,2.4,1.5,4,4,3.6a8.1,8.1,0,0,0,2.8-1.1l.4-3.6Z" style="fill:#fff"/><path d="M386.9,228.1c-.4,3.9-4,7.4-8.3,8s-7.3-1.9-6.9-5.9,4-7.4,8.3-8S387.3,224.1,386.9,228.1ZM375,229.8a3.2,3.2,0,0,0,3.9,3.6,5.7,5.7,0,0,0,4.7-4.9,3.2,3.2,0,0,0-3.9-3.6A5.8,5.8,0,0,0,375,229.8Z" style="fill:#fff"/><path d="M402.8,225.8c-.4,3.9-4,7.4-8.3,8s-7.3-1.9-6.9-5.9,4-7.4,8.3-8S403.2,221.8,402.8,225.8Zm-11.9,1.7a3.2,3.2,0,0,0,3.9,3.6,5.7,5.7,0,0,0,4.7-4.9,3.2,3.2,0,0,0-3.9-3.6A5.8,5.8,0,0,0,390.9,227.5Z" style="fill:#fff"/><path d="M411.6,217.8c4.4-.6,7.1,1.7,6.7,5.7s-3.8,7.3-8.2,7.9l-5.9.8,1.4-13.6Zm-3.9,11.4,2.9-.4a5.4,5.4,0,0,0,4.5-4.8c.3-2.5-1.4-4-3.8-3.6l-2.7.4Z" style="fill:#fff"/><path d="M427.6,226.3l-1.4,2.8-3.3.5,7.5-14.5,3.3-.5,4.7,12.8-3.4.5-.8-2.5Zm4.1-8.2-2.8,5.6,4.5-.6Z" style="fill:#fff"/><path d="M449.8,225.8l-6-7.8-.9,8.7-3,.4,1.4-13.6,2.9-.4,6,7.8.9-8.8,3-.4-1.4,13.6Z" style="fill:#fff"/><path d="M467.6,211.1l-1.5,2.7a8.5,8.5,0,0,0-4.3-.8c-1.1.2-1.8.6-1.9,1.4-.3,2.5,7.4,0,6.9,4.9-.3,2.7-2.8,4.5-5.9,4.9a8.4,8.4,0,0,1-6-1.3l1.5-2.7a6.8,6.8,0,0,0,4.8,1.3c1.3-.2,2.1-.8,2.2-1.6.3-2.6-7.4,0-6.9-4.8.2-2.5,2.6-4.3,5.9-4.8A8.9,8.9,0,0,1,467.6,211.1Z" style="fill:#fff"/><path d="M480.8,221.3l-1.9-9.3-3.9,10.1-3.3.5-3.3-13,3.4-.5,1.9,9.9,4-10.7,3.1-.4,2,9.8,4-10.7,3.3-.5-6,14.3Z" style="fill:#fff"/><path d="M494.5,208.4l-.3,3,6.8-1-.3,2.5-6.8,1-.3,3,7.8-1.1-.3,2.5-11,1.6,1.4-13.6,10.8-1.5-.3,2.5Z" style="fill:#fff"/><path d="M510.5,213.2h-.3l-2.9.4-.4,3.9-3.2.5,1.4-13.6,6.1-.9c3.7-.5,5.6.9,5.3,3.9a6,6,0,0,1-3.1,4.8l2.6,4.1-3.6.5Zm0-2.5c1.8-.3,2.8-1.2,3-2.7s-.8-2.1-2.5-1.9l-2.9.4-.5,4.6Z" style="fill:#fff"/><path d="M238.7,192.2v-3.6h-4.2v3.6h-2.1V183h2.1v3.8h4.2V183h2.1v9.2Z" style="fill:#fff"/><path d="M244.6,190.4l-.7,1.8h-2.1l4-9.2h2.1l3.9,9.2h-2.2l-.7-1.8Zm2.1-5.3-1.5,3.6h2.9Z" style="fill:#fff"/><path d="M259.6,183.9l-.8,1.7a6.4,6.4,0,0,0-2.9-.9c-.7,0-1.2.3-1.2.8s4.9.8,4.9,4.1c0,1.8-1.6,2.8-3.6,2.8a6.5,6.5,0,0,1-4.1-1.5l.8-1.7a5.5,5.5,0,0,0,3.3,1.4c.9,0,1.4-.3,1.4-.9s-4.9-.7-4.9-4c0-1.7,1.4-2.7,3.6-2.7A6.6,6.6,0,0,1,259.6,183.9Z" style="fill:#fff"/><path d="M268.2,184.7v7.5h-2.1v-7.5h-2.8V183h7.7v1.8Z" style="fill:#fff"/><path d="M280.9,187.6a5,5,0,1,1-4.9-4.7A4.7,4.7,0,0,1,280.9,187.6Zm-7.8,0a2.9,2.9,0,0,0,2.8,2.9,2.9,2.9,0,1,0-2.8-2.9Z" style="fill:#fff"/><path d="M289.7,183c2,0,3.3.9,3.3,2.3a2,2,0,0,1-1.6,2,2.3,2.3,0,0,1,1.9,2.3c0,1.6-1.3,2.6-3.5,2.6h-4.4V183Zm-2.2,3.7h2.1c.8,0,1.3-.4,1.3-1s-.5-1-1.3-1h-2.1Zm0,3.8h2.1c1,0,1.6-.4,1.6-1.1s-.6-1.1-1.6-1.1h-2.1Z" style="fill:#fff"/><path d="M296.9,184.7v2h4.4v1.7h-4.4v2H302v1.7h-7.2V183h7v1.7Z" style="fill:#fff"/><path d="M310.7,184.7v7.5h-2.1v-7.5h-2.8V183h7.7v1.8Z" style="fill:#fff"/><path d="M320.9,192.2v-3.6h-4.2v3.6h-2.1V183h2.1v3.8h4.2V183H323v9.2Z" style="fill:#fff"/><path d="M325,192.2V183h2.1v9.2Z" style="fill:#fff"/><path d="M336,183.9l-.8,1.7a6.4,6.4,0,0,0-2.9-.9c-.7,0-1.2.3-1.2.8s4.9.8,4.9,4.1c0,1.8-1.6,2.8-3.6,2.8a6.5,6.5,0,0,1-4.1-1.5l.8-1.7a5.5,5.5,0,0,0,3.3,1.4c.9,0,1.4-.3,1.4-.9s-4.9-.7-4.9-4c0-1.7,1.4-2.7,3.6-2.7A6.6,6.6,0,0,1,336,183.9Z" style="fill:#fff"/><polygon points="143.7 248.3 156.4 248.3 329.7 235.6 329.7 232.5 143.7 248.3"/><polygon points="337.1 94.1 328.1 94.3 152.2 66 157.7 65 337.1 94.1" style="fill:#e5ad23"/><polygon points="324.7 530.2 344.5 530.2 344.5 550.9 324.7 549.6 324.7 530.2" style="fill:#ccc"/><polygon points="344.5 530.2 360.9 530.2 360.9 548.2 344.5 550.9 344.5 530.2" style="fill:#6d6e71"/><path d="M95,553.7s4.2-9.1,3.7-14.8c0,0,1,8.5,0,11.5,0,0,1.9-3.3,2.9-4.1s-1.4,3.2-.9,5.3c0,0,3.4-.3,4.2-7.5,0,0,.2,7,.7,8.5,0,0,2.3-7.7,3.3-9.1s-.3,5.6,0,7a8,8,0,0,0,2.1-2.1s-1.6,2.9-.4,4.3a7.8,7.8,0,0,0,3.7-4.9s.2,3.8,1.2,5.8Z" style="fill:#d3de46"/><path d="M76.4,553.7s4.2-9.1,3.7-14.8c0,0,1,8.5,0,11.5,0,0,1.9-3.3,2.9-4.1s-1.4,3.2-.9,5.3c0,0,3.4-.3,4.2-7.5,0,0,.2,7,.7,8.5,0,0,2.3-7.7,3.3-9.1s-.3,5.6,0,7a8,8,0,0,0,2.1-2.1s-1.6,2.9-.4,4.3a7.8,7.8,0,0,0,3.7-4.9s.2,3.8,1.2,5.8Z" style="fill:#d3de46"/><path d="M134.8,553.7s4.2-9.1,3.7-14.8c0,0,1,8.5,0,11.5,0,0,1.9-3.3,2.9-4.1s-1.4,3.2-.9,5.3c0,0,3.4-.3,4.2-7.5,0,0,.2,7,.7,8.5,0,0,2.3-7.7,3.3-9.1s-.3,5.6,0,7a8,8,0,0,0,2.1-2.1s-1.6,2.9-.4,4.3a7.8,7.8,0,0,0,3.7-4.9s.2,3.8,1.2,5.8Z" style="fill:#d3de46"/><path d="M116.2,553.7s4.2-9.1,3.7-14.8c0,0,1,8.5,0,11.5,0,0,1.9-3.3,2.9-4.1s-1.4,3.2-.9,5.3c0,0,3.4-.3,4.2-7.5,0,0,.2,7,.7,8.5,0,0,2.3-7.7,3.3-9.1s-.3,5.6,0,7a8,8,0,0,0,2.1-2.1s-1.6,2.9-.4,4.3a7.8,7.8,0,0,0,3.7-4.9s.2,3.8,1.2,5.8Z" style="fill:#d3de46"/><path d="M506.2,553.7s5.1-11.1,4.5-18.1c0,0,1.2,10.5.1,14.1,0,0,2.3-4.1,3.6-5s-1.7,4-1.1,6.5c0,0,4.1-.4,5.1-9.2,0,0,.2,8.5.9,10.4,0,0,2.8-9.4,4.1-11.1,0,0-.4,6.8,0,8.5a9.7,9.7,0,0,0,2.6-2.5s-2,3.6-.5,5.3a9.5,9.5,0,0,0,4.5-6s.2,4.7,1.5,7Z" style="fill:#d3de46"/><path d="M395.7,553.7s5.1-11.1,4.5-18.1c0,0,1.2,10.5.1,14.1,0,0,2.3-4.1,3.6-5s-1.7,4-1.1,6.5c0,0,4.1-.4,5.1-9.2,0,0,.2,8.5.9,10.4,0,0,2.8-9.4,4.1-11.1,0,0-.4,6.8,0,8.5a9.7,9.7,0,0,0,2.6-2.5s-2,3.6-.5,5.3a9.5,9.5,0,0,0,4.5-6s.2,4.7,1.5,7Z" style="fill:#d3de46"/><path d="M483.5,553.7s5.1-11.1,4.5-18.1c0,0,1.2,10.5.1,14.1,0,0,2.3-4.1,3.6-5s-1.7,4-1.1,6.5c0,0,4.1-.4,5.1-9.2,0,0,.2,8.5.9,10.4,0,0,2.8-9.4,4.1-11.1,0,0-.4,6.8,0,8.5a9.7,9.7,0,0,0,2.6-2.5s-2,3.6-.5,5.3a9.5,9.5,0,0,0,4.5-6s.2,4.7,1.5,7Z" style="fill:#d3de46"/><path d="M643.9,513.4l9.4,5.4a3.6,3.6,0,0,1,1.8,3.1v10.8a3.6,3.6,0,0,1-1.8,3.1l-9.4,5.4a3.6,3.6,0,0,1-3.6,0l-9.4-5.4a3.6,3.6,0,0,1-1.8-3.1V521.9a3.6,3.6,0,0,1,1.8-3.1l9.4-5.4A3.6,3.6,0,0,1,643.9,513.4Z" style="fill:#bbbe3a"/><path d="M643.9,507.8l10.6,6.1a4.1,4.1,0,0,1,2,3.5v12.3a4.1,4.1,0,0,1-2,3.5l-10.6,6.1a4.1,4.1,0,0,1-4.1,0l-10.6-6.1a4.1,4.1,0,0,1-2-3.5V517.5a4.1,4.1,0,0,1,2-3.5l10.6-6.1A4.1,4.1,0,0,1,643.9,507.8Z" style="fill:#d3de46"/><path d="M623.8,523.5l9.4,5.4a3.6,3.6,0,0,1,1.8,3.1v10.8a3.6,3.6,0,0,1-1.8,3.1l-9.4,5.4a3.6,3.6,0,0,1-3.6,0l-9.4-5.4a3.6,3.6,0,0,1-1.8-3.1V532a3.6,3.6,0,0,1,1.8-3.1l9.4-5.4A3.6,3.6,0,0,1,623.8,523.5Z" style="fill:#bbbe3a"/><path d="M623.8,517.9l10.6,6.1a4.1,4.1,0,0,1,2,3.5v12.3a4.1,4.1,0,0,1-2,3.5l-10.6,6.1a4.1,4.1,0,0,1-4.1,0l-10.6-6.1a4.1,4.1,0,0,1-2-3.5V527.6a4.1,4.1,0,0,1,2-3.5l10.6-6.1A4.1,4.1,0,0,1,623.8,517.9Z" style="fill:#d3de46"/><rect x="625.7" y="544.1" width="15.1" height="9.56" style="fill:#6e8c3b"/><path d="M620.3,516.2l2.2,3.9a1.5,1.5,0,0,1,0,1.5l-2.3,3.9a1.5,1.5,0,0,1-1.3.7h-4.5a1.5,1.5,0,0,1-1.3-.8l-2.2-3.9a1.5,1.5,0,0,1,0-1.5l2.3-3.9a1.5,1.5,0,0,1,1.3-.7H619A1.5,1.5,0,0,1,620.3,516.2Z" style="fill:#6e8c3b"/><path d="M620.3,515.5l2.2,3.9a1.5,1.5,0,0,1,0,1.5l-2.3,3.9a1.5,1.5,0,0,1-1.3.7h-4.5a1.5,1.5,0,0,1-1.3-.8l-2.2-3.9a1.5,1.5,0,0,1,0-1.5l2.3-3.9a1.5,1.5,0,0,1,1.3-.7H619A1.5,1.5,0,0,1,620.3,515.5Z" style="fill:#8ea43b"/><path d="M637,511.7l13.8,8a5.3,5.3,0,0,1,2.6,4.6v15.9a5.3,5.3,0,0,1-2.6,4.6l-13.8,8a5.3,5.3,0,0,1-5.3,0l-13.8-8a5.3,5.3,0,0,1-2.6-4.6V524.3a5.3,5.3,0,0,1,2.6-4.6l13.8-8A5.3,5.3,0,0,1,637,511.7Z" style="fill:#6e8c3b"/><path d="M635.8,509.6l13.8,8a5.3,5.3,0,0,1,2.6,4.6v15.9a5.3,5.3,0,0,1-2.6,4.6l-13.8,8a5.3,5.3,0,0,1-5.3,0l-13.8-8a5.3,5.3,0,0,1-2.6-4.6V522.2a5.3,5.3,0,0,1,2.6-4.6l13.8-8A5.3,5.3,0,0,1,635.8,509.6Z" style="fill:#a3c23a"/><path d="M655.1,526.7l5.6,9.8a3.7,3.7,0,0,1,0,3.7l-5.7,9.7a3.7,3.7,0,0,1-3.2,1.8H640.4a3.7,3.7,0,0,1-3.2-1.9l-5.6-9.8a3.7,3.7,0,0,1,0-3.7l5.7-9.7a3.7,3.7,0,0,1,3.2-1.8h11.3A3.7,3.7,0,0,1,655.1,526.7Z" style="fill:#6e8c3b"/><path d="M655.1,525l5.6,9.8a3.7,3.7,0,0,1,0,3.7l-5.7,9.7a3.7,3.7,0,0,1-3.2,1.8H640.4a3.7,3.7,0,0,1-3.2-1.9l-5.6-9.8a3.7,3.7,0,0,1,0-3.7l5.7-9.7a3.7,3.7,0,0,1,3.2-1.8h11.3A3.7,3.7,0,0,1,655.1,525Z" style="fill:#8ea43b"/><path d="M563.5,531.1h-20s-1.4-5.9,5.7-5.9h6.5s-3.9-30.7,2.6-49.2l1-2.5,4.2-.8Z" style="fill:#e6c13c"/><line x1="471.5" y1="490.4" x2="494.4" y2="425.8" style="fill:none;stroke:#c4a531;stroke-linecap:round;stroke-linejoin:round;stroke-width:1.4561635220874725px"/><path d="M563.5,467.9V429.1l-4.2,4.1s-4.2,22.9,0,32.8Z" style="fill:#e6c13c"/><path d="M554.1,415.3s-10.6-4.4-20.6-3.8-19.3,6.9-25.4,8.7-11.2,4.1-13,3.2-5.3-1-5.3,1,1,2.6,3.4,3,16.8-1,22.3-2.2,13.1-3.4,17.9-2.8,22.7,9.1,22.7,9.1Z" style="fill:#dec245"/><path d="M563.5,531.1h20s1.4-5.9-5.7-5.9h-6.5s3.9-30.7-2.6-49.2l-1-2.5-4.2-.8Z" style="fill:#dec245"/><line x1="655.4" y1="490.9" x2="632.5" y2="426.3" style="fill:none;stroke:#c4a531;stroke-linecap:round;stroke-linejoin:round;stroke-width:1.4561635220874725px"/><path d="M572.8,415.7s10.6-4.4,20.6-3.8,19.3,6.9,25.4,8.7,11.2,4.1,13,3.2,5.3-1,5.3,1-1,2.6-3.4,3-16.8-1-22.3-2.2-13.1-3.4-17.9-2.8-22.7,9.1-22.7,9.1Z" style="fill:#dec245"/><path d="M631.7,423.9s-1.6.2-2.9,4l-21.7,62.9" style="fill:none;stroke:#c4a531;stroke-linecap:round;stroke-linejoin:round;stroke-width:1.4561635220874725px"/><path d="M563.5,467.9V429.1l4.2,4.1s4.2,22.9,0,32.8Z" style="fill:#dec245"/><path d="M563.5,401.1v33.3S588.9,431.6,563.5,401.1Z" style="fill:#c4a531"/><ellipse cx="563.5" cy="470.7" rx="9.3" ry="5.3" style="fill:#cca234"/><path d="M563.5,401.1v33.3S538,431.6,563.5,401.1Z" style="fill:#c4a531"/><path d="M495.2,423.5s1.6.2,2.9,4l21.7,62.9" style="fill:none;stroke:#c4a531;stroke-linecap:round;stroke-linejoin:round;stroke-width:1.4561635220874725px"/><circle cx="563.6" cy="421.6" r="5.6" style="fill:#dec245"/><path d="M651.5,498.2a21.3,21.3,0,0,0,5.6-7.4H606.3a16.5,16.5,0,0,0,4.7,7.5,88.2,88.2,0,0,1,20.5-2.2A89.4,89.4,0,0,1,651.5,498.2Z" style="fill:#dec245"/><path d="M651.5,498.2a89.4,89.4,0,0,0-19.9-2.1,88.2,88.2,0,0,0-20.5,2.2c3.3,3,8.6,5.9,17.4,5.9C640.3,504.2,647.2,501.8,651.5,498.2Z" style="fill:#cca234"/><path d="M515.3,498.4a16.7,16.7,0,0,0,5.3-8H469.9a21.6,21.6,0,0,0,5.1,7,92.9,92.9,0,0,1,18-1.6A84.3,84.3,0,0,1,515.3,498.4Z" style="fill:#dec245"/><path d="M515.3,498.4a84.3,84.3,0,0,0-22.3-2.7,92.9,92.9,0,0,0-18,1.6c4.3,3.8,11.2,6.4,23.5,6.4C506.7,503.7,512,501.2,515.3,498.4Z" style="fill:#cca234"/><circle cx="563.6" cy="421.6" r="4.5" style="fill:#c4a531"/><circle cx="563.6" cy="421.6" r="3.8" style="fill:#dec245"/><path d="M537,531.1h52.2a3.4,3.4,0,0,1,3.4,3.4v2.8a0,0,0,0,1,0,0H533.6a0,0,0,0,1,0,0v-2.8A3.4,3.4,0,0,1,537,531.1Z" style="fill:#654023"/><path d="M528.4,537.3h69.5a3.9,3.9,0,0,1,3.9,3.9v2.3a0,0,0,0,1,0,0H524.4a0,0,0,0,1,0,0v-2.3A3.9,3.9,0,0,1,528.4,537.3Z" style="fill:#462d11"/><polygon points="152.2 66 106.3 30.5 110 28.1 157.7 65 152.2 66" style="fill:#e5ad23"/></svg>