<svg id="Layer_1" data-name="Layer 1" xmlns="http://www.w3.org/2000/svg" xmlns:xlink="http://www.w3.org/1999/xlink" viewBox="0 0 800 450"><defs><clipPath id="clip-path"><rect x="-847.6" width="800" height="450" style="fill:none"/></clipPath><clipPath id="clip-path-2"><rect width="800" height="450" style="fill:none"/></clipPath><clipPath id="clip-path-3"><path d="M1444.9,13.8a207.6,207.6,0,0,0-182.2,107.9A207.6,207.6,0,0,0,1080.5,13.8c-114.7,0-207.7,93-207.7,207.7s93,207.7,207.7,207.7a207.6,207.6,0,0,0,182.2-107.9,207.6,207.6,0,0,0,182.2,107.9c114.7,0,207.7-93,207.7-207.7S1559.6,13.8,1444.9,13.8Z" style="fill:none"/></clipPath></defs><title>1</title><g style="clip-path:url(#clip-path)"><path d="M-866.9,573H49.5L32,423.7s-309.8-35.4-460.7-35.4S-809,409.9-890,414.9" style="fill:#8ea43b"/></g><g style="clip-path:url(#clip-path-2)"><path d="M305.8,161.9l21.8,12.6a8.4,8.4,0,0,1,4.2,7.2v25.2a8.4,8.4,0,0,1-4.2,7.2l-21.8,12.6a8.4,8.4,0,0,1-8.4,0l-21.8-12.6a8.4,8.4,0,0,1-4.2-7.2V181.7a8.4,8.4,0,0,1,4.2-7.2l21.8-12.6A8.4,8.4,0,0,1,305.8,161.9Z" style="fill:#6e8c3b"/><path d="M304,158.6l21.8,12.6a8.4,8.4,0,0,1,4.2,7.2v25.2a8.4,8.4,0,0,1-4.2,7.2L304,223.5a8.4,8.4,0,0,1-8.4,0l-21.8-12.6a8.4,8.4,0,0,1-4.2-7.2V178.4a8.4,8.4,0,0,1,4.2-7.2l21.8-12.6A8.4,8.4,0,0,1,304,158.6Z" style="fill:#a3c23a"/><polygon points="301 185.5 300.6 196.4 289.2 182.2 300.6 197.6 297.8 287.5 303.7 287.5 302 213.9 307.2 196.4 301.8 208.2 301 185.5" style="fill:#967e2e"/><path d="M279.9,180.4l17.1,9.9a6.6,6.6,0,0,1,3.3,5.7v19.8a6.6,6.6,0,0,1-3.3,5.7l-17.1,9.9a6.6,6.6,0,0,1-6.6,0l-17.1-9.9a6.6,6.6,0,0,1-3.3-5.7V196a6.6,6.6,0,0,1,3.3-5.7l17.1-9.9A6.6,6.6,0,0,1,279.9,180.4Z" style="fill:#bbbe3a"/><path d="M277.9,178.1l17.1,9.9a6.6,6.6,0,0,1,3.3,5.7v19.8a6.6,6.6,0,0,1-3.3,5.7L277.9,229a6.6,6.6,0,0,1-6.6,0l-17.1-9.9a6.6,6.6,0,0,1-3.3-5.7V193.7a6.6,6.6,0,0,1,3.3-5.7l17.1-9.9A6.6,6.6,0,0,1,277.9,178.1Z" style="fill:#d3de46"/><polygon points="273.7 204 273.4 212.4 264.6 201.5 273.4 213.4 271.2 275.6 275.8 275.6 274.4 226 278.5 212.4 274.3 221.5 273.7 204" style="fill:#967e2e"/><path d="M110.3,187.2l19.4,11.2a7.4,7.4,0,0,1,3.7,6.4v22.4a7.4,7.4,0,0,1-3.7,6.4l-19.4,11.2a7.4,7.4,0,0,1-7.4,0L83.5,233.6a7.4,7.4,0,0,1-3.7-6.4V204.8a7.4,7.4,0,0,1,3.7-6.4l19.4-11.2a7.4,7.4,0,0,1,7.4,0" style="fill:#6e8c3b"/><path d="M108.7,184.3l19.4,11.2a7.4,7.4,0,0,1,3.7,6.4v22.4a7.4,7.4,0,0,1-3.7,6.4l-19.4,11.2a7.4,7.4,0,0,1-7.4,0L81.9,230.6a7.4,7.4,0,0,1-3.7-6.4V201.9a7.4,7.4,0,0,1,3.7-6.4l19.4-11.2a7.4,7.4,0,0,1,7.4,0" style="fill:#a3c23a"/><polygon points="106 208.1 105.7 217.8 95.5 205.2 105.7 218.9 103.2 300.4 108.5 300.4 106.9 233.3 111.5 217.8 106.8 228.2 106 208.1" style="fill:#9d802e"/><path d="M721.3,133.4l32.6,18.8a12.5,12.5,0,0,1,6.2,10.8v37.6a12.5,12.5,0,0,1-6.2,10.8l-32.6,18.8a12.5,12.5,0,0,1-12.5,0l-32.6-18.8a12.5,12.5,0,0,1-6.2-10.8V163a12.5,12.5,0,0,1,6.2-10.8l32.6-18.8A12.5,12.5,0,0,1,721.3,133.4Z" style="fill:#6e8c3b"/><path d="M718.6,128.5l32.6,18.8a12.5,12.5,0,0,1,6.2,10.8v37.6a12.5,12.5,0,0,1-6.2,10.8l-32.6,18.8a12.5,12.5,0,0,1-12.5,0l-32.6-18.8a12.5,12.5,0,0,1-6.2-10.8V158.1a12.5,12.5,0,0,1,6.2-10.8l32.6-18.8A12.5,12.5,0,0,1,718.6,128.5Z" style="fill:#a3c23a"/><polygon points="714.1 168.7 713.5 184.9 696.5 163.7 713.5 186.7 709.4 320.8 718.2 320.8 715.6 211 723.3 184.9 715.3 202.5 714.1 168.7" style="fill:#967e2e"/><path d="M682.6,161.1l25.5,14.8a9.8,9.8,0,0,1,4.9,8.5v29.5a9.8,9.8,0,0,1-4.9,8.5L682.6,237a9.8,9.8,0,0,1-9.8,0l-25.5-14.8a9.8,9.8,0,0,1-4.9-8.5V184.3a9.8,9.8,0,0,1,4.9-8.5l25.5-14.8A9.8,9.8,0,0,1,682.6,161.1Z" style="fill:#bbbe3a"/><path d="M679.7,157.6l25.5,14.8a9.8,9.8,0,0,1,4.9,8.5v29.5a9.8,9.8,0,0,1-4.9,8.5l-25.5,14.8a9.8,9.8,0,0,1-9.8,0l-25.5-14.8a9.8,9.8,0,0,1-4.9-8.5V180.8a9.8,9.8,0,0,1,4.9-8.5l25.5-14.8A9.8,9.8,0,0,1,679.7,157.6Z" style="fill:#d3de46"/><polygon points="673.3 196.3 672.9 208.8 659.7 192.5 672.8 210.2 669.7 303.1 676.5 303.1 674.5 229 680.5 208.8 674.3 222.4 673.3 196.3" style="fill:#967e2e"/><path d="M-88.5,480.4H827.9l-9.5-182.9s-317.8-25.8-468.7-25.8S-8,294.9-89,299.9" style="fill:#a3c23b"/><path d="M-9.3,538H907L889.6,388.7s-309.8-35.4-460.7-35.4S48.6,394.9-32.4,399.9" style="fill:#8ea43b"/><path d="M435.4,378.7s7-15,6.1-24.6c0,0,1.6,14.2.1,19.1,0,0,3.1-5.5,4.8-6.8,0,0-2.3,5.4-1.4,8.8,0,0,5.6-.5,7-12.5,0,0,.3,11.6,1.2,14.2,0,0,3.8-12.7,5.5-15,0,0-.6,9.3,0,11.6a13.2,13.2,0,0,0,3.5-3.4s-2.7,4.9-.6,7.2a13,13,0,0,0,6.1-8.1s.3,6.3,2,9.5Z" style="fill:#d3de46"/><path d="M404.5,378.7s7-15,6.1-24.6c0,0,1.6,14.2.1,19.1,0,0,3.1-5.5,4.8-6.8,0,0-2.3,5.4-1.4,8.8,0,0,5.6-.5,7-12.5,0,0,.3,11.6,1.2,14.2,0,0,3.8-12.7,5.5-15,0,0-.6,9.3,0,11.6a13.2,13.2,0,0,0,3.5-3.4s-2.7,4.9-.6,7.2a13,13,0,0,0,6.1-8.1s.3,6.3,2,9.5Z" style="fill:#d3de46"/><path d="M501.5,378.7s7-15,6.1-24.6c0,0,1.6,14.2.1,19.1,0,0,3.1-5.5,4.8-6.8,0,0-2.3,5.4-1.4,8.8,0,0,5.6-.5,7-12.5,0,0,.3,11.6,1.2,14.2,0,0,3.8-12.7,5.5-15,0,0-.6,9.3,0,11.6a13.2,13.2,0,0,0,3.5-3.4s-2.7,4.9-.6,7.2a13,13,0,0,0,6.1-8.1s.3,6.3,2,9.5Z" style="fill:#d3de46"/><path d="M470.7,378.7s7-15,6.1-24.6c0,0,1.6,14.2.1,19.1,0,0,3.1-5.5,4.8-6.8,0,0-2.3,5.4-1.4,8.8,0,0,5.6-.5,7-12.5,0,0,.3,11.6,1.2,14.2,0,0,3.8-12.7,5.5-15,0,0-.6,9.3,0,11.6a13.2,13.2,0,0,0,3.5-3.4s-2.7,4.9-.6,7.2a13,13,0,0,0,6.1-8.1s.3,6.3,2,9.5Z" style="fill:#d3de46"/><path d="M663.4,378.9s7-15,6.1-24.6c0,0,1.6,14.2.1,19.1,0,0,3.1-5.5,4.8-6.8,0,0-2.3,5.4-1.4,8.8,0,0,5.6-.5,7-12.5,0,0,.3,11.6,1.2,14.2,0,0,3.8-12.7,5.5-15,0,0-.6,9.3,0,11.6a13.2,13.2,0,0,0,3.5-3.4s-2.7,4.9-.6,7.2a13,13,0,0,0,6.1-8.1s.3,6.3,2,9.5Z" style="fill:#d3de46"/><path d="M698.9,410s7-15,6.1-24.6c0,0,1.6,14.2.1,19.1,0,0,3.1-5.5,4.8-6.8,0,0-2.3,5.4-1.4,8.8,0,0,5.6-.5,7-12.5,0,0,.3,11.6,1.2,14.2,0,0,3.8-12.7,5.5-15,0,0-.6,9.3,0,11.6a13.2,13.2,0,0,0,3.5-3.4s-2.7,4.9-.6,7.2a13,13,0,0,0,6.1-8.1s.3,6.3,2,9.5Z" style="fill:#d3de46"/><path d="M121.3,450s7-15,6.1-24.6c0,0,1.6,14.2.1,19.1,0,0,3.1-5.5,4.8-6.8,0,0-2.3,5.4-1.4,8.8,0,0,5.6-.5,7-12.5,0,0,.3,11.6,1.2,14.2,0,0,3.8-12.7,5.5-15,0,0-.6,9.3,0,11.6a13.2,13.2,0,0,0,3.5-3.4s-2.7,4.9-.6,7.2a13,13,0,0,0,6.1-8.1s.3,6.3,2,9.5Z" style="fill:#d3de46"/><path d="M90.5,450s7-15,6.1-24.6c0,0,1.6,14.2.1,19.1,0,0,3.1-5.5,4.8-6.8,0,0-2.3,5.4-1.4,8.8,0,0,5.6-.5,7-12.5,0,0,.3,11.6,1.2,14.2,0,0,3.8-12.7,5.5-15,0,0-.6,9.3,0,11.6a13.2,13.2,0,0,0,3.5-3.4s-2.7,4.9-.6,7.2a13,13,0,0,0,6.1-8.1s.3,6.3,2,9.5Z" style="fill:#d3de46"/><path d="M236.2,249.3l.5-2.8Z" style="fill:#f5c6a2"/><path d="M235.5,252l.3-.9Z" style="fill:#f5c6a2"/><path d="M200.2,249.3v.7l-.3-.5Z" style="fill:#f5c6a2"/><polygon points="74.5 313.8 324 304.6 291.4 341.9 117.7 348.7 74.5 313.8" style="fill:#9d52a8"/><path d="M175.6,240.1c-1.8-3.5-4-6.9-5.4-10.6-5.7-14.6-8.3-30-9.4-45.6-.4-5-.4-10-.9-14.9s1.3-9.8,4.6-13.8c7.9-9.4,16.3-18.5,23.6-28.3,3.6-4.8,5.3-11.1,7.5-16.8,1.4-3.6,1.9-7.6,3-11.3.3-1,1.5-1.6,2.3-2.4.7.9,1.8,1.6,2.1,2.6,1,3.4,1.8,6.9,2.5,10.4,2,10.9,8.7,19,15.7,27s11.6,13.9,17.1,21c3.9,5.1,3.8,11.2,3.2,17.1-1.3,11.9-2.5,23.9-4.8,35.6-2,10-4.4,20-10.1,28.8-1.3-9-4-17.3-10.5-24,5.6-1.7,5.9-6.7,6.7-11.1,1.7-9.2,2.8-18.5,4.7-27.6,1.2-6,.8-11.2-2.8-16.3-5.5-8.1-10.6-16.5-16-24.8-2.4-3.7-5.1-7.3-8.1-11.6-2.9,4.2-5.4,7.4-7.5,10.7-5.8,9-11.3,18.3-17.3,27.2a13.8,13.8,0,0,0-2.4,10.6c1.6,9.7,2.7,19.4,4.5,29,1,5.6,3,11,4.6,16.4Z" style="fill:#f5c6a2"/><path d="M175.6,240.1l6.9-22.7,1.8-1c.4,1.6.9,3.2,1.1,4.8s.5,4.9.6,7.4,2.3,4.7,5.3,4.7c6.8-.1,13.7-.3,20.5-.9,4.6-.4,6-3,4.9-7.6l-2.3-10.3,1.6.5c6.5,6.7,9.3,15,10.5,24a5.5,5.5,0,0,0-.1.9l-.7,3.9-.5,2.5-.4,1.2c-2.3,5.9-5.3,11.7-6.6,17.8-2.6,12.3.4,24.1,5,35.5-1.3,1-2.5,2.5-4,2.9a26.5,26.5,0,0,1-7.4.9c-10.6-.1-21.2-.2-31.7-.7-1.3-.1-2.5-2.1-3.7-3.2,3.9-12.5,7.7-25.1,5.3-38.4-.7-3.9-2.8-7.5-4.2-11.3-.7-2-1.1-4.2-1.6-6.3v-1Z" style="fill:#45bcc9"/><path d="M176.3,300.7c1.2,1.1,2.4,3.2,3.7,3.2,10.6.4,21.1.6,31.7.7a26.5,26.5,0,0,0,7.4-.9c1.5-.4,2.7-1.9,4-2.9,13-1.6,26-3.2,39-4.6,4.2-.4,8.4.4,11.5,3.9-2.4.5-4.8,1-7.1,1.6-17.5,4.7-33.6,12.8-50.1,20-4,1.8-5.5,4-4.9,8a16.8,16.8,0,0,1-2.3.1l-13.5-1.4c-.9-.1-1.7.7-2.6.8l-5,.4c.6-3.8-.9-5.9-4.5-7.5-8.9-3.7-17.4-8.3-26.4-11.7s-20.8-6.9-31.2-10.3c3.5-3.9,8.2-4.4,12.8-3.9,10.2.9,20.4,2.2,30.5,3.4Z" style="fill:#4d4d4d"/><path d="M211.6,329.8c-.6-4.1.9-6.2,4.9-8,16.5-7.3,32.6-15.4,50.1-20,2.3-.6,4.7-1.1,7.1-1.6,5.8,4.5,6.5,11,.9,15.4a81.9,81.9,0,0,1-16.4,9.9c-12.9,5.9-26.1,11.2-39.2,16.9-2.4,1-3.5.4-4.1-1.9Z" style="fill:#606060"/><path d="M126.1,300.2c10.4,3.4,21,6.4,31.2,10.3s17.5,8,26.4,11.7c3.6,1.5,5.1,3.7,4.5,7.5l-2.6,10.7c-.5,1.8-.9,3.2-3.4,2.1l-50-22.1a27.5,27.5,0,0,1-6.6-4.4C120,311.2,120.3,304.9,126.1,300.2Z" style="fill:#606060"/><path d="M185.6,340.4l2.6-10.7,5-.4c.9-.1,1.8-.9,2.6-.8l13.5,1.4a16.8,16.8,0,0,0,2.3-.1l3.4,10.7-6.5,3.4c-1.1.5-2.4,1.5-3.4,1.2-5.9-1.6-12.8,1.3-17.8-4C186.9,340.7,186.1,340.7,185.6,340.4Z" style="fill:#f5c6a2"/><path d="M184.4,216.4c2.2-2.1,4.6-4,6.7-6.2s3-5.4.1-9.2-3.2-5.6-4.7-8.5-6-10.6-4-11.8,2.2-.6,2.3-1c.6-3,3-3.5,5.3-3.6,7.1-.2,14.3-.2,21.4,0,3.2.1,6,1.2,6.7,5.1.2.9,1.8,1.4,2.7,2.2-3.4,5.9-6.5,12-10.3,17.6s-3.3,5.8-.2,9.7a32.8,32.8,0,0,0,4.1,3.7l2.3,10.3c1,4.6-.4,7.2-4.9,7.6-6.8.6-13.7.8-20.5.9-2.9.1-5.1-1.3-5.3-4.7s-.3-5-.6-7.4S184.7,218,184.4,216.4Z" style="fill:#f5c6a2"/><path d="M220.8,183.3c-.9-.7-2.5-1.3-2.7-2.2-.7-3.9-3.5-5-6.7-5.1-7.1-.2-14.3-.1-21.4,0-2.3.1-4.6.6-5.3,3.6-.1.5-1.5.7-2.3,1-.2-7.7.3-15,6.8-20.5.6-.5.4-2.3.2-3.4-1.2-6,.1-8.7,6.1-9.9a33.3,33.3,0,0,1,12-.1c5,.9,6.6,4.4,5.6,9.4a5.3,5.3,0,0,0,1.1,4.3c3.6,3.2,5.3,7.2,6,11.8l.2,1.9v6.4l.5,1.4Z" style="fill:#ce9838"/><path d="M232.3,199.4v0Z" style="fill:#f5c6a2"/><path d="M232.6,205l-.3-1Z" style="fill:#f5c6a2"/><polygon points="364.1 277.8 584.8 272.2 555.7 304.9 402 309.2 364.1 277.8" style="fill:#f08921"/><path d="M461.1,210.1a101.7,101.7,0,0,1-4.8-9.4c-5-12.9-7.3-26.5-8.3-40.3-.3-4.4-.4-8.8-.8-13.2s1.2-8.7,4.1-12.2c7-8.3,14.4-16.3,20.8-25.1,3.2-4.3,4.7-9.8,6.6-14.9,1.2-3.2,1.7-6.7,2.7-10,.3-.8,1.3-1.4,2-2.1s1.6,1.4,1.9,2.3c.9,3,1.6,6.1,2.2,9.2,1.8,9.6,7.7,16.8,13.9,23.9s10.2,12.3,15.1,18.6c3.5,4.5,3.4,9.9,2.8,15.1-1.1,10.5-2.2,21.1-4.2,31.5-1.8,8.8-3.9,17.7-8.9,25.5-1.1-7.9-3.6-15.3-9.3-21.2,4.9-1.5,5.2-5.9,5.9-9.9,1.5-8.1,2.5-16.3,4.1-24.4,1.1-5.3.7-9.9-2.4-14.5-4.9-7.2-9.4-14.6-14.1-21.9-2.1-3.3-4.5-6.4-7.2-10.3-2.6,3.7-4.7,6.5-6.6,9.5-5.1,8-10,16.2-15.3,24.1a12.2,12.2,0,0,0-2.1,9.3c1.4,8.6,2.4,17.2,4,25.7.9,4.9,2.7,9.7,4,14.5Z" style="fill:#99691c"/><path d="M461.1,210.1l6.1-20,1.6-.9c.3,1.4.8,2.8.9,4.3s.4,4.4.5,6.6,2.1,4.2,4.7,4.1c6-.1,12.1-.3,18.1-.8,4-.4,5.3-2.7,4.4-6.7l-2-9.1,1.4.5c5.7,5.9,8.2,13.3,9.3,21.2a4.8,4.8,0,0,0-.1.8l-.6,3.5-.5,2.2-.3,1.1c-2,5.2-4.7,10.3-5.8,15.8-2.3,10.9.3,21.3,4.4,31.4-1.2.9-2.2,2.2-3.6,2.6a23.5,23.5,0,0,1-6.6.8c-9.4-.1-18.7-.2-28-.6-1.1,0-2.2-1.9-3.3-2.9,3.4-11.1,6.8-22.2,4.7-33.9-.6-3.4-2.5-6.7-3.7-10-.6-1.8-1-3.7-1.4-5.6v-.9Z" style="fill:#fcee21"/><path d="M461.8,263.7c1.1,1,2.2,2.8,3.3,2.9,9.3.4,18.7.5,28,.6a23.5,23.5,0,0,0,6.6-.8c1.3-.4,2.4-1.7,3.6-2.6,11.5-1.4,23-2.9,34.5-4,3.7-.4,7.5.3,10.1,3.5l-6.3,1.4c-15.5,4.1-29.7,11.3-44.3,17.7-3.6,1.6-4.9,3.5-4.3,7.1h-2L479,288.3c-.8-.1-1.5.6-2.3.7l-4.4.4c.5-3.3-.8-5.3-4-6.6-7.8-3.3-15.4-7.3-23.3-10.4s-18.4-6.1-27.6-9.1c3.1-3.5,7.2-3.9,11.3-3.5,9,.8,18,1.9,27,3Z" style="fill:#a0a0a0"/><path d="M493,289.5c-.5-3.6.8-5.5,4.3-7.1,14.6-6.4,28.8-13.6,44.3-17.7l6.3-1.4c5.1,4,5.8,9.7.8,13.6a72.5,72.5,0,0,1-14.5,8.8c-11.4,5.2-23.1,9.9-34.6,15-2.1.9-3.1.3-3.6-1.7Z" style="fill:#bababa"/><path d="M417.4,263.3c9.2,3,18.5,5.7,27.6,9.1s15.5,7.1,23.3,10.4c3.2,1.3,4.6,3.3,4,6.6l-2.3,9.5c-.4,1.6-.8,2.8-3,1.9l-44.3-19.5a24.3,24.3,0,0,1-5.8-3.9C412,273,412.2,267.4,417.4,263.3Z" style="fill:#bababa"/><path d="M470,298.9l2.3-9.5,4.4-.4c.8-.1,1.6-.8,2.3-.7l11.9,1.3h2l3,9.4-5.8,3c-1,.5-2.2,1.3-3,1.1-5.2-1.4-11.3,1.2-15.7-3.5C471.1,299.1,470.5,299,470,298.9Z" style="fill:#99691c"/><path d="M505.5,213.3l.6-3.5Z" style="fill:#f5c6a2"/><path d="M504.7,216.7l.3-1.1Z" style="fill:#f5c6a2"/><path d="M461.3,213.3v.9l-.3-.6Z" style="fill:#f5c6a2"/><path d="M468.9,189.2c2-1.8,4.1-3.5,5.9-5.5s2.7-4.7.1-8.1-2.8-5-4.1-7.5-5.3-9.4-3.5-10.4,1.9-.5,2-.9c.6-2.6,2.6-3.1,4.7-3.2,6.3-.2,12.6-.2,18.9,0,2.8.1,5.3,1.1,6,4.5.1.8,1.6,1.3,2.4,1.9-3,5.2-5.8,10.6-9.1,15.6s-2.9,5.1-.2,8.6a29,29,0,0,0,3.6,3.3l2,9.1c.9,4-.3,6.3-4.4,6.7-6,.6-12.1.7-18.1.8-2.6.1-4.5-1.1-4.7-4.1s-.3-4.4-.5-6.6S469.2,190.6,468.9,189.2Z" style="fill:#99691c"/><path d="M501.2,159.9c-.8-.6-2.2-1.1-2.4-1.9-.7-3.4-3.1-4.4-6-4.5-6.3-.2-12.6-.1-18.9,0-2,0-4.1.5-4.7,3.2-.1.4-1.3.6-2,.9-.2-6.8.3-13.3,6-18.2.3-.2,5.6-4.3,11-4.3,9.7,0,10.7,4.2,11.1,4.6a16.9,16.9,0,0,1,5.3,10.5l.2,1.7v5.7l.4,1.2Z" style="fill:#4d4d4d"/><path d="M500.8,151.8l-.2-1.7Z" style="fill:#f5c6a2"/><path d="M501.1,158.7l-.4-1.2Z" style="fill:#f5c6a2"/><path d="M484.7,140.7s.7-9.2,7.7-12.7,18.8-1.4,18.6,7-.1,21.8,5.5,21.8c0,0-13.6,10.1-14.1-7.8,0,0,1.5-15.1-9.4-11.2s-6.8,4-6.8,4Z" style="fill:#4d4d4d"/><path d="M498,316s9,69.6,80.3,69.6h29.8S688,385.2,688,316Z" style="fill:#4d4d4d"/><ellipse cx="593" cy="316" rx="95" ry="13.5" style="fill:#6d6e71"/><ellipse cx="593" cy="316" rx="71.4" ry="10.2" style="fill:#0999af"/><path d="M606.9,315.3c.7,2.1,10,2.3,15.4.4s5-5,4.3-7.1-6.3-4-11.7-2.2S606.2,313.2,606.9,315.3Z" style="fill:#cecece"/><path d="M580.3,311.1c.8,2-3.7,4-9.1,6s-7-.7-7.8-2.7,2.2-7.1,7.6-9.2S579.5,309,580.3,311.1Z" style="fill:#cecece"/><path d="M559.9,288.7s3.1,24.2,28,24.2h10.4s27.8-.1,27.8-24.2Z" style="fill:#4d4d4d"/><ellipse cx="593" cy="288.7" rx="33.1" ry="4.7" style="fill:#6d6e71"/><ellipse cx="593" cy="288.7" rx="24.9" ry="3.5" style="fill:#22bbcd"/><path d="M592.9,320.9c-.7,2.1-10,2.3-15.4.4s-5-5-4.3-7.1,6.3-4,11.7-2.2S593.6,318.8,592.9,320.9Z" style="fill:#f8f8f8"/><path d="M613.2,320.9c-.7,2.1-10,2.3-15.4.4s-5-5-4.3-7.1,6.3-4,11.7-2.2S613.9,318.8,613.2,320.9Z" style="fill:#dcd3c0"/><path d="M637.3,311.9c0,1.3-2.7,2.3-6.1,2.3s-6.1-1-6.1-2.3,2.7-3.4,6.1-3.4S637.3,310.6,637.3,311.9Z" style="fill:#dcd3c0"/><path d="M547.6,314.7c0,1.3-2.7,2.3-6.1,2.3s-6.1-1-6.1-2.3,2.7-3.4,6.1-3.4S547.6,313.5,547.6,314.7Z" style="fill:#fff"/><path d="M568.1,288.7s-9.4-3.6-11,3.5-3.8,20.6-8.2,21.3c0,0,4.3-2.8,6.5-.6,0,0,4.2-1.5,6.1,0,0,0-1.8-1.5-1.5-8.1s-.6-13.4.8-14.3,6.2-1.2,9.7-.4Z" style="fill:#22bbcd"/><path d="M567.4,318.1c0,2.5-5.4,4.6-12,4.6s-12-2-12-4.6,5.4-6.7,12-6.7S567.4,315.5,567.4,318.1Z" style="fill:#dcd3c0"/><path d="M619.2,288.1s9.4-3.6,11,3.5,3.8,20.6,8.2,21.3c0,0-4.3-2.8-6.5-.6,0,0-4.2-1.5-6.1,0,0,0,1.8-1.5,1.5-8.1s.6-13.4-.8-14.3-6.2-1.2-9.7-.4Z" style="fill:#22bbcd"/><path d="M647.3,317.1c0,2.5-5.4,4.6-12,4.6s-12-2-12-4.6,5.4-6.7,12-6.7S647.3,314.5,647.3,317.1Z" style="fill:#fff"/><path d="M598.1,287.7c.2.7,3.3.7,5,.1s1.6-1.6,1.4-2.3-2-1.3-3.8-.7S597.8,287,598.1,287.7Z" style="fill:#cecece"/><path d="M589.4,286.3c.3.7-1.2,1.3-3,2s-2.3-.2-2.6-.9.7-2.3,2.5-3S589.1,285.7,589.4,286.3Z" style="fill:#cecece"/><path d="M593.5,289.5c-.2.7-3.3.7-5,.1s-1.6-1.6-1.4-2.3,2-1.3,3.8-.7S593.7,288.9,593.5,289.5Z" style="fill:#f8f8f8"/><path d="M600.1,289.5c-.2.7-3.3.7-5,.1s-1.6-1.6-1.4-2.3,2-1.3,3.8-.7S600.4,288.9,600.1,289.5Z" style="fill:#dcd3c0"/><path d="M578.7,287.5c0,.4-.9.8-2,.8s-2-.3-2-.8.9-1.1,2-1.1S578.7,287.1,578.7,287.5Z" style="fill:#fff"/><path d="M585.1,288.6c0,.8-1.8,1.5-3.9,1.5s-3.9-.7-3.9-1.5,1.8-2.2,3.9-2.2S585.1,287.8,585.1,288.6Z" style="fill:#dcd3c0"/><path d="M611.3,288.3c0,.8-1.8,1.5-3.9,1.5s-3.9-.7-3.9-1.5,1.8-2.2,3.9-2.2S611.3,287.5,611.3,288.3Z" style="fill:#fff"/><path d="M591.4,391s7-15,6.1-24.6c0,0,1.6,14.2.1,19.1,0,0,3.1-5.5,4.8-6.8,0,0-2.3,5.4-1.4,8.8,0,0,5.6-.5,7-12.5,0,0,.3,11.6,1.2,14.2,0,0,3.8-12.7,5.5-15,0,0-.6,9.3,0,11.6a13.2,13.2,0,0,0,3.5-3.4s-2.7,4.9-.6,7.2a13,13,0,0,0,6.1-8.1s.3,6.3,2,9.5Z" style="fill:#d3de46"/><path d="M560.5,391s7-15,6.1-24.6c0,0,1.6,14.2.1,19.1,0,0,3.1-5.5,4.8-6.8,0,0-2.3,5.4-1.4,8.8,0,0,5.6-.5,7-12.5,0,0,.3,11.6,1.2,14.2,0,0,3.8-12.7,5.5-15,0,0-.6,9.3,0,11.6a13.2,13.2,0,0,0,3.5-3.4s-2.7,4.9-.6,7.2a13,13,0,0,0,6.1-8.1s.3,6.3,2,9.5Z" style="fill:#d3de46"/><ellipse cx="404.4" cy="419.5" rx="243" ry="44.8" style="fill:#0999af"/><path d="M721.7,281.1l6.3,3.6a2.4,2.4,0,0,1,1.2,2.1v7.3a2.4,2.4,0,0,1-1.2,2.1l-6.3,3.6a2.4,2.4,0,0,1-2.4,0l-6.3-3.6a2.4,2.4,0,0,1-1.2-2.1v-7.3a2.4,2.4,0,0,1,1.2-2.1l6.3-3.6A2.4,2.4,0,0,1,721.7,281.1Z" style="fill:#bbbe3a"/><path d="M721.7,277.3l7.1,4.1a2.7,2.7,0,0,1,1.4,2.4V292a2.7,2.7,0,0,1-1.4,2.4l-7.1,4.1a2.7,2.7,0,0,1-2.7,0l-7.1-4.1a2.7,2.7,0,0,1-1.4-2.4v-8.2a2.7,2.7,0,0,1,1.4-2.4l7.1-4.1A2.7,2.7,0,0,1,721.7,277.3Z" style="fill:#d3de46"/><path d="M708.1,287.9l6.3,3.6a2.4,2.4,0,0,1,1.2,2.1v7.3a2.4,2.4,0,0,1-1.2,2.1l-6.3,3.6a2.4,2.4,0,0,1-2.4,0l-6.3-3.6a2.4,2.4,0,0,1-1.2-2.1v-7.3a2.4,2.4,0,0,1,1.2-2.1l6.3-3.6A2.4,2.4,0,0,1,708.1,287.9Z" style="fill:#bbbe3a"/><path d="M708.1,284.1l7.1,4.1a2.7,2.7,0,0,1,1.4,2.4v8.2a2.7,2.7,0,0,1-1.4,2.4l-7.1,4.1a2.7,2.7,0,0,1-2.7,0l-7.1-4.1a2.7,2.7,0,0,1-1.4-2.4v-8.2a2.7,2.7,0,0,1,1.4-2.4l7.1-4.1A2.7,2.7,0,0,1,708.1,284.1Z" style="fill:#d3de46"/><rect x="709.4" y="301.7" width="10.1" height="6.41" style="fill:#6e8c3b"/><path d="M705.8,283l1.5,2.6a1,1,0,0,1,0,1l-1.5,2.6a1,1,0,0,1-.9.5h-3a1,1,0,0,1-.9-.5l-1.5-2.6a1,1,0,0,1,0-1l1.5-2.6a1,1,0,0,1,.9-.5h3A1,1,0,0,1,705.8,283Z" style="fill:#6e8c3b"/><path d="M705.8,282.5l1.5,2.6a1,1,0,0,1,0,1l-1.5,2.6a1,1,0,0,1-.9.5h-3a1,1,0,0,1-.9-.5l-1.5-2.6a1,1,0,0,1,0-1l1.5-2.6a1,1,0,0,1,.9-.5h3A1,1,0,0,1,705.8,282.5Z" style="fill:#8ea43b"/><path d="M717,280l9.2,5.3a3.5,3.5,0,0,1,1.8,3.1V299a3.5,3.5,0,0,1-1.8,3.1l-9.2,5.3a3.5,3.5,0,0,1-3.5,0l-9.2-5.3a3.5,3.5,0,0,1-1.8-3.1V288.4a3.5,3.5,0,0,1,1.8-3.1l9.2-5.3A3.5,3.5,0,0,1,717,280Z" style="fill:#6e8c3b"/><path d="M716.2,278.6l9.2,5.3a3.5,3.5,0,0,1,1.8,3.1v10.7a3.5,3.5,0,0,1-1.8,3.1l-9.2,5.3a3.5,3.5,0,0,1-3.5,0l-9.2-5.3a3.5,3.5,0,0,1-1.8-3.1V287a3.5,3.5,0,0,1,1.8-3.1l9.2-5.3A3.5,3.5,0,0,1,716.2,278.6Z" style="fill:#a3c23a"/><path d="M729.1,290l3.7,6.6a2.5,2.5,0,0,1,0,2.5l-3.8,6.5a2.5,2.5,0,0,1-2.2,1.2h-7.5a2.5,2.5,0,0,1-2.2-1.3l-3.7-6.6a2.5,2.5,0,0,1,0-2.5l3.8-6.5a2.5,2.5,0,0,1,2.2-1.2H727A2.5,2.5,0,0,1,729.1,290Z" style="fill:#6e8c3b"/><path d="M729.2,288.8l3.7,6.6a2.5,2.5,0,0,1,0,2.5l-3.8,6.5a2.5,2.5,0,0,1-2.2,1.2h-7.5a2.5,2.5,0,0,1-2.2-1.3l-3.7-6.6a2.5,2.5,0,0,1,0-2.5l3.8-6.5a2.5,2.5,0,0,1,2.2-1.2H727A2.5,2.5,0,0,1,729.2,288.8Z" style="fill:#8ea43b"/></g><path d="M325.7,292.5c0-.5,4.2-.9,9.3-.9s9.3.4,9.3.9-4.2.9-9.3.9-9.3-.4-9.3-.9" style="fill:#687833"/><path d="M337.3,237.1l10.4,6a4,4,0,0,1,2,3.5v12a4,4,0,0,1-2,3.5l-10.4,6a4,4,0,0,1-4,0l-10.4-6a4,4,0,0,1-2-3.5v-12a4,4,0,0,1,2-3.5l10.4-6a4,4,0,0,1,4,0" style="fill:#c4bf2f"/><path d="M336.4,235.6l10.4,6a4,4,0,0,1,2,3.5v12a4,4,0,0,1-2,3.5l-10.4,6a4,4,0,0,1-4,0l-10.4-6a4,4,0,0,1-2-3.5V245a4,4,0,0,1,2-3.5l10.4-6a4,4,0,0,1,4,0" style="fill:#dbdc2b"/><polygon points="334.9 248.4 334.8 253.6 329.3 246.8 334.7 254.2 333.4 292.7 336.3 292.7 335.4 262 337.9 253.6 335.3 259.2 334.9 248.4" style="fill:#9d802e"/><path d="M30.4,423l6.3,3.6a2.4,2.4,0,0,1,1.2,2.1V436a2.4,2.4,0,0,1-1.2,2.1l-6.3,3.6a2.4,2.4,0,0,1-2.4,0l-6.3-3.6a2.4,2.4,0,0,1-1.2-2.1v-7.3a2.4,2.4,0,0,1,1.2-2.1L28,423A2.4,2.4,0,0,1,30.4,423Z" style="fill:#bbbe3a"/><path d="M30.4,419.3l7.1,4.1a2.7,2.7,0,0,1,1.4,2.4V434a2.7,2.7,0,0,1-1.4,2.4l-7.1,4.1a2.7,2.7,0,0,1-2.7,0l-7.1-4.1a2.7,2.7,0,0,1-1.4-2.4v-8.2a2.7,2.7,0,0,1,1.4-2.4l7.1-4.1A2.7,2.7,0,0,1,30.4,419.3Z" style="fill:#d3de46"/><path d="M16.9,429.8l6.3,3.6a2.4,2.4,0,0,1,1.2,2.1v7.3a2.4,2.4,0,0,1-1.2,2.1l-6.3,3.6a2.4,2.4,0,0,1-2.4,0l-6.3-3.6A2.4,2.4,0,0,1,7,442.8v-7.3a2.4,2.4,0,0,1,1.2-2.1l6.3-3.6A2.4,2.4,0,0,1,16.9,429.8Z" style="fill:#bbbe3a"/><path d="M16.9,426l7.1,4.1a2.7,2.7,0,0,1,1.4,2.4v8.2a2.7,2.7,0,0,1-1.4,2.4l-7.1,4.1a2.7,2.7,0,0,1-2.7,0L7,443.1a2.7,2.7,0,0,1-1.4-2.4v-8.2A2.7,2.7,0,0,1,7,430.1l7.1-4.1A2.7,2.7,0,0,1,16.9,426Z" style="fill:#d3de46"/><rect x="18.1" y="443.6" width="10.1" height="6.41" style="fill:#6e8c3b"/><path d="M14.5,424.9l1.5,2.6a1,1,0,0,1,0,1l-1.5,2.6a1,1,0,0,1-.9.5h-3a1,1,0,0,1-.9-.5l-1.5-2.6a1,1,0,0,1,0-1l1.5-2.6a1,1,0,0,1,.9-.5h3A1,1,0,0,1,14.5,424.9Z" style="fill:#6e8c3b"/><path d="M14.5,424.4l1.5,2.6a1,1,0,0,1,0,1l-1.5,2.6a1,1,0,0,1-.9.5h-3a1,1,0,0,1-.9-.5L8.2,428a1,1,0,0,1,0-1l1.5-2.6a1,1,0,0,1,.9-.5h3A1,1,0,0,1,14.5,424.4Z" style="fill:#8ea43b"/><path d="M25.7,421.9l9.2,5.3a3.5,3.5,0,0,1,1.8,3.1V441A3.5,3.5,0,0,1,35,444l-9.2,5.3a3.5,3.5,0,0,1-3.5,0L12.9,444a3.5,3.5,0,0,1-1.8-3.1V430.3a3.5,3.5,0,0,1,1.8-3.1l9.2-5.3A3.5,3.5,0,0,1,25.7,421.9Z" style="fill:#6e8c3b"/><path d="M25,420.5l9.2,5.3a3.5,3.5,0,0,1,1.8,3.1v10.7a3.5,3.5,0,0,1-1.8,3.1L25,448a3.5,3.5,0,0,1-3.5,0l-9.2-5.3a3.5,3.5,0,0,1-1.8-3.1V428.9a3.5,3.5,0,0,1,1.8-3.1l9.2-5.3A3.5,3.5,0,0,1,25,420.5Z" style="fill:#a3c23a"/><path d="M37.9,431.9l3.7,6.6a2.5,2.5,0,0,1,0,2.5l-3.8,6.5a2.5,2.5,0,0,1-2.2,1.2H28a2.5,2.5,0,0,1-2.2-1.3l-3.7-6.6a2.5,2.5,0,0,1,0-2.5l3.8-6.5a2.5,2.5,0,0,1,2.2-1.2h7.5A2.5,2.5,0,0,1,37.9,431.9Z" style="fill:#6e8c3b"/><path d="M37.9,430.8l3.7,6.6a2.5,2.5,0,0,1,0,2.5l-3.8,6.5a2.5,2.5,0,0,1-2.2,1.2H28a2.5,2.5,0,0,1-2.2-1.3l-3.7-6.6a2.5,2.5,0,0,1,0-2.5l3.8-6.5a2.5,2.5,0,0,1,2.2-1.2h7.5A2.5,2.5,0,0,1,37.9,430.8Z" style="fill:#8ea43b"/><path d="M349,338l6.3,3.6a2.4,2.4,0,0,1,1.2,2.1V351a2.4,2.4,0,0,1-1.2,2.1l-6.3,3.6a2.4,2.4,0,0,1-2.4,0l-6.3-3.6a2.4,2.4,0,0,1-1.2-2.1v-7.3a2.4,2.4,0,0,1,1.2-2.1l6.3-3.6A2.4,2.4,0,0,1,349,338Z" style="fill:#bbbe3a"/><path d="M349,334.3l7.1,4.1a2.7,2.7,0,0,1,1.4,2.4V349a2.7,2.7,0,0,1-1.4,2.4l-7.1,4.1a2.7,2.7,0,0,1-2.7,0l-7.1-4.1a2.7,2.7,0,0,1-1.4-2.4v-8.2a2.7,2.7,0,0,1,1.4-2.4l7.1-4.1A2.7,2.7,0,0,1,349,334.3Z" style="fill:#d3de46"/><path d="M335.5,344.8l6.3,3.6a2.4,2.4,0,0,1,1.2,2.1v7.3a2.4,2.4,0,0,1-1.2,2.1l-6.3,3.6a2.4,2.4,0,0,1-2.4,0l-6.3-3.6a2.4,2.4,0,0,1-1.2-2.1v-7.3a2.4,2.4,0,0,1,1.2-2.1l6.3-3.6A2.4,2.4,0,0,1,335.5,344.8Z" style="fill:#bbbe3a"/><path d="M335.5,341l7.1,4.1a2.7,2.7,0,0,1,1.4,2.4v8.2a2.7,2.7,0,0,1-1.4,2.4l-7.1,4.1a2.7,2.7,0,0,1-2.7,0l-7.1-4.1a2.7,2.7,0,0,1-1.4-2.4v-8.2a2.7,2.7,0,0,1,1.4-2.4l7.1-4.1A2.7,2.7,0,0,1,335.5,341Z" style="fill:#d3de46"/><rect x="336.8" y="358.6" width="10.1" height="6.41" style="fill:#6e8c3b"/><path d="M333.2,339.9l1.5,2.6a1,1,0,0,1,0,1l-1.5,2.6a1,1,0,0,1-.9.5h-3a1,1,0,0,1-.9-.5l-1.5-2.6a1,1,0,0,1,0-1l1.5-2.6a1,1,0,0,1,.9-.5h3A1,1,0,0,1,333.2,339.9Z" style="fill:#6e8c3b"/><path d="M333.2,339.4l1.5,2.6a1,1,0,0,1,0,1l-1.5,2.6a1,1,0,0,1-.9.5h-3a1,1,0,0,1-.9-.5l-1.5-2.6a1,1,0,0,1,0-1l1.5-2.6a1,1,0,0,1,.9-.5h3A1,1,0,0,1,333.2,339.4Z" style="fill:#8ea43b"/><path d="M344.4,336.9l9.2,5.3a3.5,3.5,0,0,1,1.8,3.1V356a3.5,3.5,0,0,1-1.8,3.1l-9.2,5.3a3.5,3.5,0,0,1-3.5,0l-9.2-5.3a3.5,3.5,0,0,1-1.8-3.1V345.3a3.5,3.5,0,0,1,1.8-3.1l9.2-5.3A3.5,3.5,0,0,1,344.4,336.9Z" style="fill:#6e8c3b"/><path d="M343.6,335.5l9.2,5.3a3.5,3.5,0,0,1,1.8,3.1v10.7a3.5,3.5,0,0,1-1.8,3.1l-9.2,5.3a3.5,3.5,0,0,1-3.5,0l-9.2-5.3a3.5,3.5,0,0,1-1.8-3.1V343.9a3.5,3.5,0,0,1,1.8-3.1l9.2-5.3A3.5,3.5,0,0,1,343.6,335.5Z" style="fill:#a3c23a"/><path d="M356.5,346.9l3.7,6.6a2.5,2.5,0,0,1,0,2.5l-3.8,6.5a2.5,2.5,0,0,1-2.2,1.2h-7.5a2.5,2.5,0,0,1-2.2-1.3l-3.7-6.6a2.5,2.5,0,0,1,0-2.5l3.8-6.5a2.5,2.5,0,0,1,2.2-1.2h7.5A2.5,2.5,0,0,1,356.5,346.9Z" style="fill:#6e8c3b"/><path d="M356.5,345.8l3.7,6.6a2.5,2.5,0,0,1,0,2.5l-3.8,6.5a2.5,2.5,0,0,1-2.2,1.2h-7.5a2.5,2.5,0,0,1-2.2-1.3l-3.7-6.6a2.5,2.5,0,0,1,0-2.5l3.8-6.5a2.5,2.5,0,0,1,2.2-1.2h7.5A2.5,2.5,0,0,1,356.5,345.8Z" style="fill:#8ea43b"/><g style="clip-path:url(#clip-path-3)"><path d="M600.5,394.2s295.6-190.6,712.2-190.6c244.8,0,722.7,128.4,1107.4,190.6Z" style="fill:#a3c23b"/><path d="M1715.7,429.3s-295.6-190.6-712.2-190.6c-244.8,0-722.7,128.4-1107.4,190.6Z" style="fill:#8ea43b"/><path d="M798,332.4s8.8-19,7.7-31c0,0,2,17.9.1,24.1,0,0,3.9-6.9,6.1-8.6,0,0-2.9,6.8-1.8,11.1,0,0,7-.7,8.8-15.7,0,0,.4,14.6,1.5,17.9,0,0,4.7-16,6.9-19,0,0-.7,11.7,0,14.6a16.6,16.6,0,0,0,4.5-4.3s-3.4,6.2-.8,9.1c0,0,6.2-3.3,7.7-10.2,0,0,.4,8,2.6,12Z" style="fill:#d3de46"/></g></svg>