<svg id="Layer_1" data-name="Layer 1" xmlns="http://www.w3.org/2000/svg" xmlns:xlink="http://www.w3.org/1999/xlink" viewBox="0 0 800 450"><defs><clipPath id="clip-path"><rect width="800" height="450" style="fill:none"/></clipPath></defs><title>mobile volunteering</title><g style="clip-path:url(#clip-path)"><path d="M-98.5,508.4H817.9l-9.5-182.9s-317.8-25.8-468.7-25.8S-18,322.9-99,327.9" style="fill:#a3c23b"/><ellipse cx="573.8" cy="321.4" rx="46.4" ry="7.5" style="opacity:0.200000002980232;isolation:isolate"/><ellipse cx="480" cy="328.4" rx="26.3" ry="6" style="opacity:0.200000002980232;isolation:isolate"/><path d="M527.7,198.8c-16,.3-12.1,19.8-12.2,26.4h12.2Z" style="fill:#c67314"/><path d="M527.8,198.8c16.6.6,12.1,19.8,12.2,26.4H527.8Z" style="fill:#ea9524"/><path d="M528.8,268.9l9.4-9s2.6,12.2-5,56.7h-2.8Z" style="fill:#1485b3"/><path d="M520.1,214.1a1.9,1.9,0,0,1-1.4,2.3h0a1.9,1.9,0,0,1-2-1.8l-.2-1.4a1.9,1.9,0,0,1,1.4-2.3h0a1.9,1.9,0,0,1,2,1.8Z" style="fill:#e09b7f"/><path d="M535.4,213.9a1.9,1.9,0,0,0,1.4,2.3h0a1.9,1.9,0,0,0,2-1.8l.2-1.4a1.9,1.9,0,0,0-1.4-2.3h0a1.9,1.9,0,0,0-2,1.8Z" style="fill:#eeb7a5"/><path d="M533.2,238s8.6,2.8,20.2-29.3l-3.1-1.1c-1.7,3.6-11.3,23.2-15.5,23Z" style="fill:#e09b7f"/><path d="M551.2,200.4c-.5,1.7-1.1,6.9-.8,7.8l2.9.9c.7-1.8,2-3,1.8-5.1a16.9,16.9,0,0,0-1.3-4.8C552.9,196.9,551.6,198.9,551.2,200.4Z" style="fill:#e09b7f"/><rect x="525.2" y="220.4" width="2.6" height="8.08" style="fill:#e09b7f"/><rect x="527.7" y="220.4" width="2.6" height="8.08" style="fill:#eeb7a5"/><path d="M518,238.3s-8.9,1.6-16.3-31.6l3.3-.7c1.2,3.8,8.3,24.4,12.5,24.8Z" style="fill:#f4c3ae"/><path d="M505,198.7c.3,1.7.2,7-.2,7.9l-3,.5c-.4-1.9-1.6-3.2-1.1-5.3a16.7,16.7,0,0,1,1.9-4.6C503.8,195.1,504.8,197.2,505,198.7Z" style="fill:#f4c3ae"/><path d="M527.8,206.8H518s-1.6,17.2,9.8,17.4Z" style="fill:#eaaf93"/><path d="M527.7,206.8h9.8s1.6,17.2-9.8,17.4Z" style="fill:#f4c3ae"/><path d="M527.8,228c-1.3-.2-8-.9-10.7,2.7s3.1,13.1,3.7,18.3-5,9.3-3.1,14.1,6,5.9,10.1,6V228Z" style="fill:#eaaf93"/><path d="M527.8,228c1.3-.2,8-.9,10.7,2.7s-3.1,13.1-3.7,18.3,5,9.3,3.1,14.1-6,5.9-10.1,6V228Z" style="fill:#f4c3ae"/><path d="M526.7,268.9l-9.4-9s-2.6,12.2,5,56.7h2.8Z" style="fill:#02679a"/><path d="M525.1,316.5h-2.8s-7.3,2.8-6.5,4.4h9.4Z" style="fill:#c72624"/><path d="M530.5,316.5h2.8s7.3,2.8,6.4,4.4h-9.4Z" style="fill:#ea5050"/><path d="M527.7,200c-6,.1-10.8,5.6-10.8,11.5h10.8Z" style="fill:#ea9524"/><path d="M527.8,200c6,.1,10.8,5.6,10.8,11.5H527.8Z" style="fill:#f9b03d"/><path d="M518.7,256.3c-1.1,2.3-2,4.5-1.1,6.8,1.6,3.9,6,5.9,10.1,6V256.3Z" style="fill:#02679a"/><path d="M527.8,256.3v12.8c4-.1,8.5-2.1,10.1-6,.9-2.3,0-4.6-1.1-6.8Z" style="fill:#1485b3"/><path d="M517.8,258.4h9.9V232.2h-.2a6.3,6.3,0,0,1-4.5-1.8,6.2,6.2,0,0,1-1.4-2.2,9.2,9.2,0,0,0-3,1c-.5.3-1.5,8.4-.4,10.9a38.3,38.3,0,0,1,2.6,8.9C521.2,252.3,518.9,255.3,517.8,258.4Z" style="fill:#07aa9e"/><path d="M537.7,258.4h-9.9V232.2h.2a6.3,6.3,0,0,0,4.5-1.8,6.2,6.2,0,0,0,1.4-2.2,9.2,9.2,0,0,1,3,1c.5.3,1.5,8.4.4,10.9a38.3,38.3,0,0,0-2.6,8.9C534.3,252.3,536.6,255.3,537.7,258.4Z" style="fill:#56bbaf"/><polygon points="527.7 259.8 517.1 259.8 517.9 256.9 527.7 256.9 527.7 259.8" style="fill:#39343c"/><polygon points="538.3 259.8 527.7 259.8 527.7 256.9 537.5 256.9 538.3 259.8" style="fill:#575758"/><path d="M527.8,232.2s-4.5-.4-6.1-4.5l-3.8,1.4S521,239.7,527.8,232.2Z" style="fill:#cdcccc"/><path d="M527.7,232.2s4.5-.4,6.1-4.5l3.8,1.4S534.5,239.7,527.7,232.2Z" style="fill:#f2f2f2"/><path d="M464.7,200.8c4.3-10.4,18.5-5.3,18,.4l-8.8,20.1c-4.4,3.9-10.4,2.5-15.3-3.2C465.8,218.9,463.2,204.4,464.7,200.8Z" style="fill:#69261d"/><path d="M482.1,273.6l8.8-9.5s3.9,12.9-4.7,59.8H483Z" style="fill:#b15732"/><path d="M483,324h3.2s8.2,3,7.3,4.7H482.8Z" style="fill:#034b70"/><path d="M477.9,273.6l-8.8-9.5s-3.9,12.9,4.7,59.8H477Z" style="fill:#bb653b"/><path d="M476.9,324h-3.2s-8.2,3-7.3,4.7h10.6Z" style="fill:#0e658a"/><path d="M488.6,215.8a2,2,0,0,0,1.6,2.4h0a2.1,2.1,0,0,0,2.3-1.9l.2-1.5a2,2,0,0,0-1.6-2.4h0a2.1,2.1,0,0,0-2.3,1.9Z" style="fill:#b15732"/><path d="M471.3,215.6a2,2,0,0,1-1.6,2.4h0a2.1,2.1,0,0,1-2.3-1.9l-.2-1.5a2,2,0,0,1,1.6-2.4h0a2.1,2.1,0,0,1,2.3,1.9Z" style="fill:#bd6144"/><path d="M489.3,231.4s10.2.4,9.9,36.4h-3.7c-.4-4.2-2.9-27.1-7.4-28.5Z" style="fill:#b15732"/><path d="M493.5,275.3c.1-1.8,1.5-7.3,2.3-8l3.4.2c0,2.1.9,3.7-.1,5.7a17.5,17.5,0,0,1-3.3,4.3C494,279.4,493.4,277,493.5,275.3Z" style="fill:#b15732"/><rect x="480" y="222.4" width="2.9" height="8.53" style="fill:#b15732"/><rect x="477.1" y="222.4" width="2.9" height="8.53" style="fill:#bd6144"/><path d="M480,208.1h11s1.8,18.6-11,18.8Z" style="fill:#bb653b"/><path d="M480,208.1h-11s-1.8,18.6,11,18.8Z" style="fill:#c46f4c"/><path d="M480,230.5c1.4-.2,9-.9,12,2.9s-3.5,13.8-4.2,19.3,5.2,9.9,3.1,14.8-6.4,6.2-10.9,6.3Z" style="fill:#bb653b"/><path d="M480,230.5c-1.4-.2-9-.9-12,2.9s3.5,13.8,4.2,19.3-5.2,9.9-3.1,14.8,6.4,6.2,10.9,6.3Z" style="fill:#c46f4c"/><path d="M470.2,232.1s-10.2,0-11.4,35.9h3.7c.6-4.2,4-27,8.6-28.1Z" style="fill:#b15732"/><path d="M464,275.8c0-1.8-1.2-7.3-1.9-8.1h-3.4c-.1,2.1-1,3.7-.1,5.7a17.4,17.4,0,0,0,3.1,4.4C463.4,279.8,464.1,277.4,464,275.8Z" style="fill:#b15732"/><path d="M480,289.6V260.9l11,.4s1.8,9.7.2,28.3H480Z" style="fill:#f9b03d"/><path d="M480,289.6V260.9l-11,.4s-2.7,10.4-.7,28.3H480Z" style="fill:#fcc984"/><path d="M480,200.3c14.9-.1,12.1,11.8,12.1,11.8s-5.6.6-12.1.5Z" style="fill:#69261d"/><path d="M480,200.3c-14.9-.1-12.1,11.8-12.1,11.8s5.6.6,12.1.5Z" style="fill:#80352f"/><path d="M491,244.6c-.8-2.9-1.7-4.9-3-5.3l1.2-7.8s3.8.1,6.8,7.7Z" style="fill:#f9b03d"/><path d="M467.6,245.1c-1.6-2.1-3.4-3.2-5-5.3,2.9-6.8,8.1-8.4,8.1-8.4l1.2,7.8C470.7,239.6,468.4,242.2,467.6,245.1Z" style="fill:#fcc984"/><path d="M491.1,261.3,480,263.6V237.5l4.5-7.1c2.7.2,5.9.9,7.5,3s-3.5,13.8-4.2,19.3C487.3,256.5,490.1,257.7,491.1,261.3Z" style="fill:#f9b03d"/><path d="M469,261.3c1-3.5,3.7-4.8,3.2-8.6-.7-5.5-6.5-16.4-4.2-19.3s4.5-2.8,7-3l5,7.5v25.7Z" style="fill:#fcc984"/><path d="M582.5,211.2a1.9,1.9,0,0,1-1.4,2.3h0a1.9,1.9,0,0,1-2-1.8l-.2-1.4a1.9,1.9,0,0,1,1.4-2.3h0a1.9,1.9,0,0,1,2,1.8Z" style="fill:#e09b7f"/><path d="M597.8,211.1a1.9,1.9,0,0,0,1.4,2.3h0a1.9,1.9,0,0,0,2-1.8l.2-1.4a1.9,1.9,0,0,0-1.4-2.3h0a1.9,1.9,0,0,0-2,1.8Z" style="fill:#e09b7f"/><path d="M581.2,226.4s-9.9.1-9.7,34.2h3.3c.3-4,4.2-25.7,8.2-26.9Z" style="fill:#e09b7f"/><path d="M576.5,267.7c-.1-1.7-1.4-6.9-2-7.6l-3,.2c0,2-.8,3.5.1,5.4a16.9,16.9,0,0,0,2.9,4C576.1,271.6,576.5,269.3,576.5,267.7Z" style="fill:#e09b7f"/><path d="M599.6,226.7s9.5-.1,9.2,33.9h-3.3c-.3-4-3.8-25.3-7.8-26.5Z" style="fill:#e09b7f"/><path d="M603.8,267.7c.1-1.7,1.4-6.9,2-7.6l3,.2c0,2,.8,3.5-.1,5.4a16.9,16.9,0,0,1-2.9,4C604.2,271.6,603.7,269.3,603.8,267.7Z" style="fill:#e09b7f"/><path d="M575.8,253.7c1.5-7.8,4.3-19.2,7.1-20.1l-1.8-7.2s-8.3.1-9.6,26.4Z" style="fill:#b22020"/><path d="M604.5,254.1l4.1-1.4c-1.1-26.1-9.1-25.9-9.1-25.9l-1.9,7.3C600.6,234.9,603.2,246.3,604.5,254.1Z" style="fill:#d33e3e"/><rect x="586.7" y="217.7" width="3.4" height="8.08" style="fill:#e09b7f"/><rect x="590.1" y="217.7" width="3.4" height="8.08" style="fill:#eeb7a5"/><path d="M590.1,201.7l-9.8,2.8s-1.6,17.6,9.8,17.8Z" style="fill:#eaaf93"/><path d="M590.1,200.9l9.8,4s1.6,17.2-9.8,17.4Z" style="fill:#f4c3ae"/><path d="M586.8,225.2h-.1c-3,.2-7.1.9-8.8,3.2s3.3,23.8,2.6,31.9c-.4,4.2,5.6,5.9,9.7,6V225.3h-3.4Z" style="fill:#c72624"/><path d="M602.4,228.4c-1.7-2.4-5.9-3.1-8.9-3.2h-3.4v41.1c4-.1,10.2-1.8,9.7-6C599,253.3,604.4,231.2,602.4,228.4Z" style="fill:#ea5050"/><path d="M589,266.1l-8.6-9s-3.4,12.2,4.2,56.7h2.8Z" style="fill:#02679a"/><path d="M591.2,266.1l8.6-9s3.4,12.2-4.2,56.7h-2.8Z" style="fill:#1485b3"/><path d="M587.5,313.8h-2.8s-7.3,2.8-6.4,4.4h9.4Z" style="fill:#412413"/><path d="M592.8,313.8h2.8s7.3,2.8,6.5,4.4h-9.4Z" style="fill:#603914"/><rect x="572.1" y="250.8" width="2.9" height="6.4" transform="translate(244.7 788.2) rotate(-82.3)" style="fill:#c72624"/><rect x="603.7" y="253.2" width="6.4" height="2.94" transform="translate(-42.3 146.6) rotate(-13.3)" style="fill:#ea5050"/><path d="M580.4,255.9a28.5,28.5,0,0,1,0,4.4c-.4,4.2,5.6,5.9,9.7,6V255.9Z" style="fill:#02679a"/><path d="M599.9,255.9h-9.7v10.4c4-.1,10.2-1.8,9.7-6A25.1,25.1,0,0,1,599.9,255.9Z" style="fill:#1485b3"/><rect x="580" y="254.7" width="10.1" height="2.68" style="fill:#412413"/><rect x="590.1" y="254.7" width="10.1" height="2.68" style="fill:#603914"/><path d="M586.2,207.9a5.4,5.4,0,0,1,2.4.6h2.9a5.9,5.9,0,0,1,3.7-.3l2.5.4c.4,0,.7.2.7.6a.6.6,0,0,1-.5.7.8.8,0,0,0-.6.8c0,.4,0,.8-.1,1.2a2.2,2.2,0,0,1-1.8,2,5.9,5.9,0,0,1-1.9.1c-1.5-.2-2.2-1-2.5-2.6s-.1-.6-.1-.9a.8.8,0,0,0-.9-.7.9.9,0,0,0-.9.7c-.1.3-.1.7-.2,1.1-.4,2.1-1.6,2.6-3.6,2.4s-2.5-1.1-2.5-2.9-.1-1.1-.8-1.4a.7.7,0,0,1-.3-.6.8.8,0,0,1,.5-.5l2-.4Zm-.1.7h-1.2a1.8,1.8,0,0,0-1.6,1.9c0,.2,0,.4,0,.6,0,1.7,2.1,2.7,3.7,1.9a3.3,3.3,0,0,0,1.6-3.4,1.3,1.3,0,0,0-1-1Zm7.7,0h-.8c-.9.1-1.6.5-1.6,1.3a3.3,3.3,0,0,0,1,2.8,2.4,2.4,0,0,0,2.1.6c1.8-.2,2.5-1.4,2.1-3.4a1.4,1.4,0,0,0-1.1-1.1Z" style="fill:#69261d"/><path d="M580.6,208.4a21.2,21.2,0,0,0,7.1-3.9s5.9,3.6,9.4,3.6l-1-2.3,3.4,2.4s6.1-13.2-9.2-13.3-9.7,12.6-9.7,12.6" style="fill:#010202"/><path d="M589.8,195c-15.6.1-9.2,12.6-9.2,12.6v.8a21.2,21.2,0,0,0,7.1-3.9l2,1.1V195Z" style="fill:#010202"/><path d="M425.6,313.6s5.7,2.4,2.7,12c0,0,.1,1,.8.4s4.8-10.4-2.8-13.8l-1.1-.2v1.3Z" style="fill:#4d4d4d"/><rect x="428.2" y="247.4" width="2" height="79.09" transform="translate(54.5 -68.3) rotate(9.7)" style="fill:#7c7d7f"/><path d="M434,248.4l1.6-9.3a2.6,2.6,0,0,1,1.8-2.1c1.6-.5,14-2.7,15.4-2.3s.7,2.4.4,4.7-.6,2.8-2.3,3.1-2.3-.6-3-.6-1.1,1.2-2.1,1.2-2.1-.7-2.7-.3-1,1.3-2.4,1.2a1.9,1.9,0,0,0-1.9,1s-1.1,3.4-.9,3.7,7.7.5,8.6-.7,1.3,0,1.3,0,.2,2.7-10,1.7A3.8,3.8,0,0,1,434,248.4Z" style="fill:#4d4d4d"/><path d="M421.6,325.7s-.1.7.9.9a.9.9,0,0,0,1.1-.5Z" style="fill:#4d4d4d"/><circle cx="424.9" cy="312.2" r="0.5" transform="translate(45.5 678.4) rotate(-80.3)" style="fill:#4d4d4d"/><path d="M408.5,217s-6.9.4-8.4-10.7c0,0-.5-1-1-.1s.2,12.7,9.5,12.5l1.2-.3L409,217Z" style="fill:#4d4d4d"/><rect x="416.6" y="201.5" width="2.2" height="87.91" transform="translate(886.7 367) rotate(164.1)" style="fill:#7c7d7f"/><path d="M431.4,286.3l2.9,10.1a2.9,2.9,0,0,1-.8,2.9c-1.3,1.2-12.7,9.5-14.3,9.7s-1.9-2-2.7-4.5-.8-3.1.8-4.2,2.6-.5,3.3-.9.6-1.8,1.5-2.2,2.5-.3,2.8-.9.4-1.8,1.8-2.4a2.1,2.1,0,0,0,1.4-1.9s-.5-3.9-.9-4.2-7.9,3.2-8.3,4.8-1.3.6-1.3.6-1.5-2.7,9.2-6.6A4.2,4.2,0,0,1,431.4,286.3Z" style="fill:#4d4d4d"/><path d="M406.7,202.9a1,1,0,0,0-1.3-.5c-1,.3-.8,1.1-.8,1.1Z" style="fill:#4d4d4d"/><circle cx="409.9" cy="218" r="0.5" transform="translate(-44 120.6) rotate(-15.9)" style="fill:#4d4d4d"/><path d="M30.9,186.5l26.3,15.2a10.1,10.1,0,0,1,5,8.7v30.3a10.1,10.1,0,0,1-5,8.7L30.9,264.6a10.1,10.1,0,0,1-10.1,0L-5.4,249.4a10.1,10.1,0,0,1-5-8.7V210.4a10.1,10.1,0,0,1,5-8.7l26.3-15.2A10.1,10.1,0,0,1,30.9,186.5Z" style="fill:#6e8c3b"/><path d="M28.7,182.5,55,197.7a10.1,10.1,0,0,1,5,8.7v30.3a10.1,10.1,0,0,1-5,8.7L28.7,260.6a10.1,10.1,0,0,1-10.1,0L-7.6,245.4a10.1,10.1,0,0,1-5-8.7V206.4a10.1,10.1,0,0,1,5-8.7l26.3-15.2A10.1,10.1,0,0,1,28.7,182.5Z" style="fill:#a3c23a"/><polygon points="25 214.9 24.6 228 10.8 210.9 24.5 229.5 21.2 337.6 28.3 337.6 26.2 249.1 32.5 228 26 242.2 25 214.9" style="fill:#967e2e"/><path d="M199.1,206.7,221,219.3a8.4,8.4,0,0,1,4.2,7.2v25.2a8.4,8.4,0,0,1-4.2,7.2l-21.8,12.6a8.4,8.4,0,0,1-8.4,0L169,258.9a8.4,8.4,0,0,1-4.2-7.2V226.5a8.4,8.4,0,0,1,4.2-7.2l21.8-12.6A8.4,8.4,0,0,1,199.1,206.7Z" style="fill:#6e8c3b"/><path d="M197.3,203.4,219.2,216a8.4,8.4,0,0,1,4.2,7.2v25.2a8.4,8.4,0,0,1-4.2,7.2l-21.8,12.6a8.4,8.4,0,0,1-8.4,0l-21.8-12.6a8.4,8.4,0,0,1-4.2-7.2V223.2a8.4,8.4,0,0,1,4.2-7.2L189,203.4A8.4,8.4,0,0,1,197.3,203.4Z" style="fill:#a3c23a"/><polygon points="194.3 230.3 193.9 241.2 182.5 227 193.9 242.4 191.1 332.2 197 332.2 195.3 258.7 200.5 241.2 195.1 252.9 194.3 230.3" style="fill:#967e2e"/><path d="M173.2,225.2l17.1,9.9a6.6,6.6,0,0,1,3.3,5.7v19.8a6.6,6.6,0,0,1-3.3,5.7l-17.1,9.9a6.6,6.6,0,0,1-6.6,0l-17.1-9.9a6.6,6.6,0,0,1-3.3-5.7V240.8a6.6,6.6,0,0,1,3.3-5.7l17.1-9.9A6.6,6.6,0,0,1,173.2,225.2Z" style="fill:#bbbe3a"/><path d="M171.2,222.9l17.1,9.9a6.6,6.6,0,0,1,3.3,5.7v19.8a6.6,6.6,0,0,1-3.3,5.7l-17.1,9.9a6.6,6.6,0,0,1-6.6,0l-17.1-9.9a6.6,6.6,0,0,1-3.3-5.7V238.4a6.6,6.6,0,0,1,3.3-5.7l17.1-9.9A6.6,6.6,0,0,1,171.2,222.9Z" style="fill:#d3de46"/><polygon points="167 248.8 166.7 257.2 157.8 246.2 166.7 258.1 164.5 320.4 169.1 320.4 167.7 270.7 171.8 257.2 167.6 266.3 167 248.8" style="fill:#967e2e"/><path d="M735.7,161.7l32.6,18.8a12.5,12.5,0,0,1,6.2,10.8v37.6a12.5,12.5,0,0,1-6.2,10.8l-32.6,18.8a12.5,12.5,0,0,1-12.5,0l-32.6-18.8a12.5,12.5,0,0,1-6.2-10.8V191.3a12.5,12.5,0,0,1,6.2-10.8l32.6-18.8A12.5,12.5,0,0,1,735.7,161.7Z" style="fill:#6e8c3b"/><path d="M733,156.7l32.6,18.8a12.5,12.5,0,0,1,6.2,10.8v37.6a12.5,12.5,0,0,1-6.2,10.8L733,253.5a12.5,12.5,0,0,1-12.5,0L688,234.7a12.5,12.5,0,0,1-6.2-10.8V186.3a12.5,12.5,0,0,1,6.2-10.8l32.6-18.8A12.5,12.5,0,0,1,733,156.7Z" style="fill:#a3c23a"/><polygon points="728.5 196.9 727.9 213.1 710.9 191.9 727.9 214.9 723.8 349 732.6 349 730 239.2 737.7 213.1 729.7 230.7 728.5 196.9" style="fill:#967e2e"/><path d="M697,189.3,722.6,204a9.8,9.8,0,0,1,4.9,8.5V242a9.8,9.8,0,0,1-4.9,8.5L697,265.2a9.8,9.8,0,0,1-9.8,0l-25.5-14.8a9.8,9.8,0,0,1-4.9-8.5V212.5a9.8,9.8,0,0,1,4.9-8.5l25.5-14.8A9.8,9.8,0,0,1,697,189.3Z" style="fill:#bbbe3a"/><path d="M694.1,185.8l25.5,14.8a9.8,9.8,0,0,1,4.9,8.5v29.5a9.8,9.8,0,0,1-4.9,8.5l-25.5,14.8a9.8,9.8,0,0,1-9.8,0L658.8,247a9.8,9.8,0,0,1-4.9-8.5V209.1a9.8,9.8,0,0,1,4.9-8.5l25.5-14.8A9.8,9.8,0,0,1,694.1,185.8Z" style="fill:#d3de46"/><polygon points="687.7 224.5 687.3 237 674.1 220.7 687.3 238.5 684.1 331.3 690.9 331.3 688.9 257.2 694.9 237 688.7 250.6 687.7 224.5" style="fill:#967e2e"/><path d="M-19.3,573H897L879.6,423.7s-309.8-35.4-460.7-35.4S38.6,409.9-42.4,414.9" style="fill:#8ea43b"/><path d="M443.3,229.3s2.2-7.7,3-8.7-5-2.5-7.3-2.1l-1.6.7-.2-1.2s-8.5-.1-12.3.4l.5,1.8a3.4,3.4,0,0,0-3.2-1.5c-2,.3-9.6,3.1-10.9,4.5l.6.4s-1.2-.2-1.6.1a7.3,7.3,0,0,0-1.6,2.1c0,.3,2.9,1.8,5.1,6Z" style="fill:#4d4d4d"/><path d="M444.3,222.6s-2.1,4.7-2.7,3.4,1.3-5.1,1.3-5.1-2.3,6.2-4.3,6.5c0,0-.9,0,.7-4.2l1.1-2.8s-1.8,6.2-3.1,6.8-2,.5-2.4,0-2.5,2.5-3.9-4.1c0,0,1.1,6.2-3.1,5.6l-1-.3s-3,2.4-4.3-.4c0,0,.5,2.9-1.7,1.8s-5.1-4.3-5.1-4.3,2.6,5.6,1.4,7l26-2.5A15.3,15.3,0,0,1,444.3,222.6Z" style="fill:#6d6e71"/><path d="M445.6,232.9s1.2-3.1.2-3.9-30.2,1.3-33.7,3.6l1.2,4.2" style="fill:#22bbcd"/><ellipse cx="429.4" cy="234.8" rx="16.3" ry="1.5" transform="translate(-25.3 53.7) rotate(-6.9)" style="fill:#0999af"/><path d="M428.2,235.4a1.5,1.5,0,0,1,1.3-.7c1-.1,1.2.4,1.2.4l9.7,79.5s.5,2.6-.9,2.8-1.5-2.5-1.5-2.5Z" style="fill:#22bbcd"/><path d="M424.8,226.6s1.2-2.4-1.8-5.7A9,9,0,0,1,424.8,226.6Z" style="fill:#6d6e71"/><path d="M417.5,222.6A9,9,0,0,1,420,228s.8-2.5-2.6-5.3" style="fill:#6d6e71"/><path d="M412,224.8a9,9,0,0,1,3.4,4.8s.4-2.6-3.4-4.8" style="fill:#6d6e71"/><path d="M435.2,220.2a9,9,0,0,0-.9,5.9s-1.5-2.2.9-5.9" style="fill:#6d6e71"/><path d="M430.5,220.1a9,9,0,0,0-.9,5.9s-1.5-2.2.9-5.9" style="fill:#6d6e71"/><polygon points="319.6 358.1 806.5 358.1 814.9 386.1 665 409.9 -16.6 409.9 -73.3 358.1 319.6 358.1" style="fill:#6d6e71"/><path d="M226,312.7s2.1-26.7,9.3-30.3,66.8-14.5,66.8-14.5,35.3-46.7,44.6-47.1,55.6-9.7,60,0,6.8,71.3,6.8,71.3v19.3Z" style="fill:#dd172f"/><path d="M350,229.3l-30.2,39.5h80.1s0-33.3,0-39.5S350,229.3,350,229.3Z" style="fill:#bdf6ff"/><path d="M582.6,305.1a45.2,45.2,0,0,0-42.4,60.6h17l52.6-4.2,17.3-3.2a45.1,45.1,0,0,0-44.4-53.2Z" style="fill:#282726"/><path d="M312.7,305.1A45.2,45.2,0,0,0,269,361.8h64.6l9.4,3.9h12.1a45.2,45.2,0,0,0-42.4-60.6Z" style="fill:#282726"/><path d="M701.1,305.1,226,307.5l3.1,38.6,35,16.4h5a31.1,31.1,0,0,1-1.5-9.5c0-20.5,20.2-45.5,45.2-45.5s45.2,25,45.2,45.5a31.3,31.3,0,0,1-2.7,12.7H540.2a31.3,31.3,0,0,1-2.7-12.7c0-20.5,20.2-37.2,45.2-37.2s45.2,16.7,45.2,37.2a31,31,0,0,1-.7,6.6l74.1-11.2Z" style="fill:#dd172f"/><circle cx="312.7" cy="350.3" r="34.1" style="fill:#4d4d4d"/><circle cx="312.7" cy="350.3" r="17.5" style="fill:#f8f8f8"/><circle cx="312.7" cy="350.3" r="13.6" style="fill:#6d6e71"/><circle cx="312.7" cy="350.3" r="5.5" style="fill:#f8f8f8"/><circle cx="581.2" cy="350.3" r="34.1" style="fill:#4d4d4d"/><circle cx="581.2" cy="350.3" r="17.5" style="fill:#f8f8f8"/><circle cx="581.2" cy="350.3" r="13.6" style="fill:#6d6e71"/><circle cx="581.2" cy="350.3" r="5.5" style="fill:#f8f8f8"/><polygon points="226 332.8 229.4 347 244.7 347 244.7 332.8 226 332.8" style="fill:#b51024"/><polygon points="226 303 226 308.9 701.1 306 701.1 299.6 226 303" style="fill:#dd172f"/><rect x="685.2" y="305.1" width="15.9" height="11.07" style="fill:#dd172f"/><rect x="258.1" y="300.6" width="10.7" height="13.84" style="fill:#f9c023"/><rect x="365.4" y="322.4" width="121.1" height="3.46" style="fill:#4d4d4d"/><rect x="493.5" y="322.4" width="34.3" height="3.46" style="fill:#4d4d4d"/><path d="M537.1,369.1s-4.5-62.6,40.1-62.6,50.5,29.1,50.5,43.8c0,0-8.3-34.1-44.1-34.1C535.5,316.2,537.1,369.1,537.1,369.1Z" style="fill:#b51024"/><path d="M267.1,363.6s-4.5-62.6,40.1-62.6,50.5,29.1,50.5,43.8c0,0-8.3-34.1-44.1-34.1C265.6,310.6,267.1,363.6,267.1,363.6Z" style="fill:#b51024"/><polygon points="685.2 332.3 682.8 355.8 701.1 355.8 703.5 332.3 685.2 332.3" style="fill:#f8f8f8"/><rect x="357.8" y="361.7" width="179.2" height="9.23" style="fill:#f8f8f8"/><path d="M235.3,282.4s31.2,15.5-9.3,20.6C226,303,227.5,284.8,235.3,282.4Z" style="fill:#b51024"/><ellipse cx="385.4" cy="287.4" rx="7.3" ry="2.5" style="fill:#4d4d4d"/><rect x="413.6" y="292.7" width="287.5" height="8.93" style="fill:#b51024"/><path d="M335.2,411.6s7-15,6.1-24.6c0,0,1.6,14.2.1,19.1,0,0,3.1-5.5,4.8-6.8,0,0-2.3,5.4-1.4,8.8,0,0,5.6-.5,7-12.5,0,0,.3,11.6,1.2,14.2,0,0,3.8-12.7,5.5-15,0,0-.6,9.3,0,11.6a13.2,13.2,0,0,0,3.5-3.4s-2.7,4.9-.6,7.2a13,13,0,0,0,6.1-8.1s.3,6.3,2,9.5Z" style="fill:#d3de46"/><path d="M304.4,411.6s7-15,6.1-24.6c0,0,1.6,14.2.1,19.1,0,0,3.1-5.5,4.8-6.8,0,0-2.3,5.4-1.4,8.8,0,0,5.6-.5,7-12.5,0,0,.3,11.6,1.2,14.2,0,0,3.8-12.7,5.5-15,0,0-.6,9.3,0,11.6a13.2,13.2,0,0,0,3.5-3.4s-2.7,4.9-.6,7.2a13,13,0,0,0,6.1-8.1s.3,6.3,2,9.5Z" style="fill:#d3de46"/><path d="M401.4,411.6s7-15,6.1-24.6c0,0,1.6,14.2.1,19.1,0,0,3.1-5.5,4.8-6.8,0,0-2.3,5.4-1.4,8.8,0,0,5.6-.5,7-12.5,0,0,.3,11.6,1.2,14.2,0,0,3.8-12.7,5.5-15,0,0-.6,9.3,0,11.6a13.2,13.2,0,0,0,3.5-3.4s-2.7,4.9-.6,7.2a13,13,0,0,0,6.1-8.1s.3,6.3,2,9.5Z" style="fill:#d3de46"/><path d="M370.5,411.6s7-15,6.1-24.6c0,0,1.6,14.2.1,19.1,0,0,3.1-5.5,4.8-6.8,0,0-2.3,5.4-1.4,8.8,0,0,5.6-.5,7-12.5,0,0,.3,11.6,1.2,14.2,0,0,3.8-12.7,5.5-15,0,0-.6,9.3,0,11.6a13.2,13.2,0,0,0,3.5-3.4s-2.7,4.9-.6,7.2a13,13,0,0,0,6.1-8.1s.3,6.3,2,9.5Z" style="fill:#d3de46"/><path d="M519.7,411.6s7-15,6.1-24.6c0,0,1.6,14.2.1,19.1,0,0,3.1-5.5,4.8-6.8,0,0-2.3,5.4-1.4,8.8,0,0,5.6-.5,7-12.5,0,0,.3,11.6,1.2,14.2,0,0,3.8-12.7,5.5-15,0,0-.6,9.3,0,11.6a13.2,13.2,0,0,0,3.5-3.4s-2.7,4.9-.6,7.2a13,13,0,0,0,6.1-8.1s.3,6.3,2,9.5Z" style="fill:#d3de46"/><path d="M488.8,411.6s7-15,6.1-24.6c0,0,1.6,14.2.1,19.1,0,0,3.1-5.5,4.8-6.8,0,0-2.3,5.4-1.4,8.8,0,0,5.6-.5,7-12.5,0,0,.3,11.6,1.2,14.2,0,0,3.8-12.7,5.5-15,0,0-.6,9.3,0,11.6a13.2,13.2,0,0,0,3.5-3.4s-2.7,4.9-.6,7.2a13,13,0,0,0,6.1-8.1s.3,6.3,2,9.5Z" style="fill:#d3de46"/><path d="M672.1,410.6s7-15,6.1-24.6c0,0,1.6,14.2.1,19.1,0,0,3.1-5.5,4.8-6.8,0,0-2.3,5.4-1.4,8.8,0,0,5.6-.5,7-12.5,0,0,.3,11.6,1.2,14.2,0,0,3.8-12.7,5.5-15,0,0-.6,9.3,0,11.6a13.2,13.2,0,0,0,3.5-3.4s-2.7,4.9-.6,7.2a13,13,0,0,0,6.1-8.1s.3,6.3,2,9.5Z" style="fill:#d3de46"/><path d="M641.2,410.6s7-15,6.1-24.6c0,0,1.6,14.2.1,19.1,0,0,3.1-5.5,4.8-6.8,0,0-2.3,5.4-1.4,8.8,0,0,5.6-.5,7-12.5,0,0,.3,11.6,1.2,14.2,0,0,3.8-12.7,5.5-15,0,0-.6,9.3,0,11.6a13.2,13.2,0,0,0,3.5-3.4s-2.7,4.9-.6,7.2a13,13,0,0,0,6.1-8.1s.3,6.3,2,9.5Z" style="fill:#d3de46"/><path d="M192.4,319.6l4.5,2.6a1.7,1.7,0,0,1,.9,1.5v5.2a1.7,1.7,0,0,1-.9,1.5l-4.5,2.6a1.7,1.7,0,0,1-1.7,0l-4.5-2.6a1.7,1.7,0,0,1-.9-1.5v-5.2a1.7,1.7,0,0,1,.9-1.5l4.5-2.6A1.7,1.7,0,0,1,192.4,319.6Z" style="fill:#bbbe3a"/><path d="M192.4,316.9l5.1,2.9a1.9,1.9,0,0,1,1,1.7v5.9a1.9,1.9,0,0,1-1,1.7l-5.1,2.9a1.9,1.9,0,0,1-1.9,0l-5.1-2.9a1.9,1.9,0,0,1-1-1.7v-5.9a1.9,1.9,0,0,1,1-1.7l5.1-2.9A1.9,1.9,0,0,1,192.4,316.9Z" style="fill:#d3de46"/><path d="M182.8,324.4l4.5,2.6a1.7,1.7,0,0,1,.9,1.5v5.2a1.7,1.7,0,0,1-.9,1.5l-4.5,2.6a1.7,1.7,0,0,1-1.7,0l-4.5-2.6a1.7,1.7,0,0,1-.9-1.5v-5.2a1.7,1.7,0,0,1,.9-1.5l4.5-2.6A1.7,1.7,0,0,1,182.8,324.4Z" style="fill:#bbbe3a"/><path d="M182.8,321.7l5.1,2.9a1.9,1.9,0,0,1,1,1.7v5.9a1.9,1.9,0,0,1-1,1.7l-5.1,2.9a1.9,1.9,0,0,1-1.9,0l-5.1-2.9a1.9,1.9,0,0,1-1-1.7v-5.9a1.9,1.9,0,0,1,1-1.7l5.1-2.9A1.9,1.9,0,0,1,182.8,321.7Z" style="fill:#d3de46"/><rect x="183.7" y="334.2" width="7.2" height="4.56" style="fill:#6e8c3b"/><path d="M181.1,320.9l1.1,1.9a.7.7,0,0,1,0,.7l-1.1,1.9a.7.7,0,0,1-.6.4h-2.2a.7.7,0,0,1-.6-.4l-1.1-1.9a.7.7,0,0,1,0-.7l1.1-1.9a.7.7,0,0,1,.6-.4h2.2A.7.7,0,0,1,181.1,320.9Z" style="fill:#6e8c3b"/><path d="M181.1,320.6l1.1,1.9a.7.7,0,0,1,0,.7l-1.1,1.9a.7.7,0,0,1-.6.4h-2.2a.7.7,0,0,1-.6-.4l-1.1-1.9a.7.7,0,0,1,0-.7l1.1-1.9a.7.7,0,0,1,.6-.4h2.2A.7.7,0,0,1,181.1,320.6Z" style="fill:#8ea43b"/><path d="M189.1,318.8l6.6,3.8a2.5,2.5,0,0,1,1.3,2.2v7.6a2.5,2.5,0,0,1-1.3,2.2l-6.6,3.8a2.5,2.5,0,0,1-2.5,0l-6.6-3.8a2.5,2.5,0,0,1-1.3-2.2v-7.6a2.5,2.5,0,0,1,1.3-2.2l6.6-3.8A2.5,2.5,0,0,1,189.1,318.8Z" style="fill:#6e8c3b"/><path d="M188.6,317.8l6.6,3.8a2.5,2.5,0,0,1,1.3,2.2v7.6a2.5,2.5,0,0,1-1.3,2.2l-6.6,3.8a2.5,2.5,0,0,1-2.5,0l-6.6-3.8a2.5,2.5,0,0,1-1.3-2.2v-7.6a2.5,2.5,0,0,1,1.3-2.2l6.6-3.8A2.5,2.5,0,0,1,188.6,317.8Z" style="fill:#a3c23a"/><path d="M197.7,325.9l2.7,4.7a1.8,1.8,0,0,1,0,1.8l-2.7,4.6a1.8,1.8,0,0,1-1.5.9h-5.4a1.8,1.8,0,0,1-1.5-.9l-2.7-4.7a1.8,1.8,0,0,1,0-1.8l2.7-4.6a1.8,1.8,0,0,1,1.5-.9h5.4A1.8,1.8,0,0,1,197.7,325.9Z" style="fill:#6e8c3b"/><path d="M197.8,325.1l2.7,4.7a1.8,1.8,0,0,1,0,1.8l-2.7,4.6a1.8,1.8,0,0,1-1.5.9h-5.4a1.8,1.8,0,0,1-1.5-.9l-2.7-4.7a1.8,1.8,0,0,1,0-1.8l2.7-4.6a1.8,1.8,0,0,1,1.5-.9h5.4A1.8,1.8,0,0,1,197.8,325.1Z" style="fill:#8ea43b"/><path d="M86.1,328.3l6.3,3.6a2.4,2.4,0,0,1,1.2,2.1v7.3a2.4,2.4,0,0,1-1.2,2.1L86.1,347a2.4,2.4,0,0,1-2.4,0l-6.3-3.6a2.4,2.4,0,0,1-1.2-2.1V334a2.4,2.4,0,0,1,1.2-2.1l6.3-3.6A2.4,2.4,0,0,1,86.1,328.3Z" style="fill:#bbbe3a"/><path d="M86.1,324.5l7.1,4.1a2.7,2.7,0,0,1,1.4,2.4v8.2a2.7,2.7,0,0,1-1.4,2.4l-7.1,4.1a2.7,2.7,0,0,1-2.7,0l-7.1-4.1a2.7,2.7,0,0,1-1.4-2.4V331a2.7,2.7,0,0,1,1.4-2.4l7.1-4.1A2.7,2.7,0,0,1,86.1,324.5Z" style="fill:#d3de46"/><path d="M72.6,335l6.3,3.6a2.4,2.4,0,0,1,1.2,2.1V348a2.4,2.4,0,0,1-1.2,2.1l-6.3,3.6a2.4,2.4,0,0,1-2.4,0l-6.3-3.6a2.4,2.4,0,0,1-1.2-2.1v-7.3a2.4,2.4,0,0,1,1.2-2.1l6.3-3.6A2.4,2.4,0,0,1,72.6,335Z" style="fill:#bbbe3a"/><path d="M72.6,331.3l7.1,4.1a2.7,2.7,0,0,1,1.4,2.4V346a2.7,2.7,0,0,1-1.4,2.4l-7.1,4.1a2.7,2.7,0,0,1-2.7,0l-7.1-4.1a2.7,2.7,0,0,1-1.4-2.4v-8.2a2.7,2.7,0,0,1,1.4-2.4l7.1-4.1A2.7,2.7,0,0,1,72.6,331.3Z" style="fill:#d3de46"/><rect x="73.9" y="348.9" width="10.1" height="6.41" style="fill:#6e8c3b"/><path d="M70.2,330.1l1.5,2.6a1,1,0,0,1,0,1l-1.5,2.6a1,1,0,0,1-.9.5h-3a1,1,0,0,1-.9-.5l-1.5-2.6a1,1,0,0,1,0-1l1.5-2.6a1,1,0,0,1,.9-.5h3A1,1,0,0,1,70.2,330.1Z" style="fill:#6e8c3b"/><path d="M70.3,329.7l1.5,2.6a1,1,0,0,1,0,1l-1.5,2.6a1,1,0,0,1-.9.5h-3a1,1,0,0,1-.9-.5L64,333.3a1,1,0,0,1,0-1l1.5-2.6a1,1,0,0,1,.9-.5h3A1,1,0,0,1,70.3,329.7Z" style="fill:#8ea43b"/><path d="M81.4,327.1l9.2,5.3a3.5,3.5,0,0,1,1.8,3.1v10.7a3.5,3.5,0,0,1-1.8,3.1l-9.2,5.3a3.5,3.5,0,0,1-3.5,0l-9.2-5.3a3.5,3.5,0,0,1-1.8-3.1V335.6a3.5,3.5,0,0,1,1.8-3.1l9.2-5.3A3.5,3.5,0,0,1,81.4,327.1Z" style="fill:#6e8c3b"/><path d="M80.7,325.8l9.2,5.3a3.5,3.5,0,0,1,1.8,3.1v10.7a3.5,3.5,0,0,1-1.8,3.1l-9.2,5.3a3.5,3.5,0,0,1-3.5,0l-9.2-5.3a3.5,3.5,0,0,1-1.8-3.1V334.2a3.5,3.5,0,0,1,1.8-3.1l9.2-5.3A3.5,3.5,0,0,1,80.7,325.8Z" style="fill:#a3c23a"/><path d="M93.6,337.2l3.7,6.6a2.5,2.5,0,0,1,0,2.5l-3.8,6.5a2.5,2.5,0,0,1-2.2,1.2H83.7a2.5,2.5,0,0,1-2.2-1.3l-3.7-6.6a2.5,2.5,0,0,1,0-2.5l3.8-6.5a2.5,2.5,0,0,1,2.2-1.2h7.5A2.5,2.5,0,0,1,93.6,337.2Z" style="fill:#6e8c3b"/><path d="M93.6,336l3.7,6.6a2.5,2.5,0,0,1,0,2.5l-3.8,6.5a2.5,2.5,0,0,1-2.2,1.2H83.8a2.5,2.5,0,0,1-2.2-1.3L77.9,345a2.5,2.5,0,0,1,0-2.5l3.8-6.5a2.5,2.5,0,0,1,2.2-1.2h7.5A2.5,2.5,0,0,1,93.6,336Z" style="fill:#8ea43b"/><path d="M642.8,295.2s-1.9,3.2,3,6.7c0,0,.3.5-.2.5s-6-3.3-3.6-7.7l.5-.5.4.7Z" style="fill:#4d4d4d"/><rect x="631" y="259.8" width="1.2" height="47.45" transform="translate(1273 23) rotate(133.7)" style="fill:#7c7d7f"/><path d="M615.5,266.8l-4.1-3.9a1.6,1.6,0,0,0-1.6-.4c-.9.3-7.7,3.7-8.2,4.4s.5,1.4,1.5,2.4,1.3,1.2,2.2.7.9-1.1,1.2-1.4,1,.2,1.4-.2.8-1.1,1.2-1.1,1,.3,1.6-.3a1.2,1.2,0,0,1,1.3-.2s1.7,1.2,1.8,1.5-3.5,3-4.4,2.7-.6.5-.6.5.9,1.4,5.5-2.8A2.3,2.3,0,0,0,615.5,266.8Z" style="fill:#4d4d4d"/><path d="M649.1,299.5a.6.6,0,0,1-.8.9Z" style="fill:#4d4d4d"/><circle cx="642.7" cy="294.2" r="0.3" transform="translate(-14.1 555.4) rotate(-46.3)" style="fill:#4d4d4d"/><path d="M493.8,242.5c-7.2-.1-5.1-13.3-5.1-13.3-4.9-.5-5.2,1.5-5.2,1.5a174.9,174.9,0,0,0-2.8,19.1h13.1Z" style="fill:#e9f81f"/><path d="M480.7,259.3c1.2,9.6,13.1,5.3,13.1,5.3v-5.5H480.7Z" style="fill:#e9f81f"/><path d="M480.6,253.1c0,.9,0,1.8,0,2.6h13.3v-2.6Z" style="fill:#e9f81f"/><path d="M493.8,253.1v-3.4H480.8c-.1,1.1-.2,2.3-.2,3.4Z" style="fill:#b8b8b8"/><path d="M480.7,259.1h13.1v-3.4H480.5A33.5,33.5,0,0,0,480.7,259.1Z" style="fill:#b8b8b8"/><rect x="485.8" y="229.2" width="2.1" height="22.24" style="fill:#b8b8b8"/><path d="M479.4,253.1H466.2v2.6h13.3C479.5,254.9,479.5,254,479.4,253.1Z" style="fill:#e9f81f"/><path d="M466.2,264.6s11.9,4.3,13.1-5.3v-.2H466.2Z" style="fill:#e9f81f"/><path d="M476.4,230.7s-.3-1.9-5.2-1.5c0,0,2.1,13.1-5.1,13.3v7.3h13.1A174.9,174.9,0,0,0,476.4,230.7Z" style="fill:#e9f81f"/><path d="M479.2,249.7H466.2v3.4h13.3C479.4,252,479.3,250.9,479.2,249.7Z" style="fill:#b8b8b8"/><path d="M466.2,255.7v3.4h13.1a33.5,33.5,0,0,0,.2-3.4Z" style="fill:#b8b8b8"/><rect x="471.9" y="229.2" width="2.1" height="22.24" style="fill:#b8b8b8"/><path d="M543.6,241.1c-7.2-.1-5.1-13.3-5.1-13.3-4.9-.5-5.2,1.5-5.2,1.5a174.9,174.9,0,0,0-2.8,19.1h13.1Z" style="fill:#e9f81f"/><path d="M530.5,257.9c1.2,9.6,13.1,5.3,13.1,5.3v-5.5H530.5Z" style="fill:#e9f81f"/><path d="M530.4,251.7c0,.9,0,1.8,0,2.6h13.3v-2.6Z" style="fill:#e9f81f"/><path d="M543.6,251.7v-3.4H530.6c-.1,1.1-.2,2.3-.2,3.4Z" style="fill:#b8b8b8"/><path d="M530.5,257.7h13.1v-3.4H530.3A33.5,33.5,0,0,0,530.5,257.7Z" style="fill:#b8b8b8"/><rect x="535.6" y="227.8" width="2.1" height="22.24" style="fill:#b8b8b8"/><path d="M525.1,251.7H511.8v2.6h13.3C525.1,253.5,525.1,252.6,525.1,251.7Z" style="fill:#e9f81f"/><path d="M511.8,263.2s11.9,4.3,13.1-5.3v-.2H511.8Z" style="fill:#e9f81f"/><path d="M522.1,229.3s-.3-1.9-5.2-1.5c0,0,2.1,13.1-5.1,13.3v7.3h13.1A174.9,174.9,0,0,0,522.1,229.3Z" style="fill:#e9f81f"/><path d="M524.9,248.3H511.8v3.4h13.3C525.1,250.6,525,249.5,524.9,248.3Z" style="fill:#b8b8b8"/><path d="M511.8,254.3v3.4h13.1a33.5,33.5,0,0,0,.2-3.4Z" style="fill:#b8b8b8"/><rect x="517.6" y="227.8" width="2.1" height="22.24" style="fill:#b8b8b8"/><path d="M604.3,239.1c-7.2-.1-5.1-13.3-5.1-13.3-5.9-2.4-5.2,1.5-5.2,1.5a174.9,174.9,0,0,0-2.8,19.1h13.1Z" style="fill:#e9f81f"/><path d="M591.2,256c1.2,9.6,13.1,5.3,13.1,5.3v-5.5H591.2Z" style="fill:#e9f81f"/><path d="M591.1,249.8c0,.9,0,1.8,0,2.6h13.3v-2.6Z" style="fill:#e9f81f"/><path d="M604.3,249.8v-3.4H591.3c-.1,1.1-.2,2.3-.2,3.4Z" style="fill:#b8b8b8"/><path d="M591.2,255.8h13.1v-3.4H591A33.5,33.5,0,0,0,591.2,255.8Z" style="fill:#b8b8b8"/><rect x="596.3" y="225.9" width="2.1" height="22.24" style="fill:#b8b8b8"/><path d="M590.6,249.8H577.3v2.6h13.3C590.6,251.6,590.6,250.7,590.6,249.8Z" style="fill:#e9f81f"/><path d="M577.3,261.3s11.9,4.3,13.1-5.3v-.2H577.3Z" style="fill:#e9f81f"/><path d="M587.6,227.4s-1-3.6-5.2-1.5c0,0,2.1,13.1-5.1,13.3v7.3h13.1A174.9,174.9,0,0,0,587.6,227.4Z" style="fill:#e9f81f"/><path d="M590.4,246.5H577.3v3.4h13.3C590.5,248.7,590.5,247.6,590.4,246.5Z" style="fill:#b8b8b8"/><path d="M577.3,252.4v3.4h13.1a33.5,33.5,0,0,0,.2-3.4Z" style="fill:#b8b8b8"/><rect x="583.1" y="225.9" width="2.1" height="22.24" style="fill:#b8b8b8"/><path d="M566,177.1s2.2-7.7,3-8.7-5-2.5-7.3-2.1l-1.6.7-.2-1.2s-8.5-.1-12.3.4l.5,1.8a3.4,3.4,0,0,0-3.2-1.5c-2,.3-9.6,3.1-10.9,4.5l.6.4s-1.2-.2-1.6.1a7.3,7.3,0,0,0-1.6,2.1c0,.3,2.9,1.8,5.1,6Z" style="fill:#4d4d4d"/><path d="M567,170.4s-2.1,4.7-2.7,3.4,1.3-5.1,1.3-5.1-2.3,6.2-4.3,6.5c0,0-.9,0,.7-4.2l1.1-2.8s-1.8,6.2-3.1,6.8-2,.5-2.4,0-2.5,2.5-3.9-4.1c0,0,1.1,6.2-3.1,5.6l-1-.3s-3,2.4-4.3-.4c0,0,.5,2.9-1.7,1.8s-5.1-4.3-5.1-4.3,2.6,5.6,1.4,7l26-2.5A15.3,15.3,0,0,1,567,170.4Z" style="fill:#6d6e71"/><path d="M568.2,180.6s1.2-3.1.2-3.9-30.2,1.3-33.7,3.6l1.2,4.2" style="fill:#22bbcd"/><ellipse cx="552" cy="182.6" rx="16.3" ry="1.5" transform="translate(-18 68.1) rotate(-6.9)" style="fill:#0999af"/><path d="M550.9,183.2a1.5,1.5,0,0,1,1.3-.7c1-.1,1.2.4,1.2.4l9.7,79.5s.5,2.6-.9,2.8-1.5-2.5-1.5-2.5Z" style="fill:#22bbcd"/><path d="M547.5,174.4s1.2-2.4-1.8-5.7A9,9,0,0,1,547.5,174.4Z" style="fill:#6d6e71"/><path d="M540.2,170.4a9,9,0,0,1,2.6,5.3s.8-2.5-2.6-5.3" style="fill:#6d6e71"/><path d="M534.6,172.6a9,9,0,0,1,3.4,4.8s.4-2.6-3.4-4.8" style="fill:#6d6e71"/><path d="M557.8,167.9a9,9,0,0,0-.9,5.9s-1.5-2.2.9-5.9" style="fill:#6d6e71"/><path d="M553.2,167.9a9,9,0,0,0-.9,5.9s-1.5-2.2.9-5.9" style="fill:#6d6e71"/></g><polygon points="588 224.1 590.6 225.4 588.7 227.9 584.9 225.7 588 224.1" style="fill:#b22020"/><polygon points="593.1 224.1 590.5 225.4 592.5 227.9 596.2 225.7 593.1 224.1" style="fill:#d33e3e"/></svg>