<svg id="Layer_1" data-name="Layer 1" xmlns="http://www.w3.org/2000/svg" xmlns:xlink="http://www.w3.org/1999/xlink" viewBox="0 0 800 450"><defs><clipPath id="clip-path"><rect width="800" height="450" style="fill:none"/></clipPath><linearGradient id="linear-gradient" x1="97.34" y1="45.74" x2="136.55" y2="45.74" gradientTransform="matrix(-0.87, -0.49, -0.49, 0.87, 625.59, 164)" gradientUnits="userSpaceOnUse"><stop offset="0" stop-color="#8acebd"/><stop offset="1" stop-color="#0086a8"/></linearGradient><linearGradient id="linear-gradient-2" x1="111.76" y1="33.92" x2="124.76" y2="33.92" gradientTransform="matrix(-0.87, -0.49, -0.49, 0.87, 625.59, 164)" gradientUnits="userSpaceOnUse"><stop offset="0" stop-color="#8acee0"/><stop offset="1" stop-color="#00adc7"/></linearGradient><linearGradient id="linear-gradient-3" x1="121.43" y1="54.25" x2="133.86" y2="54.25" xlink:href="#linear-gradient-2"/><linearGradient id="linear-gradient-4" x1="303.54" y1="283.91" x2="636.12" y2="283.91" gradientTransform="matrix(1, 0, 0, 1, 0, 0)" xlink:href="#linear-gradient"/><linearGradient id="linear-gradient-5" x1="425.81" y1="183.64" x2="536.13" y2="183.64" gradientTransform="matrix(1, 0, 0, 1, 0, 0)" xlink:href="#linear-gradient-2"/><linearGradient id="linear-gradient-6" x1="507.87" y1="356.03" x2="613.3" y2="356.03" gradientTransform="matrix(1, 0, 0, 1, 0, 0)" xlink:href="#linear-gradient-2"/><linearGradient id="linear-gradient-7" x1="220.28" y1="102.56" x2="363.43" y2="102.56" gradientTransform="translate(-143.7 164) rotate(-29.4)" xlink:href="#linear-gradient"/><linearGradient id="linear-gradient-8" x1="272.91" y1="59.4" x2="320.39" y2="59.4" gradientTransform="translate(-143.7 164) rotate(-29.4)" xlink:href="#linear-gradient-2"/><linearGradient id="linear-gradient-9" x1="308.23" y1="133.6" x2="353.6" y2="133.6" gradientTransform="translate(-143.7 164) rotate(-29.4)" xlink:href="#linear-gradient-2"/><linearGradient id="linear-gradient-10" x1="728.84" y1="339.33" x2="831.28" y2="339.33" gradientTransform="translate(-143.7 164) rotate(-29.4)" xlink:href="#linear-gradient"/><linearGradient id="linear-gradient-11" x1="766.5" y1="308.45" x2="800.48" y2="308.45" gradientTransform="translate(-143.7 164) rotate(-29.4)" xlink:href="#linear-gradient-2"/><linearGradient id="linear-gradient-12" x1="791.77" y1="361.55" x2="824.25" y2="361.55" gradientTransform="translate(-143.7 164) rotate(-29.4)" xlink:href="#linear-gradient-2"/><linearGradient id="linear-gradient-13" x1="246.69" y1="149.17" x2="328.04" y2="149.17" xlink:href="#linear-gradient"/><linearGradient id="linear-gradient-14" x1="276.6" y1="124.65" x2="303.58" y2="124.65" xlink:href="#linear-gradient-2"/><linearGradient id="linear-gradient-15" x1="296.67" y1="166.81" x2="322.46" y2="166.81" xlink:href="#linear-gradient-2"/><linearGradient id="linear-gradient-16" x1="293.83" y1="117.16" x2="436.98" y2="117.16" gradientTransform="translate(173.7 -267.6) rotate(36.5)" xlink:href="#linear-gradient"/><linearGradient id="linear-gradient-17" x1="346.46" y1="74" x2="393.94" y2="74" gradientTransform="translate(173.7 -267.6) rotate(36.5)" xlink:href="#linear-gradient-2"/><linearGradient id="linear-gradient-18" x1="381.78" y1="148.2" x2="427.16" y2="148.2" gradientTransform="translate(173.7 -267.6) rotate(36.5)" xlink:href="#linear-gradient-2"/><linearGradient id="linear-gradient-19" x1="124.57" y1="-118.04" x2="198.8" y2="-118.04" xlink:href="#linear-gradient"/><linearGradient id="linear-gradient-20" x1="699.32" y1="27.98" x2="801.76" y2="27.98" gradientTransform="translate(261.7 678.3) rotate(-112.7)" xlink:href="#linear-gradient"/><linearGradient id="linear-gradient-21" x1="888.55" y1="341.65" x2="990.99" y2="341.65" gradientTransform="translate(-143.7 164) rotate(-29.4)" xlink:href="#linear-gradient"/><linearGradient id="linear-gradient-22" x1="401.72" y1="70.72" x2="429.72" y2="70.72" xlink:href="#linear-gradient"/><linearGradient id="linear-gradient-23" x1="412.01" y1="62.28" x2="421.3" y2="62.28" xlink:href="#linear-gradient-2"/><linearGradient id="linear-gradient-24" x1="418.92" y1="76.79" x2="427.79" y2="76.79" xlink:href="#linear-gradient-2"/><linearGradient id="linear-gradient-25" x1="886.51" y1="400.9" x2="914.5" y2="400.9" gradientTransform="translate(-416.9 164) rotate(-29.4)" xlink:href="#linear-gradient"/><linearGradient id="linear-gradient-26" x1="896.8" y1="392.46" x2="906.09" y2="392.46" gradientTransform="translate(-416.9 164) rotate(-29.4)" xlink:href="#linear-gradient-2"/><linearGradient id="linear-gradient-27" x1="903.71" y1="406.97" x2="912.58" y2="406.97" gradientTransform="translate(-416.9 164) rotate(-29.4)" xlink:href="#linear-gradient-2"/></defs><title>money-topic-18</title><g style="clip-path:url(#clip-path)"><path d="M533.3,152.8s-5.3,3.1-11.7-1.1-8.6-5.6-21.4-25.4L479.6,140s21,26.6,26,29.4a15.2,15.2,0,0,0,12.3,1.5Z" style="fill:#f3f5f2"/><path d="M520.5,152.3s-2.6,3.4-4.7,3.1-2.1,2.1-2.1,2.1a5.5,5.5,0,0,0-3.3,1.4,4.4,4.4,0,0,0-1.1,2.9,4.5,4.5,0,0,0-2,.9c-.5.6.2.9-.4,2.3a12,12,0,0,1-1.2,2.1s-4.5-2.2-12.1-12.4-11.5-14.3-11.5-14.3l17.7-12.8S512.8,148.4,520.5,152.3Z" style="fill:url(#linear-gradient)"/><polygon points="509.4 139.8 509.8 141.9 501.6 130.6 502 129.1 509.4 139.8" style="fill:url(#linear-gradient-2)"/><polygon points="485.1 143.9 483.2 144.1 491.7 154.2 492 152 485.1 143.9" style="fill:url(#linear-gradient-3)"/><path d="M491.4,140.9s.2.4-.1.4-2.1,1.1-3,.8a1.2,1.2,0,0,0-1,1.3c.1,1.1,2.6,4.8,4,5.6l2.2-.8a1.7,1.7,0,0,0,1.4.6,8.3,8.3,0,0,0,5.3-1.5l.4-.3" style="fill:#a6c0ce"/><polyline points="500.7 147 503.8 144.4 504 141.3 499.4 137.5 493.7 137.6 491.5 139.5 491.4 140.9" style="fill:#a6c0ce"/><path d="M491.4,140.9c-1.4-1.3-.2-2.1-.2-2.1s0-.4.2-.7-.2-.4-.2-.4.4,0,.4,0v-.5c-.1-.7,1.4-1,1.4-1s.5-.9,1.2-1.2.6.3.6.3a1.3,1.3,0,0,1,.9-.4s.1-.8.4-.6.3-.4.5-.7.5,0,.7-.2.9-.1,1.3-.1.2-.7.5-.4-.1.3.1.7.2-.1.7-.1.1.2.5.3l.9.3c.3.1.4-.2.8-.1s.2.2,0,.5.2.2.3.3.6.6.6.3a.5.5,0,0,1,.1-.4c.7-.1.7.2.9.6s-.6.3-.2.5.2.6.2.8.2.7.3.2.5,0,.7,0l.6-.2s.4.3.3.4-.1.2-.1.5-.4.3-.3.4a1.4,1.4,0,0,1,.1.8c0,.2.3.1.4.2s-.1.4-.2.7,0,.6.4.5.3.1.6.4-.1.5-.1.5a1.1,1.1,0,0,0-.6.8c.4.5-.1,1.2-.1,1.2s-.5.9-.5.9-.5.9-.6.9-.4.1-.2.5-.7.6-.7,1-.5.8-1.3.9a1.9,1.9,0,0,1-1.5-.6s-.2-1.1,1.1-1.1.4-.2.4-.6,1.2-1.3,1.1-1.7.2-1.7-1.2-2.2-1.5-2.7-2-2.7l-2.5-.2a2.3,2.3,0,0,0-1.5.1c-.3.2-1.4,1.5-2.2,1.1s.9-.4.2-.6-1.2.2-1.6-.1-.2.7-.4.8-.5,0-.5.5A.5.5,0,0,1,491.4,140.9Z" style="fill:#2d495f"/><path d="M527.6,153.8l-15.9,17.7s-4.9-.3-6.4-2.5L522.1,152S525.4,153.9,527.6,153.8Z" style="fill:#e0e6e4"/><ellipse cx="521.1" cy="163" rx="4.6" ry="1.6" transform="matrix(0.78, -0.62, 0.62, 0.78, 11.15, 358.07)" style="fill:#dde2de"/><path d="M525.9,153.5l-.5.4s.7.3.3.8a20.2,20.2,0,0,1-2.1,2.5c-.4.2-4.1-1-4.5-1.2s-.1-.3.2-.6l1.7-1.7a2.3,2.3,0,0,1,2-.4l.5-.6A5.9,5.9,0,0,0,525.9,153.5Z" style="fill:#c7c7c5"/><path d="M513.4,168.6l-1.5,1.5a.7.7,0,0,1-.9.2,34.2,34.2,0,0,1-4.2-1.6c-.2-.2-.1-.3.3-.7l1.2-1.3s.2-.3,1.1.2a21.3,21.3,0,0,0,3.8,1.4C513.4,168.3,513.4,168.5,513.4,168.6Z" style="fill:#bdbdbd"/><ellipse cx="518.2" cy="168.2" rx="2.6" ry="1" transform="translate(-6.4 315.4) rotate(-33.7)" style="fill:#304850"/><path d="M521.1,160.5l-.6-.7c-.5-.7-.6-.9-1.1-1s-1.9.2-2.6.1-1.2.2-1.8-.3-.7.6-1.3.4a2.6,2.6,0,0,0-2.2.9,1.9,1.9,0,0,0-.4,2,.6.6,0,0,1-.2.9,4.6,4.6,0,0,1,1.2,1.8c.1.8,1,1.7,2.7,1.2l2.4-.6" style="fill:none;stroke:#b8bad3;stroke-miterlimit:10;stroke-width:0.6918122119291071px"/><path d="M513.3,166.9l4.1-4.4s.2,0,.5-.3.3-.3.3-.6.4-.6.4-.7a.9.9,0,0,1,.1-.5l.8-1.1a2.9,2.9,0,0,1,.2-.8l.3-.3c.1,0,.4-.1.3-.2s.1-.3.1-.3-.2-.1-.3,0h-.3a1.6,1.6,0,0,1-.2.5,3.4,3.4,0,0,1-1,.4l-.7.5-.4.5-.4.3-.3.3h-.6c-.1.1-.5.5-.6.4s-.7.6-.7.6v.2l-4.1,4.3S511.1,167.2,513.3,166.9Z" style="fill:#ebd329"/><path d="M497.7,132.1a2,2,0,0,1-.3-1.4,1.5,1.5,0,0,1,.7-1.1q.9-.6,2,.7l.9-.8-.9-1.3v-.6l1.1,1.6-.2.7-1.2,1.1-.2-.3a1.8,1.8,0,0,0-.9-.7.9.9,0,0,0-.9.1.9.9,0,0,0-.4.6,1.1,1.1,0,0,0,.2.8l.7.6v.6Z" style="fill:none;stroke:#525870;stroke-miterlimit:10;stroke-width:0.2724187483702257px"/><path d="M529.9,155.9h-.5l-.4-.2q-.1-.1,0-.1h0l.4.2h.4v-.4h.1V155h-.3l.4.2a.3.3,0,0,1,0,.3h-.1q-.2.3-.1.4h-.1Z" style="fill:#525870"/><path d="M525.1,158.6a1.5,1.5,0,0,1-1.1-.7.8.8,0,0,1,.2-1,3.1,3.1,0,0,1,2.8-.6l.6-.9-1.7-.3-.2-.4,2.1.4.2.5-.9,1.3h-1.8a1.9,1.9,0,0,0-1,.5q-.3.3-.2.6a.9.9,0,0,0,.7.4H526l.2.4Z" style="fill:#525870"/><path d="M506.9,161.4a.2.2,0,0,0,0,.2v.3a.1.1,0,0,1,0,.1h0l-.2-.2-.2-.2-.2-.2-.2-.2-.2-.2h.1l.2.2h.2l.5-.9-.5-.5h-.4v-.8h.1v.2a.2.2,0,0,0,.1.2l.5.5.6-1.1-.5-.5-.2-.2h-.5v-.2h.2l.2.2.2.3.7.7.2.2.2.2h-.4Z" style="fill:#525870"/><path d="M504.6,159.4h.1l.6-1.1v-.2h.2v.3h-.3l-.6,1.1a.2.2,0,0,0,0,.2v.2a.1.1,0,0,1,0,.1h-.5Zm1.6-2H506v-.2a.4.4,0,0,1,0-.2h.3v.2a.4.4,0,0,1,0,.2Z" style="fill:#525870"/><path d="M504.5,157.3h.3a.1.1,0,0,0,0-.1h-.1a.1.1,0,0,1,0-.1h0l.2.2.2.2.2.2.2.2h-.4l-1.2.8h-.2l.3-2a.4.4,0,0,0,0-.2v-.2h.1v.2l.3.3H504v.4l-.2,1Z" style="fill:#525870"/><path d="M501.8,156.1l.2.3.3.2h.5l.2-.3-1-1.1h0a.8.8,0,0,1,.5-.4q.3-.1.6.3l.2.3v.4a1.7,1.7,0,0,1,0,.5l-.2.5-.3.3h-.6l-.3-.2-.2-.3v-.8h.1Zm1-1.1h-.4a.1.1,0,0,0,0,.1l.6.7a1,1,0,0,0,.1-.5.6.6,0,0,0-.2-.4Z" style="fill:#525870"/><path d="M501.3,155.9a.8.8,0,0,1,.7.3,3.3,3.3,0,0,1,.7,1.3,2.8,2.8,0,0,1,1.4.9,5.7,5.7,0,0,1,1.3,2.5,3.1,3.1,0,0,1-.1,2.3.7.7,0,0,1-.6.4.9.9,0,0,1-.7-.3,3.3,3.3,0,0,1-.7-1.7,2.6,2.6,0,0,1,.1-1.7q.3-.5.7,0a2.7,2.7,0,0,1,.6,1.3,2,2,0,0,1-.1,1.3l-.3.2h.1a2.2,2.2,0,0,0,.1-1.4,2.5,2.5,0,0,0-.5-1.3q-.4-.4-.6,0a2.5,2.5,0,0,0-.1,1.6,3.2,3.2,0,0,0,.7,1.6.8.8,0,0,0,.6.3.6.6,0,0,0,.5-.3,3.3,3.3,0,0,0,.1-2,5.1,5.1,0,0,0-1.3-2.8,2.1,2.1,0,0,0-1.3-.8,7.7,7.7,0,0,1,.2,1.2,14,14,0,0,1,.1,1.5q0,1.4,0,1.8a5.4,5.4,0,0,0,.1.8,2.9,2.9,0,0,0,.7,1.5l.6.4a.4.4,0,0,0,.4-.2q.1-.2,0-.2h0q-.1.2-.2,0v-.2a.4.4,0,0,1,0-.2q.1-.2.3,0a.5.5,0,0,1,.1.3.6.6,0,0,1-.1.3.4.4,0,0,1-.5.2l-.6-.4a4.1,4.1,0,0,1-.7-1.3,4.9,4.9,0,0,1-.3-1.3,7.8,7.8,0,0,1,.1-1.6,7.8,7.8,0,0,0-.1-2.7.7.7,0,0,0-.5.4,1.5,1.5,0,0,0-.2.9,1.3,1.3,0,0,0,.3.8l.4.2h-.2l-.3-.2a1.7,1.7,0,0,1-.4-.9,1.3,1.3,0,0,1,.1-.9.8.8,0,0,1,.8-.4,3.2,3.2,0,0,0-.7-1.2.8.8,0,0,0-.6-.3.7.7,0,0,0-.5.4l-.2.5h-.1s0-.1,0-.2l.2-.4A.7.7,0,0,1,501.3,155.9Z" style="fill:#525870"/><path d="M499.9,158.7h0a1.9,1.9,0,0,0,.1.5l.2.4h.1a2.2,2.2,0,0,1,.2-1.1q.2-.3.4,0a2.2,2.2,0,0,1,.4.9,1.9,1.9,0,0,1,0,1.4l-.3.2h-.3a1.8,1.8,0,0,1-.3-1.2h-.2a1.3,1.3,0,0,1-.3-.7,1,1,0,0,1,0-.4Zm.5.3h.1a.5.5,0,0,1,.1.3.7.7,0,0,1-.1.4h-.2a1.8,1.8,0,0,0,.3,1.1q.2.2.3,0a2.4,2.4,0,0,0,.2-1.2,1.8,1.8,0,0,0-.3-1.1q-.2-.2-.3,0Z" style="fill:#525870"/><path d="M498.3,157.1h0v.2a2.9,2.9,0,0,0,.2,1.4h.2a3.2,3.2,0,0,0,.1-1v-1.2l.2.2h.1v.7a3.8,3.8,0,0,0,.2,1.9h.2a.9.9,0,0,0,.1-.4v-1.8l.2.2h.1v1.4a1.1,1.1,0,0,1-.1.5l-.2.2h-.2a.7.7,0,0,1-.1-.4,8.1,8.1,0,0,1-.1-.8h0a1.1,1.1,0,0,1-.1.4l-.2.2h-.2a1.7,1.7,0,0,1-.2-.9,4.5,4.5,0,0,1,0-.9Z" style="fill:#525870"/><path d="M496.4,155h0a3.6,3.6,0,0,0,.2,1.7h.2a2.4,2.4,0,0,0,.1-.8,2,2,0,0,1,.1-.8l.2-.2h.2a.9.9,0,0,1,.2.5,9.2,9.2,0,0,1,.1,1.1,1.7,1.7,0,0,1,.1-.7l.2-.2h.2a2.7,2.7,0,0,1,.2,1.1h0a2.7,2.7,0,0,0-.1-1.2H498a3.9,3.9,0,0,0-.1,1.1v1.1l-.2-.2h-.2q.1-2.4-.2-2.7h-.2a2.1,2.1,0,0,0-.1.7q0,.5,0,.7v.3l-.2.2h-.2a1.7,1.7,0,0,1-.2-.9,4.9,4.9,0,0,1,0-.9Z" style="fill:#525870"/><path d="M495.4,150.8h.2v2.4q.1-.2.3,0a2.7,2.7,0,0,1,.4,1,1.8,1.8,0,0,1,0,1.4l-.3.2h-.3a2.7,2.7,0,0,1-.2-1.4,1.2,1.2,0,0,1-.1.5l-.2.2h-.2a2.9,2.9,0,0,1-.3-1.5v-.3h0a3.6,3.6,0,0,0,.2,1.7h.2a3.1,3.1,0,0,0,.1-.9q0-.7.1-3.4Zm.1,3.5a3.2,3.2,0,0,0,.2,1.5q.1.1.2-.1a2.4,2.4,0,0,0,.1-1.2,2.1,2.1,0,0,0-.3-1.1h-.2A2.3,2.3,0,0,0,495.5,154.3Z" style="fill:#525870"/><path d="M494.5,151.1a.5.5,0,0,1,.1.3,1.6,1.6,0,0,1-.1.5V153h.1a.8.8,0,0,1,.2.5,1,1,0,0,1-.1.6l-.3.2-.3-.2a1.6,1.6,0,0,1-.4-.7.9.9,0,0,1,0-.7l.2-.2.4-.4v-.2a1.9,1.9,0,0,1,0-.8Zm-.5,2.3a1.1,1.1,0,0,0,.2.7h.4a.5.5,0,0,0,0-.3v-.3q-.2-.3-.1-.5h.1v-.4A1.5,1.5,0,0,0,494,153.5Z" style="fill:#525870"/><path d="M30.9,186.5l26.3,15.2a10.1,10.1,0,0,1,5,8.7v30.3a10.1,10.1,0,0,1-5,8.7L30.9,264.6a10.1,10.1,0,0,1-10.1,0L-5.4,249.4a10.1,10.1,0,0,1-5-8.7V210.4a10.1,10.1,0,0,1,5-8.7l26.3-15.2A10.1,10.1,0,0,1,30.9,186.5Z" style="fill:#6e8c3b"/><path d="M28.7,182.5,55,197.7a10.1,10.1,0,0,1,5,8.7v30.3a10.1,10.1,0,0,1-5,8.7L28.7,260.6a10.1,10.1,0,0,1-10.1,0L-7.6,245.4a10.1,10.1,0,0,1-5-8.7V206.4a10.1,10.1,0,0,1,5-8.7l26.3-15.2A10.1,10.1,0,0,1,28.7,182.5Z" style="fill:#a3c23a"/><polygon points="25 214.9 24.6 228 10.8 210.9 24.5 229.5 21.2 337.6 28.3 337.6 26.2 249.1 32.5 228 26 242.2 25 214.9" style="fill:#967e2e"/><path d="M199.1,206.7,221,219.3a8.4,8.4,0,0,1,4.2,7.2v25.2a8.4,8.4,0,0,1-4.2,7.2l-21.8,12.6a8.4,8.4,0,0,1-8.4,0L169,258.9a8.4,8.4,0,0,1-4.2-7.2V226.5a8.4,8.4,0,0,1,4.2-7.2l21.8-12.6A8.4,8.4,0,0,1,199.1,206.7Z" style="fill:#6e8c3b"/><path d="M197.3,203.4,219.2,216a8.4,8.4,0,0,1,4.2,7.2v25.2a8.4,8.4,0,0,1-4.2,7.2l-21.8,12.6a8.4,8.4,0,0,1-8.4,0l-21.8-12.6a8.4,8.4,0,0,1-4.2-7.2V223.2a8.4,8.4,0,0,1,4.2-7.2L189,203.4A8.4,8.4,0,0,1,197.3,203.4Z" style="fill:#a3c23a"/><polygon points="194.3 230.3 193.9 241.2 182.5 227 193.9 242.4 191.1 332.2 197 332.2 195.3 258.7 200.5 241.2 195.1 252.9 194.3 230.3" style="fill:#967e2e"/><path d="M173.2,225.2l17.1,9.9a6.6,6.6,0,0,1,3.3,5.7v19.8a6.6,6.6,0,0,1-3.3,5.7l-17.1,9.9a6.6,6.6,0,0,1-6.6,0l-17.1-9.9a6.6,6.6,0,0,1-3.3-5.7V240.8a6.6,6.6,0,0,1,3.3-5.7l17.1-9.9A6.6,6.6,0,0,1,173.2,225.2Z" style="fill:#bbbe3a"/><path d="M171.2,222.9l17.1,9.9a6.6,6.6,0,0,1,3.3,5.7v19.8a6.6,6.6,0,0,1-3.3,5.7l-17.1,9.9a6.6,6.6,0,0,1-6.6,0l-17.1-9.9a6.6,6.6,0,0,1-3.3-5.7V238.4a6.6,6.6,0,0,1,3.3-5.7l17.1-9.9A6.6,6.6,0,0,1,171.2,222.9Z" style="fill:#d3de46"/><polygon points="167 248.8 166.7 257.2 157.8 246.2 166.7 258.1 164.5 320.4 169.1 320.4 167.7 270.7 171.8 257.2 167.6 266.3 167 248.8" style="fill:#967e2e"/><path d="M-98.5,520.4H817.9l-9.5-182.9s-317.8-25.8-468.7-25.8S-18,334.9-99,339.9" style="fill:#a3c23b"/><path d="M-19.3,573H897L879.6,423.7s-309.8-35.4-460.7-35.4S38.6,409.9-42.4,414.9" style="fill:#8ea43b"/><path d="M232.4,309.6l4.5,2.6a1.7,1.7,0,0,1,.9,1.5v5.2a1.7,1.7,0,0,1-.9,1.5l-4.5,2.6a1.7,1.7,0,0,1-1.7,0l-4.5-2.6a1.7,1.7,0,0,1-.9-1.5v-5.2a1.7,1.7,0,0,1,.9-1.5l4.5-2.6A1.7,1.7,0,0,1,232.4,309.6Z" style="fill:#bbbe3a"/><path d="M232.4,306.9l5.1,2.9a1.9,1.9,0,0,1,1,1.7v5.9a1.9,1.9,0,0,1-1,1.7l-5.1,2.9a1.9,1.9,0,0,1-1.9,0l-5.1-2.9a1.9,1.9,0,0,1-1-1.7v-5.9a1.9,1.9,0,0,1,1-1.7l5.1-2.9A1.9,1.9,0,0,1,232.4,306.9Z" style="fill:#d3de46"/><path d="M222.8,314.4l4.5,2.6a1.7,1.7,0,0,1,.9,1.5v5.2a1.7,1.7,0,0,1-.9,1.5l-4.5,2.6a1.7,1.7,0,0,1-1.7,0l-4.5-2.6a1.7,1.7,0,0,1-.9-1.5v-5.2a1.7,1.7,0,0,1,.9-1.5l4.5-2.6A1.7,1.7,0,0,1,222.8,314.4Z" style="fill:#bbbe3a"/><path d="M222.8,311.7l5.1,2.9a1.9,1.9,0,0,1,1,1.7v5.9a1.9,1.9,0,0,1-1,1.7l-5.1,2.9a1.9,1.9,0,0,1-1.9,0l-5.1-2.9a1.9,1.9,0,0,1-1-1.7v-5.9a1.9,1.9,0,0,1,1-1.7l5.1-2.9A1.9,1.9,0,0,1,222.8,311.7Z" style="fill:#d3de46"/><rect x="223.7" y="324.2" width="7.2" height="4.56" style="fill:#6e8c3b"/><path d="M221.1,310.9l1.1,1.9a.7.7,0,0,1,0,.7l-1.1,1.9a.7.7,0,0,1-.6.4h-2.2a.7.7,0,0,1-.6-.4l-1.1-1.9a.7.7,0,0,1,0-.7l1.1-1.9a.7.7,0,0,1,.6-.4h2.2A.7.7,0,0,1,221.1,310.9Z" style="fill:#6e8c3b"/><path d="M221.1,310.6l1.1,1.9a.7.7,0,0,1,0,.7l-1.1,1.9a.7.7,0,0,1-.6.4h-2.2a.7.7,0,0,1-.6-.4l-1.1-1.9a.7.7,0,0,1,0-.7l1.1-1.9a.7.7,0,0,1,.6-.4h2.2A.7.7,0,0,1,221.1,310.6Z" style="fill:#8ea43b"/><path d="M229.1,308.8l6.6,3.8a2.5,2.5,0,0,1,1.3,2.2v7.6a2.5,2.5,0,0,1-1.3,2.2l-6.6,3.8a2.5,2.5,0,0,1-2.5,0l-6.6-3.8a2.5,2.5,0,0,1-1.3-2.2v-7.6a2.5,2.5,0,0,1,1.3-2.2l6.6-3.8A2.5,2.5,0,0,1,229.1,308.8Z" style="fill:#6e8c3b"/><path d="M228.6,307.8l6.6,3.8a2.5,2.5,0,0,1,1.3,2.2v7.6a2.5,2.5,0,0,1-1.3,2.2l-6.6,3.8a2.5,2.5,0,0,1-2.5,0l-6.6-3.8a2.5,2.5,0,0,1-1.3-2.2v-7.6a2.5,2.5,0,0,1,1.3-2.2l6.6-3.8A2.5,2.5,0,0,1,228.6,307.8Z" style="fill:#a3c23a"/><path d="M237.7,315.9l2.7,4.7a1.8,1.8,0,0,1,0,1.8l-2.7,4.6a1.8,1.8,0,0,1-1.5.9h-5.4a1.8,1.8,0,0,1-1.5-.9l-2.7-4.7a1.8,1.8,0,0,1,0-1.8l2.7-4.6a1.8,1.8,0,0,1,1.5-.9h5.4A1.8,1.8,0,0,1,237.7,315.9Z" style="fill:#6e8c3b"/><path d="M237.8,315.1l2.7,4.7a1.8,1.8,0,0,1,0,1.8l-2.7,4.6a1.8,1.8,0,0,1-1.5.9h-5.4a1.8,1.8,0,0,1-1.5-.9l-2.7-4.7a1.8,1.8,0,0,1,0-1.8l2.7-4.6a1.8,1.8,0,0,1,1.5-.9h5.4A1.8,1.8,0,0,1,237.8,315.1Z" style="fill:#8ea43b"/><path d="M86.1,348.3l6.3,3.6a2.4,2.4,0,0,1,1.2,2.1v7.3a2.4,2.4,0,0,1-1.2,2.1L86.1,367a2.4,2.4,0,0,1-2.4,0l-6.3-3.6a2.4,2.4,0,0,1-1.2-2.1V354a2.4,2.4,0,0,1,1.2-2.1l6.3-3.6A2.4,2.4,0,0,1,86.1,348.3Z" style="fill:#bbbe3a"/><path d="M86.1,344.5l7.1,4.1a2.7,2.7,0,0,1,1.4,2.4v8.2a2.7,2.7,0,0,1-1.4,2.4l-7.1,4.1a2.7,2.7,0,0,1-2.7,0l-7.1-4.1a2.7,2.7,0,0,1-1.4-2.4V351a2.7,2.7,0,0,1,1.4-2.4l7.1-4.1A2.7,2.7,0,0,1,86.1,344.5Z" style="fill:#d3de46"/><path d="M72.6,355l6.3,3.6a2.4,2.4,0,0,1,1.2,2.1V368a2.4,2.4,0,0,1-1.2,2.1l-6.3,3.6a2.4,2.4,0,0,1-2.4,0l-6.3-3.6a2.4,2.4,0,0,1-1.2-2.1v-7.3a2.4,2.4,0,0,1,1.2-2.1l6.3-3.6A2.4,2.4,0,0,1,72.6,355Z" style="fill:#bbbe3a"/><path d="M72.6,351.3l7.1,4.1a2.7,2.7,0,0,1,1.4,2.4V366a2.7,2.7,0,0,1-1.4,2.4l-7.1,4.1a2.7,2.7,0,0,1-2.7,0l-7.1-4.1a2.7,2.7,0,0,1-1.4-2.4v-8.2a2.7,2.7,0,0,1,1.4-2.4l7.1-4.1A2.7,2.7,0,0,1,72.6,351.3Z" style="fill:#d3de46"/><rect x="73.9" y="368.9" width="10.1" height="6.41" style="fill:#6e8c3b"/><path d="M70.2,350.2l1.5,2.6a1,1,0,0,1,0,1l-1.5,2.6a1,1,0,0,1-.9.5h-3a1,1,0,0,1-.9-.5l-1.5-2.6a1,1,0,0,1,0-1l1.5-2.6a1,1,0,0,1,.9-.5h3A1,1,0,0,1,70.2,350.2Z" style="fill:#6e8c3b"/><path d="M70.3,349.7l1.5,2.6a1,1,0,0,1,0,1l-1.5,2.6a1,1,0,0,1-.9.5h-3a1,1,0,0,1-.9-.5L64,353.3a1,1,0,0,1,0-1l1.5-2.6a1,1,0,0,1,.9-.5h3A1,1,0,0,1,70.3,349.7Z" style="fill:#8ea43b"/><path d="M81.4,347.2l9.2,5.3a3.5,3.5,0,0,1,1.8,3.1v10.7a3.5,3.5,0,0,1-1.8,3.1l-9.2,5.3a3.5,3.5,0,0,1-3.5,0l-9.2-5.3a3.5,3.5,0,0,1-1.8-3.1V355.6a3.5,3.5,0,0,1,1.8-3.1l9.2-5.3A3.5,3.5,0,0,1,81.4,347.2Z" style="fill:#6e8c3b"/><path d="M80.7,345.8l9.2,5.3a3.5,3.5,0,0,1,1.8,3.1v10.7a3.5,3.5,0,0,1-1.8,3.1l-9.2,5.3a3.5,3.5,0,0,1-3.5,0l-9.2-5.3a3.5,3.5,0,0,1-1.8-3.1V354.2a3.5,3.5,0,0,1,1.8-3.1l9.2-5.3A3.5,3.5,0,0,1,80.7,345.8Z" style="fill:#a3c23a"/><path d="M93.6,357.2l3.7,6.6a2.5,2.5,0,0,1,0,2.5l-3.8,6.5a2.5,2.5,0,0,1-2.2,1.2H83.7a2.5,2.5,0,0,1-2.2-1.3l-3.7-6.6a2.5,2.5,0,0,1,0-2.5l3.8-6.5a2.5,2.5,0,0,1,2.2-1.2h7.5A2.5,2.5,0,0,1,93.6,357.2Z" style="fill:#6e8c3b"/><path d="M93.6,356l3.7,6.6a2.5,2.5,0,0,1,0,2.5l-3.8,6.5a2.5,2.5,0,0,1-2.2,1.2H83.8a2.5,2.5,0,0,1-2.2-1.3L77.9,365a2.5,2.5,0,0,1,0-2.5l3.8-6.5a2.5,2.5,0,0,1,2.2-1.2h7.5A2.5,2.5,0,0,1,93.6,356Z" style="fill:#8ea43b"/><path d="M178.5,399.7s7-15,6.1-24.6c0,0,1.6,14.2.1,19.1,0,0,3.1-5.5,4.8-6.8,0,0-2.3,5.4-1.4,8.8,0,0,5.6-.5,7-12.5,0,0,.3,11.6,1.2,14.2,0,0,3.8-12.7,5.5-15,0,0-.6,9.3,0,11.6a13.2,13.2,0,0,0,3.5-3.4s-2.7,4.9-.6,7.2a13,13,0,0,0,6.1-8.1s.3,6.3,2,9.5Z" style="fill:#d3de46"/><path d="M147.6,399.7s7-15,6.1-24.6c0,0,1.6,14.2.1,19.1,0,0,3.1-5.5,4.8-6.8,0,0-2.3,5.4-1.4,8.8,0,0,5.6-.5,7-12.5,0,0,.3,11.6,1.2,14.2,0,0,3.8-12.7,5.5-15,0,0-.6,9.3,0,11.6a13.2,13.2,0,0,0,3.5-3.4s-2.7,4.9-.6,7.2a13,13,0,0,0,6.1-8.1s.3,6.3,2,9.5Z" style="fill:#d3de46"/><path d="M244.6,399.7s7-15,6.1-24.6c0,0,1.6,14.2.1,19.1,0,0,3.1-5.5,4.8-6.8,0,0-2.3,5.4-1.4,8.8,0,0,5.6-.5,7-12.5,0,0,.3,11.6,1.2,14.2,0,0,3.8-12.7,5.5-15,0,0-.6,9.3,0,11.6a13.2,13.2,0,0,0,3.5-3.4s-2.7,4.9-.6,7.2a13,13,0,0,0,6.1-8.1s.3,6.3,2,9.5Z" style="fill:#d3de46"/><path d="M213.8,399.7s7-15,6.1-24.6c0,0,1.6,14.2.1,19.1,0,0,3.1-5.5,4.8-6.8,0,0-2.3,5.4-1.4,8.8,0,0,5.6-.5,7-12.5,0,0,.3,11.6,1.2,14.2,0,0,3.8-12.7,5.5-15,0,0-.6,9.3,0,11.6a13.2,13.2,0,0,0,3.5-3.4s-2.7,4.9-.6,7.2a13,13,0,0,0,6.1-8.1s.3,6.3,2,9.5Z" style="fill:#d3de46"/><path d="M206.8,197s26.1,44.6,91.3,40.2,87-5.4,264.1-98.9l94.6,188S391,435.5,342.1,435.5s-77.7-20.1-97.3-39.7Z" style="fill:#f3f5f2"/><path d="M303.5,246.9s5.4,35.9,21.7,42.4,6.5,23.9,6.5,23.9,15.2,9.8,18.5,23.9-4.3,26.1-4.3,26.1,9.8,8.7,10.9,15.2-5.4,5.4-6.5,18.5,0,20.7,0,20.7,42.4,2.2,141.3-41.3,144.6-57.6,144.6-57.6L559,150.2S376.4,250.2,303.5,246.9Z" style="fill:url(#linear-gradient-4)"/><polygon points="437.2 200.2 425.8 214.9 532.9 165 536.1 152.4 437.2 200.2" style="fill:url(#linear-gradient-5)"/><polygon points="599.7 331.4 613.3 341.4 507.9 380.6 514.9 363.2 599.7 331.4" style="fill:url(#linear-gradient-6)"/><path d="M565.8,283.2s-2.6,2-1.2,3.1,11.2,17,18.5,18.2c0,0,7.8,5.9,2.4,13.9s-38.8,24.4-52.9,25.1c0,0-11.9-14.9-12.8-14.9s-6.2,3-13.1-1.5-20.8-9.5-33-33.6l-1.8-3.9" style="fill:#a6c0ce"/><polyline points="471.9 289.7 460.1 257.6 470.9 233.5 520.6 224.8 562.6 249.8 571.1 273.2 565.8 283.2" style="fill:#a6c0ce"/><path d="M565.8,283.2c15.6-3.8,10.3-14.5,10.3-14.5,6-.9,1.9-3,1.9-6.2s3.5-2.2,3.5-2.2c.5-3.5-3-2.1-3-2.1l3-3.4c4.1-4.9-6.5-13-6.5-13,1.9-4.3-.3-8.8-4.1-13.6s-5.5.1-5.5.1c-.7-4.1-4.9-6.6-4.9-6.6s3.1-6.4,0-6.1-.8-4.3-.8-7.2-3.4-2.2-4.2-4.3-6.2-4.3-9.1-5.9.9-5.9-2.3-5.3-.5,2.9-3.5,4.7-.8-1.5-4.4-3.5-2.1,1.2-4.9.5-5.4-.5-7.9-1.2-2.1-3.4-5.3-4.1-2.4.9-2.4,3.4-2.3,1-3.6,1-6.5,1.8-5.3-.3.9-3.4.9-3.4c-4.5-4-5.9-1.3-8.8.8s3,4.8-.4,4.4-3.5,3.5-5.2,5.3-4,4.3-3.1.6-3.4-2.4-4.7-2.9-3.8-3.7-3.8-3.7-4.2.6-3.4,1.7-.1,2-1.6,4.2,2.2,3.7.5,4.4-3.5,4.3-4.1,5.8-2.9-.3-4.3,0-1.2,3.7-1.5,6.2-2.8,4.2-5.2,2.1-2.8-.4-6,.9-1,4.2-1,4.2a9.4,9.4,0,0,1,1.2,8.9c-4.7,2-4.5,9.5-4.5,9.5-5.3,3.2-.2,9-.2,9-2.7,1.9-.1,9.1.8,9.6s2.2,2.3-.7,4.1,2.9,7.4.8,10.4,0,8.1,5.7,12.3,13.4,1.7,13.4,1.7,5.8-7.1-3.5-12.5c0,0-2.5-3.1-.9-6s-3.8-14.9-.9-17,5.6-13,18.3-11.6c0,0,22.1-13.4,25.7-12s16.2,8.1,19,8.7,9.4,4.4,10.7,7.4,4.5,16.7,11.6,17c0,0-4.7-6.7.7-5.1s8,6,12,5.6c0,0-2,6.2-.2,7.8s3.6,2.4,1.3,5.6S565.8,283.2,565.8,283.2Z" style="fill:#2d495f"/><path d="M244.5,228.3l43.8,197.1s37,18.3,57.6,8.6L292.7,237.4S260.5,237.8,244.5,228.3Z" style="fill:#e0e6e4"/><ellipse cx="254.1" cy="323" rx="13.3" ry="38.7" transform="translate(-103.6 120.8) rotate(-22.3)" style="fill:#dde2de"/><path d="M258.3,233.3l1.7,4.9s-6.5-1.1-5.4,4.3,3.3,23.9,5.4,27.2,34.8,9.8,38,9.8,2.2-2.2,1.1-5.4-5.4-19.6-5.4-19.6-4.3-9.8-13-10.9l-.7-6.6S270.7,238.1,258.3,233.3Z" style="fill:#c7c7c5"/><path d="M288.3,396.9l4.3,17.4s0,4.3,5.4,5.4,35.9,6.5,38,5.4,2.2-2.2,1.1-6.5-3.3-14.1-3.3-14.1,0-3.3-8.7-3.3-31.5-4.3-33.7-5.4S288.3,395.8,288.3,396.9Z" style="fill:#bdbdbd"/><ellipse cx="254.1" cy="374.1" rx="8.2" ry="21.7" transform="translate(-142 155.9) rotate(-27)" style="fill:#304850"/><path d="M265,304.7s1,0,7.2-3.1,8.2-4.2,12.3-3.1,13.4,9.4,18.5,11.5,8.2,6.3,14.4,5.2c0,0,3.1,7.3,8.2,8.3s11.3,9.4,12.3,15.6,0,13.6-5.1,16.7-2.1,7.3-2.1,7.3-12.3,3.1-16.4,8.3-14.4,8.3-24.7-2.1-15.3-14.4-15.3-14.4" style="fill:none;stroke:#b8bad3;stroke-miterlimit:10;stroke-width:5.8680235277581065px"/><path d="M295.9,385l-12-50s-1.8-.7-2.4-4.4-1.1-4,0-5.7-.3-6.4.3-7.1,1.7-3.1,1.4-4.3-1.8-10.9-1.5-11.6,2.1-5.6,1.8-7.2-.5-3.4-1-3.7-2.7-2.3-1.6-3,0-2.5.6-2.7,1.6-.2,2.1,1.6,1.7,1.3,1.6,2.3a13.2,13.2,0,0,0-.3,4.4c.4,1.7,4.8,6.1,5.6,6.9s2.9,5.9,3.1,7,.8,5.4.8,5.4.5,3.2,1.4,4,.5,2.8,1.2,3.5,3.3,2.4,3.7,3.5,1.6,5.7,2.7,5.9,2.4,7,2.5,7.4a9.4,9.4,0,0,1-.5,2.2c-.1.4,12.2,48.7,12.2,48.7S310.8,395.9,295.9,385Z" style="fill:#ebd329"/><path d="M549.2,194.7l1.6-5.1a19.5,19.5,0,0,0,7.3-1.7,9.6,9.6,0,0,0,4.9-5,7.5,7.5,0,0,0-.3-6.4,8,8,0,0,0-6.2-4.5q-4.3-.7-9.5,1.8l-2.3,1.3-4.1-13.1,1.8-5.9L557,149l-1.6,4.7-11.8,5.8,2.9,9.7q13.2-5.5,17.5,3.1a13.1,13.1,0,0,1,.2,11.2,16.6,16.6,0,0,1-8.3,8.9A22,22,0,0,1,549.2,194.7Z" style="fill:none;stroke:#525870;stroke-miterlimit:10;stroke-width:2.3106843118327474px"/><path d="M215.8,232.5l1.1-.7.4.2.8.4.4.2q1.3-.5.6-3.4V229l-3.1-1.4.6-.3,2.3,1q-.3-2,1.2-2.6t3.9.5l1.7.9-1.3.6-2-1.2q-1.4-.6-1.7-.2t0,2.1v.6l3.6,1.6-.6.3-2.9-1.3v.2a3.4,3.4,0,0,1,0,2,2,2,0,0,1-1.3.9h-.4l.9.4,1,.5,1.4.7q2.9,1.3,3.9.4l.2.4q.1.4-.8.8a4.3,4.3,0,0,1-3.3-.4l-1.4-.7-2.3-1.1Z" style="fill:#525870"/><path d="M234.8,270.9l3-2.5a38.3,38.3,0,0,0,8.4,4.4q4.4,1.5,6.6.1t1.2-5q-1.1-4.3-5.6-8.1a31.8,31.8,0,0,0-10.8-5.9l-2.8-.8-1.2-12.9,3.5-3,17.6,5.8-2.9,2.3-14.3-4.7.8,9.5q15.8,6.1,18.3,15.8,1.5,5.9-2.6,8.4t-11.3.2A39.6,39.6,0,0,1,234.8,270.9Z" style="fill:#525870"/><path d="M366,350.4q0-.8-.6-.9a8.1,8.1,0,0,0-2.3.1h-.3a1.1,1.1,0,0,1-.1-.4,3.7,3.7,0,0,1,.1-.7l2.6-.7,2.4-.7,8-2.5,3-1.1,1.9-.7q.5-.2.7.4a8.1,8.1,0,0,1,.3,1.5l.3,1.8a4.2,4.2,0,0,0,.6,1.6l-.3.3-.4.2q-.5.2-.7-.2l-1-1.5a3.1,3.1,0,0,0-1.1-.9,2.8,2.8,0,0,0-1.4-.3l-2,.4-6,1.9v10.6l6.1-1.9a1.8,1.8,0,0,0,1.2-1.1,10.8,10.8,0,0,0,.5-2,1,1,0,0,1,.7-.7h.7q-.1.9-.1,2.1t-.1,2,0,1.6.2,2.1l-.6.3h-.5q-.2,0-.2-.3a5.4,5.4,0,0,0-.5-1.7.9.9,0,0,0-1.2-.4l-6.1,1.9v9.2q0,.8,1,.8l2.5-.3q.5-.1.5.5a3.9,3.9,0,0,1-.1.7l-1.8.5-1.9.5-2.3.7-2.5.8-2.6.9a3,3,0,0,1-.1-.6.7.7,0,0,1,.4-.8l2.1-1.3a1.6,1.6,0,0,0,.8-1.3Z" style="fill:#525870"/><path d="M389.7,366.1l-1.4.5-1.3.5-1.1.4-.6.2v-.6a.6.6,0,0,1,.4-.6l1.7-1a1.4,1.4,0,0,0,.6-1.1V353.5a2.1,2.1,0,0,0-.4-1.6q-.4-.4-1.9-.1t-.5-.4a2.5,2.5,0,0,1,.1-.5l1.5-.5,1.6-.6,1.7-.9,1.1-.5q.6-.2.6.4a9.5,9.5,0,0,1-.1,1.4,14.6,14.6,0,0,0-.1,2.1v11a.7.7,0,0,0,.6.7h1.8q.3,0,.3.4v.7h-.5l-1,.2-1.3.4Zm-2.4-23.2a3.1,3.1,0,0,1,.7-1.9,3.3,3.3,0,0,1,1.7-1.2,1.6,1.6,0,0,1,2.3,1.6,3,3,0,0,1-.6,1.9,3.2,3.2,0,0,1-1.6,1.1,1.9,1.9,0,0,1-1.7-.1A1.6,1.6,0,0,1,387.2,342.9Z" style="fill:#525870"/><path d="M404.4,357.2q1.9-5.4,2.9-8.2a17.3,17.3,0,0,0,.9-3.5.6.6,0,0,0-.3-.6,2.2,2.2,0,0,0-1.3,0q-.5.1-.5-.4V344l3.4-.9,1.6-.5,1.4-.5a1.2,1.2,0,0,1,.1.5.5.5,0,0,1-.1.4l-.4.4-1.4,1.2a3.3,3.3,0,0,0-1,1.5L403.9,362l-.6.3q-.4.1-.6-.2l-.6-1.1-5.6-10.9-.4-.8-.4-.4h-1.5q-.5.1-.5-.4a1.9,1.9,0,0,1,.1-.6l1.9-.5,2.1-.6,2.3-.7,2.1-.7a.9.9,0,0,1,.1.5.7.7,0,0,1-.5.7l-1.3.7a.8.8,0,0,0-.3.6,3.8,3.8,0,0,0,.2.9l.8,1.8Z" style="fill:#525870"/><path d="M427.8,350.4l.6-.5q.4-.1.8.4l-1.2,1.8a12.4,12.4,0,0,1-1.6,1.7,13.4,13.4,0,0,1-2.2,1.5,14,14,0,0,1-2.8,1.2,9.1,9.1,0,0,1-3.1.5,5,5,0,0,1-2.6-.8,5.1,5.1,0,0,1-1.8-2.1,8.1,8.1,0,0,1-.7-3.5,10.6,10.6,0,0,1,.8-4,14.7,14.7,0,0,1,2-3.6,15.1,15.1,0,0,1,2.8-2.8,9.8,9.8,0,0,1,2.9-1.6q3.8-1.2,5.5.4t1.7,5.1a.3.3,0,0,1-.2.3L417,348.8a7.7,7.7,0,0,0,.5,2.7,4.6,4.6,0,0,0,1.3,1.9,3.8,3.8,0,0,0,2,.9,5.8,5.8,0,0,0,2.6-.3,7.5,7.5,0,0,0,2.5-1.4A10.3,10.3,0,0,0,427.8,350.4Zm-6.6-10.1a5.5,5.5,0,0,0-3.1,2.5,8.5,8.5,0,0,0-1.1,4.4l7.6-2.8a.7.7,0,0,0,.6-.7,5,5,0,0,0-.2-1.5,3.6,3.6,0,0,0-.7-1.3,2.6,2.6,0,0,0-1.2-.8A3,3,0,0,0,421.2,340.4Z" style="fill:#525870"/><path d="M432.8,358.4a16.3,16.3,0,0,1-.4,3.4q-.4,1.9-.8,2t-.3-.2v-.3a13.8,13.8,0,0,0,.8-4.5q0-3.6-2.2-5.1t-5.7-.4a26.8,26.8,0,0,0-9.9,6.2q4.3,2,4.4,6.4a11.4,11.4,0,0,1-3,7.3,14.6,14.6,0,0,1-7,4.9,10.1,10.1,0,0,1-3.4.4q-1.8-.1-1.8-.6l.2-.2h.5a6.6,6.6,0,0,0,3.6-.1,10.7,10.7,0,0,0,5.6-4.5,13,13,0,0,0,2.3-7.4,6.1,6.1,0,0,0-2.4-5.2q-6.3,6.6-11.9,19.9a65.8,65.8,0,0,1-6.2,12.1,41.4,41.4,0,0,1-7.9,8.1,35.2,35.2,0,0,1-10.8,6.3,10.1,10.1,0,0,1-6.5.3,3.5,3.5,0,0,1-2.6-3.5,4.9,4.9,0,0,1,.9-2.8,4,4,0,0,1,2.1-1.7q1.8-.6,1.8,1.4a3.2,3.2,0,0,1-.6,1.8,2.8,2.8,0,0,1-1.5,1.1q-1.5.5-1.4-1.1t-.1-.6-.5,1.6a3.1,3.1,0,0,0,2.4,3.2,9.5,9.5,0,0,0,5.9-.3,24.5,24.5,0,0,0,11.5-8.2,46,46,0,0,0,3.8-5.3q1.7-2.8,7.5-13.4a118.9,118.9,0,0,1,6.9-10.8,64.9,64.9,0,0,1,6.7-8.3q-4.5-2.4-13.2.4-12.2,3.8-21.2,15.3-7.4,9.4-7.4,15.7,0,3.2,2.1,4.4t5.6.1q5.8-1.8,12-9.2t6.2-12.6q0-4.1-4.3-2.8t-9.2,7.6q-4.9,6.3-4.9,10.4a1.8,1.8,0,0,0,.7,1.5,1.7,1.7,0,0,0,1.6.2q.5-.2.5.1t-.6.4a2.2,2.2,0,0,1-2.4-.5,3.6,3.6,0,0,1-1-2.7q0-4.4,4.9-10.2t10.1-7.4q5-1.6,5,2.9T391.4,387q-6.3,7.6-12.5,9.5-4,1.3-6.4-.4t-2.4-5.6q0-8,9.2-17.5a48.6,48.6,0,0,1,20.4-13q8.5-2.7,14.3-.8a27.7,27.7,0,0,1,10.2-6.4q3.9-1.2,6.2.3T432.8,358.4Z" style="fill:#525870"/><path d="M429,380.2a8.8,8.8,0,0,1-1.7,2.7q-2.5,3.3-4.7,4a3.4,3.4,0,0,1-1.6.2q-3.8,6.5-7.2,7.6a3,3,0,0,1-3-.5,3.6,3.6,0,0,1-1.2-3q0-4.4,5.8-10.3,4.1-4.2,6.8-5t2.5,1.8q0,3.3-3.5,9a2.3,2.3,0,0,0,1.3-.1,8.2,8.2,0,0,0,3-2.1,16.3,16.3,0,0,0,2.8-3.7l.5-.5Zm-4.7-2.3q0-2.3-2.1-1.6t-6.4,6.9q-3.8,6.1-3.8,9.5t1.9,1.4q3.1-1,6.8-7.2a2,2,0,0,1-.8-1.6A6.3,6.3,0,0,1,421,382a4.6,4.6,0,0,1,2.2-2.2q.5-.1.6.4A6.2,6.2,0,0,0,424.3,377.8Z" style="fill:#525870"/><path d="M447.5,374.4q0,.7-4.2,6.8t-5.5,5.8a2.2,2.2,0,0,1-2.2-.3,2.6,2.6,0,0,1-.9-2.1,9.2,9.2,0,0,1,1.1-3.4l-.6.9a68.7,68.7,0,0,1-3.9,5.7,5.8,5.8,0,0,1-2.6,2.1,2.2,2.2,0,0,1-2.1-.3,2.6,2.6,0,0,1-.9-2.1,9.7,9.7,0,0,1,1.3-4.2l5.2-10.3,1.5-.3,2-.8L429.1,385a7.8,7.8,0,0,0-1,3.3q0,1.3,1.1.9,2.9-.9,9.3-13.6l2.8-5.6,1.5-.3,2.1-.8-4.6,8.9q-3.3,6.3-3.3,7.8t1.2.8q2.3-.7,7.5-9.5l.9-1.5.5-.8.3-.4Q447.5,374.2,447.5,374.4Z" style="fill:#525870"/><path d="M470.7,367.1q0,.6-4.2,6.8t-5.4,5.7a2.2,2.2,0,0,1-2.2-.3,2.6,2.6,0,0,1-.9-2.2,6.4,6.4,0,0,1,.5-2.5q.5-1.3,2.8-5.2t2.3-5.1-1.2-.8q-4.2,1.3-13,19.5l-1.7.4-1.9.7,4.5-8.4q3.8-7.2,3.8-8.7t-.7-.6-5.8,7.9l-.4.5h-.2v-.3l.5-.9q4.4-7.2,5.9-7.7a1.6,1.6,0,0,1,1.7.4,2.5,2.5,0,0,1,.7,1.9q0,1.8-2.2,5.7a77.7,77.7,0,0,1,5.2-8,7.9,7.9,0,0,1,3.4-2.8,2.1,2.1,0,0,1,2.1.4,2.8,2.8,0,0,1,.9,2.3q0,1.9-2.6,6.6t-2.7,6,1.2.8q2.6-.8,8.9-11.8l.3-.4Q470.7,367,470.7,367.1Z" style="fill:#525870"/><path d="M496.9,339.1q-10.8,20.3-13.6,25.9t-2.8,6.9,1.2.9q2.6-.8,8.9-11.8l.3-.4q.2-.1.2.1l-.3.5-1.2,2.1q-5.5,9.1-8.1,9.9a2.2,2.2,0,0,1-2.2-.3,2.8,2.8,0,0,1-.8-2.2,10,10,0,0,1,1-3.9q-5,8.6-7.5,9.4a2.5,2.5,0,0,1-2.6-.5,3.8,3.8,0,0,1-1-2.9q0-4.7,5.9-10.3t7.4-5.4q1.8-.6,1.8,1.1a5.1,5.1,0,0,1-.5,1.9l10.3-20.2,1.9-.3ZM483,358.7q0-1.5-1.4-1.1t-6.9,7.2q-4.3,6.4-4.2,9.5t1.6,1.4q2.3-.7,7.9-10.4Q483,360.3,483,358.7Z" style="fill:#525870"/><path d="M500.8,346.7q0,1.1-3.6,5.6a8.9,8.9,0,0,0-.2,1.6,12,12,0,0,0,1.5,4.7,6.2,6.2,0,0,1,.8,2.8,7.7,7.7,0,0,1-2.5,5.2,13.8,13.8,0,0,1-6,3.8,3.7,3.7,0,0,1-3.1-.1,2.8,2.8,0,0,1-1.2-2.6,8.9,8.9,0,0,1,1.5-4.6,6.4,6.4,0,0,1,3.2-3h.5l2.3-3.5,2.8-4.2a13.7,13.7,0,0,1,1.5-3.9,4.2,4.2,0,0,1,2-2Q500.8,346.2,500.8,346.7Zm-4,12.4q0-.9-.1-1.7t-.1-2.4a17.1,17.1,0,0,1,.1-2.2l-4.7,7.1a1,1,0,0,1,.6.9q0,1.7-2.8,3.1a5.6,5.6,0,0,0-1.9,1.8,4.1,4.1,0,0,0-.8,2.3,1.8,1.8,0,0,0,.8,1.6,2.5,2.5,0,0,0,2.1.1q2.4-.8,4.6-4.2A12.4,12.4,0,0,0,496.8,359.1Z" style="fill:#525870"/><path d="M43.9,133.1s19.2,11.2,42.7-4.2,31.5-20.4,78.2-92.9L240,86.6s-76.6,97.1-95,107.4-33.4,8.9-44.9,5.7Z" style="fill:#f3f5f2"/><path d="M90.8,131.5s9.6,12.3,17.1,11.3,7.5,7.6,7.5,7.6,7.8.5,12,5.1a16.1,16.1,0,0,1,3.9,10.7s5.5,1.2,7.3,3.4-.9,3.2,1.5,8.3a43.8,43.8,0,0,0,4.4,7.7s16.4-8.1,44.3-45.3,42.1-52.1,42.1-52.1L166.2,41.3S118.8,117.3,90.8,131.5Z" style="fill:url(#linear-gradient-7)"/><polygon points="131.1 85.7 129.9 93.6 159.5 52.3 158.1 46.9 131.1 85.7" style="fill:url(#linear-gradient-8)"/><polygon points="219.7 100.6 226.9 101.5 195.6 138.5 194.6 130.4 219.7 100.6" style="fill:url(#linear-gradient-9)"/><path d="M196.8,89.7s-.6,1.3.2,1.4,7.8,4,10.8,2.9c0,0,4.2.6,3.8,4.7s-9.4,17.4-14.5,20.6c0,0-7.6-3.1-7.9-2.9a6.1,6.1,0,0,1-5.2,2.2c-3.5-.2-9.8.8-19.5-5.6l-1.5-1.1" style="fill:#a6c0ce"/><polyline points="162.9 112 151.7 102.4 150.7 91.1 167.5 77.4 188.5 77.9 196.7 84.8 196.8 89.7" style="fill:#a6c0ce"/><path d="M196.8,89.7c5-4.7.8-7.6.8-7.6,2.1-1.6.1-1.5-.6-2.7s.9-1.6.9-1.6-1.6-.2-1.6-.2l.4-1.9c.5-2.7-5.2-3.5-5.2-3.5-.2-2-2-3.2-4.4-4.2s-2.1,1.2-2.1,1.2a4.9,4.9,0,0,0-3.2-1.4s-.2-3.1-1.3-2.3-1.2-1.5-1.8-2.5-1.7-.1-2.5-.8-3.2-.3-4.6-.3-.9-2.4-2-1.5.4,1.2-.3,2.5-.6-.4-2.4-.4-.5.9-1.7,1.2-2.1,1-3.2,1.2-1.5-.9-2.8-.4-.7.8-.2,1.8-.6.9-1.1,1.1-2.1,2.1-2,1a2,2,0,0,0-.4-1.4c-2.5-.5-2.5.8-3.1,2.2s2.1,1.2.8,1.7-.6,2.1-.8,3.1-.6,2.5-1,.9-1.8-.2-2.4-.1a7.9,7.9,0,0,1-2.2-.6s-1.4,1.1-.9,1.4.4.8.3,1.9,1.6.9,1.1,1.6-.4,2.3-.3,3-1.1.5-1.6.9.3,1.6.7,2.6-.2,2.2-1.5,1.9-1.1.5-2.1,1.6.5,1.8.5,1.8a4.1,4.1,0,0,1,2.3,3.1c-1.3,1.7.3,4.5.3,4.5-1.3,2.3,1.8,3.4,1.8,3.4s1.9,3.5,2.3,3.4,1.3.4.6,1.7,2.6,2.2,2.5,3.7,1.7,3,4.7,3.4,5.4-2.2,5.4-2.2.7-3.9-3.9-4c0,0-1.6-.6-1.6-2.1s-4.6-4.8-3.9-6.2-.6-6.1,4.4-8.2c0,0,5.5-9.7,7.1-9.9s7.8-.4,9-.8,4.4-.3,5.6.5,5.2,5.3,7.9,3.9c0,0-3.2-1.5-.8-2.1s4.3.6,5.7-.4.6,2.7,1.6,3,1.9.1,1.7,1.8A1.7,1.7,0,0,0,196.8,89.7Z" style="fill:#2d495f"/><path d="M64.7,136.9l58,64.7s17.7-.9,23.4-9L84.7,130.2S72.7,137.1,64.7,136.9Z" style="fill:#e0e6e4"/><ellipse cx="88.3" cy="170.4" rx="5.7" ry="16.7" transform="translate(-100.2 134.1) rotate(-51.7)" style="fill:#dde2de"/><path d="M70.9,135.9l1.7,1.5s-2.7,1-1.1,2.8,6.3,8.3,7.8,9,15.1-3.7,16.3-4.4.4-1.3-.7-2.3-6.2-6.2-6.2-6.2-3.7-2.8-7.2-1.3l-1.7-2.3A21.5,21.5,0,0,1,70.9,135.9Z" style="fill:#c7c7c5"/><path d="M116.7,190.9l5.3,5.6a2.6,2.6,0,0,0,3.2.9c2.3-.7,14.8-5.1,15.4-6s.4-1.3-1-2.7l-4.2-4.6s-.7-1.2-3.9.6a77.8,77.8,0,0,1-13.8,5.1C116.7,189.9,116.5,190.5,116.7,190.9Z" style="fill:#bdbdbd"/><ellipse cx="99.1" cy="189.6" rx="3.5" ry="9.4" transform="translate(-113.7 167) rotate(-56.3)" style="fill:#304850"/><path d="M88.5,161.3a12.2,12.2,0,0,0,2-2.7c1.7-2.5,2.2-3.3,4-3.8s7,.7,9.4.4,4.4.6,6.5-1.1c0,0,2.7,2.1,4.8,1.4s6.2,1.1,7.9,3.3,2.9,5.1,1.6,7.3a2.1,2.1,0,0,0,.8,3.2s-4,3.8-4.4,6.6-3.6,6.2-9.7,4.4a84,84,0,0,0-8.8-2.2" style="fill:none;stroke:#b8bad3;stroke-miterlimit:10;stroke-width:2.525703550898647px"/><path d="M117.1,184.8l-15-16.2s-.8.1-1.8-1.2-1.2-1.3-1.2-2.1-1.5-2.4-1.4-2.7a3.1,3.1,0,0,0-.4-1.9,41,41,0,0,1-3-4,10.7,10.7,0,0,0-.9-3.1c-.4-.6-.9-1.2-1.2-1.2s-1.5-.3-1.2-.8-.5-.9-.3-1.2.6-.4,1.1.2.9.1,1.1.5a5.7,5.7,0,0,0,.8,1.7c.5.6,3.1,1.3,3.6,1.4a12.1,12.1,0,0,1,2.6,2l1.5,1.9s.8,1.1,1.4,1.2.8.9,1.2,1.1,1.7.2,2.1.5,1.8,1.8,2.3,1.6,2.4,2.1,2.5,2.2a4,4,0,0,1,.3.9c0,.2,14.9,15.7,14.9,15.7S124.9,185.8,117.1,184.8Z" style="fill:#ebd329"/><path d="M171.9,60l-.5-2.2a8.4,8.4,0,0,0,2.4-2.2,4.1,4.1,0,0,0,.8-2.9,3.2,3.2,0,0,0-1.5-2.3,3.5,3.5,0,0,0-3.3-.4,6.7,6.7,0,0,0-3.2,2.7l-.6,1-4.3-4.1-.6-2.6,3.9-5.8.4,2.1L162.4,48l3.1,3q3.8-4.8,7.2-2.5a5.6,5.6,0,0,1,2.4,4.1,7.1,7.1,0,0,1-1.2,5.1A9.5,9.5,0,0,1,171.9,60Z" style="fill:none;stroke:#525870;stroke-miterlimit:10;stroke-width:0.9945603564461962px"/><path d="M54.8,144.6l.3-.5h.8q.4-.4-.5-1.4H53.8l.2-.3h1.1a.9.9,0,0,1-.1-1.2,2.2,2.2,0,0,1,1.6-.6h.8l-.4.5H56q-.6.1-.7.3t.4.8l.2.2,1.7-.2-.2.3H56.2a1.5,1.5,0,0,1,.4.7.9.9,0,0,1-.3.6h1.5q1.4-.1,1.6-.7h.2q.1.1-.1.5a1.8,1.8,0,0,1-1.3.6H54.8Z" style="fill:#525870"/><path d="M70.1,154.9l.6-1.6a16.5,16.5,0,0,0,4.1-.1,3.4,3.4,0,0,0,2.5-1.4q.5-1-.6-2.1a7,7,0,0,0-3.8-1.9,13.7,13.7,0,0,0-5.3.1l-1.2.3-3.2-4.6.7-1.8,7.8-1.5-.6,1.5L64.7,143l2.3,3.4q7.2-1,10.2,2.1t.8,3.7q-1,1.8-4.2,2.4A17.1,17.1,0,0,1,70.1,154.9Z" style="fill:#525870"/><path d="M136,157.1q-.2-.3-.4-.2l-.8.5h-.2V157l.8-.8.8-.8,2.5-2.6.9-1,.6-.7q.2-.2.4,0l.4.5.5.6.6.5v.3h-.3l-.7-.4h-.6l-.6.2-.7.6-1.9,2,2.2,4,1.9-2a.8.8,0,0,0,.2-.7,4.7,4.7,0,0,0-.2-.9.4.4,0,0,1,.1-.4l.2-.2.4.8.4.8.4.6.5.8-.2.2h-.3l-.6-.5a.4.4,0,0,0-.5.1l-1.9,2,2,3.5q.2.3.6.1l.9-.6q.2-.1.3.1v.3l-.6.6-.6.6-.7.7-.8.8-.8.9-.2-.2a.3.3,0,0,1,0-.4l.5-.9a.7.7,0,0,0,0-.7Z" style="fill:#525870"/><path d="M148.2,158l-.4.5-.4.5-.3.4-.2.2h-.2a.3.3,0,0,1,0-.3l.4-.7a.6.6,0,0,0,0-.6l-2.3-4.1q-.3-.4-.5-.5t-.7.4-.3,0v-.2l.4-.5.5-.6.4-.7.3-.4q.2-.2.3,0l.2.5.4.8,2.3,4.1a.3.3,0,0,0,.4.1l.6-.4h.3l-.2.2-.3.3-.4.4Zm-5.8-8.2a1.3,1.3,0,0,1-.1-.8,1.4,1.4,0,0,1,.4-.8.7.7,0,0,1,1.2.1,1.3,1.3,0,0,1,.2.8,1.4,1.4,0,0,1-.4.8.8.8,0,0,1-.7.3A.7.7,0,0,1,142.4,149.8Z" style="fill:#525870"/><path d="M151.9,151.5l-.6-3.7a7.5,7.5,0,0,0-.4-1.5l-.2-.2-.5.3q-.2.2-.3,0h-.1l1.1-1.1.5-.5.4-.5v.2a.2.2,0,0,1,0,.2v.2l-.3.8a1.4,1.4,0,0,0-.1.8l1.2,7.3-.2.2h-.3l-.5-.3-4.4-2.9-.3-.2h-.5l-.3.2q-.2.2-.3-.1v-.2l.6-.6.6-.7.7-.8.6-.7v.2a.3.3,0,0,1-.1.4l-.3.5a.3.3,0,0,0,0,.3l.3.3.7.5Z" style="fill:#525870"/><path d="M159.2,144.1v-.3h.4a7.8,7.8,0,0,1-.1.9,5.3,5.3,0,0,1-.3,1l-.5,1-.8,1-1.1.8a2.2,2.2,0,0,1-1.1.3,2.2,2.2,0,0,1-1.1-.4,3.5,3.5,0,0,1-1-1.2,4.5,4.5,0,0,1-.5-1.7,6.3,6.3,0,0,1,0-1.8,6.5,6.5,0,0,1,.5-1.6,4.2,4.2,0,0,1,.8-1.2q1.2-1.2,2.2-1a2.9,2.9,0,0,1,1.7,1.5.1.1,0,0,1,0,.2l-3.5,4.1a3.3,3.3,0,0,0,.7.9l.9.4h.9a2.5,2.5,0,0,0,.9-.7,3.2,3.2,0,0,0,.6-1A4.5,4.5,0,0,0,159.2,144.1Zm-4.6-2.4a2.4,2.4,0,0,0-.6,1.6,3.7,3.7,0,0,0,.5,1.9l2.3-2.6a.3.3,0,0,0,.1-.4l-.4-.5-.6-.3h-.6Z" style="fill:#525870"/><path d="M162.8,146a7,7,0,0,1,.6,1.3q.2.8.1.9h-.2a5.9,5.9,0,0,0-.7-1.9,2.5,2.5,0,0,0-1.9-1.4,2.8,2.8,0,0,0-2.2,1.1,11.5,11.5,0,0,0-2.4,4.4,2.9,2.9,0,0,1,3,1.5,4.9,4.9,0,0,1,.4,3.3,6.3,6.3,0,0,1-1.6,3.3,4.4,4.4,0,0,1-1.2.9q-.7.4-.8.2a.1.1,0,0,1,0-.1h.2a2.8,2.8,0,0,0,1.3-.8,4.6,4.6,0,0,0,1.2-2.9,5.6,5.6,0,0,0-.7-3.3,2.6,2.6,0,0,0-2-1.4,28.5,28.5,0,0,0-.3,10,28.3,28.3,0,0,1,.2,5.8,17.8,17.8,0,0,1-1.3,4.7,15.1,15.1,0,0,1-2.7,4.6,4.3,4.3,0,0,1-2.4,1.5,1.5,1.5,0,0,1-1.7-.8,2.1,2.1,0,0,1-.3-1.2,1.7,1.7,0,0,1,.4-1.1q.5-.6,1,.1a1.4,1.4,0,0,1,.2.8,1.2,1.2,0,0,1-.3.7q-.5.5-.8-.1l-.2-.2q-.1.2.2.7a1.4,1.4,0,0,0,1.6.7,4.1,4.1,0,0,0,2.2-1.4,10.5,10.5,0,0,0,2.6-5.5,19.8,19.8,0,0,0,.3-2.8q.1-1.4,0-6.6a51.2,51.2,0,0,1,.3-5.5,27.9,27.9,0,0,1,.8-4.5q-2.2.1-4.9,2.9a18.6,18.6,0,0,0-4.7,10.2q-.8,5.1.5,7.4a2,2,0,0,0,1.7,1.2,3,3,0,0,0,2.1-1.2,11.8,11.8,0,0,0,2.5-6q.8-4.1-.3-6t-2.2-.1a9,9,0,0,0-1.9,4.8q-.5,3.4.4,4.9a.8.8,0,0,0,.6.4.7.7,0,0,0,.7-.3h.2q0,.1-.1.3a.9.9,0,0,1-1,.3,1.6,1.6,0,0,1-.9-.8q-.9-1.7-.3-4.9a9.8,9.8,0,0,1,2.2-4.9q1.5-1.6,2.5.1t.4,6.2a12.1,12.1,0,0,1-2.7,6.2,3.2,3.2,0,0,1-2.5,1.2,2.7,2.7,0,0,1-2.1-1.6q-1.7-3-.3-8.5a20.9,20.9,0,0,1,4.9-9.2,10.1,10.1,0,0,1,5.2-3.3,11.9,11.9,0,0,1,2.5-4.6,3.1,3.1,0,0,1,2.4-1.2A2.5,2.5,0,0,1,162.8,146Z" style="fill:#525870"/><path d="M165.9,155a3.8,3.8,0,0,1-.1,1.4,4.6,4.6,0,0,1-.9,2.5l-.6.4q-.1,3.2-1.1,4.3a1.3,1.3,0,0,1-1.2.4,1.6,1.6,0,0,1-1.1-.9q-.9-1.6,0-5.1a8.2,8.2,0,0,1,1.5-3.3q.8-.8,1.3.2a8.2,8.2,0,0,1,.6,4.1l.5-.3a3.5,3.5,0,0,0,.7-1.4,7,7,0,0,0,.3-2,.6.6,0,0,1,.1-.3Zm-2.3.1q-.5-.9-1.1-.2t-.9,4a8.8,8.8,0,0,0,.6,4.4q.4.7,1,.1t1-4.1a.8.8,0,0,1-.7-.4,2.7,2.7,0,0,1-.3-1.4,2,2,0,0,1,.4-1.3.2.2,0,0,1,.3,0A2.7,2.7,0,0,0,163.7,155.1Z" style="fill:#525870"/><path d="M171.7,148.9a16.4,16.4,0,0,1-.1,3.4q-.2,2.7-.8,3.3a.9.9,0,0,1-.9.3,1.1,1.1,0,0,1-.8-.6,4,4,0,0,1-.3-1.5v.5a29.6,29.6,0,0,1-.3,3,2.5,2.5,0,0,1-.5,1.3.9.9,0,0,1-.9.3,1.1,1.1,0,0,1-.8-.6,4.2,4.2,0,0,1-.4-1.8l-.2-5,.5-.4.6-.7.2,6.4a3.3,3.3,0,0,0,.3,1.5q.3.5.6.1t.6-7.1v-2.7l.5-.4.6-.7v4.3a11.8,11.8,0,0,0,.4,3.6q.3.5.6.1t.8-5.2v-1.2a.3.3,0,0,1,0-.2Z" style="fill:#525870"/><path d="M178.8,141.2a17.9,17.9,0,0,1-.1,3.4q-.2,2.6-.8,3.3a1,1,0,0,1-.9.3,1.1,1.1,0,0,1-.8-.6,2.8,2.8,0,0,1-.3-1.1q-.1-.6-.1-2.5a7.6,7.6,0,0,0-.2-2.4q-.2-.4-.6,0t-.8,10l-.6.5-.6.7v-4.1a14.1,14.1,0,0,0-.4-4.1q-.2-.3-.4-.1t-.5,4.2a.6.6,0,0,1,0,.3h-.1v-.4q.1-3.6.6-4.1a.7.7,0,0,1,.7-.2,1.1,1.1,0,0,1,.7.6,6,6,0,0,1,.4,2.6,33.4,33.4,0,0,1,.3-4.1,3.4,3.4,0,0,1,.7-1.8.9.9,0,0,1,.9-.3,1.2,1.2,0,0,1,.8.7,7.4,7.4,0,0,1,.4,3.1,8.9,8.9,0,0,0,.2,2.8q.2.4.6,0t.8-6.3a.3.3,0,0,1,0-.2Z" style="fill:#525870"/><path d="M182.7,125.2q.2,9.9.4,12.6a11.2,11.2,0,0,0,.4,3.2q.3.5.6.1t.9-6.3a.3.3,0,0,1,0-.2h.1a2,2,0,0,1,0,.3v1q-.1,4.6-.9,5.4a.9.9,0,0,1-.9.3,1.2,1.2,0,0,1-.8-.7,4.3,4.3,0,0,1-.4-1.7q-.1,4.3-.8,5.1a1.1,1.1,0,0,1-1.1.4,1.6,1.6,0,0,1-1-.9q-1-1.8,0-5.1a9.7,9.7,0,0,1,1.6-3.6q.6-.6.9,0a2.2,2.2,0,0,1,.2.8l-.4-9.7.6-.5Zm-1.1,10.3q-.3-.6-.8-.1t-1,4.2q-.2,3.3.4,4.5t.9.2.8-5.6A8.5,8.5,0,0,0,181.7,135.5Z" style="fill:#525870"/><path d="M185.8,127.2a6.9,6.9,0,0,1-.2,2.9l.3.6a5.2,5.2,0,0,0,1.6,1.5,2.7,2.7,0,0,1,.9.9,3.3,3.3,0,0,1,.2,2.5,6,6,0,0,1-1.5,2.7,1.6,1.6,0,0,1-1.2.6,1.2,1.2,0,0,1-1-.7,3.8,3.8,0,0,1-.4-2.1,2.8,2.8,0,0,1,.6-1.8h.2v-1.8q.1-.8.1-2.2a5.9,5.9,0,0,1-.3-1.8,1.8,1.8,0,0,1,.3-1.2Q185.7,127,185.8,127.2Zm1.1,5.5-.4-.6-.5-.9-.4-.8q-.1,1.3-.2,3.7a.4.4,0,0,1,.4.2q.4.6-.4,1.8a2.4,2.4,0,0,0-.3,1.1,1.7,1.7,0,0,0,.2,1,.8.8,0,0,0,.7.4,1.1,1.1,0,0,0,.8-.4,3.9,3.9,0,0,0,.8-2.6A5.3,5.3,0,0,0,187,132.7Z" style="fill:#525870"/><path d="M618.8,93.5s13.7,8,30.6-3S671.9,75.9,705.3,24l53.8,36.2s-54.8,69.5-68,76.9-23.9,6.3-32.1,4Z" style="fill:#f3f5f2"/><path d="M652.3,92.3s6.9,8.8,12.2,8.1,5.4,5.4,5.4,5.4,5.6.3,8.6,3.6a11.5,11.5,0,0,1,2.8,7.7s3.9.9,5.2,2.4-.6,2.3,1,5.9a31.3,31.3,0,0,0,3.1,5.5s11.7-5.8,31.7-32.4,30.1-37.3,30.1-37.3L706.3,27.7S672.3,82.2,652.3,92.3Z" style="fill:url(#linear-gradient-10)"/><polygon points="681.1 59.5 680.3 65.2 701.5 35.6 700.5 31.8 681.1 59.5" style="fill:url(#linear-gradient-11)"/><polygon points="744.6 70.2 749.7 70.8 727.4 97.3 726.6 91.6 744.6 70.2" style="fill:url(#linear-gradient-12)"/><path d="M728.2,62.4s-.4.9.1,1,5.6,2.9,7.7,2.1a3.1,3.1,0,0,1,2.7,3.4c-.2,3-6.7,12.4-10.4,14.7a58.4,58.4,0,0,0-5.7-2.1,4.4,4.4,0,0,1-3.7,1.6c-2.5-.2-7,.6-13.9-4l-1.1-.8" style="fill:#a6c0ce"/><polyline points="703.9 78.3 695.9 71.5 695.2 63.4 707.2 53.6 722.3 53.9 728.1 58.9 728.2 62.4" style="fill:#a6c0ce"/><path d="M728.2,62.4c3.6-3.4.6-5.4.6-5.4s.1-1.1-.4-1.9.6-1.1.6-1.1-1.1-.1-1.1-.1l.3-1.4c.4-1.9-3.7-2.5-3.7-2.5s-1.4-2.3-3.1-3-1.5.9-1.5.9a3.5,3.5,0,0,0-2.3-1s-.1-2.2-.9-1.6-.9-1-1.3-1.8-1.2-.1-1.8-.5-2.3-.2-3.3-.2-.6-1.7-1.4-1.1.3.9-.2,1.8-.5-.3-1.7-.3-.4.6-1.2.9-1.5.7-2.3.9-1.1-.6-2-.3-.5.6-.1,1.3-.5.6-.8.8-1.5,1.5-1.5.7a1.4,1.4,0,0,0-.3-1c-1.8-.4-1.8.5-2.2,1.5s1.5.8.6,1.2-.4,1.5-.6,2.2-.4,1.8-.7.6-1.3-.1-1.7-.1a5.7,5.7,0,0,1-1.6-.4s-1,.8-.7,1,.3.5.2,1.4,1.1.7.8,1.1a3.7,3.7,0,0,0-.2,2.2c.1.5-.8.4-1.1.6s.2,1.2.5,1.9-.1,1.5-1.1,1.3-.8.3-1.5,1.1.4,1.3.4,1.3a2.9,2.9,0,0,1,1.7,2.2c-1,1.2.2,3.2.2,3.2-1,1.7,1.3,2.4,1.3,2.4s1.4,2.5,1.7,2.5.9.3.4,1.2,1.9,1.6,1.8,2.7,1.2,2.2,3.4,2.4a5,5,0,0,0,3.9-1.6s.5-2.8-2.8-2.8c0,0-1.1-.4-1.1-1.5s-3.3-3.4-2.8-4.4-.5-4.3,3.2-5.9c0,0,3.9-6.9,5.1-7.1s5.6-.3,6.4-.5,3.2-.2,4,.4,3.7,3.8,5.7,2.8c0,0-2.3-1.1-.6-1.5s3,.4,4.1-.3.4,2,1.1,2.1,1.3.1,1.2,1.3A1.2,1.2,0,0,0,728.2,62.4Z" style="fill:#2d495f"/><path d="M633.7,96.2l41.5,46.3s12.7-.7,16.8-6.4l-44-44.7S639.4,96.3,633.7,96.2Z" style="fill:#e0e6e4"/><ellipse cx="650.5" cy="120.2" rx="4.1" ry="11.9" transform="translate(153.1 556.2) rotate(-51.7)" style="fill:#dde2de"/><path d="M638.1,95.4l1.2,1.1s-1.9.7-.8,2,4.5,5.9,5.6,6.5,10.8-2.6,11.7-3.1.3-.9-.5-1.6l-4.4-4.4s-2.6-2-5.1-.9l-1.2-1.7A15.4,15.4,0,0,1,638.1,95.4Z" style="fill:#c7c7c5"/><path d="M670.9,134.8l3.8,4a1.8,1.8,0,0,0,2.3.6c1.6-.5,10.6-3.7,11-4.3s.3-.9-.7-1.9l-3-3.3s-.5-.9-2.8.4a55.7,55.7,0,0,1-9.9,3.6C670.8,134.1,670.7,134.5,670.9,134.8Z" style="fill:#bdbdbd"/><ellipse cx="658.2" cy="133.9" rx="2.5" ry="6.7" transform="translate(182 607.6) rotate(-56.3)" style="fill:#304850"/><path d="M650.7,113.6a8.8,8.8,0,0,0,1.5-1.9c1.2-1.8,1.6-2.4,2.8-2.7s5,.5,6.7.3,3.2.4,4.6-.8,1.9,1.5,3.5,1,4.5.8,5.7,2.3,2,3.6,1.1,5.3a1.5,1.5,0,0,0,.6,2.3s-2.8,2.7-3.2,4.7-2.6,4.4-6.9,3.2a60.1,60.1,0,0,0-6.3-1.6" style="fill:none;stroke:#b8bad3;stroke-miterlimit:10;stroke-width:1.8073752799251137px"/><path d="M671.1,130.5l-10.8-11.6s-.6.1-1.3-.8-.9-.9-.9-1.5-1-1.7-1-1.9a2.2,2.2,0,0,0-.3-1.4,29.3,29.3,0,0,1-2.2-2.9,7.7,7.7,0,0,0-.6-2.2c-.3-.4-.6-.8-.8-.8s-1.1-.2-.9-.6-.4-.7-.2-.8.4-.3.8.1.7.1.8.4a4.1,4.1,0,0,0,.6,1.2,8.8,8.8,0,0,0,2.5,1,8.7,8.7,0,0,1,1.9,1.4l1,1.3s.6.8,1,.9.6.7.8.8,1.2.1,1.5.4,1.3,1.3,1.6,1.2,1.7,1.5,1.8,1.6a2.9,2.9,0,0,1,.2.6L677.5,128S676.8,131.2,671.1,130.5Z" style="fill:#ebd329"/><path d="M710.4,41.1l-.3-1.6a6,6,0,0,0,1.7-1.6,3,3,0,0,0,.6-2.1,2.3,2.3,0,0,0-1-1.7,2.5,2.5,0,0,0-2.3-.3,4.8,4.8,0,0,0-2.3,1.9l-.4.7-3.1-2.9-.4-1.9,2.8-4.1.3,1.5-2.3,3.3,2.3,2.2q2.7-3.5,5.2-1.8a4,4,0,0,1,1.7,3,5.1,5.1,0,0,1-.9,3.6A6.8,6.8,0,0,1,710.4,41.1Z" style="fill:none;stroke:#525870;stroke-miterlimit:10;stroke-width:0.7117002318006789px"/><path d="M626.6,101.7l.2-.3h.5q.3-.3-.3-1h-1.1v-.2h.8a.7.7,0,0,1-.1-.9,1.6,1.6,0,0,1,1.1-.5h.6l-.3.4h-.7q-.5,0-.5.2t.3.6h1.3v.2h-.9a1.1,1.1,0,0,1,.3.5.6.6,0,0,1-.2.5h1.1q1-.1,1.1-.5h.1q.1.1-.1.3a1.3,1.3,0,0,1-.9.4h-2.3Z" style="fill:#525870"/><path d="M637.5,109.1l.4-1.1a11.8,11.8,0,0,0,2.9-.1,2.4,2.4,0,0,0,1.8-1q.4-.7-.4-1.5a5,5,0,0,0-2.7-1.3,9.8,9.8,0,0,0-3.8,0l-.9.2-2.3-3.3.5-1.3,5.6-1.1-.4,1.1-4.5.9,1.6,2.4q5.2-.7,7.3,1.5a2.1,2.1,0,0,1,.6,2.7,4,4,0,0,1-3,1.8Z" style="fill:#525870"/><path d="M684.7,110.6q-.1-.2-.3-.2l-.6.4h-.2v-.2l.6-.6.5-.5,1.8-1.9.6-.7.4-.5h.3l.3.3.4.5.4.3h-.3l-.5-.3h-.8l-.5.4-1.3,1.4,1.6,2.8,1.3-1.4a.6.6,0,0,0,.1-.5l-.2-.6a.3.3,0,0,1,.1-.3h.2l.3.6.3.5.3.4.4.5v.2h-.2l-.4-.4a.3.3,0,0,0-.4.1l-1.3,1.4,1.4,2.5q.1.2.4.1l.6-.5h.2v.2l-.4.4-.4.4-.5.5-.5.6-.5.6v-.2a.2.2,0,0,1,0-.3l.4-.7a.5.5,0,0,0,0-.5Z" style="fill:#525870"/><path d="M693.4,111.2l-.3.3-.3.3-.2.3h-.2a.2.2,0,0,1,0-.2l.3-.5a.4.4,0,0,0,0-.4l-1.6-2.9-.4-.4-.5.3H690v-.2l.3-.4.3-.4.3-.5.2-.3h.2l.2.4.3.6,1.7,2.9h.3l.5-.3h.1l-.2.2-.3.3Zm-4.2-5.9a1,1,0,0,1-.1-.6,1,1,0,0,1,.3-.6l.5-.2.4.3a.9.9,0,0,1,.1.6,1,1,0,0,1-.3.6l-.5.2A.5.5,0,0,1,689.3,105.4Z" style="fill:#525870"/><path d="M696,106.6l-.5-2.6a5.3,5.3,0,0,0-.3-1.1h-.2l-.3.2h-.2l.8-.8.4-.4.3-.3h.1a.2.2,0,0,1,0,.1v.2l-.2.5a1,1,0,0,0,0,.5l.9,5.2v.2h-.2l-.3-.2-3.2-2.1h-.6l-.2.2h-.2v-.2l.4-.4.5-.5.5-.5.4-.5h.1a.2.2,0,0,1,0,.3l-.2.4a.2.2,0,0,0,0,.2l.2.2.5.4Z" style="fill:#525870"/><path d="M701.3,101.3v-.2h.3a5.6,5.6,0,0,1-.1.7l-.2.7-.4.7-.6.7-.8.6-.8.2-.8-.3a2.5,2.5,0,0,1-.7-.8,3.3,3.3,0,0,1-.4-1.2,4.5,4.5,0,0,1,0-1.3,4.7,4.7,0,0,1,.3-1.2,3,3,0,0,1,.5-.9q.8-.9,1.5-.7a2.1,2.1,0,0,1,1.2,1.1.1.1,0,0,1,0,.1l-2.5,2.9.5.7.6.3h.7l.7-.5a2.3,2.3,0,0,0,.5-.7A3.2,3.2,0,0,0,701.3,101.3ZM698,99.6a1.7,1.7,0,0,0-.5,1.2,2.6,2.6,0,0,0,.4,1.4l1.6-1.9a.2.2,0,0,0,.1-.3l-.3-.4-.4-.2h-.4Z" style="fill:#525870"/><path d="M703.8,102.7l.4,1q.2.6.1.7h-.1a4.2,4.2,0,0,0-.5-1.3,1.8,1.8,0,0,0-1.3-1,2,2,0,0,0-1.6.8,8.3,8.3,0,0,0-1.7,3.2,2.1,2.1,0,0,1,2.1,1,3.5,3.5,0,0,1,.3,2.4,4.5,4.5,0,0,1-1.1,2.4l-.8.6q-.5.3-.6.1h.2a2,2,0,0,0,1-.6,3.3,3.3,0,0,0,.8-2.1,4,4,0,0,0-.5-2.3,1.9,1.9,0,0,0-1.4-1,20.4,20.4,0,0,0-.2,7.1,20.3,20.3,0,0,1,.2,4.2,12.8,12.8,0,0,1-.9,3.4,10.8,10.8,0,0,1-1.9,3.3,3.1,3.1,0,0,1-1.7,1,1.1,1.1,0,0,1-1.2-.6,1.5,1.5,0,0,1-.2-.9,1.2,1.2,0,0,1,.3-.8q.4-.4.7.1a1,1,0,0,1,.1.6.8.8,0,0,1-.2.5q-.3.4-.6-.1h-.1q-.1.1.1.5a1,1,0,0,0,1.1.5,2.9,2.9,0,0,0,1.5-1,7.5,7.5,0,0,0,1.8-3.9,14.2,14.2,0,0,0,.2-2q0-1,0-4.7a36.6,36.6,0,0,1,.2-3.9,20,20,0,0,1,.5-3.2q-1.6.1-3.5,2.1a13.3,13.3,0,0,0-3.4,7.3q-.6,3.6.4,5.3a1.4,1.4,0,0,0,1.2.9,2.1,2.1,0,0,0,1.5-.8,8.4,8.4,0,0,0,1.8-4.3q.5-2.9-.2-4.3t-1.6-.1a6.5,6.5,0,0,0-1.3,3.4,5.7,5.7,0,0,0,.3,3.5.6.6,0,0,0,.4.3l.5-.2h.1v.2a.7.7,0,0,1-.7.2,1.1,1.1,0,0,1-.7-.6,5.1,5.1,0,0,1-.2-3.5,7,7,0,0,1,1.6-3.5q1.1-1.2,1.8,0a6.8,6.8,0,0,1,.3,4.5,8.7,8.7,0,0,1-1.9,4.4,2.3,2.3,0,0,1-1.8.9,1.9,1.9,0,0,1-1.5-1.1q-1.2-2.2-.2-6.1a15,15,0,0,1,3.5-6.6,7.2,7.2,0,0,1,3.7-2.4,8.5,8.5,0,0,1,1.8-3.3,2.2,2.2,0,0,1,1.7-.9A1.8,1.8,0,0,1,703.8,102.7Z" style="fill:#525870"/><path d="M706.1,109.1a2.7,2.7,0,0,1-.1,1,3.3,3.3,0,0,1-.7,1.8l-.4.3a4.8,4.8,0,0,1-.8,3.1.9.9,0,0,1-.9.3,1.1,1.1,0,0,1-.8-.6q-.7-1.2,0-3.6a5.8,5.8,0,0,1,1.1-2.4q.5-.6.9.1a5.9,5.9,0,0,1,.4,2.9l.3-.2a2.5,2.5,0,0,0,.5-1,5,5,0,0,0,.2-1.4v-.2Zm-1.6.1q-.3-.6-.8-.1a4.8,4.8,0,0,0-.7,2.8,6.3,6.3,0,0,0,.4,3.1q.3.5.7.1a4.7,4.7,0,0,0,.7-3,.6.6,0,0,1-.5-.3,2,2,0,0,1-.2-1,1.4,1.4,0,0,1,.3-.9h.2A1.9,1.9,0,0,0,704.5,109.2Z" style="fill:#525870"/><path d="M710.2,104.7a11.8,11.8,0,0,1-.1,2.5,4.5,4.5,0,0,1-.6,2.4.7.7,0,0,1-.6.2.8.8,0,0,1-.6-.4,2.8,2.8,0,0,1-.2-1.1v.3a21.2,21.2,0,0,1-.2,2.1,1.8,1.8,0,0,1-.4.9.7.7,0,0,1-.6.2.8.8,0,0,1-.6-.4,3,3,0,0,1-.3-1.3l-.2-3.6.4-.3.4-.5.2,4.6a2.4,2.4,0,0,0,.2,1.1q.2.3.4.1t.4-5.1v-1.9l.4-.3.4-.5v3.1a8.4,8.4,0,0,0,.3,2.6q.2.3.4,0t.6-3.7v-.8a.2.2,0,0,1,0-.1Z" style="fill:#525870"/><path d="M715.3,99.3a12.8,12.8,0,0,1-.1,2.5,4.5,4.5,0,0,1-.6,2.4.7.7,0,0,1-.6.2.8.8,0,0,1-.6-.4,2,2,0,0,1-.2-.8q0-.4,0-1.8a5.4,5.4,0,0,0-.1-1.7q-.2-.3-.5,0t-.5,7.2l-.4.4-.4.5v-2.9a10.1,10.1,0,0,0-.3-2.9q-.1-.2-.3-.1t-.4,3v.2h-.1v-.3q.1-2.6.4-3a.5.5,0,0,1,.5-.2.8.8,0,0,1,.5.4,4.3,4.3,0,0,1,.3,1.9,23.9,23.9,0,0,1,.2-2.9,2.4,2.4,0,0,1,.5-1.3.7.7,0,0,1,.6-.2.9.9,0,0,1,.6.5,5.3,5.3,0,0,1,.3,2.2,6.4,6.4,0,0,0,.2,2q.2.3.4,0t.6-4.5a.2.2,0,0,1,0-.1Z" style="fill:#525870"/><path d="M718.1,87.8q.2,7.1.3,9a8,8,0,0,0,.3,2.3q.2.3.5.1t.6-4.5v-.2h.1a1.4,1.4,0,0,1,0,.2v.7q-.1,3.3-.7,3.9a.7.7,0,0,1-.6.2.9.9,0,0,1-.6-.5,3.1,3.1,0,0,1-.3-1.2q-.1,3.1-.6,3.7a.8.8,0,0,1-.8.3,1.2,1.2,0,0,1-.7-.6,4.8,4.8,0,0,1,0-3.7,6.9,6.9,0,0,1,1.2-2.6q.4-.4.7,0a1.6,1.6,0,0,1,.2.6l-.3-7,.5-.4Zm-.8,7.4q-.2-.4-.5-.1a5.5,5.5,0,0,0-.7,3,6.4,6.4,0,0,0,.3,3.2q.3.5.6.1t.6-4A6.1,6.1,0,0,0,717.4,95.2Z" style="fill:#525870"/><path d="M720.3,89.2a5,5,0,0,1-.1,2.1l.2.5a3.7,3.7,0,0,0,1.1,1l.6.6a2.4,2.4,0,0,1,.1,1.8,4.3,4.3,0,0,1-1,1.9,1.1,1.1,0,0,1-.9.4.9.9,0,0,1-.7-.5,2.7,2.7,0,0,1-.3-1.5,2,2,0,0,1,.4-1.3h.1V91.3a4.2,4.2,0,0,1-.2-1.3,1.3,1.3,0,0,1,.2-.8Zm.8,3.9-.3-.4-.4-.6-.3-.6-.2,2.6.3.2q.3.4-.3,1.3a1.7,1.7,0,0,0-.2.8,1.3,1.3,0,0,0,.1.7.5.5,0,0,0,.5.3.8.8,0,0,0,.6-.3,2.8,2.8,0,0,0,.6-1.8A3.8,3.8,0,0,0,721.1,93.2Z" style="fill:#525870"/><path d="M368.5,166.1s-10.9,6.4-24.3-2.4-17.9-11.6-44.4-52.8l-42.7,28.7s43.5,55.2,54,61,19,5,25.5,3.2Z" style="fill:#f3f5f2"/><path d="M341.9,165.1s-5.5,7-9.7,6.4-4.3,4.3-4.3,4.3-4.4.3-6.8,2.9a9.1,9.1,0,0,0-2.2,6.1s-3.1.7-4.1,1.9.5,1.8-.8,4.7a24.9,24.9,0,0,1-2.5,4.4s-9.3-4.6-25.2-25.8-23.9-29.6-23.9-29.6L299,113.8S326,157.1,341.9,165.1Z" style="fill:url(#linear-gradient-13)"/><polygon points="319 139.1 319.7 143.6 302.8 120.1 303.6 117 319 139.1" style="fill:url(#linear-gradient-14)"/><polygon points="268.6 147.6 264.5 148.1 282.3 169.1 282.9 164.5 268.6 147.6" style="fill:url(#linear-gradient-15)"/><path d="M281.6,141.4s.3.7-.1.8-4.4,2.3-6.1,1.7a2.5,2.5,0,0,0-2.2,2.7c.2,2.4,5.4,9.9,8.3,11.7a46.4,46.4,0,0,1,4.5-1.6,3.5,3.5,0,0,0,3,1.3c2-.1,5.6.5,11.1-3.2l.8-.6" style="fill:#a6c0ce"/><polyline points="300.9 154 307.2 148.6 307.8 142.2 298.3 134.4 286.3 134.6 281.7 138.6 281.6 141.4" style="fill:#a6c0ce"/><path d="M281.6,141.4c-2.9-2.7-.5-4.3-.5-4.3s0-.9.3-1.5-.5-.9-.5-.9.9-.1.9-.1l-.2-1.1c-.3-1.5,2.9-2,2.9-2s1.1-1.8,2.5-2.4,1.2.7,1.2.7a2.8,2.8,0,0,1,1.8-.8s.1-1.7.7-1.3.7-.8,1-1.4,1-.1,1.4-.4,1.8-.2,2.6-.2.5-1.4,1.1-.9-.2.7.2,1.4.4-.2,1.4-.2.3.5,1,.7l1.8.7c.6.1.9-.5,1.6-.2s.4.5.1,1,.4.5.7.6,1.2,1.2,1.2.6a1.1,1.1,0,0,1,.2-.8c1.4-.3,1.4.4,1.8,1.2s-1.2.7-.5,1,.3,1.2.5,1.7.3,1.4.6.5,1-.1,1.4-.1a4.5,4.5,0,0,0,1.3-.3s.8.6.5.8-.2.4-.2,1.1-.9.5-.6.9a2.9,2.9,0,0,1,.2,1.7c-.1.4.7.3.9.5s-.2.9-.4,1.5.1,1.2.9,1.1.6.3,1.2.9-.3,1-.3,1a2.3,2.3,0,0,0-1.3,1.8c.8,1-.2,2.6-.2,2.6s-1,1.9-1,1.9-1.1,2-1.3,1.9-.7.2-.3,1-1.5,1.2-1.4,2.1-1,1.7-2.7,1.9a4,4,0,0,1-3.1-1.2s-.4-2.2,2.2-2.2c0,0,.9-.4.9-1.2s2.6-2.7,2.2-3.5.4-3.5-2.5-4.7c0,0-3.1-5.5-4-5.6s-4.4-.2-5.1-.4a4.8,4.8,0,0,0-3.2.3c-.6.5-3,3-4.5,2.2,0,0,1.8-.9.5-1.2s-2.4.3-3.2-.2-.3,1.6-.9,1.7-1.1.1-.9,1A.9.9,0,0,1,281.6,141.4Z" style="fill:#2d495f"/><path d="M356.7,168.2l-33,36.8s-10.1-.5-13.3-5.1l34.9-35.5S352.1,168.3,356.7,168.2Z" style="fill:#e0e6e4"/><ellipse cx="343.3" cy="187.2" rx="9.5" ry="3.3" transform="translate(-42.2 253.1) rotate(-38.3)" style="fill:#dde2de"/><path d="M353.1,167.6l-1,.8s1.5.6.6,1.6-3.6,4.7-4.4,5.1-8.6-2.1-9.3-2.5-.2-.7.4-1.3l3.5-3.5s2.1-1.6,4.1-.8l.9-1.3A12.2,12.2,0,0,0,353.1,167.6Z" style="fill:#c7c7c5"/><path d="M327.1,198.9l-3,3.2a1.5,1.5,0,0,1-1.8.5c-1.3-.4-8.4-2.9-8.8-3.4s-.2-.7.6-1.5l2.4-2.6s.4-.7,2.2.3a44.2,44.2,0,0,0,7.8,2.9C327.2,198.3,327.3,198.7,327.1,198.9Z" style="fill:#bdbdbd"/><ellipse cx="337.2" cy="198.1" rx="5.3" ry="2" transform="translate(-53.3 220.1) rotate(-33.7)" style="fill:#304850"/><path d="M343.2,182a7,7,0,0,1-1.2-1.5c-.9-1.4-1.3-1.9-2.3-2.1s-4,.4-5.3.2-2.5.3-3.7-.6-1.5,1.2-2.8.8-3.5.6-4.5,1.9-1.6,2.9-.9,4.2a1.2,1.2,0,0,1-.4,1.8s2.3,2.1,2.5,3.8,2.1,3.5,5.5,2.5a47.7,47.7,0,0,1,5-1.2" style="fill:none;stroke:#b8bad3;stroke-miterlimit:10;stroke-width:1.4352975517833724px"/><path d="M326.9,195.4l8.5-9.2s.5.1,1-.7.7-.7.7-1.2.8-1.3.8-1.5a1.8,1.8,0,0,1,.2-1.1,23.3,23.3,0,0,0,1.7-2.3,6.1,6.1,0,0,1,.5-1.8c.3-.3.5-.7.7-.7s.8-.2.7-.4.3-.5.2-.7-.3-.2-.6.1-.5.1-.6.3a3.2,3.2,0,0,1-.5,1,7,7,0,0,1-2,.8,6.9,6.9,0,0,0-1.5,1.1l-.8,1.1s-.5.6-.8.7-.5.5-.7.6-1,.1-1.2.3-1,1-1.3.9-1.4,1.2-1.4,1.3a2.3,2.3,0,0,0-.2.5l-8.5,8.9S322.5,196,326.9,195.4Z" style="fill:#ebd329"/><path d="M294.6,123.2a4.1,4.1,0,0,1-.7-2.9,3.2,3.2,0,0,1,1.4-2.4q1.9-1.3,4.1,1.4l1.8-1.7-1.8-2.7.2-1.2,2.2,3.3-.3,1.5-2.5,2.3-.3-.6a3.8,3.8,0,0,0-1.8-1.5,2,2,0,0,0-1.9.2,1.8,1.8,0,0,0-.8,1.3,2.3,2.3,0,0,0,.5,1.7,4.8,4.8,0,0,0,1.4,1.2l-.3,1.3A5.4,5.4,0,0,1,294.6,123.2Z" style="fill:none;stroke:#525870;stroke-miterlimit:10;stroke-width:0.565185112164142px"/><path d="M361.5,172.5h-1a1,1,0,0,1-.7-.3q-.1-.2-.1-.3h.1q.1.3.9.4h.8a.5.5,0,0,1-.2-.4l.2-.4h.3q.3-.3.3-.5l-.4-.2h-.6l-.2-.3h.5a1.3,1.3,0,0,1,.9.4.5.5,0,0,1-.1.7H362q-.5.5-.3.8h.4v.3Z" style="fill:#525870"/><path d="M351.5,178.3a3.2,3.2,0,0,1-2.4-1.4,1.7,1.7,0,0,1,.5-2.1q1.7-1.8,5.8-1.2l1.3-1.9-3.6-.7-.3-.8,4.5.9.4,1-1.8,2.6-.7-.2a7.8,7.8,0,0,0-3,0,4,4,0,0,0-2.2,1.1q-.6.7-.3,1.2a1.9,1.9,0,0,0,1.4.8h2.3l.3.9Z" style="fill:#525870"/><path d="M313.7,184a.4.4,0,0,0,0,.4l.3.5a.2.2,0,0,1,0,.2h-.1l-.4-.5-.4-.5-.4-.4-.3-.3-.3-.3V183h.2l.5.4q.2.1.3,0l1.1-2-1.1-1.1h-.3l-.3.3h-.3l.3-.4.2-.3.2-.4.2-.5h.1a.2.2,0,0,1,.1.2v.5a.4.4,0,0,0,.1.4l1.1,1.1,1.3-2.3-1.1-1.1-.4-.3h-.7l-.4.2h-.3l.3-.3.3-.4.2-.3h.2l.3.4.5.6,1.4,1.5.4.4.5.5v.2h-.2l-.5-.3h-.2Z" style="fill:#525870"/><path d="M309,179.9l-.2-.2-.2-.2h.1l.4.2h.2l1.3-2.3.2-.5v-.3h.2l.2.2.3.4.3.3.3.3h-.2l-.4-.2-.3.3-1.3,2.3a.3.3,0,0,0,0,.3l.2.4a.2.2,0,0,1,0,.2h-.2l-.2-.2-.2-.3-.2-.3Zm3.2-4.2-.4-.2a.8.8,0,0,1-.2-.4.7.7,0,0,1,.1-.5l.3-.2.4.2a.8.8,0,0,1,.2.5.8.8,0,0,1-.1.5Z" style="fill:#525870"/><path d="M308.7,175.5l.4-.3.2-.2a.2.2,0,0,0,0-.2l-.2-.3a.2.2,0,0,1,0-.2h.1l.3.4.4.4.4.4.3.3h-.9l-2.5,1.7-.3.2h-.3l.7-4.1a.8.8,0,0,0,0-.4l-.2-.4h.1l.2.3.3.3.6.6h-.2l-.3-.2h-.1a4.2,4.2,0,0,0-.2.9l-.4,2.1Z" style="fill:#525870"/><path d="M303.1,173l.4.6.5.4h.5l.5-.2.4-.5-2-2.3a.1.1,0,0,1,0-.1,1.6,1.6,0,0,1,1-.9q.6-.1,1.2.6l.4.7a3.7,3.7,0,0,1,.3.9,3.6,3.6,0,0,1,0,1,2.6,2.6,0,0,1-.3.9,2,2,0,0,1-.6.7l-.6.2h-.6l-.6-.5-.5-.6-.3-.6v-.6a4.4,4.4,0,0,1,0-.5h.2v.2A2.5,2.5,0,0,0,303.1,173Zm2.1-2.3h-.4l-.3.2-.2.3a.2.2,0,0,0,0,.2l1.3,1.5a2.1,2.1,0,0,0,.3-1.1,1.3,1.3,0,0,0-.4-.9Z" style="fill:#525870"/><path d="M302.1,172.5a1.8,1.8,0,0,1,1.4.7,6.8,6.8,0,0,1,1.4,2.6,5.7,5.7,0,0,1,3,1.9,11.9,11.9,0,0,1,2.8,5.2q.8,3.1-.1,4.8a1.5,1.5,0,0,1-1.2.9,1.8,1.8,0,0,1-1.4-.7,6.9,6.9,0,0,1-1.5-3.5,5.4,5.4,0,0,1,.2-3.5q.5-1,1.4,0a5.6,5.6,0,0,1,1.3,2.8,4.1,4.1,0,0,1-.2,2.8.9.9,0,0,1-.5.5.5.5,0,0,1-.6-.2v-.2h.5l.3-.2a4.5,4.5,0,0,0,.2-2.8,5.1,5.1,0,0,0-1.1-2.7q-.8-.8-1.3.1a5.2,5.2,0,0,0-.2,3.4,6.7,6.7,0,0,0,1.4,3.4,1.7,1.7,0,0,0,1.2.7,1.1,1.1,0,0,0,1-.7,6.8,6.8,0,0,0,.3-4.2,10.6,10.6,0,0,0-2.7-5.8,4.4,4.4,0,0,0-2.8-1.7,15.9,15.9,0,0,1,.4,2.6,29.1,29.1,0,0,1,.2,3.1q0,3,0,3.8a11.2,11.2,0,0,0,.2,1.6,6,6,0,0,0,1.5,3.1,2.3,2.3,0,0,0,1.2.8.8.8,0,0,0,.9-.4q.2-.3.1-.4h-.1q-.2.3-.4.1a.7.7,0,0,1-.2-.4.8.8,0,0,1,.1-.5q.2-.4.5-.1a1,1,0,0,1,.2.6,1.2,1.2,0,0,1-.1.7.9.9,0,0,1-1,.4,2.5,2.5,0,0,1-1.3-.8,8.6,8.6,0,0,1-1.5-2.6,10.1,10.1,0,0,1-.7-2.7,16.1,16.1,0,0,1,.1-3.3,16.2,16.2,0,0,0-.1-5.7,1.5,1.5,0,0,0-1.1.8,3.2,3.2,0,0,0-.4,1.9,2.6,2.6,0,0,0,.7,1.6l.8.5h-.3l-.7-.5a3.6,3.6,0,0,1-.9-1.9,2.8,2.8,0,0,1,.2-1.9,1.6,1.6,0,0,1,1.7-.8,6.6,6.6,0,0,0-1.4-2.5,1.6,1.6,0,0,0-1.3-.6,1.4,1.4,0,0,0-1.1.8,3.4,3.4,0,0,0-.4,1.1h-.1s0-.2.1-.5l.3-.8A1.4,1.4,0,0,1,302.1,172.5Z" style="fill:#525870"/><path d="M299.2,178.5v.2a4,4,0,0,0,.2,1.1,2,2,0,0,0,.4.8l.3.2a4.7,4.7,0,0,1,.3-2.3q.3-.6.8-.1a4.6,4.6,0,0,1,.8,1.9,3.9,3.9,0,0,1,0,2.9.9.9,0,0,1-.6.5.7.7,0,0,1-.7-.3,3.8,3.8,0,0,1-.6-2.5l-.3-.2a2.6,2.6,0,0,1-.5-1.4,2.1,2.1,0,0,1,0-.8Zm1.1.6h.2a1.1,1.1,0,0,1,.2.7,1.6,1.6,0,0,1-.1.8l-.4.2a3.7,3.7,0,0,0,.6,2.3q.3.4.6-.1a5,5,0,0,0,.3-2.5,3.8,3.8,0,0,0-.5-2.2q-.4-.4-.6.1A1.5,1.5,0,0,0,300.3,179.1Z" style="fill:#525870"/><path d="M295.9,175h0v.7q.1,2.5.5,2.9t.4,0a6.7,6.7,0,0,0,.2-2.1v-2.4l.3.4.3.2v1.5q-.2,3.5.4,4t.3-.1a1.9,1.9,0,0,0,.2-.8v-3.7l.3.4.3.2v2.8a2.4,2.4,0,0,1-.2,1,.6.6,0,0,1-.4.3.5.5,0,0,1-.5-.2,1.4,1.4,0,0,1-.3-.8,16.8,16.8,0,0,1-.1-1.7v-.3a2.2,2.2,0,0,1-.2.9.6.6,0,0,1-.4.4.5.5,0,0,1-.5-.2,3.6,3.6,0,0,1-.5-1.9,9.3,9.3,0,0,1-.1-2Z" style="fill:#525870"/><path d="M291.9,170.7h0q0,3.1.5,3.6t.3,0a5,5,0,0,0,.1-1.6,4.2,4.2,0,0,1,.2-1.7.7.7,0,0,1,.5-.4.5.5,0,0,1,.5.2,1.9,1.9,0,0,1,.4,1,19,19,0,0,1,.2,2.3,3.4,3.4,0,0,1,.2-1.5l.4-.3h.4a5.5,5.5,0,0,1,.3,2.4v.3h-.1V175a5.6,5.6,0,0,0-.3-2.4q-.1-.1-.2,0a8,8,0,0,0-.2,2.3v2.3l-.3-.4-.3-.3q.3-4.9-.4-5.7t-.4,0a4.3,4.3,0,0,0-.1,1.4q0,1.1,0,1.4a1.6,1.6,0,0,1-.2.6.6.6,0,0,1-.4.4.5.5,0,0,1-.5-.2,3.6,3.6,0,0,1-.5-1.9,10.2,10.2,0,0,1-.1-2Z" style="fill:#525870"/><path d="M289.9,161.9l.4.3-.2,5.5a1.3,1.3,0,0,1,.1-.5q.2-.4.5,0a5.5,5.5,0,0,1,.9,2,3.8,3.8,0,0,1,0,2.9.9.9,0,0,1-.6.5.6.6,0,0,1-.6-.2q-.4-.5-.5-2.9a2.4,2.4,0,0,1-.2.9.7.7,0,0,1-.4.4.5.5,0,0,1-.5-.2q-.5-.5-.5-3.1V167a1.1,1.1,0,0,1,0-.2h.1q0,3.1.5,3.6t.4,0a6.4,6.4,0,0,0,.2-1.8q.1-1.5.2-7.2Zm.1,7.3q0,2.7.4,3.2t.5-.1a5.1,5.1,0,0,0,.2-2.5,4.4,4.4,0,0,0-.6-2.4q-.2-.3-.4.1A4.8,4.8,0,0,0,290,169.2Z" style="fill:#525870"/><path d="M288,162.7a1,1,0,0,1,.2.7,3.4,3.4,0,0,1-.1,1v2.3h.1a1.6,1.6,0,0,1,.3,1,2.2,2.2,0,0,1-.2,1.2.7.7,0,0,1-.6.4.9.9,0,0,1-.7-.4,3.4,3.4,0,0,1-.8-1.5,1.9,1.9,0,0,1,.1-1.4l.5-.5a2.9,2.9,0,0,0,.9-.8l.2-.4a3.9,3.9,0,0,1-.1-1.6Zm-1.1,4.8a2.2,2.2,0,0,0,.5,1.4l.5.2a.4.4,0,0,0,.4-.2,1,1,0,0,0,.1-.6,1.4,1.4,0,0,0-.2-.6q-.4-.7-.2-1h.2v-2.1l-.2.5-.3.5-.2.3A3,3,0,0,0,286.9,167.5Z" style="fill:#525870"/><path d="M711.1,356.3s7-15,6.1-24.6c0,0,1.6,14.2.1,19.1,0,0,3.1-5.5,4.8-6.8,0,0-2.3,5.4-1.4,8.8,0,0,5.6-.5,7-12.5,0,0,.3,11.6,1.2,14.2,0,0,3.8-12.7,5.5-15,0,0-.6,9.3,0,11.6a13.2,13.2,0,0,0,3.5-3.4s-2.7,4.9-.6,7.2a13,13,0,0,0,6.1-8.1s.3,6.3,2,9.5Z" style="fill:#d3de46"/><path d="M158.2,326.7s7-15,6.1-24.6c0,0,1.6,14.2.1,19.1,0,0,3.1-5.5,4.8-6.8,0,0-2.3,5.4-1.4,8.8,0,0,5.6-.5,7-12.5,0,0,.3,11.6,1.2,14.2,0,0,3.8-12.7,5.5-15,0,0-.6,9.3,0,11.6a13.2,13.2,0,0,0,3.5-3.4s-2.7,4.9-.6,7.2a13,13,0,0,0,6.1-8.1s.3,6.3,2,9.5Z" style="fill:#d3de46"/><path d="M735.7,161.7l32.6,18.8a12.5,12.5,0,0,1,6.2,10.8v37.6a12.5,12.5,0,0,1-6.2,10.8l-32.6,18.8a12.5,12.5,0,0,1-12.5,0l-32.6-18.8a12.5,12.5,0,0,1-6.2-10.8V191.3a12.5,12.5,0,0,1,6.2-10.8l32.6-18.8A12.5,12.5,0,0,1,735.7,161.7Z" style="fill:#6e8c3b"/><path d="M733,156.7l32.6,18.8a12.5,12.5,0,0,1,6.2,10.8v37.6a12.5,12.5,0,0,1-6.2,10.8L733,253.5a12.5,12.5,0,0,1-12.5,0L688,234.7a12.5,12.5,0,0,1-6.2-10.8V186.3a12.5,12.5,0,0,1,6.2-10.8l32.6-18.8A12.5,12.5,0,0,1,733,156.7Z" style="fill:#a3c23a"/><polygon points="728.5 196.9 727.9 213.1 710.9 191.9 727.9 214.9 723.8 349 732.6 349 730 239.2 737.7 213.1 729.7 230.7 728.5 196.9" style="fill:#967e2e"/><path d="M697,189.3,722.6,204a9.8,9.8,0,0,1,4.9,8.5V242a9.8,9.8,0,0,1-4.9,8.5L697,265.2a9.8,9.8,0,0,1-9.8,0l-25.5-14.8a9.8,9.8,0,0,1-4.9-8.5V212.5a9.8,9.8,0,0,1,4.9-8.5l25.5-14.8A9.8,9.8,0,0,1,697,189.3Z" style="fill:#bbbe3a"/><path d="M694.1,185.8l25.5,14.8a9.8,9.8,0,0,1,4.9,8.5v29.5a9.8,9.8,0,0,1-4.9,8.5l-25.5,14.8a9.8,9.8,0,0,1-9.8,0L658.8,247a9.8,9.8,0,0,1-4.9-8.5V209.1a9.8,9.8,0,0,1,4.9-8.5l25.5-14.8A9.8,9.8,0,0,1,694.1,185.8Z" style="fill:#d3de46"/><polygon points="687.7 224.5 687.3 237 674.1 220.7 687.3 238.5 684.1 331.3 690.9 331.3 688.9 257.2 694.9 237 688.7 250.6 687.7 224.5" style="fill:#967e2e"/><path d="M670.2,338.3s7-15,6.1-24.6c0,0,1.6,14.2.1,19.1,0,0,3.1-5.5,4.8-6.8,0,0-2.3,5.4-1.4,8.8,0,0,5.6-.5,7-12.5,0,0,.3,11.6,1.2,14.2,0,0,3.8-12.7,5.5-15,0,0-.6,9.3,0,11.6a13.2,13.2,0,0,0,3.5-3.4s-2.7,4.9-.6,7.2a13,13,0,0,0,6.1-8.1s.3,6.3,2,9.5Z" style="fill:#d3de46"/><path d="M590.3,381.4l6.3,3.6a2.4,2.4,0,0,1,1.2,2.1v7.3a2.4,2.4,0,0,1-1.2,2.1l-6.3,3.6a2.4,2.4,0,0,1-2.4,0l-6.3-3.6a2.4,2.4,0,0,1-1.2-2.1v-7.3a2.4,2.4,0,0,1,1.2-2.1l6.3-3.6A2.4,2.4,0,0,1,590.3,381.4Z" style="fill:#bbbe3a"/><path d="M590.3,377.7l7.1,4.1a2.7,2.7,0,0,1,1.4,2.4v8.2a2.7,2.7,0,0,1-1.4,2.4l-7.1,4.1a2.7,2.7,0,0,1-2.7,0l-7.1-4.1a2.7,2.7,0,0,1-1.4-2.4v-8.2a2.7,2.7,0,0,1,1.4-2.4l7.1-4.1A2.7,2.7,0,0,1,590.3,377.7Z" style="fill:#d3de46"/><path d="M576.8,388.2l6.3,3.6a2.4,2.4,0,0,1,1.2,2.1v7.3a2.4,2.4,0,0,1-1.2,2.1l-6.3,3.6a2.4,2.4,0,0,1-2.4,0l-6.3-3.6a2.4,2.4,0,0,1-1.2-2.1v-7.3a2.4,2.4,0,0,1,1.2-2.1l6.3-3.6A2.4,2.4,0,0,1,576.8,388.2Z" style="fill:#bbbe3a"/><path d="M576.8,384.5l7.1,4.1a2.7,2.7,0,0,1,1.4,2.4v8.2a2.7,2.7,0,0,1-1.4,2.4l-7.1,4.1a2.7,2.7,0,0,1-2.7,0l-7.1-4.1a2.7,2.7,0,0,1-1.4-2.4v-8.2a2.7,2.7,0,0,1,1.4-2.4l7.1-4.1A2.7,2.7,0,0,1,576.8,384.5Z" style="fill:#d3de46"/><rect x="578.1" y="402" width="10.1" height="6.41" style="fill:#6e8c3b"/><path d="M574.4,383.3l1.5,2.6a1,1,0,0,1,0,1l-1.5,2.6a1,1,0,0,1-.9.5h-3a1,1,0,0,1-.9-.5l-1.5-2.6a1,1,0,0,1,0-1l1.5-2.6a1,1,0,0,1,.9-.5h3A1,1,0,0,1,574.4,383.3Z" style="fill:#6e8c3b"/><path d="M574.4,382.9l1.5,2.6a1,1,0,0,1,0,1l-1.5,2.6a1,1,0,0,1-.9.5h-3a1,1,0,0,1-.9-.5l-1.5-2.6a1,1,0,0,1,0-1l1.5-2.6a1,1,0,0,1,.9-.5h3A1,1,0,0,1,574.4,382.9Z" style="fill:#8ea43b"/><path d="M585.6,380.3l9.2,5.3a3.5,3.5,0,0,1,1.8,3.1v10.7a3.5,3.5,0,0,1-1.8,3.1l-9.2,5.3a3.5,3.5,0,0,1-3.5,0l-9.2-5.3a3.5,3.5,0,0,1-1.8-3.1V388.7a3.5,3.5,0,0,1,1.8-3.1l9.2-5.3A3.5,3.5,0,0,1,585.6,380.3Z" style="fill:#6e8c3b"/><path d="M584.9,378.9l9.2,5.3a3.5,3.5,0,0,1,1.8,3.1V398a3.5,3.5,0,0,1-1.8,3.1l-9.2,5.3a3.5,3.5,0,0,1-3.5,0l-9.2-5.3a3.5,3.5,0,0,1-1.8-3.1V387.3a3.5,3.5,0,0,1,1.8-3.1l9.2-5.3A3.5,3.5,0,0,1,584.9,378.9Z" style="fill:#a3c23a"/><path d="M597.8,390.3l3.7,6.6a2.5,2.5,0,0,1,0,2.5l-3.8,6.5a2.5,2.5,0,0,1-2.2,1.2h-7.5a2.5,2.5,0,0,1-2.2-1.3l-3.7-6.6a2.5,2.5,0,0,1,0-2.5l3.8-6.5a2.5,2.5,0,0,1,2.2-1.2h7.5A2.5,2.5,0,0,1,597.8,390.3Z" style="fill:#6e8c3b"/><path d="M597.8,389.2l3.7,6.6a2.5,2.5,0,0,1,0,2.5l-3.8,6.5a2.5,2.5,0,0,1-2.2,1.2H588a2.5,2.5,0,0,1-2.2-1.3l-3.7-6.6a2.5,2.5,0,0,1,0-2.5l3.8-6.5a2.5,2.5,0,0,1,2.2-1.2h7.5A2.5,2.5,0,0,1,597.8,389.2Z" style="fill:#8ea43b"/><path d="M328.9-53.4s-2.4,22.1,21.3,37.3S381.7,4.3,466.9,17.3l-15.4,89.3S331.6,76.3,314.6,63.8s-21.7-26.9-23.5-38.6Z" style="fill:#f3f5f2"/><path d="M349.6-11.4s-7.3,13.8-3.3,20.2-3.9,9.9-3.9,9.9,2.8,7.3.3,13a16.1,16.1,0,0,1-8.2,7.9s1.2,5.5-.1,8-3.3.5-7,4.7a43.8,43.8,0,0,0-5.3,7.1s14.1,11.6,59.5,21.9,64.8,17.1,64.8,17.1l16.5-78S373.9,8.4,349.6-11.4Z" style="fill:url(#linear-gradient-16)"/><polygon points="407.8 6.7 400.1 8.9 449.9 19 454.3 15.5 407.8 6.7" style="fill:url(#linear-gradient-17)"/><polygon points="430.4 93.7 432.5 100.6 386 87.2 392.9 83 430.4 93.7" style="fill:url(#linear-gradient-18)"/><path d="M431,68.3s-1.4,0-1.2.8-.5,8.8,1.7,11c0,0,1.2,4-2.8,5.4s-19.7-1.5-24.8-4.9c0,0-.3-8.2-.6-8.4a6.1,6.1,0,0,1-4.1-3.9c-1.2-3.3-4.8-8.6-2.8-20.1l.4-1.8" style="fill:#a6c0ce"/><polyline points="396.9 46.5 401 32.4 410.9 26.9 430.3 36.6 438.4 56 435.4 66.2 431 68.3" style="fill:#a6c0ce"/><path d="M431,68.3c6.4,2.7,7.3-2.4,7.3-2.4,2.3,1.2,1.4-.5,2.2-1.6s1.8.2,1.8.2-.5-1.5-.5-1.5l1.9-.4c2.7-.6,1.1-6.2,1.1-6.2,1.8-1,2.2-3.1,2.1-5.7s-1.9-1.4-1.9-1.4a4.9,4.9,0,0,0,0-3.5s2.7-1.4,1.6-2.1.8-1.7,1.6-2.7-.6-1.6-.3-2.6-1-3-1.6-4.4,1.8-1.8.6-2.4-.9.9-2.4.7.1-.7-.6-2.4-1-.1-1.8-1.1-1.8-1.5-2.4-2.4.2-1.7-.8-2.8-1-.3-1.7.6-1-.2-1.5-.6-2.7-1-1.7-1.4a2,2,0,0,0,1.2-.9c-.5-2.5-1.7-1.9-3.2-2s-.2,2.4-1.3,1.4-2.1.3-3.1.5-2.5.5-1.2-.6-.6-1.7-.9-2.2a7.9,7.9,0,0,1-.4-2.3s-1.6-.8-1.6-.3-.5.7-1.6,1-.2,1.8-1,1.7-2.3.6-2.9,1-.9-.8-1.5-1.1-1.4,1-2.1,1.7a1.3,1.3,0,0,1-2.3-.6c-.3-1.3-.9-.8-2.3-1.2s-1.4,1.2-1.4,1.2a4.1,4.1,0,0,1-1.9,3.4c-2.1-.5-4,2.1-4,2.1-2.7-.3-2.4,3.1-2.4,3.1s-2.4,3.1-2.2,3.5.2,1.4-1.3,1.2-.9,3.3-2.4,3.8-2.1,2.8-1.2,5.7,4.2,4,4.2,4,3.8-1,2-5.2a2.5,2.5,0,0,1,1.2-2.3c1.3-.6,2.5-6.1,4-6.1s5.3-3.1,9.3.7c0,0,11.1,1,12,2.5s3.5,6.9,4.4,7.9,2.1,3.9,1.8,5.3-2.7,6.9-.4,8.9c0,0,.1-3.5,1.5-1.6s1.2,4.1,2.7,5-2.3,1.6-2.1,2.6.7,1.7-1,2.3A1.7,1.7,0,0,0,431,68.3Z" style="fill:#2d495f"/><path d="M334-32.9,298.6,46.5s8.1,15.8,17.7,17.7l31.9-81.6S337-25.5,334-32.9Z" style="fill:#e0e6e4"/><ellipse cx="313" cy="2.3" rx="16.7" ry="5.7" transform="translate(234.1 305.2) rotate(-75.8)" style="fill:#dde2de"/><path d="M305.9,36.6,303,43.8a2.6,2.6,0,0,0,.5,3.3c1.6,1.8,10.7,11.4,11.8,11.6s1.3-.2,2-2l2.5-5.7s.8-1.1-2.2-3.4a77.8,77.8,0,0,1-10.3-10.5C306.8,36.2,306.2,36.3,305.9,36.6Z" style="fill:#bdbdbd"/><ellipse cx="299.9" cy="20" rx="9.4" ry="3.5" transform="translate(230.5 312.4) rotate(-80.5)" style="fill:#304850"/><path d="M321.5-1.2a12.2,12.2,0,0,0,3.3.8c2.9.5,3.9.7,5.1,2.1s2.2,6.7,3.5,8.7,1.2,4.3,3.6,5.5c0,0-.8,3.3.7,5s1.5,6.1.3,8.6-3.5,4.7-6,4.5a2.1,2.1,0,0,0-2.6,2s-5.1-2.1-7.8-1.3-7.1-.8-8-7a84,84,0,0,0-1.6-8.9" style="fill:none;stroke:#b8bad3;stroke-miterlimit:10;stroke-width:2.525703550898647px"/><path d="M311.6,34.4l8.7-20.4s-.4-.7.3-2.1.6-1.7,1.5-2,1.6-2.3,1.9-2.4a3.1,3.1,0,0,0,1.6-1.1A41,41,0,0,1,328,2.1a10.7,10.7,0,0,0,2.5-2c.3-.6.7-1.3.6-1.5s-.4-1.5.2-1.4.6-.9.9-.8.6.4.3,1.1.3.9,0,1.2A5.7,5.7,0,0,0,331.2,0c-.3.7.1,3.3.2,3.8a12.1,12.1,0,0,1-.7,3.2l-1.1,2.1a4.2,4.2,0,0,0-.6,1.7c.1.5-.5,1.1-.5,1.5s.5,1.6.4,2.2-.9,2.4-.6,2.7-1,3.1-1,3.2l-.7.6c-.1.1-8.2,20-8.2,20S313.9,42,311.6,34.4Z" style="fill:#ebd329"/><path d="M447.9,33.5l1.9-1.3a8.4,8.4,0,0,0,3,1.3,4.1,4.1,0,0,0,3-.5,3.2,3.2,0,0,0,1.5-2.3,3.5,3.5,0,0,0-1-3.2,6.7,6.7,0,0,0-3.8-1.8h-1.1l1.9-5.6,2.1-1.6,6.9,1.2-1.8,1.2-5.6-1L453.5,24q6,1.5,5.2,5.6a5.6,5.6,0,0,1-2.8,3.9,7.1,7.1,0,0,1-5.1.9A9.5,9.5,0,0,1,447.9,33.5Z" style="fill:none;stroke:#525870;stroke-miterlimit:10;stroke-width:0.9945603564461962px"/><path d="M344.7,40.4a.3.3,0,0,0,0-.5l-.8-.5h-.1v-.2l.2-.2,1.1.4,1,.4,3.4,1.2,1.3.4.9.2q.2.1.1.3l-.3.6-.4.7a1.8,1.8,0,0,0-.2.7h-.4q-.2-.1-.2-.2a4.8,4.8,0,0,0,.1-.8,1.3,1.3,0,0,0-.1-.6l-.4-.4-.8-.4-2.6-.9-2.7,3.7,2.6.9a.8.8,0,0,0,.7-.1l.7-.6h.7l-.6.7-.5.7-.4.6-.5.8h-.5s0-.1,0-.2a2.3,2.3,0,0,0,.2-.7.4.4,0,0,0-.3-.5l-2.6-.9L341.1,48q-.2.3.2.5l1,.5q.2.1,0,.3l-.2.2-.8-.3-.8-.3-1-.3-1.1-.3-1.1-.3v-.2l.3-.2h1.1a.7.7,0,0,0,.6-.3Z" style="fill:#525870"/><path d="M348.9,51.9l-.6-.2-.6-.2h.5a.6.6,0,0,0,.5-.2l2.8-3.8a.9.9,0,0,0,.3-.7q0-.2-.6-.5t-.1-.3l.2-.2.6.2.7.2h1.3q.2.1.1.3l-.4.4-.6.7-2.8,3.8a.3.3,0,0,0,0,.4l.6.4q.1.1,0,.2h-.4l-.4-.2-.6-.2Zm5.1-8.7a1.3,1.3,0,0,1,.7-.5h.9a.7.7,0,0,1,.4,1.2,1.3,1.3,0,0,1-.7.5h-.9a.8.8,0,0,1-.6-.5A.7.7,0,0,1,354,43.3Z" style="fill:#525870"/><path d="M356.2,52.6l3.1-2.1,1.2-1a.3.3,0,0,0,.1-.3l-.4-.3q-.2-.1-.1-.3h.2l1.4.5.7.2.6.2v.2h-1.2l-.7.3-6.2,4.1h-.3c-.1,0-.2-.1-.2-.2v-.5l.9-5.2v-.6l-.2-.2-.4-.2q-.2-.1-.1-.3l.2-.2.8.3.9.3,1,.3.9.3v.2h-1.2v.4l-.2.8Z" style="fill:#525870"/><path d="M366,56.3h.3q.2.1.2.3l-.9.3-1,.2h-1.1l-1.3-.3-1.2-.6a2.2,2.2,0,0,1-.7-.9,2.2,2.2,0,0,1-.1-1.2,3.5,3.5,0,0,1,.7-1.4,4.5,4.5,0,0,1,1.3-1.2l1.6-.7,1.7-.2,1.4.2q1.6.6,1.8,1.6a2.9,2.9,0,0,1-.7,2.2h-.2l-5.1-1.6a3.3,3.3,0,0,0-.5,1.1,2,2,0,0,0,0,1,1.6,1.6,0,0,0,.5.8l1,.6,1.2.2Zm.3-5.2a2.4,2.4,0,0,0-1.7.1,3.7,3.7,0,0,0-1.5,1.2l3.3,1h.4l.3-.6a1.5,1.5,0,0,0,.1-.6,1.1,1.1,0,0,0-.2-.6Z" style="fill:#525870"/><path d="M365.8,60.3l-1,1.1q-.6.5-.8.5t-.1-.1h.1a5.9,5.9,0,0,0,1.4-1.4A2.5,2.5,0,0,0,366,58a2.8,2.8,0,0,0-1.9-1.6,11.5,11.5,0,0,0-5-.4,2.9,2.9,0,0,1-.1,3.3,4.9,4.9,0,0,1-2.9,1.8,6.3,6.3,0,0,1-3.7-.1l-1.3-.7q-.6-.5-.5-.7h.3a2.8,2.8,0,0,0,1.3.9,4.6,4.6,0,0,0,3.1-.1,5.6,5.6,0,0,0,2.7-2,2.6,2.6,0,0,0,.5-2.4,28.5,28.5,0,0,0-9.2,3.8,28.3,28.3,0,0,1-5.2,2.6,17.8,17.8,0,0,1-4.8.8,15.1,15.1,0,0,1-5.3-.6,4.3,4.3,0,0,1-2.3-1.6,1.5,1.5,0,0,1,0-1.9,2.1,2.1,0,0,1,1-.7,1.7,1.7,0,0,1,1.2-.1q.8.3.3.9a1.4,1.4,0,0,1-.7.5h-.8q-.6-.2-.2-.7t.1-.2-.6.5a1.4,1.4,0,0,0,0,1.7,4.1,4.1,0,0,0,2.1,1.4,10.5,10.5,0,0,0,6.1.1l2.7-.9,6-2.7a51.2,51.2,0,0,1,5.1-2,27.9,27.9,0,0,1,4.5-1.2q-1-2-4.7-3.3a18.6,18.6,0,0,0-11.3-.1q-5,1.4-6.6,3.5a2,2,0,0,0-.4,2.1,3,3,0,0,0,1.9,1.5,11.8,11.8,0,0,0,6.5-.1q4-1,5.4-2.8t-.8-2.1a9,9,0,0,0-5.1.3q-3.3.9-4.4,2.3a.8.8,0,0,0-.2.7.7.7,0,0,0,.5.5q.2.1.1.2h-.3a.9.9,0,0,1-.7-.8,1.6,1.6,0,0,1,.4-1.2q1.1-1.5,4.3-2.3a9.8,9.8,0,0,1,5.4,0q2.1.7,1,2.3t-5.5,2.9a12.1,12.1,0,0,1-6.8.1,3.2,3.2,0,0,1-2.1-1.8,2.7,2.7,0,0,1,.6-2.6q2-2.8,7.7-3.7a20.9,20.9,0,0,1,10.4.7,10.1,10.1,0,0,1,5.1,3.4,11.9,11.9,0,0,1,5.2.4,3.1,3.1,0,0,1,2.1,1.7A2.5,2.5,0,0,1,365.8,60.3Z" style="fill:#525870"/><path d="M358.8,66.9l-1.3.5a4.6,4.6,0,0,1-2.6.2l-.6-.4q-3,1.3-4.4.8a1.3,1.3,0,0,1-.9-.9,1.6,1.6,0,0,1,.3-1.3q1.1-1.5,4.6-2.1a8.2,8.2,0,0,1,3.6,0q1.1.4.4,1.3a8.2,8.2,0,0,1-3.5,2.2l.5.3a3.5,3.5,0,0,0,1.6,0,7,7,0,0,0,1.9-.6h.3Zm-1-2q.6-.8-.3-1.1t-4,.8a8.8,8.8,0,0,0-3.7,2.3q-.5.7.3,1t4.2-.7a.8.8,0,0,1,.1-.8,2.7,2.7,0,0,1,1.2-.8,2,2,0,0,1,1.3-.2q.2.1.1.3Z" style="fill:#525870"/><path d="M366.8,69.6a16.4,16.4,0,0,1-3.2,1.3q-2.5.9-3.4.6a.9.9,0,0,1-.7-.7,1.1,1.1,0,0,1,.2-1,4,4,0,0,1,1.3-.9l-.4.2-2.8,1a2.5,2.5,0,0,1-1.4.1.9.9,0,0,1-.7-.7,1.1,1.1,0,0,1,.2-1,4.2,4.2,0,0,1,1.5-1.1l4.5-2.2.6.3.9.2-5.8,2.8a3.3,3.3,0,0,0-1.2.9q-.3.4.1.6t6.7-2.3l2.4-1.2.6.3.9.2-3.9,1.9a11.8,11.8,0,0,0-3.1,1.9q-.3.4.2.6t5-1.4l.7-.3h.6S366.8,69.6,366.8,69.6Z" style="fill:#525870"/><path d="M376.6,73l-3.2,1.3q-2.5.9-3.3.6a1,1,0,0,1-.7-.7,1.1,1.1,0,0,1,.2-1,2.8,2.8,0,0,1,.8-.7l2.3-1.1a7.6,7.6,0,0,0,2.1-1.2q.3-.4-.2-.6t-9.5,3.4l-.7-.3-.8-.2,3.7-1.8a14.1,14.1,0,0,0,3.6-2q.2-.3-.1-.4t-4,1.3h-.2l.4-.2q3.4-1.4,4-1.1a.7.7,0,0,1,.5.6,1.1,1.1,0,0,1-.2.8,6,6,0,0,1-2.2,1.4l3.9-1.4a3.4,3.4,0,0,1,1.9-.1.9.9,0,0,1,.7.7,1.2,1.2,0,0,1-.3,1,7.4,7.4,0,0,1-2.6,1.6,8.9,8.9,0,0,0-2.5,1.4q-.3.4.2.6t6.1-1.8h.2S376.7,73,376.6,73Z" style="fill:#525870"/><path d="M392.9,70l-11.3,5.5a11.2,11.2,0,0,0-2.8,1.7q-.3.4.2.6T385,76h.2s.1,0,0,.1H385l-1,.4q-4.2,1.8-5.3,1.4a.9.9,0,0,1-.7-.7,1.2,1.2,0,0,1,.3-1,4.3,4.3,0,0,1,1.3-1.1q-4,1.7-5,1.3a1.1,1.1,0,0,1-.8-.8,1.6,1.6,0,0,1,.4-1.3q1.2-1.6,4.7-2.1a9.7,9.7,0,0,1,3.9,0q.8.3.3.9l-.7.5,8.7-4.4.7.4ZM383,73.3q.4-.5-.2-.7t-4.2.8q-3.1,1.1-3.9,2.2t.2.9,5.4-1.6A8.5,8.5,0,0,0,383,73.3Z" style="fill:#525870"/><path d="M392.3,73.7a6.9,6.9,0,0,1-2.7,1l-.5.5a5.2,5.2,0,0,0-.7,2,2.7,2.7,0,0,1-.4,1.2,3.3,3.3,0,0,1-2.2,1.2,6,6,0,0,1-3-.2,1.6,1.6,0,0,1-1.1-.8,1.2,1.2,0,0,1,.3-1.2,3.8,3.8,0,0,1,1.7-1.2,2.8,2.8,0,0,1,1.9-.2h.2l1.7-.6,2-.8a5.9,5.9,0,0,1,1.5-1,1.8,1.8,0,0,1,1.2-.2Q392.4,73.5,392.3,73.7Zm-4.6,3.3.4-.6.6-.8.6-.7-3.4,1.3a.4.4,0,0,1,0,.5q-.4.6-1.8.4h-1.1a1.7,1.7,0,0,0-.9.6.8.8,0,0,0-.1.8,1.1,1.1,0,0,0,.7.6,3.9,3.9,0,0,0,2.7-.3A5.3,5.3,0,0,0,387.7,76.9Z" style="fill:#525870"/><path d="M603.3-6.3s-10,5.8-22.2-2.2S564.8-19,540.6-56.6l-39,26.2s39.7,50.3,49.2,55.7,17.3,4.6,23.3,2.9Z" style="fill:#f3f5f2"/><path d="M579-7.2s-5,6.4-8.9,5.9-3.9,3.9-3.9,3.9-4,.2-6.2,2.6a8.3,8.3,0,0,0-2,5.5s-2.9.6-3.8,1.8.5,1.7-.8,4.3a22.7,22.7,0,0,1-2.3,4s-8.5-4.2-23-23.5-21.8-27-21.8-27l33.5-24.3S564.5-14.5,579-7.2Z" style="fill:url(#linear-gradient-19)"/><path d="M592.5-4.3,562.4,29.2s-9.2-.5-12.1-4.6L582.1-7.8S588.3-4.2,592.5-4.3Z" style="fill:#e0e6e4"/><ellipse cx="580.3" cy="13" rx="8.6" ry="3" transform="translate(116.8 362.4) rotate(-38.3)" style="fill:#dde2de"/><path d="M589.3-4.9l-.9.8s1.4.5.6,1.4-3.3,4.3-4,4.7S577.1.1,576.5-.2s-.2-.7.4-1.2L580-4.6s1.9-1.4,3.7-.7l.9-1.2A11.2,11.2,0,0,0,589.3-4.9Z" style="fill:#c7c7c5"/><path d="M565.5,23.7l-2.7,2.9a1.3,1.3,0,0,1-1.7.5c-1.2-.4-7.7-2.7-8-3.1s-.2-.7.5-1.4l2.2-2.4s.4-.6,2,.3a40.4,40.4,0,0,0,7.1,2.6C565.5,23.1,565.6,23.5,565.5,23.7Z" style="fill:#bdbdbd"/><ellipse cx="574.7" cy="23" rx="4.9" ry="1.8" transform="translate(83.6 322.3) rotate(-33.7)" style="fill:#304850"/><path d="M580.1,8.3a6.3,6.3,0,0,1-1.1-1.4c-.9-1.3-1.1-1.7-2.1-2s-3.6.4-4.9.2-2.3.3-3.4-.6-1.4,1.1-2.5.7-3.2.6-4.1,1.7-1.5,2.6-.8,3.8a1.1,1.1,0,0,1-.4,1.6s2.1,2,2.3,3.4,1.9,3.2,5,2.3a43.6,43.6,0,0,1,4.6-1.1" style="fill:none;stroke:#b8bad3;stroke-miterlimit:10;stroke-width:1.309680989691051px"/><path d="M565.3,20.5l7.8-8.4s.4.1.9-.6.6-.7.6-1.1.8-1.2.7-1.4a1.6,1.6,0,0,1,.2-1,21.2,21.2,0,0,0,1.6-2.1,5.6,5.6,0,0,1,.4-1.6c.2-.3.5-.6.6-.6s.8-.1.6-.4.3-.5.2-.6-.3-.2-.6.1-.5.1-.6.3a2.9,2.9,0,0,1-.4.9,6.4,6.4,0,0,1-1.8.7,6.3,6.3,0,0,0-1.4,1l-.8,1s-.4.6-.7.6-.4.5-.6.6-.9.1-1.1.3-.9.9-1.2.8-1.2,1.1-1.3,1.2a2.1,2.1,0,0,0-.1.5l-7.7,8.1S561.3,21,565.3,20.5Z" style="fill:#ebd329"/><path d="M587.8,4.8a2.9,2.9,0,0,1-2.2-1.3,1.5,1.5,0,0,1,.4-1.9Q587.6,0,591.3.6l1.2-1.8-3.3-.6-.3-.8,4.1.8.3,1-1.6,2.4-.6-.2a7.1,7.1,0,0,0-2.8,0,3.7,3.7,0,0,0-2,1q-.6.6-.3,1.1a1.8,1.8,0,0,0,1.3.7h2.1l.3.8Z" style="fill:#525870"/><path d="M553.3,10.1a.4.4,0,0,0,0,.3l.3.5a.2.2,0,0,1,0,.2h-.1l-.4-.5-.4-.4-.4-.4-.3-.3-.3-.3h.2l.5.3h.3l1-1.8-1-1h-.3l-.3.3h-.3l.3-.4.2-.3.2-.4.2-.4h.1a.2.2,0,0,1,.1.2v.5a.4.4,0,0,0,.1.3l1,1L555,5.3l-1-1-.3-.3h-.6l-.4.2h-.2l.3-.2.3-.3.2-.3h.2l.3.4.5.5,1.3,1.4.4.4.4.4h-.2l-.4-.3h-.2Z" style="fill:#525870"/><path d="M549,6.3l-.2-.2-.2-.2h.1l.3.2h.2l1.2-2.1.2-.4V3h.2l.2.2.2.4.2.3.2.3h-.2l-.4-.2-.3.3-1.2,2.1a.3.3,0,0,0,0,.3l.2.4a.1.1,0,0,1,0,.2h-.2l-.2-.2-.2-.2-.2-.2Zm3-3.8-.3-.2a.7.7,0,0,1-.2-.4.7.7,0,0,1,.1-.4l.3-.2h.3a.7.7,0,0,1,.2.4.7.7,0,0,1-.1.4Z" style="fill:#525870"/><path d="M548.7,2.3,549,2h.1a.2.2,0,0,0,0-.1l-.2-.3a.2.2,0,0,1,0-.2h.1l.3.4.4.4.3.3.3.3h-.8l-2.3,1.5-.2.2h-.2l.6-3.8a.7.7,0,0,0,0-.4V-.3h.1l.2.3.3.3.6.6h-.5a3.9,3.9,0,0,0-.2.8l-.3,1.9Z" style="fill:#525870"/><path d="M543.6,0l.3.5.5.3h.5l.5-.2.4-.5-1.8-2.1a.1.1,0,0,1,0-.1,1.5,1.5,0,0,1,.9-.8q.5-.1,1.1.5l.4.6a3.4,3.4,0,0,1,.2.8,3.3,3.3,0,0,1,0,.9,2.4,2.4,0,0,1-.3.9l-.5.6-.6.2h-.6l-.6-.4-.4-.5-.3-.5V-.3a4,4,0,0,1,0-.5h.2v.2A2.3,2.3,0,0,0,543.6,0Zm1.9-2.1h-.3l-.3.2-.2.3a.2.2,0,0,0,0,.2L545.9,0a1.9,1.9,0,0,0,.3-1,1.2,1.2,0,0,0-.3-.8Z" style="fill:#525870"/><path d="M542.7-.4a1.6,1.6,0,0,1,1.2.6,6.2,6.2,0,0,1,1.3,2.4,5.2,5.2,0,0,1,2.7,1.7,10.8,10.8,0,0,1,2.5,4.8q.8,2.9-.1,4.4a1.4,1.4,0,0,1-1.1.8,1.6,1.6,0,0,1-1.3-.6,6.3,6.3,0,0,1-1.4-3.2,4.9,4.9,0,0,1,.2-3.2q.5-.9,1.3,0a5.1,5.1,0,0,1,1.2,2.5,3.7,3.7,0,0,1-.2,2.5.8.8,0,0,1-.5.4.5.5,0,0,1-.5-.2h.4l.3-.2a4.1,4.1,0,0,0,.2-2.6,4.7,4.7,0,0,0-1-2.5q-.7-.7-1.1.1a4.8,4.8,0,0,0-.2,3.1,6.1,6.1,0,0,0,1.3,3.1,1.5,1.5,0,0,0,1.1.6,1,1,0,0,0,.9-.6,6.2,6.2,0,0,0,.3-3.9,9.7,9.7,0,0,0-2.4-5.3,4,4,0,0,0-2.5-1.5,14.5,14.5,0,0,1,.4,2.4,26.5,26.5,0,0,1,.2,2.9q0,2.7,0,3.4A10.3,10.3,0,0,0,546,13a5.5,5.5,0,0,0,1.3,2.8,2.1,2.1,0,0,0,1.1.7.7.7,0,0,0,.8-.4q.2-.3.1-.4h-.1q-.2.3-.4.1a.6.6,0,0,1-.2-.4.7.7,0,0,1,.1-.4q.2-.4.5-.1a.9.9,0,0,1,.2.6,1.1,1.1,0,0,1-.1.6.8.8,0,0,1-.9.4,2.3,2.3,0,0,1-1.2-.8,7.8,7.8,0,0,1-1.4-2.4,9.2,9.2,0,0,1-.7-2.4,14.7,14.7,0,0,1,.1-3,14.8,14.8,0,0,0-.1-5.2,1.4,1.4,0,0,0-1,.7,2.9,2.9,0,0,0-.4,1.7,2.4,2.4,0,0,0,.6,1.5l.7.4h-.3l-.6-.5a3.2,3.2,0,0,1-.8-1.7,2.6,2.6,0,0,1,.2-1.7,1.5,1.5,0,0,1,1.5-.8A6,6,0,0,0,543.9.3a1.4,1.4,0,0,0-1.2-.6,1.3,1.3,0,0,0-1,.7,3.1,3.1,0,0,0-.3,1h-.1s0-.2.1-.5l.3-.7A1.3,1.3,0,0,1,542.7-.4Z" style="fill:#525870"/><path d="M540,5v.2a3.6,3.6,0,0,0,.1,1,1.8,1.8,0,0,0,.4.7l.2.2a4.3,4.3,0,0,1,.3-2.1q.3-.5.7-.1a4.2,4.2,0,0,1,.8,1.7,3.6,3.6,0,0,1,0,2.6.8.8,0,0,1-.6.4.7.7,0,0,1-.6-.2,3.5,3.5,0,0,1-.6-2.3l-.3-.2a2.4,2.4,0,0,1-.5-1.3,2,2,0,0,1,0-.7Zm1,.6h.2a1,1,0,0,1,.2.7,1.4,1.4,0,0,1-.1.7l-.3.2a3.4,3.4,0,0,0,.5,2.1q.3.3.5-.1a4.6,4.6,0,0,0,.3-2.3,3.5,3.5,0,0,0-.5-2.1q-.3-.4-.6.1A1.4,1.4,0,0,0,541,5.6Z" style="fill:#525870"/><path d="M537.1,1.9h0v.6a5.4,5.4,0,0,0,.4,2.7q.2.2.3,0a6.1,6.1,0,0,0,.2-1.9V1.1l.3.4.3.2V3.1q-.1,3.2.3,3.7t.3-.1a1.7,1.7,0,0,0,.2-.8V2.6l.3.4.3.2V5.8a2.2,2.2,0,0,1-.2,1,.6.6,0,0,1-.4.3l-.5-.2a1.3,1.3,0,0,1-.3-.7,15.3,15.3,0,0,1-.1-1.5V4.4a2.1,2.1,0,0,1-.2.8.6.6,0,0,1-.4.3l-.5-.2a3.3,3.3,0,0,1-.4-1.7,8.5,8.5,0,0,1-.1-1.8Z" style="fill:#525870"/><path d="M533.4-2.1h0q0,2.8.4,3.3t.3,0a4.6,4.6,0,0,0,.1-1.5,3.8,3.8,0,0,1,.2-1.6.6.6,0,0,1,.4-.3l.5.2a1.8,1.8,0,0,1,.4.9,17.3,17.3,0,0,1,.1,2.1A3.1,3.1,0,0,1,536-.3l.3-.3h.4a5,5,0,0,1,.3,2.1v.2H537a5.1,5.1,0,0,0-.3-2.2h-.2a7.3,7.3,0,0,0-.2,2.1V4l-.3-.3-.3-.3q.3-4.5-.4-5.2t-.3,0a3.9,3.9,0,0,0-.1,1.2q0,1,0,1.3a1.4,1.4,0,0,1-.2.6.6.6,0,0,1-.4.3l-.5-.2a3.2,3.2,0,0,1-.4-1.7,9.3,9.3,0,0,1-.1-1.8Z" style="fill:#525870"/><path d="M4.3,60.3s9.6-12.7.6-30.7S-7,5.5-54.7-33.7L-12.5-83S50.2-20.5,56-6.6s3.5,24.5.3,32.4Z" style="fill:#f3f5f2"/><path d="M7,26.8s9.5-5.8,9.5-11.2,6-4.7,6-4.7,1-5.5,4.6-8.1A11.5,11.5,0,0,1,35,.9s1.3-3.8,3-4.9,2.2.9,6-.3a31.3,31.3,0,0,0,5.9-2.5S45.5-19.1,21.4-42-12.2-76.2-12.2-76.2l-38.7,42S-.7,5.7,7,26.8Z" style="fill:url(#linear-gradient-20)"/><path d="M8.7,45.8,59.5,9.9s.8-12.7-4.4-17.4L5.6,31S9.5,40.1,8.7,45.8Z" style="fill:#e0e6e4"/><ellipse cx="34.5" cy="31.8" rx="11.9" ry="4.1" transform="translate(-12.4 33.7) rotate(-45)" style="fill:#dde2de"/><path d="M8.5,41.3l1.2-1.1s.5,2,1.9,1,6.4-3.8,7.1-4.8-1.4-11-1.7-12-.9-.4-1.7.3l-4.9,3.9s-2.3,2.4-1.5,5L7,34.7A15.4,15.4,0,0,1,8.5,41.3Z" style="fill:#c7c7c5"/><path d="M51.4,13.3,55.8,10a1.8,1.8,0,0,0,.9-2.2c-.3-1.7-2.4-11-3-11.5s-.9-.4-2,.5L48.1-.6s-.9.4.1,2.9a55.7,55.7,0,0,1,2.5,10.2C50.7,13.3,51.1,13.4,51.4,13.3Z" style="fill:#bdbdbd"/><ellipse cx="49" cy="25.8" rx="6.7" ry="2.5" transform="translate(-2.3 46.5) rotate(-49.7)" style="fill:#304850"/><path d="M28,30.9a8.8,8.8,0,0,0-1.7-1.7c-1.6-1.4-2.2-1.8-2.4-3.1s1.1-4.9,1.1-6.6.8-3.1-.2-4.7c0,0,1.7-1.7,1.4-3.3s1.3-4.3,3-5.4,3.9-1.6,5.4-.5a1.5,1.5,0,0,0,2.3-.3S39.1,8.4,41.1,9s4.1,3.1,2.3,7.3a60.1,60.1,0,0,0-2.3,6.1" style="fill:none;stroke:#b8bad3;stroke-miterlimit:10;stroke-width:1.8073752799251137px"/><path d="M47.1,12.6,34.3,21.9s0,.6-1,1.2-1,.8-1.6.7-1.8.8-2,.8a2.2,2.2,0,0,0-1.4.1,29.3,29.3,0,0,1-3.1,1.8,7.7,7.7,0,0,0-2.3.3c-.4.3-.9.5-.9.7s-.3,1-.7.8-.7.3-.8.1-.2-.4.2-.8.2-.6.4-.7a4.1,4.1,0,0,0,1.3-.5,8.8,8.8,0,0,0,1.3-2.4,8.7,8.7,0,0,1,1.6-1.7l1.4-.9s.8-.5,1-.9.7-.5.9-.8.3-1.2.6-1.5,1.4-1.1,1.3-1.5,1.7-1.5,1.8-1.6H33L45.4,6S48.5,7,47.1,12.6Z" style="fill:#ebd329"/><path d="M13.3,53.5l-.3-.2h0v-.3h0q-.3-.3-1,.2h-.1v1h-.2v-.8a.7.7,0,0,1-.9,0,1.6,1.6,0,0,1-.3-1.2,3.2,3.2,0,0,1,.1-.6l.3.3a3.6,3.6,0,0,0-.1.7q0,.5.2.5l.6-.2h.2V51.3H12v1h0l.6-.2.4.3H13V51.3q0-1-.3-1.2h.4a1.3,1.3,0,0,1,.3,1v1.3Q13.4,52.7,13.3,53.5Z" style="fill:#525870"/><path d="M22,43.5l-1.1-.6a11.8,11.8,0,0,0,.2-2.9,2.4,2.4,0,0,0-.8-1.9q-.6-.5-1.6.2A5,5,0,0,0,17.2,41a9.8,9.8,0,0,0-.4,3.8q0,.4.1.9l-3.5,1.9-1.3-.6-.4-5.7,1,.5.4,4.6L15.6,45q-.1-5.2,2.3-7.1a2.1,2.1,0,0,1,2.7-.3A4,4,0,0,1,22,40.8,12.2,12.2,0,0,1,22,43.5Z" style="fill:#525870"/><path d="M759.1,17.2s13.7,8,30.6-3S812.2-.4,845.6-52.3l53.8,36.2s-54.8,69.5-68,76.9-23.9,6.3-32.1,4Z" style="fill:#f3f5f2"/><path d="M792.6,16s6.9,8.8,12.2,8.1,5.4,5.4,5.4,5.4,5.6.3,8.6,3.6a11.5,11.5,0,0,1,2.8,7.7s3.9.9,5.2,2.4-.6,2.3,1,5.9a31.3,31.3,0,0,0,3.1,5.5s11.7-5.8,31.7-32.4S892.7-15,892.7-15L846.6-48.6S812.7,5.8,792.6,16Z" style="fill:url(#linear-gradient-21)"/><path d="M774,19.9l41.5,46.3s12.7-.7,16.8-6.4L788.3,15S779.7,20,774,19.9Z" style="fill:#e0e6e4"/><ellipse cx="790.9" cy="43.8" rx="4.1" ry="11.9" transform="translate(266.3 637.3) rotate(-51.7)" style="fill:#dde2de"/><path d="M778.4,19.1l1.2,1.1s-1.9.7-.8,2,4.5,5.9,5.6,6.5,10.8-2.6,11.7-3.1.3-.9-.5-1.6l-4.4-4.4s-2.6-2-5.1-.9l-1.2-1.7A15.4,15.4,0,0,1,778.4,19.1Z" style="fill:#c7c7c5"/><ellipse cx="798.6" cy="57.6" rx="2.5" ry="6.7" transform="translate(308.1 690.4) rotate(-56.3)" style="fill:#304850"/><path d="M791,37.3a8.8,8.8,0,0,0,1.5-1.9c1.2-1.8,1.6-2.4,2.8-2.7s5,.5,6.7.3,3.2.4,4.6-.8,1.9,1.5,3.5,1,4.5.8,5.7,2.3,2,3.6,1.1,5.3a1.5,1.5,0,0,0,.6,2.3s-2.8,2.7-3.2,4.7-2.6,4.4-6.9,3.2a60.1,60.1,0,0,0-6.3-1.6" style="fill:none;stroke:#b8bad3;stroke-miterlimit:10;stroke-width:1.8073752799251137px"/><path d="M811.4,54.2,800.7,42.5s-.6.1-1.3-.8-.9-.9-.9-1.5-1-1.7-1-1.9a2.2,2.2,0,0,0-.3-1.4,29.3,29.3,0,0,1-2.2-2.9,7.7,7.7,0,0,0-.6-2.2c-.3-.4-.6-.8-.8-.8s-1.1-.2-.9-.6-.4-.7-.2-.8.4-.3.8.1.7.1.8.4a4.1,4.1,0,0,0,.6,1.2,8.8,8.8,0,0,0,2.5,1,8.7,8.7,0,0,1,1.9,1.4l1,1.3s.6.8,1,.9.6.7.8.8,1.2.1,1.5.4,1.3,1.3,1.6,1.2,1.7,1.5,1.8,1.6a2.9,2.9,0,0,1,.2.6l10.6,11.2S817.1,54.9,811.4,54.2Z" style="fill:#ebd329"/><path d="M766.9,25.3l.2-.3h.5q.3-.3-.3-1h-1.1v-.2h.8a.7.7,0,0,1-.1-.9,1.6,1.6,0,0,1,1.1-.5h.6l-.3.4h-.7q-.5,0-.5.2t.3.6h1.3v.2h-.9a1.1,1.1,0,0,1,.3.5.6.6,0,0,1-.2.5H769q1-.1,1.1-.5h.1q.1.1-.1.3a1.3,1.3,0,0,1-.9.4h-2.3Z" style="fill:#525870"/><path d="M777.8,32.8l.4-1.1a11.8,11.8,0,0,0,2.9-.1,2.4,2.4,0,0,0,1.8-1q.4-.7-.4-1.5a5,5,0,0,0-2.7-1.3,9.8,9.8,0,0,0-3.8,0l-.9.2-2.3-3.3.5-1.3,5.6-1.1-.4,1.1-4.5.9,1.6,2.4q5.2-.7,7.3,1.5a2.1,2.1,0,0,1,.6,2.7,4,4,0,0,1-3,1.8Z" style="fill:#525870"/><path d="M251.5,26.2s-3.8,2.2-8.4-.8-6.2-4-15.3-18.2l-14.7,9.9s15,19,18.6,21a10.9,10.9,0,0,0,8.8,1.1Z" style="fill:#f3f5f2"/><path d="M242.3,25.9s-1.9,2.4-3.3,2.2-1.5,1.5-1.5,1.5a3.9,3.9,0,0,0-2.3,1,3.1,3.1,0,0,0-.8,2.1,3.2,3.2,0,0,0-1.4.7c-.3.4.2.6-.3,1.6a8.6,8.6,0,0,1-.9,1.5s-3.2-1.6-8.7-8.9S215,17.4,215,17.4l12.6-9.2S236.9,23.1,242.3,25.9Z" style="fill:url(#linear-gradient-22)"/><polygon points="234.5 16.9 234.7 18.5 228.9 10.4 229.2 9.3 234.5 16.9" style="fill:url(#linear-gradient-23)"/><polygon points="217.1 19.8 215.7 20 221.8 27.2 222 25.7 217.1 19.8" style="fill:url(#linear-gradient-24)"/><path d="M221.6,17.7s.1.3,0,.3-1.5.8-2.1.6a.9.9,0,0,0-.7.9,9.5,9.5,0,0,0,2.8,4l1.6-.6a1.2,1.2,0,0,0,1,.4,6,6,0,0,0,3.8-1.1l.3-.2" style="fill:#a6c0ce"/><polyline points="228.2 22.1 230.4 20.2 230.6 18 227.3 15.3 223.2 15.4 221.6 16.7 221.6 17.7" style="fill:#a6c0ce"/><path d="M221.6,17.7c-1-.9-.2-1.5-.2-1.5s0-.3.1-.5-.2-.3-.2-.3.3,0,.3,0V15c-.1-.5,1-.7,1-.7s.4-.6.9-.8.4.2.4.2a.9.9,0,0,1,.6-.3s0-.6.3-.4.2-.3.4-.5.3,0,.5-.1.6-.1.9-.1.2-.5.4-.3-.1.2.1.5.1-.1.5-.1.1.2.3.2l.6.2c.2,0,.3-.2.6-.1s.1.2,0,.3.1.2.2.2.4.4.4.2a.4.4,0,0,1,.1-.3c.5-.1.5.2.6.4s-.4.2-.2.3.1.4.2.6.1.5.2.2.3,0,.5,0h.4s.3.2.2.3-.1.1-.1.4-.3.2-.2.3a1,1,0,0,1,.1.6c0,.1.2.1.3.2s-.1.3-.1.5,0,.4.3.4.2.1.4.3-.1.3-.1.3a.8.8,0,0,0-.5.6c.3.3-.1.9-.1.9s-.4.7-.4.7-.4.7-.5.7-.3.1-.1.3-.5.4-.5.7-.3.6-.9.7a1.4,1.4,0,0,1-1.1-.4s-.1-.8.8-.8.3-.1.3-.4.9-.9.8-1.2.1-1.2-.9-1.6-1.1-1.9-1.4-1.9h-1.8a1.6,1.6,0,0,0-1.1.1c-.2.2-1,1-1.6.8s.6-.3.2-.4-.8.1-1.1-.1-.1.5-.3.6-.4,0-.3.4A.3.3,0,0,1,221.6,17.7Z" style="fill:#2d495f"/><path d="M247.4,26.9,236.1,39.6s-3.5-.2-4.6-1.8l12-12.2A9.9,9.9,0,0,0,247.4,26.9Z" style="fill:#e0e6e4"/><ellipse cx="242.8" cy="33.5" rx="3.3" ry="1.1" transform="translate(31.5 157.7) rotate(-38.3)" style="fill:#dde2de"/><path d="M246.2,26.7l-.3.3s.5.2.2.5a14.4,14.4,0,0,1-1.5,1.8,12.7,12.7,0,0,1-3.2-.9c-.2-.1-.1-.2.1-.4l1.2-1.2a1.6,1.6,0,0,1,1.4-.3l.3-.5A4.2,4.2,0,0,0,246.2,26.7Z" style="fill:#c7c7c5"/><path d="M237.3,37.5l-1,1.1a.5.5,0,0,1-.6.2,24.4,24.4,0,0,1-3-1.2c-.1-.2-.1-.2.2-.5l.8-.9s.1-.2.8.1a15.2,15.2,0,0,0,2.7,1C237.3,37.3,237.3,37.4,237.3,37.5Z" style="fill:#bdbdbd"/><ellipse cx="240.7" cy="37.2" rx="1.8" ry="0.7" transform="translate(19.7 139.6) rotate(-33.7)" style="fill:#304850"/><path d="M242.8,31.7l-.4-.5c-.3-.5-.4-.6-.8-.7s-1.4.1-1.8.1-.9.1-1.3-.2-.5.4-.9.3a1.8,1.8,0,0,0-1.6.6,1.4,1.4,0,0,0-.3,1.4.4.4,0,0,1-.2.6,3.3,3.3,0,0,1,.9,1.3c.1.6.7,1.2,1.9.9L240,35" style="fill:none;stroke:#b8bad3;stroke-miterlimit:10;stroke-width:0.4938941602452563px"/><path d="M237.2,36.3l2.9-3.2s.2,0,.4-.2.2-.2.2-.4.3-.5.3-.5a.6.6,0,0,1,.1-.4l.6-.8a2.1,2.1,0,0,1,.2-.6l.2-.2c.1,0,.3-.1.2-.2s.1-.2.1-.2h-.4l-.2.3-.7.3-.5.4-.3.4-.3.2-.2.2h-.4l-.4.3c-.1,0-.5.4-.5.4v.2l-2.9,3.1S235.7,36.5,237.2,36.3Z" style="fill:#ebd329"/><path d="M226.1,11.4a1.4,1.4,0,0,1-.2-1,1.1,1.1,0,0,1,.5-.8q.7-.5,1.4.5l.6-.6-.6-.9V8.2l.8,1.1v.5l-.8.8v-.2a1.3,1.3,0,0,0-.6-.5.7.7,0,0,0-.6.1.6.6,0,0,0-.3.5.8.8,0,0,0,.2.6l.5.4v.4Z" style="fill:none;stroke:#525870;stroke-miterlimit:10;stroke-width:0.1944834546736274px"/><path d="M249.1,28.4h.1v-.2h.1a.2.2,0,0,1,0,.2h-.1q-.2.2-.1.3h-.1Z" style="fill:#525870"/><path d="M245.7,30.4a1.1,1.1,0,0,1-.8-.5.6.6,0,0,1,.2-.7,2.2,2.2,0,0,1,2-.4l.4-.7-1.2-.2v-.3l1.5.3v.4l-.6.9h-1.3l-.7.4q-.2.2-.1.4l.5.3h.8v.3Z" style="fill:#525870"/><path d="M232.7,32.4a.1.1,0,0,0,0,.1v.2a.1.1,0,0,1,0,.1h0v-.3h0l.4-.7-.4-.4h-.3v-.2h.1v-.2h.1v.2h0l.4.4.4-.8-.4-.4h-.1l.2.2.5.5h.1l.2.2h-.3Z" style="fill:#525870"/><path d="M231,31h.1l.5-.8v-.2h.1l-.4.8a.1.1,0,0,0,0,.1h.1a.1.1,0,0,1,0,.1H231Zm1.1-1.4H232v-.2a.3.3,0,0,1,0-.2h.2v.2a.3.3,0,0,1,0,.2Z" style="fill:#525870"/><path d="M230.9,29.4h.2a.1.1,0,0,0,0-.1H231a.1.1,0,0,1,0-.1h.2l-.9.6h-.2l.2-1.4a.3.3,0,0,0,0-.1h.1l.2.2h-.2v1Z" style="fill:#525870"/><path d="M229,28.6v.2h.5v-.2l-.7-.8h0l.3-.3.4.2v.6a1.2,1.2,0,0,1,0,.3v.3l-.2.2h-.4l-.2-.2-.2-.2v-.6h.1Zm.7-.8h-.3l.4.5a.7.7,0,0,0,.1-.4.5.5,0,0,0-.1-.3Z" style="fill:#525870"/><path d="M228.7,28.4l.5.2a2.3,2.3,0,0,1,.5.9,2,2,0,0,1,1,.6,4.1,4.1,0,0,1,1,1.8,2.2,2.2,0,0,1,0,1.7.5.5,0,0,1-.4.3l-.5-.2a2.4,2.4,0,0,1-.5-1.2,1.9,1.9,0,0,1,.1-1.2q.2-.3.5,0a1.9,1.9,0,0,1,.4,1,1.4,1.4,0,0,1-.1.9l-.2.2h.1a1.6,1.6,0,0,0,.1-1,1.8,1.8,0,0,0-.4-.9q-.3-.3-.4,0a1.8,1.8,0,0,0-.1,1.2,2.3,2.3,0,0,0,.5,1.2l.4.2.3-.2a2.3,2.3,0,0,0,.1-1.5,3.6,3.6,0,0,0-.9-2,1.5,1.5,0,0,0-1-.6,5.5,5.5,0,0,1,.1.9,10,10,0,0,1,.1,1.1q0,1,0,1.3a3.9,3.9,0,0,0,.1.5,2.1,2.1,0,0,0,.5,1.1l.4.3h.1v-.2h.2v.2a.4.4,0,0,1-.1.2l-.3.2-.5-.3a3,3,0,0,1-.5-.9,3.5,3.5,0,0,1-.2-.9,5.5,5.5,0,0,1,0-1.1,5.6,5.6,0,0,0,0-1.9l-.4.3a1.1,1.1,0,0,0-.1.6.9.9,0,0,0,.2.6l.3.2h-.1l-.2-.2a1.2,1.2,0,0,1-.3-.6,1,1,0,0,1,.1-.7.6.6,0,0,1,.6-.3,2.3,2.3,0,0,0-.5-.9l-.4-.2-.4.3v.4h0s0-.1,0-.2v-.3A.5.5,0,0,1,228.7,28.4Z" style="fill:#525870"/><path d="M227.7,30.5h0a1.4,1.4,0,0,0,.1.4v.3h.1a1.6,1.6,0,0,1,.1-.8q.1-.2.3,0a1.6,1.6,0,0,1,.3.6,1.4,1.4,0,0,1,0,1l-.2.2h-.2a1.3,1.3,0,0,1-.2-.8h-.1a.9.9,0,0,1-.2-.5.7.7,0,0,1,0-.3Zm.4.2h.1a.4.4,0,0,1,.1.2.5.5,0,0,1-.1.3H228a1.3,1.3,0,0,0,.2.8h.2a1.7,1.7,0,0,0,.1-.9,1.3,1.3,0,0,0-.2-.8q-.1-.1-.2,0Z" style="fill:#525870"/><path d="M226.5,29.3h0a2,2,0,0,0,.2,1h.1a2.3,2.3,0,0,0,.1-.7V29h.2v.5a2.7,2.7,0,0,0,.1,1.4h.1a.7.7,0,0,0,.1-.3V29.6h.2v1a.8.8,0,0,1-.1.4h-.3v-.3a5.8,5.8,0,0,1,0-.6h0v.3h-.3a1.2,1.2,0,0,1-.2-.6,3.2,3.2,0,0,1,0-.7Z" style="fill:#525870"/><path d="M225.1,27.8h0a2.6,2.6,0,0,0,.2,1.2h.1a1.7,1.7,0,0,0,0-.5,1.4,1.4,0,0,1,.1-.6h.3v.3a6.5,6.5,0,0,1,.1.8,1.2,1.2,0,0,1,.1-.5h.3a1.9,1.9,0,0,1,.1.8h0a1.9,1.9,0,0,0-.1-.8h-.1a2.8,2.8,0,0,0-.1.8v.8H226q.1-1.7-.1-2h-.1a1.5,1.5,0,0,0,0,.5q0,.4,0,.5V29h-.3a1.2,1.2,0,0,1-.2-.6,3.5,3.5,0,0,1,0-.7Z" style="fill:#525870"/><path d="M224.5,24.8h.1v1.7h.2a1.9,1.9,0,0,1,.3.7,1.3,1.3,0,0,1,0,1l-.2.2h-.2a1.9,1.9,0,0,1-.2-1v.3h-.3a2.1,2.1,0,0,1-.2-1.1v-.2h0a2.6,2.6,0,0,0,.2,1.2h.1a2.2,2.2,0,0,0,.1-.6q0-.5.1-2.5Zm0,2.5a2.3,2.3,0,0,0,.2,1.1h.2a1.7,1.7,0,0,0,.1-.9,1.5,1.5,0,0,0-.2-.8h-.1A1.7,1.7,0,0,0,224.5,27.3Z" style="fill:#525870"/><path d="M223.8,25a.3.3,0,0,1,.1.2,1.2,1.2,0,0,1-.1.3v.8h0a.5.5,0,0,1,.1.4.7.7,0,0,1-.1.4h-.4a1.2,1.2,0,0,1-.3-.5.7.7,0,0,1,0-.5l.2-.2.3-.3h.1a1.4,1.4,0,0,1,0-.6Zm-.4,1.7a.8.8,0,0,0,.2.5h.3a.3.3,0,0,0,0-.2v-.2q-.1-.2-.1-.3h.1V26h-.1A1,1,0,0,0,223.4,26.7Z" style="fill:#525870"/><path d="M541.6,76.1s3.8,2.2,8.4-.8,6.2-4,15.3-18.2L579.9,67s-15,19-18.6,21a10.9,10.9,0,0,1-8.8,1.1Z" style="fill:#f3f5f2"/><path d="M550.7,75.8s1.9,2.4,3.3,2.2,1.5,1.5,1.5,1.5a3.9,3.9,0,0,1,2.3,1,3.1,3.1,0,0,1,.8,2.1,3.2,3.2,0,0,1,1.4.7c.3.4-.2.6.3,1.6a8.6,8.6,0,0,0,.9,1.5s3.2-1.6,8.7-8.9,8.2-10.2,8.2-10.2l-12.6-9.2S556.2,73,550.7,75.8Z" style="fill:url(#linear-gradient-25)"/><polygon points="558.6 66.9 558.4 68.4 564.2 60.3 563.9 59.3 558.6 66.9" style="fill:url(#linear-gradient-26)"/><polygon points="575.9 69.8 577.4 69.9 571.2 77.2 571 75.6 575.9 69.8" style="fill:url(#linear-gradient-27)"/><path d="M571.5,67.6s-.1.3,0,.3,1.5.8,2.1.6a.9.9,0,0,1,.7.9,9.5,9.5,0,0,1-2.8,4l-1.6-.6a1.2,1.2,0,0,1-1,.4,6,6,0,0,1-3.8-1.1l-.3-.2" style="fill:#a6c0ce"/><polyline points="564.8 72 562.7 70.1 562.5 67.9 565.7 65.2 569.9 65.3 571.4 66.7 571.5 67.6" style="fill:#a6c0ce"/><path d="M571.5,67.6c1-.9.2-1.5.2-1.5s0-.3-.1-.5.2-.3.2-.3-.3,0-.3,0v-.4c.1-.5-1-.7-1-.7s-.4-.6-.9-.8-.4.2-.4.2a.9.9,0,0,0-.6-.3s0-.6-.3-.4-.2-.3-.4-.5-.3,0-.5-.1-.6-.1-.9-.1-.2-.5-.4-.3.1.2-.1.5-.1-.1-.5-.1-.1.2-.3.2l-.6.2c-.2,0-.3-.2-.6-.1s-.1.2,0,.3-.1.2-.2.2-.4.4-.4.2a.4.4,0,0,0-.1-.3c-.5-.1-.5.2-.6.4s.4.2.2.3-.1.4-.2.6-.1.5-.2.2-.3,0-.5,0h-.4s-.3.2-.2.3.1.1.1.4.3.2.2.3a1,1,0,0,0-.1.6c0,.1-.2.1-.3.2s.1.3.1.5,0,.4-.3.4-.2.1-.4.3.1.3.1.3a.8.8,0,0,1,.5.6c-.3.3.1.9.1.9s.4.7.4.7.4.7.5.7.3.1.1.3.5.4.5.7.3.6.9.7a1.4,1.4,0,0,0,1.1-.4s.1-.8-.8-.8-.3-.1-.3-.4-.9-.9-.8-1.2-.1-1.2.9-1.6,1.1-1.9,1.4-1.9H567a1.6,1.6,0,0,1,1.1.1c.2.2,1,1,1.6.8s-.6-.3-.2-.4.8.1,1.1-.1.1.5.3.6.4,0,.3.4A.3.3,0,0,0,571.5,67.6Z" style="fill:#2d495f"/><path d="M545.6,76.9,557,89.5s3.5-.2,4.6-1.8l-12-12.2A9.9,9.9,0,0,1,545.6,76.9Z" style="fill:#e0e6e4"/><ellipse cx="550.3" cy="83.4" rx="1.1" ry="3.3" transform="translate(143.8 463.5) rotate(-51.7)" style="fill:#dde2de"/><path d="M546.9,76.7l.3.3s-.5.2-.2.5a14.4,14.4,0,0,0,1.5,1.8,12.7,12.7,0,0,0,3.2-.9c.2-.1.1-.2-.1-.4l-1.2-1.2a1.6,1.6,0,0,0-1.4-.3l-.3-.5A4.2,4.2,0,0,1,546.9,76.7Z" style="fill:#c7c7c5"/><path d="M555.8,87.4l1,1.1a.5.5,0,0,0,.6.2,24.4,24.4,0,0,0,3-1.2c.1-.2.1-.2-.2-.5l-.8-.9s-.1-.2-.8.1a15.2,15.2,0,0,1-2.7,1C555.8,87.2,555.8,87.3,555.8,87.4Z" style="fill:#bdbdbd"/><ellipse cx="552.4" cy="87.2" rx="0.7" ry="1.8" transform="translate(173.7 498.6) rotate(-56.3)" style="fill:#304850"/><path d="M550.3,81.6l.4-.5c.3-.5.4-.6.8-.7s1.4.1,1.8.1.9.1,1.3-.2.5.4.9.3a1.8,1.8,0,0,1,1.6.6,1.4,1.4,0,0,1,.3,1.4.4.4,0,0,0,.2.6,3.3,3.3,0,0,0-.9,1.3c-.1.6-.7,1.2-1.9.9l-1.7-.4" style="fill:none;stroke:#b8bad3;stroke-miterlimit:10;stroke-width:0.4938941602452563px"/><path d="M555.9,86.2l-2.9-3.2s-.2,0-.4-.2-.2-.2-.2-.4-.3-.5-.3-.5a.6.6,0,0,0-.1-.4l-.6-.8a2.1,2.1,0,0,0-.2-.6l-.2-.2c-.1,0-.3-.1-.2-.2s-.1-.2-.1-.2h.4l.2.3.7.3.5.4.3.4.3.2.2.2h.4l.4.3c.1,0,.5.4.5.4v.2l2.9,3.1S557.4,86.4,555.9,86.2Z" style="fill:#ebd329"/><path d="M566.6,61.8v-.4l.5-.4a.8.8,0,0,0,.2-.6.6.6,0,0,0-.3-.5.7.7,0,0,0-.6-.1,1.3,1.3,0,0,0-.6.5v.2l-.8-.8v-.5l.8-1.1v.4l-.6.9.6.6q.7-.9,1.4-.5a1.1,1.1,0,0,1,.5.8,1.4,1.4,0,0,1-.2,1Z" style="fill:none;stroke:#525870;stroke-miterlimit:10;stroke-width:0.1944834546736274px"/><path d="M543.7,78.4h.2q.1-.1-.1-.3h-.1a.2.2,0,0,1,0-.2h.1v.2h-.2Z" style="fill:#525870"/><path d="M546.7,80.4v-.3h.8l.5-.3q.1-.2-.1-.4l-.7-.4h-1.3l-.6-.9v-.4l1.5-.3v.3l-1.2.2.4.7a2.2,2.2,0,0,1,2,.4.6.6,0,0,1,.2.7,1.1,1.1,0,0,1-.8.5Z" style="fill:#525870"/><path d="M559.6,80.8h-.3l.2-.2h.1l.5-.5.2-.2h-.1l-.4.4.4.8.4-.4h0v-.2h.1v.2h.1V81h-.3l-.4.4.4.7h0v.3h0a.1.1,0,0,1,0-.1v-.2a.1.1,0,0,0,0-.1Z" style="fill:#525870"/><path d="M562,81h-.3a.1.1,0,0,1,0-.1h.1a.1.1,0,0,0,0-.1l-.4-.8h.1v.2l.5.8h0Zm-1.1-1.6a.3.3,0,0,1,0-.2v-.2h.2a.3.3,0,0,1,0,.2v.2h-.2Z" style="fill:#525870"/><path d="M562.7,79.7v-1h-.2l.2-.2h.1a.3.3,0,0,0,0,.1l.2,1.4h-.2l-.9-.6h.2a.1.1,0,0,1,0,.1H562a.1.1,0,0,0,0,.1h.2Z" style="fill:#525870"/><path d="M564.1,78.3h.1v.6l-.2.2-.2.2h-.4l-.2-.2v-.3a1.2,1.2,0,0,1,0-.3v-.6l.4-.2.3.3h0l-.7.8v.2h.5v-.4Zm-.9-.5a.5.5,0,0,0-.1.3.7.7,0,0,0,.1.4l.4-.5h-.4Z" style="fill:#525870"/><path d="M564.8,78.6v.3q0,.2,0,.2h0v-.4l-.4-.3-.4.2a2.3,2.3,0,0,0-.5.9.6.6,0,0,1,.6.3,1,1,0,0,1,.1.7,1.2,1.2,0,0,1-.3.6l-.2.2h-.1l.3-.2a.9.9,0,0,0,.2-.6,1.1,1.1,0,0,0-.1-.6l-.4-.3a5.6,5.6,0,0,0,0,1.9,5.5,5.5,0,0,1,0,1.1,3.5,3.5,0,0,1-.2.9,3,3,0,0,1-.5.9l-.5.3-.3-.2a.4.4,0,0,1-.1-.2v-.2h.2v.2h.1l.4-.3a2.1,2.1,0,0,0,.5-1.1,3.9,3.9,0,0,0,.1-.5q0-.3,0-1.3a10,10,0,0,1,.1-1.1,5.5,5.5,0,0,1,.1-.9,1.5,1.5,0,0,0-1,.6,3.6,3.6,0,0,0-.9,2,2.3,2.3,0,0,0,.1,1.5l.3.2.4-.2a2.3,2.3,0,0,0,.5-1.2,1.8,1.8,0,0,0-.1-1.2q-.2-.3-.4,0a1.8,1.8,0,0,0-.4.9,1.6,1.6,0,0,0,.1,1h.1l-.2-.2a1.4,1.4,0,0,1-.1-.9,1.9,1.9,0,0,1,.4-1q.3-.3.5,0a1.9,1.9,0,0,1,.1,1.2,2.4,2.4,0,0,1-.5,1.2l-.5.2a.5.5,0,0,1-.4-.3,2.2,2.2,0,0,1,0-1.7,4.1,4.1,0,0,1,1-1.8,2,2,0,0,1,1-.6,2.3,2.3,0,0,1,.5-.9l.5-.2A.5.5,0,0,1,564.8,78.6Z" style="fill:#525870"/><path d="M565.4,80.4a.7.7,0,0,1,0,.3.9.9,0,0,1-.2.5h-.1a1.3,1.3,0,0,1-.2.8h-.2l-.2-.2a1.4,1.4,0,0,1,0-1,1.6,1.6,0,0,1,.3-.6q.2-.2.3,0a1.6,1.6,0,0,1,.1.8h.1v-.3a1.4,1.4,0,0,0,.1-.4h0Zm-.4,0q-.1-.2-.2,0a1.3,1.3,0,0,0-.2.8,1.7,1.7,0,0,0,.1.9h.2a1.3,1.3,0,0,0,.2-.8H565a.5.5,0,0,1-.1-.3.4.4,0,0,1,.1-.2h.1Z" style="fill:#525870"/><path d="M566.6,79.2a3.2,3.2,0,0,1,0,.7,1.2,1.2,0,0,1-.2.6H566v-.3h0a5.8,5.8,0,0,1,0,.6v.3h-.3a.8.8,0,0,1-.1-.4v-1h.2v1.3a.7.7,0,0,0,.1.3h.1a2.7,2.7,0,0,0,.1-1.4v-.5h.2v.8a2.3,2.3,0,0,0,.1.7h.1a2,2,0,0,0,.2-1h0Z" style="fill:#525870"/><path d="M568,77.7a3.5,3.5,0,0,1,0,.7,1.2,1.2,0,0,1-.2.6h-.3v-.2q0-.1,0-.5a1.5,1.5,0,0,0,0-.5h-.1q-.3.3-.1,2h-.2v-.8a2.8,2.8,0,0,0-.1-.8h-.1a1.9,1.9,0,0,0-.1.8h0a1.9,1.9,0,0,1,.1-.8h.3a1.2,1.2,0,0,1,.1.5,6.5,6.5,0,0,1,.1-.8v-.3h.3a1.4,1.4,0,0,1,.1.6,1.7,1.7,0,0,0,0,.5h.1a2.6,2.6,0,0,0,.2-1.2h0Z" style="fill:#525870"/><path d="M568.7,74.6q0,1.9.1,2.5a2.2,2.2,0,0,0,.1.6h.1a2.6,2.6,0,0,0,.2-1.2h0v.2a2.1,2.1,0,0,1-.2,1.1h-.3v-.3a1.9,1.9,0,0,1-.2,1h-.2l-.2-.2a1.3,1.3,0,0,1,0-1,1.9,1.9,0,0,1,.3-.7h.2V74.8h.2Zm-.2,2h-.1a1.5,1.5,0,0,0-.2.8,1.7,1.7,0,0,0,.1.9h.2a2.3,2.3,0,0,0,.2-1.1A1.7,1.7,0,0,0,568.5,76.6Z" style="fill:#525870"/><path d="M569.3,75a1.4,1.4,0,0,1,0,.6h.1l.3.3.2.2a.7.7,0,0,1,0,.5,1.2,1.2,0,0,1-.3.5h-.4a.7.7,0,0,1-.1-.4.5.5,0,0,1,.1-.4h0v-.8a1.2,1.2,0,0,1-.1-.3.3.3,0,0,1,.1-.2Zm.2,1.1h-.1v.4h.1q.1.1-.1.3v.2a.3.3,0,0,0,0,.2h.3a.8.8,0,0,0,.2-.5A1,1,0,0,0,569.5,76Z" style="fill:#525870"/></g></svg>