<svg id="Layer_1" data-name="Layer 1" xmlns="http://www.w3.org/2000/svg" xmlns:xlink="http://www.w3.org/1999/xlink" viewBox="0 0 800 450"><defs><clipPath id="clip-path"><rect x="-862" width="800" height="449.49" style="fill:none"/></clipPath><clipPath id="clip-path-2"><rect width="800" height="450" style="fill:none"/></clipPath><clipPath id="clip-path-4"><rect x="218.2" y="230.4" width="310.9" height="58.13" style="fill:none"/></clipPath></defs><title>organising</title><g style="clip-path:url(#clip-path)"><path d="M-861.3,573H55L37.6,423.7s-309.8-35.4-460.7-35.4-380.3,21.6-461.3,26.6" style="fill:#8ea43b"/></g><g style="clip-path:url(#clip-path-2)"><g style="clip-path:url(#clip-path-2)"><path d="M30.9,186.5l26.3,15.2a10.1,10.1,0,0,1,5,8.7v30.3a10.1,10.1,0,0,1-5,8.7L30.9,264.6a10.1,10.1,0,0,1-10.1,0L-5.4,249.4a10.1,10.1,0,0,1-5-8.7V210.4a10.1,10.1,0,0,1,5-8.7l26.3-15.2A10.1,10.1,0,0,1,30.9,186.5Z" style="fill:#6e8c3b"/><path d="M28.7,182.5,55,197.7a10.1,10.1,0,0,1,5,8.7v30.3a10.1,10.1,0,0,1-5,8.7L28.7,260.6a10.1,10.1,0,0,1-10.1,0L-7.6,245.4a10.1,10.1,0,0,1-5-8.7V206.4a10.1,10.1,0,0,1,5-8.7l26.3-15.2A10.1,10.1,0,0,1,28.7,182.5Z" style="fill:#a3c23a"/><polygon points="25 214.9 24.6 228 10.8 210.9 24.5 229.5 21.2 337.6 28.3 337.6 26.2 249.1 32.5 228 26 242.2 25 214.9" style="fill:#967e2e"/><path d="M236,42.2l36.5,21.1a14,14,0,0,1,7,12.1v42.1a14,14,0,0,1-7,12.1L236,150.7a14,14,0,0,1-14,0l-36.5-21.1a14,14,0,0,1-7-12.1V75.4a14,14,0,0,1,7-12.1l36.5-21.1A14,14,0,0,1,236,42.2Z" style="fill:#6e8c3b"/><path d="M233,36.7l36.5,21.1a14,14,0,0,1,7,12.1V112a14,14,0,0,1-7,12.1L233,145.2a14,14,0,0,1-14,0l-36.5-21.1a14,14,0,0,1-7-12.1V69.8a14,14,0,0,1,7-12.1l36.5-21.1A14,14,0,0,1,233,36.7Z" style="fill:#a3c23a"/><polygon points="228 81.7 227.3 99.9 208.2 76.1 227.3 101.9 222.7 252.2 232.5 252.2 229.6 129.1 238.3 99.9 229.3 119.6 228 81.7" style="fill:#967e2e"/><path d="M192.7,73.2l28.6,16.5a11,11,0,0,1,5.5,9.5v33.1a11,11,0,0,1-5.5,9.5l-28.6,16.5a11,11,0,0,1-11,0l-28.6-16.5a11,11,0,0,1-5.5-9.5V99.2a11,11,0,0,1,5.5-9.5l28.6-16.5A11,11,0,0,1,192.7,73.2Z" style="fill:#bbbe3a"/><path d="M189.4,69.3,218,85.8a11,11,0,0,1,5.5,9.5v33.1a11,11,0,0,1-5.5,9.5l-28.6,16.5a11,11,0,0,1-11,0l-28.6-16.5a11,11,0,0,1-5.5-9.5V95.3a11,11,0,0,1,5.5-9.5l28.6-16.5A11,11,0,0,1,189.4,69.3Z" style="fill:#d3de46"/><polygon points="182.3 112.6 181.8 126.7 167 108.3 181.7 128.3 178.2 232.4 185.8 232.4 183.5 149.3 190.2 126.7 183.3 141.9 182.3 112.6" style="fill:#967e2e"/><path d="M735.7,161.7l32.6,18.8a12.5,12.5,0,0,1,6.2,10.8v37.6a12.5,12.5,0,0,1-6.2,10.8l-32.6,18.8a12.5,12.5,0,0,1-12.5,0l-32.6-18.8a12.5,12.5,0,0,1-6.2-10.8V191.3a12.5,12.5,0,0,1,6.2-10.8l32.6-18.8A12.5,12.5,0,0,1,735.7,161.7Z" style="fill:#6e8c3b"/><path d="M733,156.7l32.6,18.8a12.5,12.5,0,0,1,6.2,10.8v37.6a12.5,12.5,0,0,1-6.2,10.8L733,253.5a12.5,12.5,0,0,1-12.5,0L688,234.7a12.5,12.5,0,0,1-6.2-10.8V186.3a12.5,12.5,0,0,1,6.2-10.8l32.6-18.8A12.5,12.5,0,0,1,733,156.7Z" style="fill:#a3c23a"/><polygon points="728.5 196.9 727.9 213.1 710.9 191.9 727.9 214.9 723.8 349 732.6 349 730 239.2 737.7 213.1 729.7 230.7 728.5 196.9" style="fill:#967e2e"/><path d="M697,189.3,722.6,204a9.8,9.8,0,0,1,4.9,8.5V242a9.8,9.8,0,0,1-4.9,8.5L697,265.2a9.8,9.8,0,0,1-9.8,0l-25.5-14.8a9.8,9.8,0,0,1-4.9-8.5V212.5a9.8,9.8,0,0,1,4.9-8.5l25.5-14.8A9.8,9.8,0,0,1,697,189.3Z" style="fill:#bbbe3a"/><path d="M694.1,185.8l25.5,14.8a9.8,9.8,0,0,1,4.9,8.5v29.5a9.8,9.8,0,0,1-4.9,8.5l-25.5,14.8a9.8,9.8,0,0,1-9.8,0L658.8,247a9.8,9.8,0,0,1-4.9-8.5V209.1a9.8,9.8,0,0,1,4.9-8.5l25.5-14.8A9.8,9.8,0,0,1,694.1,185.8Z" style="fill:#d3de46"/><polygon points="687.7 224.5 687.3 237 674.1 220.7 687.3 238.5 684.1 331.3 690.9 331.3 688.9 257.2 694.9 237 688.7 250.6 687.7 224.5" style="fill:#967e2e"/><path d="M-98.5,520.4H817.9l-9.5-182.9s-317.8-25.8-468.7-25.8S-18,334.9-99,339.9" style="fill:#a3c23b"/><path d="M-19.3,573H897L879.6,423.7s-309.8-35.4-460.7-35.4S38.6,409.9-42.4,414.9" style="fill:#8ea43b"/><path d="M232.4,309.6l4.5,2.6a1.7,1.7,0,0,1,.9,1.5v5.2a1.7,1.7,0,0,1-.9,1.5l-4.5,2.6a1.7,1.7,0,0,1-1.7,0l-4.5-2.6a1.7,1.7,0,0,1-.9-1.5v-5.2a1.7,1.7,0,0,1,.9-1.5l4.5-2.6A1.7,1.7,0,0,1,232.4,309.6Z" style="fill:#bbbe3a"/><path d="M232.4,306.9l5.1,2.9a1.9,1.9,0,0,1,1,1.7v5.9a1.9,1.9,0,0,1-1,1.7l-5.1,2.9a1.9,1.9,0,0,1-1.9,0l-5.1-2.9a1.9,1.9,0,0,1-1-1.7v-5.9a1.9,1.9,0,0,1,1-1.7l5.1-2.9A1.9,1.9,0,0,1,232.4,306.9Z" style="fill:#d3de46"/><path d="M222.8,314.4l4.5,2.6a1.7,1.7,0,0,1,.9,1.5v5.2a1.7,1.7,0,0,1-.9,1.5l-4.5,2.6a1.7,1.7,0,0,1-1.7,0l-4.5-2.6a1.7,1.7,0,0,1-.9-1.5v-5.2a1.7,1.7,0,0,1,.9-1.5l4.5-2.6A1.7,1.7,0,0,1,222.8,314.4Z" style="fill:#bbbe3a"/><path d="M222.8,311.7l5.1,2.9a1.9,1.9,0,0,1,1,1.7v5.9a1.9,1.9,0,0,1-1,1.7l-5.1,2.9a1.9,1.9,0,0,1-1.9,0l-5.1-2.9a1.9,1.9,0,0,1-1-1.7v-5.9a1.9,1.9,0,0,1,1-1.7l5.1-2.9A1.9,1.9,0,0,1,222.8,311.7Z" style="fill:#d3de46"/><rect x="223.7" y="324.2" width="7.2" height="4.56" style="fill:#6e8c3b"/><path d="M221.1,310.9l1.1,1.9a.7.7,0,0,1,0,.7l-1.1,1.9a.7.7,0,0,1-.6.4h-2.2a.7.7,0,0,1-.6-.4l-1.1-1.9a.7.7,0,0,1,0-.7l1.1-1.9a.7.7,0,0,1,.6-.4h2.2A.7.7,0,0,1,221.1,310.9Z" style="fill:#6e8c3b"/><path d="M221.1,310.6l1.1,1.9a.7.7,0,0,1,0,.7l-1.1,1.9a.7.7,0,0,1-.6.4h-2.2a.7.7,0,0,1-.6-.4l-1.1-1.9a.7.7,0,0,1,0-.7l1.1-1.9a.7.7,0,0,1,.6-.4h2.2A.7.7,0,0,1,221.1,310.6Z" style="fill:#8ea43b"/><path d="M229.1,308.8l6.6,3.8a2.5,2.5,0,0,1,1.3,2.2v7.6a2.5,2.5,0,0,1-1.3,2.2l-6.6,3.8a2.5,2.5,0,0,1-2.5,0l-6.6-3.8a2.5,2.5,0,0,1-1.3-2.2v-7.6a2.5,2.5,0,0,1,1.3-2.2l6.6-3.8A2.5,2.5,0,0,1,229.1,308.8Z" style="fill:#6e8c3b"/><path d="M228.6,307.8l6.6,3.8a2.5,2.5,0,0,1,1.3,2.2v7.6a2.5,2.5,0,0,1-1.3,2.2l-6.6,3.8a2.5,2.5,0,0,1-2.5,0l-6.6-3.8a2.5,2.5,0,0,1-1.3-2.2v-7.6a2.5,2.5,0,0,1,1.3-2.2l6.6-3.8A2.5,2.5,0,0,1,228.6,307.8Z" style="fill:#a3c23a"/><path d="M237.7,315.9l2.7,4.7a1.8,1.8,0,0,1,0,1.8l-2.7,4.6a1.8,1.8,0,0,1-1.5.9h-5.4a1.8,1.8,0,0,1-1.5-.9l-2.7-4.7a1.8,1.8,0,0,1,0-1.8l2.7-4.6a1.8,1.8,0,0,1,1.5-.9h5.4A1.8,1.8,0,0,1,237.7,315.9Z" style="fill:#6e8c3b"/><path d="M237.8,315.1l2.7,4.7a1.8,1.8,0,0,1,0,1.8l-2.7,4.6a1.8,1.8,0,0,1-1.5.9h-5.4a1.8,1.8,0,0,1-1.5-.9l-2.7-4.7a1.8,1.8,0,0,1,0-1.8l2.7-4.6a1.8,1.8,0,0,1,1.5-.9h5.4A1.8,1.8,0,0,1,237.8,315.1Z" style="fill:#8ea43b"/><path d="M86.1,348.3l6.3,3.6a2.4,2.4,0,0,1,1.2,2.1v7.3a2.4,2.4,0,0,1-1.2,2.1L86.1,367a2.4,2.4,0,0,1-2.4,0l-6.3-3.6a2.4,2.4,0,0,1-1.2-2.1V354a2.4,2.4,0,0,1,1.2-2.1l6.3-3.6A2.4,2.4,0,0,1,86.1,348.3Z" style="fill:#bbbe3a"/><path d="M86.1,344.5l7.1,4.1a2.7,2.7,0,0,1,1.4,2.4v8.2a2.7,2.7,0,0,1-1.4,2.4l-7.1,4.1a2.7,2.7,0,0,1-2.7,0l-7.1-4.1a2.7,2.7,0,0,1-1.4-2.4V351a2.7,2.7,0,0,1,1.4-2.4l7.1-4.1A2.7,2.7,0,0,1,86.1,344.5Z" style="fill:#d3de46"/><path d="M72.6,355l6.3,3.6a2.4,2.4,0,0,1,1.2,2.1V368a2.4,2.4,0,0,1-1.2,2.1l-6.3,3.6a2.4,2.4,0,0,1-2.4,0l-6.3-3.6a2.4,2.4,0,0,1-1.2-2.1v-7.3a2.4,2.4,0,0,1,1.2-2.1l6.3-3.6A2.4,2.4,0,0,1,72.6,355Z" style="fill:#bbbe3a"/><path d="M72.6,351.3l7.1,4.1a2.7,2.7,0,0,1,1.4,2.4V366a2.7,2.7,0,0,1-1.4,2.4l-7.1,4.1a2.7,2.7,0,0,1-2.7,0l-7.1-4.1a2.7,2.7,0,0,1-1.4-2.4v-8.2a2.7,2.7,0,0,1,1.4-2.4l7.1-4.1A2.7,2.7,0,0,1,72.6,351.3Z" style="fill:#d3de46"/><rect x="73.9" y="368.9" width="10.1" height="6.41" style="fill:#6e8c3b"/><path d="M70.2,350.2l1.5,2.6a1,1,0,0,1,0,1l-1.5,2.6a1,1,0,0,1-.9.5h-3a1,1,0,0,1-.9-.5l-1.5-2.6a1,1,0,0,1,0-1l1.5-2.6a1,1,0,0,1,.9-.5h3A1,1,0,0,1,70.2,350.2Z" style="fill:#6e8c3b"/><path d="M70.3,349.7l1.5,2.6a1,1,0,0,1,0,1l-1.5,2.6a1,1,0,0,1-.9.5h-3a1,1,0,0,1-.9-.5L64,353.3a1,1,0,0,1,0-1l1.5-2.6a1,1,0,0,1,.9-.5h3A1,1,0,0,1,70.3,349.7Z" style="fill:#8ea43b"/><path d="M81.4,347.2l9.2,5.3a3.5,3.5,0,0,1,1.8,3.1v10.7a3.5,3.5,0,0,1-1.8,3.1l-9.2,5.3a3.5,3.5,0,0,1-3.5,0l-9.2-5.3a3.5,3.5,0,0,1-1.8-3.1V355.6a3.5,3.5,0,0,1,1.8-3.1l9.2-5.3A3.5,3.5,0,0,1,81.4,347.2Z" style="fill:#6e8c3b"/><path d="M80.7,345.8l9.2,5.3a3.5,3.5,0,0,1,1.8,3.1v10.7a3.5,3.5,0,0,1-1.8,3.1l-9.2,5.3a3.5,3.5,0,0,1-3.5,0l-9.2-5.3a3.5,3.5,0,0,1-1.8-3.1V354.2a3.5,3.5,0,0,1,1.8-3.1l9.2-5.3A3.5,3.5,0,0,1,80.7,345.8Z" style="fill:#a3c23a"/><path d="M93.6,357.2l3.7,6.6a2.5,2.5,0,0,1,0,2.5l-3.8,6.5a2.5,2.5,0,0,1-2.2,1.2H83.7a2.5,2.5,0,0,1-2.2-1.3l-3.7-6.6a2.5,2.5,0,0,1,0-2.5l3.8-6.5a2.5,2.5,0,0,1,2.2-1.2h7.5A2.5,2.5,0,0,1,93.6,357.2Z" style="fill:#6e8c3b"/><path d="M93.6,356l3.7,6.6a2.5,2.5,0,0,1,0,2.5l-3.8,6.5a2.5,2.5,0,0,1-2.2,1.2H83.8a2.5,2.5,0,0,1-2.2-1.3L77.9,365a2.5,2.5,0,0,1,0-2.5l3.8-6.5a2.5,2.5,0,0,1,2.2-1.2h7.5A2.5,2.5,0,0,1,93.6,356Z" style="fill:#8ea43b"/><rect x="74.6" y="172.6" width="526.8" height="26.79" style="fill:#4d689f"/><rect x="74.6" y="199.4" width="526.8" height="294.17" style="fill:#e8e9eb"/><rect x="169.7" y="180.2" width="164.7" height="11.54" rx="2.7" ry="2.7" style="fill:#fff"/><path d="M144.9,179.1l.3-.6a3.5,3.5,0,0,1,3.3-2.2h12.3a3.4,3.4,0,0,1,3.5,3.3q.1,6.5,0,12.9a3.4,3.4,0,0,1-3.4,3.2h-2.5V188h2.5l.4-2.8h-2.9c0-1-.4-2.2.4-2.8s1.7-.5,2.8-.7,0-1.3,0-2-.3-.4-.5-.4h-2.3a3.3,3.3,0,0,0-3.1,3.2c-.1.9,0,1.7,0,2.7h-2.8v2.8h2.7v7.7H148a3.3,3.3,0,0,1-2.8-2.1l-.4-.7v-.2a2.5,2.5,0,0,0,.2-.6q0-6.1,0-12.2a2.6,2.6,0,0,0-.2-.6Z" style="fill:#fff;fill-rule:evenodd"/><rect x="208.2" y="305.4" width="234.4" height="76.43" style="fill:#fff"/><rect x="208.2" y="391.9" width="234.4" height="117.76" style="fill:#fff"/><rect x="456.3" y="305.4" width="79" height="201.88" style="fill:#fff"/><path d="M465.7,186c0,3.2-3.8,5.8-8.5,5.8H397.8c-4.7,0-8.5-2.6-8.5-5.8s3.8-5.8,8.5-5.8h59.4C461.9,180.2,465.7,182.8,465.7,186Z" style="fill:#405d9c;fill-rule:evenodd"/><path d="M535.3,186c0,3.2-2.9,5.8-6.5,5.8s-6.5-2.6-6.5-5.8,2.9-5.8,6.5-5.8S535.3,182.8,535.3,186Z" style="fill:#405d9c;fill-rule:evenodd"/><path d="M519,186c0,3.2-2.9,5.8-6.5,5.8s-6.5-2.6-6.5-5.8,2.9-5.8,6.5-5.8S519,182.8,519,186Z" style="fill:#405d9c;fill-rule:evenodd"/><path d="M502.7,186c0,3.2-2.9,5.8-6.5,5.8s-6.5-2.6-6.5-5.8,2.9-5.8,6.5-5.8S502.7,182.8,502.7,186Z" style="fill:#405d9c;fill-rule:evenodd"/><path d="M195.9,227.9c0,1.4-3.8,2.5-8.5,2.5H156.9c-4.7,0-8.5-1.1-8.5-2.5s3.8-2.5,8.5-2.5h30.5C192.1,225.4,195.9,226.5,195.9,227.9Z" style="fill:#b3b2b0;fill-rule:evenodd"/><path d="M190.9,236.3c0,1.4-3.8,2.5-8.5,2.5H156.9c-4.7,0-8.5-1.1-8.5-2.5s3.8-2.5,8.5-2.5h25.4C187,233.8,190.9,234.9,190.9,236.3Z" style="fill:#b3b2b0;fill-rule:evenodd"/><path d="M195.9,244.7c0,1.4-3.8,2.5-8.5,2.5H156.9c-4.7,0-8.5-1.1-8.5-2.5s3.8-2.5,8.5-2.5h30.5C192.1,242.1,195.9,243.3,195.9,244.7Z" style="fill:#b3b2b0;fill-rule:evenodd"/><path d="M195.9,253.9c0,1.4-3.8,2.5-8.5,2.5H156.9c-4.7,0-8.5-1.1-8.5-2.5s3.8-2.5,8.5-2.5h30.5C192.1,251.4,195.9,252.5,195.9,253.9Z" style="fill:#b3b2b0;fill-rule:evenodd"/><path d="M190.9,262.3c0,1.4-3.8,2.5-8.5,2.5H156.9c-4.7,0-8.5-1.1-8.5-2.5s3.8-2.5,8.5-2.5h25.4C187,259.8,190.9,260.9,190.9,262.3Z" style="fill:#b3b2b0;fill-rule:evenodd"/><rect x="216.8" y="398.7" width="73.9" height="69.58" style="fill:#4d689f"/><path d="M427.5,446.7c0,1.6-3.8,2.9-8.5,2.9H307.2c-4.7,0-8.5-1.3-8.5-2.9s3.8-2.9,8.5-2.9H418.9C423.6,443.8,427.5,445.1,427.5,446.7Z" style="fill:#e8e9eb;fill-rule:evenodd"/><text transform="translate(299 421.9)" style="font-size:10.190072059631348px;fill:#b3b2b0;font-family:OpenSans-Semibold, Open Sans;font-weight:700">Safe places to fly your <tspan x="0" y="12.2">drone</tspan></text><rect x="216" y="322.1" width="216" height="34.29" rx="8.5" ry="8.5" style="fill:#e8e9eb"/><text transform="translate(218.2 318.1)" style="font-size:7.690646171569824px;fill:#b3b2b0;font-family:OpenSans-Semibold, Open Sans;font-weight:700">Status</text><path d="M195.9,278.8c0,1.4-3.8,2.5-8.5,2.5H156.9c-4.7,0-8.5-1.1-8.5-2.5s3.8-2.5,8.5-2.5h30.5C192.1,276.3,195.9,277.5,195.9,278.8Z" style="fill:#b3b2b0;fill-rule:evenodd"/><path d="M190.9,287.2c0,1.4-3.8,2.5-8.5,2.5H156.9c-4.7,0-8.5-1.1-8.5-2.5s3.8-2.5,8.5-2.5h25.4C187,284.7,190.9,285.8,190.9,287.2Z" style="fill:#b3b2b0;fill-rule:evenodd"/><path d="M169.6,295.6c0,1.4-3.8,2.5-8.5,2.5h-4.2c-4.7,0-8.5-1.1-8.5-2.5s3.8-2.5,8.5-2.5h4.2C165.8,293.1,169.6,294.2,169.6,295.6Z" style="fill:#b3b2b0;fill-rule:evenodd"/><path d="M195.9,304.8c0,1.4-3.8,2.5-8.5,2.5H156.9c-4.7,0-8.5-1.1-8.5-2.5s3.8-2.5,8.5-2.5h30.5C192.1,302.3,195.9,303.4,195.9,304.8Z" style="fill:#b3b2b0;fill-rule:evenodd"/><path d="M190.9,313.2c0,1.4-3.8,2.5-8.5,2.5H156.9c-4.7,0-8.5-1.1-8.5-2.5s3.8-2.5,8.5-2.5h25.4C187,310.7,190.9,311.8,190.9,313.2Z" style="fill:#b3b2b0;fill-rule:evenodd"/><path d="M195.9,334.6c0,1.4-3.8,2.5-8.5,2.5H156.9c-4.7,0-8.5-1.1-8.5-2.5s3.8-2.5,8.5-2.5h30.5C192.1,332.1,195.9,333.2,195.9,334.6Z" style="fill:#b3b2b0;fill-rule:evenodd"/><path d="M190.9,343c0,1.4-3.8,2.5-8.5,2.5H156.9c-4.7,0-8.5-1.1-8.5-2.5s3.8-2.5,8.5-2.5h25.4C187,340.5,190.9,341.6,190.9,343Z" style="fill:#b3b2b0;fill-rule:evenodd"/><path d="M195.9,351.4c0,1.4-3.8,2.5-8.5,2.5H156.9c-4.7,0-8.5-1.1-8.5-2.5s3.8-2.5,8.5-2.5h30.5C192.1,348.8,195.9,350,195.9,351.4Z" style="fill:#b3b2b0;fill-rule:evenodd"/><path d="M195.9,360.6c0,1.4-3.8,2.5-8.5,2.5H156.9c-4.7,0-8.5-1.1-8.5-2.5s3.8-2.5,8.5-2.5h30.5C192.1,358.1,195.9,359.2,195.9,360.6Z" style="fill:#b3b2b0;fill-rule:evenodd"/><path d="M190.9,369c0,1.4-3.8,2.5-8.5,2.5H156.9c-4.7,0-8.5-1.1-8.5-2.5s3.8-2.5,8.5-2.5h25.4C187,366.5,190.9,367.6,190.9,369Z" style="fill:#b3b2b0;fill-rule:evenodd"/><path d="M187.3,377.9c0,1.4-3.8,2.5-8.5,2.5H156.9c-4.7,0-8.5-1.1-8.5-2.5s3.8-2.5,8.5-2.5h21.9C183.5,375.3,187.3,376.5,187.3,377.9Z" style="fill:#b3b2b0;fill-rule:evenodd"/><path d="M183.2,386.2c0,1.4-3.8,2.5-8.5,2.5H156.9c-4.7,0-8.5-1.1-8.5-2.5s3.8-2.5,8.5-2.5h17.8C179.4,383.7,183.2,384.9,183.2,386.2Z" style="fill:#b3b2b0;fill-rule:evenodd"/><path d="M187.3,394.6c0,1.4-3.8,2.5-8.5,2.5H156.9c-4.7,0-8.5-1.1-8.5-2.5s3.8-2.5,8.5-2.5h21.9C183.5,392.1,187.3,393.2,187.3,394.6Z" style="fill:#b3b2b0;fill-rule:evenodd"/><path d="M187.3,403.8c0,1.4-3.8,2.5-8.5,2.5H156.9c-4.7,0-8.5-1.1-8.5-2.5s3.8-2.5,8.5-2.5h21.9C183.5,401.3,187.3,402.5,187.3,403.8Z" style="fill:#b3b2b0;fill-rule:evenodd"/><path d="M183.2,412.2c0,1.4-3.8,2.5-8.5,2.5H156.9c-4.7,0-8.5-1.1-8.5-2.5s3.8-2.5,8.5-2.5h17.8C179.4,409.7,183.2,410.9,183.2,412.2Z" style="fill:#b3b2b0;fill-rule:evenodd"/><rect x="464.7" y="369.7" width="62.6" height="85.6" style="fill:#e8e9eb"/><path d="M527,346.1c0,1.6-3.8,2.9-8.5,2.9H473.4c-4.7,0-8.5-1.3-8.5-2.9s3.8-2.9,8.5-2.9h45.1C523.2,343.2,527,344.5,527,346.1Z" style="fill:#e8e9eb;fill-rule:evenodd"/><path d="M527,355.7c0,1.6-3.8,2.9-8.5,2.9H473.4c-4.7,0-8.5-1.3-8.5-2.9s3.8-2.9,8.5-2.9h45.1C523.2,352.8,527,354.1,527,355.7Z" style="fill:#e8e9eb;fill-rule:evenodd"/><path d="M526.9,323c0,1.6-3.8,2.9-8.5,2.9H493.6c-4.7,0-8.5-1.3-8.5-2.9s3.8-2.9,8.5-2.9h24.8C523.1,320.2,526.9,321.5,526.9,323Z" style="fill:#e8e9eb;fill-rule:evenodd"/><path d="M527.3,364.5H464.7a.5.5,0,1,1,0-1h62.6a.5.5,0,0,1,0,1Z" style="fill:#b3b2b0"/><text transform="translate(227.3 336.7)" style="font-size:10.190072059631348px;fill:#4d4d4d;font-family:OpenSans-Semibold, Open Sans;font-weight:700">Let’s meet for litter picking at 4pm in <tspan x="0" y="12.2">Leaze’s Park!!!!</tspan></text><rect x="365.6" y="361.4" width="66.4" height="14.26" style="fill:#405d9c"/><text transform="translate(371.9 372.6)" style="font-size:10.190072059631348px;fill:#fff;font-family:OpenSans-Semibold, Open Sans;font-weight:700">Send to All</text><rect x="208.2" y="225" width="327.2" height="73.12" style="fill:#fff"/><g style="clip-path:url(#clip-path-4)"><path d="M219.3,292.4H531.6L528.4,251s-108.3-5.8-159.8-5.8-121.9,5.3-149.6,6.4" style="fill:#a3c23b"/><path d="M219.1,302.1H531.5l-5.9-33.8s-105.6-8-157-8-129.6,4.9-157.2,6" style="fill:#8ea43b"/><path d="M281.7,288.4s1.7-3.7,1.5-6.1c0,0,.4,3.5,0,4.7a8.5,8.5,0,0,1,1.2-1.7,4.4,4.4,0,0,0-.4,2.2s1.4-.1,1.7-3.1a25.2,25.2,0,0,0,.3,3.5,25,25,0,0,1,1.4-3.7,18.8,18.8,0,0,0,0,2.9,3.3,3.3,0,0,0,.9-.9s-.7,1.2-.2,1.8a3.2,3.2,0,0,0,1.5-2,7.1,7.1,0,0,0,.5,2.4Z" style="fill:#d3de46"/><path d="M274,288.4s1.7-3.7,1.5-6.1c0,0,.4,3.5,0,4.7a8.5,8.5,0,0,1,1.2-1.7,4.4,4.4,0,0,0-.4,2.2s1.4-.1,1.7-3.1a25.2,25.2,0,0,0,.3,3.5,25,25,0,0,1,1.4-3.7,18.8,18.8,0,0,0,0,2.9,3.3,3.3,0,0,0,.9-.9s-.7,1.2-.2,1.8a3.2,3.2,0,0,0,1.5-2,7.1,7.1,0,0,0,.5,2.4Z" style="fill:#d3de46"/><path d="M298.1,288.4s1.7-3.7,1.5-6.1c0,0,.4,3.5,0,4.7a8.5,8.5,0,0,1,1.2-1.7,4.4,4.4,0,0,0-.4,2.2s1.4-.1,1.7-3.1a25.2,25.2,0,0,0,.3,3.5,25,25,0,0,1,1.4-3.7,18.8,18.8,0,0,0,0,2.9,3.3,3.3,0,0,0,.9-.9s-.7,1.2-.2,1.8a3.2,3.2,0,0,0,1.5-2,7.1,7.1,0,0,0,.5,2.4Z" style="fill:#d3de46"/><path d="M290.4,288.4s1.7-3.7,1.5-6.1c0,0,.4,3.5,0,4.7a8.5,8.5,0,0,1,1.2-1.7,4.4,4.4,0,0,0-.4,2.2s1.4-.1,1.7-3.1a25.2,25.2,0,0,0,.3,3.5,25,25,0,0,1,1.4-3.7,18.8,18.8,0,0,0,0,2.9,3.3,3.3,0,0,0,.9-.9s-.7,1.2-.2,1.8a3.2,3.2,0,0,0,1.5-2,7.1,7.1,0,0,0,.5,2.4Z" style="fill:#d3de46"/><path d="M327.5,288.4s1.7-3.7,1.5-6.1c0,0,.4,3.5,0,4.7a8.5,8.5,0,0,1,1.2-1.7,4.4,4.4,0,0,0-.4,2.2s1.4-.1,1.7-3.1a25.2,25.2,0,0,0,.3,3.5,25,25,0,0,1,1.4-3.7,18.8,18.8,0,0,0,0,2.9,3.3,3.3,0,0,0,.9-.9s-.7,1.2-.2,1.8a3.2,3.2,0,0,0,1.5-2,7.1,7.1,0,0,0,.5,2.4Z" style="fill:#d3de46"/><path d="M319.8,288.4s1.7-3.7,1.5-6.1c0,0,.4,3.5,0,4.7a8.5,8.5,0,0,1,1.2-1.7,4.4,4.4,0,0,0-.4,2.2s1.4-.1,1.7-3.1a25.2,25.2,0,0,0,.3,3.5,25,25,0,0,1,1.4-3.7,18.8,18.8,0,0,0,0,2.9,3.3,3.3,0,0,0,.9-.9s-.7,1.2-.2,1.8a3.2,3.2,0,0,0,1.5-2,7.1,7.1,0,0,0,.5,2.4Z" style="fill:#d3de46"/><path d="M365.3,288.2s1.7-3.7,1.5-6.1c0,0,.4,3.5,0,4.7a8.5,8.5,0,0,1,1.2-1.7,4.4,4.4,0,0,0-.4,2.2s1.4-.1,1.7-3.1a25.2,25.2,0,0,0,.3,3.5A25,25,0,0,1,371,284a18.8,18.8,0,0,0,0,2.9,3.3,3.3,0,0,0,.9-.9s-.7,1.2-.2,1.8a3.2,3.2,0,0,0,1.5-2,7.1,7.1,0,0,0,.5,2.4Z" style="fill:#d3de46"/><path d="M357.6,288.2s1.7-3.7,1.5-6.1c0,0,.4,3.5,0,4.7a8.5,8.5,0,0,1,1.2-1.7,4.4,4.4,0,0,0-.4,2.2s1.4-.1,1.7-3.1a25.2,25.2,0,0,0,.3,3.5,25,25,0,0,1,1.4-3.7,18.8,18.8,0,0,0,0,2.9,3.3,3.3,0,0,0,.9-.9s-.7,1.2-.2,1.8a3.2,3.2,0,0,0,1.5-2,7.1,7.1,0,0,0,.5,2.4Z" style="fill:#d3de46"/><path d="M282.4,249.7l1,.6a.4.4,0,0,1,.2.3v1.2a.4.4,0,0,1-.2.3l-1,.6H282l-1-.6a.4.4,0,0,1-.2-.3v-1.2a.4.4,0,0,1,.2-.3l1-.6Z" style="fill:#bbbe3a"/><path d="M282.4,249.1l1.1.7a.4.4,0,0,1,.2.4v1.3a.4.4,0,0,1-.2.4l-1.1.7H282l-1.1-.7a.4.4,0,0,1-.2-.4v-1.3a.4.4,0,0,1,.2-.4l1.1-.7Z" style="fill:#d3de46"/><path d="M280.2,250.8l1,.6a.4.4,0,0,1,.2.3v1.2a.4.4,0,0,1-.2.3l-1,.6h-.4l-1-.6a.4.4,0,0,1-.2-.3v-1.2a.4.4,0,0,1,.2-.3l1-.6Z" style="fill:#bbbe3a"/><path d="M280.2,250.2l1.1.7a.4.4,0,0,1,.2.4v1.3a.4.4,0,0,1-.2.4l-1.1.7h-.4l-1.1-.7a.4.4,0,0,1-.2-.4v-1.3a.4.4,0,0,1,.2-.4l1.1-.7Z" style="fill:#d3de46"/><rect x="280.4" y="253" width="1.6" height="1.03" style="fill:#6e8c3b"/><path d="M279.9,250l.2.4a.2.2,0,0,1,0,.2l-.2.4h-.8l-.2-.4a.2.2,0,0,1,0-.2l.2-.4h.8Z" style="fill:#6e8c3b"/><path d="M279.9,249.9l.2.4a.2.2,0,0,1,0,.2l-.2.4h-.8l-.2-.4a.2.2,0,0,1,0-.2l.2-.4h.8Z" style="fill:#8ea43b"/><path d="M281.7,249.5l1.5.9a.6.6,0,0,1,.3.5v1.7a.6.6,0,0,1-.3.5l-1.5.9a.6.6,0,0,1-.6,0l-1.5-.9a.6.6,0,0,1-.3-.5v-1.7a.6.6,0,0,1,.3-.5l1.5-.9A.6.6,0,0,1,281.7,249.5Z" style="fill:#6e8c3b"/><path d="M281.5,249.3l1.5.9a.6.6,0,0,1,.3.5v1.7a.6.6,0,0,1-.3.5l-1.5.9a.6.6,0,0,1-.6,0l-1.5-.9a.6.6,0,0,1-.3-.5v-1.7a.6.6,0,0,1,.3-.5l1.5-.9A.6.6,0,0,1,281.5,249.3Z" style="fill:#a3c23a"/><path d="M283.6,251.1l.6,1.1a.4.4,0,0,1,0,.4l-.6,1-.4.2H282l-.3-.2-.6-1.1a.4.4,0,0,1,0-.4l.6-1,.4-.2h1.2Z" style="fill:#6e8c3b"/><path d="M283.6,250.9l.6,1.1a.4.4,0,0,1,0,.4l-.6,1-.4.2H282l-.3-.2-.6-1.1a.4.4,0,0,1,0-.4l.6-1,.4-.2h1.2Z" style="fill:#8ea43b"/><path d="M258.3,251.7l1.4.8a.5.5,0,0,1,.3.5v1.6a.5.5,0,0,1-.3.5l-1.4.8h-.5l-1.4-.8a.5.5,0,0,1-.3-.5V253a.5.5,0,0,1,.3-.5l1.4-.8Z" style="fill:#bbbe3a"/><path d="M258.3,250.8l1.6.9a.6.6,0,0,1,.3.5v1.9a.6.6,0,0,1-.3.5l-1.6.9a.6.6,0,0,1-.6,0l-1.6-.9a.6.6,0,0,1-.3-.5v-1.9a.6.6,0,0,1,.3-.5l1.6-.9A.6.6,0,0,1,258.3,250.8Z" style="fill:#d3de46"/><path d="M255.3,253.2l1.4.8a.5.5,0,0,1,.3.5v1.6a.5.5,0,0,1-.3.5l-1.4.8h-.5l-1.4-.8a.5.5,0,0,1-.3-.5v-1.6a.5.5,0,0,1,.3-.5l1.4-.8Z" style="fill:#bbbe3a"/><path d="M255.3,252.3l1.6.9a.6.6,0,0,1,.3.5v1.9a.6.6,0,0,1-.3.5l-1.6.9a.6.6,0,0,1-.6,0l-1.6-.9a.6.6,0,0,1-.3-.5v-1.9a.6.6,0,0,1,.3-.5l1.6-.9A.6.6,0,0,1,255.3,252.3Z" style="fill:#d3de46"/><rect x="255.6" y="256.3" width="2.3" height="1.45" style="fill:#6e8c3b"/><path d="M254.8,252.1l.3.6a.2.2,0,0,1,0,.2l-.3.6h-1.1l-.3-.6a.2.2,0,0,1,0-.2l.3-.6h1.1Z" style="fill:#6e8c3b"/><path d="M254.8,252l.3.6a.2.2,0,0,1,0,.2l-.3.6h-1.1l-.3-.6a.2.2,0,0,1,0-.2l.3-.6h1.1Z" style="fill:#8ea43b"/><path d="M257.3,251.4l2.1,1.2a.8.8,0,0,1,.4.7v2.4a.8.8,0,0,1-.4.7l-2.1,1.2a.8.8,0,0,1-.8,0l-2.1-1.2a.8.8,0,0,1-.4-.7v-2.4a.8.8,0,0,1,.4-.7l2.1-1.2A.8.8,0,0,1,257.3,251.4Z" style="fill:#6e8c3b"/><path d="M257.1,251.1l2.1,1.2a.8.8,0,0,1,.4.7v2.4a.8.8,0,0,1-.4.7l-2.1,1.2a.8.8,0,0,1-.8,0l-2.1-1.2a.8.8,0,0,1-.4-.7V253a.8.8,0,0,1,.4-.7l2.1-1.2A.8.8,0,0,1,257.1,251.1Z" style="fill:#a3c23a"/><path d="M260,253.7l.8,1.5a.6.6,0,0,1,0,.6l-.9,1.5a.6.6,0,0,1-.5.3h-1.7a.6.6,0,0,1-.5-.3l-.8-1.5a.6.6,0,0,1,0-.6l.9-1.5a.6.6,0,0,1,.5-.3h1.7A.6.6,0,0,1,260,253.7Z" style="fill:#6e8c3b"/><path d="M260,253.4l.8,1.5a.6.6,0,0,1,0,.6l-.9,1.5a.6.6,0,0,1-.5.3h-1.7a.6.6,0,0,1-.5-.3l-.8-1.5a.6.6,0,0,1,0-.6l.9-1.5a.6.6,0,0,1,.5-.3h1.7A.6.6,0,0,1,260,253.4Z" style="fill:#8ea43b"/><path d="M446,239.3l7.4,4.3a2.8,2.8,0,0,1,1.4,2.4v8.5a2.8,2.8,0,0,1-1.4,2.4l-7.4,4.3a2.8,2.8,0,0,1-2.8,0l-7.4-4.3a2.8,2.8,0,0,1-1.4-2.4V246a2.8,2.8,0,0,1,1.4-2.4l7.4-4.3A2.8,2.8,0,0,1,446,239.3Z" style="fill:#6e8c3b"/><path d="M445.4,238.2l7.4,4.3a2.8,2.8,0,0,1,1.4,2.4v8.5a2.8,2.8,0,0,1-1.4,2.4l-7.4,4.3a2.8,2.8,0,0,1-2.8,0l-7.4-4.3a2.8,2.8,0,0,1-1.4-2.4v-8.5a2.8,2.8,0,0,1,1.4-2.4l7.4-4.3A2.8,2.8,0,0,1,445.4,238.2Z" style="fill:#a3c23a"/><polygon points="444.4 247.3 444.2 250.9 440.4 246.1 444.2 251.3 443.3 281.7 445.3 281.7 444.7 256.8 446.4 250.9 444.6 254.9 444.4 247.3" style="fill:#967e2e"/><path d="M437.2,245.5l5.8,3.3a2.2,2.2,0,0,1,1.1,1.9v6.7a2.2,2.2,0,0,1-1.1,1.9l-5.8,3.3a2.2,2.2,0,0,1-2.2,0l-5.8-3.3a2.2,2.2,0,0,1-1.1-1.9v-6.7a2.2,2.2,0,0,1,1.1-1.9l5.8-3.3A2.2,2.2,0,0,1,437.2,245.5Z" style="fill:#bbbe3a"/><path d="M436.6,244.8l5.8,3.3a2.2,2.2,0,0,1,1.1,1.9v6.7a2.2,2.2,0,0,1-1.1,1.9l-5.8,3.3a2.2,2.2,0,0,1-2.2,0l-5.8-3.3a2.2,2.2,0,0,1-1.1-1.9V250a2.2,2.2,0,0,1,1.1-1.9l5.8-3.3A2.2,2.2,0,0,1,436.6,244.8Z" style="fill:#d3de46"/><polygon points="435.1 253.5 435 256.4 432 252.7 435 256.7 434.3 277.7 435.8 277.7 435.4 260.9 436.7 256.4 435.3 259.4 435.1 253.5" style="fill:#967e2e"/><path d="M510.9,228.7l7.4,4.3a2.8,2.8,0,0,1,1.4,2.4v8.5a2.8,2.8,0,0,1-1.4,2.4l-7.4,4.3a2.8,2.8,0,0,1-2.8,0l-7.4-4.3a2.8,2.8,0,0,1-1.4-2.4v-8.5a2.8,2.8,0,0,1,1.4-2.4l7.4-4.3A2.8,2.8,0,0,1,510.9,228.7Z" style="fill:#6e8c3b"/><path d="M510.2,227.6l7.4,4.3a2.8,2.8,0,0,1,1.4,2.4v8.5a2.8,2.8,0,0,1-1.4,2.4l-7.4,4.3a2.8,2.8,0,0,1-2.8,0l-7.4-4.3a2.8,2.8,0,0,1-1.4-2.4v-8.5a2.8,2.8,0,0,1,1.4-2.4l7.4-4.3A2.8,2.8,0,0,1,510.2,227.6Z" style="fill:#a3c23a"/><polygon points="509.2 236.6 509.1 240.3 505.2 235.5 509.1 240.7 508.1 271.1 510.1 271.1 509.6 246.2 511.3 240.3 509.5 244.3 509.2 236.6" style="fill:#967e2e"/><path d="M502.1,234.9l5.8,3.3a2.2,2.2,0,0,1,1.1,1.9v6.7a2.2,2.2,0,0,1-1.1,1.9l-5.8,3.3a2.2,2.2,0,0,1-2.2,0l-5.8-3.3a2.2,2.2,0,0,1-1.1-1.9v-6.7a2.2,2.2,0,0,1,1.1-1.9l5.8-3.3A2.2,2.2,0,0,1,502.1,234.9Z" style="fill:#bbbe3a"/><path d="M501.4,234.1l5.8,3.3a2.2,2.2,0,0,1,1.1,1.9v6.7a2.2,2.2,0,0,1-1.1,1.9l-5.8,3.3a2.2,2.2,0,0,1-2.2,0l-5.8-3.3a2.2,2.2,0,0,1-1.1-1.9v-6.7a2.2,2.2,0,0,1,1.1-1.9l5.8-3.3A2.2,2.2,0,0,1,501.4,234.1Z" style="fill:#d3de46"/><polygon points="500 242.9 499.9 245.7 496.9 242 499.9 246.1 499.2 267.1 500.7 267.1 500.2 250.3 501.6 245.7 500.2 248.8 500 242.9" style="fill:#967e2e"/><path d="M245.8,239.6l5.9,3.4a2.3,2.3,0,0,1,1.1,2v6.9a2.3,2.3,0,0,1-1.1,2l-5.9,3.4a2.3,2.3,0,0,1-2.3,0l-5.9-3.4a2.3,2.3,0,0,1-1.1-2V245a2.3,2.3,0,0,1,1.1-2l5.9-3.4A2.3,2.3,0,0,1,245.8,239.6Z" style="fill:#6e8c3b"/><path d="M245.3,238.7l5.9,3.4a2.3,2.3,0,0,1,1.1,2v6.9a2.3,2.3,0,0,1-1.1,2l-5.9,3.4a2.3,2.3,0,0,1-2.3,0l-5.9-3.4a2.3,2.3,0,0,1-1.1-2v-6.9a2.3,2.3,0,0,1,1.1-2l5.9-3.4A2.3,2.3,0,0,1,245.3,238.7Z" style="fill:#a3c23a"/><polygon points="244.5 246 244.4 249 241.3 245.1 244.4 249.3 243.7 273.8 245.3 273.8 244.8 253.7 246.2 249 244.8 252.2 244.5 246" style="fill:#967e2e"/><path d="M283.9,244.1l4.9,2.9a1.9,1.9,0,0,1,.9,1.6v5.7a1.9,1.9,0,0,1-.9,1.6l-4.9,2.9a1.9,1.9,0,0,1-1.9,0l-4.9-2.9a1.9,1.9,0,0,1-.9-1.6v-5.7a1.9,1.9,0,0,1,.9-1.6l4.9-2.9A1.9,1.9,0,0,1,283.9,244.1Z" style="fill:#6e8c3b"/><path d="M283.5,243.4l4.9,2.9a1.9,1.9,0,0,1,.9,1.6v5.7a1.9,1.9,0,0,1-.9,1.6l-4.9,2.9a1.9,1.9,0,0,1-1.9,0l-4.9-2.9a1.9,1.9,0,0,1-.9-1.6v-5.7a1.9,1.9,0,0,1,.9-1.6l4.9-2.9A1.9,1.9,0,0,1,283.5,243.4Z" style="fill:#a3c23a"/><polygon points="282.8 249.5 282.8 251.9 280.2 248.7 282.7 252.2 282.1 272.6 283.5 272.6 283.1 255.9 284.2 251.9 283 254.6 282.8 249.5" style="fill:#967e2e"/><path d="M278.1,248.3l3.9,2.2a1.5,1.5,0,0,1,.7,1.3v4.5a1.5,1.5,0,0,1-.7,1.3l-3.9,2.2a1.5,1.5,0,0,1-1.5,0l-3.9-2.2a1.5,1.5,0,0,1-.7-1.3v-4.5a1.5,1.5,0,0,1,.7-1.3l3.9-2.2A1.5,1.5,0,0,1,278.1,248.3Z" style="fill:#bbbe3a"/><path d="M277.6,247.8l3.9,2.2a1.5,1.5,0,0,1,.7,1.3v4.5a1.5,1.5,0,0,1-.7,1.3l-3.9,2.2a1.5,1.5,0,0,1-1.5,0l-3.9-2.2a1.5,1.5,0,0,1-.7-1.3v-4.5a1.5,1.5,0,0,1,.7-1.3l3.9-2.2A1.5,1.5,0,0,1,277.6,247.8Z" style="fill:#d3de46"/><polygon points="276.7 253.7 276.6 255.6 274.6 253.1 276.6 255.8 276.1 269.9 277.1 269.9 276.8 258.6 277.7 255.6 276.8 257.6 276.7 253.7" style="fill:#967e2e"/><path d="M260.2,279.1l1.4.8a.5.5,0,0,1,.3.5v1.6a.5.5,0,0,1-.3.5l-1.4.8h-.5l-1.4-.8a.5.5,0,0,1-.3-.5v-1.6a.5.5,0,0,1,.3-.5l1.4-.8Z" style="fill:#bbbe3a"/><path d="M260.2,278.3l1.6.9a.6.6,0,0,1,.3.5v1.9a.6.6,0,0,1-.3.5l-1.6.9a.6.6,0,0,1-.6,0l-1.6-.9a.6.6,0,0,1-.3-.5v-1.9a.6.6,0,0,1,.3-.5l1.6-.9A.6.6,0,0,1,260.2,278.3Z" style="fill:#d3de46"/><path d="M257.1,280.6l1.4.8a.5.5,0,0,1,.3.5v1.6a.5.5,0,0,1-.3.5l-1.4.8h-.5l-1.4-.8a.5.5,0,0,1-.3-.5v-1.6a.5.5,0,0,1,.3-.5l1.4-.8Z" style="fill:#bbbe3a"/><path d="M257.1,279.8l1.6.9a.6.6,0,0,1,.3.5v1.9a.6.6,0,0,1-.3.5l-1.6.9a.6.6,0,0,1-.6,0l-1.6-.9a.6.6,0,0,1-.3-.5v-1.9a.6.6,0,0,1,.3-.5l1.6-.9A.6.6,0,0,1,257.1,279.8Z" style="fill:#d3de46"/><rect x="257.4" y="283.8" width="2.3" height="1.45" style="fill:#6e8c3b"/><path d="M256.6,279.5l.3.6a.2.2,0,0,1,0,.2l-.3.6h-1.1l-.3-.6a.2.2,0,0,1,0-.2l.3-.6h1.1Z" style="fill:#6e8c3b"/><path d="M256.6,279.4l.3.6a.2.2,0,0,1,0,.2l-.3.6h-1.1l-.3-.6a.2.2,0,0,1,0-.2l.3-.6h1.1Z" style="fill:#8ea43b"/><path d="M259.1,278.9l2.1,1.2a.8.8,0,0,1,.4.7v2.4a.8.8,0,0,1-.4.7l-2.1,1.2a.8.8,0,0,1-.8,0l-2.1-1.2a.8.8,0,0,1-.4-.7v-2.4a.8.8,0,0,1,.4-.7l2.1-1.2A.8.8,0,0,1,259.1,278.9Z" style="fill:#6e8c3b"/><path d="M258.9,278.5l2.1,1.2a.8.8,0,0,1,.4.7v2.4a.8.8,0,0,1-.4.7l-2.1,1.2a.8.8,0,0,1-.8,0l-2.1-1.2a.8.8,0,0,1-.4-.7v-2.4a.8.8,0,0,1,.4-.7l2.1-1.2A.8.8,0,0,1,258.9,278.5Z" style="fill:#a3c23a"/><path d="M261.9,281.1l.8,1.5a.6.6,0,0,1,0,.6l-.9,1.5a.6.6,0,0,1-.5.3h-1.7a.6.6,0,0,1-.5-.3l-.8-1.5a.6.6,0,0,1,0-.6l.9-1.5a.6.6,0,0,1,.5-.3h1.7A.6.6,0,0,1,261.9,281.1Z" style="fill:#6e8c3b"/><path d="M261.9,280.9l.8,1.5a.6.6,0,0,1,0,.6l-.9,1.5a.6.6,0,0,1-.5.3h-1.7a.6.6,0,0,1-.5-.3l-.8-1.5a.6.6,0,0,1,0-.6l.9-1.5a.6.6,0,0,1,.5-.3h1.7A.6.6,0,0,1,261.9,280.9Z" style="fill:#8ea43b"/><path d="M430.3,288.5s1.7-3.7,1.5-6.1c0,0,.4,3.5,0,4.7a8.5,8.5,0,0,1,1.2-1.7,4.4,4.4,0,0,0-.4,2.2s1.4-.1,1.7-3.1a25.2,25.2,0,0,0,.3,3.5,25,25,0,0,1,1.4-3.7,18.8,18.8,0,0,0,0,2.9,3.3,3.3,0,0,0,.9-.9s-.7,1.2-.2,1.8a3.2,3.2,0,0,0,1.5-2,7.1,7.1,0,0,0,.5,2.4Z" style="fill:#d3de46"/><path d="M422.7,288.5s1.7-3.7,1.5-6.1c0,0,.4,3.5,0,4.7a8.5,8.5,0,0,1,1.2-1.7,4.4,4.4,0,0,0-.4,2.2s1.4-.1,1.7-3.1a25.2,25.2,0,0,0,.3,3.5,25,25,0,0,1,1.4-3.7,18.8,18.8,0,0,0,0,2.9,3.3,3.3,0,0,0,.9-.9s-.7,1.2-.2,1.8a3.2,3.2,0,0,0,1.5-2,7.1,7.1,0,0,0,.5,2.4Z" style="fill:#d3de46"/><path d="M446.7,288.5s1.7-3.7,1.5-6.1c0,0,.4,3.5,0,4.7a8.5,8.5,0,0,1,1.2-1.7,4.4,4.4,0,0,0-.4,2.2s1.4-.1,1.7-3.1a25.2,25.2,0,0,0,.3,3.5,25,25,0,0,1,1.4-3.7,18.8,18.8,0,0,0,0,2.9,3.3,3.3,0,0,0,.9-.9s-.7,1.2-.2,1.8a3.2,3.2,0,0,0,1.5-2,7.1,7.1,0,0,0,.5,2.4Z" style="fill:#d3de46"/><path d="M439.1,288.5s1.7-3.7,1.5-6.1c0,0,.4,3.5,0,4.7a8.5,8.5,0,0,1,1.2-1.7,4.4,4.4,0,0,0-.4,2.2s1.4-.1,1.7-3.1a25.2,25.2,0,0,0,.3,3.5,25,25,0,0,1,1.4-3.7,18.8,18.8,0,0,0,0,2.9,3.3,3.3,0,0,0,.9-.9s-.7,1.2-.2,1.8a3.2,3.2,0,0,0,1.5-2,7.1,7.1,0,0,0,.5,2.4Z" style="fill:#d3de46"/><path d="M476.1,288.5s1.7-3.7,1.5-6.1c0,0,.4,3.5,0,4.7a8.5,8.5,0,0,1,1.2-1.7,4.4,4.4,0,0,0-.4,2.2s1.4-.1,1.7-3.1a25.2,25.2,0,0,0,.3,3.5,25,25,0,0,1,1.4-3.7,18.8,18.8,0,0,0,0,2.9,3.3,3.3,0,0,0,.9-.9s-.7,1.2-.2,1.8a3.2,3.2,0,0,0,1.5-2,7.1,7.1,0,0,0,.5,2.4Z" style="fill:#d3de46"/><path d="M468.5,288.5s1.7-3.7,1.5-6.1c0,0,.4,3.5,0,4.7a8.5,8.5,0,0,1,1.2-1.7,4.4,4.4,0,0,0-.4,2.2s1.4-.1,1.7-3.1a25.2,25.2,0,0,0,.3,3.5,25,25,0,0,1,1.4-3.7,18.8,18.8,0,0,0,0,2.9,3.3,3.3,0,0,0,.9-.9s-.7,1.2-.2,1.8a3.2,3.2,0,0,0,1.5-2,7.1,7.1,0,0,0,.5,2.4Z" style="fill:#d3de46"/><path d="M513.9,288.3s1.7-3.7,1.5-6.1c0,0,.4,3.5,0,4.7a8.5,8.5,0,0,1,1.2-1.7,4.4,4.4,0,0,0-.4,2.2s1.4-.1,1.7-3.1a25.2,25.2,0,0,0,.3,3.5,25,25,0,0,1,1.4-3.7,18.8,18.8,0,0,0,0,2.9,3.3,3.3,0,0,0,.9-.9s-.7,1.2-.2,1.8a3.2,3.2,0,0,0,1.5-2,7.1,7.1,0,0,0,.5,2.4Z" style="fill:#d3de46"/><path d="M506.3,288.3s1.7-3.7,1.5-6.1c0,0,.4,3.5,0,4.7a8.5,8.5,0,0,1,1.2-1.7,4.4,4.4,0,0,0-.4,2.2s1.4-.1,1.7-3.1a25.2,25.2,0,0,0,.3,3.5,25,25,0,0,1,1.4-3.7,18.8,18.8,0,0,0,0,2.9,3.3,3.3,0,0,0,.9-.9s-.7,1.2-.2,1.8a3.2,3.2,0,0,0,1.5-2,7.1,7.1,0,0,0,.5,2.4Z" style="fill:#d3de46"/></g><text transform="translate(280.8 278.8)" style="font-size:11px;fill:#fff;font-family:Montserrat-SemiBold, Montserrat;font-weight:700">NE<tspan x="16" y="0" style="letter-spacing:-0.011985085227272728em">W</tspan><tspan x="27.6" y="0" style="letter-spacing:-0.007013494318181818em">C</tspan><tspan x="35.2" y="0" style="letter-spacing:-0.003995028409090909em">A</tspan><tspan x="43.5" y="0">STLE </tspan><tspan x="73.2" y="0" style="letter-spacing:-0.049005681818181816em">P</tspan><tspan x="80.1" y="0">ARKS GROUP</tspan></text></g><path d="M674.6,377.4l6.3,3.6a2.4,2.4,0,0,1,1.2,2.1v7.3a2.4,2.4,0,0,1-1.2,2.1l-6.3,3.6a2.4,2.4,0,0,1-2.4,0l-6.3-3.6a2.4,2.4,0,0,1-1.2-2.1v-7.3a2.4,2.4,0,0,1,1.2-2.1l6.3-3.6A2.4,2.4,0,0,1,674.6,377.4Z" style="fill:#bbbe3a"/><path d="M674.6,373.6l7.1,4.1a2.7,2.7,0,0,1,1.4,2.4v8.2a2.7,2.7,0,0,1-1.4,2.4l-7.1,4.1a2.7,2.7,0,0,1-2.7,0l-7.1-4.1a2.7,2.7,0,0,1-1.4-2.4v-8.2a2.7,2.7,0,0,1,1.4-2.4l7.1-4.1A2.7,2.7,0,0,1,674.6,373.6Z" style="fill:#d3de46"/><path d="M661.1,384.1l6.3,3.6a2.4,2.4,0,0,1,1.2,2.1v7.3a2.4,2.4,0,0,1-1.2,2.1l-6.3,3.6a2.4,2.4,0,0,1-2.4,0l-6.3-3.6a2.4,2.4,0,0,1-1.2-2.1v-7.3a2.4,2.4,0,0,1,1.2-2.1l6.3-3.6A2.4,2.4,0,0,1,661.1,384.1Z" style="fill:#bbbe3a"/><path d="M661.1,380.4l7.1,4.1a2.7,2.7,0,0,1,1.4,2.4v8.2a2.7,2.7,0,0,1-1.4,2.4l-7.1,4.1a2.7,2.7,0,0,1-2.7,0l-7.1-4.1a2.7,2.7,0,0,1-1.4-2.4v-8.2a2.7,2.7,0,0,1,1.4-2.4l7.1-4.1A2.7,2.7,0,0,1,661.1,380.4Z" style="fill:#d3de46"/><rect x="662.4" y="398" width="10.1" height="6.41" style="fill:#6e8c3b"/><path d="M658.8,379.3l1.5,2.6a1,1,0,0,1,0,1l-1.5,2.6a1,1,0,0,1-.9.5h-3a1,1,0,0,1-.9-.5l-1.5-2.6a1,1,0,0,1,0-1l1.5-2.6a1,1,0,0,1,.9-.5h3A1,1,0,0,1,658.8,379.3Z" style="fill:#6e8c3b"/><path d="M658.8,378.8l1.5,2.6a1,1,0,0,1,0,1l-1.5,2.6a1,1,0,0,1-.9.5h-3a1,1,0,0,1-.9-.5l-1.5-2.6a1,1,0,0,1,0-1l1.5-2.6a1,1,0,0,1,.9-.5h3A1,1,0,0,1,658.8,378.8Z" style="fill:#8ea43b"/><path d="M670,376.3l9.2,5.3a3.5,3.5,0,0,1,1.8,3.1v10.7a3.5,3.5,0,0,1-1.8,3.1l-9.2,5.3a3.5,3.5,0,0,1-3.5,0l-9.2-5.3a3.5,3.5,0,0,1-1.8-3.1V384.7a3.5,3.5,0,0,1,1.8-3.1l9.2-5.3A3.5,3.5,0,0,1,670,376.3Z" style="fill:#6e8c3b"/><path d="M669.2,374.9l9.2,5.3a3.5,3.5,0,0,1,1.8,3.1v10.7a3.5,3.5,0,0,1-1.8,3.1l-9.2,5.3a3.5,3.5,0,0,1-3.5,0l-9.2-5.3a3.5,3.5,0,0,1-1.8-3.1V383.3a3.5,3.5,0,0,1,1.8-3.1l9.2-5.3A3.5,3.5,0,0,1,669.2,374.9Z" style="fill:#a3c23a"/><path d="M682.1,386.3l3.7,6.6a2.5,2.5,0,0,1,0,2.5l-3.8,6.5a2.5,2.5,0,0,1-2.2,1.2h-7.5a2.5,2.5,0,0,1-2.2-1.3l-3.7-6.6a2.5,2.5,0,0,1,0-2.5l3.8-6.5a2.5,2.5,0,0,1,2.2-1.2h7.5A2.5,2.5,0,0,1,682.1,386.3Z" style="fill:#6e8c3b"/><path d="M682.1,385.1l3.7,6.6a2.5,2.5,0,0,1,0,2.5l-3.8,6.5a2.5,2.5,0,0,1-2.2,1.2h-7.5a2.5,2.5,0,0,1-2.2-1.3l-3.7-6.6a2.5,2.5,0,0,1,0-2.5l3.8-6.5a2.5,2.5,0,0,1,2.2-1.2H680A2.5,2.5,0,0,1,682.1,385.1Z" style="fill:#8ea43b"/></g><path d="M628.6,307.3h-.4V281.7a11.4,11.4,0,0,0-11.4-11.4H546.4A11.4,11.4,0,0,0,535,281.7v9.7h-.6v6.4a.2.2,0,0,0,.2.2h.4v9h-.6v11.6a.2.2,0,0,0,.2.2h.4v2.8h-.4a.2.2,0,0,0-.2.2V334a.2.2,0,0,0,.2.2h.4V448a11.4,11.4,0,0,0,11.4,11.4h70.4A11.4,11.4,0,0,0,628.2,448V319.3h.4a.2.2,0,0,0,.2-.2V307.5A.2.2,0,0,0,628.6,307.3Zm-47-32.1a1.3,1.3,0,1,1-1.3,1.3A1.3,1.3,0,0,1,581.6,275.2Zm-6,5.5h12a1.2,1.2,0,0,1,0,2.4h-12a1.2,1.2,0,1,1,0-2.4Zm-6.7-.5a1.7,1.7,0,1,1-1.7,1.7A1.7,1.7,0,0,1,568.9,280.2Zm12.7,174.3a6.7,6.7,0,1,1,6.7-6.7A6.7,6.7,0,0,1,581.6,454.5Zm41.5-16.6h-83V290.3h83Z" style="fill:#10363a"/><circle cx="581.6" cy="447.9" r="6.8" style="fill:#0c4f50"/><rect x="540.1" y="290.3" width="82.9" height="147.53" style="fill:#a3c23b"/><path d="M570.9,348.7c1.2,1.8,1.9,3.6,3.8,5.2h.2c3.3-4.1-3.9-7.2-5.3-10.3a9.8,9.8,0,0,0-.4,7.7c.9,2.2,2.8,2.6,4.7,3.7s1.7,1.8,2.9,1.8,3.3-1.3,4.5-1.7,6.6-1.7,9.2-.7c-3.2.2-5.7,0-9.6,1.7a.2.2,0,0,0-.1.4,6.5,6.5,0,0,0,7.5,2.1c2.9-1,5.7-3.1,9-2.4,0-.8-4-3.5-4.8-3.9a11.4,11.4,0,0,0-5.5-1.5,7.5,7.5,0,0,0-4.7,1.7,14.9,14.9,0,0,1-4.3,2.8c-.8.3-.9-.1-.7-1,1.6-6.6,4-12.1,9-16.6a30.4,30.4,0,0,0-6.6,12.9.2.2,0,0,0,.2.3c3.8,0,7.1-1.6,8.2-5.5s1.9-9.1,5.1-13.4c-2.5-.1-6.3,1.3-8.5,2.4a15.2,15.2,0,0,0-6.5,5.6,11.4,11.4,0,0,0-1.4,7.2,14.9,14.9,0,0,1,.4,3.8,33.5,33.5,0,0,1-.8,3.3c-.2.9-.6,1.2-1,.9a11.5,11.5,0,0,1-4.5-6.5Z" style="fill:#fff"/><path d="M558.1,372.3q0,.6,1.1.6v1.1h-4.6v-1.1q1.1,0,1.1-.6v-6.6q0-.6-1.1-.6v-1h3.5Z" style="fill:#fff"/><path d="M560.9,370.7a3.4,3.4,0,0,0,.4,1.7,1.3,1.3,0,0,0,1.2.6,2,2,0,0,0,1.1-.3,1.6,1.6,0,0,0,.7-1h1.1a3,3,0,0,1-.3.9l-.6.7-.9.5-1.3.2-1.4-.2a3.2,3.2,0,0,1-1.2-.6,2.8,2.8,0,0,1-.8-1.1,4,4,0,0,1-.3-1.7,4.1,4.1,0,0,1,.2-1.5,3,3,0,0,1,.7-1.1,3.1,3.1,0,0,1,1.2-.7l1.6-.2a3.6,3.6,0,0,1,2.6.8,3.7,3.7,0,0,1,.8,2.7Zm2.8-.9a2.7,2.7,0,0,0-.1-.6l-.2-.6-.4-.4-.6-.2a1.2,1.2,0,0,0-1,.4,2.3,2.3,0,0,0-.4,1.3Z" style="fill:#fff"/><path d="M568.5,367.4h1.7v1.1h-1.7v4.1a.7.7,0,0,0,.1.4h.4l.4-.2a.7.7,0,0,0,.1-.4v-.6h.8v.4a2.6,2.6,0,0,1-.1.7,1.4,1.4,0,0,1-.3.6l-.6.4h-.9a2.4,2.4,0,0,1-1.7-.5,1.9,1.9,0,0,1-.5-1.4v-3.8H565v-.8h.7l.6-.3.4-.5a2.1,2.1,0,0,0,.2-.9v-.3h1.6Z" style="fill:#fff"/><path d="M570.9,366.9l.7-.5a.8.8,0,0,0,.2-.5q0-.2-.2-.2l-.6-.2a.9.9,0,0,1-.2-.6.8.8,0,0,1,.3-.7l.7-.2a1,1,0,0,1,.8.3,1.2,1.2,0,0,1,.3.8,2,2,0,0,1-.4,1.3,3.4,3.4,0,0,1-1.2.9Z" style="fill:#fff"/><path d="M577.3,369.6h-1.1a1.6,1.6,0,0,0-.8-1.1,2.8,2.8,0,0,0-1.4-.3l-.8.2a.5.5,0,0,0-.3.4.5.5,0,0,0,.3.5l.9.3,1.1.2,1.1.3.9.6a1.6,1.6,0,0,1,.3,1.1,1.9,1.9,0,0,1-.2.9l-.6.6-.8.4h-2.4l-.8-.3h-.4q-.2,0-.3.4h-1.1v-2.3h1.1a1.3,1.3,0,0,0,.3.6l.6.5.8.3h.9l.7-.2a.6.6,0,0,0,.3-.5.5.5,0,0,0-.2-.5l-.6-.2-.9-.2-1-.2a2.7,2.7,0,0,1-1.4-.7,1.9,1.9,0,0,1-.4-1.3,1.8,1.8,0,0,1,.6-1.4,2.7,2.7,0,0,1,1.8-.5h.9l.7.2.5.2h.6v-.3h1Z" style="fill:#fff"/><path d="M586.5,367.4h1.7v1.1h-1.7v4.1a.7.7,0,0,0,.1.4h.4l.4-.2a.7.7,0,0,0,.1-.4v-.6h.8v.4a2.6,2.6,0,0,1-.1.7,1.4,1.4,0,0,1-.3.6l-.6.4h-.9a2.4,2.4,0,0,1-1.7-.5,1.9,1.9,0,0,1-.5-1.4v-3.8H583v-.8h.7l.6-.3.4-.5a2.1,2.1,0,0,0,.2-.9v-.3h1.6Z" style="fill:#fff"/><path d="M594.5,372.5q0,.5.4.5l.3-.2a.7.7,0,0,0,.1-.4v-.7h.8v.4a2,2,0,0,1-.2.9l-.4.5-.6.3h-.7a1.7,1.7,0,0,1-1.2-.4,1.8,1.8,0,0,1-.5-.9l-.3.5-.6.5-.8.3h-1a2.6,2.6,0,0,1-1.8-.5,1.7,1.7,0,0,1-.6-1.3,1.7,1.7,0,0,1,.2-.8l.5-.5.8-.3,1-.2,1.1-.2,1.2-.3v-.4a1.8,1.8,0,0,0-.1-.5l-.2-.5-.4-.3h-1.6l-.7.3.5.2a.6.6,0,0,1,.2.5.8.8,0,0,1-.3.6,1.2,1.2,0,0,1-.8.2q-1.1,0-1.1-1a1.3,1.3,0,0,1,.2-.7l.6-.6,1-.4h2.6l1.1.4a2.1,2.1,0,0,1,.8.7,2.1,2.1,0,0,1,.3,1.1Zm-2.3-2.1-1.1.4-.8.3-.5.4a.9.9,0,0,0-.2.6.7.7,0,0,0,.2.6l.7.2a1.7,1.7,0,0,0,1-.3,1.9,1.9,0,0,0,.6-.7Z" style="fill:#fff"/><path d="M598.8,372.3q0,.6,1.1.6v1.1h-4.6v-1.1q1.1,0,1.1-.6v-6.6q0-.6-1.1-.6v-1h3.5Z" style="fill:#fff"/><path d="M608.8,368.4l-1.2.2-1,.4-.7.5,2,3a1.2,1.2,0,0,0,1.1.4v1h-4.6v-1h.5c.2,0,.4-.1.4-.2h-.1l-1.2-1.8-1.4.9v.7a.5.5,0,0,0,.3.4h.8v1h-4.6v-1q1.1,0,1.1-.6v-6.7q0-.6-1.1-.6v-1h3.5v6.4L605,369a.3.3,0,0,0,.2-.3v-.2h-.9v-1h4.7Z" style="fill:#fff"/><path d="M562.3,375.2l2.1.2a3.9,3.9,0,0,1,1.6.6,2.7,2.7,0,0,1,1,1.2,4.6,4.6,0,0,1,.3,1.9,5.1,5.1,0,0,1-.3,1.9,3.1,3.1,0,0,1-1,1.3,4,4,0,0,1-1.6.7l-2.1.2h-2.4v2.7q0,.8,2,.8v1.4h-7.2v-1.4q1.6,0,1.6-.8v-8.5q0-.8-1.6-.8v-1.4Zm-2.4,1.9v4.2h1.6a2.5,2.5,0,0,0,1.8-.5,2.5,2.5,0,0,0,.5-1.8,1.9,1.9,0,0,0-.5-1.4,2.6,2.6,0,0,0-1.8-.5Z" style="fill:#fff"/><path d="M575.9,386.1q0,.7.5.7l.4-.2a1,1,0,0,0,.1-.5v-.9h1v.6a2.7,2.7,0,0,1-.2,1.2,2.1,2.1,0,0,1-.6.7l-.8.4h-.9a2.3,2.3,0,0,1-1.6-.5,2.5,2.5,0,0,1-.7-1.3l-.5.7-.7.6-1,.4-1.3.2a3.6,3.6,0,0,1-2.4-.7,2.3,2.3,0,0,1-.8-1.8,2.4,2.4,0,0,1,.2-1.1,2.1,2.1,0,0,1,.7-.7l1-.5,1.3-.3,1.5-.3,1.6-.4V382a2.4,2.4,0,0,0-.1-.7,1.7,1.7,0,0,0-.3-.6l-.6-.4-.9-.2h-1.2l-.9.4.7.2a.8.8,0,0,1,.3.7,1.1,1.1,0,0,1-.4.9,1.6,1.6,0,0,1-1.1.3q-1.4,0-1.4-1.4a1.7,1.7,0,0,1,.3-.9,2.6,2.6,0,0,1,.9-.8l1.4-.5,1.9-.2h1.6l1.5.5a2.9,2.9,0,0,1,1,1,2.8,2.8,0,0,1,.4,1.6Zm-3.1-2.8-1.5.6-1.1.5-.7.5a1.2,1.2,0,0,0-.2.8,1,1,0,0,0,.3.7,1.5,1.5,0,0,0,1,.3,2.3,2.3,0,0,0,1.3-.4,2.6,2.6,0,0,0,.9-1Z" style="fill:#fff"/><path d="M582.3,380.9a3.3,3.3,0,0,1,1.2-1.4,2.9,2.9,0,0,1,1.6-.5h.9l.8.4.6.7a2,2,0,0,1,.2,1,2.1,2.1,0,0,1-.4,1.4,1.4,1.4,0,0,1-1.2.5,1.5,1.5,0,0,1-1.1-.3,1.2,1.2,0,0,1-.4-.9,1.3,1.3,0,0,1,.3-.8,1.1,1.1,0,0,1,.9-.4l-.4-.4h-.5l-.7.2-.7.6-.6.8a4.8,4.8,0,0,0-.4,1.1v3.1a.6.6,0,0,0,.5.6l1.2.2v1.4h-6.5v-1.4q1.5,0,1.5-.8v-4.5q0-.8-1.5-.8v-1.4h4.8Z" style="fill:#fff"/><path d="M599.8,380.6l-1.6.2-1.3.6-.9.6,2.7,4a1.7,1.7,0,0,0,1.5.6v1.4h-6.3v-1.4h.7q.5,0,.5-.3h-.1l-1.6-2.4-1.9,1.2v1a.6.6,0,0,0,.4.6l1.1.2v1.4h-6.2v-1.4q1.5,0,1.5-.8v-9q0-.8-1.5-.8v-1.4h4.8v8.7l3.1-2a.5.5,0,0,0,.2-.4v-.3h-1.2v-1.4h6.3Z" style="fill:#fff"/><path d="M608.6,382.3h-1.4a2.1,2.1,0,0,0-1-1.5,3.8,3.8,0,0,0-1.9-.4l-1,.2a.7.7,0,0,0-.4.6.7.7,0,0,0,.5.7l1.2.4,1.5.3,1.5.5a3.3,3.3,0,0,1,1.2.9,2.1,2.1,0,0,1,.5,1.4,2.5,2.5,0,0,1-.3,1.2,2.6,2.6,0,0,1-.8.9l-1.1.5-1.3.2-1.9-.2-1.1-.4h-.5q-.3,0-.4.6h-1.4v-3.1h1.4a1.8,1.8,0,0,0,.4.8l.8.6,1.1.4h1.2a1.7,1.7,0,0,0,1-.3.8.8,0,0,0,.4-.7.7.7,0,0,0-.3-.6l-.9-.3-1.2-.2-1.4-.3a3.7,3.7,0,0,1-1.9-1,2.5,2.5,0,0,1-.6-1.7,2.4,2.4,0,0,1,.9-1.9,3.6,3.6,0,0,1,2.4-.7h1.2l.9.3.7.3h.8l.2-.4h1.3Z" style="fill:#fff"/></svg>