<svg id="Layer_1" data-name="Layer 1" xmlns="http://www.w3.org/2000/svg" xmlns:xlink="http://www.w3.org/1999/xlink" viewBox="0 0 800 450"><defs><clipPath id="clip-path"><rect x="-862" width="800" height="450" style="fill:none"/></clipPath><clipPath id="clip-path-3"><rect width="800" height="450" style="fill:none"/></clipPath></defs><title>sponsorship</title><g style="clip-path:url(#clip-path)"><g style="clip-path:url(#clip-path)"><path d="M-881.3,573H35L17.6,423.7s-309.8-35.4-460.7-35.4-380.3,21.6-461.3,26.6" style="fill:#8ea43b"/></g><path d="M-291,153.9s177.1,116,302.2,105.3" style="fill:none;stroke:#dcd3c0;stroke-miterlimit:10;stroke-width:4.443181409655824px"/></g><g style="clip-path:url(#clip-path-3)"><rect x="522.3" y="66.5" width="7.5" height="17.08" style="fill:#bababa"/><rect x="417" y="66.5" width="7.5" height="17.08" style="fill:#bababa"/><rect x="311.8" y="66.5" width="7.5" height="17.08" style="fill:#bababa"/><rect x="208" y="66.5" width="7.5" height="17.08" style="fill:#bababa"/><g style="clip-path:url(#clip-path-3)"><path d="M30.9,186.5l26.3,15.2a10.1,10.1,0,0,1,5,8.7v30.3a10.1,10.1,0,0,1-5,8.7L30.9,264.6a10.1,10.1,0,0,1-10.1,0L-5.4,249.4a10.1,10.1,0,0,1-5-8.7V210.4a10.1,10.1,0,0,1,5-8.7l26.3-15.2A10.1,10.1,0,0,1,30.9,186.5Z" style="fill:#6e8c3b"/><path d="M28.7,182.5,55,197.7a10.1,10.1,0,0,1,5,8.7v30.3a10.1,10.1,0,0,1-5,8.7L28.7,260.6a10.1,10.1,0,0,1-10.1,0L-7.6,245.4a10.1,10.1,0,0,1-5-8.7V206.4a10.1,10.1,0,0,1,5-8.7l26.3-15.2A10.1,10.1,0,0,1,28.7,182.5Z" style="fill:#a3c23a"/><polygon points="25 214.9 24.6 228 10.8 210.9 24.5 229.5 21.2 337.6 28.3 337.6 26.2 249.1 32.5 228 26 242.2 25 214.9" style="fill:#967e2e"/><path d="M149.1,206.7,171,219.3a8.4,8.4,0,0,1,4.2,7.2v25.2a8.4,8.4,0,0,1-4.2,7.2l-21.8,12.6a8.4,8.4,0,0,1-8.4,0L119,258.9a8.4,8.4,0,0,1-4.2-7.2V226.5a8.4,8.4,0,0,1,4.2-7.2l21.8-12.6A8.4,8.4,0,0,1,149.1,206.7Z" style="fill:#6e8c3b"/><path d="M147.3,203.4,169.1,216a8.4,8.4,0,0,1,4.2,7.2v25.2a8.4,8.4,0,0,1-4.2,7.2l-21.8,12.6a8.4,8.4,0,0,1-8.4,0l-21.8-12.6a8.4,8.4,0,0,1-4.2-7.2V223.2a8.4,8.4,0,0,1,4.2-7.2L139,203.4A8.4,8.4,0,0,1,147.3,203.4Z" style="fill:#a3c23a"/><polygon points="144.3 230.3 143.9 241.2 132.5 227 143.9 242.4 141.1 332.2 147 332.2 145.3 258.7 150.5 241.2 145.1 252.9 144.3 230.3" style="fill:#967e2e"/><path d="M123.2,225.2l17.1,9.9a6.6,6.6,0,0,1,3.3,5.7v19.8a6.6,6.6,0,0,1-3.3,5.7l-17.1,9.9a6.6,6.6,0,0,1-6.6,0l-17.1-9.9a6.6,6.6,0,0,1-3.3-5.7V240.8a6.6,6.6,0,0,1,3.3-5.7l17.1-9.9A6.6,6.6,0,0,1,123.2,225.2Z" style="fill:#bbbe3a"/><path d="M121.2,222.9l17.1,9.9a6.6,6.6,0,0,1,3.3,5.7v19.8a6.6,6.6,0,0,1-3.3,5.7l-17.1,9.9a6.6,6.6,0,0,1-6.6,0l-17.1-9.9a6.6,6.6,0,0,1-3.3-5.7V238.4a6.6,6.6,0,0,1,3.3-5.7l17.1-9.9A6.6,6.6,0,0,1,121.2,222.9Z" style="fill:#d3de46"/><polygon points="117 248.8 116.7 257.2 107.8 246.2 116.7 258.1 114.5 320.4 119.1 320.4 117.7 270.7 121.8 257.2 117.6 266.3 117 248.8" style="fill:#967e2e"/><path d="M735.7,161.7l32.6,18.8a12.5,12.5,0,0,1,6.2,10.8v37.6a12.5,12.5,0,0,1-6.2,10.8l-32.6,18.8a12.5,12.5,0,0,1-12.5,0l-32.6-18.8a12.5,12.5,0,0,1-6.2-10.8V191.3a12.5,12.5,0,0,1,6.2-10.8l32.6-18.8A12.5,12.5,0,0,1,735.7,161.7Z" style="fill:#6e8c3b"/><path d="M733,156.7l32.6,18.8a12.5,12.5,0,0,1,6.2,10.8v37.6a12.5,12.5,0,0,1-6.2,10.8L733,253.5a12.5,12.5,0,0,1-12.5,0L688,234.7a12.5,12.5,0,0,1-6.2-10.8V186.3a12.5,12.5,0,0,1,6.2-10.8l32.6-18.8A12.5,12.5,0,0,1,733,156.7Z" style="fill:#a3c23a"/><polygon points="728.5 196.9 727.9 213.1 710.9 191.9 727.9 214.9 723.8 349 732.6 349 730 239.2 737.7 213.1 729.7 230.7 728.5 196.9" style="fill:#967e2e"/><path d="M697,189.3,722.6,204a9.8,9.8,0,0,1,4.9,8.5V242a9.8,9.8,0,0,1-4.9,8.5L697,265.2a9.8,9.8,0,0,1-9.8,0l-25.5-14.8a9.8,9.8,0,0,1-4.9-8.5V212.5a9.8,9.8,0,0,1,4.9-8.5l25.5-14.8A9.8,9.8,0,0,1,697,189.3Z" style="fill:#bbbe3a"/><path d="M694.1,185.8l25.5,14.8a9.8,9.8,0,0,1,4.9,8.5v29.5a9.8,9.8,0,0,1-4.9,8.5l-25.5,14.8a9.8,9.8,0,0,1-9.8,0L658.8,247a9.8,9.8,0,0,1-4.9-8.5V209.1a9.8,9.8,0,0,1,4.9-8.5l25.5-14.8A9.8,9.8,0,0,1,694.1,185.8Z" style="fill:#d3de46"/><polygon points="687.7 224.5 687.3 237 674.1 220.7 687.3 238.5 684.1 331.3 690.9 331.3 688.9 257.2 694.9 237 688.7 250.6 687.7 224.5" style="fill:#967e2e"/><path d="M-98.5,520.4H817.9l-9.5-182.9s-317.8-25.8-468.7-25.8S-18,334.9-99,339.9" style="fill:#a3c23b"/><path d="M-19.3,573H897L879.6,423.7s-309.8-35.4-460.7-35.4S38.6,409.9-42.4,414.9" style="fill:#8ea43b"/><path d="M232.4,309.6l4.5,2.6a1.7,1.7,0,0,1,.9,1.5v5.2a1.7,1.7,0,0,1-.9,1.5l-4.5,2.6a1.7,1.7,0,0,1-1.7,0l-4.5-2.6a1.7,1.7,0,0,1-.9-1.5v-5.2a1.7,1.7,0,0,1,.9-1.5l4.5-2.6A1.7,1.7,0,0,1,232.4,309.6Z" style="fill:#bbbe3a"/><path d="M232.4,306.9l5.1,2.9a1.9,1.9,0,0,1,1,1.7v5.9a1.9,1.9,0,0,1-1,1.7l-5.1,2.9a1.9,1.9,0,0,1-1.9,0l-5.1-2.9a1.9,1.9,0,0,1-1-1.7v-5.9a1.9,1.9,0,0,1,1-1.7l5.1-2.9A1.9,1.9,0,0,1,232.4,306.9Z" style="fill:#d3de46"/><path d="M222.8,314.4l4.5,2.6a1.7,1.7,0,0,1,.9,1.5v5.2a1.7,1.7,0,0,1-.9,1.5l-4.5,2.6a1.7,1.7,0,0,1-1.7,0l-4.5-2.6a1.7,1.7,0,0,1-.9-1.5v-5.2a1.7,1.7,0,0,1,.9-1.5l4.5-2.6A1.7,1.7,0,0,1,222.8,314.4Z" style="fill:#bbbe3a"/><path d="M222.8,311.7l5.1,2.9a1.9,1.9,0,0,1,1,1.7v5.9a1.9,1.9,0,0,1-1,1.7l-5.1,2.9a1.9,1.9,0,0,1-1.9,0l-5.1-2.9a1.9,1.9,0,0,1-1-1.7v-5.9a1.9,1.9,0,0,1,1-1.7l5.1-2.9A1.9,1.9,0,0,1,222.8,311.7Z" style="fill:#d3de46"/><rect x="223.7" y="324.2" width="7.2" height="4.56" style="fill:#6e8c3b"/><path d="M221.1,310.9l1.1,1.9a.7.7,0,0,1,0,.7l-1.1,1.9a.7.7,0,0,1-.6.4h-2.2a.7.7,0,0,1-.6-.4l-1.1-1.9a.7.7,0,0,1,0-.7l1.1-1.9a.7.7,0,0,1,.6-.4h2.2A.7.7,0,0,1,221.1,310.9Z" style="fill:#6e8c3b"/><path d="M221.1,310.6l1.1,1.9a.7.7,0,0,1,0,.7l-1.1,1.9a.7.7,0,0,1-.6.4h-2.2a.7.7,0,0,1-.6-.4l-1.1-1.9a.7.7,0,0,1,0-.7l1.1-1.9a.7.7,0,0,1,.6-.4h2.2A.7.7,0,0,1,221.1,310.6Z" style="fill:#8ea43b"/><path d="M229.1,308.8l6.6,3.8a2.5,2.5,0,0,1,1.3,2.2v7.6a2.5,2.5,0,0,1-1.3,2.2l-6.6,3.8a2.5,2.5,0,0,1-2.5,0l-6.6-3.8a2.5,2.5,0,0,1-1.3-2.2v-7.6a2.5,2.5,0,0,1,1.3-2.2l6.6-3.8A2.5,2.5,0,0,1,229.1,308.8Z" style="fill:#6e8c3b"/><path d="M228.6,307.8l6.6,3.8a2.5,2.5,0,0,1,1.3,2.2v7.6a2.5,2.5,0,0,1-1.3,2.2l-6.6,3.8a2.5,2.5,0,0,1-2.5,0l-6.6-3.8a2.5,2.5,0,0,1-1.3-2.2v-7.6a2.5,2.5,0,0,1,1.3-2.2l6.6-3.8A2.5,2.5,0,0,1,228.6,307.8Z" style="fill:#a3c23a"/><path d="M237.7,315.9l2.7,4.7a1.8,1.8,0,0,1,0,1.8l-2.7,4.6a1.8,1.8,0,0,1-1.5.9h-5.4a1.8,1.8,0,0,1-1.5-.9l-2.7-4.7a1.8,1.8,0,0,1,0-1.8l2.7-4.6a1.8,1.8,0,0,1,1.5-.9h5.4A1.8,1.8,0,0,1,237.7,315.9Z" style="fill:#6e8c3b"/><path d="M237.8,315.1l2.7,4.7a1.8,1.8,0,0,1,0,1.8l-2.7,4.6a1.8,1.8,0,0,1-1.5.9h-5.4a1.8,1.8,0,0,1-1.5-.9l-2.7-4.7a1.8,1.8,0,0,1,0-1.8l2.7-4.6a1.8,1.8,0,0,1,1.5-.9h5.4A1.8,1.8,0,0,1,237.8,315.1Z" style="fill:#8ea43b"/><path d="M86.1,348.3l6.3,3.6a2.4,2.4,0,0,1,1.2,2.1v7.3a2.4,2.4,0,0,1-1.2,2.1L86.1,367a2.4,2.4,0,0,1-2.4,0l-6.3-3.6a2.4,2.4,0,0,1-1.2-2.1V354a2.4,2.4,0,0,1,1.2-2.1l6.3-3.6A2.4,2.4,0,0,1,86.1,348.3Z" style="fill:#bbbe3a"/><path d="M86.1,344.5l7.1,4.1a2.7,2.7,0,0,1,1.4,2.4v8.2a2.7,2.7,0,0,1-1.4,2.4l-7.1,4.1a2.7,2.7,0,0,1-2.7,0l-7.1-4.1a2.7,2.7,0,0,1-1.4-2.4V351a2.7,2.7,0,0,1,1.4-2.4l7.1-4.1A2.7,2.7,0,0,1,86.1,344.5Z" style="fill:#d3de46"/><path d="M72.6,355l6.3,3.6a2.4,2.4,0,0,1,1.2,2.1V368a2.4,2.4,0,0,1-1.2,2.1l-6.3,3.6a2.4,2.4,0,0,1-2.4,0l-6.3-3.6a2.4,2.4,0,0,1-1.2-2.1v-7.3a2.4,2.4,0,0,1,1.2-2.1l6.3-3.6A2.4,2.4,0,0,1,72.6,355Z" style="fill:#bbbe3a"/><path d="M72.6,351.3l7.1,4.1a2.7,2.7,0,0,1,1.4,2.4V366a2.7,2.7,0,0,1-1.4,2.4l-7.1,4.1a2.7,2.7,0,0,1-2.7,0l-7.1-4.1a2.7,2.7,0,0,1-1.4-2.4v-8.2a2.7,2.7,0,0,1,1.4-2.4l7.1-4.1A2.7,2.7,0,0,1,72.6,351.3Z" style="fill:#d3de46"/><rect x="73.9" y="368.9" width="10.1" height="6.41" style="fill:#6e8c3b"/><path d="M70.2,350.2l1.5,2.6a1,1,0,0,1,0,1l-1.5,2.6a1,1,0,0,1-.9.5h-3a1,1,0,0,1-.9-.5l-1.5-2.6a1,1,0,0,1,0-1l1.5-2.6a1,1,0,0,1,.9-.5h3A1,1,0,0,1,70.2,350.2Z" style="fill:#6e8c3b"/><path d="M70.3,349.7l1.5,2.6a1,1,0,0,1,0,1l-1.5,2.6a1,1,0,0,1-.9.5h-3a1,1,0,0,1-.9-.5L64,353.3a1,1,0,0,1,0-1l1.5-2.6a1,1,0,0,1,.9-.5h3A1,1,0,0,1,70.3,349.7Z" style="fill:#8ea43b"/><path d="M81.4,347.2l9.2,5.3a3.5,3.5,0,0,1,1.8,3.1v10.7a3.5,3.5,0,0,1-1.8,3.1l-9.2,5.3a3.5,3.5,0,0,1-3.5,0l-9.2-5.3a3.5,3.5,0,0,1-1.8-3.1V355.6a3.5,3.5,0,0,1,1.8-3.1l9.2-5.3A3.5,3.5,0,0,1,81.4,347.2Z" style="fill:#6e8c3b"/><path d="M80.7,345.8l9.2,5.3a3.5,3.5,0,0,1,1.8,3.1v10.7a3.5,3.5,0,0,1-1.8,3.1l-9.2,5.3a3.5,3.5,0,0,1-3.5,0l-9.2-5.3a3.5,3.5,0,0,1-1.8-3.1V354.2a3.5,3.5,0,0,1,1.8-3.1l9.2-5.3A3.5,3.5,0,0,1,80.7,345.8Z" style="fill:#a3c23a"/><path d="M93.6,357.2l3.7,6.6a2.5,2.5,0,0,1,0,2.5l-3.8,6.5a2.5,2.5,0,0,1-2.2,1.2H83.7a2.5,2.5,0,0,1-2.2-1.3l-3.7-6.6a2.5,2.5,0,0,1,0-2.5l3.8-6.5a2.5,2.5,0,0,1,2.2-1.2h7.5A2.5,2.5,0,0,1,93.6,357.2Z" style="fill:#6e8c3b"/><path d="M93.6,356l3.7,6.6a2.5,2.5,0,0,1,0,2.5l-3.8,6.5a2.5,2.5,0,0,1-2.2,1.2H83.8a2.5,2.5,0,0,1-2.2-1.3L77.9,365a2.5,2.5,0,0,1,0-2.5l3.8-6.5a2.5,2.5,0,0,1,2.2-1.2h7.5A2.5,2.5,0,0,1,93.6,356Z" style="fill:#8ea43b"/></g><path d="M674.6,377.4l6.3,3.6a2.4,2.4,0,0,1,1.2,2.1v7.3a2.4,2.4,0,0,1-1.2,2.1l-6.3,3.6a2.4,2.4,0,0,1-2.4,0l-6.3-3.6a2.4,2.4,0,0,1-1.2-2.1v-7.3a2.4,2.4,0,0,1,1.2-2.1l6.3-3.6A2.4,2.4,0,0,1,674.6,377.4Z" style="fill:#bbbe3a"/><path d="M674.6,373.6l7.1,4.1a2.7,2.7,0,0,1,1.4,2.4v8.2a2.7,2.7,0,0,1-1.4,2.4l-7.1,4.1a2.7,2.7,0,0,1-2.7,0l-7.1-4.1a2.7,2.7,0,0,1-1.4-2.4v-8.2a2.7,2.7,0,0,1,1.4-2.4l7.1-4.1A2.7,2.7,0,0,1,674.6,373.6Z" style="fill:#d3de46"/><path d="M661.1,384.1l6.3,3.6a2.4,2.4,0,0,1,1.2,2.1v7.3a2.4,2.4,0,0,1-1.2,2.1l-6.3,3.6a2.4,2.4,0,0,1-2.4,0l-6.3-3.6a2.4,2.4,0,0,1-1.2-2.1v-7.3a2.4,2.4,0,0,1,1.2-2.1l6.3-3.6A2.4,2.4,0,0,1,661.1,384.1Z" style="fill:#bbbe3a"/><path d="M661.1,380.4l7.1,4.1a2.7,2.7,0,0,1,1.4,2.4v8.2a2.7,2.7,0,0,1-1.4,2.4l-7.1,4.1a2.7,2.7,0,0,1-2.7,0l-7.1-4.1a2.7,2.7,0,0,1-1.4-2.4v-8.2a2.7,2.7,0,0,1,1.4-2.4l7.1-4.1A2.7,2.7,0,0,1,661.1,380.4Z" style="fill:#d3de46"/><rect x="662.4" y="398" width="10.1" height="6.41" style="fill:#6e8c3b"/><path d="M658.8,379.3l1.5,2.6a1,1,0,0,1,0,1l-1.5,2.6a1,1,0,0,1-.9.5h-3a1,1,0,0,1-.9-.5l-1.5-2.6a1,1,0,0,1,0-1l1.5-2.6a1,1,0,0,1,.9-.5h3A1,1,0,0,1,658.8,379.3Z" style="fill:#6e8c3b"/><path d="M658.8,378.8l1.5,2.6a1,1,0,0,1,0,1l-1.5,2.6a1,1,0,0,1-.9.5h-3a1,1,0,0,1-.9-.5l-1.5-2.6a1,1,0,0,1,0-1l1.5-2.6a1,1,0,0,1,.9-.5h3A1,1,0,0,1,658.8,378.8Z" style="fill:#8ea43b"/><path d="M670,376.3l9.2,5.3a3.5,3.5,0,0,1,1.8,3.1v10.7a3.5,3.5,0,0,1-1.8,3.1l-9.2,5.3a3.5,3.5,0,0,1-3.5,0l-9.2-5.3a3.5,3.5,0,0,1-1.8-3.1V384.7a3.5,3.5,0,0,1,1.8-3.1l9.2-5.3A3.5,3.5,0,0,1,670,376.3Z" style="fill:#6e8c3b"/><path d="M669.2,374.9l9.2,5.3a3.5,3.5,0,0,1,1.8,3.1v10.7a3.5,3.5,0,0,1-1.8,3.1l-9.2,5.3a3.5,3.5,0,0,1-3.5,0l-9.2-5.3a3.5,3.5,0,0,1-1.8-3.1V383.3a3.5,3.5,0,0,1,1.8-3.1l9.2-5.3A3.5,3.5,0,0,1,669.2,374.9Z" style="fill:#a3c23a"/><path d="M682.1,386.3l3.7,6.6a2.5,2.5,0,0,1,0,2.5l-3.8,6.5a2.5,2.5,0,0,1-2.2,1.2h-7.5a2.5,2.5,0,0,1-2.2-1.3l-3.7-6.6a2.5,2.5,0,0,1,0-2.5l3.8-6.5a2.5,2.5,0,0,1,2.2-1.2h7.5A2.5,2.5,0,0,1,682.1,386.3Z" style="fill:#6e8c3b"/><path d="M682.1,385.1l3.7,6.6a2.5,2.5,0,0,1,0,2.5l-3.8,6.5a2.5,2.5,0,0,1-2.2,1.2h-7.5a2.5,2.5,0,0,1-2.2-1.3l-3.7-6.6a2.5,2.5,0,0,1,0-2.5l3.8-6.5a2.5,2.5,0,0,1,2.2-1.2H680A2.5,2.5,0,0,1,682.1,385.1Z" style="fill:#8ea43b"/><rect x="176.7" y="296.3" width="29.8" height="53.95" style="fill:#7f6828"/><rect x="573" y="296.3" width="29.8" height="53.95" style="fill:#7f6828"/><rect x="141.7" y="83.1" width="485.5" height="223.7" style="fill:#977f2e"/><rect x="151.6" y="92.2" width="465.7" height="205.5" style="fill:#dcd3c0"/><path d="M620.9,323.3s10.4,43-102.5,48.5-255.7,20.8-296.5,77.6H355.5S438,390.5,521.1,387,634,351.7,630.6,324.7Z" style="fill:#6d6e71"/><polygon points="205 66.3 194.1 79.9 228.9 79.2 218 66.3 205 66.3" style="fill:#6d6e71"/><polygon points="309.8 66.3 298.8 79.9 333.7 79.2 322.8 66.3 309.8 66.3" style="fill:#6d6e71"/><polygon points="414.5 66.3 403.6 79.9 438.5 79.2 427.5 66.3 414.5 66.3" style="fill:#6d6e71"/><polygon points="519.3 66.3 508.4 79.9 543.2 79.2 532.3 66.3 519.3 66.3" style="fill:#6d6e71"/><text></text><path d="M317.2,172.7v40.6H305.9V172.7H290.6v-9.6h42v9.6Z" style="fill:#006838"/><path d="M362.9,213.4H351.5V197.4l-18.6-34.3h11.4l12.9,22.6,12.6-22.6h11.4l-18.3,34Z" style="fill:#006838"/><path d="M421.7,213.4l-24.3-32.2v32.2H386.5V163.1h10.3l24.4,32.3V163.1h10.8v50.3Z" style="fill:#006838"/><path d="M454.5,172.5v10.9h24.3v9.4H454.5V204h27.7v9.4H443.1V163.1h38.3v9.4Z" style="fill:#006838"/><path d="M300.8,220.1c2.1,0,3.4.9,3.4,2.4a2.1,2.1,0,0,1-1.6,2.1,2.3,2.3,0,0,1,2,2.4c0,1.6-1.4,2.6-3.6,2.6h-4.5v-9.4Zm-2.2,3.8h2.1c.8,0,1.3-.4,1.3-1.1s-.5-1-1.3-1h-2.1Zm0,3.9h2.1c1,0,1.6-.4,1.6-1.1s-.6-1.1-1.6-1.1h-2.1Z" style="fill:#006838"/><path d="M307.9,227.7l-.7,1.8H305l4.1-9.4h2.2l4,9.4H313l-.7-1.8Zm2.2-5.4-1.5,3.7h3Z" style="fill:#006838"/><path d="M322.9,229.5l-4.6-6.1v6.1h-2v-9.4h1.9l4.6,6.1v-6.1h2v9.4Z" style="fill:#006838"/><path d="M330.4,225.7l-1.4,1.5v2.3h-2.1v-9.4H329v4.3l3.9-4.3h2.5l-3.5,3.9,3.8,5.5h-2.6Z" style="fill:#006838"/><path d="M345.6,228.5a4.1,4.1,0,0,1-2.7,1.1,2.9,2.9,0,0,1-3.1-2.7c0-1.3.9-2,1.9-2.6a3.5,3.5,0,0,1-.8-2.1c0-1.3,1-2.2,2.6-2.2s2.6.9,2.6,2.1-1.1,2-2.2,2.6l1.6,1.7a7.1,7.1,0,0,0,.7-1.6l1.3,1a8.4,8.4,0,0,1-.9,1.7l1.4,1.4-1.1,1.1Zm-1.1-1.1-2-2.1c-.6.4-1,.8-1,1.4a1.4,1.4,0,0,0,1.5,1.4A2.4,2.4,0,0,0,344.5,227.5Zm-1.5-3.8c.8-.4,1.4-.9,1.4-1.6a.9.9,0,0,0-.9-.9,1,1,0,0,0-1,1A2.6,2.6,0,0,0,343,223.6Z" style="fill:#006838"/><path d="M356.8,220.1c2.1,0,3.4.9,3.4,2.4a2.1,2.1,0,0,1-1.6,2.1,2.3,2.3,0,0,1,2,2.4c0,1.6-1.4,2.6-3.6,2.6h-4.5v-9.4Zm-2.2,3.8h2.1c.8,0,1.3-.4,1.3-1.1s-.5-1-1.3-1h-2.1Zm0,3.9h2.1c1,0,1.6-.4,1.6-1.1s-.6-1.1-1.6-1.1h-2.1Z" style="fill:#006838"/><path d="M370.4,225.6c0,2.5-1.6,4-4.2,4s-4.3-1.6-4.3-4v-5.5H364v5.5a2,2,0,0,0,2.2,2.2,2,2,0,0,0,2.1-2.2v-5.5h2.1Z" style="fill:#006838"/><path d="M372.3,229.5v-9.4h2.1v9.4Z" style="fill:#006838"/><path d="M382.6,227.7v1.9h-6.2v-9.4h2.1v7.6Z" style="fill:#006838"/><path d="M387.9,220.1a4.6,4.6,0,0,1,5,4.7c0,2.8-2.1,4.7-5,4.7h-3.9v-9.4Zm-1.9,7.6H388a2.7,2.7,0,0,0,2.7-2.9,2.8,2.8,0,0,0-2.8-2.9H386Z" style="fill:#006838"/><path d="M394.3,229.5v-9.4h2.1v9.4Z" style="fill:#006838"/><path d="M405.1,229.5l-4.6-6.1v6.1h-2v-9.4h1.9l4.6,6.1v-6.1h2v9.4Z" style="fill:#006838"/><path d="M417.3,224.8v3.6a7,7,0,0,1-3.8,1.2,4.8,4.8,0,1,1,.1-9.6,5.9,5.9,0,0,1,3.8,1.4l-1.2,1.5a3.9,3.9,0,0,0-2.6-1.1,2.9,2.9,0,1,0,0,5.9,4.3,4.3,0,0,0,1.8-.5v-2.5Z" style="fill:#006838"/><path d="M429.4,221l-.8,1.8a6.6,6.6,0,0,0-2.9-1c-.7,0-1.2.3-1.2.8s5,.8,5,4.2c0,1.8-1.6,2.8-3.7,2.8a6.6,6.6,0,0,1-4.2-1.5l.8-1.7a5.6,5.6,0,0,0,3.3,1.4c.9,0,1.4-.3,1.4-.9s-5-.7-5-4.1c0-1.7,1.5-2.8,3.7-2.8A6.7,6.7,0,0,1,429.4,221Z" style="fill:#006838"/><path d="M440.4,224.8a5.1,5.1,0,1,1-5.1-4.8A4.9,4.9,0,0,1,440.4,224.8Zm-8,0a2.9,2.9,0,0,0,2.9,3,2.9,2.9,0,1,0-2.9-3Z" style="fill:#006838"/><path d="M449.6,221.6l-1.2,1.5a3.4,3.4,0,0,0-2.5-1.2,2.9,2.9,0,0,0,0,5.8,3.6,3.6,0,0,0,2.5-1.1l1.3,1.4a5.5,5.5,0,0,1-3.8,1.7,4.8,4.8,0,1,1,.1-9.6A5.4,5.4,0,0,1,449.6,221.6Z" style="fill:#006838"/><path d="M450.9,229.5v-9.4H453v9.4Z" style="fill:#006838"/><path d="M457.3,221.9v2h4.6v1.8h-4.6v2.1h5.2v1.8h-7.3v-9.4h7.2v1.8Z" style="fill:#006838"/><path d="M468.2,221.9v7.6h-2.1v-7.6h-2.9v-1.8h7.9v1.8Z" style="fill:#006838"/><path d="M476.8,229.5h-2.1v-3l-3.5-6.4h2.1l2.4,4.2,2.4-4.2h2.1l-3.4,6.4Z" style="fill:#006838"/><path d="M442.9,163.6h19.4l17.1.3,1.3.2v-8.4h-2l-1.9-1.5v-2.4l3.8,2.9V149c-8.2-6-16.2-12.4-24.7-18a141.3,141.3,0,0,0-32.5-15.8,114.1,114.1,0,0,0-35.8-6.3,107.7,107.7,0,0,0-34.7,5.5,106.5,106.5,0,0,0-21.2,9.3,215.6,215.6,0,0,0-20,12.9c-7.2,5.4-13.9,11.5-20.9,17.3l-1.4,1v8.8Zm-119-6.8-2.3-.7v-.2l-1.9-.2V148l3.4-2.4c.3.4.7.8.7,1.2C323.9,150,323.9,153.2,323.9,156.8Zm-1.2-17.9-.6-1.7,1.9-.8.4.5Zm6.5,17.6h-4.9c0-3.2-.3-6.4.1-9.5s2.3-4.2,4.8-5Zm-4.3-14.3.3-3,3.7-1.8.5,2.3Zm8.5,14.3h-3.7V141.5l3-1.8c.3.5.7.9.7,1.4C333.5,146.1,333.5,151.2,333.5,156.5Zm-4-17,1-2.5,1.5.9Zm9.7,12.8h-.2l-.2-1.6h-.2l-.5,5.7H334c0-4.8,0-9.5,0-14.2a8.3,8.3,0,0,1,.4-2.3c.7-2.2,2.7-2.8,4.7-3.8Zm-4.3-15.9-.4-.4.8-.9c.4-1.9,2.1-2,3.5-3.1l.5,2.3Zm.2-4.6v-1.5l1.3-.7,1.3.8Zm4.3-3.5-1.3.7-1.4-.7,2.9-1.5Zm3.7,27.8v.3h-3.1V135.9l2.6-1.3a5.6,5.6,0,0,1,.6,1.7C343.1,142.9,343.1,149.5,343,156.1Zm6.2.3h-4.8l-.2-2.8h-.2l-.2,1.2h-.2q0-1.2,0-2.5c0-4.7-.1-9.4,0-14.2a29.4,29.4,0,0,1,.8-4.6l4.8-1.9Zm-2.7-33,3.4-1.4-.4,2.3-1.3.5Zm1.4,2.5-3.1,1.4.4-2.2,1.2-.6Zm4.8,30.4h-2.9v-25l2-.9.9,1Zm6.6,0h-6.2c0-1.4,0-2.8,0-4.2q0-9.5,0-19a3.9,3.9,0,0,1,3.1-4.2l3.1-1Zm-5.1-28.5-.2-.5,1.9-1.1-1.7.2-.2-.6,4.5-1.3,1.2,1.4Zm4.2-6.4-1.8-2.1,3.8-1.1-.8,2.7Zm4,34.8h-2.6V128l1.9-.6c.3.6.7,1.1.7,1.6C362.5,138,362.5,147.1,362.5,156.3Zm7-4.7-.2-.9c-1.2,1.7.8,4.4-1.7,5.9l.4,1.1-2.3-.3v-.4h1.1v-.4l-3.9-.2c0-.5-.1-1-.1-1.4,0-8.1,0-16.1.1-24.2a22.8,22.8,0,0,1,.7-4l5.5-1.1V150l.4,1.6ZM364,125.1l.2-1.9,4.5-.6,1.1,1.2Zm3.4-8.5,3.8-.7L370,119C368.7,119.3,367.7,118.4,367.4,116.6Zm-1-1.7v-.7l5.1-.5v.4Zm5.8,37.7c0,1.2-.1,2.4-.2,3.7h-1.9V125.5l1.3-.4a5.7,5.7,0,0,1,.8,1.9C372.3,135.6,372.3,144.1,372.2,152.6Zm7.4,3.7h-6.4v-2.7H373v.8h-.1v-1.9h.1a8.2,8.2,0,0,1-.3-1.6c0-7.8,0-15.5.1-23.3a9.8,9.8,0,0,1,.9-2.8l6-.7Zm-4-34.4-1.4.2v-.4l2.1-.3h2.7l.7,1-5.7.9v-.5l1.8-.6Zm2-7,4.6-.4-2.5,4.1Zm4.3,41.4h-1.6V123.6l1.6,1.5Zm7.9,0h-7.4c0-.4,0-1,0-1.5,0-9.2,0-18.4,0-27.6a16,16,0,0,1,.7-3.3h6.6Zm-5-40.2-.9,3C383.3,117.6,383.3,117.6,384.8,116Zm.2,2.9,2.2-4.2,1.9,4.2Zm3.7-3.8c1.1-1.7,2.8-.4,4.7-1l-3.1,4.2Zm3.1,40.3c0,.2,0,.5-.1.8h-1.3V123.8l.6-.2a7.9,7.9,0,0,1,.8,2.4C391.9,135.8,391.8,145.6,391.7,155.4Zm2.5-40.9.4.2-1.8,3.1-.6-.4Zm6,19.6c0,4.2,0,8.3-.1,12.5s-.1,5.5-.4,8.2a1.9,1.9,0,0,1-1.3,1.4c-2,.2-4,.1-6.2.1V125.3l1.3-1.5,6.6.5C400.2,127.6,400.2,130.9,400.2,134.1Zm-.5-11.5-6.1-.6C394.5,120.7,398.3,120.8,399.7,122.6Zm-4.7-3.2,2.9-4.4,1.6,4.6Zm6.8,36.7-.6.3a4.7,4.7,0,0,1-.5-1.4c0-6,0-12,0-18q0-6,0-12h.5a8,8,0,0,1,.7,2.2c0,9.3-.1,18.7-.2,28A6.9,6.9,0,0,0,401.8,156Zm8.8.1h-8.2V126l.9-1.2,7.3,1.3Zm.9,0h-.3V127.3h.3Zm9.7,0h-9c0-1.3,0-2.4,0-3.6,0-7.8.1-15.6.1-23.4a11,11,0,0,1,.7-2.5c2.5.7,4.7,1.2,6.9,1.9a2.2,2.2,0,0,1,1.3,1.5C421.3,138.7,421.2,147.4,421.2,156.2Zm.6-.3h-.2v-25h.2Zm7,.4c-2.1-.2-4.3,0-6.5,0,0-3.8,0-7.6,0-11.3s0-8.7.1-13a12.2,12.2,0,0,1,.6-2.5c2.6,1,5.1,1.8,7.3,2.9a3.2,3.2,0,0,1,1.3,2.4c.1,5.5,0,10.9,0,16.4a5.8,5.8,0,0,1-.4,1.3C432.3,155,431.8,156.5,428.8,156.3Zm36.7-.4v-3.6l5,3.6Zm8.3.4-5.7-4.3.3-.4,5.6,4.2Zm.4-5.4v2.8l-5-3.7,3.4-.4Zm-9-8.3,5.3,4c-2.9.8-3.1.8-5.2-1.1,0-.4-.1-.9-.1-1.4S465.2,143.2,465.2,142.5Zm-1.6,12.3-1.3-.5,1.6,1.9h-9.8V144.5c2.3,1.5,4.3,2.9,6.4,4.1a7,7,0,0,1,3,4.2A6.7,6.7,0,0,1,463.6,154.8Zm-.6-12.5.2,3.2-5.3-3.4,3.5-1Zm-3.7-3.9-3.4,1-1.7-1.1-.3-3.4ZM453,156.2H443c.2-5.8-.3-11.7.4-17.9a86.3,86.3,0,0,1,7.6,4.5,5.2,5.2,0,0,1,1.8,3.4C453.1,149.5,453,152.7,453,156.2Zm-.9-21,.3,3.6-5.3-3,3.5-1.5Zm-3.8-3.7-3.6,1.5-1.6-.8-.5-3.9Zm-5.8,24.7H432.4l1-1.6-.9.2.5-3.1-.3.2c0-3.8,0-7.5,0-11.2,0-1.6-.1-3.3,0-4.9a13,13,0,0,1,.6-2.4,82.6,82.6,0,0,1,7.4,3.7,4.2,4.2,0,0,1,1.7,3C442.6,145.4,442.5,150.7,442.5,156.2ZM441.3,129l.5,3.9-5.4-2.5,3.6-2.1Zm-7.6-1.1-1.5-.7-.5-4,5.6,2.5Zm-2.2-7.4,3.5,1.7-.3.5-3.6-1.5Zm-.8,3.6.5,4-5.4-1.9,3.5-2.7Zm-7.9-.3-1.3-.6-.7-4,5.4,1.9Zm-2.4-7.6,3.8,1.8-.2.5-4-1.6Zm-1.2,3.6c1.3,1.1,1.2,2.6,1.2,4.4l-4.4-1.1Zm-7.6.8c-.7-.2-1.6-2.2-1.2-4.1l4.7,1.2Zm1.4-6.2h0l.7,1c-1.8-.9-3.6-.1-4.8-2.3l4.1,1.2Zm-2.8,7.1-4.9-.8,3.3-4Zm-4.1-5.9,1.7.4-2.7,1.7Zm-5.2,3.8-1.8-4.7,5.1.7Zm1.8-6.7v.4l-4.1-.2-.7-1.6Zm-6.8,3.7-1.9,2.9-.5-.3,1.8-2.9Zm-3.6-4.5-2.3-1,4.9.3v.4l-2.7.3.9.4a1.5,1.5,0,0,1,1.2.5l-3-.4v-.2l-3.5.2-1.1-1.6Zm-8.1,2.5,1.8.2-1.1,1.4-1.1.4Zm-.8,2.5-1.5,1.3-.2-.2,1.8-3.6h.3Zm-1.7-5.7h2c-.4,1.6-3,2.2-6.4,1.4l4.1-.3-.9-.3,1.2-.8Zm0,0-4.4.8v-.8Zm-4.6,4.8,1.9,3.2-4,.5,1.5-3.7Zm-3.6-.5,1.8-.2.2.4-1.9,1.8Zm-.1,2.5,1.8-1.6-1.4,3.4H373Zm-.4-.3-1.2,1.8-.5-.4,1.4-3.4h.3Zm-3-5.4c.1,0,.4.3.5.5l2.3-1-.6,2-3.2-.8-3,.8v-.5Zm-3.4,5.4,2.2,2.7-3.8.8,1.1-3.4Zm-1.6-.6-.9,1.4-.3,3.1h-.9l.3-2.1-.5-1.7Zm-2.5.8v1.8l-1.4,1.7-.3-.2,1.1-3.4Zm-3.1-2.7,2.5-1.1-.5,1.7-2.7.5v.2l2.3-.3v.4l-5.2,1.3v-.3l3.6-2.3Zm-.2-.5.2.5-3.9,1.5-.2-.6Zm-3,5.5,2.2,2.6-3.6,1.1Zm-3.7,1,1.9-.8-.5,1.3a1.9,1.9,0,0,1-1.2,2.7l.4-2h-.6Zm0,1.3h0l-1.2,2.2-.6-.3,1-3.6Zm-3.6-4.1,2.2-.8-.3,1.7-2.7.8,2.3-.3v.3l-5.2,1.6-.2-.5,3-1.2h-.7l.8-.9-3.4,1.6-.3-.6Zm-.1,9.1.8,2.4-5,1.9-.3-.6Zm-6.5.8,1.2-2.9.6.3C343.9,126.7,344.3,127.8,342.1,128.3Zm-.1-6.7,1.5,1.2-2.2.9Zm.1,4.5-1.1,2.8-.8-.3.9-2.8Zm-3.5-3.3,1.8-.9-.6,2.8-4.9,2.3-.2-.4,1-1.2-1.8.2-.2-.5ZM332,127l1.3,1-1.9,1-.5-1.4Zm-1.4,4.6H332l1.4-1.9.5.2v2.5l-1.9.2-1.8,1.2Zm-2.2-3.4,1.3-.7c.8,3.8-2.7,4-4.8,5.4l-.3-.5,3.5-3.7-2.2,1.8-2,1.3-.4-.7Zm-6.7,5,1.7.9-2.1,1.2-.6-1.4Zm-1.4,10,1.9.6-2.6,2Zm-12.4,11.7-1.4,1.1-1.1-.4v-2.5l2.5-1.5Zm1.6.9,4.3-3.5.4,3.5Zm9.6,0h-3.2l-.5-1.8-.5,1.7h-.2V153l3.8-4.6.6.4Zm-4.1-8.2,3.9-4.4.3,2.5Zm3.3-13,1.3-.7-.3,3.3-4,2.7-.8-.4,1.5-2.2-2.2,1.6-.3-.4C314.8,137,316.1,135.3,318.2,134.6Zm-6.6,5.6,1.9.9-2,1.7-.9-1.6ZM310,150.7l1.8.3-1.8,2.4-.6-.3Zm-1.2-9.5c.5,1.7.7,3-1.2,3.7s-1.6,1.3-2.6,1.8Zm-4.6,14.2-1.2,2v-.6H301l3.1-2.6Zm-4.3-5.6,1.1-.9,1.5.7-2.6,3.2Zm-8.1,6.6-.3-.5,7.2-5.9v4l-2.6,2.3Z" style="fill:#006838"/><text transform="translate(167.8 274.1)" style="font-size:24.594331741333008px;fill:#a3c23b;font-family:Montserrat-SemiBold, Montserrat;font-weight:700">HELPING KEEP <tspan x="190.9" y="0" style="letter-spacing:-0.018979856005418738em">Y</tspan><tspan x="206.9" y="0">OUR </tspan><tspan x="269.1" y="0" style="letter-spacing:-0.048998205670892726em">P</tspan><tspan x="284.6" y="0">ARK CLEAN!</tspan></text><path d="M166.1,352.2s9.5-20.6,8.3-33.6c0,0,2.2,19.4.1,26.1,0,0,4.2-7.5,6.6-9.3,0,0-3.2,7.3-2,12.1,0,0,7.6-.7,9.5-17,0,0,.4,15.8,1.6,19.4,0,0,5.1-17.4,7.5-20.6,0,0-.8,12.7,0,15.8a18,18,0,0,0,4.8-4.7s-3.6,6.7-.9,9.8c0,0,6.7-3.6,8.3-11.1,0,0,.4,8.7,2.8,13Z" style="fill:#d3de46"/><path d="M123.9,352.2s9.5-20.6,8.3-33.6c0,0,2.2,19.4.1,26.1,0,0,4.2-7.5,6.6-9.3,0,0-3.2,7.3-2,12.1,0,0,7.6-.7,9.5-17,0,0,.4,15.8,1.6,19.4,0,0,5.1-17.4,7.5-20.6,0,0-.8,12.7,0,15.8a18,18,0,0,0,4.8-4.7s-3.6,6.7-.9,9.8c0,0,6.7-3.6,8.3-11.1,0,0,.4,8.7,2.8,13Z" style="fill:#d3de46"/><path d="M256.5,352.2s9.5-20.6,8.3-33.6c0,0,2.2,19.4.1,26.1,0,0,4.2-7.5,6.6-9.3,0,0-3.2,7.3-2,12.1,0,0,7.6-.7,9.5-17,0,0,.4,15.8,1.6,19.4,0,0,5.1-17.4,7.5-20.6,0,0-.8,12.7,0,15.8a18,18,0,0,0,4.8-4.7s-3.6,6.7-.9,9.8c0,0,6.7-3.6,8.3-11.1,0,0,.4,8.7,2.8,13Z" style="fill:#d3de46"/><path d="M214.3,352.2s9.5-20.6,8.3-33.6c0,0,2.2,19.4.1,26.1,0,0,4.2-7.5,6.6-9.3,0,0-3.2,7.3-2,12.1,0,0,7.6-.7,9.5-17,0,0,.4,15.8,1.6,19.4,0,0,5.1-17.4,7.5-20.6,0,0-.8,12.7,0,15.8a18,18,0,0,0,4.8-4.7s-3.6,6.7-.9,9.8c0,0,6.7-3.6,8.3-11.1,0,0,.4,8.7,2.8,13Z" style="fill:#d3de46"/><path d="M418.2,352.2s9.5-20.6,8.3-33.6c0,0,2.2,19.4.1,26.1,0,0,4.2-7.5,6.6-9.3,0,0-3.2,7.3-2,12.1,0,0,7.6-.7,9.5-17,0,0,.4,15.8,1.6,19.4,0,0,5.1-17.4,7.5-20.6,0,0-.8,12.7,0,15.8a18,18,0,0,0,4.8-4.7s-3.6,6.7-.9,9.8c0,0,6.7-3.6,8.3-11.1,0,0,.4,8.7,2.8,13Z" style="fill:#d3de46"/><path d="M376,352.2s9.5-20.6,8.3-33.6c0,0,2.2,19.4.1,26.1,0,0,4.2-7.5,6.6-9.3,0,0-3.2,7.3-2,12.1,0,0,7.6-.7,9.5-17,0,0,.4,15.8,1.6,19.4,0,0,5.1-17.4,7.5-20.6,0,0-.8,12.7,0,15.8a18,18,0,0,0,4.8-4.7s-3.6,6.7-.9,9.8c0,0,6.7-3.6,8.3-11.1,0,0,.4,8.7,2.8,13Z" style="fill:#d3de46"/><path d="M558,350.8s9.5-20.6,8.3-33.6c0,0,2.2,19.4.1,26.1,0,0,4.2-7.5,6.6-9.3,0,0-3.2,7.3-2,12.1,0,0,7.6-.7,9.5-17,0,0,.4,15.8,1.6,19.4,0,0,5.1-17.4,7.5-20.6,0,0-.8,12.7,0,15.8a18,18,0,0,0,4.8-4.7s-3.6,6.7-.9,9.8c0,0,6.7-3.6,8.3-11.1,0,0,.4,8.7,2.8,13Z" style="fill:#d3de46"/><path d="M515.9,350.8s9.5-20.6,8.3-33.6c0,0,2.2,19.4.1,26.1,0,0,4.2-7.5,6.6-9.3,0,0-3.2,7.3-2,12.1,0,0,7.6-.7,9.5-17,0,0,.4,15.8,1.6,19.4,0,0,5.1-17.4,7.5-20.6,0,0-.8,12.7,0,15.8a18,18,0,0,0,4.8-4.7s-3.6,6.7-.9,9.8c0,0,6.7-3.6,8.3-11.1,0,0,.4,8.7,2.8,13Z" style="fill:#d3de46"/></g></svg>