<svg id="Layer_1" data-name="Layer 1" xmlns="http://www.w3.org/2000/svg" xmlns:xlink="http://www.w3.org/1999/xlink" viewBox="0 0 800 450"><defs><clipPath id="clip-path"><rect y="-678.1" width="800" height="449.49" style="fill:none"/></clipPath><clipPath id="clip-path-2"><rect x="-847.6" width="800" height="450" style="fill:none"/></clipPath><clipPath id="clip-path-3"><rect width="800" height="450" style="fill:none"/></clipPath><clipPath id="clip-path-4"><rect x="862" width="800" height="449.49" style="fill:none"/></clipPath></defs><title>trading</title><path d="M231,187.2l28.6,16.5a10.9,10.9,0,0,1,5.5,9.5v33a10.9,10.9,0,0,1-5.5,9.5L231,272.1a10.9,10.9,0,0,1-10.9,0l-28.6-16.5a10.9,10.9,0,0,1-5.5-9.5v-33a10.9,10.9,0,0,1,5.5-9.5L220,187.2A10.9,10.9,0,0,1,231,187.2Z" style="fill:#6e8c3b"/><path d="M228.6,182.9l28.6,16.5a10.9,10.9,0,0,1,5.5,9.5v33a10.9,10.9,0,0,1-5.5,9.5l-28.6,16.5a10.9,10.9,0,0,1-10.9,0l-28.6-16.5a10.9,10.9,0,0,1-5.5-9.5v-33a10.9,10.9,0,0,1,5.5-9.5l28.6-16.5A10.9,10.9,0,0,1,228.6,182.9Z" style="fill:#a3c23a"/><polygon points="224.6 218.1 224.2 232.3 209.2 213.8 224.1 233.9 220.5 351.6 228.2 351.6 225.9 255.2 232.7 232.3 225.7 247.7 224.6 218.1" style="fill:#967e2e"/><path d="M197.1,211.4l22.4,12.9a8.6,8.6,0,0,1,4.3,7.4v25.9a8.6,8.6,0,0,1-4.3,7.4L197.1,278a8.6,8.6,0,0,1-8.6,0l-22.4-12.9a8.6,8.6,0,0,1-4.3-7.4V231.8a8.6,8.6,0,0,1,4.3-7.4l22.4-12.9A8.6,8.6,0,0,1,197.1,211.4Z" style="fill:#bbbe3a"/><path d="M194.5,208.4l22.4,12.9a8.6,8.6,0,0,1,4.3,7.4v25.9a8.6,8.6,0,0,1-4.3,7.4L194.5,275a8.6,8.6,0,0,1-8.6,0l-22.4-12.9a8.6,8.6,0,0,1-4.3-7.4V228.8a8.6,8.6,0,0,1,4.3-7.4l22.4-12.9A8.6,8.6,0,0,1,194.5,208.4Z" style="fill:#d3de46"/><polygon points="188.9 242.3 188.5 253.3 176.9 239 188.5 254.6 185.7 356 191.7 356 189.9 271 195.1 253.3 189.7 265.2 188.9 242.3" style="fill:#967e2e"/><g style="clip-path:url(#clip-path)"><path d="M619.7-165.4l52.4-50.2s14.7,68-27.8,316.2H628.6Z" style="fill:#1485b3"/><path d="M607.7-165.4l-52.4-50.2s-14.7,68,27.8,316.2h15.7Z" style="fill:#02679a"/><path d="M598.7,100.6H583s-40.5,15.7-36,24.6h52.5Z" style="fill:#c72624"/><path d="M628.8,100.6h15.7s40.5,15.7,35.9,24.6H627.9Z" style="fill:#ea5050"/></g><g style="clip-path:url(#clip-path-2)"><path d="M-866.9,573H49.5L32,423.7s-309.8-35.4-460.7-35.4S-809,409.9-890,414.9" style="fill:#8ea43b"/></g><g style="clip-path:url(#clip-path-3)"><path d="M-98.5,549.4H817.9l-9.5-182.9s-317.8-25.8-468.7-25.8S-18,363.9-99,368.9" style="fill:#a3c23b"/><path d="M25.9,409.4s6-15.5,4.5-24.9c0,0,2.5,14.1,1.3,19.1,0,0,2.8-5.7,4.4-7.1,0,0-2,5.5-.9,8.9,0,0,5.5-.9,6.2-12.9,0,0,1,11.5,2,14.1,0,0,3-12.9,4.6-15.4,0,0,0,9.3.7,11.6a13.2,13.2,0,0,0,3.3-3.7s-2.4,5-.2,7.2a13,13,0,0,0,5.6-8.5s.7,6.3,2.6,9.4Z" style="fill:#d3de46"/><path d="M-4.9,411.3s6-15.5,4.5-24.9c0,0,2.5,14.1,1.3,19.1,0,0,2.8-5.7,4.4-7.1,0,0-2,5.5-.9,8.9,0,0,5.5-.9,6.2-12.9,0,0,1,11.5,2,14.1,0,0,3-12.9,4.6-15.4,0,0,0,9.3.7,11.6a13.2,13.2,0,0,0,3.3-3.7s-2.4,5-.2,7.2a13,13,0,0,0,5.6-8.5s.7,6.3,2.6,9.4Z" style="fill:#d3de46"/><path d="M91.9,405.3s6-15.5,4.5-24.9c0,0,2.5,14.1,1.3,19.1,0,0,2.8-5.7,4.4-7.1,0,0-2,5.5-.9,8.9,0,0,5.5-.9,6.2-12.9,0,0,1,11.5,2,14.1,0,0,3-12.9,4.6-15.4,0,0,0,9.3.7,11.6A13.2,13.2,0,0,0,118,395s-2.4,5-.2,7.2a13,13,0,0,0,5.6-8.5s.7,6.3,2.6,9.4Z" style="fill:#d3de46"/><path d="M61.1,407.2s6-15.5,4.5-24.9c0,0,2.5,14.1,1.3,19.1,0,0,2.8-5.7,4.4-7.1,0,0-2,5.5-.9,8.9,0,0,5.5-.9,6.2-12.9,0,0,1,11.5,2,14.1,0,0,3-12.9,4.6-15.4,0,0,0,9.3.7,11.6a13.2,13.2,0,0,0,3.3-3.7s-2.4,5-.2,7.2a13,13,0,0,0,5.6-8.5s.7,6.3,2.6,9.4Z" style="fill:#d3de46"/><path d="M-19.3,573H897L879.6,423.7s-309.8-35.4-460.7-35.4S38.6,409.9-42.4,414.9" style="fill:#8ea43b"/><path d="M661.5,398.6s7-15,6.1-24.6c0,0,1.6,14.2.1,19.1,0,0,3.1-5.5,4.8-6.8,0,0-2.3,5.4-1.4,8.8,0,0,5.6-.5,7-12.5,0,0,.3,11.6,1.2,14.2,0,0,3.8-12.7,5.5-15,0,0-.6,9.3,0,11.6a13.2,13.2,0,0,0,3.5-3.4s-2.7,4.9-.6,7.2a13,13,0,0,0,6.1-8.1s.3,6.3,2,9.5Z" style="fill:#d3de46"/><path d="M712.3,425.1s7-15,6.1-24.6c0,0,1.6,14.2.1,19.1,0,0,3.1-5.5,4.8-6.8,0,0-2.3,5.4-1.4,8.8,0,0,5.6-.5,7-12.5,0,0,.3,11.6,1.2,14.2,0,0,3.8-12.7,5.5-15,0,0-.6,9.3,0,11.6a13.2,13.2,0,0,0,3.5-3.4s-2.7,4.9-.6,7.2a13,13,0,0,0,6.1-8.1s.3,6.3,2,9.5Z" style="fill:#d3de46"/><path d="M472.9,382.3s7-15,6.1-24.6c0,0,1.6,14.2.1,19.1,0,0,3.1-5.5,4.8-6.8,0,0-2.3,5.4-1.4,8.8,0,0,5.6-.5,7-12.5,0,0,.3,11.6,1.2,14.2,0,0,3.8-12.7,5.5-15,0,0-.6,9.3,0,11.6a13.2,13.2,0,0,0,3.5-3.4s-2.7,4.9-.6,7.2a13,13,0,0,0,6.1-8.1s.3,6.3,2,9.5Z" style="fill:#d3de46"/><path d="M189.1,379.4l6.3,3.6a2.4,2.4,0,0,1,1.2,2.1v7.3a2.4,2.4,0,0,1-1.2,2.1l-6.3,3.6a2.4,2.4,0,0,1-2.4,0l-6.3-3.6a2.4,2.4,0,0,1-1.2-2.1v-7.3a2.4,2.4,0,0,1,1.2-2.1l6.3-3.6A2.4,2.4,0,0,1,189.1,379.4Z" style="fill:#bbbe3a"/><path d="M189.2,375.7l7.1,4.1a2.7,2.7,0,0,1,1.4,2.4v8.2a2.7,2.7,0,0,1-1.4,2.4l-7.1,4.1a2.7,2.7,0,0,1-2.7,0l-7.1-4.1a2.7,2.7,0,0,1-1.4-2.4v-8.2a2.7,2.7,0,0,1,1.4-2.4l7.1-4.1A2.7,2.7,0,0,1,189.2,375.7Z" style="fill:#d3de46"/><path d="M175.6,386.2l6.3,3.6a2.4,2.4,0,0,1,1.2,2.1v7.3a2.4,2.4,0,0,1-1.2,2.1l-6.3,3.6a2.4,2.4,0,0,1-2.4,0l-6.3-3.6a2.4,2.4,0,0,1-1.2-2.1v-7.3a2.4,2.4,0,0,1,1.2-2.1l6.3-3.6A2.4,2.4,0,0,1,175.6,386.2Z" style="fill:#bbbe3a"/><path d="M175.6,382.4l7.1,4.1a2.7,2.7,0,0,1,1.4,2.4v8.2a2.7,2.7,0,0,1-1.4,2.4l-7.1,4.1a2.7,2.7,0,0,1-2.7,0l-7.1-4.1a2.7,2.7,0,0,1-1.4-2.4v-8.2a2.7,2.7,0,0,1,1.4-2.4l7.1-4.1A2.7,2.7,0,0,1,175.6,382.4Z" style="fill:#d3de46"/><rect x="176.9" y="400" width="10.1" height="6.41" style="fill:#6e8c3b"/><path d="M173.3,381.3l1.5,2.6a1,1,0,0,1,0,1l-1.5,2.6a1,1,0,0,1-.9.5h-3a1,1,0,0,1-.9-.5l-1.5-2.6a1,1,0,0,1,0-1l1.5-2.6a1,1,0,0,1,.9-.5h3A1,1,0,0,1,173.3,381.3Z" style="fill:#6e8c3b"/><path d="M173.3,380.8l1.5,2.6a1,1,0,0,1,0,1l-1.5,2.6a1,1,0,0,1-.9.5h-3a1,1,0,0,1-.9-.5l-1.5-2.6a1,1,0,0,1,0-1l1.5-2.6a1,1,0,0,1,.9-.5h3A1,1,0,0,1,173.3,380.8Z" style="fill:#8ea43b"/><path d="M184.5,378.3l9.2,5.3a3.5,3.5,0,0,1,1.8,3.1v10.7a3.5,3.5,0,0,1-1.8,3.1l-9.2,5.3a3.5,3.5,0,0,1-3.5,0l-9.2-5.3a3.5,3.5,0,0,1-1.8-3.1V386.7a3.5,3.5,0,0,1,1.8-3.1l9.2-5.3A3.5,3.5,0,0,1,184.5,378.3Z" style="fill:#6e8c3b"/><path d="M183.7,376.9l9.2,5.3a3.5,3.5,0,0,1,1.8,3.1V396A3.5,3.5,0,0,1,193,399l-9.2,5.3a3.5,3.5,0,0,1-3.5,0l-9.2-5.3a3.5,3.5,0,0,1-1.8-3.1V385.3a3.5,3.5,0,0,1,1.8-3.1l9.2-5.3A3.5,3.5,0,0,1,183.7,376.9Z" style="fill:#a3c23a"/><path d="M196.6,388.3l3.7,6.6a2.5,2.5,0,0,1,0,2.5l-3.8,6.5a2.5,2.5,0,0,1-2.2,1.2h-7.5a2.5,2.5,0,0,1-2.2-1.3l-3.7-6.6a2.5,2.5,0,0,1,0-2.5l3.8-6.5a2.5,2.5,0,0,1,2.2-1.2h7.5A2.5,2.5,0,0,1,196.6,388.3Z" style="fill:#6e8c3b"/><path d="M196.7,387.2l3.7,6.6a2.5,2.5,0,0,1,0,2.5l-3.8,6.5a2.5,2.5,0,0,1-2.2,1.2h-7.5a2.5,2.5,0,0,1-2.2-1.3l-3.7-6.6a2.5,2.5,0,0,1,0-2.5l3.8-6.5a2.5,2.5,0,0,1,2.2-1.2h7.5A2.5,2.5,0,0,1,196.7,387.2Z" style="fill:#8ea43b"/><path d="M597.5,334.2l7.1,4.1a2.7,2.7,0,0,1,1.4,2.4v8.2a2.7,2.7,0,0,1-1.4,2.4l-7.1,4.1a2.7,2.7,0,0,1-2.7,0l-7.1-4.1a2.7,2.7,0,0,1-1.4-2.4v-8.2a2.7,2.7,0,0,1,1.4-2.4l7.1-4.1A2.7,2.7,0,0,1,597.5,334.2Z" style="fill:#bbbe3a"/><path d="M597.5,329.9l8,4.6a3.1,3.1,0,0,1,1.5,2.7v9.3a3.1,3.1,0,0,1-1.5,2.7l-8,4.6a3.1,3.1,0,0,1-3.1,0l-8-4.6a3.1,3.1,0,0,1-1.5-2.7v-9.3a3.1,3.1,0,0,1,1.5-2.7l8-4.6A3.1,3.1,0,0,1,597.5,329.9Z" style="fill:#d3de46"/><path d="M582.2,341.8l7.1,4.1a2.7,2.7,0,0,1,1.4,2.4v8.2a2.7,2.7,0,0,1-1.4,2.4l-7.1,4.1a2.7,2.7,0,0,1-2.7,0l-7.1-4.1a2.7,2.7,0,0,1-1.4-2.4v-8.2a2.7,2.7,0,0,1,1.4-2.4l7.1-4.1A2.7,2.7,0,0,1,582.2,341.8Z" style="fill:#bbbe3a"/><path d="M582.2,337.6l8,4.6a3.1,3.1,0,0,1,1.5,2.7v9.3a3.1,3.1,0,0,1-1.5,2.7l-8,4.6a3.1,3.1,0,0,1-3.1,0l-8-4.6a3.1,3.1,0,0,1-1.5-2.7v-9.3a3.1,3.1,0,0,1,1.5-2.7l8-4.6A3.1,3.1,0,0,1,582.2,337.6Z" style="fill:#d3de46"/><rect x="583.7" y="357.4" width="11.4" height="7.24" style="fill:#6e8c3b"/><path d="M579.6,336.3l1.7,3a1.1,1.1,0,0,1,0,1.1l-1.7,2.9a1.1,1.1,0,0,1-1,.6h-3.4a1.1,1.1,0,0,1-1-.6l-1.7-3a1.1,1.1,0,0,1,0-1.1l1.7-2.9a1.1,1.1,0,0,1,1-.6h3.4A1.1,1.1,0,0,1,579.6,336.3Z" style="fill:#6e8c3b"/><path d="M579.6,335.8l1.7,3a1.1,1.1,0,0,1,0,1.1l-1.7,2.9a1.1,1.1,0,0,1-1,.6h-3.4a1.1,1.1,0,0,1-1-.6l-1.7-3a1.1,1.1,0,0,1,0-1.1l1.7-2.9a1.1,1.1,0,0,1,1-.6h3.4A1.1,1.1,0,0,1,579.6,335.8Z" style="fill:#8ea43b"/><path d="M592.2,332.9l10.4,6a4,4,0,0,1,2,3.5v12.1a4,4,0,0,1-2,3.5l-10.4,6a4,4,0,0,1-4,0l-10.4-6a4,4,0,0,1-2-3.5V342.4a4,4,0,0,1,2-3.5l10.4-6A4,4,0,0,1,592.2,332.9Z" style="fill:#6e8c3b"/><path d="M591.4,331.3l10.4,6a4,4,0,0,1,2,3.5v12.1a4,4,0,0,1-2,3.5l-10.4,6a4,4,0,0,1-4,0l-10.4-6a4,4,0,0,1-2-3.5V340.8a4,4,0,0,1,2-3.5l10.4-6A4,4,0,0,1,591.4,331.3Z" style="fill:#a3c23a"/><path d="M605.9,344.2l4.2,7.4a2.8,2.8,0,0,1,0,2.8l-4.3,7.3a2.8,2.8,0,0,1-2.5,1.4h-8.5a2.8,2.8,0,0,1-2.4-1.4l-4.2-7.4a2.8,2.8,0,0,1,0-2.8l4.3-7.3a2.8,2.8,0,0,1,2.5-1.4h8.5A2.8,2.8,0,0,1,605.9,344.2Z" style="fill:#6e8c3b"/><path d="M606,342.9l4.2,7.4a2.8,2.8,0,0,1,0,2.8l-4.3,7.3a2.8,2.8,0,0,1-2.5,1.4h-8.5a2.8,2.8,0,0,1-2.4-1.4l-4.2-7.4a2.8,2.8,0,0,1,0-2.8l4.3-7.3a2.8,2.8,0,0,1,2.5-1.4h8.5A2.8,2.8,0,0,1,606,342.9Z" style="fill:#8ea43b"/><path d="M710.7,407.8l7.1,4.1a2.7,2.7,0,0,1,1.4,2.4v8.2a2.7,2.7,0,0,1-1.4,2.4l-7.1,4.1a2.7,2.7,0,0,1-2.7,0l-7.1-4.1a2.7,2.7,0,0,1-1.4-2.4v-8.2a2.7,2.7,0,0,1,1.4-2.4l7.1-4.1A2.7,2.7,0,0,1,710.7,407.8Z" style="fill:#bbbe3a"/><path d="M710.7,403.6l8,4.6a3.1,3.1,0,0,1,1.5,2.7v9.3a3.1,3.1,0,0,1-1.5,2.7l-8,4.6a3.1,3.1,0,0,1-3.1,0l-8-4.6a3.1,3.1,0,0,1-1.5-2.7v-9.3a3.1,3.1,0,0,1,1.5-2.7l8-4.6A3.1,3.1,0,0,1,710.7,403.6Z" style="fill:#d3de46"/><path d="M695.4,415.5l7.1,4.1a2.7,2.7,0,0,1,1.4,2.4v8.2a2.7,2.7,0,0,1-1.4,2.4l-7.1,4.1a2.7,2.7,0,0,1-2.7,0l-7.1-4.1a2.7,2.7,0,0,1-1.4-2.4v-8.2a2.7,2.7,0,0,1,1.4-2.4l7.1-4.1A2.7,2.7,0,0,1,695.4,415.5Z" style="fill:#bbbe3a"/><path d="M695.4,411.2l8,4.6a3.1,3.1,0,0,1,1.5,2.7v9.3a3.1,3.1,0,0,1-1.5,2.7l-8,4.6a3.1,3.1,0,0,1-3.1,0l-8-4.6a3.1,3.1,0,0,1-1.5-2.7v-9.3a3.1,3.1,0,0,1,1.5-2.7l8-4.6A3.1,3.1,0,0,1,695.4,411.2Z" style="fill:#d3de46"/><rect x="696.9" y="431.1" width="11.4" height="7.24" style="fill:#6e8c3b"/><path d="M692.8,410l1.7,3a1.1,1.1,0,0,1,0,1.1l-1.7,2.9a1.1,1.1,0,0,1-1,.6h-3.4a1.1,1.1,0,0,1-1-.6l-1.7-3a1.1,1.1,0,0,1,0-1.1l1.7-2.9a1.1,1.1,0,0,1,1-.6h3.4A1.1,1.1,0,0,1,692.8,410Z" style="fill:#6e8c3b"/><path d="M692.8,409.4l1.7,3a1.1,1.1,0,0,1,0,1.1l-1.7,2.9a1.1,1.1,0,0,1-1,.6h-3.4a1.1,1.1,0,0,1-1-.6l-1.7-3a1.1,1.1,0,0,1,0-1.1l1.7-2.9a1.1,1.1,0,0,1,1-.6h3.4A1.1,1.1,0,0,1,692.8,409.4Z" style="fill:#8ea43b"/><path d="M705.4,406.6l10.4,6a4,4,0,0,1,2,3.5v12.1a4,4,0,0,1-2,3.5l-10.4,6a4,4,0,0,1-4,0l-10.4-6a4,4,0,0,1-2-3.5V416.1a4,4,0,0,1,2-3.5l10.4-6A4,4,0,0,1,705.4,406.6Z" style="fill:#6e8c3b"/><path d="M704.5,405l10.4,6a4,4,0,0,1,2,3.5v12.1a4,4,0,0,1-2,3.5l-10.4,6a4,4,0,0,1-4,0l-10.4-6a4,4,0,0,1-2-3.5V414.5a4,4,0,0,1,2-3.5l10.4-6A4,4,0,0,1,704.5,405Z" style="fill:#a3c23a"/><path d="M719.1,417.9l4.2,7.4a2.8,2.8,0,0,1,0,2.8l-4.3,7.3a2.8,2.8,0,0,1-2.5,1.4H708a2.8,2.8,0,0,1-2.4-1.4l-4.2-7.4a2.8,2.8,0,0,1,0-2.8l4.3-7.3a2.8,2.8,0,0,1,2.5-1.4h8.5A2.8,2.8,0,0,1,719.1,417.9Z" style="fill:#6e8c3b"/><path d="M719.1,416.6l4.2,7.4a2.8,2.8,0,0,1,0,2.8l-4.3,7.3a2.8,2.8,0,0,1-2.5,1.4H708a2.8,2.8,0,0,1-2.4-1.4l-4.2-7.4a2.8,2.8,0,0,1,0-2.8l4.3-7.3a2.8,2.8,0,0,1,2.5-1.4h8.5A2.8,2.8,0,0,1,719.1,416.6Z" style="fill:#8ea43b"/><path d="M235.7,402.5c0-.5,4.2-.9,9.3-.9s9.3.4,9.3.9-4.2.9-9.3.9-9.3-.4-9.3-.9" style="fill:#687833"/><path d="M247.2,347.1l10.4,6a4,4,0,0,1,2,3.5v12a4,4,0,0,1-2,3.5l-10.4,6a4,4,0,0,1-4,0l-10.4-6a4,4,0,0,1-2-3.5v-12a4,4,0,0,1,2-3.5l10.4-6a4,4,0,0,1,4,0" style="fill:#c4bf2f"/><path d="M246.4,345.6l10.4,6a4,4,0,0,1,2,3.5v12a4,4,0,0,1-2,3.5l-10.4,6a4,4,0,0,1-4,0l-10.4-6a4,4,0,0,1-2-3.5V355a4,4,0,0,1,2-3.5l10.4-6a4,4,0,0,1,4,0" style="fill:#dbdc2b"/><polygon points="244.9 358.4 244.8 363.6 239.3 356.8 244.7 364.2 243.4 402.7 246.2 402.7 245.4 372 247.9 363.6 245.3 369.2 244.9 358.4" style="fill:#9d802e"/><rect x="296.4" y="67.2" width="190.2" height="132.48" style="fill:#f2d6bb"/><path d="M390.9,67.2H296.4V199.6h90.5C375.8,145.2,385.2,91.3,390.9,67.2Z" style="opacity:0.05"/><path d="M478,75.6V190.4H303.9V75.6H478m2.3-2.3H301.6V192.7H480.2V73.3Z" style="fill:#a3c23b"/><text transform="translate(325.4 129.7)" style="font-size:14px;fill:#262320;font-family:Montserrat-SemiBold, Montserrat;font-weight:700"><tspan style="letter-spacing:-0.014020647321428572em">C</tspan><tspan x="9.5" y="0">ORE PRINCIPLES</tspan></text><line x1="345.8" y1="143.6" x2="456" y2="143.6" style="fill:none;stroke:#2b3990;stroke-miterlimit:10;stroke-width:2.0276864951191285px"/><line x1="345.8" y1="152.4" x2="456" y2="152.4" style="fill:none;stroke:#2b3990;stroke-miterlimit:10;stroke-width:2.0276864951191285px"/><line x1="345.8" y1="162.1" x2="422.8" y2="162.1" style="fill:none;stroke:#2b3990;stroke-miterlimit:10;stroke-width:2.0276864951191285px"/><text transform="translate(335.4 144.6)" style="font-size:10px;fill:#262320;font-family:BernardMT-Condensed, Bernard MT Condensed">1.<tspan x="-0.6" y="12">2.</tspan><tspan x="-0.6" y="24">3.</tspan></text><path d="M350.4,97.7c1.2,1.7,1.8,3.5,3.7,5h.2c3.1-3.9-3.7-6.9-5.1-9.9a9.4,9.4,0,0,0-.4,7.4c.9,2.1,2.7,2.5,4.5,3.5s1.7,1.7,2.8,1.8,3.2-1.3,4.3-1.6,6.4-1.6,8.9-.6c-3.1.2-5.5,0-9.2,1.6a.2.2,0,0,0-.1.3,6.3,6.3,0,0,0,7.2,2.1c2.8-1,5.5-2.9,8.6-2.3,0-.8-3.8-3.4-4.6-3.8a11,11,0,0,0-5.3-1.4,7.2,7.2,0,0,0-4.6,1.7,14.4,14.4,0,0,1-4.1,2.7c-.8.3-.9-.1-.7-.9,1.5-6.4,3.8-11.6,8.7-16A29.3,29.3,0,0,0,359,99.5a.2.2,0,0,0,.2.3c3.6,0,6.8-1.5,7.9-5.3s1.9-8.8,4.9-12.9c-2.4-.1-6.1,1.3-8.2,2.3a14.6,14.6,0,0,0-6.3,5.4,10.9,10.9,0,0,0-1.3,6.9,14.3,14.3,0,0,1,.4,3.7,32.2,32.2,0,0,1-.8,3.1c-.2.9-.5,1.2-1,.9a11.1,11.1,0,0,1-4.3-6.3Z"/><path d="M382.8,90.8q0,.6,1.1.6v1h-4.5v-1q1.1,0,1.1-.6V84.4q0-.6-1.1-.6v-1h3.4Z"/><path d="M385.6,89.2a3.2,3.2,0,0,0,.4,1.7,1.3,1.3,0,0,0,1.2.6,2,2,0,0,0,1.1-.3,1.5,1.5,0,0,0,.7-1h1.1a2.9,2.9,0,0,1-.3.8l-.6.7-.9.5-1.2.2-1.4-.2a3.1,3.1,0,0,1-1.2-.5,2.7,2.7,0,0,1-.8-1,3.8,3.8,0,0,1-.3-1.6,3.9,3.9,0,0,1,.2-1.4,2.9,2.9,0,0,1,.7-1.1,3,3,0,0,1,1.1-.7l1.5-.2a3.4,3.4,0,0,1,2.5.8,3.5,3.5,0,0,1,.8,2.6Zm2.7-.9a2.6,2.6,0,0,0-.1-.6l-.2-.5-.4-.4h-.6a1.2,1.2,0,0,0-.9.4,2.3,2.3,0,0,0-.4,1.3Z"/><path d="M392.9,86.1h1.7v1h-1.6v3.9a.7.7,0,0,0,.1.4h.7a.7.7,0,0,0,.1-.4v-.6h.7v.4a2.5,2.5,0,0,1-.1.7,1.3,1.3,0,0,1-.3.5l-.6.4h-.9A2.3,2.3,0,0,1,391,92a1.8,1.8,0,0,1-.5-1.3V87h-1.1v-.8h.7l.6-.3.4-.5a2,2,0,0,0,.2-.9v-.3h1.6Z"/><path d="M395.1,85.7l.6-.5a.8.8,0,0,0,.2-.5q0-.2-.2-.2l-.6-.2a.8.8,0,0,1-.2-.6.8.8,0,0,1,.3-.6l.6-.2a1,1,0,0,1,.7.3,1.1,1.1,0,0,1,.3.8,2,2,0,0,1-.4,1.3,3.2,3.2,0,0,1-1.1.8Z"/><path d="M401.3,88.2h-1a1.5,1.5,0,0,0-.7-1.1,2.7,2.7,0,0,0-1.3-.3l-.7.2a.5.5,0,0,0-.3.4.5.5,0,0,0,.3.5l.8.3,1.1.2,1.1.3.8.6a1.5,1.5,0,0,1,.3,1,1.8,1.8,0,0,1-.2.9l-.5.6-.8.4h-2.3l-.8-.3h-.4q-.2,0-.3.4h-1V90.1h1a1.3,1.3,0,0,0,.3.6l.6.4.8.3h.8l.7-.2a.6.6,0,0,0,.3-.5.5.5,0,0,0-.2-.4l-.6-.2-.9-.2-1-.2a2.6,2.6,0,0,1-1.3-.7,1.8,1.8,0,0,1-.4-1.2,1.7,1.7,0,0,1,.6-1.4,2.6,2.6,0,0,1,1.7-.5h.8l.6.2.5.2h.5v-.3h.9Z"/><path d="M410.2,86.1h1.7v1h-1.6v3.9a.7.7,0,0,0,.1.4h.7a.7.7,0,0,0,.1-.4v-.6h.7v.4a2.5,2.5,0,0,1-.1.7,1.3,1.3,0,0,1-.3.5l-.6.4H410a2.3,2.3,0,0,1-1.7-.5,1.8,1.8,0,0,1-.5-1.3V87h-1.1v-.8h.7l.6-.3.4-.5a2,2,0,0,0,.2-.9v-.3h1.6Z"/><path d="M417.9,91q0,.5.4.5l.3-.2a.7.7,0,0,0,.1-.4v-.6h.7v.4a1.9,1.9,0,0,1-.2.8l-.4.5-.6.3h-.6a1.6,1.6,0,0,1-1.2-.4,1.7,1.7,0,0,1-.5-.9l-.3.5-.5.4-.7.3h-.9a2.5,2.5,0,0,1-1.7-.5,1.6,1.6,0,0,1-.5-1.3,1.7,1.7,0,0,1,.2-.8l.5-.5.7-.3.9-.2,1.1-.2,1.1-.3v-.4a1.7,1.7,0,0,0-.1-.5l-.2-.4-.4-.3h-1.5l-.6.3.5.2a.5.5,0,0,1,.2.5.8.8,0,0,1-.3.6,1.1,1.1,0,0,1-.8.2q-1,0-1-1a1.2,1.2,0,0,1,.2-.7l.6-.6,1-.4h2.5l1,.4a2.1,2.1,0,0,1,.7.7,2,2,0,0,1,.3,1.1Zm-2.2-2-1.1.4-.8.3-.5.4a.8.8,0,0,0-.2.5.7.7,0,0,0,.2.5l.7.2a1.6,1.6,0,0,0,.9-.3,1.9,1.9,0,0,0,.6-.7Z"/><path d="M421.9,90.8q0,.6,1.1.6v1h-4.5v-1q1.1,0,1.1-.6V84.4q0-.6-1.1-.6v-1h3.4Z"/><path d="M431.6,87.1l-1.1.2-.9.4-.7.4,1.9,2.8a1.2,1.2,0,0,0,1.1.4v1h-4.4v-1h.5c.2,0,.3-.1.3-.2h-.1l-1.1-1.7-1.4.9v.7a.4.4,0,0,0,.3.4h.7v1h-4.4v-1q1.1,0,1.1-.6V84.4q0-.6-1.1-.6v-1h3.4V89l2.2-1.4a.3.3,0,0,0,.2-.3v-.2h-.8v-1h4.5Z"/><path d="M386.8,93.6l2,.2a3.8,3.8,0,0,1,1.5.6,2.6,2.6,0,0,1,.9,1.1,4.4,4.4,0,0,1,.3,1.8,4.9,4.9,0,0,1-.3,1.9,3,3,0,0,1-.9,1.2,3.8,3.8,0,0,1-1.5.7l-2,.2h-2.3v2.6q0,.8,1.9.8V106h-6.9v-1.4q1.5,0,1.5-.8V95.7q0-.8-1.5-.8V93.6Zm-2.3,1.8v4.1H386a2.4,2.4,0,0,0,1.7-.5,2.4,2.4,0,0,0,.5-1.7,1.8,1.8,0,0,0-.5-1.4,2.5,2.5,0,0,0-1.7-.5Z"/><path d="M399.9,104.1q0,.7.5.7l.4-.2a1,1,0,0,0,.1-.5v-.9h1v.5a2.6,2.6,0,0,1-.2,1.1,2,2,0,0,1-.6.7l-.8.4h-.9a2.2,2.2,0,0,1-1.6-.5,2.4,2.4,0,0,1-.7-1.2l-.4.7-.7.6-1,.4-1.3.2a3.5,3.5,0,0,1-2.3-.6,2.2,2.2,0,0,1-.7-1.7,2.3,2.3,0,0,1,.2-1.1,2,2,0,0,1,.7-.7l1-.4,1.3-.3,1.5-.3,1.6-.4v-.5a2.3,2.3,0,0,0-.1-.7l-.3-.6-.6-.4-.8-.2h-1.2l-.9.4.7.2a.7.7,0,0,1,.3.7,1,1,0,0,1-.4.8,1.5,1.5,0,0,1-1,.3q-1.4,0-1.4-1.3a1.6,1.6,0,0,1,.3-.9,2.5,2.5,0,0,1,.8-.8l1.3-.5,1.8-.2h1.6l1.4.5a2.8,2.8,0,0,1,1,.9,2.7,2.7,0,0,1,.4,1.5Zm-2.9-2.7-1.4.6-1.1.4-.7.5a1.1,1.1,0,0,0-.2.7.9.9,0,0,0,.3.7,1.4,1.4,0,0,0,1,.3,2.2,2.2,0,0,0,1.3-.4,2.5,2.5,0,0,0,.8-.9Z"/><path d="M406.1,99.1a3.2,3.2,0,0,1,1.1-1.4,2.8,2.8,0,0,1,1.5-.4h.8l.8.4.5.7a1.9,1.9,0,0,1,.2.9,2,2,0,0,1-.4,1.3,1.4,1.4,0,0,1-1.1.5,1.5,1.5,0,0,1-1-.3,1.1,1.1,0,0,1-.4-.9,1.2,1.2,0,0,1,.3-.8,1.1,1.1,0,0,1,.9-.4l-.4-.3h-.5l-.7.2-.7.5-.6.8a4.6,4.6,0,0,0-.4,1v2.9a.6.6,0,0,0,.5.6l1.2.2V106h-6.2v-1.4q1.5,0,1.5-.8V99.6q0-.8-1.4-.8V97.5h4.6Z"/><path d="M422.9,98.8l-1.5.2-1.3.6-.9.6,2.6,3.9a1.6,1.6,0,0,0,1.4.6V106h-6v-1.3h.7q.5,0,.5-.3h-.1l-1.5-2.3-1.8,1.2v1a.6.6,0,0,0,.4.6l1,.2V106h-6v-1.3q1.5,0,1.5-.8V95.2q0-.8-1.5-.8V93.1h4.6v8.4l2.9-2a.4.4,0,0,0,.2-.4v-.2h-1.1V97.5h6.1Z"/><path d="M431.4,100.4H430a2,2,0,0,0-1-1.4,3.7,3.7,0,0,0-1.8-.4l-1,.2a.6.6,0,0,0-.4.6.7.7,0,0,0,.4.7l1.1.4,1.5.3,1.5.5a3.1,3.1,0,0,1,1.1.8,2.1,2.1,0,0,1,.4,1.4,2.4,2.4,0,0,1-.3,1.2,2.5,2.5,0,0,1-.7.8l-1.1.5-1.2.2-1.9-.2-1.1-.4h-.5q-.3,0-.4.6h-1.4v-3h1.4a1.8,1.8,0,0,0,.4.8l.8.6,1,.4h1.1a1.6,1.6,0,0,0,1-.3.8.8,0,0,0,.3-.6.7.7,0,0,0-.3-.6l-.8-.3-1.2-.2-1.3-.3a3.5,3.5,0,0,1-1.8-1,2.4,2.4,0,0,1-.5-1.6,2.3,2.3,0,0,1,.8-1.9,3.5,3.5,0,0,1,2.3-.7h1.1l.9.3.6.3h.7l.2-.4h1.3Z"/><path d="M504.2,192.3l-108.6,9.9L287,192.3s-19.2,29.7,0,47.4l108.6-7.3,108.6,7.3C523.4,222,504.2,192.3,504.2,192.3Z" style="fill:#f2d6bb"/><path d="M281.2,232.1a26,26,0,0,0,5.8,7.6l108.6-7.3,108.6,7.3a25.9,25.9,0,0,0,6.1-8.3C393.5,205.3,310.2,223.6,281.2,232.1Z" style="opacity:0.1"/><polyline points="384 227.7 368.9 267.6 379.8 261.2 384 273.3 393.4 232.2 384 227.7" style="fill:#be1e2d"/><polyline points="405.6 227.7 420.7 267.6 409.9 261.2 405.6 273.3 396.2 232.2 405.6 227.7" style="fill:#be1e2d"/><path d="M405.6,227.7l-9.4,4.5,2.6,11.5a41.4,41.4,0,0,0,11.5-3.5Z" style="opacity:0.1"/><path d="M379.1,240.6a32.6,32.6,0,0,0,11.6,3.4l2.7-11.7-9.4-4.5Z" style="opacity:0.1"/><path d="M399,194.1h0a5.4,5.4,0,0,1,9.3,3.9h0a5.4,5.4,0,0,0,5.6,5.6h0a5.4,5.4,0,0,1,3.9,9.3h0a5.4,5.4,0,0,0,0,8h0a5.4,5.4,0,0,1-3.9,9.3h0a5.4,5.4,0,0,0-5.6,5.6h0a5.4,5.4,0,0,1-9.3,3.9h0a5.4,5.4,0,0,0-8,0h0a5.4,5.4,0,0,1-9.3-3.9h0a5.4,5.4,0,0,0-5.6-5.6h0a5.4,5.4,0,0,1-3.9-9.3h0a5.4,5.4,0,0,0,0-8h0a5.4,5.4,0,0,1,3.9-9.3h0a5.4,5.4,0,0,0,5.6-5.6h0a5.4,5.4,0,0,1,9.3-3.9h0A5.4,5.4,0,0,0,399,194.1Z" style="fill:#fbb040"/><circle cx="394.8" cy="217.3" r="15" style="fill:#be1e2d;stroke:#871826;stroke-miterlimit:10;stroke-width:2.4607595873541714px"/><path d="M337.7,356.6l-29.2-18c-3-1.8-5.2-2.3-5.2-5.4s3-6.8,3.7-8.4l7.3-16.5c2.6-5.9,8.9-27.2,14.2-28.2s10.3,2.8,15.1,2.4,20.8-.5,25.7-1.8c-6.9,8.4-11.2,14.5-4.4,22.2s13.3-5,23.6-9.2c12.2-4.9,26.9,8.8,35.5,15.8s25.1,19.8,30.7,31.7c2.6,5.5-.8,12.7-7.7,11s-13.8-8.6-19.4-12.3c-1.7-1.1-10.9-7-7.7-.2,1.7,3.7,13.5,8.7,16.8,10.9s13,6.3,12.9,12.4c-.1,9.8-9.8,8-15.1,4.9s-12.7-8.9-19.5-12.2-7.3-.3-2.1,3.4,18.6,8.5,22.4,14.8-1,12.2-7,12-16.2-9-21.8-12.5c-1.7-1.1-5.7-4.8-7.8-4.6s-.7,1,3.3,3.2c0,0,.1,11.2-1,11.9C358.6,369.1,345.5,361.8,337.7,356.6Z" style="fill:#e09b7f"/><path d="M815.6,168.5c.4,1-3.3,74.7-1,84.4.7,2.9-.2,4.1-3,4.8-14.6,3.8-310.8,90.8-325.3,94.9-2.8.8-3.9,0-4.6-2.7-2.7-9.8-5.6-19.5-8.3-29.2-4.2-15.3-8.2-30.7-12.4-46.1-.6-2.2-.3-3.4,2.1-4,16.7-4.2,333.8-97.3,350.5-101.6Z" style="fill:#4d4d4d"/><path d="M410.5,279.4c6,1.6,12.2,4.8,18.5,5.5,7.8.9,7.3.4,10.6,8.1l9.2,20.7c1.8,4.1,16.4,27.3,3.9,26.7-4.1-.2-8.3-7.6-10.7-10.4a133.5,133.5,0,0,0-14.3-14.4c-8.8-7.5-21.3-20.6-33.3-21.7-13.6-1.3-17.9,15.2-30.8,14.4-4.4-.3-7.9-3.2-7.7-8s5.7-9.4,8.4-13.3,5.8-8.1,11.5-10C378.4,276.1,403.8,277.6,410.5,279.4Z" style="fill:#bb653b"/><path d="M368.5,377.5c1-5.4,3.6-13.9,8.9-16.8s9.2,2.1,9,7.6-2.8,14.5-8.2,17.2S368.6,383,368.5,377.5Z" style="fill:#bb653b"/><path d="M354.9,369.7c1.5-3.7,3.9-12.6,7.9-14.6,5.6-2.7,7.8,2.5,7,7s-3.9,12.7-7.2,14.2S355.3,373.7,354.9,369.7Z" style="fill:#bb653b"/><path d="M398.9,376.6c-1.5,3.5-3,10.7-6.4,13s-7.2-.5-7-4.7,3-10.1,5.3-12C395.1,369.2,396.8,373.2,398.9,376.6Z" style="fill:#bb653b"/><path d="M357.5,352.3c-.6,3.7-8.3,19.4-12,9.6C343.5,356.5,352.5,344.4,357.5,352.3Z" style="fill:#bb653b"/><path d="M400.9,383.8l1-11.9c3.2,2,9.7,4.3,9,9S404.3,386.2,400.9,383.8Z" style="fill:#e09b7f"/><polygon points="437 287.1 462.5 278.7 480.3 345.4 458.3 349.1 437 287.1" style="fill:#ededed"/><path d="M-34.3,146.9c-.4,1,5.1,76.6,2.9,86.2-.7,2.9.2,4.1,3,4.8,14.6,3.8,300.8,100.8,315.3,104.9,2.8.8,3.9,0,4.6-2.7,2.7-9.8,5.6-19.5,8.3-29.2,4.2-15.3,8.2-30.7,12.4-46.1.6-2.2.3-3.4-2.1-4C293.5,256.6-15.4,151.6-32.2,147.3Z" style="fill:#1d88b2"/><polygon points="336.1 277.3 310.7 269 292.8 335.7 314.9 339.4 336.1 277.3" style="fill:#ededed"/><polygon points="838 207 473.3 320.6 478.7 337.4 844.3 235.2 838 207" style="fill:#6d6e71"/><circle cx="498.1" cy="333.2" r="7.3" style="fill:#fff"/><circle cx="280.1" cy="321.4" r="7.3" style="fill:#fff"/><path d="M749.6,162.3l44.1,25.5a16.9,16.9,0,0,1,8.4,14.6v50.9a16.9,16.9,0,0,1-8.4,14.6l-44.1,25.5a16.9,16.9,0,0,1-16.9,0l-44.1-25.5a16.9,16.9,0,0,1-8.4-14.6V202.4a16.9,16.9,0,0,1,8.4-14.6l44.1-25.5A16.9,16.9,0,0,1,749.6,162.3Z" style="fill:#6e8c3b"/><path d="M745.9,155.6,790,181.1a16.9,16.9,0,0,1,8.4,14.6v50.9a16.9,16.9,0,0,1-8.4,14.6l-44.1,25.5a16.9,16.9,0,0,1-16.9,0l-44.1-25.5a16.9,16.9,0,0,1-8.4-14.6V195.7a16.9,16.9,0,0,1,8.4-14.6L729,155.6A16.9,16.9,0,0,1,745.9,155.6Z" style="fill:#a3c23a"/><polygon points="739.8 210 739 232 715.9 203.3 738.9 234.5 733.4 416.1 745.3 416.1 741.8 267.4 752.3 232 741.5 255.8 739.8 210" style="fill:#967e2e"/><path d="M697.2,199.7l34.6,20a13.2,13.2,0,0,1,6.6,11.5v39.9a13.2,13.2,0,0,1-6.6,11.5l-34.6,20a13.2,13.2,0,0,1-13.2,0l-34.6-20a13.2,13.2,0,0,1-6.6-11.5V231.2a13.2,13.2,0,0,1,6.6-11.5l34.6-20A13.2,13.2,0,0,1,697.2,199.7Z" style="fill:#bbbe3a"/><path d="M693.2,195.1l34.6,20a13.2,13.2,0,0,1,6.6,11.5v39.9a13.2,13.2,0,0,1-6.6,11.5l-34.6,20a13.2,13.2,0,0,1-13.2,0l-34.6-20a13.2,13.2,0,0,1-6.6-11.5V226.5a13.2,13.2,0,0,1,6.6-11.5l34.6-20A13.2,13.2,0,0,1,693.2,195.1Z" style="fill:#d3de46"/><polygon points="684.6 247.4 684 264.4 666.1 242.2 683.9 266.3 679.6 392.1 688.9 392.1 686.1 291.7 694.2 264.4 685.9 282.8 684.6 247.4" style="fill:#967e2e"/><path d="M39.1,235.3l29.6,17.1a11.3,11.3,0,0,1,5.7,9.8v34.2a11.3,11.3,0,0,1-5.7,9.8L39.1,323.3a11.3,11.3,0,0,1-11.3,0L-1.9,306.2a11.3,11.3,0,0,1-5.7-9.8V262.2a11.3,11.3,0,0,1,5.7-9.8l29.6-17.1a11.3,11.3,0,0,1,11.3,0" style="fill:#6e8c3b"/><path d="M36.6,230.8l29.6,17.1a11.3,11.3,0,0,1,5.7,9.8v34.2a11.3,11.3,0,0,1-5.7,9.8L36.6,318.8a11.3,11.3,0,0,1-11.3,0L-4.3,301.7a11.3,11.3,0,0,1-5.7-9.8V257.7a11.3,11.3,0,0,1,5.7-9.8l29.6-17.1a11.3,11.3,0,0,1,11.3,0" style="fill:#a3c23a"/><polygon points="32.5 267.3 32 282.1 16.5 262.8 32 283.7 28.2 408.3 36.2 408.3 33.9 305.8 40.9 282.1 33.6 298 32.5 267.3" style="fill:#9d802e"/><path d="M177.5,330.5l6.3,3.6a2.4,2.4,0,0,1,1.2,2.1v7.3a2.4,2.4,0,0,1-1.2,2.1l-6.3,3.6a2.4,2.4,0,0,1-2.4,0l-6.3-3.6a2.4,2.4,0,0,1-1.2-2.1v-7.3a2.4,2.4,0,0,1,1.2-2.1l6.3-3.6A2.4,2.4,0,0,1,177.5,330.5Z" style="fill:#bbbe3a"/><path d="M177.5,326.7l7.1,4.1a2.7,2.7,0,0,1,1.4,2.4v8.2a2.7,2.7,0,0,1-1.4,2.4l-7.1,4.1a2.7,2.7,0,0,1-2.7,0l-7.1-4.1a2.7,2.7,0,0,1-1.4-2.4v-8.2a2.7,2.7,0,0,1,1.4-2.4l7.1-4.1A2.7,2.7,0,0,1,177.5,326.7Z" style="fill:#d3de46"/><path d="M163.9,337.2l6.3,3.6a2.4,2.4,0,0,1,1.2,2.1v7.3a2.4,2.4,0,0,1-1.2,2.1l-6.3,3.6a2.4,2.4,0,0,1-2.4,0l-6.3-3.6a2.4,2.4,0,0,1-1.2-2.1V343a2.4,2.4,0,0,1,1.2-2.1l6.3-3.6A2.4,2.4,0,0,1,163.9,337.2Z" style="fill:#bbbe3a"/><path d="M163.9,333.5l7.1,4.1a2.7,2.7,0,0,1,1.4,2.4v8.2a2.7,2.7,0,0,1-1.4,2.4l-7.1,4.1a2.7,2.7,0,0,1-2.7,0l-7.1-4.1a2.7,2.7,0,0,1-1.4-2.4V340a2.7,2.7,0,0,1,1.4-2.4l7.1-4.1A2.7,2.7,0,0,1,163.9,333.5Z" style="fill:#d3de46"/><rect x="165.2" y="351" width="10.1" height="6.41" style="fill:#6e8c3b"/><path d="M161.6,332.3l1.5,2.6a1,1,0,0,1,0,1l-1.5,2.6a1,1,0,0,1-.9.5h-3a1,1,0,0,1-.9-.5l-1.5-2.6a1,1,0,0,1,0-1l1.5-2.6a1,1,0,0,1,.9-.5h3A1,1,0,0,1,161.6,332.3Z" style="fill:#6e8c3b"/><path d="M161.6,331.9l1.5,2.6a1,1,0,0,1,0,1l-1.5,2.6a1,1,0,0,1-.9.5h-3a1,1,0,0,1-.9-.5l-1.5-2.6a1,1,0,0,1,0-1l1.5-2.6a1,1,0,0,1,.9-.5h3A1,1,0,0,1,161.6,331.9Z" style="fill:#8ea43b"/><path d="M172.8,329.3l9.2,5.3a3.5,3.5,0,0,1,1.8,3.1v10.7a3.5,3.5,0,0,1-1.8,3.1l-9.2,5.3a3.5,3.5,0,0,1-3.5,0l-9.2-5.3a3.5,3.5,0,0,1-1.8-3.1V337.7a3.5,3.5,0,0,1,1.8-3.1l9.2-5.3A3.5,3.5,0,0,1,172.8,329.3Z" style="fill:#6e8c3b"/><path d="M172,327.9l9.2,5.3a3.5,3.5,0,0,1,1.8,3.1V347a3.5,3.5,0,0,1-1.8,3.1l-9.2,5.3a3.5,3.5,0,0,1-3.5,0l-9.2-5.3a3.5,3.5,0,0,1-1.8-3.1V336.3a3.5,3.5,0,0,1,1.8-3.1l9.2-5.3A3.5,3.5,0,0,1,172,327.9Z" style="fill:#a3c23a"/><path d="M184.9,339.4l3.7,6.6a2.5,2.5,0,0,1,0,2.5l-3.8,6.5a2.5,2.5,0,0,1-2.2,1.2h-7.5a2.5,2.5,0,0,1-2.2-1.3l-3.7-6.6a2.5,2.5,0,0,1,0-2.5l3.8-6.5a2.5,2.5,0,0,1,2.2-1.2h7.5A2.5,2.5,0,0,1,184.9,339.4Z" style="fill:#6e8c3b"/><path d="M185,338.2l3.7,6.6a2.5,2.5,0,0,1,0,2.5l-3.8,6.5a2.5,2.5,0,0,1-2.2,1.2h-7.5a2.5,2.5,0,0,1-2.2-1.3l-3.7-6.6a2.5,2.5,0,0,1,0-2.5l3.8-6.5a2.5,2.5,0,0,1,2.2-1.2h7.5A2.5,2.5,0,0,1,185,338.2Z" style="fill:#8ea43b"/></g><g style="clip-path:url(#clip-path-4)"><path d="M783.5,508.4h916.3l-9.5-182.9s-317.8-25.8-468.7-25.8S864,322.9,783,327.9" style="fill:#a3c23b"/></g></svg>