<svg id="Layer_1" data-name="Layer 1" xmlns="http://www.w3.org/2000/svg" xmlns:xlink="http://www.w3.org/1999/xlink" viewBox="0 0 800 450"><defs><clipPath id="clip-path"><path d="M-533.4,13.8A207.6,207.6,0,0,0-715.6,121.7,207.6,207.6,0,0,0-897.7,13.8c-114.7,0-207.7,93-207.7,207.7s93,207.7,207.7,207.7A207.6,207.6,0,0,0-715.6,321.3,207.6,207.6,0,0,0-533.4,429.2c114.7,0,207.7-93,207.7-207.7S-418.7,13.8-533.4,13.8Z" style="fill:none"/></clipPath><clipPath id="clip-path-2"><rect width="800" height="450" style="fill:none"/></clipPath><clipPath id="clip-path-3"><path d="M129.2,307.7c0,3.4-18.4,6.2-41.2,6.2s-41.2-2.8-41.2-6.2-6.4-33.5,16.3-33.5c2,0,50.4-3.1,52.4-3C135.4,271.6,129.2,304.6,129.2,307.7Z" style="fill:none"/></clipPath></defs><title>volunteer-topic</title><g style="clip-path:url(#clip-path)"><path d="M-1377.7,394.2s295.6-190.6,712.2-190.6c244.8,0,722.7,128.4,1107.4,190.6Z" style="fill:#a3c23b"/><path d="M-35.5,402.1s8.8-19,7.7-31c0,0,2,17.9.1,24.1,0,0,3.9-6.9,6.1-8.6,0,0-2.9,6.8-1.8,11.1,0,0,7-.7,8.8-15.7,0,0,.4,14.6,1.5,17.9,0,0,4.7-16,6.9-19,0,0-.7,11.7,0,14.6a16.6,16.6,0,0,0,4.5-4.3s-3.4,6.2-.8,9.1c0,0,6.2-3.3,7.7-10.2,0,0,.4,8,2.6,12Z" style="fill:#d3de46"/><path d="M47.8,402.1s8.8-19,7.7-31c0,0,2,17.9.1,24.1,0,0,3.9-6.9,6.1-8.6,0,0-2.9,6.8-1.8,11.1,0,0,7-.7,8.8-15.7,0,0,.4,14.6,1.5,17.9,0,0,4.7-16,6.9-19,0,0-.7,11.7,0,14.6a16.6,16.6,0,0,0,4.5-4.3s-3.4,6.2-.8,9.1c0,0,6.2-3.3,7.7-10.2,0,0,.4,8,2.6,12Z" style="fill:#d3de46"/><path d="M9,402.1s8.8-19,7.7-31c0,0,2,17.9.1,24.1,0,0,3.9-6.9,6.1-8.6,0,0-2.9,6.8-1.8,11.1,0,0,7-.7,8.8-15.7,0,0,.4,14.6,1.5,17.9,0,0,4.7-16,6.9-19,0,0-.7,11.7,0,14.6a16.6,16.6,0,0,0,4.5-4.3s-3.4,6.2-.8,9.1c0,0,6.2-3.3,7.7-10.2,0,0,.4,8,2.6,12Z" style="fill:#d3de46"/><path d="M196.9,402.1s8.8-19,7.7-31c0,0,2,17.9.1,24.1,0,0,3.9-6.9,6.1-8.6,0,0-2.9,6.8-1.8,11.1,0,0,7-.7,8.8-15.7,0,0,.4,14.6,1.5,17.9,0,0,4.7-16,6.9-19,0,0-.7,11.7,0,14.6a16.6,16.6,0,0,0,4.5-4.3s-3.4,6.2-.8,9.1c0,0,6.2-3.3,7.7-10.2,0,0,.4,8,2.6,12Z" style="fill:#d3de46"/><path d="M158,402.1s8.8-19,7.7-31c0,0,2,17.9.1,24.1,0,0,3.9-6.9,6.1-8.6,0,0-2.9,6.8-1.8,11.1,0,0,7-.7,8.8-15.7,0,0,.4,14.6,1.5,17.9,0,0,4.7-16,6.9-19,0,0-.7,11.7,0,14.6a16.6,16.6,0,0,0,4.5-4.3s-3.4,6.2-.8,9.1c0,0,6.2-3.3,7.7-10.2,0,0,.4,8,2.6,12Z" style="fill:#d3de46"/><path d="M396.4,402.1s8.8-19,7.7-31c0,0,2,17.9.1,24.1,0,0,3.9-6.9,6.1-8.6,0,0-2.9,6.8-1.8,11.1,0,0,7-.7,8.8-15.7,0,0,.4,14.6,1.5,17.9,0,0,4.7-16,6.9-19,0,0-.7,11.7,0,14.6a16.6,16.6,0,0,0,4.5-4.3s-3.4,6.2-.8,9.1c0,0,6.2-3.3,7.7-10.2,0,0,.4,8,2.6,12Z" style="fill:#d3de46"/><path d="M357.5,402.1s8.8-19,7.7-31c0,0,2,17.9.1,24.1,0,0,3.9-6.9,6.1-8.6,0,0-2.9,6.8-1.8,11.1,0,0,7-.7,8.8-15.7,0,0,.4,14.6,1.5,17.9,0,0,4.7-16,6.9-19,0,0-.7,11.7,0,14.6a16.6,16.6,0,0,0,4.5-4.3s-3.4,6.2-.8,9.1c0,0,6.2-3.3,7.7-10.2,0,0,.4,8,2.6,12Z" style="fill:#d3de46"/></g><g style="clip-path:url(#clip-path-2)"><path d="M-98.5,520.4H817.9l-9.5-182.9s-317.8-25.8-468.7-25.8S-18,334.9-99,339.9" style="fill:#a3c23b"/><path d="M-19.3,573H897L879.6,423.7s-309.8-35.4-460.7-35.4S38.6,409.9-42.4,414.9" style="fill:#8ea43b"/><path d="M178.5,399.7s7-15,6.1-24.6c0,0,1.6,14.2.1,19.1,0,0,3.1-5.5,4.8-6.8,0,0-2.3,5.4-1.4,8.8,0,0,5.6-.5,7-12.5,0,0,.3,11.6,1.2,14.2,0,0,3.8-12.7,5.5-15,0,0-.6,9.3,0,11.6a13.2,13.2,0,0,0,3.5-3.4s-2.7,4.9-.6,7.2a13,13,0,0,0,6.1-8.1s.3,6.3,2,9.5Z" style="fill:#d3de46"/><path d="M147.6,399.7s7-15,6.1-24.6c0,0,1.6,14.2.1,19.1,0,0,3.1-5.5,4.8-6.8,0,0-2.3,5.4-1.4,8.8,0,0,5.6-.5,7-12.5,0,0,.3,11.6,1.2,14.2,0,0,3.8-12.7,5.5-15,0,0-.6,9.3,0,11.6a13.2,13.2,0,0,0,3.5-3.4s-2.7,4.9-.6,7.2a13,13,0,0,0,6.1-8.1s.3,6.3,2,9.5Z" style="fill:#d3de46"/><path d="M244.6,399.7s7-15,6.1-24.6c0,0,1.6,14.2.1,19.1,0,0,3.1-5.5,4.8-6.8,0,0-2.3,5.4-1.4,8.8,0,0,5.6-.5,7-12.5,0,0,.3,11.6,1.2,14.2,0,0,3.8-12.7,5.5-15,0,0-.6,9.3,0,11.6a13.2,13.2,0,0,0,3.5-3.4s-2.7,4.9-.6,7.2a13,13,0,0,0,6.1-8.1s.3,6.3,2,9.5Z" style="fill:#d3de46"/><path d="M213.8,399.7s7-15,6.1-24.6c0,0,1.6,14.2.1,19.1,0,0,3.1-5.5,4.8-6.8,0,0-2.3,5.4-1.4,8.8,0,0,5.6-.5,7-12.5,0,0,.3,11.6,1.2,14.2,0,0,3.8-12.7,5.5-15,0,0-.6,9.3,0,11.6a13.2,13.2,0,0,0,3.5-3.4s-2.7,4.9-.6,7.2a13,13,0,0,0,6.1-8.1s.3,6.3,2,9.5Z" style="fill:#d3de46"/><path d="M239.6,415.9s8.3,3.4,3.8,17.2c0,0,.1,1.5,1.1.6s6.9-15-4.1-19.9l-1.6-.3v1.9Z" style="fill:#4d4d4d"/><rect x="243.3" y="320.7" width="2.9" height="113.74" transform="translate(67.2 -35.9) rotate(9.7)" style="fill:#7c7d7f"/><path d="M251.6,322.3l2.3-13.4a3.8,3.8,0,0,1,2.5-3c2.2-.7,20.1-3.9,22.1-3.4s1,3.4.6,6.7-.8,4.1-3.3,4.4-3.4-.9-4.3-.9-1.6,1.7-3,1.7-3.1-1-3.8-.5-1.5,1.9-3.5,1.8a2.8,2.8,0,0,0-2.7,1.4s-1.6,4.9-1.3,5.4,11.1.7,12.4-1,1.8,0,1.8,0,.2,3.9-14.4,2.5A5.4,5.4,0,0,1,251.6,322.3Z" style="fill:#4d4d4d"/><path d="M233.7,433.4s-.1,1,1.2,1.3a1.3,1.3,0,0,0,1.6-.8Z" style="fill:#4d4d4d"/><circle cx="238.6" cy="414" r="0.7" transform="translate(-209.7 579.3) rotate(-80.3)" style="fill:#4d4d4d"/><path d="M21.9,229.5l19.6,11.3a7.5,7.5,0,0,1,3.7,6.5v22.6a7.5,7.5,0,0,1-3.7,6.5L21.9,287.6a7.5,7.5,0,0,1-7.5,0L-5.2,276.3a7.5,7.5,0,0,1-3.7-6.5V247.3a7.5,7.5,0,0,1,3.7-6.5l19.6-11.3A7.5,7.5,0,0,1,21.9,229.5Z" style="fill:#6e8c3b"/><path d="M20.3,226.5l19.6,11.3a7.5,7.5,0,0,1,3.7,6.5v22.6a7.5,7.5,0,0,1-3.7,6.5L20.3,284.7a7.5,7.5,0,0,1-7.5,0L-6.8,273.4a7.5,7.5,0,0,1-3.7-6.5V244.3a7.5,7.5,0,0,1,3.7-6.5l19.6-11.3A7.5,7.5,0,0,1,20.3,226.5Z" style="fill:#a3c23a"/><polygon points="17.5 250.6 17.2 260.4 6.9 247.7 17.2 261.5 14.7 342.1 20 342.1 18.4 276.1 23.1 260.4 18.3 271 17.5 250.6" style="fill:#967e2e"/><path d="M199.1,206.7,221,219.3a8.4,8.4,0,0,1,4.2,7.2v25.2a8.4,8.4,0,0,1-4.2,7.2l-21.8,12.6a8.4,8.4,0,0,1-8.4,0L169,258.9a8.4,8.4,0,0,1-4.2-7.2V226.5a8.4,8.4,0,0,1,4.2-7.2l21.8-12.6A8.4,8.4,0,0,1,199.1,206.7Z" style="fill:#6e8c3b"/><path d="M197.3,203.4,219.2,216a8.4,8.4,0,0,1,4.2,7.2v25.2a8.4,8.4,0,0,1-4.2,7.2l-21.8,12.6a8.4,8.4,0,0,1-8.4,0l-21.8-12.6a8.4,8.4,0,0,1-4.2-7.2V223.2a8.4,8.4,0,0,1,4.2-7.2L189,203.4A8.4,8.4,0,0,1,197.3,203.4Z" style="fill:#a3c23a"/><polygon points="194.3 230.3 193.9 241.2 182.5 227 193.9 242.4 191.1 332.2 197 332.2 195.3 258.7 200.5 241.2 195.1 252.9 194.3 230.3" style="fill:#967e2e"/><path d="M173.2,225.2l17.1,9.9a6.6,6.6,0,0,1,3.3,5.7v19.8a6.6,6.6,0,0,1-3.3,5.7l-17.1,9.9a6.6,6.6,0,0,1-6.6,0l-17.1-9.9a6.6,6.6,0,0,1-3.3-5.7V240.8a6.6,6.6,0,0,1,3.3-5.7l17.1-9.9A6.6,6.6,0,0,1,173.2,225.2Z" style="fill:#bbbe3a"/><path d="M171.2,222.9l17.1,9.9a6.6,6.6,0,0,1,3.3,5.7v19.8a6.6,6.6,0,0,1-3.3,5.7l-17.1,9.9a6.6,6.6,0,0,1-6.6,0l-17.1-9.9a6.6,6.6,0,0,1-3.3-5.7V238.4a6.6,6.6,0,0,1,3.3-5.7l17.1-9.9A6.6,6.6,0,0,1,171.2,222.9Z" style="fill:#d3de46"/><polygon points="167 248.8 166.7 257.2 157.8 246.2 166.7 258.1 164.5 320.4 169.1 320.4 167.7 270.7 171.8 257.2 167.6 266.3 167 248.8" style="fill:#967e2e"/><path d="M232.4,309.6l4.5,2.6a1.7,1.7,0,0,1,.9,1.5v5.2a1.7,1.7,0,0,1-.9,1.5l-4.5,2.6a1.7,1.7,0,0,1-1.7,0l-4.5-2.6a1.7,1.7,0,0,1-.9-1.5v-5.2a1.7,1.7,0,0,1,.9-1.5l4.5-2.6A1.7,1.7,0,0,1,232.4,309.6Z" style="fill:#bbbe3a"/><path d="M232.4,306.9l5.1,2.9a1.9,1.9,0,0,1,1,1.7v5.9a1.9,1.9,0,0,1-1,1.7l-5.1,2.9a1.9,1.9,0,0,1-1.9,0l-5.1-2.9a1.9,1.9,0,0,1-1-1.7v-5.9a1.9,1.9,0,0,1,1-1.7l5.1-2.9A1.9,1.9,0,0,1,232.4,306.9Z" style="fill:#d3de46"/><path d="M222.8,314.4l4.5,2.6a1.7,1.7,0,0,1,.9,1.5v5.2a1.7,1.7,0,0,1-.9,1.5l-4.5,2.6a1.7,1.7,0,0,1-1.7,0l-4.5-2.6a1.7,1.7,0,0,1-.9-1.5v-5.2a1.7,1.7,0,0,1,.9-1.5l4.5-2.6A1.7,1.7,0,0,1,222.8,314.4Z" style="fill:#bbbe3a"/><path d="M222.8,311.7l5.1,2.9a1.9,1.9,0,0,1,1,1.7v5.9a1.9,1.9,0,0,1-1,1.7l-5.1,2.9a1.9,1.9,0,0,1-1.9,0l-5.1-2.9a1.9,1.9,0,0,1-1-1.7v-5.9a1.9,1.9,0,0,1,1-1.7l5.1-2.9A1.9,1.9,0,0,1,222.8,311.7Z" style="fill:#d3de46"/><rect x="223.7" y="324.2" width="7.2" height="4.56" style="fill:#6e8c3b"/><path d="M221.1,310.9l1.1,1.9a.7.7,0,0,1,0,.7l-1.1,1.9a.7.7,0,0,1-.6.4h-2.2a.7.7,0,0,1-.6-.4l-1.1-1.9a.7.7,0,0,1,0-.7l1.1-1.9a.7.7,0,0,1,.6-.4h2.2A.7.7,0,0,1,221.1,310.9Z" style="fill:#6e8c3b"/><path d="M221.1,310.6l1.1,1.9a.7.7,0,0,1,0,.7l-1.1,1.9a.7.7,0,0,1-.6.4h-2.2a.7.7,0,0,1-.6-.4l-1.1-1.9a.7.7,0,0,1,0-.7l1.1-1.9a.7.7,0,0,1,.6-.4h2.2A.7.7,0,0,1,221.1,310.6Z" style="fill:#8ea43b"/><path d="M229.1,308.8l6.6,3.8a2.5,2.5,0,0,1,1.3,2.2v7.6a2.5,2.5,0,0,1-1.3,2.2l-6.6,3.8a2.5,2.5,0,0,1-2.5,0l-6.6-3.8a2.5,2.5,0,0,1-1.3-2.2v-7.6a2.5,2.5,0,0,1,1.3-2.2l6.6-3.8A2.5,2.5,0,0,1,229.1,308.8Z" style="fill:#6e8c3b"/><path d="M228.6,307.8l6.6,3.8a2.5,2.5,0,0,1,1.3,2.2v7.6a2.5,2.5,0,0,1-1.3,2.2l-6.6,3.8a2.5,2.5,0,0,1-2.5,0l-6.6-3.8a2.5,2.5,0,0,1-1.3-2.2v-7.6a2.5,2.5,0,0,1,1.3-2.2l6.6-3.8A2.5,2.5,0,0,1,228.6,307.8Z" style="fill:#a3c23a"/><path d="M237.7,315.9l2.7,4.7a1.8,1.8,0,0,1,0,1.8l-2.7,4.6a1.8,1.8,0,0,1-1.5.9h-5.4a1.8,1.8,0,0,1-1.5-.9l-2.7-4.7a1.8,1.8,0,0,1,0-1.8l2.7-4.6a1.8,1.8,0,0,1,1.5-.9h5.4A1.8,1.8,0,0,1,237.7,315.9Z" style="fill:#6e8c3b"/><path d="M237.8,315.1l2.7,4.7a1.8,1.8,0,0,1,0,1.8l-2.7,4.6a1.8,1.8,0,0,1-1.5.9h-5.4a1.8,1.8,0,0,1-1.5-.9l-2.7-4.7a1.8,1.8,0,0,1,0-1.8l2.7-4.6a1.8,1.8,0,0,1,1.5-.9h5.4A1.8,1.8,0,0,1,237.8,315.1Z" style="fill:#8ea43b"/><path d="M86.1,348.3l6.3,3.6a2.4,2.4,0,0,1,1.2,2.1v7.3a2.4,2.4,0,0,1-1.2,2.1L86.1,367a2.4,2.4,0,0,1-2.4,0l-6.3-3.6a2.4,2.4,0,0,1-1.2-2.1V354a2.4,2.4,0,0,1,1.2-2.1l6.3-3.6A2.4,2.4,0,0,1,86.1,348.3Z" style="fill:#bbbe3a"/><path d="M86.1,344.5l7.1,4.1a2.7,2.7,0,0,1,1.4,2.4v8.2a2.7,2.7,0,0,1-1.4,2.4l-7.1,4.1a2.7,2.7,0,0,1-2.7,0l-7.1-4.1a2.7,2.7,0,0,1-1.4-2.4V351a2.7,2.7,0,0,1,1.4-2.4l7.1-4.1A2.7,2.7,0,0,1,86.1,344.5Z" style="fill:#d3de46"/><path d="M72.6,355l6.3,3.6a2.4,2.4,0,0,1,1.2,2.1V368a2.4,2.4,0,0,1-1.2,2.1l-6.3,3.6a2.4,2.4,0,0,1-2.4,0l-6.3-3.6a2.4,2.4,0,0,1-1.2-2.1v-7.3a2.4,2.4,0,0,1,1.2-2.1l6.3-3.6A2.4,2.4,0,0,1,72.6,355Z" style="fill:#bbbe3a"/><path d="M72.6,351.3l7.1,4.1a2.7,2.7,0,0,1,1.4,2.4V366a2.7,2.7,0,0,1-1.4,2.4l-7.1,4.1a2.7,2.7,0,0,1-2.7,0l-7.1-4.1a2.7,2.7,0,0,1-1.4-2.4v-8.2a2.7,2.7,0,0,1,1.4-2.4l7.1-4.1A2.7,2.7,0,0,1,72.6,351.3Z" style="fill:#d3de46"/><rect x="73.9" y="368.9" width="10.1" height="6.41" style="fill:#6e8c3b"/><path d="M70.2,350.2l1.5,2.6a1,1,0,0,1,0,1l-1.5,2.6a1,1,0,0,1-.9.5h-3a1,1,0,0,1-.9-.5l-1.5-2.6a1,1,0,0,1,0-1l1.5-2.6a1,1,0,0,1,.9-.5h3A1,1,0,0,1,70.2,350.2Z" style="fill:#6e8c3b"/><path d="M70.3,349.7l1.5,2.6a1,1,0,0,1,0,1l-1.5,2.6a1,1,0,0,1-.9.5h-3a1,1,0,0,1-.9-.5L64,353.3a1,1,0,0,1,0-1l1.5-2.6a1,1,0,0,1,.9-.5h3A1,1,0,0,1,70.3,349.7Z" style="fill:#8ea43b"/><path d="M81.4,347.2l9.2,5.3a3.5,3.5,0,0,1,1.8,3.1v10.7a3.5,3.5,0,0,1-1.8,3.1l-9.2,5.3a3.5,3.5,0,0,1-3.5,0l-9.2-5.3a3.5,3.5,0,0,1-1.8-3.1V355.6a3.5,3.5,0,0,1,1.8-3.1l9.2-5.3A3.5,3.5,0,0,1,81.4,347.2Z" style="fill:#6e8c3b"/><path d="M80.7,345.8l9.2,5.3a3.5,3.5,0,0,1,1.8,3.1v10.7a3.5,3.5,0,0,1-1.8,3.1l-9.2,5.3a3.5,3.5,0,0,1-3.5,0l-9.2-5.3a3.5,3.5,0,0,1-1.8-3.1V354.2a3.5,3.5,0,0,1,1.8-3.1l9.2-5.3A3.5,3.5,0,0,1,80.7,345.8Z" style="fill:#a3c23a"/><path d="M93.6,357.2l3.7,6.6a2.5,2.5,0,0,1,0,2.5l-3.8,6.5a2.5,2.5,0,0,1-2.2,1.2H83.7a2.5,2.5,0,0,1-2.2-1.3l-3.7-6.6a2.5,2.5,0,0,1,0-2.5l3.8-6.5a2.5,2.5,0,0,1,2.2-1.2h7.5A2.5,2.5,0,0,1,93.6,357.2Z" style="fill:#6e8c3b"/><path d="M93.6,356l3.7,6.6a2.5,2.5,0,0,1,0,2.5l-3.8,6.5a2.5,2.5,0,0,1-2.2,1.2H83.8a2.5,2.5,0,0,1-2.2-1.3L77.9,365a2.5,2.5,0,0,1,0-2.5l3.8-6.5a2.5,2.5,0,0,1,2.2-1.2h7.5A2.5,2.5,0,0,1,93.6,356Z" style="fill:#8ea43b"/><path d="M711.1,356.3s7-15,6.1-24.6c0,0,1.6,14.2.1,19.1,0,0,3.1-5.5,4.8-6.8,0,0-2.3,5.4-1.4,8.8,0,0,5.6-.5,7-12.5,0,0,.3,11.6,1.2,14.2,0,0,3.8-12.7,5.5-15,0,0-.6,9.3,0,11.6a13.2,13.2,0,0,0,3.5-3.4s-2.7,4.9-.6,7.2a13,13,0,0,0,6.1-8.1s.3,6.3,2,9.5Z" style="fill:#d3de46"/><path d="M158.2,326.7s7-15,6.1-24.6c0,0,1.6,14.2.1,19.1,0,0,3.1-5.5,4.8-6.8,0,0-2.3,5.4-1.4,8.8,0,0,5.6-.5,7-12.5,0,0,.3,11.6,1.2,14.2,0,0,3.8-12.7,5.5-15,0,0-.6,9.3,0,11.6a13.2,13.2,0,0,0,3.5-3.4s-2.7,4.9-.6,7.2a13,13,0,0,0,6.1-8.1s.3,6.3,2,9.5Z" style="fill:#d3de46"/><path d="M735.7,161.7l32.6,18.8a12.5,12.5,0,0,1,6.2,10.8v37.6a12.5,12.5,0,0,1-6.2,10.8l-32.6,18.8a12.5,12.5,0,0,1-12.5,0l-32.6-18.8a12.5,12.5,0,0,1-6.2-10.8V191.3a12.5,12.5,0,0,1,6.2-10.8l32.6-18.8A12.5,12.5,0,0,1,735.7,161.7Z" style="fill:#6e8c3b"/><path d="M733,156.7l32.6,18.8a12.5,12.5,0,0,1,6.2,10.8v37.6a12.5,12.5,0,0,1-6.2,10.8L733,253.5a12.5,12.5,0,0,1-12.5,0L688,234.7a12.5,12.5,0,0,1-6.2-10.8V186.3a12.5,12.5,0,0,1,6.2-10.8l32.6-18.8A12.5,12.5,0,0,1,733,156.7Z" style="fill:#a3c23a"/><polygon points="728.5 196.9 727.9 213.1 710.9 191.9 727.9 214.9 723.8 349 732.6 349 730 239.2 737.7 213.1 729.7 230.7 728.5 196.9" style="fill:#967e2e"/><path d="M697,189.3,722.6,204a9.8,9.8,0,0,1,4.9,8.5V242a9.8,9.8,0,0,1-4.9,8.5L697,265.2a9.8,9.8,0,0,1-9.8,0l-25.5-14.8a9.8,9.8,0,0,1-4.9-8.5V212.5a9.8,9.8,0,0,1,4.9-8.5l25.5-14.8A9.8,9.8,0,0,1,697,189.3Z" style="fill:#bbbe3a"/><path d="M694.1,185.8l25.5,14.8a9.8,9.8,0,0,1,4.9,8.5v29.5a9.8,9.8,0,0,1-4.9,8.5l-25.5,14.8a9.8,9.8,0,0,1-9.8,0L658.8,247a9.8,9.8,0,0,1-4.9-8.5V209.1a9.8,9.8,0,0,1,4.9-8.5l25.5-14.8A9.8,9.8,0,0,1,694.1,185.8Z" style="fill:#d3de46"/><polygon points="687.7 224.5 687.3 237 674.1 220.7 687.3 238.5 684.1 331.3 690.9 331.3 688.9 257.2 694.9 237 688.7 250.6 687.7 224.5" style="fill:#967e2e"/><path d="M670.2,338.3s7-15,6.1-24.6c0,0,1.6,14.2.1,19.1,0,0,3.1-5.5,4.8-6.8,0,0-2.3,5.4-1.4,8.8,0,0,5.6-.5,7-12.5,0,0,.3,11.6,1.2,14.2,0,0,3.8-12.7,5.5-15,0,0-.6,9.3,0,11.6a13.2,13.2,0,0,0,3.5-3.4s-2.7,4.9-.6,7.2a13,13,0,0,0,6.1-8.1s.3,6.3,2,9.5Z" style="fill:#d3de46"/><path d="M418.3,138.9c-35.4.7-26.8,44-26.9,58.6h26.9Z" style="fill:#c67314"/><path d="M418.3,138.9c36.7,1.4,26.8,44,26.9,58.6H418.3Z" style="fill:#ea9524"/><path d="M420.7,294.3l20.8-19.9s5.8,27-11.1,125.6h-6.2Z" style="fill:#1485b3"/><path d="M401.3,172.8c.4,2.5-1,4.8-3.1,5.1h0c-2.1.3-4.1-1.4-4.5-3.9l-.5-3.1c-.4-2.5,1-4.8,3.1-5.1h0c2.1-.3,4.1,1.4,4.5,3.9Z" style="fill:#e09b7f"/><path d="M435.3,172.5c-.4,2.5,1,4.8,3.1,5.1h0c2.1.3,4.1-1.4,4.5-3.9l.5-3.1c.4-2.5-1-4.8-3.1-5.1h0c-2.1-.3-4.1,1.4-4.5,3.9Z" style="fill:#eeb7a5"/><path d="M430.4,226s19.1,6.2,44.7-64.9l-7-2.3c-3.8,8-25.1,51.4-34.4,51Z" style="fill:#e09b7f"/><path d="M470.2,142.5c-1.2,3.7-2.4,15.3-1.7,17.4l6.4,1.9c1.5-4.1,4.3-6.6,4-11.3a37.4,37.4,0,0,0-3-10.6C474,134.8,471.3,139.2,470.2,142.5Z" style="fill:#e09b7f"/><rect x="412.6" y="186.9" width="5.7" height="17.91" style="fill:#e09b7f"/><rect x="418.3" y="186.9" width="5.7" height="17.91" style="fill:#eeb7a5"/><path d="M396.8,226.6s-19.8,3.7-36.1-70l7.2-1.4c2.7,8.4,18.3,54.1,27.6,54.9Z" style="fill:#f4c3ae"/><path d="M367.9,138.7c.7,3.8.4,15.5-.5,17.4l-6.6,1.1c-1-4.2-3.5-7.2-2.5-11.7a37,37,0,0,1,4.3-10.1C365.2,130.7,367.3,135.4,367.9,138.7Z" style="fill:#f4c3ae"/><path d="M418.3,156.7H396.6s-3.6,38.2,21.7,38.5Z" style="fill:#eaaf93"/><path d="M418.3,156.7H440s3.6,38.2-21.7,38.5Z" style="fill:#f4c3ae"/><path d="M418.3,203.7c-2.8-.4-17.8-1.9-23.7,6.1-4.5,6.1,6.8,29,8.3,40.5s-11.1,20.7-7,31.1c3.5,8.7,13.4,13,22.4,13.2v-91Z" style="fill:#eaaf93"/><path d="M418.3,203.7c2.8-.4,17.8-1.9,23.7,6.1,4.5,6.1-6.8,29-8.3,40.5s11.1,20.7,7,31.1c-3.5,8.7-13.4,13-22.4,13.2v-91Z" style="fill:#f4c3ae"/><path d="M415.9,294.3l-20.8-19.9s-5.8,27,11.1,125.6h6.2Z" style="fill:#02679a"/><path d="M412.3,399.9h-6.2s-16.1,6.2-14.3,9.8h20.9Z" style="fill:#c72624"/><path d="M424.3,399.9h6.2s16.1,6.2,14.3,9.8H423.9Z" style="fill:#ea5050"/><path d="M418.3,141.7c-13.2.1-23.9,12.5-24,25.4h24Z" style="fill:#ea9524"/><path d="M418.3,141.7c13.2.1,23.9,12.5,24,25.4h-24Z" style="fill:#f9b03d"/><path d="M398.3,266.3c-2.4,5-4.4,10-2.4,15.1,3.5,8.7,13.4,13,22.4,13.2V266.3Z" style="fill:#02679a"/><path d="M418.3,266.3v28.4c9-.2,18.9-4.6,22.4-13.2,2.1-5.2,0-10.1-2.4-15.1Z" style="fill:#1485b3"/><path d="M396.3,271h22V213.1h-.4A14,14,0,0,1,408,209a13.7,13.7,0,0,1-3.2-5,20.4,20.4,0,0,0-6.7,2.3c-1.1.6-3.3,18.5-.9,24.3a84.9,84.9,0,0,1,5.7,19.7C403.8,257.6,398.7,264.3,396.3,271Z" style="fill:#07aa9e"/><path d="M440.4,271h-22V213.1h.4a14,14,0,0,0,9.9-4.1,13.7,13.7,0,0,0,3.2-5,20.4,20.4,0,0,1,6.7,2.3c1.1.6,3.3,18.5.9,24.3a84.9,84.9,0,0,0-5.7,19.7C432.8,257.6,438,264.3,440.4,271Z" style="fill:#56bbaf"/><polygon points="418.2 274.3 394.7 274.3 396.4 267.8 418.2 267.8 418.2 274.3" style="fill:#39343c"/><polygon points="441.8 274.3 418.2 274.3 418.2 267.8 440 267.8 441.8 274.3" style="fill:#575758"/><path d="M418.3,213.1s-10-.9-13.5-10l-8.5,3.2S403.4,229.6,418.3,213.1Z" style="fill:#cdcccc"/><path d="M418.2,213.1s10-.9,13.5-10l8.5,3.2S433.2,229.6,418.2,213.1Z" style="fill:#f2f2f2"/><path d="M278.5,143.4c9.5-23.1,41-11.7,40,.9L299,188.8c-9.8,8.7-23,5.6-34-7C281,183.5,275.3,151.3,278.5,143.4Z" style="fill:#69261d"/><path d="M317.1,304.8l19.5-21s8.6,28.5-10.5,132.6h-7Z" style="fill:#b15732"/><path d="M319.1,416.4h7s18.1,6.6,16.1,10.3H318.7Z" style="fill:#034b70"/><path d="M307.7,304.8l-19.5-21s-8.6,28.5,10.5,132.6h7Z" style="fill:#bb653b"/><path d="M305.7,416.4h-7s-18.1,6.6-16.1,10.3h23.5Z" style="fill:#0e658a"/><path d="M331.5,176.6A4.5,4.5,0,0,0,335,182h0a4.7,4.7,0,0,0,5-4.2l.6-3.3a4.5,4.5,0,0,0-3.5-5.4h0a4.7,4.7,0,0,0-5,4.2Z" style="fill:#b15732"/><path d="M293.3,176.2a4.5,4.5,0,0,1-3.5,5.4h0a4.7,4.7,0,0,1-5-4.2l-.6-3.3a4.5,4.5,0,0,1,3.5-5.4h0a4.7,4.7,0,0,1,5,4.2Z" style="fill:#bd6144"/><path d="M333,211.3s22.6.9,22,80.6l-8.3-.2c-.9-9.4-6.4-60.1-16.5-63.1Z" style="fill:#b15732"/><path d="M342.5,308.6c.2-4.1,3.4-16.1,5-17.8l7.5.5c0,4.6,2,8.2-.2,12.6s-4.5,6.6-7.3,9.4S342.3,312.2,342.5,308.6Z" style="fill:#b15732"/><rect x="312.4" y="191.4" width="6.5" height="18.91" style="fill:#b15732"/><rect x="305.9" y="191.4" width="6.5" height="18.91" style="fill:#bd6144"/><path d="M312.4,159.5h24.5s4.1,41.3-24.5,41.6Z" style="fill:#bb653b"/><path d="M312.4,159.5H288s-4.1,41.3,24.5,41.6Z" style="fill:#c46f4c"/><path d="M312.4,209.2c3.2-.4,20-2,26.6,6.4,5,6.4-7.7,30.6-9.3,42.8s11.5,21.9,6.9,32.9c-3.9,9.2-14.1,13.8-24.2,14Z" style="fill:#bb653b"/><path d="M312.4,209.2c-3.2-.4-20-2-26.6,6.4-5,6.4,7.7,30.6,9.3,42.8s-11.5,21.9-6.9,32.9c3.9,9.2,14.1,13.8,24.2,14Z" style="fill:#c46f4c"/><path d="M290.6,212.8s-22.6,0-25.3,79.6h8.3c1.3-9.3,9-59.7,19.1-62.3Z" style="fill:#b15732"/><path d="M277.1,309.6c0-4.1-2.8-16.2-4.2-18h-7.5c-.2,4.6-2.3,8.1-.3,12.6s4.2,6.7,6.9,9.7S277.2,313.2,277.1,309.6Z" style="fill:#b15732"/><path d="M312.5,340.3V276.5l24.5.9s3.9,21.6.5,62.8h-25Z" style="fill:#f9b03d"/><path d="M312.5,340.3V276.5l-24.5.9s-6,23-1.5,62.8h25.9Z" style="fill:#fcc984"/><path d="M312.4,142.4c33-.1,26.9,26.1,26.9,26.1s-12.3,1.3-26.9,1.1Z" style="fill:#69261d"/><path d="M312.4,142.4c-33-.1-26.9,26.1-26.9,26.1s12.3,1.3,26.9,1.1Z" style="fill:#80352f"/><path d="M336.9,240.4c-1.8-6.3-3.8-10.9-6.6-11.8l2.8-17.4s8.5.3,15.1,17.1Z" style="fill:#f9b03d"/><path d="M285,241.6c-3.5-4.6-7.6-7.2-11.2-11.7,6.5-15.1,17.9-18.5,17.9-18.5l2.8,17.4C291.8,229.5,286.8,235.2,285,241.6Z" style="fill:#fcc984"/><path d="M337,277.5l-24.6,5V224.7l10-15.8c6,.4,13,2,16.7,6.7,5,6.4-7.7,30.6-9.3,42.8C328.6,266.9,334.8,269.6,337,277.5Z" style="fill:#f9b03d"/><path d="M288,277.5c2.2-7.9,8.2-10.6,7.1-19.1-1.7-12.2-14.3-36.4-9.3-42.8,3.5-4.5,9.9-6.2,15.6-6.6l11.1,16.7v56.9Z" style="fill:#fcc984"/><path d="M539.6,166.5c.4,2.5-1,4.8-3.1,5.1h0c-2.1.3-4.1-1.4-4.5-3.9l-.5-3.1c-.4-2.5,1-4.8,3.1-5.1h0c2.1-.3,4.1,1.4,4.5,3.9Z" style="fill:#e09b7f"/><path d="M573.6,166.2c-.4,2.5,1,4.8,3.1,5.1h0c2.1.3,4.1-1.4,4.5-3.9l.5-3.1c.4-2.5-1-4.8-3.1-5.1h0c-2.1-.3-4.1,1.4-4.5,3.9Z" style="fill:#e09b7f"/><path d="M536.7,200.2s-22,.3-21.5,75.8l7.3-.2c.8-8.8,9.3-56.9,18.2-59.7Z" style="fill:#e09b7f"/><path d="M526.3,291.8c-.2-3.9-3.1-15.2-4.4-16.9l-6.7.4c0,4.3-1.8,7.7.2,11.9a37.4,37.4,0,0,0,6.4,9C525.4,300.3,526.5,295.2,526.3,291.8Z" style="fill:#e09b7f"/><path d="M577.5,200.9s21-.3,20.4,75.2l-7.3-.2c-.8-8.8-8.4-56-17.3-58.8Z" style="fill:#e09b7f"/><path d="M586.8,291.8c.2-3.9,3.1-15.2,4.4-16.9l6.7.4c0,4.3,1.8,7.7-.2,11.9a37.4,37.4,0,0,1-6.4,9C587.7,300.3,586.6,295.2,586.8,291.8Z" style="fill:#e09b7f"/><path d="M524.9,260.7c3.3-17.4,9.4-42.6,15.8-44.6l-4-15.9s-18.5.3-21.2,58.5Z" style="fill:#b22020"/><path d="M588.5,261.5l9.1-3.1c-2.5-57.8-20.1-57.5-20.1-57.5L573.3,217C579.7,219,585.5,244.3,588.5,261.5Z" style="fill:#d33e3e"/><rect x="549" y="180.8" width="7.5" height="17.91" style="fill:#e09b7f"/><rect x="556.6" y="180.8" width="7.5" height="17.91" style="fill:#eeb7a5"/><path d="M556.5,145.3l-21.7,6.2s-3.6,39.1,21.7,39.4Z" style="fill:#eaaf93"/><path d="M556.5,143.5l21.8,8.8s3.6,38.2-21.8,38.5Z" style="fill:#f4c3ae"/><path d="M549.1,197.5h-.2c-6.7.4-15.7,1.9-19.5,7.1s7.3,52.7,5.7,70.8c-.8,9.3,12.5,13,21.5,13.2v-91h-7.4Z" style="fill:#c72624"/><path d="M583.8,204.6c-3.8-5.2-13-6.8-19.8-7.1h-7.5v91c9-.2,22.5-3.9,21.5-13.2C576.3,259.7,588.3,210.7,583.8,204.6Z" style="fill:#ea5050"/><path d="M554.2,288.2l-19.1-19.9s-7.6,27,9.3,125.6h6.2Z" style="fill:#02679a"/><path d="M558.9,288.2,578,268.3s7.6,27-9.3,125.6h-6.2Z" style="fill:#1485b3"/><rect x="516.5" y="254.3" width="6.5" height="14.19" transform="translate(190.8 741.3) rotate(-82.3)" style="fill:#c72624"/><rect x="586.6" y="259.6" width="14.2" height="6.52" transform="translate(-44.6 143.7) rotate(-13.3)" style="fill:#ea5050"/><path d="M535,265.6a63.2,63.2,0,0,1,.1,9.8c-.8,9.3,12.5,13,21.5,13.2V265.6Z" style="fill:#02679a"/><path d="M578.2,265.6H556.6v23.1c9-.2,22.5-3.9,21.5-13.2A55.7,55.7,0,0,1,578.2,265.6Z" style="fill:#1485b3"/><rect x="534" y="262.9" width="22.5" height="5.93" style="fill:#412413"/><rect x="556.5" y="262.9" width="22.5" height="5.93" style="fill:#603914"/><path d="M547.9,159.2c.6,0,3.8.1,5.4,1.3s.6.1.9.1h4.5a2.2,2.2,0,0,0,1-.1c2.7-1.5,5.5-1.1,8.3-.8s3.6.7,5.5.9,1.5.4,1.6,1.3a1.4,1.4,0,0,1-1.1,1.5,1.8,1.8,0,0,0-1.3,1.8c0,.9-.1,1.8-.2,2.6a4.9,4.9,0,0,1-3.9,4.5,13,13,0,0,1-4.1.3c-3.3-.4-5-2.2-5.6-5.8-.1-.7-.1-1.3-.3-2a1.9,1.9,0,0,0-2-1.6,1.9,1.9,0,0,0-2,1.6c-.2.8-.3,1.6-.4,2.4-1,4.6-3.6,5.8-8.1,5.3s-5.6-2.4-5.6-6.3c0-1.4-.1-2.5-1.8-3.1a1.5,1.5,0,0,1-.7-1.3,1.8,1.8,0,0,1,1.1-1.2l4.4-1Zm-.2,1.6a16.8,16.8,0,0,0-2.8.3c-2.5.5-3.6,1.8-3.6,4.2,0,.5.1,1,.1,1.4,0,3.8,4.6,6,8.1,4.2a7.3,7.3,0,0,0,3.5-7.6,2.8,2.8,0,0,0-2.3-2.1A16.8,16.8,0,0,0,547.7,160.8Zm17.2.1h-1.8c-2.1.1-3.5,1.2-3.6,3a7.4,7.4,0,0,0,2.2,6.1,5.3,5.3,0,0,0,4.6,1.4c3.9-.5,5.5-3.1,4.7-7.6a3,3,0,0,0-2.4-2.4A19.1,19.1,0,0,0,564.9,160.8Z" style="fill:#69261d"/><path d="M535.5,160.2s9.5-2.9,15.7-8.6c0,0,13,7.9,20.9,7.9l-2.2-5.1,7.5,5.4s13.4-29.2-20.5-29.4c-36.1-.3-21.5,27.9-21.5,27.9" style="fill:#010202"/><path d="M555.8,130.5c-34.7.3-20.3,27.9-20.3,27.9v1.8s9.5-2.9,15.7-8.6l4.5,2.5V130.5Z" style="fill:#010202"/><path d="M673.4,352.5s-4.2,7.1,6.7,14.9c0,0,.7,1.1-.5,1.1s-13.4-7.3-7.9-17l1-1.1,1,1.5Z" style="fill:#4d4d4d"/><rect x="647.1" y="274.3" width="2.6" height="105.18" transform="translate(1332.8 84.1) rotate(133.7)" style="fill:#7c7d7f"/><path d="M612.9,289.6l-9.1-8.7a3.5,3.5,0,0,0-3.5-.8c-2,.7-17.1,8.2-18.3,9.7s1.1,3.1,3.3,5.3,2.8,2.6,4.9,1.5,2-2.5,2.7-3,2.2.4,3.2-.4,1.7-2.4,2.6-2.5,2.1.6,3.6-.6a2.5,2.5,0,0,1,2.8-.4s3.9,2.7,3.9,3.3-7.8,6.6-9.7,6.1-1.4,1-1.4,1,2,3.1,12.1-6.1A5,5,0,0,0,612.9,289.6Z" style="fill:#4d4d4d"/><path d="M687.4,362.3a1.4,1.4,0,0,1-1.8,1.9Z" style="fill:#4d4d4d"/><circle cx="673.1" cy="350.5" r="0.6" transform="translate(-45.4 594.8) rotate(-46.3)" style="fill:#4d4d4d"/><path d="M343.1,235.7c-15.9-.3-11.3-29.4-11.3-29.4-10.9-1-11.4,3.3-11.4,3.3a387.7,387.7,0,0,0-6.2,42.3h28.9Z" style="fill:#e9f81f"/><path d="M314.1,273c2.6,21.3,29,11.9,29,11.9V272.6h-29Z" style="fill:#e9f81f"/><path d="M313.7,259.3c-.1,2-.1,4-.1,5.9h29.5v-5.9Z" style="fill:#e9f81f"/><path d="M343.1,259.3v-7.4H314.2c-.2,2.5-.3,5-.4,7.4Z" style="fill:#b8b8b8"/><path d="M314.1,272.6h29v-7.4H313.6A74.2,74.2,0,0,0,314.1,272.6Z" style="fill:#b8b8b8"/><rect x="325.4" y="206.3" width="4.7" height="49.3" style="fill:#b8b8b8"/><path d="M311.2,259.3H281.9v5.9h29.5C311.3,263.3,311.3,261.3,311.2,259.3Z" style="fill:#e9f81f"/><path d="M281.9,284.9s26.4,9.4,29-11.9v-.4h-29Z" style="fill:#e9f81f"/><path d="M304.6,209.6s-.6-4.3-11.4-3.3c0,0,4.6,29.1-11.3,29.4v16.1h28.9A387.8,387.8,0,0,0,304.6,209.6Z" style="fill:#e9f81f"/><path d="M310.8,251.9H281.9v7.4h29.4C311.1,256.9,311,254.4,310.8,251.9Z" style="fill:#b8b8b8"/><path d="M281.9,265.2v7.4h29a74.2,74.2,0,0,0,.4-7.4Z" style="fill:#b8b8b8"/><rect x="294.6" y="206.3" width="4.7" height="49.3" style="fill:#b8b8b8"/><path d="M453.5,232.7c-15.9-.3-11.3-29.4-11.3-29.4-10.9-1-11.4,3.3-11.4,3.3a387.7,387.7,0,0,0-6.2,42.3h28.9Z" style="fill:#e9f81f"/><path d="M424.5,269.9c2.6,21.3,29,11.9,29,11.9V269.5h-29Z" style="fill:#e9f81f"/><path d="M424.1,256.2c-.1,2-.1,4-.1,5.9h29.5v-5.9Z" style="fill:#e9f81f"/><path d="M453.5,256.2v-7.4H424.6c-.2,2.5-.3,5-.4,7.4Z" style="fill:#b8b8b8"/><path d="M424.5,269.5h29v-7.4H424A74.2,74.2,0,0,0,424.5,269.5Z" style="fill:#b8b8b8"/><rect x="435.8" y="203.2" width="4.7" height="49.3" style="fill:#b8b8b8"/><path d="M412.4,256.2H383v5.9h29.5C412.5,260.2,412.5,258.2,412.4,256.2Z" style="fill:#e9f81f"/><path d="M383,281.8s26.4,9.4,29-11.9v-.4H383Z" style="fill:#e9f81f"/><path d="M405.8,206.5s-.6-4.3-11.4-3.3c0,0,4.6,29.1-11.3,29.4v16.1H412A387.8,387.8,0,0,0,405.8,206.5Z" style="fill:#e9f81f"/><path d="M412,248.8H383v7.4h29.4C412.3,253.8,412.2,251.3,412,248.8Z" style="fill:#b8b8b8"/><path d="M383,262.1v7.4h29a74.2,74.2,0,0,0,.4-7.4Z" style="fill:#b8b8b8"/><rect x="395.8" y="203.2" width="4.7" height="49.3" style="fill:#b8b8b8"/><path d="M588,228.4c-15.9-.3-11.3-29.4-11.3-29.4-13.1-5.3-11.4,3.3-11.4,3.3a387.7,387.7,0,0,0-6.2,42.3H588Z" style="fill:#e9f81f"/><path d="M559,265.7c2.6,21.3,29,11.9,29,11.9V265.3H559Z" style="fill:#e9f81f"/><path d="M558.7,252c-.1,2-.1,4-.1,5.9H588V252Z" style="fill:#e9f81f"/><path d="M588,252v-7.4H559.1c-.2,2.5-.3,5-.4,7.4Z" style="fill:#b8b8b8"/><path d="M559,265.3h29v-7.4H558.6A74.2,74.2,0,0,0,559,265.3Z" style="fill:#b8b8b8"/><rect x="570.3" y="199" width="4.7" height="49.3" style="fill:#b8b8b8"/><path d="M557.5,252H528.2v5.9h29.5C557.6,256,557.6,254,557.5,252Z" style="fill:#e9f81f"/><path d="M528.2,277.6s26.4,9.4,29-11.9v-.4h-29Z" style="fill:#e9f81f"/><path d="M550.9,202.3s-2.1-7.9-11.4-3.3c0,0,4.6,29.1-11.3,29.4v16.1h28.9A387.8,387.8,0,0,0,550.9,202.3Z" style="fill:#e9f81f"/><path d="M557.1,244.6H528.2V252h29.4C557.4,249.6,557.3,247.1,557.1,244.6Z" style="fill:#b8b8b8"/><path d="M528.2,257.9v7.4h29a74.2,74.2,0,0,0,.4-7.4Z" style="fill:#b8b8b8"/><rect x="540.9" y="199" width="4.7" height="49.3" style="fill:#b8b8b8"/><path d="M503.1,90.9s4.9-17,6.7-19.3c0,0-11-5.5-16.2-4.6L490,68.5l-.3-2.8s-18.8-.2-27.2.8l1.2,4.1s-2.6-4-7-3.3-21.4,6.8-24.1,10.1l1.4.8s-2.7-.4-3.6.3-3.4,3.9-3.5,4.6,6.4,3.9,11.4,13.3Z" style="fill:#4d4d4d"/><path d="M505.3,76s-4.7,10.4-5.9,7.5,2.8-11.3,2.8-11.3-5.2,13.6-9.6,14.3c0,0-1.9.1,1.5-9.2l2.5-6.2s-4.1,13.8-6.8,15.1-4.5,1.1-5.3-.1-5.6,5.4-8.7-9.2c0,0,2.5,13.7-6.9,12.5l-2.3-.7s-6.6,5.4-9.6-.8c0,0,1.1,6.4-3.7,4S442,82.4,442,82.4s5.7,12.5,3,15.6l57.7-5.5S501.6,83.5,505.3,76Z" style="fill:#6d6e71"/><path d="M508,98.7s2.7-6.9.3-8.7-67,2.9-74.8,8.1l2.6,9.4" style="fill:#22bbcd"/><ellipse cx="472.1" cy="103.1" rx="36.2" ry="3.3" transform="translate(-9 57.9) rotate(-6.9)" style="fill:#0999af"/><path d="M469.6,104.4a3.2,3.2,0,0,1,2.8-1.7c2.3-.3,2.6,1,2.6,1l21.5,176.2s1,5.8-2,6.2-3.4-5.5-3.4-5.5Z" style="fill:#22bbcd"/><path d="M462,85s2.6-5.2-3.9-12.5A20,20,0,0,1,462,85Z" style="fill:#6d6e71"/><path d="M445.8,76a20,20,0,0,1,5.7,11.8s1.8-5.5-5.7-11.8" style="fill:#6d6e71"/><path d="M433.6,81a20,20,0,0,1,7.5,10.7S442,86,433.6,81" style="fill:#6d6e71"/><path d="M485,70.6a20,20,0,0,0-2,13s-3.3-4.8,2-13" style="fill:#6d6e71"/><path d="M474.7,70.5a20,20,0,0,0-2,13s-3.3-4.8,2-13" style="fill:#6d6e71"/><path d="M550.6,392.1h-6.2s-16.1,6.2-14.3,9.8H551Z" style="fill:#c72624"/><path d="M562.6,392.1h6.2s16.1,6.2,14.3,9.8H562.2Z" style="fill:#ea5050"/><path d="M590.3,381.4l6.3,3.6a2.4,2.4,0,0,1,1.2,2.1v7.3a2.4,2.4,0,0,1-1.2,2.1l-6.3,3.6a2.4,2.4,0,0,1-2.4,0l-6.3-3.6a2.4,2.4,0,0,1-1.2-2.1v-7.3a2.4,2.4,0,0,1,1.2-2.1l6.3-3.6A2.4,2.4,0,0,1,590.3,381.4Z" style="fill:#bbbe3a"/><path d="M590.3,377.7l7.1,4.1a2.7,2.7,0,0,1,1.4,2.4v8.2a2.7,2.7,0,0,1-1.4,2.4l-7.1,4.1a2.7,2.7,0,0,1-2.7,0l-7.1-4.1a2.7,2.7,0,0,1-1.4-2.4v-8.2a2.7,2.7,0,0,1,1.4-2.4l7.1-4.1A2.7,2.7,0,0,1,590.3,377.7Z" style="fill:#d3de46"/><path d="M576.8,388.2l6.3,3.6a2.4,2.4,0,0,1,1.2,2.1v7.3a2.4,2.4,0,0,1-1.2,2.1l-6.3,3.6a2.4,2.4,0,0,1-2.4,0l-6.3-3.6a2.4,2.4,0,0,1-1.2-2.1v-7.3a2.4,2.4,0,0,1,1.2-2.1l6.3-3.6A2.4,2.4,0,0,1,576.8,388.2Z" style="fill:#bbbe3a"/><path d="M576.8,384.5l7.1,4.1a2.7,2.7,0,0,1,1.4,2.4v8.2a2.7,2.7,0,0,1-1.4,2.4l-7.1,4.1a2.7,2.7,0,0,1-2.7,0l-7.1-4.1a2.7,2.7,0,0,1-1.4-2.4v-8.2a2.7,2.7,0,0,1,1.4-2.4l7.1-4.1A2.7,2.7,0,0,1,576.8,384.5Z" style="fill:#d3de46"/><rect x="578.1" y="402" width="10.1" height="6.41" style="fill:#6e8c3b"/><path d="M574.4,383.3l1.5,2.6a1,1,0,0,1,0,1l-1.5,2.6a1,1,0,0,1-.9.5h-3a1,1,0,0,1-.9-.5l-1.5-2.6a1,1,0,0,1,0-1l1.5-2.6a1,1,0,0,1,.9-.5h3A1,1,0,0,1,574.4,383.3Z" style="fill:#6e8c3b"/><path d="M574.4,382.9l1.5,2.6a1,1,0,0,1,0,1l-1.5,2.6a1,1,0,0,1-.9.5h-3a1,1,0,0,1-.9-.5l-1.5-2.6a1,1,0,0,1,0-1l1.5-2.6a1,1,0,0,1,.9-.5h3A1,1,0,0,1,574.4,382.9Z" style="fill:#8ea43b"/><path d="M585.6,380.3l9.2,5.3a3.5,3.5,0,0,1,1.8,3.1v10.7a3.5,3.5,0,0,1-1.8,3.1l-9.2,5.3a3.5,3.5,0,0,1-3.5,0l-9.2-5.3a3.5,3.5,0,0,1-1.8-3.1V388.7a3.5,3.5,0,0,1,1.8-3.1l9.2-5.3A3.5,3.5,0,0,1,585.6,380.3Z" style="fill:#6e8c3b"/><path d="M584.9,378.9l9.2,5.3a3.5,3.5,0,0,1,1.8,3.1V398a3.5,3.5,0,0,1-1.8,3.1l-9.2,5.3a3.5,3.5,0,0,1-3.5,0l-9.2-5.3a3.5,3.5,0,0,1-1.8-3.1V387.3a3.5,3.5,0,0,1,1.8-3.1l9.2-5.3A3.5,3.5,0,0,1,584.9,378.9Z" style="fill:#a3c23a"/><path d="M597.8,390.3l3.7,6.6a2.5,2.5,0,0,1,0,2.5l-3.8,6.5a2.5,2.5,0,0,1-2.2,1.2h-7.5a2.5,2.5,0,0,1-2.2-1.3l-3.7-6.6a2.5,2.5,0,0,1,0-2.5l3.8-6.5a2.5,2.5,0,0,1,2.2-1.2h7.5A2.5,2.5,0,0,1,597.8,390.3Z" style="fill:#6e8c3b"/><path d="M597.8,389.2l3.7,6.6a2.5,2.5,0,0,1,0,2.5l-3.8,6.5a2.5,2.5,0,0,1-2.2,1.2H588a2.5,2.5,0,0,1-2.2-1.3l-3.7-6.6a2.5,2.5,0,0,1,0-2.5l3.8-6.5a2.5,2.5,0,0,1,2.2-1.2h7.5A2.5,2.5,0,0,1,597.8,389.2Z" style="fill:#8ea43b"/><path d="M636,410.1c.7,3.1,1,6.5,3.3,8.9s5.7,5.8,9.9,6.7l3.1.6c.4.1.7.5,1.1.8s-.7.8-1.1.8a17.3,17.3,0,0,1-4.3-.2,23.3,23.3,0,0,1-13.3-7.8c-.1-.2-.5-.1-.8-.1l-2,3.3a35.3,35.3,0,0,1-4.4,3.1,14.9,14.9,0,0,1-10.1,1.4c.4-.4.7-1.2,1.1-1.2s3.1-.1,4.6-1a2.8,2.8,0,0,1,1.1-.2,41.8,41.8,0,0,0,3.8-3,5.3,5.3,0,0,0,1.6-4.2c0-.4-.3-.7-.5-1.1a15.8,15.8,0,0,0-.5-1.9c-.4-1-.8-1.9-1.3-2.9a8.5,8.5,0,0,1-.3-2.4,14.2,14.2,0,0,1,1-3.4c.8-1.9.7-3.9.8-5.9s.3-1.5,1.2-1.4a15.8,15.8,0,0,1,2.3.3,22.7,22.7,0,0,0,.8,2.6c.5,1.1,1.2,2.1,1.6,3.3S635.6,408.5,636,410.1Z" style="fill:#ffdd15"/><path d="M627.2,412.3c.4,1,.9,1.9,1.3,2.9a15.8,15.8,0,0,1,.5,1.9,25,25,0,0,1-5,7.3c-.4.4-.6.7.2.9a2.8,2.8,0,0,0-1.1.2c-1.4.9-3,.8-4.6,1s-.7.8-1.1,1.2l-.5.3h-4v-1h.2l5.1-1.1h0l2.4-1.6h0l.3-.3h0l.8-.6.6-.6.9-1.3,2.4-4.3.2-.3v-.5l.3-.7h0l.2-.5h0l.3-.8v-.3Z" style="fill:#dcaa51"/><path d="M634,419.8c.1.5.1,1.1.2,1.6a4.6,4.6,0,0,0,3.2,4.4,53.6,53.6,0,0,0,6,1.2,1.4,1.4,0,0,1,.8.4c-1.1.9-2.5.3-3.7.7h-4.9a6.7,6.7,0,0,1-3.5-4.7Z" style="fill:#dcaa51"/><path d="M627.2,412.3l-.5,1.6c0-3-.1-6.1-.1-9.1a5.3,5.3,0,0,1,.5-1.8c.5-1.1,1.4-2.1,1.1-3.5a.4.4,0,0,1,.1-.3c.9-1.4,2.3-.6,3.4-.7s1.2.6,1.3,1.5a9.2,9.2,0,0,0,.8,2.1c.6,1.7,1.3,3.5,1.8,5.3a16,16,0,0,1,.3,2.6c-.4-1.6-.8-3.2-1.3-4.8s-1.2-2.2-1.6-3.3a22.7,22.7,0,0,1-.8-2.6,15.8,15.8,0,0,0-2.3-.3c-.9,0-1.2.6-1.2,1.4s.1,4-.8,5.9a14.2,14.2,0,0,0-1,3.4A8.5,8.5,0,0,0,627.2,412.3Z" style="fill:#f0cd90"/><path d="M626.1,415.6l-.3.7Z" style="fill:#f0cd90"/><path d="M626.6,414.2l-.3.8Z" style="fill:#f0cd90"/><path d="M626.3,415l-.2.5Z" style="fill:#f0cd90"/><path d="M625.7,416.8l-.2.3Z" style="fill:#f0cd90"/><path d="M624.2,425.3c-.8-.2-.5-.5-.2-.9a25,25,0,0,0,5-7.3c.2.3.5.7.5,1.1a5.3,5.3,0,0,1-1.6,4.2A41.8,41.8,0,0,1,624.2,425.3Z" style="fill:#eae6c9"/><path d="M706.7,380l-2.6-1.1-3.4-.9-1-.4-4-1-.2-.3.8-.5L694,374a15.2,15.2,0,0,1,5.8-1.8c1,0,1.3-.7,1-1.7l3.1-2.3c.2.8.8,1.6.6,2.3s-.9,1.4-1.2,1.8l1.7,2.4h-2.7v.2a3.8,3.8,0,0,1,2.9,2.4Z" style="fill:#eae6c9"/><path d="M700.8,370.5c.3,1.1,0,1.7-1,1.7A15.2,15.2,0,0,0,694,374l2.4,1.9-.8.5.2.3,4,1,1,.4-.6.3c-1.2.7-2.3,1-3.4-.1a.9.9,0,0,0-.8-.2c-.9.7-2,.4-3,.4l-1-.7.2-.8c-1.2-1-3.4-.5-3.9-2.5a2.4,2.4,0,0,1,2.6.1,1.7,1.7,0,0,0,2.3,0l-1-.4c-1.6-.3-3.1-1.4-4.9-.8s-1.3-1-1-2.2a1.1,1.1,0,0,0,.1-1.6c-.1-.1,0-.4,0-.6l3.5,2.3c.2.4.3.9.6,1.1a15.3,15.3,0,0,0,2.2,1l.7-1a7,7,0,0,1,3.4-.4,6.4,6.4,0,0,0,2.1-.8Z" style="fill:#d1d1d2"/><path d="M706.7,380l-1.7-2.6a2.5,2.5,0,0,0,0-2.7l-1.7-2.4c.3-.5,1.1-1.1,1.2-1.8s-.4-1.5-.6-2.3c1.4-.2,1.4-.2,1.7-1.9a10.5,10.5,0,0,1,3.2,6.8l-1.6.3v.3l1.8.2c-.1,1.4-.2,2.8-.4,4.2a4.5,4.5,0,0,1-1,1.8C707.5,380.1,707,380,706.7,380Z" style="fill:#de3a38"/><path d="M687.2,373.4c1.8-.6,3.3.5,4.9.8l1,.4a1.7,1.7,0,0,1-2.3,0,2.4,2.4,0,0,0-2.6-.1c.5,2.1,2.7,1.5,3.9,2.5l-.2.8,1,.7-5,4.4-.6-.2-.2-.4h0l-.2-.2h0l-.3-.4h0a9.5,9.5,0,0,1-.4-6.4Z" style="fill:#eae6c9"/><path d="M686.2,375.4a9.5,9.5,0,0,0,.4,6.4,10.3,10.3,0,0,1-1.2-2.6,32.4,32.4,0,0,1-.5-6,20.1,20.1,0,0,1,1-4.2h.3c0,.2-.1.5,0,.6a1.1,1.1,0,0,1-.1,1.6v-1.1h-.3c-1.2,2.5-.4,5.1-.5,7.8Z" style="fill:#a3875a"/><path d="M709,373.9l-1.8-.2v-.3l1.6-.3,3.8.2v1.1Z" style="fill:#234520"/><path d="M693.3,372.4l-.7,1a15.3,15.3,0,0,1-2.2-1c-.3-.2-.4-.7-.6-1.1s1.9.1,2.8.5Z" style="fill:#eae6c9"/><path d="M687.1,382.3l.2.4Z" style="fill:#a3875a"/><path d="M686.6,381.8l.3.4Z" style="fill:#a3875a"/><path d="M686.8,382.1l.2.2Z" style="fill:#a3875a"/><path d="M705,374.7a2.5,2.5,0,0,1,0,2.7,3.8,3.8,0,0,0-2.9-2.4v-.2Z" style="fill:#f0cd90"/><path d="M686.2,375.4l-.9,2.6c.1-2.7-.7-5.3.5-7.8h.3v1.1c-.3,1.2-.1,1.5,1,2.2Z" style="fill:#de3a38"/><path d="M164,424.6l57.9-4.8s1.3,9.6-4.4,10.4l-23.7,2s-7.4.8-12.4-2.3-16.3-2.3-16.3-2.3,0,1.5-.6,1.4l-1.3.2-.4-4.5Z" style="fill:#48893d"/><path d="M164,424.6l57.9-4.8s1-8.2-6-9.6l-23.7,2s-7.4.4-11.9,4.3-15.7,4.9-15.7,4.9-.2-1.5-.9-1.2h-1.3l.4,4.5Z" style="fill:#2a6821"/><ellipse cx="162.6" cy="424.7" rx="1" ry="4.5" transform="translate(-34.3 14.8) rotate(-4.7)" style="fill:#48893d"/><ellipse cx="162.6" cy="424.7" rx="0.7" ry="3.2" transform="translate(-34.3 14.8) rotate(-4.7)" style="fill:#2a6821"/><ellipse cx="199.9" cy="421.6" rx="11.2" ry="5.2" transform="translate(-33.9 17.8) rotate(-4.7)" style="fill:#56934c"/><path d="M203.2,439.3a2.3,2.3,0,0,1-.4-.6c-.2-.9-.3-1.8-.5-2.6a16.9,16.9,0,0,0-.3-2.2,1.9,1.9,0,0,0-.7-1l-2.7-1.6c.2-.2.4-.5.7-.7a7.9,7.9,0,0,1,2-.6c1.3-.2,1.8-1.1,2.2-2.1s1.7-3.4,2.5-5.2h0l2.8,2.6,1.6,1.5v-2h.3l.7,2.2c.1.2.2.5.3.5l4.4,1.7.2.8c-1.2-.1-1.3.8-1.6,1.5l-.9,2.2c1.1-1.2,1.1-1.1,2.9-1.1s1,.2,1.2.9.3.7.4,1a1.7,1.7,0,0,0,1.4,1.4,15.5,15.5,0,0,1,2.2.9v.3l-3.4,1.2-2.8,1h-.3l-3.5-1.4a1.3,1.3,0,0,0-.1-.4,3,3,0,0,1-.2-3.1.6.6,0,0,0-.1-.5,1.5,1.5,0,0,1-.6-2.2l-.6.4c-.7.8-.3,1.8-.4,2.7a2.9,2.9,0,0,1-.3,1l-.9,1.3-4,1.4Zm.6-3.3,1.1.3c.8.2,1.2,0,1.5-.9.9-2.7.6-5.4.3-8.1-.1,1.4,0,2.7-.1,4.1S206.1,435.2,203.8,436Z" style="fill:#f2f2f2"/><path d="M215.7,439.4l2.8-1,3.4-1.2v-.3a15.5,15.5,0,0,0-2.2-.9,1.7,1.7,0,0,1-1.4-1.4c-.1-.4-.3-.7-.4-1s-.5-.9-1.2-.9-1.8-.1-2.9,1.1l.9-2.2c.3-.7.4-1.6,1.6-1.5l-.2-.8-.5-1v-.2a2.4,2.4,0,0,0,.1-.8l-1.2-5.9a20.1,20.1,0,0,1,3.4,2,9.4,9.4,0,0,1,1.6,2.6,32.1,32.1,0,0,0,1.8,3.2,8.6,8.6,0,0,0,2,1.8c.4.3.5.5.3,1l-1.6,4c-.1.3.1.7,0,1a4.2,4.2,0,0,1-.8,1.7,9.1,9.1,0,0,1-2.2,1.3,1.5,1.5,0,0,1-1,.1Z" style="fill:#dbdddd"/><path d="M215.7,428.3l.5,1-4.4-1.7c-.2-.1-.3-.3-.3-.5l-.7-2.2h-.3v2l-1.6-1.5-2.8-2.6.5-.2h.9a16.8,16.8,0,0,0,7.2-1l1.2,5.9a2.4,2.4,0,0,1-.1.8c-.3-2-1.8-3.7-1.6-6a13.5,13.5,0,0,0-1.7,1.7.6.6,0,0,0-.1.5l.7,2.2c.8-.7.9.2,1.2.5Z" style="fill:#f2f2f2"/><path d="M211.9,438l3.5,1.4c-1.7,1.4-3.5,1.7-5.3.6s-4-.9-6-.7h-.8l1.6-.8,4-1.4.8.2Z" style="fill:#b7b3ae"/><path d="M206,422.8c-.8,1.7-1.7,3.4-2.5,5.2s-.9,2-2.2,2.1a7.9,7.9,0,0,0-2,.6c-.3.1-.4.4-.7.7h-.2c0-.2,0-.5.1-.6l.9-.8a9.5,9.5,0,0,0,3.1-3.7,11.6,11.6,0,0,1,2.5-2.8A5.5,5.5,0,0,1,206,422.8Z" style="fill:#dbdddd"/><path d="M198.4,431.4h.2l2.7,1.6a1.9,1.9,0,0,1,.7,1,16.9,16.9,0,0,1,.3,2.2l-1.6-.7c-.2-.1-.4-.3-.4-.5s-.5-1.5-1-2.2Z" style="fill:#b7b3ae"/><path d="M211.9,438l-2.3-.6-.8-.2.9-1.3a2.9,2.9,0,0,0,.3-1c.1-.9-.3-1.9.4-2.7l.6-.4a1.5,1.5,0,0,0,.6,2.2.6.6,0,0,1,.1.5,3,3,0,0,0,.2,3.1A1.3,1.3,0,0,1,211.9,438Z" style="fill:#dbdddd"/><path d="M203.8,436c2.3-.9,2.7-2.7,2.8-4.6s0-2.7.1-4.1c.3,2.7.6,5.4-.3,8.1-.3.9-.7,1.1-1.5.9Z" style="fill:#dbdddd"/><path d="M215.7,428.3l-1.4-1.4c-.3-.3-.5-1.2-1.2-.5l-.7-2.2a.6.6,0,0,1,.1-.5,13.5,13.5,0,0,1,1.7-1.7c-.3,2.3,1.2,4,1.6,6Z" style="fill:#f2f2f2"/><path d="M460.3,316.2s50.4,17,24.7,53.9S418.2,450,418.2,450h87s41.2-103.7,7.1-118.9-39.2-16.6-39.2-16.6Z" style="fill:#6d6e71"/><path d="M392.7,424.7l-.2-.4-.3-1.8a11.6,11.6,0,0,0-.2-1.5,1.3,1.3,0,0,0-.5-.7l-1.9-1.1c.1-.2.3-.4.4-.5l1.4-.4c.9-.1,1.2-.7,1.5-1.5s1.1-2.4,1.7-3.5h0l1.9,1.8,1.1,1v-1.4h.2l.5,1.5c0,.1.1.3.2.4l3,1.2.2.6c-.8-.1-.9.6-1.1,1l-.6,1.5c.8-.8.8-.8,2-.7s.7.2.8.6l.3.7a1.2,1.2,0,0,0,1,1l1.5.6v.2l-2.3.8-1.9.7H401l-2.4-1a.9.9,0,0,0,0-.3,2.1,2.1,0,0,1-.1-2.1.4.4,0,0,0-.1-.4,1,1,0,0,1-.4-1.5l-.4.3c-.5.6-.2,1.2-.3,1.9a2,2,0,0,1-.2.7l-.6.9-2.7,1Zm.4-2.3.7.2c.5.1.8,0,1-.6a12.9,12.9,0,0,0,.2-5.6c0,.9,0,1.9,0,2.8S394.7,421.9,393.1,422.5Z" style="fill:#f2f2f2"/><path d="M401.2,424.8l1.9-.7,2.3-.8v-.2l-1.5-.6a1.2,1.2,0,0,1-1-1l-.3-.7c-.1-.4-.3-.6-.8-.6s-1.2-.1-2,.7l.6-1.5c.2-.5.3-1.1,1.1-1l-.2-.6-.3-.7h0a1.7,1.7,0,0,0,.1-.5l-.8-4a13.8,13.8,0,0,1,2.4,1.4,6.5,6.5,0,0,1,1.1,1.8,22,22,0,0,0,1.2,2.2,5.9,5.9,0,0,0,1.4,1.2c.3.2.3.4.2.7l-1.1,2.8c-.1.2,0,.5,0,.7a2.9,2.9,0,0,1-.6,1.2,6.3,6.3,0,0,1-1.5.9H403Z" style="fill:#dbdddd"/><path d="M401.3,417.2l.3.7-3-1.2c-.1,0-.2-.2-.2-.4l-.5-1.5h-.2v1.4l-1.1-1-1.9-1.8.3-.2h.6a11.5,11.5,0,0,0,4.9-.7l.8,4a1.7,1.7,0,0,1-.1.5c-.2-1.4-1.2-2.6-1.1-4.1l-1.2,1.1a.4.4,0,0,0-.1.3l.5,1.5c.5-.5.6.1.9.3Z" style="fill:#f2f2f2"/><path d="M398.7,423.8l2.4,1a2.8,2.8,0,0,1-3.6.4c-1.3-.9-2.7-.6-4.1-.5h-.6l1.1-.5,2.7-1,.5.2Z" style="fill:#b7b3ae"/><path d="M394.6,413.4c-.6,1.2-1.2,2.3-1.7,3.5s-.6,1.3-1.5,1.5l-1.4.4c-.2.1-.3.3-.4.5h-.2c0-.1,0-.3.1-.4l.6-.5a6.5,6.5,0,0,0,2.1-2.6,8,8,0,0,1,1.7-1.9Z" style="fill:#dbdddd"/><path d="M389.4,419.3h.2l1.9,1.1a1.3,1.3,0,0,1,.5.7,11.6,11.6,0,0,1,.2,1.5l-1.1-.5c-.1-.1-.3-.2-.3-.3s-.3-1-.7-1.5Z" style="fill:#b7b3ae"/><path d="M398.7,423.8l-1.6-.4-.5-.2.6-.9a2,2,0,0,0,.2-.7c.1-.6-.2-1.3.3-1.9l.4-.3a1,1,0,0,0,.4,1.5.4.4,0,0,1,.1.4,2.1,2.1,0,0,0,.1,2.1A.9.9,0,0,1,398.7,423.8Z" style="fill:#dbdddd"/><path d="M393.1,422.5c1.6-.6,1.8-1.9,1.9-3.2s0-1.9,0-2.8a12.9,12.9,0,0,1-.2,5.6c-.2.6-.5.7-1,.6Z" style="fill:#dbdddd"/><path d="M401.3,417.2l-1-.9c-.2-.2-.3-.8-.9-.3l-.5-1.5a.4.4,0,0,1,.1-.3l1.2-1.1c-.2,1.6.8,2.7,1.1,4.1Z" style="fill:#f2f2f2"/><ellipse cx="88" cy="421.5" rx="27.8" ry="8.3" style="fill:#404041"/><ellipse cx="88" cy="420.2" rx="27.8" ry="8.3" style="fill:#878787"/><path d="M83.6,393.5s-1.3,15.9-6,22.5,25.3,5.3,19.2,0c0,0-4.1-17.1-3.9-22.5Z" style="fill:#404041"/><path d="M115.5,390.6l17.4-82.4-89.6,1,18.5,81.4s9.3,7.9,25.7,7.9A54.8,54.8,0,0,0,115.5,390.6Z" style="fill:#878787"/><path d="M57.8,384.6s10.5,6.7,31.2,6.7,30.2-7.9,30.2-7.9v4.9s-11.5,6.9-30.7,6.9-29.7-6.1-29.7-6.1Z" style="fill:#404041"/><path d="M47.2,321.2s14.4,6.3,43,6.3,41.7-7.9,41.7-7.9v6.7s-15.8,6.6-42.4,6.6-41-5.5-41-5.5Z" style="fill:#404041"/><polygon points="105.9 299.9 113.3 300.3 113.3 304 104.3 302.9 104 300 105.9 299.9" style="fill:#bc7f2e"/><polygon points="90 299.3 89.3 299.7 89.5 305.2 97.5 305 97.6 299.7 96.6 299.3 90 299.3" style="fill:#d39954"/><polygon points="75.4 299.3 74.6 299.7 74.8 305.2 82.8 305 82.9 299.7 81.9 299.3 75.4 299.3" style="fill:#d39954"/><polygon points="65.1 300.2 67.3 300.5 67 306.1 59.2 306.1 59 300.5 65.1 300.2" style="fill:#d39954"/><polygon points="50.6 301.7 47.2 302.9 47.2 307.1 52.8 306.7 54.1 301.7 50.6 301.7" style="fill:#bc7f2e"/><polygon points="121.9 301.5 126.6 302.5 126.6 305.6 119.5 304.6 119.2 301.7 121.9 301.5" style="fill:#bc7f2e"/><polygon points="41.1 307.4 41.1 305.6 43.2 305.6 43.2 307.8 41.1 307.4" style="fill:#7f4b06"/><polygon points="45.6 311.5 43.2 311.5 43.2 305.6 45.4 304.5 45.6 311.5" style="fill:#d39954"/><polyline points="48.9 309 48.9 303 54.1 301.7" style="fill:#bc7f2e"/><polygon points="54.1 309 48.9 309 48.9 303 54.1 301.7 54.1 309" style="fill:#d39954"/><polygon points="67.3 306.9 59 306.9 59 301 67.3 300.5 67.3 306.9" style="fill:#bc7f2e"/><rect x="74.6" y="299.7" width="8.3" height="6.8" style="fill:#bc7f2e"/><rect x="89.3" y="299.7" width="8.3" height="7.23" style="fill:#bc7f2e"/><polygon points="112.3 306.9 104 306.9 104 300.1 112.3 300.5 112.3 306.9" style="fill:#b26c08"/><polygon points="125.2 312 118.7 312 119.2 301.7 125.2 302.7 125.2 312" style="fill:#b26c08"/><path d="M129.6,304.1l.2,5.5,3.4,2.4,1.1-5.5A24.3,24.3,0,0,0,129.6,304.1Z" style="fill:#7f4b06"/><ellipse cx="87.4" cy="308.5" rx="45.5" ry="6.6" style="fill:#bfbfbf"/><polygon points="119.2 391.8 137 306.5 134.3 306.5 117.2 391.8 119.2 391.8" style="fill:#b26c08"/><ellipse cx="88" cy="308.6" rx="41.2" ry="5.4" style="fill:#494949"/><path d="M87.4,316H99.1l-3.3,89a43.7,43.7,0,0,1-8.9.7l.5-89.8" style="fill:#b26c08"/><polygon points="63.1 314.3 72.9 315.3 79.9 404.3 71.5 402.1 63.1 314.3" style="fill:#b26c08"/><polygon points="74.8 314.7 64.9 314 63.1 314.3 72.9 315.3 79.9 404.3 81.2 403.4 74.8 314.7" style="fill:#bc7f2e"/><polygon points="87.5 315.1 98.4 315.1 99.1 316 87.4 316 87.5 315.1" style="fill:#bc7f2e"/><polygon points="112.4 314.6 121 313.7 108.5 400.5 101.4 402.9 112.4 314.6" style="fill:#bc7f2e"/><polygon points="99.9 402.4 109.9 314.2 112.4 314.6 101.4 402.9 99.9 402.4" style="fill:#b26c08"/><polygon points="118.7 313.3 121 313.7 112.4 314.6 109.9 314.2 118.7 313.3" style="fill:#d39954"/><polygon points="126.2 311.6 110.7 397.3 113 397.9 128.8 312 126.2 311.6" style="fill:#b26c08"/><polygon points="133.4 310.5 128.8 312 113 397.9 117.1 395.5 133.4 310.5" style="fill:#bc7f2e"/><polygon points="133.4 310.5 130.7 310.2 126.2 311.6 128.8 312 133.4 310.5" style="fill:#d39954"/><polygon points="53.6 313.3 67.4 400 69.2 399.4 56.2 312.6 53.6 313.3" style="fill:#7f4b06"/><polyline points="53.6 313.3 47.2 311.6 61.4 397.1 67.4 400" style="fill:#b26c08"/><polygon points="50 311.1 56.2 312.6 53.6 313.3 47.2 311.6 50 311.1" style="fill:#bc7f2e"/><polygon points="59.2 394 41.9 309.7 45.3 309.7 60.8 393.4 59.2 394" style="fill:#7f4b06"/><path d="M57.6,391.1,40,307a3.8,3.8,0,0,0,1.9,2.7L59.2,394Z" style="fill:#b26c08"/><path d="M43.3,307H40a3.6,3.6,0,0,0,1.9,2.7h3.3A3.8,3.8,0,0,1,43.3,307Z" style="fill:#bc7f2e"/><path d="M134.3,306.5a28,28,0,0,0-4.8-2.3l2.1-.2,5.3,2.5Z" style="fill:#d39954"/><polygon points="41.1 305.6 42.9 304.5 45.4 304.5 43.2 305.6 41.1 305.6" style="fill:#b26c08"/><ellipse cx="93.3" cy="330.9" rx="1.4" ry="1.7" style="fill:#845d2a"/><ellipse cx="91.5" cy="399.6" rx="1.1" ry="1.3" style="fill:#845d2a"/><path d="M116.2,329.6a1.7,1.7,0,0,1-1.9,1.3,1.4,1.4,0,0,1-.8-1.9,1.7,1.7,0,0,1,1.9-1.3A1.4,1.4,0,0,1,116.2,329.6Z" style="fill:#845d2a"/><path d="M130,325.3c-.2.8-.7,1.3-1.3,1.2s-.8-.8-.6-1.6.7-1.3,1.3-1.2S130.2,324.5,130,325.3Z" style="fill:#845d2a"/><ellipse cx="69.2" cy="329.7" rx="1.4" ry="1.7" style="fill:#845d2a"/><path d="M53.1,325.9c.3.9.1,1.7-.4,1.8s-1.2-.4-1.5-1.3-.1-1.7.4-1.8S52.8,325,53.1,325.9Z" style="fill:#845d2a"/><path d="M64.7,392.8c.3.7.1,1.4-.4,1.6s-1-.4-1.3-1.1-.1-1.4.4-1.6S64.4,392.1,64.7,392.8Z" style="fill:#845d2a"/><ellipse cx="75.4" cy="397.9" rx="1.2" ry="1.4" style="fill:#845d2a"/><path d="M106.7,396.6a1.3,1.3,0,0,1-1.5,1,1.1,1.1,0,0,1-.7-1.5,1.3,1.3,0,0,1,1.5-1A1.1,1.1,0,0,1,106.7,396.6Z" style="fill:#845d2a"/><path d="M116.7,392.2c-.1.7-.6,1.1-1.1,1s-.7-.7-.5-1.3.6-1.1,1.1-1S116.9,391.5,116.7,392.2Z" style="fill:#845d2a"/><g style="clip-path:url(#clip-path-3)"><path d="M112.7,295.3,90.1,313.7s-2.2-2.7-2-4.8l10.1-8.2s2.8-2.4,5.8-2.6,7.4-3.7,7.4-3.7-.5-.6-.1-.7l.5-.4,1.4,1.7Z" style="fill:#48893d"/><path d="M112.7,295.3,90.1,313.7s2.2,2.7,4.3,2.9l10.1-8.2s2.9-2.3,3.7-5.1,5.1-6.5,5.1-6.5.5.6.7.3l.5-.4-1.4-1.7Z" style="fill:#2a6821"/><ellipse cx="113.2" cy="294.9" rx="0.5" ry="2.2" transform="translate(-161.1 138.1) rotate(-39.3)" style="fill:#48893d"/><ellipse cx="113.2" cy="294.9" rx="0.3" ry="1.6" transform="translate(-161.1 138.1) rotate(-39.3)" style="fill:#2a6821"/><ellipse cx="98.6" cy="306.7" rx="5.6" ry="2.6" transform="translate(-171.8 131.6) rotate(-39.3)" style="fill:#56934c"/><path d="M50.4,311.9l-.2-.3-.2-1.2a7.7,7.7,0,0,0-.1-1,.9.9,0,0,0-.3-.5l-1.2-.7.3-.3.9-.3c.6-.1.8-.5,1-1l1.1-2.4h0l1.3,1.2.7.7v-.9h.1l.3,1,.2.2,2,.8v.4c-.6-.1-.6.4-.8.7l-.4,1c.5-.5.5-.5,1.3-.5s.5.1.5.4l.2.5a.8.8,0,0,0,.6.6l1,.4h0l-1.5.5-1.3.5H56l-1.6-.6a.6.6,0,0,0,0-.2,1.4,1.4,0,0,1-.1-1.4.3.3,0,0,0-.1-.2.7.7,0,0,1-.3-1l-.3.2c-.3.4-.1.8-.2,1.2l-.2.5-.4.6-1.8.6Zm.3-1.5h.5c.4.1.5,0,.7-.4a8.6,8.6,0,0,0,.1-3.7c0,.6,0,1.2,0,1.9S51.8,310,50.7,310.4Z" style="fill:#f2f2f2"/><path d="M56.1,311.9l1.3-.5,1.5-.5h0l-1-.4a.8.8,0,0,1-.6-.6l-.2-.5c-.1-.3-.2-.4-.5-.4s-.8,0-1.3.5l.4-1c.2-.3.2-.7.8-.7v-.4l-.2-.5h0a1.1,1.1,0,0,0,.1-.4l-.5-2.7a9.2,9.2,0,0,1,1.6.9,4.3,4.3,0,0,1,.8,1.2,14.6,14.6,0,0,0,.8,1.5,3.9,3.9,0,0,0,.9.8c.2.1.2.2.1.4l-.7,1.8c-.1.1,0,.3,0,.5a1.9,1.9,0,0,1-.4.8l-1,.6h-.4Z" style="fill:#dbdddd"/><path d="M56.1,306.8l.2.5-2-.8-.2-.2-.3-1h-.1v.9l-.7-.7-1.3-1.2h.6a7.7,7.7,0,0,0,3.3-.5l.5,2.7a1.1,1.1,0,0,1-.1.4c-.2-.9-.8-1.7-.7-2.7l-.8.8a.3.3,0,0,0,0,.2l.3,1c.3-.3.4.1.6.2Z" style="fill:#f2f2f2"/><path d="M54.4,311.3l1.6.6a1.9,1.9,0,0,1-2.4.3,3.9,3.9,0,0,0-2.7-.3h-.4l.8-.4,1.8-.6h.4Z" style="fill:#b7b3ae"/><path d="M51.7,304.3l-1.1,2.4c-.2.5-.4.9-1,1l-.9.3-.3.3h-.1c0-.1,0-.2,0-.3l.4-.4a4.3,4.3,0,0,0,1.4-1.7,5.3,5.3,0,0,1,1.2-1.3Z" style="fill:#dbdddd"/><path d="M48.2,308.2h.1l1.2.7a.9.9,0,0,1,.3.5,7.7,7.7,0,0,1,.1,1l-.7-.3-.2-.2c.1-.4-.2-.7-.4-1Z" style="fill:#b7b3ae"/><path d="M54.4,311.3l-1.1-.3H53l.4-.6.2-.5c.1-.4-.1-.9.2-1.2l.3-.2a.7.7,0,0,0,.3,1,.3.3,0,0,1,.1.2,1.4,1.4,0,0,0,.1,1.4A.6.6,0,0,1,54.4,311.3Z" style="fill:#dbdddd"/><path d="M50.7,310.4c1.1-.4,1.2-1.2,1.3-2.1s0-1.2,0-1.9a8.6,8.6,0,0,1-.1,3.7c-.1.4-.3.5-.7.4Z" style="fill:#dbdddd"/><path d="M56.1,306.8l-.6-.6c-.2-.1-.2-.5-.6-.2l-.3-1a.3.3,0,0,1,0-.2l.8-.8c-.1,1,.6,1.8.7,2.7Z" style="fill:#f2f2f2"/><path d="M64,292.7l10.6,27.1s-3.3,1.3-5.2.4L64.6,308s-1.4-3.4-.7-6.3-1.2-8.2-1.2-8.2-.7.2-.7-.1l-.3-.6,2.1-.8Z" style="fill:#48893d"/><path d="M64,292.7l10.6,27.1s3.3-1.3,4.1-3.2l-4.7-12.1s-1.2-3.5-3.7-5.1-4.6-6.8-4.6-6.8.7-.3.5-.6l-.2-.6-2.1.8Z" style="fill:#2a6821"/><ellipse cx="63.7" cy="292" rx="2.2" ry="0.5" transform="matrix(0.93, -0.36, 0.36, 0.93, -101.77, 43.12)" style="fill:#48893d"/><ellipse cx="63.7" cy="292" rx="1.6" ry="0.3" transform="translate(-101.8 43.1) rotate(-21.3)" style="fill:#2a6821"/><ellipse cx="70.5" cy="309.5" rx="2.6" ry="5.6" transform="translate(-107.7 46.8) rotate(-21.3)" style="fill:#56934c"/><polygon points="116 305 109.3 300.5 106.1 302.9 112.2 305.6 104.5 308.6 115.8 309.6 114 307 116 305" style="fill:#c1c8c9"/><polygon points="106.1 304.9 109.8 312.8 118.8 312.8 123.2 303.7 120.3 298.8 111.3 297.9 106.1 304.9" style="fill:#f0f7fa"/><polygon points="111.6 305.2 111.8 312.1 115 313.2 113.9 307.6 119.8 311.5 114.9 303 114 305.5 111.6 305.2" style="fill:#c1c8c9"/><path d="M114.3,296.4c-.4,0-7.1,9.4-7.1,9.4l7.1,7.7,3.5-9.2,2.1,7.5,2.7-10.2Z" style="fill:#e7edf0"/><polygon points="120.5 296.4 105.1 302.3 110.3 302.3 105.6 307.1 108.6 311 113.3 304.9 121.9 309.8 121.9 304.9 117.7 303.2 120.5 296.4" style="fill:#f0f7fa"/><polygon points="114.3 300 115.2 299.2 117 296.1 110.5 300.6 113.6 299.5 114.3 300" style="fill:#c1c8c9"/><polygon points="111.9 302.6 114.7 302 115.5 303.7 117 303.9 115.4 304.4 114 303 111.9 302.6" style="fill:#e7edf0"/><polygon points="83.4 299.3 78.8 296.2 76.5 297.9 80.8 299.8 75.4 301.9 83.3 302.5 82.1 300.8 83.4 299.3" style="fill:#c1c8c9"/><polygon points="76.5 299.3 79.1 304.8 85.3 304.8 88.5 298.4 86.5 295 80.1 294.4 76.5 299.3" style="fill:#f0f7fa"/><polygon points="80.4 299.5 80.5 304.3 82.7 305.1 82 301.1 86.1 303.9 82.7 298 82.1 299.8 80.4 299.5" style="fill:#c1c8c9"/><path d="M82.2,293.4c-.3,0-4.9,6.5-4.9,6.5l4.9,5.3,2.4-6.4,1.5,5.2L88,297Z" style="fill:#e7edf0"/><polygon points="86.6 293.4 75.8 297.5 79.5 297.5 76.2 300.8 78.3 303.5 81.5 299.3 87.6 302.7 87.6 299.3 84.6 298.1 86.6 293.4" style="fill:#f0f7fa"/><polygon points="82.2 295.9 82.9 295.3 84.1 293.2 79.6 296.3 81.7 295.6 82.2 295.9" style="fill:#c1c8c9"/><polygon points="80.6 297.7 82.5 297.3 83.1 298.4 84.1 298.6 83 298.9 82.1 298 80.6 297.7" style="fill:#e7edf0"/><path d="M88.3,298.8c.4,1.6.5,3.3,1.7,4.6s2.9,3,5.1,3.5l1.6.3.6.4c-.2.1-.4.4-.5.4a8.9,8.9,0,0,1-2.2-.1,11.9,11.9,0,0,1-6.8-4h-.4l-1,1.7a18.1,18.1,0,0,1-2.3,1.6,7.6,7.6,0,0,1-5.2.7c.2-.2.3-.6.6-.6a5.1,5.1,0,0,0,2.3-.5h.6a21.5,21.5,0,0,0,1.9-1.5,2.7,2.7,0,0,0,.8-2.2c0-.2-.2-.4-.3-.5a8.1,8.1,0,0,0-.2-1l-.7-1.5a4.3,4.3,0,0,1-.2-1.2,7.3,7.3,0,0,1,.5-1.8,7.9,7.9,0,0,0,.4-3c0-.4.2-.7.6-.7l1.2.2a11.6,11.6,0,0,0,.4,1.4c.2.6.6,1.1.8,1.7S88.1,298,88.3,298.8Z" style="fill:#ffdd15"/><path d="M83.8,299.9l.7,1.5a8.1,8.1,0,0,1,.2,1,12.8,12.8,0,0,1-2.6,3.8c-.2.2-.3.4.1.5h-.6a5.1,5.1,0,0,1-2.3.5c-.2,0-.4.4-.6.6H76.4v-.5h.1l2.6-.5h0l1.2-.8h.2l.4-.3.3-.3.4-.7,1.2-2.2v-.8h0v-.3h0v-.6Z" style="fill:#dcaa51"/><path d="M87.3,303.8c0,.3.1.5.1.8a2.3,2.3,0,0,0,1.6,2.3,27.5,27.5,0,0,0,3.1.6l.4.2c-.6.4-1.3.2-1.9.3H88a3.5,3.5,0,0,1-1.8-2.4Z" style="fill:#dcaa51"/><path d="M83.8,299.9l-.3.8c0-1.6,0-3.1,0-4.7a2.7,2.7,0,0,1,.3-.9c.2-.6.7-1.1.5-1.8h0c.5-.7,1.2-.3,1.8-.4s.6.3.7.8a4.7,4.7,0,0,0,.4,1.1c.3.9.7,1.8.9,2.7a8.2,8.2,0,0,1,.2,1.4c-.2-.8-.4-1.6-.7-2.4s-.6-1.1-.8-1.7a11.6,11.6,0,0,1-.4-1.4l-1.2-.2c-.4,0-.6.3-.6.7a7.9,7.9,0,0,1-.4,3,7.3,7.3,0,0,0-.5,1.8A4.3,4.3,0,0,0,83.8,299.9Z" style="fill:#f0cd90"/><path d="M83.2,301.6v0Z" style="fill:#f0cd90"/><path d="M83.5,300.9v0Z" style="fill:#f0cd90"/><path d="M83.3,301.3v0Z" style="fill:#f0cd90"/><path d="M83,302.2v0Z" style="fill:#f0cd90"/><path d="M82.2,306.6c-.4-.1-.3-.3-.1-.5a12.8,12.8,0,0,0,2.6-3.8c.1.2.3.4.3.5a2.7,2.7,0,0,1-.8,2.2A21.5,21.5,0,0,1,82.2,306.6Z" style="fill:#eae6c9"/><path d="M107.8,314.2l-1.9-.4-2.4-.2-.7-.2H100l-.2-.2.5-.4-1.9-.9a10.5,10.5,0,0,1,3.7-2c.7-.2.8-.7.4-1.3l1.8-2c.3.5.7,1,.7,1.5a3.5,3.5,0,0,1-.6,1.4l1.5,1.4-1.8.4v.2a2.6,2.6,0,0,1,2.3,1.3Z" style="fill:#eae6c9"/><path d="M102.5,308.5c.4.7.2,1.2-.4,1.3a10.5,10.5,0,0,0-3.7,2l1.9.9-.5.4.2.2h2.9l.7.2-.4.3c-.7.6-1.4,1-2.3.4h-.6c-.6.6-1.3.5-2,.7l-.8-.3V314c-1-.5-2.4.1-3-1.2a1.6,1.6,0,0,1,1.7-.2,1.2,1.2,0,0,0,1.5-.3h-.7c-1.1,0-2.3-.5-3.4.1s-1-.5-1-1.3a.8.8,0,0,0-.1-1.1c-.1-.1-.1-.3-.1-.4l2.7,1.1c.2.2.3.6.6.7l1.6.4.4-.8a4.9,4.9,0,0,1,2.3-.8c.5-.1.9-.5,1.3-.8Z" style="fill:#d1d1d2"/><path d="M107.8,314.2l-1.5-1.5a1.7,1.7,0,0,0-.4-1.8l-1.5-1.4a3.5,3.5,0,0,0,.6-1.4c0-.5-.5-1-.7-1.5s.9-.4.9-1.5a7.3,7.3,0,0,1,3.1,4.2l-1,.4v.2h1.3c.1,1,.3,1.9.3,2.9a3.1,3.1,0,0,1-.4,1.3C108.4,314.1,108,314.1,107.8,314.2Z" style="fill:#de3a38"/><path d="M93.7,312.3c1.1-.6,2.3-.1,3.4-.1h.7a1.2,1.2,0,0,1-1.5.3,1.6,1.6,0,0,0-1.7.2c.6,1.3,2,.7,3,1.2v.6l.8.3-2.8,3.7H95l-.2-.2h-.2l-.2-.2h0a6.6,6.6,0,0,1-1.1-4.3Z" style="fill:#eae6c9"/><path d="M93.3,313.8a6.6,6.6,0,0,0,1.1,4.3,7.1,7.1,0,0,1-1.2-1.6,22.4,22.4,0,0,1-1.1-4,13.9,13.9,0,0,1,.1-3h.2c0,.1,0,.4.1.4a.8.8,0,0,1,.1,1.1l-.2-.7h-.2c-.5,1.8.4,3.5.7,5.4Z" style="fill:#a3875a"/><path d="M108.6,309.7h-1.3v-.2l1-.4,2.6-.3.2.7Z" style="fill:#234520"/><path d="M97.7,310.8l-.4.8-1.6-.4c-.2-.1-.4-.4-.6-.7s1.3-.2,1.9,0Z" style="fill:#eae6c9"/><path d="M94.8,318.4l.2.2Z" style="fill:#a3875a"/><path d="M94.4,318l.2.2Z" style="fill:#a3875a"/><path d="M94.7,318.3h0Z" style="fill:#a3875a"/><path d="M105.9,310.8a1.7,1.7,0,0,1,.4,1.8,2.6,2.6,0,0,0-2.3-1.3v-.2Z" style="fill:#f0cd90"/><path d="M93.3,313.8l-.2,1.9c-.3-1.9-1.2-3.5-.7-5.4h.2l.2.7c0,.8.1,1.1,1,1.3Z" style="fill:#de3a38"/><path d="M62.6,312.9a2.2,2.2,0,0,1-.3-.6c-.2-.8-.3-1.7-.5-2.5a16.4,16.4,0,0,0-.3-2.1,1.8,1.8,0,0,0-.7-1l-2.6-1.5c.2-.2.4-.5.6-.6a7.6,7.6,0,0,1,2-.6c1.3-.2,1.7-1,2.1-2s1.6-3.3,2.4-5h0l2.7,2.5,1.6,1.4v-2h.2l.7,2.2c.1.2.2.5.3.5l4.2,1.7.2.8c-1.2-.1-1.3.8-1.6,1.4l-.9,2.1c1.1-1.1,1.1-1.1,2.8-1.1s1,.2,1.1.9.3.7.4,1a1.7,1.7,0,0,0,1.3,1.4,15,15,0,0,1,2.1.9v.3l-3.2,1.1-2.7,1h-.3L71,311.6a1.2,1.2,0,0,0-.1-.4,2.9,2.9,0,0,1-.2-3,.5.5,0,0,0-.1-.5,1.5,1.5,0,0,1-.5-2.2l-.6.4c-.7.8-.3,1.7-.4,2.6a2.8,2.8,0,0,1-.3,1l-.9,1.2-3.8,1.4Zm.6-3.2,1,.2c.7.2,1.1,0,1.4-.9.9-2.6.6-5.2.3-7.8-.1,1.3,0,2.6-.1,3.9S65.4,308.8,63.1,309.7Z" style="fill:#f2f2f2"/><path d="M74.6,312.9l2.7-1,3.2-1.1v-.3a15,15,0,0,0-2.1-.9,1.7,1.7,0,0,1-1.3-1.4c-.1-.3-.3-.7-.4-1s-.5-.9-1.1-.9-1.7-.1-2.8,1.1l.9-2.1c.3-.7.4-1.6,1.6-1.4l-.2-.8-.5-1h0a2.4,2.4,0,0,0,.1-.8l-1.1-5.7a19.5,19.5,0,0,1,3.3,1.9,9.1,9.1,0,0,1,1.6,2.6,31,31,0,0,0,1.7,3.1,8.4,8.4,0,0,0,2,1.7c.4.3.5.5.3.9L81,309.7c-.1.3.1.7,0,1a4.1,4.1,0,0,1-.8,1.7,8.8,8.8,0,0,1-2.1,1.2,1.5,1.5,0,0,1-.9.1Z" style="fill:#dbdddd"/><path d="M74.6,302.2l.5,1-4.2-1.7c-.2-.1-.3-.3-.3-.5l-.7-2.2h-.2v2L68,299.3l-2.7-2.5.5-.2h.9a16.3,16.3,0,0,0,7-1l1.1,5.7a2.4,2.4,0,0,1-.1.8c-.3-2-1.8-3.6-1.5-5.8a13.1,13.1,0,0,0-1.6,1.6.6.6,0,0,0-.1.4l.7,2.1c.7-.7.9.2,1.2.5Z" style="fill:#f2f2f2"/><path d="M71,311.6l3.3,1.3a4,4,0,0,1-5.1.5c-1.9-1.2-3.8-.9-5.8-.7h-.8l1.6-.8,3.8-1.4.8.2Z" style="fill:#b7b3ae"/><path d="M65.2,296.9c-.8,1.7-1.7,3.3-2.4,5s-.9,1.9-2.1,2a7.6,7.6,0,0,0-2,.6c-.3.1-.4.4-.6.6h-.2c0-.2,0-.5.1-.6l.9-.7a9.1,9.1,0,0,0,3-3.6,11.2,11.2,0,0,1,2.5-2.7Z" style="fill:#dbdddd"/><path d="M57.9,305.2h.2l2.6,1.5a1.8,1.8,0,0,1,.7,1,16.4,16.4,0,0,1,.3,2.1l-1.6-.6c-.2-.1-.4-.3-.4-.5s-.5-1.5-.9-2.1Z" style="fill:#b7b3ae"/><path d="M71,311.6l-2.2-.6-.8-.2.9-1.2a2.8,2.8,0,0,0,.3-1c.1-.9-.3-1.8.4-2.6l.6-.4a1.5,1.5,0,0,0,.5,2.2.5.5,0,0,1,.1.5,2.9,2.9,0,0,0,.2,3A1.2,1.2,0,0,1,71,311.6Z" style="fill:#dbdddd"/><path d="M63.1,309.7c2.2-.8,2.6-2.6,2.7-4.5s0-2.6.1-3.9c.3,2.6.6,5.2-.3,7.8-.3.8-.7,1-1.4.9Z" style="fill:#dbdddd"/><path d="M74.6,302.2l-1.4-1.3c-.3-.3-.5-1.1-1.2-.5l-.7-2.1a.6.6,0,0,1,.1-.4,13.1,13.1,0,0,1,1.6-1.6c-.2,2.2,1.2,3.9,1.5,5.8Z" style="fill:#f2f2f2"/><polygon points="88.2 310.3 83.6 307.2 81.3 308.9 85.6 310.7 80.2 312.9 88.1 313.5 86.8 311.7 88.2 310.3" style="fill:#c1c8c9"/><polygon points="81.3 310.3 83.9 315.8 90.1 315.8 93.2 309.4 91.2 306 84.9 305.4 81.3 310.3" style="fill:#f0f7fa"/><polygon points="85.2 310.5 85.2 315.3 87.5 316.1 86.7 312.1 90.8 314.8 87.4 308.9 86.8 310.7 85.2 310.5" style="fill:#c1c8c9"/><path d="M87,304.4c-.3,0-4.9,6.5-4.9,6.5l4.9,5.3,2.4-6.4,1.5,5.2,1.9-7.1Z" style="fill:#e7edf0"/><polygon points="91.4 304.4 80.6 308.4 84.2 308.4 81 311.8 83 314.5 86.3 310.3 92.3 313.6 92.3 310.3 89.4 309.1 91.4 304.4" style="fill:#f0f7fa"/><polygon points="87 306.9 87.7 306.3 88.9 304.1 84.4 307.3 86.5 306.5 87 306.9" style="fill:#c1c8c9"/><polygon points="85.3 308.6 87.3 308.3 87.9 309.4 88.9 309.6 87.7 309.9 86.8 308.9 85.3 308.6" style="fill:#e7edf0"/></g></g></svg>