<svg id="Layer_1" data-name="Layer 1" xmlns="http://www.w3.org/2000/svg" viewBox="0 0 774.7 681.5"><title>topic page header assets</title><path d="M411.8,392.4l8.6,4.9a3.3,3.3,0,0,1,1.6,2.8v9.9a3.3,3.3,0,0,1-1.6,2.8l-8.6,4.9a3.3,3.3,0,0,1-3.3,0l-8.6-4.9a3.3,3.3,0,0,1-1.6-2.8v-9.9a3.3,3.3,0,0,1,1.6-2.8l8.6-4.9A3.3,3.3,0,0,1,411.8,392.4Z" style="fill:#6e8c3b"/><path d="M411.1,391.1l8.6,4.9a3.3,3.3,0,0,1,1.6,2.8v9.9a3.3,3.3,0,0,1-1.6,2.8l-8.6,4.9a3.3,3.3,0,0,1-3.3,0l-8.6-4.9a3.3,3.3,0,0,1-1.6-2.8v-9.9a3.3,3.3,0,0,1,1.6-2.8l8.6-4.9A3.3,3.3,0,0,1,411.1,391.1Z" style="fill:#a3c23a"/><polygon points="409.9 401.7 409.8 405.9 405.3 400.4 409.8 406.4 408.7 438 411 438 410.3 412.8 412.4 405.9 410.3 410.6 409.9 401.7" style="fill:#967e2e"/><path d="M401.7,399.7l6.7,3.9a2.6,2.6,0,0,1,1.3,2.2v7.8a2.6,2.6,0,0,1-1.3,2.2l-6.7,3.9a2.6,2.6,0,0,1-2.6,0l-6.7-3.9a2.6,2.6,0,0,1-1.3-2.2v-7.8a2.6,2.6,0,0,1,1.3-2.2l6.7-3.9A2.6,2.6,0,0,1,401.7,399.7Z" style="fill:#bbbe3a"/><path d="M400.9,398.8l6.7,3.9a2.6,2.6,0,0,1,1.3,2.2v7.8a2.6,2.6,0,0,1-1.3,2.2l-6.7,3.9a2.6,2.6,0,0,1-2.6,0l-6.7-3.9a2.6,2.6,0,0,1-1.3-2.2v-7.8a2.6,2.6,0,0,1,1.3-2.2l6.7-3.9A2.6,2.6,0,0,1,400.9,398.8Z" style="fill:#d3de46"/><polygon points="399.2 408.9 399.1 412.2 395.6 407.9 399.1 412.6 398.3 437 400 437 399.5 417.5 401.1 412.2 399.5 415.8 399.2 408.9" style="fill:#967e2e"/><polygon points="429.1 204.4 247.6 263 133.1 263 314.6 204.4 429.1 204.4" style="fill:#6e8c3b"/><polygon points="429.1 291.1 247.6 349.7 133.1 349.7 314.6 291.1 429.1 291.1" style="fill:#6e8c3b"/><polygon points="429.1 377.7 247.6 436.3 133.1 436.3 314.6 377.7 429.1 377.7" style="fill:#6e8c3b"/><path d="M428.5,257.5s-95.6-13-147-13-148.3,13.1-148.3,13.1Z" style="fill:#8ea43b"/><path d="M428.5,341.9s-95.6-13-147-13S133.1,342,133.1,342Z" style="fill:#8ea43b"/><path d="M428.5,437s-95.6-13-147-13-148.3,13.1-148.3,13.1Z" style="fill:#8ea43b"/><ellipse cx="176.9" cy="338.5" rx="3" ry="0.9" style="fill:#414141"/><ellipse cx="176.9" cy="338.3" rx="3" ry="0.9" style="fill:#868686"/><path d="M176.5,335.4a6.5,6.5,0,0,1-.7,2.5c-.5.7,2.8.6,2.1,0a16.9,16.9,0,0,1-.4-2.5Z" style="fill:#414141"/><path d="M179.9,335.1l1.9-9h-9.8l2,8.9a4.5,4.5,0,0,0,2.8.9A6,6,0,0,0,179.9,335.1Z" style="fill:#868686"/><path d="M173.7,334.5a6.7,6.7,0,0,0,3.4.7,5.4,5.4,0,0,0,3.3-.9v.5a8,8,0,0,1-6.6.1Z" style="fill:#414141"/><path d="M172.5,327.6a12.8,12.8,0,0,0,4.7.7,9.4,9.4,0,0,0,4.5-.9v.7a13,13,0,0,1-4.6.7,13.8,13.8,0,0,1-4.5-.6Z" style="fill:#414141"/><polygon points="178.9 325.2 179.7 325.3 179.7 325.7 178.7 325.6 178.7 325.3 178.9 325.2" style="fill:#bb7f2d"/><polygon points="177.2 325.2 177.1 325.2 177.1 325.8 178 325.8 178 325.2 177.9 325.2 177.2 325.2" style="fill:#d19753"/><polygon points="175.6 325.2 175.5 325.2 175.5 325.8 176.4 325.8 176.4 325.2 176.3 325.2 175.6 325.2" style="fill:#d19753"/><polygon points="174.5 325.3 174.7 325.3 174.7 325.9 173.8 325.9 173.8 325.3 174.5 325.3" style="fill:#d19753"/><polygon points="172.9 325.4 172.5 325.6 172.5 326 173.1 326 173.3 325.4 172.9 325.4" style="fill:#bb7f2d"/><polygon points="180.6 325.4 181.2 325.5 181.2 325.9 180.4 325.8 180.3 325.4 180.6 325.4" style="fill:#bb7f2d"/><polygon points="171.8 326.1 171.8 325.9 172.1 325.9 172.1 326.1 171.8 326.1" style="fill:#7f4d1f"/><polygon points="172.3 326.5 172.1 326.5 172.1 325.9 172.3 325.7 172.3 326.5" style="fill:#d19753"/><polyline points="172.7 326.2 172.7 325.6 173.3 325.4" style="fill:#bb7f2d"/><polygon points="173.3 326.2 172.7 326.2 172.7 325.6 173.3 325.4 173.3 326.2" style="fill:#d19753"/><polygon points="174.7 326 173.8 326 173.8 325.4 174.7 325.3 174.7 326" style="fill:#bb7f2d"/><rect x="175.5" y="325.2" width="0.9" height="0.74" style="fill:#bb7f2d"/><rect x="177.1" y="325.2" width="0.9" height="0.79" style="fill:#bb7f2d"/><polygon points="179.6 326 178.7 326 178.7 325.3 179.6 325.3 179.6 326" style="fill:#b06d29"/><polygon points="181 326.6 180.3 326.6 180.3 325.4 181 325.5 181 326.6" style="fill:#b06d29"/><path d="M181.5,325.7v.6l.4.3V326Z" style="fill:#7f4d1f"/><ellipse cx="176.9" cy="326.2" rx="4.9" ry="0.7" style="fill:#bfbebe"/><polygon points="180.3 335.3 182.3 326 182 326 180.1 335.3 180.3 335.3" style="fill:#b06d29"/><ellipse cx="176.9" cy="326.2" rx="4.5" ry="0.6" style="fill:#4a4a4a"/><path d="M176.9,327h1.3l-.4,9.7h-1V327" style="fill:#b06d29"/><polygon points="174.2 326.8 175.3 326.9 176.1 336.6 175.2 336.4 174.2 326.8" style="fill:#b06d29"/><polygon points="175.5 326.9 174.4 326.8 174.2 326.8 175.3 326.9 176.1 336.6 176.2 336.5 175.5 326.9" style="fill:#bb7f2d"/><polygon points="176.9 326.9 178.1 326.9 178.2 327 176.9 327 176.9 326.9" style="fill:#bb7f2d"/><polygon points="179.6 326.8 180.5 326.7 179.2 336.2 178.4 336.5 179.6 326.8" style="fill:#bb7f2d"/><polygon points="178.2 336.4 179.3 326.8 179.6 326.8 178.4 336.5 178.2 336.4" style="fill:#b06d29"/><polygon points="180.3 326.7 180.5 326.7 179.6 326.8 179.3 326.8 180.3 326.7" style="fill:#d19753"/><polygon points="181.1 326.5 179.4 335.9 179.7 335.9 181.4 326.6 181.1 326.5" style="fill:#b06d29"/><polygon points="181.9 326.4 181.4 326.6 179.7 335.9 180.1 335.7 181.9 326.4" style="fill:#bb7f2d"/><polygon points="181.9 326.4 181.6 326.4 181.1 326.5 181.4 326.6 181.9 326.4" style="fill:#d19753"/><polygon points="173.2 326.7 174.7 336.1 174.9 336.1 173.5 326.6 173.2 326.7" style="fill:#7f4d1f"/><polyline points="173.2 326.7 172.5 326.5 174.1 335.8 174.7 336.1" style="fill:#b06d29"/><polygon points="172.8 326.5 173.5 326.6 173.2 326.7 172.5 326.5 172.8 326.5" style="fill:#bb7f2d"/><polygon points="173.8 335.5 171.9 326.3 172.3 326.3 174 335.4 173.8 335.5" style="fill:#7f4d1f"/><path d="M173.6,335.2l-1.9-9.2a.4.4,0,0,0,.2.3l1.9,9.2Z" style="fill:#b06d29"/><path d="M172.1,326h-.4a.4.4,0,0,0,.2.3h.4A.4.4,0,0,1,172.1,326Z" style="fill:#bb7f2d"/><path d="M182,326l-.5-.3h.2l.6.3Z" style="fill:#d19753"/><polygon points="171.8 325.9 172 325.7 172.3 325.7 172.1 325.9 171.8 325.9" style="fill:#b06d29"/><ellipse cx="177.5" cy="328.6" rx="0.2" ry="0.2" style="fill:#845d2b"/><ellipse cx="177.3" cy="336.1" rx="0.1" ry="0.1" style="fill:#845d2b"/><path d="M180,328.5h-.2a.2.2,0,0,1-.1-.2h.2A.2.2,0,0,1,180,328.5Z" style="fill:#845d2b"/><path d="M181.5,328h-.1c-.1,0-.1-.1-.1-.2h.1C181.5,327.9,181.5,327.9,181.5,328Z" style="fill:#845d2b"/><ellipse cx="174.9" cy="328.5" rx="0.2" ry="0.2" style="fill:#845d2b"/><path d="M173.2,328.1c0,.1,0,.2,0,.2h-.2c0-.1,0-.2,0-.2Z" style="fill:#845d2b"/><path d="M174.4,335.4c0,.1,0,.2,0,.2h-.1c0-.1,0-.2,0-.2Z" style="fill:#845d2b"/><ellipse cx="175.6" cy="335.9" rx="0.1" ry="0.2" style="fill:#845d2b"/><path d="M179,335.8h-.2a.1.1,0,0,1-.1-.2h.2A.1.1,0,0,1,179,335.8Z" style="fill:#845d2b"/><ellipse cx="180" cy="335.3" rx="0.1" ry="0.1" transform="translate(-181 455.7) rotate(-80.2)" style="fill:#845d2b"/><polygon points="284 199.7 280.5 272.5 174.3 177.7 280.2 280.6 254.7 681.1 309.4 681.1 293.2 389.4 341.3 272.5 291.7 351.2 284 199.7" style="fill:#967e2e"/><path d="M88.5,527.4l16,9.2a6.1,6.1,0,0,1,3.1,5.3v18.4a6.1,6.1,0,0,1-3.1,5.3l-16,9.2a6.1,6.1,0,0,1-6.1,0l-16-9.2a6.1,6.1,0,0,1-3.1-5.3V542a6.1,6.1,0,0,1,3.1-5.3l16-9.2A6.1,6.1,0,0,1,88.5,527.4Z" style="fill:#6e8c3b"/><path d="M87.2,525l16,9.2a6.1,6.1,0,0,1,3.1,5.3V558a6.1,6.1,0,0,1-3.1,5.3l-16,9.2a6.1,6.1,0,0,1-6.1,0l-16-9.2A6.1,6.1,0,0,1,62,558V539.5a6.1,6.1,0,0,1,3.1-5.3l16-9.2A6.1,6.1,0,0,1,87.2,525Z" style="fill:#a3c23a"/><polygon points="84.9 544.7 84.7 552.7 76.3 542.3 84.6 553.6 82.6 643.1 86.9 643.1 85.7 565.5 89.5 552.7 85.6 561.3 84.9 544.7" style="fill:#967e2e"/><path d="M69.5,541,82,548.2a4.8,4.8,0,0,1,2.4,4.2v14.5A4.8,4.8,0,0,1,82,571l-12.5,7.2a4.8,4.8,0,0,1-4.8,0L52.2,571a4.8,4.8,0,0,1-2.4-4.2V552.4a4.8,4.8,0,0,1,2.4-4.2L64.7,541A4.8,4.8,0,0,1,69.5,541Z" style="fill:#bbbe3a"/><path d="M68.1,539.3l12.5,7.2a4.8,4.8,0,0,1,2.4,4.2v14.5a4.8,4.8,0,0,1-2.4,4.2l-12.5,7.2a4.8,4.8,0,0,1-4.8,0l-12.5-7.2a4.8,4.8,0,0,1-2.4-4.2V550.7a4.8,4.8,0,0,1,2.4-4.2l12.5-7.2A4.8,4.8,0,0,1,68.1,539.3Z" style="fill:#d3de46"/><polygon points="65 558.3 64.7 564.4 58.3 556.4 64.7 565.1 63.2 648.9 66.5 648.9 65.5 574.3 68.4 564.4 65.4 571.1 65 558.3" style="fill:#967e2e"/><path d="M2.1,681.5S154.8,583.1,370,583.1c126.5,0,163.3,66.3,362,98.4Z" style="fill:#8ea43b"/><path d="M457.2,654.9l4.3,2.5a1.7,1.7,0,0,1,.8,1.4v5a1.7,1.7,0,0,1-.8,1.4l-4.3,2.5a1.7,1.7,0,0,1-1.7,0l-4.3-2.5a1.7,1.7,0,0,1-.8-1.4v-5a1.7,1.7,0,0,1,.8-1.4l4.3-2.5A1.7,1.7,0,0,1,457.2,654.9Z" style="fill:#6e8c3b"/><path d="M456.8,654.2l4.3,2.5a1.7,1.7,0,0,1,.8,1.4v5a1.7,1.7,0,0,1-.8,1.4l-4.3,2.5a1.7,1.7,0,0,1-1.7,0l-4.3-2.5a1.7,1.7,0,0,1-.8-1.4v-5a1.7,1.7,0,0,1,.8-1.4l4.3-2.5A1.7,1.7,0,0,1,456.8,654.2Z" style="fill:#a3c23a"/><polygon points="456.1 659.6 456.2 661.7 458.5 658.9 456.2 662 456.7 678 455.6 678 455.9 665.2 454.9 661.7 455.9 664.1 456.1 659.6" style="fill:#967e2e"/><path d="M429.5,594c0-.5,4.2-.9,9.3-.9s9.3.4,9.3.9-4.2.9-9.3.9-9.3-.4-9.3-.9" style="fill:#687833"/><path d="M441,538.6l10.4,6a4,4,0,0,1,2,3.5v12a4,4,0,0,1-2,3.5l-10.4,6a4,4,0,0,1-4,0l-10.4-6a4,4,0,0,1-2-3.5v-12a4,4,0,0,1,2-3.5l10.4-6a4,4,0,0,1,4,0" style="fill:#c4bf2f"/><path d="M440.1,537l10.4,6a4,4,0,0,1,2,3.5v12a4,4,0,0,1-2,3.5l-10.4,6a4,4,0,0,1-4,0l-10.4-6a4,4,0,0,1-2-3.5v-12a4,4,0,0,1,2-3.5l10.4-6a4,4,0,0,1,4,0" style="fill:#dbdc2b"/><polygon points="438.7 549.9 438.5 555.1 433 548.3 438.5 555.6 437.2 594.1 440 594.1 439.1 563.4 441.6 555.1 439.1 560.7 438.7 549.9" style="fill:#9d802e"/><path d="M635,638.1l10.1,5.9a3.9,3.9,0,0,1,1.9,3.4V659a3.9,3.9,0,0,1-1.9,3.4L635,668.2a3.9,3.9,0,0,1-3.9,0L621,662.4A3.9,3.9,0,0,1,619,659V647.3a3.9,3.9,0,0,1,1.9-3.4l10.1-5.9A3.9,3.9,0,0,1,635,638.1Z" style="fill:#bbbe3a"/><path d="M635,632l11.5,6.6a4.4,4.4,0,0,1,2.2,3.8v13.3a4.4,4.4,0,0,1-2.2,3.8L635,666.2a4.4,4.4,0,0,1-4.4,0l-11.5-6.6a4.4,4.4,0,0,1-2.2-3.8V642.5a4.4,4.4,0,0,1,2.2-3.8l11.5-6.6A4.4,4.4,0,0,1,635,632Z" style="fill:#d3de46"/><path d="M613.2,649l10.1,5.9a3.9,3.9,0,0,1,1.9,3.4v11.7a3.9,3.9,0,0,1-1.9,3.4l-10.1,5.9a3.9,3.9,0,0,1-3.9,0l-10.1-5.9a3.9,3.9,0,0,1-1.9-3.4V658.2a3.9,3.9,0,0,1,1.9-3.4l10.1-5.9A3.9,3.9,0,0,1,613.2,649Z" style="fill:#bbbe3a"/><path d="M613.2,642.9l11.5,6.6a4.4,4.4,0,0,1,2.2,3.8v13.3a4.4,4.4,0,0,1-2.2,3.8L613.2,677a4.4,4.4,0,0,1-4.4,0l-11.5-6.6a4.4,4.4,0,0,1-2.2-3.8V653.4a4.4,4.4,0,0,1,2.2-3.8l11.5-6.6A4.4,4.4,0,0,1,613.2,642.9Z" style="fill:#d3de46"/><rect x="615.3" y="671.2" width="16.3" height="10.32" style="fill:#6e8c3b"/><path d="M609.4,641.1l2.4,4.2a1.6,1.6,0,0,1,0,1.6l-2.5,4.2a1.6,1.6,0,0,1-1.4.8h-4.9a1.6,1.6,0,0,1-1.4-.8l-2.4-4.2a1.6,1.6,0,0,1,0-1.6l2.5-4.2a1.6,1.6,0,0,1,1.4-.8H608A1.6,1.6,0,0,1,609.4,641.1Z" style="fill:#6e8c3b"/><path d="M609.5,640.4l2.4,4.2a1.6,1.6,0,0,1,0,1.6l-2.5,4.2a1.6,1.6,0,0,1-1.4.8h-4.9a1.6,1.6,0,0,1-1.4-.8l-2.4-4.2a1.6,1.6,0,0,1,0-1.6l2.5-4.2a1.6,1.6,0,0,1,1.4-.8h4.9A1.6,1.6,0,0,1,609.5,640.4Z" style="fill:#8ea43b"/><path d="M627.5,636.3l14.9,8.6a5.7,5.7,0,0,1,2.8,4.9V667a5.7,5.7,0,0,1-2.8,4.9l-14.9,8.6a5.7,5.7,0,0,1-5.7,0l-14.9-8.6A5.7,5.7,0,0,1,604,667V649.8a5.7,5.7,0,0,1,2.8-4.9l14.9-8.6A5.7,5.7,0,0,1,627.5,636.3Z" style="fill:#6e8c3b"/><path d="M626.3,634l14.9,8.6a5.7,5.7,0,0,1,2.8,4.9v17.2a5.7,5.7,0,0,1-2.8,4.9l-14.9,8.6a5.7,5.7,0,0,1-5.7,0l-14.9-8.6a5.7,5.7,0,0,1-2.8-4.9V647.5a5.7,5.7,0,0,1,2.8-4.9l14.9-8.6A5.7,5.7,0,0,1,626.3,634Z" style="fill:#a3c23a"/><path d="M647,652.4l6,10.6a4,4,0,0,1,0,4l-6.2,10.5a4,4,0,0,1-3.5,2H631.2a4,4,0,0,1-3.5-2l-6-10.6a4,4,0,0,1,0-4l6.2-10.5a4,4,0,0,1,3.5-2h12.2A4,4,0,0,1,647,652.4Z" style="fill:#6e8c3b"/><path d="M647.1,650.6l6,10.6a4,4,0,0,1,0,4l-6.2,10.5a4,4,0,0,1-3.5,2H631.2a4,4,0,0,1-3.5-2l-6-10.6a4,4,0,0,1,0-4l6.2-10.5a4,4,0,0,1,3.5-2h12.2A4,4,0,0,1,647.1,650.6Z" style="fill:#8ea43b"/><path d="M286.7,679s4.5-9.8,4-16c0,0,1,9.2,0,12.4,0,0,2-3.6,3.2-4.4s-1.5,3.5-.9,5.8c0,0,3.6-.4,4.5-8.1,0,0,.2,7.5.8,9.2,0,0,2.4-8.3,3.6-9.8,0,0-.4,6,0,7.5a8.6,8.6,0,0,0,2.3-2.2s-1.7,3.2-.4,4.7a8.4,8.4,0,0,0,4-5.3s.2,4.1,1.3,6.2Z" style="fill:#d3de46"/><path d="M372.1,679s4.5-9.8,4-16c0,0,1,9.2,0,12.4,0,0,2-3.6,3.2-4.4s-1.5,3.5-.9,5.8c0,0,3.6-.4,4.5-8.1,0,0,.2,7.5.8,9.2,0,0,2.4-8.3,3.6-9.8,0,0-.4,6,0,7.5a8.6,8.6,0,0,0,2.3-2.2s-1.7,3.2-.4,4.7a8.4,8.4,0,0,0,4-5.3s.2,4.1,1.3,6.2Z" style="fill:#d3de46"/><path d="M305.9,562l6.3,3.6a2.4,2.4,0,0,1,1.2,2.1V575a2.4,2.4,0,0,1-1.2,2.1l-6.3,3.6a2.4,2.4,0,0,1-2.4,0l-6.3-3.6A2.4,2.4,0,0,1,296,575v-7.3a2.4,2.4,0,0,1,1.2-2.1l6.3-3.6A2.4,2.4,0,0,1,305.9,562Z" style="fill:#bbbe3a"/><path d="M305.9,558.3l7.1,4.1a2.7,2.7,0,0,1,1.4,2.4V573a2.7,2.7,0,0,1-1.4,2.4l-7.1,4.1a2.7,2.7,0,0,1-2.7,0l-7.1-4.1a2.7,2.7,0,0,1-1.4-2.4v-8.2a2.7,2.7,0,0,1,1.4-2.4l7.1-4.1A2.7,2.7,0,0,1,305.9,558.3Z" style="fill:#d3de46"/><path d="M292.4,568.8l6.3,3.6a2.4,2.4,0,0,1,1.2,2.1v7.3a2.4,2.4,0,0,1-1.2,2.1l-6.3,3.6a2.4,2.4,0,0,1-2.4,0l-6.3-3.6a2.4,2.4,0,0,1-1.2-2.1v-7.3a2.4,2.4,0,0,1,1.2-2.1l6.3-3.6A2.4,2.4,0,0,1,292.4,568.8Z" style="fill:#bbbe3a"/><path d="M292.4,565l7.1,4.1a2.7,2.7,0,0,1,1.4,2.4v8.2a2.7,2.7,0,0,1-1.4,2.4l-7.1,4.1a2.7,2.7,0,0,1-2.7,0l-7.1-4.1a2.7,2.7,0,0,1-1.4-2.4v-8.2a2.7,2.7,0,0,1,1.4-2.4l7.1-4.1A2.7,2.7,0,0,1,292.4,565Z" style="fill:#d3de46"/><rect x="293.7" y="582.6" width="10.1" height="6.41" style="fill:#6e8c3b"/><path d="M290.1,563.9l1.5,2.6a1,1,0,0,1,0,1l-1.5,2.6a1,1,0,0,1-.9.5h-3a1,1,0,0,1-.9-.5l-1.5-2.6a1,1,0,0,1,0-1l1.5-2.6a1,1,0,0,1,.9-.5h3A1,1,0,0,1,290.1,563.9Z" style="fill:#6e8c3b"/><path d="M290.1,563.5l1.5,2.6a1,1,0,0,1,0,1l-1.5,2.6a1,1,0,0,1-.9.5h-3a1,1,0,0,1-.9-.5l-1.5-2.6a1,1,0,0,1,0-1l1.5-2.6a1,1,0,0,1,.9-.5h3A1,1,0,0,1,290.1,563.5Z" style="fill:#8ea43b"/><path d="M301.3,560.9l9.2,5.3a3.5,3.5,0,0,1,1.8,3.1V580a3.5,3.5,0,0,1-1.8,3.1l-9.2,5.3a3.5,3.5,0,0,1-3.5,0l-9.2-5.3a3.5,3.5,0,0,1-1.8-3.1V569.3a3.5,3.5,0,0,1,1.8-3.1l9.2-5.3A3.5,3.5,0,0,1,301.3,560.9Z" style="fill:#6e8c3b"/><path d="M300.5,559.5l9.2,5.3a3.5,3.5,0,0,1,1.8,3.1v10.7a3.5,3.5,0,0,1-1.8,3.1l-9.2,5.3a3.5,3.5,0,0,1-3.5,0l-9.2-5.3a3.5,3.5,0,0,1-1.8-3.1V567.9a3.5,3.5,0,0,1,1.8-3.1l9.2-5.3A3.5,3.5,0,0,1,300.5,559.5Z" style="fill:#a3c23a"/><path d="M313.4,570.9l3.7,6.6a2.5,2.5,0,0,1,0,2.5l-3.8,6.5a2.5,2.5,0,0,1-2.2,1.2h-7.5a2.5,2.5,0,0,1-2.2-1.3l-3.7-6.6a2.5,2.5,0,0,1,0-2.5l3.8-6.5a2.5,2.5,0,0,1,2.2-1.2h7.5A2.5,2.5,0,0,1,313.4,570.9Z" style="fill:#6e8c3b"/><path d="M313.4,569.8l3.7,6.6a2.5,2.5,0,0,1,0,2.5l-3.8,6.5a2.5,2.5,0,0,1-2.2,1.2h-7.5a2.5,2.5,0,0,1-2.2-1.3l-3.7-6.6a2.5,2.5,0,0,1,0-2.5l3.8-6.5a2.5,2.5,0,0,1,2.2-1.2h7.5A2.5,2.5,0,0,1,313.4,569.8Z" style="fill:#8ea43b"/><path d="M695.4,681.5s4.5-9.8,4-16c0,0,1,9.2,0,12.4,0,0,2-3.6,3.2-4.4s-1.5,3.5-.9,5.8c0,0,3.6-.4,4.5-8.1,0,0,.2,7.5.8,9.2,0,0,2.4-8.3,3.6-9.8,0,0-.4,6,0,7.5a8.6,8.6,0,0,0,2.3-2.2s-1.7,3.2-.4,4.7a8.4,8.4,0,0,0,4-5.3s.2,4.1,1.3,6.2Z" style="fill:#d3de46"/><path d="M675.3,681.5s4.5-9.8,4-16c0,0,1,9.2,0,12.4,0,0,2-3.6,3.2-4.4s-1.5,3.5-.9,5.8c0,0,3.6-.4,4.5-8.1,0,0,.2,7.5.8,9.2,0,0,2.4-8.3,3.6-9.8,0,0-.4,6,0,7.5a8.6,8.6,0,0,0,2.3-2.2s-1.7,3.2-.4,4.7a8.4,8.4,0,0,0,4-5.3s.2,4.1,1.3,6.2Z" style="fill:#d3de46"/><path d="M738.4,681.5s4.5-9.8,4-16c0,0,1,9.2,0,12.4,0,0,2-3.6,3.2-4.4s-1.5,3.5-.9,5.8c0,0,3.6-.4,4.5-8.1,0,0,.2,7.5.8,9.2,0,0,2.4-8.3,3.6-9.8,0,0-.4,6,0,7.5a8.6,8.6,0,0,0,2.3-2.2s-1.7,3.2-.4,4.7a8.4,8.4,0,0,0,4-5.3s.2,4.1,1.3,6.2Z" style="fill:#d3de46"/><path d="M718.4,681.5s4.5-9.8,4-16c0,0,1,9.2,0,12.4,0,0,2-3.6,3.2-4.4s-1.5,3.5-.9,5.8c0,0,3.6-.4,4.5-8.1,0,0,.2,7.5.8,9.2,0,0,2.4-8.3,3.6-9.8,0,0-.4,6,0,7.5a8.6,8.6,0,0,0,2.3-2.2s-1.7,3.2-.4,4.7a8.4,8.4,0,0,0,4-5.3s.2,4.1,1.3,6.2Z" style="fill:#d3de46"/><path d="M469.8,597.5l6.3,3.6a2.4,2.4,0,0,1,1.2,2.1v7.3a2.4,2.4,0,0,1-1.2,2.1l-6.3,3.6a2.4,2.4,0,0,1-2.4,0l-6.3-3.6a2.4,2.4,0,0,1-1.2-2.1v-7.3a2.4,2.4,0,0,1,1.2-2.1l6.3-3.6A2.4,2.4,0,0,1,469.8,597.5Z" style="fill:#bbbe3a"/><path d="M469.8,593.7l7.1,4.1a2.7,2.7,0,0,1,1.4,2.4v8.2a2.7,2.7,0,0,1-1.4,2.4l-7.1,4.1a2.7,2.7,0,0,1-2.7,0l-7.1-4.1a2.7,2.7,0,0,1-1.4-2.4v-8.2a2.7,2.7,0,0,1,1.4-2.4l7.1-4.1A2.7,2.7,0,0,1,469.8,593.7Z" style="fill:#d3de46"/><path d="M456.3,604.2l6.3,3.6a2.4,2.4,0,0,1,1.2,2.1v7.3a2.4,2.4,0,0,1-1.2,2.1l-6.3,3.6a2.4,2.4,0,0,1-2.4,0l-6.3-3.6a2.4,2.4,0,0,1-1.2-2.1V610a2.4,2.4,0,0,1,1.2-2.1l6.3-3.6A2.4,2.4,0,0,1,456.3,604.2Z" style="fill:#bbbe3a"/><path d="M456.3,600.5l7.1,4.1a2.7,2.7,0,0,1,1.4,2.4v8.2a2.7,2.7,0,0,1-1.4,2.4l-7.1,4.1a2.7,2.7,0,0,1-2.7,0l-7.1-4.1a2.7,2.7,0,0,1-1.4-2.4V607a2.7,2.7,0,0,1,1.4-2.4l7.1-4.1A2.7,2.7,0,0,1,456.3,600.5Z" style="fill:#d3de46"/><rect x="457.5" y="618" width="10.1" height="6.41" style="fill:#6e8c3b"/><path d="M453.9,599.3l1.5,2.6a1,1,0,0,1,0,1l-1.5,2.6a1,1,0,0,1-.9.5h-3a1,1,0,0,1-.9-.5l-1.5-2.6a1,1,0,0,1,0-1l1.5-2.6a1,1,0,0,1,.9-.5h3A1,1,0,0,1,453.9,599.3Z" style="fill:#6e8c3b"/><path d="M453.9,598.9l1.5,2.6a1,1,0,0,1,0,1l-1.5,2.6a1,1,0,0,1-.9.5h-3a1,1,0,0,1-.9-.5l-1.5-2.6a1,1,0,0,1,0-1l1.5-2.6a1,1,0,0,1,.9-.5h3A1,1,0,0,1,453.9,598.9Z" style="fill:#8ea43b"/><path d="M465.1,596.3l9.2,5.3a3.5,3.5,0,0,1,1.8,3.1v10.7a3.5,3.5,0,0,1-1.8,3.1l-9.2,5.3a3.5,3.5,0,0,1-3.5,0l-9.2-5.3a3.5,3.5,0,0,1-1.8-3.1V604.7a3.5,3.5,0,0,1,1.8-3.1l9.2-5.3A3.5,3.5,0,0,1,465.1,596.3Z" style="fill:#6e8c3b"/><path d="M464.3,594.9l9.2,5.3a3.5,3.5,0,0,1,1.8,3.1V614a3.5,3.5,0,0,1-1.8,3.1l-9.2,5.3a3.5,3.5,0,0,1-3.5,0l-9.2-5.3a3.5,3.5,0,0,1-1.8-3.1V603.3a3.5,3.5,0,0,1,1.8-3.1l9.2-5.3A3.5,3.5,0,0,1,464.3,594.9Z" style="fill:#a3c23a"/><path d="M477.2,606.4l3.7,6.6a2.5,2.5,0,0,1,0,2.5l-3.8,6.5a2.5,2.5,0,0,1-2.2,1.2h-7.5a2.5,2.5,0,0,1-2.2-1.3l-3.7-6.6a2.5,2.5,0,0,1,0-2.5l3.8-6.5a2.5,2.5,0,0,1,2.2-1.2h7.5A2.5,2.5,0,0,1,477.2,606.4Z" style="fill:#6e8c3b"/><path d="M477.3,605.2l3.7,6.6a2.5,2.5,0,0,1,0,2.5l-3.8,6.5A2.5,2.5,0,0,1,475,622h-7.5a2.5,2.5,0,0,1-2.2-1.3l-3.7-6.6a2.5,2.5,0,0,1,0-2.5l3.8-6.5a2.5,2.5,0,0,1,2.2-1.2h7.5A2.5,2.5,0,0,1,477.3,605.2Z" style="fill:#8ea43b"/><path d="M315.9,157.1l2.7,1.6a1,1,0,0,1,.5.9v3.1a1,1,0,0,1-.5.9l-2.7,1.6a1,1,0,0,1-1,0l-2.7-1.6a1,1,0,0,1-.5-.9v-3.1a1,1,0,0,1,.5-.9l2.7-1.6A1,1,0,0,1,315.9,157.1Z" style="fill:#6e8c3b"/><path d="M315.7,156.7l2.7,1.6a1,1,0,0,1,.5.9v3.1a1,1,0,0,1-.5.9l-2.7,1.6a1,1,0,0,1-1,0l-2.7-1.6a1,1,0,0,1-.5-.9v-3.1a1,1,0,0,1,.5-.9l2.7-1.6A1,1,0,0,1,315.7,156.7Z" style="fill:#a3c23a"/><polygon points="315.2 160.1 315.3 161.4 316.7 159.6 315.3 161.6 315.6 171.6 314.9 171.6 315.1 163.6 314.5 161.4 315.1 162.9 315.2 160.1" style="fill:#967e2e"/><path d="M303.6,169.3c0-.3,2.6-.6,5.8-.6s5.8.3,5.8.6-2.6.6-5.8.6-5.8-.3-5.8-.6" style="fill:#687833"/><path d="M310.8,134.6l6.5,3.8a2.5,2.5,0,0,1,1.2,2.2v7.5a2.5,2.5,0,0,1-1.2,2.2l-6.5,3.8a2.5,2.5,0,0,1-2.5,0l-6.5-3.8a2.5,2.5,0,0,1-1.2-2.2v-7.5a2.5,2.5,0,0,1,1.2-2.2l6.5-3.8a2.5,2.5,0,0,1,2.5,0" style="fill:#c4bf2f"/><path d="M310.2,133.6l6.5,3.8a2.5,2.5,0,0,1,1.2,2.2v7.5a2.5,2.5,0,0,1-1.2,2.2l-6.5,3.8a2.5,2.5,0,0,1-2.5,0l-6.5-3.8a2.5,2.5,0,0,1-1.2-2.2v-7.5a2.5,2.5,0,0,1,1.2-2.2l6.5-3.8a2.5,2.5,0,0,1,2.5,0" style="fill:#dbdc2b"/><polygon points="309.3 141.7 309.2 144.9 305.8 140.7 309.2 145.3 308.4 169.4 310.2 169.4 309.6 150.2 311.2 144.9 309.6 148.4 309.3 141.7" style="fill:#9d802e"/><path d="M195.2,104.8l12.4,7.2a4.7,4.7,0,0,1,2.4,4.1v14.3a4.7,4.7,0,0,1-2.4,4.1l-12.4,7.2a4.7,4.7,0,0,1-4.7,0L178,134.5a4.7,4.7,0,0,1-2.4-4.1V116.1A4.7,4.7,0,0,1,178,112l12.4-7.2A4.7,4.7,0,0,1,195.2,104.8Z" style="fill:#6e8c3b"/><path d="M194.1,102.9l12.4,7.2a4.7,4.7,0,0,1,2.4,4.1v14.3a4.7,4.7,0,0,1-2.4,4.1l-12.4,7.2a4.7,4.7,0,0,1-4.7,0L177,132.6a4.7,4.7,0,0,1-2.4-4.1V114.2a4.7,4.7,0,0,1,2.4-4.1l12.4-7.2A4.7,4.7,0,0,1,194.1,102.9Z" style="fill:#a3c23a"/><polygon points="192.4 118.2 192.2 124.4 185.7 116.3 192.2 125.1 190.6 170.8 194 170.8 193 134.3 195.9 124.4 192.9 131.1 192.4 118.2" style="fill:#967e2e"/><path d="M180.4,115.3l9.7,5.6a3.7,3.7,0,0,1,1.9,3.2v11.2a3.7,3.7,0,0,1-1.9,3.2l-9.7,5.6a3.7,3.7,0,0,1-3.7,0l-9.7-5.6a3.7,3.7,0,0,1-1.9-3.2V124.2a3.7,3.7,0,0,1,1.9-3.2l9.7-5.6A3.7,3.7,0,0,1,180.4,115.3Z" style="fill:#bbbe3a"/><path d="M179.3,114l9.7,5.6a3.7,3.7,0,0,1,1.9,3.2v11.2a3.7,3.7,0,0,1-1.9,3.2l-9.7,5.6a3.7,3.7,0,0,1-3.7,0l-9.7-5.6a3.7,3.7,0,0,1-1.9-3.2V122.9a3.7,3.7,0,0,1,1.9-3.2l9.7-5.6A3.7,3.7,0,0,1,179.3,114Z" style="fill:#d3de46"/><polygon points="176.9 128.7 176.7 133.5 171.7 127.3 176.7 134 175.5 169.4 178.1 169.4 177.3 141.2 179.6 133.5 177.3 138.7 176.9 128.7" style="fill:#967e2e"/><rect x="133.1" y="257.3" width="296" height="35.71" style="fill:#a3c23a"/><path d="M266.6,282.5h-3.3v-4.7l-5.4-10h3.3l3.8,6.6,3.7-6.6h3.3l-5.4,10Z" style="fill:#fff"/><path d="M287.8,275.2a7.9,7.9,0,0,1-15.8,0c0-4.3,3.4-7.5,7.9-7.5S287.8,270.9,287.8,275.2Zm-12.4,0a4.6,4.6,0,0,0,4.5,4.6,4.6,4.6,0,1,0-4.5-4.6Z" style="fill:#fff"/><path d="M303,276.4c0,3.9-2.5,6.3-6.6,6.3s-6.7-2.4-6.7-6.3v-8.5H293v8.5a3.2,3.2,0,0,0,3.4,3.4,3.1,3.1,0,0,0,3.3-3.4v-8.5H303Z" style="fill:#fff"/><rect x="133.1" y="168.8" width="296" height="35.71" style="fill:#a3c23a"/><path d="M218.4,193.4l-3-10.5-3,10.5H209l-4.9-14.7h3.6l3.1,11.1,3.1-11.1h3.3l3.1,11.1,3.1-11.1h3.4l-4.9,14.7Z" style="fill:#fff"/><path d="M238.1,193.4v-5.8h-6.7v5.8h-3.3V178.7h3.3v6.1h6.7v-6.1h3.3v14.7Z" style="fill:#fff"/><path d="M247.6,190.5l-1.2,2.9H243l6.4-14.7h3.4l6.3,14.7h-3.5l-1.2-2.9Zm3.4-8.4-2.3,5.7h4.6Z" style="fill:#fff"/><path d="M265.4,181.5v11.9h-3.3V181.5h-4.5v-2.8h12.3v2.8Z" style="fill:#fff"/><path d="M289.4,193.4l-3-10.5-3,10.5H280l-4.9-14.7h3.6l3.1,11.1,3.1-11.1h3.3l3.1,11.1,3.1-11.1h3.4l-4.9,14.7Z" style="fill:#fff"/><path d="M313.8,186a7.9,7.9,0,0,1-15.8,0c0-4.3,3.4-7.5,7.9-7.5S313.8,181.8,313.8,186Zm-12.4,0a4.6,4.6,0,0,0,4.5,4.6,4.6,4.6,0,1,0-4.5-4.6Z" style="fill:#fff"/><path d="M329,187.2c0,3.9-2.5,6.3-6.6,6.3s-6.7-2.4-6.7-6.3v-8.5H319v8.5a3.2,3.2,0,0,0,3.4,3.4,3.1,3.1,0,0,0,3.3-3.4v-8.5H329Z" style="fill:#fff"/><path d="M341.6,190.5v2.9h-9.6V178.7h3.3v11.8Z" style="fill:#fff"/><path d="M349.8,178.7c4.6,0,7.7,3,7.7,7.3s-3.2,7.3-7.9,7.3h-6.1V178.7Zm-2.9,11.9h3a4.2,4.2,0,0,0,4.3-4.5,4.3,4.3,0,0,0-4.4-4.6h-2.9Z" style="fill:#fff"/><rect x="133.1" y="342.1" width="296" height="35.71" style="fill:#a3c23a"/><path d="M221.2,353.2c4.6,0,7.7,3,7.7,7.3s-3.2,7.3-7.9,7.3H215V353.2Zm-2.9,11.9h3a4.2,4.2,0,0,0,4.3-4.5,4.3,4.3,0,0,0-4.4-4.6h-2.9Z" style="fill:#fff"/><path d="M245.5,360.5a7.9,7.9,0,0,1-15.8,0c0-4.3,3.4-7.5,7.9-7.5S245.5,356.3,245.5,360.5Zm-12.4,0a4.6,4.6,0,0,0,4.5,4.6,4.6,4.6,0,1,0-4.5-4.6Z" style="fill:#fff"/><path d="M256,355.9v3.6h6.6v2.8H256v5.6h-3.3V353.2h10.6v2.8Z" style="fill:#fff"/><path d="M280,360.5a7.9,7.9,0,0,1-15.8,0c0-4.3,3.4-7.5,7.9-7.5S280,356.3,280,360.5Zm-12.4,0a4.6,4.6,0,0,0,4.5,4.6,4.6,4.6,0,1,0-4.5-4.6Z" style="fill:#fff"/><path d="M288.8,363.7h-3.4v4.2h-3.3V353.2h6.4c3.8,0,6,1.8,6,5.1a4.9,4.9,0,0,1-2.7,4.7l3.1,4.8h-3.8Zm-.3-2.8c1.8,0,2.9-.8,2.9-2.5s-1-2.5-2.9-2.5h-3.1v5Z" style="fill:#fff"/><path d="M317.1,360.5a7.9,7.9,0,0,1-15.8,0c0-4.3,3.4-7.5,7.9-7.5S317.1,356.3,317.1,360.5Zm-12.4,0a4.6,4.6,0,0,0,4.5,4.6,4.6,4.6,0,1,0-4.5-4.6Z" style="fill:#fff"/><path d="M332.3,361.7c0,3.9-2.5,6.3-6.6,6.3s-6.7-2.4-6.7-6.3v-8.5h3.3v8.5a3.2,3.2,0,0,0,3.4,3.4,3.1,3.1,0,0,0,3.3-3.4v-8.5h3.3Z" style="fill:#fff"/><path d="M342,363.7h-3.4v4.2h-3.3V353.2h6.4c3.8,0,6,1.8,6,5.1a4.9,4.9,0,0,1-2.7,4.7l3.1,4.8h-3.8Zm-.3-2.8c1.8,0,2.9-.8,2.9-2.5s-1-2.5-2.9-2.5h-3.1v5Z" style="fill:#fff"/><rect x="133.1" y="436.8" width="296" height="35.71" style="fill:#a3c23a"/><path d="M247.5,448.4c3.7,0,5.9,1.8,5.9,5.1s-2.1,5.4-5.9,5.4h-2.9v4.2h-3.3V448.4Zm-2.9,7.7h2.8c1.8,0,2.9-.8,2.9-2.5s-1-2.5-2.9-2.5h-2.8Z" style="fill:#fff"/><path d="M257.4,460.2l-1.2,2.9h-3.4l6.4-14.7h3.4l6.3,14.7h-3.5l-1.2-2.9Zm3.4-8.4-2.3,5.7h4.6Z" style="fill:#fff"/><path d="M277.1,458.9h-3.4v4.2h-3.3V448.4h6.4c3.8,0,6,1.8,6,5.1a4.9,4.9,0,0,1-2.8,4.7l3.1,4.8h-3.8Zm-.3-2.8c1.8,0,2.9-.8,2.9-2.5s-1-2.5-2.9-2.5h-3.1v5Z" style="fill:#fff"/><path d="M291.1,457.1l-2.1,2.4v3.6h-3.3V448.4h3.3V455l6.1-6.7h3.8l-5.5,6.1,5.9,8.6h-4Z" style="fill:#fff"/><path d="M312,449.8l-1.3,2.8a10.2,10.2,0,0,0-4.6-1.5c-1.1,0-1.9.4-1.9,1.2,0,2.7,7.8,1.2,7.8,6.5,0,2.9-2.5,4.4-5.8,4.4a10.3,10.3,0,0,1-6.5-2.3l1.3-2.7a8.7,8.7,0,0,0,5.2,2.2c1.4,0,2.2-.5,2.2-1.4,0-2.8-7.8-1.2-7.8-6.4,0-2.7,2.3-4.3,5.7-4.3A10.5,10.5,0,0,1,312,449.8Z" style="fill:#fff"/><path d="M312.9,453c.1-2.9,1.8-4.6,4.7-4.6s4.4,1.3,4.4,3.6-3.3,3.5-3.3,6.2h-2.4c0-3.3,2.7-3.4,2.7-5.6s-.7-1.5-1.7-1.5-1.8.7-1.9,2Zm6.2,8.6a1.6,1.6,0,1,1-3.2,0,1.6,1.6,0,1,1,3.2,0Z" style="fill:#fff"/><path d="M416.5,142.1l6.3,3.7a2.4,2.4,0,0,1,1.2,2.1v7.3a2.4,2.4,0,0,1-1.2,2.1l-6.3,3.7a2.4,2.4,0,0,1-2.4,0l-6.3-3.7a2.4,2.4,0,0,1-1.2-2.1v-7.3a2.4,2.4,0,0,1,1.2-2.1l6.3-3.7A2.4,2.4,0,0,1,416.5,142.1Z" style="fill:#bbbe3a"/><path d="M416.5,138.4l7.2,4.1a2.7,2.7,0,0,1,1.4,2.4v8.3a2.7,2.7,0,0,1-1.4,2.4l-7.2,4.1a2.7,2.7,0,0,1-2.7,0l-7.2-4.1a2.7,2.7,0,0,1-1.4-2.4v-8.3a2.7,2.7,0,0,1,1.4-2.4l7.2-4.1A2.7,2.7,0,0,1,416.5,138.4Z" style="fill:#d3de46"/><path d="M402.9,149l6.3,3.7a2.4,2.4,0,0,1,1.2,2.1V162a2.4,2.4,0,0,1-1.2,2.1l-6.3,3.7a2.4,2.4,0,0,1-2.4,0l-6.3-3.7a2.4,2.4,0,0,1-1.2-2.1v-7.3a2.4,2.4,0,0,1,1.2-2.1l6.3-3.7A2.4,2.4,0,0,1,402.9,149Z" style="fill:#bbbe3a"/><path d="M402.9,145.2l7.2,4.1a2.7,2.7,0,0,1,1.4,2.4V160a2.7,2.7,0,0,1-1.4,2.4l-7.2,4.1a2.7,2.7,0,0,1-2.7,0l-7.2-4.1a2.7,2.7,0,0,1-1.4-2.4v-8.3a2.7,2.7,0,0,1,1.4-2.4l7.2-4.1A2.7,2.7,0,0,1,402.9,145.2Z" style="fill:#d3de46"/><rect x="404.2" y="162.9" width="10.2" height="6.46" style="fill:#6e8c3b"/><path d="M400.5,144l1.5,2.7a1,1,0,0,1,0,1l-1.5,2.6a1,1,0,0,1-.9.5h-3a1,1,0,0,1-.9-.5l-1.5-2.7a1,1,0,0,1,0-1l1.5-2.6a1,1,0,0,1,.9-.5h3A1,1,0,0,1,400.5,144Z" style="fill:#6e8c3b"/><path d="M400.5,143.6l1.5,2.7a1,1,0,0,1,0,1l-1.5,2.6a1,1,0,0,1-.9.5h-3a1,1,0,0,1-.9-.5l-1.5-2.7a1,1,0,0,1,0-1l1.5-2.6a1,1,0,0,1,.9-.5h3A1,1,0,0,1,400.5,143.6Z" style="fill:#8ea43b"/><path d="M411.8,141l9.3,5.4a3.6,3.6,0,0,1,1.8,3.1v10.8a3.6,3.6,0,0,1-1.8,3.1l-9.3,5.4a3.6,3.6,0,0,1-3.6,0l-9.3-5.4a3.6,3.6,0,0,1-1.8-3.1V149.5a3.6,3.6,0,0,1,1.8-3.1l9.3-5.4A3.6,3.6,0,0,1,411.8,141Z" style="fill:#6e8c3b"/><path d="M411.1,139.6l9.3,5.4a3.6,3.6,0,0,1,1.8,3.1v10.8a3.6,3.6,0,0,1-1.8,3.1l-9.3,5.4a3.6,3.6,0,0,1-3.6,0l-9.3-5.4a3.6,3.6,0,0,1-1.8-3.1V148.1a3.6,3.6,0,0,1,1.8-3.1l9.3-5.4A3.6,3.6,0,0,1,411.1,139.6Z" style="fill:#a3c23a"/><path d="M424,151.1l3.8,6.6a2.5,2.5,0,0,1,0,2.5l-3.9,6.6a2.5,2.5,0,0,1-2.2,1.2h-7.6a2.5,2.5,0,0,1-2.2-1.3l-3.8-6.6a2.5,2.5,0,0,1,0-2.5l3.9-6.6a2.5,2.5,0,0,1,2.2-1.2h7.6A2.5,2.5,0,0,1,424,151.1Z" style="fill:#6e8c3b"/><path d="M424.1,150l3.8,6.6a2.5,2.5,0,0,1,0,2.5l-3.9,6.6a2.5,2.5,0,0,1-2.2,1.2h-7.6a2.5,2.5,0,0,1-2.2-1.3l-3.8-6.6a2.5,2.5,0,0,1,0-2.5l3.9-6.6a2.5,2.5,0,0,1,2.2-1.2h7.6A2.5,2.5,0,0,1,424.1,150Z" style="fill:#8ea43b"/><path d="M146,169s2.8-6.1,2.5-10c0,0,.7,5.8,0,7.8a13.9,13.9,0,0,1,2-2.8,7.2,7.2,0,0,0-.6,3.6s2.3-.2,2.8-5.1a41.3,41.3,0,0,0,.5,5.8s1.5-5.2,2.2-6.1a30.8,30.8,0,0,0,0,4.7,5.4,5.4,0,0,0,1.4-1.4s-1.1,2-.3,2.9a5.3,5.3,0,0,0,2.5-3.3,11.7,11.7,0,0,0,.8,3.9Z" style="fill:#d3de46"/><path d="M133.5,169s2.8-6.1,2.5-10c0,0,.7,5.8,0,7.8a13.9,13.9,0,0,1,2-2.8,7.2,7.2,0,0,0-.6,3.6s2.3-.2,2.8-5.1a41.3,41.3,0,0,0,.5,5.8s1.5-5.2,2.2-6.1a30.8,30.8,0,0,0,0,4.7,5.4,5.4,0,0,0,1.4-1.4s-1.1,2-.3,2.9a5.3,5.3,0,0,0,2.5-3.3,11.7,11.7,0,0,0,.8,3.9Z" style="fill:#d3de46"/><path d="M172.9,169s2.8-6.1,2.5-10c0,0,.7,5.8,0,7.8a13.9,13.9,0,0,1,2-2.8,7.2,7.2,0,0,0-.6,3.6s2.3-.2,2.8-5.1a41.3,41.3,0,0,0,.5,5.8s1.5-5.2,2.2-6.1a30.8,30.8,0,0,0,0,4.7,5.4,5.4,0,0,0,1.4-1.4s-1.1,2-.3,2.9a5.3,5.3,0,0,0,2.5-3.3,11.7,11.7,0,0,0,.8,3.9Z" style="fill:#d3de46"/><path d="M160.4,169s2.8-6.1,2.5-10c0,0,.7,5.8,0,7.8a13.9,13.9,0,0,1,2-2.8,7.2,7.2,0,0,0-.6,3.6s2.3-.2,2.8-5.1a41.3,41.3,0,0,0,.5,5.8s1.5-5.2,2.2-6.1a30.8,30.8,0,0,0,0,4.7,5.4,5.4,0,0,0,1.4-1.4s-1.1,2-.3,2.9a5.3,5.3,0,0,0,2.5-3.3,11.7,11.7,0,0,0,.8,3.9Z" style="fill:#d3de46"/><path d="M363,168.9s2.8-6.1,2.5-10c0,0,.7,5.8,0,7.8a13.9,13.9,0,0,1,2-2.8,7.2,7.2,0,0,0-.6,3.6s2.3-.2,2.8-5.1a41.3,41.3,0,0,0,.5,5.8s1.5-5.2,2.2-6.1a30.8,30.8,0,0,0,0,4.7,5.4,5.4,0,0,0,1.4-1.4s-1.1,2-.3,2.9A5.3,5.3,0,0,0,376,165a11.7,11.7,0,0,0,.8,3.9Z" style="fill:#d3de46"/><path d="M350.4,168.9s2.8-6.1,2.5-10c0,0,.7,5.8,0,7.8a13.9,13.9,0,0,1,2-2.8,7.2,7.2,0,0,0-.6,3.6s2.3-.2,2.8-5.1a41.3,41.3,0,0,0,.5,5.8s1.5-5.2,2.2-6.1a30.8,30.8,0,0,0,0,4.7,5.4,5.4,0,0,0,1.4-1.4s-1.1,2-.3,2.9a5.3,5.3,0,0,0,2.5-3.3,11.7,11.7,0,0,0,.8,3.9Z" style="fill:#d3de46"/><path d="M389.9,168.9s2.8-6.1,2.5-10c0,0,.7,5.8,0,7.8a13.9,13.9,0,0,1,2-2.8,7.2,7.2,0,0,0-.6,3.6s2.3-.2,2.8-5.1a41.3,41.3,0,0,0,.5,5.8s1.5-5.2,2.2-6.1a30.8,30.8,0,0,0,0,4.7,5.4,5.4,0,0,0,1.4-1.4s-1.1,2-.3,2.9A5.3,5.3,0,0,0,403,165a11.7,11.7,0,0,0,.8,3.9Z" style="fill:#d3de46"/><path d="M377.3,168.9s2.8-6.1,2.5-10c0,0,.7,5.8,0,7.8a13.9,13.9,0,0,1,2-2.8,7.2,7.2,0,0,0-.6,3.6s2.3-.2,2.8-5.1a41.3,41.3,0,0,0,.5,5.8s1.5-5.2,2.2-6.1a30.8,30.8,0,0,0,0,4.7,5.4,5.4,0,0,0,1.4-1.4s-1.1,2-.3,2.9a5.3,5.3,0,0,0,2.5-3.3,11.7,11.7,0,0,0,.8,3.9Z" style="fill:#d3de46"/><path d="M388.1,168.9s2.8-6.1,2.5-10c0,0,.7,5.8,0,7.8a13.9,13.9,0,0,1,2-2.8,7.2,7.2,0,0,0-.6,3.6s2.3-.2,2.8-5.1a41.3,41.3,0,0,0,.5,5.8s1.5-5.2,2.2-6.1a30.8,30.8,0,0,0,0,4.7,5.4,5.4,0,0,0,1.4-1.4s-1.1,2-.3,2.9a5.3,5.3,0,0,0,2.5-3.3,11.7,11.7,0,0,0,.8,3.9Z" style="fill:#d3de46"/><path d="M375.5,168.9s2.8-6.1,2.5-10c0,0,.7,5.8,0,7.8a13.9,13.9,0,0,1,2-2.8,7.2,7.2,0,0,0-.6,3.6s2.3-.2,2.8-5.1a41.3,41.3,0,0,0,.5,5.8s1.5-5.2,2.2-6.1a30.8,30.8,0,0,0,0,4.7,5.4,5.4,0,0,0,1.4-1.4s-1.1,2-.3,2.9a5.3,5.3,0,0,0,2.5-3.3,11.7,11.7,0,0,0,.8,3.9Z" style="fill:#d3de46"/><path d="M415,168.9s2.8-6.1,2.5-10c0,0,.7,5.8,0,7.8a13.9,13.9,0,0,1,2-2.8,7.2,7.2,0,0,0-.6,3.6s2.3-.2,2.8-5.1a41.3,41.3,0,0,0,.5,5.8s1.5-5.2,2.2-6.1a30.8,30.8,0,0,0,0,4.7,5.4,5.4,0,0,0,1.4-1.4s-1.1,2-.3,2.9a5.3,5.3,0,0,0,2.5-3.3,11.7,11.7,0,0,0,.8,3.9Z" style="fill:#d3de46"/><path d="M402.4,168.9s2.8-6.1,2.5-10c0,0,.7,5.8,0,7.8a13.9,13.9,0,0,1,2-2.8,7.2,7.2,0,0,0-.6,3.6s2.3-.2,2.8-5.1a41.3,41.3,0,0,0,.5,5.8s1.5-5.2,2.2-6.1a30.8,30.8,0,0,0,0,4.7,5.4,5.4,0,0,0,1.4-1.4s-1.1,2-.3,2.9a5.3,5.3,0,0,0,2.5-3.3,11.7,11.7,0,0,0,.8,3.9Z" style="fill:#d3de46"/><path d="M273.7,169s2.8-6.1,2.5-10c0,0,.7,5.8,0,7.8a13.9,13.9,0,0,1,2-2.8,7.2,7.2,0,0,0-.6,3.6s2.3-.2,2.8-5.1a41.3,41.3,0,0,0,.5,5.8s1.5-5.2,2.2-6.1a30.8,30.8,0,0,0,0,4.7,5.4,5.4,0,0,0,1.4-1.4s-1.1,2-.3,2.9a5.3,5.3,0,0,0,2.5-3.3,11.7,11.7,0,0,0,.8,3.9Z" style="fill:#d3de46"/><path d="M261.1,169s2.8-6.1,2.5-10c0,0,.7,5.8,0,7.8a13.9,13.9,0,0,1,2-2.8,7.2,7.2,0,0,0-.6,3.6s2.3-.2,2.8-5.1a41.3,41.3,0,0,0,.5,5.8s1.5-5.2,2.2-6.1a30.8,30.8,0,0,0,0,4.7,5.4,5.4,0,0,0,1.4-1.4s-1.1,2-.3,2.9a5.3,5.3,0,0,0,2.5-3.3,11.7,11.7,0,0,0,.8,3.9Z" style="fill:#d3de46"/><path d="M167.9,342.3s2.8-6.1,2.5-10c0,0,.7,5.8,0,7.8a13.9,13.9,0,0,1,2-2.8,7.2,7.2,0,0,0-.6,3.6s2.3-.2,2.8-5.1a41.3,41.3,0,0,0,.5,5.8s1.5-5.2,2.2-6.1a30.8,30.8,0,0,0,0,4.7,5.4,5.4,0,0,0,1.4-1.4s-1.1,2-.3,2.9a5.3,5.3,0,0,0,2.5-3.3,11.7,11.7,0,0,0,.8,3.9Z" style="fill:#d3de46"/><path d="M155.4,342.3s2.8-6.1,2.5-10c0,0,.7,5.8,0,7.8a13.9,13.9,0,0,1,2-2.8,7.2,7.2,0,0,0-.6,3.6s2.3-.2,2.8-5.1a41.3,41.3,0,0,0,.5,5.8s1.5-5.2,2.2-6.1a30.8,30.8,0,0,0,0,4.7,5.4,5.4,0,0,0,1.4-1.4s-1.1,2-.3,2.9a5.3,5.3,0,0,0,2.5-3.3,11.7,11.7,0,0,0,.8,3.9Z" style="fill:#d3de46"/><path d="M194.8,342.3s2.8-6.1,2.5-10c0,0,.7,5.8,0,7.8a13.9,13.9,0,0,1,2-2.8,7.2,7.2,0,0,0-.6,3.6s2.3-.2,2.8-5.1a41.3,41.3,0,0,0,.5,5.8s1.5-5.2,2.2-6.1a30.8,30.8,0,0,0,0,4.7,5.4,5.4,0,0,0,1.4-1.4s-1.1,2-.3,2.9a5.3,5.3,0,0,0,2.5-3.3,11.7,11.7,0,0,0,.8,3.9Z" style="fill:#d3de46"/><path d="M182.3,342.3s2.8-6.1,2.5-10c0,0,.7,5.8,0,7.8a13.9,13.9,0,0,1,2-2.8,7.2,7.2,0,0,0-.6,3.6s2.3-.2,2.8-5.1a41.3,41.3,0,0,0,.5,5.8s1.5-5.2,2.2-6.1a30.8,30.8,0,0,0,0,4.7,5.4,5.4,0,0,0,1.4-1.4s-1.1,2-.3,2.9a5.3,5.3,0,0,0,2.5-3.3,11.7,11.7,0,0,0,.8,3.9Z" style="fill:#d3de46"/><path d="M384.9,342.2s2.8-6.1,2.5-10c0,0,.7,5.8,0,7.8a13.9,13.9,0,0,1,2-2.8,7.2,7.2,0,0,0-.6,3.6s2.3-.2,2.8-5.1a41.3,41.3,0,0,0,.5,5.8s1.5-5.2,2.2-6.1a30.8,30.8,0,0,0,0,4.7,5.4,5.4,0,0,0,1.4-1.4s-1.1,2-.3,2.9a5.3,5.3,0,0,0,2.5-3.3,11.7,11.7,0,0,0,.8,3.9Z" style="fill:#d3de46"/><path d="M372.3,342.2s2.8-6.1,2.5-10c0,0,.7,5.8,0,7.8a13.9,13.9,0,0,1,2-2.8,7.2,7.2,0,0,0-.6,3.6s2.3-.2,2.8-5.1a41.3,41.3,0,0,0,.5,5.8s1.5-5.2,2.2-6.1a30.8,30.8,0,0,0,0,4.7,5.4,5.4,0,0,0,1.4-1.4s-1.1,2-.3,2.9a5.3,5.3,0,0,0,2.5-3.3,11.7,11.7,0,0,0,.8,3.9Z" style="fill:#d3de46"/><path d="M411.8,342.2s2.8-6.1,2.5-10c0,0,.7,5.8,0,7.8a13.9,13.9,0,0,1,2-2.8,7.2,7.2,0,0,0-.6,3.6s2.3-.2,2.8-5.1a41.3,41.3,0,0,0,.5,5.8s1.5-5.2,2.2-6.1a30.8,30.8,0,0,0,0,4.7,5.4,5.4,0,0,0,1.4-1.4s-1.1,2-.3,2.9a5.3,5.3,0,0,0,2.5-3.3,11.7,11.7,0,0,0,.8,3.9Z" style="fill:#d3de46"/><path d="M399.2,342.2s2.8-6.1,2.5-10c0,0,.7,5.8,0,7.8a13.9,13.9,0,0,1,2-2.8,7.2,7.2,0,0,0-.6,3.6s2.3-.2,2.8-5.1a41.3,41.3,0,0,0,.5,5.8s1.5-5.2,2.2-6.1a30.8,30.8,0,0,0,0,4.7,5.4,5.4,0,0,0,1.4-1.4s-1.1,2-.3,2.9a5.3,5.3,0,0,0,2.5-3.3,11.7,11.7,0,0,0,.8,3.9Z" style="fill:#d3de46"/><path d="M283,342.3s2.8-6.1,2.5-10c0,0,.7,5.8,0,7.8a13.9,13.9,0,0,1,2-2.8,7.2,7.2,0,0,0-.6,3.6s2.3-.2,2.8-5.1a41.3,41.3,0,0,0,.5,5.8s1.5-5.2,2.2-6.1a30.8,30.8,0,0,0,0,4.7,5.4,5.4,0,0,0,1.4-1.4s-1.1,2-.3,2.9a5.3,5.3,0,0,0,2.5-3.3,11.7,11.7,0,0,0,.8,3.9Z" style="fill:#d3de46"/><path d="M197.6,436.8s3.5-7.5,3-12.3c0,0,.8,7.1,0,9.5a17,17,0,0,1,2.4-3.4s-1.2,2.7-.7,4.4c0,0,2.8-.3,3.5-6.2,0,0,.1,5.8.6,7.1s1.9-6.3,2.7-7.5a37.6,37.6,0,0,0,0,5.8,6.6,6.6,0,0,0,1.8-1.7s-1.3,2.4-.3,3.6a6.5,6.5,0,0,0,3-4,14.3,14.3,0,0,0,1,4.8Z" style="fill:#d3de46"/><path d="M329.2,436.8s2.8-6.1,2.5-10c0,0,.7,5.8,0,7.8a13.9,13.9,0,0,1,2-2.8,7.2,7.2,0,0,0-.6,3.6s2.3-.2,2.8-5.1a41.3,41.3,0,0,0,.5,5.8s1.5-5.2,2.2-6.1a30.8,30.8,0,0,0,0,4.7,5.4,5.4,0,0,0,1.4-1.4s-1.1,2-.3,2.9a5.3,5.3,0,0,0,2.5-3.3,11.7,11.7,0,0,0,.8,3.9Z" style="fill:#d3de46"/><path d="M316.7,436.8s2.8-6.1,2.5-10c0,0,.7,5.8,0,7.8a13.9,13.9,0,0,1,2-2.8,7.2,7.2,0,0,0-.6,3.6s2.3-.2,2.8-5.1a41.3,41.3,0,0,0,.5,5.8s1.5-5.2,2.2-6.1a30.8,30.8,0,0,0,0,4.7,5.4,5.4,0,0,0,1.4-1.4s-1.1,2-.3,2.9a5.3,5.3,0,0,0,2.5-3.3,11.7,11.7,0,0,0,.8,3.9Z" style="fill:#d3de46"/><path d="M373.2,436.8s2.8-6.1,2.5-10c0,0,.7,5.8,0,7.8a13.9,13.9,0,0,1,2-2.8,7.2,7.2,0,0,0-.6,3.6s2.3-.2,2.8-5.1a41.3,41.3,0,0,0,.5,5.8s1.5-5.2,2.2-6.1a30.8,30.8,0,0,0,0,4.7,5.4,5.4,0,0,0,1.4-1.4s-1.1,2-.3,2.9a5.3,5.3,0,0,0,2.5-3.3,11.7,11.7,0,0,0,.8,3.9Z" style="fill:#d3de46"/><path d="M182.2,436.8s3.5-7.5,3-12.3c0,0,.8,7.1,0,9.5a17,17,0,0,1,2.4-3.4s-1.2,2.7-.7,4.4c0,0,2.8-.3,3.5-6.2,0,0,.1,5.8.6,7.1s1.9-6.3,2.7-7.5a37.6,37.6,0,0,0,0,5.8,6.6,6.6,0,0,0,1.8-1.7s-1.3,2.4-.3,3.6a6.5,6.5,0,0,0,3-4,14.3,14.3,0,0,0,1,4.8Z" style="fill:#d3de46"/><path d="M287.6,666.3l-7.4-10.6L268,638.2a4.5,4.5,0,0,1,1.6-6.8,5.8,5.8,0,0,1,7.6,1.6l2.9,4.1,3.6,5.1h.4q0-.7,0-1.4,0-15.1,0-30.2c0-3,0-6,0-9s1.9-3.8,4.3-3.8a4.1,4.1,0,0,1,4.4,3.6,15.7,15.7,0,0,1,.1,1.7q0,10.6-.1,21.2a2.3,2.3,0,0,0,.1.9c.1.2.4.4.6.6s.5-.3.6-.6a3,3,0,0,0,.1-1q0-9.9,0-19.8c0-1.7-.1-3.4,0-5.1a4.4,4.4,0,0,1,6.1-3.7,3.8,3.8,0,0,1,2.7,3.9q0,12.9,0,25.8c0,.5.4,1,.7,1.5a4.5,4.5,0,0,0,.6-1.5c.1-3.6,0-7.2,0-10.8s0-8.3,0-12.5,2.1-4.4,4.8-4.2a4,4,0,0,1,3.9,4.2q0,12.1,0,24.2a4.1,4.1,0,0,0,.1,1.4,1.1,1.1,0,0,0,.9.5.9.9,0,0,0,.6-.5,4.7,4.7,0,0,0,.1-1.3c0-6.3,0-12.6,0-18.9a8.8,8.8,0,0,1,.3-2.4,4.1,4.1,0,0,1,4-2.8c2.9,0,4.6,1.6,4.6,4.5,0,12.4.1,24.8,0,37.1,0,3.5-.6,6.9-.9,10.4s-2.4,7.7-3.9,11.5a9.8,9.8,0,0,0-.9,3.5q0,23.5,0,47.1H289.6q0-21.8,0-43.6A11.2,11.2,0,0,0,287.6,666.3Z" style="fill:#b15732"/><path d="M187.3,623.7l-7.4-10.6-12.2-17.5a4.5,4.5,0,0,1,1.6-6.8,5.8,5.8,0,0,1,7.6,1.6l2.9,4.1,3.6,5.1h.4q0-.7,0-1.4,0-15.1,0-30.2c0-3,0-6,0-9s1.9-3.8,4.3-3.8a4.1,4.1,0,0,1,4.4,3.6,15.7,15.7,0,0,1,.1,1.7q0,10.6-.1,21.2a2.3,2.3,0,0,0,.1.9c.1.2.4.4.6.6s.5-.3.6-.6a3,3,0,0,0,.1-1q0-9.9,0-19.8c0-1.7-.1-3.4,0-5.1a4.4,4.4,0,0,1,6.1-3.7,3.8,3.8,0,0,1,2.7,3.9q0,12.9,0,25.8c0,.5.4,1,.7,1.5a4.5,4.5,0,0,0,.6-1.5c.1-3.6,0-7.2,0-10.8s0-8.3,0-12.5,2.1-4.4,4.8-4.2a4,4,0,0,1,3.9,4.2q0,12.1,0,24.2a4.1,4.1,0,0,0,.1,1.4,1.1,1.1,0,0,0,.9.5.9.9,0,0,0,.6-.5,4.7,4.7,0,0,0,.1-1.3c0-6.3,0-12.6,0-18.9a8.8,8.8,0,0,1,.3-2.4,4.1,4.1,0,0,1,4-2.8c2.9,0,4.6,1.6,4.6,4.5,0,12.4.1,24.8,0,37.1,0,3.5-.6,6.9-.9,10.4s-2.4,7.7-3.9,11.5a9.8,9.8,0,0,0-.9,3.5c0,15.7,0,93.7,0,109.4H189.2c0-14.5,0-91.4,0-106A11.2,11.2,0,0,0,187.3,623.7Z" style="fill:#f4c3ae"/><path d="M112.7,646.7l7.4-10.6,12.2-17.5a4.5,4.5,0,0,0-1.6-6.8,5.8,5.8,0,0,0-7.6,1.6l-2.9,4.1-3.6,5.1h-.4q0-.7,0-1.4,0-15.1,0-30.2c0-3,0-6,0-9s-1.9-3.8-4.3-3.8a4.1,4.1,0,0,0-4.4,3.6,15.7,15.7,0,0,0-.1,1.7q0,10.6.1,21.2a2.3,2.3,0,0,1-.1.9c-.1.2-.4.4-.6.6s-.5-.3-.6-.6a3,3,0,0,1-.1-1q0-9.9,0-19.8c0-1.7.1-3.4,0-5.1a4.4,4.4,0,0,0-6.1-3.7,3.8,3.8,0,0,0-2.7,3.9q0,12.9,0,25.8c0,.5-.4,1-.7,1.5a4.5,4.5,0,0,1-.6-1.5c-.1-3.6,0-7.2,0-10.8s0-8.3,0-12.5-2.1-4.4-4.8-4.2a4,4,0,0,0-3.9,4.2q0,12.1,0,24.2a4.1,4.1,0,0,1-.1,1.4,1.1,1.1,0,0,1-.9.5.9.9,0,0,1-.6-.5,4.7,4.7,0,0,1-.1-1.3c0-6.3,0-12.6,0-18.9a8.8,8.8,0,0,0-.3-2.4,4.1,4.1,0,0,0-4-2.8c-2.9,0-4.6,1.6-4.6,4.5,0,12.4-.1,24.8,0,37.1,0,3.5.6,6.9.9,10.4s2.4,7.7,3.9,11.5a9.8,9.8,0,0,1,.9,3.5q0,23.5,0,47.1h28.4q0-21.8,0-43.6A11.2,11.2,0,0,1,112.7,646.7Z" style="fill:#e09b7f"/><path d="M171.1,584.3l7.4-10.6,12.2-17.5a4.5,4.5,0,0,0-1.6-6.8,5.8,5.8,0,0,0-7.6,1.6l-2.9,4.1-3.6,5.1h-.4q0-.7,0-1.4,0-15.1,0-30.2c0-3,0-6,0-9s-1.9-3.8-4.3-3.8a4.1,4.1,0,0,0-4.4,3.6,15.7,15.7,0,0,0-.1,1.7q0,10.6.1,21.2a2.3,2.3,0,0,1-.1.9c-.1.2-.4.4-.6.6s-.5-.3-.6-.6a3,3,0,0,1-.1-1q0-9.9,0-19.8c0-1.7.1-3.4,0-5.1a4.4,4.4,0,0,0-6.1-3.7,3.8,3.8,0,0,0-2.7,3.9q0,12.9,0,25.8c0,.5-.4,1-.7,1.5a4.5,4.5,0,0,1-.6-1.5c-.1-3.6,0-7.2,0-10.8s0-8.3,0-12.5-2.1-4.4-4.8-4.2a4,4,0,0,0-3.9,4.2q0,12.1,0,24.2a4.1,4.1,0,0,1-.1,1.4,1.1,1.1,0,0,1-.9.5.9.9,0,0,1-.6-.5,4.7,4.7,0,0,1-.1-1.3c0-6.3,0-12.6,0-18.9a8.8,8.8,0,0,0-.3-2.4,4.1,4.1,0,0,0-4-2.8c-2.9,0-4.6,1.6-4.6,4.5,0,12.4-.1,24.8,0,37.1,0,3.5.6,6.9.9,10.4s2.4,7.7,3.9,11.5a9.8,9.8,0,0,1,.9,3.5c0,15.7,0,93.7,0,109.4h28.4c0-14.5,0-91.4,0-106A11.2,11.2,0,0,1,171.1,584.3Z" style="fill:#c46f4c"/><path d="M267.9,628.4l7.4-10.6,12.2-17.5a4.5,4.5,0,0,0-1.6-6.8,5.8,5.8,0,0,0-7.6,1.6l-2.9,4.1-3.6,5.1h-.4q0-.7,0-1.4,0-15.1,0-30.2c0-3,0-6,0-9s-1.9-3.8-4.3-3.8a4.1,4.1,0,0,0-4.4,3.6,15.7,15.7,0,0,0-.1,1.7q0,10.6.1,21.2a2.3,2.3,0,0,1-.1.9c-.1.2-.4.4-.6.6s-.5-.3-.6-.6a3,3,0,0,1-.1-1q0-9.9,0-19.8c0-1.7.1-3.4,0-5.1a4.4,4.4,0,0,0-6.1-3.7,3.8,3.8,0,0,0-2.7,3.9q0,12.9,0,25.8c0,.5-.4,1-.7,1.5a4.5,4.5,0,0,1-.6-1.5c-.1-3.6,0-7.2,0-10.8s0-8.3,0-12.5-2.1-4.4-4.8-4.2a4,4,0,0,0-3.9,4.2q0,12.1,0,24.2a4.1,4.1,0,0,1-.1,1.4,1.1,1.1,0,0,1-.9.5.9.9,0,0,1-.6-.5,4.7,4.7,0,0,1-.1-1.3c0-6.3,0-12.6,0-18.9a8.8,8.8,0,0,0-.3-2.4,4.1,4.1,0,0,0-4-2.8c-2.9,0-4.6,1.6-4.6,4.5,0,12.4-.1,24.8,0,37.1,0,3.5.6,6.9.9,10.4s2.4,7.7,3.9,11.5a9.8,9.8,0,0,1,.9,3.5c0,15.7,0,41.4,0,57.1H266c0-14.5,0-39.1,0-53.6A11.2,11.2,0,0,1,267.9,628.4Z" style="fill:#e09b7f"/><path d="M328.3,583.7l-7.4-10.6-12.2-17.5a4.5,4.5,0,0,1,1.6-6.8,5.8,5.8,0,0,1,7.6,1.6l2.9,4.1,3.6,5.1h.4q0-.7,0-1.4,0-15.1,0-30.2c0-3,0-6,0-9s1.9-3.8,4.3-3.8a4.1,4.1,0,0,1,4.4,3.6,15.7,15.7,0,0,1,.1,1.7q0,10.6-.1,21.2a2.3,2.3,0,0,0,.1.9c.1.2.4.4.6.6s.5-.3.6-.6a3,3,0,0,0,.1-1q0-9.9,0-19.8c0-1.7-.1-3.4,0-5.1a4.4,4.4,0,0,1,6.1-3.7,3.8,3.8,0,0,1,2.7,3.9q0,12.9,0,25.8c0,.5.4,1,.7,1.5a4.5,4.5,0,0,0,.6-1.5c.1-3.6,0-7.2,0-10.8s0-8.3,0-12.5,2.1-4.4,4.8-4.2a4,4,0,0,1,3.9,4.2q0,12.1,0,24.2a4.1,4.1,0,0,0,.1,1.4,1.1,1.1,0,0,0,.9.5.9.9,0,0,0,.6-.5,4.7,4.7,0,0,0,.1-1.3c0-6.3,0-12.6,0-18.9a8.8,8.8,0,0,1,.3-2.4,4.1,4.1,0,0,1,4-2.8c2.9,0,4.6,1.6,4.6,4.5,0,12.4.1,24.8,0,37.1,0,3.5-.6,6.9-.9,10.4s-2.4,7.7-3.9,11.5a9.8,9.8,0,0,0-.9,3.5c0,15.7,0,93.7,0,109.4H330.2c0-14.5,0-91.4,0-106A11.2,11.2,0,0,0,328.3,583.7Z" style="fill:#f4c3ae"/><path d="M40.3,693.7,33,683.1,20.7,665.7a4.5,4.5,0,0,1,1.6-6.8,5.8,5.8,0,0,1,7.6,1.6l2.9,4.1,3.6,5.1h.4q0-.7,0-1.4,0-15.1,0-30.2c0-3,0-6,0-9s1.9-3.8,4.3-3.8a4.1,4.1,0,0,1,4.4,3.6,15.7,15.7,0,0,1,.1,1.7q0,10.6-.1,21.2a2.3,2.3,0,0,0,.1.9c.1.2.4.4.6.6s.5-.3.6-.6a3,3,0,0,0,.1-1q0-9.9,0-19.8c0-1.7-.1-3.4,0-5.1a4.4,4.4,0,0,1,6.1-3.7,3.8,3.8,0,0,1,2.7,3.9q0,12.9,0,25.8c0,.5.4,1,.7,1.5a4.5,4.5,0,0,0,.6-1.5c.1-3.6,0-7.2,0-10.8s0-8.3,0-12.5,2.1-4.4,4.8-4.2a4,4,0,0,1,3.9,4.2q0,12.1,0,24.2a4.1,4.1,0,0,0,.1,1.4,1.1,1.1,0,0,0,.9.5.9.9,0,0,0,.6-.5,4.7,4.7,0,0,0,.1-1.3c0-6.3,0-12.6,0-18.9a8.8,8.8,0,0,1,.3-2.4,4.1,4.1,0,0,1,4-2.8c2.9,0,4.6,1.6,4.6,4.5,0,12.4.1,24.8,0,37.1,0,3.5-.6,6.9-.9,10.4s-2.4,7.7-3.9,11.5a9.8,9.8,0,0,0-.9,3.5q0,23.5,0,47.1H42.3q0-21.8,0-43.6A11.2,11.2,0,0,0,40.3,693.7Z" style="fill:#b15732"/><path d="M476.3,628.7l-6.3-9.1-10.5-14.9a3.8,3.8,0,0,1,1.4-5.8,5,5,0,0,1,6.5,1.4l2.5,3.5,3.1,4.4h.3q0-.6,0-1.2,0-12.9,0-25.8c0-2.6,0-5.1,0-7.7s1.6-3.2,3.7-3.3a3.5,3.5,0,0,1,3.8,3.1,13.5,13.5,0,0,1,.1,1.4q0,9.1-.1,18.1a1.9,1.9,0,0,0,.1.8c.1.2.3.3.5.5s.5-.3.5-.5a2.6,2.6,0,0,0,.1-.9q0-8.5,0-16.9c0-1.5-.1-2.9,0-4.4a3.7,3.7,0,0,1,5.2-3.1,3.2,3.2,0,0,1,2.3,3.3q0,11,0,22.1c0,.4.4.8.6,1.3a3.9,3.9,0,0,0,.5-1.3c0-3.1,0-6.2,0-9.2s0-7.1,0-10.7a3.6,3.6,0,0,1,4.1-3.6,3.4,3.4,0,0,1,3.3,3.6q0,10.3,0,20.7a3.5,3.5,0,0,0,.1,1.2,1,1,0,0,0,.7.4.8.8,0,0,0,.5-.5,4,4,0,0,0,.1-1.1c0-5.4,0-10.8,0-16.2a7.5,7.5,0,0,1,.3-2.1,3.5,3.5,0,0,1,3.5-2.4,3.5,3.5,0,0,1,3.9,3.9c0,10.6.1,21.2,0,31.8,0,3-.5,5.9-.8,8.9s-2.1,6.6-3.4,9.9a8.3,8.3,0,0,0-.8,3c0,13.4,0,80.2,0,93.6H478c0-12.4,0-78.2,0-90.7A9.6,9.6,0,0,0,476.3,628.7Z" style="fill:#f4c3ae"/><path d="M405.6,627.4l7.4-10.6,12.2-17.5a4.5,4.5,0,0,0-1.6-6.8,5.8,5.8,0,0,0-7.6,1.6l-2.9,4.1-3.6,5.1h-.4q0-.7,0-1.4,0-15.1,0-30.2c0-3,0-6,0-9s-1.9-3.8-4.3-3.8a4.1,4.1,0,0,0-4.4,3.6,15.7,15.7,0,0,0-.1,1.7q0,10.6.1,21.2a2.3,2.3,0,0,1-.1.9c-.1.2-.4.4-.6.6s-.5-.3-.6-.6a3,3,0,0,1-.1-1q0-9.9,0-19.8c0-1.7.1-3.4,0-5.1a4.4,4.4,0,0,0-6.1-3.7,3.8,3.8,0,0,0-2.7,3.9q0,12.9,0,25.8c0,.5-.4,1-.7,1.5a4.5,4.5,0,0,1-.6-1.5c-.1-3.6,0-7.2,0-10.8s0-8.3,0-12.5-2.1-4.4-4.8-4.2a4,4,0,0,0-3.9,4.2q0,12.1,0,24.2a4.1,4.1,0,0,1-.1,1.4,1.1,1.1,0,0,1-.9.5.9.9,0,0,1-.6-.5,4.7,4.7,0,0,1-.1-1.3c0-6.3,0-12.6,0-18.9a8.8,8.8,0,0,0-.3-2.4,4.1,4.1,0,0,0-4-2.8c-2.9,0-4.6,1.6-4.6,4.5,0,12.4-.1,24.8,0,37.1,0,3.5.6,6.9.9,10.4s2.4,7.7,3.9,11.5a9.8,9.8,0,0,1,.9,3.5c0,15.7,0,49.4,0,65.1h28.4c0-14.5,0-47.1,0-61.6A11.2,11.2,0,0,1,405.6,627.4Z" style="fill:#e09b7f"/><path d="M455,652.1l6.1-8.8,10.2-14.5a3.7,3.7,0,0,0-1.3-5.6,4.8,4.8,0,0,0-6.3,1.4l-2.4,3.4-3,4.3h-.3q0-.6,0-1.1,0-12.5,0-25.1c0-2.5,0-5,0-7.5s-1.5-3.1-3.6-3.2a3.4,3.4,0,0,0-3.7,3,13.1,13.1,0,0,0-.1,1.4q0,8.8.1,17.6a1.9,1.9,0,0,1,0,.7c-.1.2-.3.3-.5.5s-.4-.3-.5-.5a2.5,2.5,0,0,1-.1-.8q0-8.2,0-16.4c0-1.4,0-2.8,0-4.3a3.6,3.6,0,0,0-5.1-3,3.2,3.2,0,0,0-2.2,3.2q0,10.7,0,21.5c0,.4-.4.8-.6,1.2a3.7,3.7,0,0,1-.5-1.2c0-3,0-6,0-9s0-6.9,0-10.4a3.5,3.5,0,0,0-4-3.5,3.3,3.3,0,0,0-3.2,3.5q0,10,0,20.1a3.4,3.4,0,0,1-.1,1.2,1,1,0,0,1-.7.4.7.7,0,0,1-.5-.4,3.9,3.9,0,0,1-.1-1.1c0-5.2,0-10.5,0-15.7a7.3,7.3,0,0,0-.2-2,3.4,3.4,0,0,0-3.4-2.3,3.4,3.4,0,0,0-3.8,3.8c0,10.3-.1,20.6,0,30.8,0,2.9.5,5.7.8,8.6s2,6.4,3.3,9.6a8.1,8.1,0,0,1,.7,2.9c0,13,0,77.9,0,90.9h23.6c0-12.1,0-76,0-88A9.3,9.3,0,0,1,455,652.1Z" style="fill:#c46f4c"/><path d="M541.9,651.4l6.3-9.1,10.5-14.9a3.8,3.8,0,0,0-1.4-5.8,5,5,0,0,0-6.5,1.4l-2.5,3.5-3.1,4.4h-.3q0-.6,0-1.2,0-12.9,0-25.8c0-2.6,0-5.1,0-7.7s-1.6-3.2-3.7-3.3a3.5,3.5,0,0,0-3.8,3.1,13.5,13.5,0,0,0-.1,1.4q0,9.1.1,18.1a1.9,1.9,0,0,1-.1.8c-.1.2-.3.3-.5.5s-.5-.3-.5-.5a2.6,2.6,0,0,1-.1-.9q0-8.5,0-16.9c0-1.5.1-2.9,0-4.4a3.7,3.7,0,0,0-5.2-3.1,3.2,3.2,0,0,0-2.3,3.3q0,11,0,22.1c0,.4-.4.8-.6,1.3a3.9,3.9,0,0,1-.5-1.3c0-3.1,0-6.2,0-9.2s0-7.1,0-10.7a3.6,3.6,0,0,0-4.1-3.6,3.4,3.4,0,0,0-3.3,3.6q0,10.3,0,20.7a3.5,3.5,0,0,1-.1,1.2,1,1,0,0,1-.7.4.8.8,0,0,1-.5-.5,4,4,0,0,1-.1-1.1c0-5.4,0-10.8,0-16.2a7.5,7.5,0,0,0-.3-2.1,3.5,3.5,0,0,0-3.5-2.4,3.5,3.5,0,0,0-3.9,3.9c0,10.6-.1,21.2,0,31.8,0,3,.5,5.9.8,8.9s2.1,6.6,3.4,9.9a8.3,8.3,0,0,1,.8,3q0,20.1,0,40.3h24.3q0-18.7,0-37.3A9.6,9.6,0,0,1,541.9,651.4Z" style="fill:#e09b7f"/><path d="M569.4,679.6,562,669l-12.2-17.5a4.5,4.5,0,0,1,1.6-6.8,5.8,5.8,0,0,1,7.6,1.6l2.9,4.1,3.6,5.1h.4q0-.7,0-1.4,0-15.1,0-30.2c0-3,0-6,0-9s1.9-3.8,4.3-3.8a4.1,4.1,0,0,1,4.4,3.6,15.7,15.7,0,0,1,.1,1.7q0,10.6-.1,21.2a2.3,2.3,0,0,0,.1.9c.1.2.4.4.6.6s.5-.3.6-.6a3,3,0,0,0,.1-1q0-9.9,0-19.8c0-1.7-.1-3.4,0-5.1a4.4,4.4,0,0,1,6.1-3.7,3.8,3.8,0,0,1,2.7,3.9q0,12.9,0,25.8c0,.5.4,1,.7,1.5a4.5,4.5,0,0,0,.6-1.5c.1-3.6,0-7.2,0-10.8s0-8.3,0-12.5,2.1-4.4,4.8-4.2a4,4,0,0,1,3.9,4.2q0,12.1,0,24.2a4.1,4.1,0,0,0,.1,1.4,1.1,1.1,0,0,0,.9.5.9.9,0,0,0,.6-.5,4.7,4.7,0,0,0,.1-1.3c0-6.3,0-12.6,0-18.9a8.8,8.8,0,0,1,.3-2.4,4.1,4.1,0,0,1,4-2.8c2.9,0,4.6,1.6,4.6,4.5,0,12.4.1,24.8,0,37.1,0,3.5-.6,6.9-.9,10.4s-2.4,7.7-3.9,11.5a9.8,9.8,0,0,0-.9,3.5c0,15.7,0,33.7,0,49.4H571.4c0-14.5,0-31.4,0-46A11.2,11.2,0,0,0,569.4,679.6Z" style="fill:#f4c3ae"/><path d="M352.1,681.5s4.5-9.8,4-16c0,0,1,9.2,0,12.4,0,0,2-3.6,3.2-4.4s-1.5,3.5-.9,5.8c0,0,3.6-.4,4.5-8.1,0,0,.2,7.5.8,9.2,0,0,2.4-8.3,3.6-9.8,0,0-.4,6,0,7.5a8.6,8.6,0,0,0,2.3-2.2s-1.7,3.2-.4,4.7a8.4,8.4,0,0,0,4-5.3s.2,4.1,1.3,6.2Z" style="fill:#d3de46"/><path d="M469.2,681.5s5.5-12,4.8-19.6c0,0,1.3,11.3.1,15.2,0,0,2.5-4.4,3.9-5.4s-1.8,4.3-1.2,7c0,0,4.4-.4,5.5-9.9,0,0,.2,9.2.9,11.3,0,0,3-10.1,4.4-12,0,0-.5,7.4,0,9.2a10.5,10.5,0,0,0,2.8-2.7s-2.1,3.9-.5,5.7a10.3,10.3,0,0,0,4.8-6.5s.2,5.1,1.6,7.6Z" style="fill:#d3de46"/><path d="M266.6,681.5s4.5-9.8,4-16c0,0,1,9.2,0,12.4,0,0,2-3.6,3.2-4.4s-1.5,3.5-.9,5.8c0,0,3.6-.4,4.5-8.1,0,0,.2,7.5.8,9.2,0,0,2.4-8.3,3.6-9.8,0,0-.4,6,0,7.5a8.6,8.6,0,0,0,2.3-2.2s-1.7,3.2-.4,4.7a8.4,8.4,0,0,0,4-5.3s.2,4.1,1.3,6.2Z" style="fill:#d3de46"/><path d="M105.4,681.5s4.5-9.8,4-16c0,0,1,9.2,0,12.4,0,0,2-3.6,3.2-4.4s-1.5,3.5-.9,5.8c0,0,3.6-.4,4.5-8.1,0,0,.2,7.5.8,9.2,0,0,2.4-8.3,3.6-9.8,0,0-.4,6,0,7.5a8.6,8.6,0,0,0,2.3-2.2s-1.7,3.2-.4,4.7a8.4,8.4,0,0,0,4-5.3s.2,4.1,1.3,6.2Z" style="fill:#d3de46"/><path d="M85.3,681.5s4.5-9.8,4-16c0,0,1,9.2,0,12.4,0,0,2-3.6,3.2-4.4s-1.5,3.5-.9,5.8c0,0,3.6-.4,4.5-8.1,0,0,.2,7.5.8,9.2,0,0,2.4-8.3,3.6-9.8,0,0-.4,6,0,7.5a8.6,8.6,0,0,0,2.3-2.2s-1.7,3.2-.4,4.7a8.4,8.4,0,0,0,4-5.3s.2,4.1,1.3,6.2Z" style="fill:#d3de46"/><path d="M148.4,681.5s4.5-9.8,4-16c0,0,1,9.2,0,12.4,0,0,2-3.6,3.2-4.4s-1.5,3.5-.9,5.8c0,0,3.6-.4,4.5-8.1,0,0,.2,7.5.8,9.2,0,0,2.4-8.3,3.6-9.8,0,0-.4,6,0,7.5a8.6,8.6,0,0,0,2.3-2.2s-1.7,3.2-.4,4.7a8.4,8.4,0,0,0,4-5.3s.2,4.1,1.3,6.2Z" style="fill:#d3de46"/><path d="M128.3,681.5s4.5-9.8,4-16c0,0,1,9.2,0,12.4,0,0,2-3.6,3.2-4.4s-1.5,3.5-.9,5.8c0,0,3.6-.4,4.5-8.1,0,0,.2,7.5.8,9.2,0,0,2.4-8.3,3.6-9.8,0,0-.4,6,0,7.5a8.6,8.6,0,0,0,2.3-2.2s-1.7,3.2-.4,4.7a8.4,8.4,0,0,0,4-5.3s.2,4.1,1.3,6.2Z" style="fill:#d3de46"/><path d="M441.2,681.5s5.5-12,4.8-19.6c0,0,1.3,11.3.1,15.2,0,0,2.5-4.4,3.9-5.4s-1.8,4.3-1.2,7c0,0,4.4-.4,5.5-9.9,0,0,.2,9.2.9,11.3,0,0,3-10.1,4.4-12,0,0-.5,7.4,0,9.2a10.5,10.5,0,0,0,2.8-2.7s-2.1,3.9-.5,5.7a10.3,10.3,0,0,0,4.8-6.5s.2,5.1,1.6,7.6Z" style="fill:#d3de46"/><ellipse cx="200.9" cy="336.8" rx="3.7" ry="0.4" style="fill:#647633"/><ellipse cx="209.6" cy="337.7" rx="5.5" ry="0.6" style="fill:#647633"/><path d="M211.2,299.2l7.2,4.2a2.8,2.8,0,0,1,1.4,2.4v8.4a2.8,2.8,0,0,1-1.4,2.4l-7.2,4.2a2.8,2.8,0,0,1-2.8,0l-7.2-4.2a2.8,2.8,0,0,1-1.4-2.4v-8.4a2.8,2.8,0,0,1,1.4-2.4l7.2-4.2A2.8,2.8,0,0,1,211.2,299.2Z" style="fill:#6e8c3b"/><path d="M210.6,298.1l7.2,4.2a2.8,2.8,0,0,1,1.4,2.4V313a2.8,2.8,0,0,1-1.4,2.4l-7.2,4.2a2.8,2.8,0,0,1-2.8,0l-7.2-4.2a2.8,2.8,0,0,1-1.4-2.4v-8.4a2.8,2.8,0,0,1,1.4-2.4l7.2-4.2A2.8,2.8,0,0,1,210.6,298.1Z" style="fill:#a3c23a"/><polygon points="209.6 307 209.5 310.6 205.7 305.9 209.5 311 208.5 337.7 210.5 337.7 209.9 316.4 211.6 310.6 209.9 314.5 209.6 307" style="fill:#967e2e"/><path d="M202.6,305.3l5.7,3.3a2.2,2.2,0,0,1,1.1,1.9V317a2.2,2.2,0,0,1-1.1,1.9l-5.7,3.3a2.2,2.2,0,0,1-2.2,0l-5.7-3.3a2.2,2.2,0,0,1-1.1-1.9v-6.6a2.2,2.2,0,0,1,1.1-1.9l5.7-3.3A2.2,2.2,0,0,1,202.6,305.3Z" style="fill:#bbbe3a"/><path d="M201.9,304.6l5.7,3.3a2.2,2.2,0,0,1,1.1,1.9v6.6a2.2,2.2,0,0,1-1.1,1.9l-5.7,3.3a2.2,2.2,0,0,1-2.2,0l-5.7-3.3a2.2,2.2,0,0,1-1.1-1.9v-6.6a2.2,2.2,0,0,1,1.1-1.9l5.7-3.3A2.2,2.2,0,0,1,201.9,304.6Z" style="fill:#d3de46"/><polygon points="200.5 313.2 200.4 315.9 197.5 312.3 200.4 316.3 199.7 336.9 201.2 336.9 200.8 320.4 202.1 315.9 200.8 319 200.5 313.2" style="fill:#967e2e"/><ellipse cx="253" cy="333.9" rx="8.9" ry="1.1" style="fill:#647633"/><ellipse cx="232.3" cy="338.3" rx="10.6" ry="1.3" style="fill:#647633"/><path d="M257.9,325.1s0,.7,0,.8a2.3,2.3,0,0,0,.4,1.3l-.2,6.7-.6.4v-7.1l-.7-.5V325Z" style="fill:#bb7f2d"/><polygon points="245.1 321.7 245.5 327.6 246.1 327.6 245.7 321.7 245.1 321.7" style="fill:#bb7f2d"/><polygon points="245.3 327.6 244.9 321.7 245.1 321.7 245.5 327.6 245.3 327.6" style="fill:#b06d29"/><polygon points="246.1 321.7 246.5 327.6 247.1 327.6 246.7 321.7 246.1 321.7" style="fill:#bb7f2d"/><polygon points="246.3 327.6 245.9 321.7 246.1 321.7 246.5 327.6 246.3 327.6" style="fill:#b06d29"/><polygon points="247.1 321.7 247.6 327.6 248.2 327.6 247.7 321.7 247.1 321.7" style="fill:#bb7f2d"/><polygon points="247.4 327.6 246.9 321.7 247.1 321.7 247.6 327.6 247.4 327.6" style="fill:#b06d29"/><polygon points="248.1 321.7 248.6 327.4 249.2 327.4 248.7 321.7 248.1 321.7" style="fill:#bb7f2d"/><polygon points="248.4 327.4 247.9 321.7 248.1 321.7 248.6 327.4 248.4 327.4" style="fill:#b06d29"/><polygon points="249.1 321.7 249.5 327.3 250.1 327.2 249.7 321.7 249.1 321.7" style="fill:#bb7f2d"/><polygon points="249.3 327.3 248.9 321.7 249.1 321.7 249.5 327.3 249.3 327.3" style="fill:#b06d29"/><polygon points="244.1 321.7 244.5 327.6 245.1 327.6 244.7 321.7 244.1 321.7" style="fill:#bb7f2d"/><polygon points="244.3 327.6 243.9 321.7 244.1 321.7 244.5 327.6 244.3 327.6" style="fill:#b06d29"/><path d="M250,319.9h.7a.5.5,0,0,1,.5.4c.1.5.4,6.5.4,6.5v6.4l-.7.2v-6.5l-.2-1.9v-1.2l-.3-3.3Z" style="fill:#bb7f2d"/><path d="M229.3,328.9l.5,1,3.5.6,23.8-2.4v-.4s-4.5-.3-5.1-.6Z" style="fill:#7f4d1f"/><path d="M256.5,323.6h1.2a2,2,0,0,1,.8,1.4h-.8Z" style="fill:#d19753"/><polygon points="250.8 323.7 251.5 323.7 255.6 323.6 254.7 324 251.2 324 250.8 323.7" style="fill:#d19753"/><polygon points="228.9 337.4 228.4 328.5 229.8 328.4 230.3 337.3 228.9 337.4" style="fill:#7f4d1f"/><polygon points="238.8 321.7 239.3 327.7 239.9 327.6 239.5 321.7 238.8 321.7" style="fill:#bb7f2d"/><polygon points="239.1 327.7 238.7 321.7 238.8 321.7 239.3 327.7 239.1 327.7" style="fill:#b06d29"/><polygon points="237.7 321.7 238.1 327.8 238.8 327.8 238.3 321.7 237.7 321.7" style="fill:#bb7f2d"/><polygon points="238 327.8 237.5 321.7 237.7 321.7 238.1 327.8 238 327.8" style="fill:#b06d29"/><polygon points="236.4 321.7 236.8 328 237.5 327.9 237.1 321.7 236.4 321.7" style="fill:#bb7f2d"/><polygon points="236.7 328 236.2 321.7 236.4 321.7 236.8 328 236.7 328" style="fill:#b06d29"/><polygon points="235.2 321.7 235.7 328 236.4 327.9 235.9 321.7 235.2 321.7" style="fill:#bb7f2d"/><polygon points="235.5 328 235.1 321.7 235.2 321.7 235.7 328 235.5 328" style="fill:#b06d29"/><polygon points="233.9 321.7 234.4 327.7 235.1 327.6 234.6 321.7 233.9 321.7" style="fill:#bb7f2d"/><polygon points="234.3 327.7 233.8 321.7 233.9 321.7 234.4 327.7 234.3 327.7" style="fill:#b06d29"/><polygon points="232.6 321.7 233.1 328.3 233.7 328.2 233.3 321.7 232.6 321.7" style="fill:#bb7f2d"/><polygon points="232.9 328.3 232.5 321.7 232.6 321.7 233.1 328.3 232.9 328.3" style="fill:#b06d29"/><polygon points="231.4 321.7 231.8 328.3 232.5 328.3 232.1 321.7 231.4 321.7" style="fill:#bb7f2d"/><polygon points="231.7 328.3 231.3 321.7 231.4 321.7 231.8 328.3 231.7 328.3" style="fill:#b06d29"/><polygon points="229.8 321.7 230.3 328.4 231.1 328.4 230.6 321.7 229.8 321.7" style="fill:#bb7f2d"/><polygon points="230.1 328.4 229.7 321.7 229.8 321.7 230.3 328.4 230.1 328.4" style="fill:#b06d29"/><line x1="239.9" y1="327.6" x2="239.5" y2="321.7" style="fill:#bb7f2d"/><line x1="238.8" y1="321.7" x2="239.3" y2="327.7" style="fill:#bb7f2d"/><line x1="238.8" y1="321.7" x2="239.3" y2="327.7" style="fill:#b06d29"/><polyline points="251 329.7 251 333.3 250.1 333.1 250.1 329.8" style="fill:#7f4d1f"/><path d="M250.1,329.8v-3.4l-.5-5.9s0-.6.4-.6a.5.5,0,0,1,.6.6l.3,3.3h4.2a8,8,0,0,1,1.7-.1,1.7,1.7,0,0,1,1.1,1.5h-.6s0,1.8.5,2.2v7.1l-1.1-.2v-6.5s-.5-.1-.4-2.5l-5.2-.2.2,1.9v2.9" style="fill:#b06d29"/><line x1="239.1" y1="327.7" x2="238.7" y2="321.7" style="fill:#b06d29"/><polygon points="239.9 321.7 240.4 327.7 241.1 327.6 240.6 321.7 239.9 321.7" style="fill:#bb7f2d"/><polygon points="240.3 327.7 239.8 321.7 239.9 321.7 240.4 327.7 240.3 327.7" style="fill:#b06d29"/><polygon points="241 321.7 241.5 327.7 242.2 327.6 241.7 321.7 241 321.7" style="fill:#bb7f2d"/><polygon points="241.3 327.7 240.9 321.7 241 321.7 241.5 327.7 241.3 327.7" style="fill:#b06d29"/><polygon points="242.1 321.7 242.6 327.7 243.2 327.6 242.8 321.7 242.1 321.7" style="fill:#bb7f2d"/><polygon points="242.4 327.7 242 321.7 242.1 321.7 242.6 327.7 242.4 327.7" style="fill:#b06d29"/><polygon points="243.1 321.7 243.5 327.6 244.1 327.6 243.7 321.7 243.1 321.7" style="fill:#bb7f2d"/><polygon points="243.3 327.6 243 321.7 243.1 321.7 243.5 327.6 243.3 327.6" style="fill:#b06d29"/><polygon points="228.4 328.5 251.7 326.7 252.3 326.9 229.2 328.9 228.4 328.5" style="fill:#d19753"/><polygon points="229.5 324.2 232.5 324.2 231.9 324.5 228.4 324.5 228 324.2 229.5 324.2" style="fill:#d19753"/><path d="M227.3,319.1H229s.1,0,.1.8l.3,4.3h-1.3Z" style="fill:#d19753"/><polygon points="229.2 319.9 250.2 320.4 250.3 321.8 238.6 321.7 229.3 321.7 229.2 319.9" style="fill:#bb7f2d"/><polygon points="229.6 326 229.8 328.4 228.4 328.5 228.1 326 229.6 326" style="fill:#d19753"/><polygon points="229.3 321.7 250.2 321.8 250.3 321.8 238.6 321.7 229.3 321.7 229.3 321.7" style="fill:#b06d29"/><path d="M233.3,323.9h1.8a2.3,2.3,0,0,1,1,2.1h-1.4Z" style="fill:#d19753"/><polygon points="229.2 335 229.2 335.7 233.9 337 233.9 336.2 229.2 335" style="fill:#7f4d1f"/><polygon points="233.9 335.9 230 334.9 229.2 335 233.9 336.2 233.9 335.9" style="fill:#d19753"/><polygon points="236.3 329.9 257.2 327.8 257.2 328.9 236.3 331.5 236.3 329.9" style="fill:#bb7f2d"/><path d="M229,329.4v1.2l4.9.8v-1.6A8.6,8.6,0,0,1,229,329.4Z" style="fill:#7f4d1f"/><polygon points="256.4 332.2 251.2 331.5 251.2 332 256.4 332.8 256.4 332.2" style="fill:#7f4d1f"/><polygon points="256.4 332.1 251.8 331.5 251.2 331.5 256.4 332.2 256.4 332.1" style="fill:#d19753"/><polygon points="229.3 328.9 252.5 327 253.2 327.2 229.9 329.1 229.3 328.9" style="fill:#d19753"/><polygon points="230 329.2 253.3 327.2 254.3 327.3 230.6 329.3 230 329.2" style="fill:#d19753"/><polygon points="230.7 329.4 254.4 327.3 255.7 327.4 232.1 329.5 230.7 329.4" style="fill:#d19753"/><polygon points="257.4 327.3 236.1 329.3 235.8 329.2 256.4 327.3 257.4 327.3" style="fill:#bb7f2d"/><polygon points="257.4 327.7 257.4 327.3 236.3 329.4 236.3 329.8 257.4 327.7" style="fill:#d19753"/><polygon points="229.2 328.9 229.2 329.3 228.5 329 228.4 328.6 229.2 328.9" style="fill:#b06d29"/><polygon points="229.3 328.9 229.3 329.3 229.9 329.6 229.9 329.1 229.3 328.9" style="fill:#b06d29"/><polygon points="230 329.2 230 329.6 230.6 329.7 230.6 329.3 230 329.2" style="fill:#b06d29"/><polygon points="230.7 329.4 230.7 329.8 231.4 329.9 231.4 329.5 230.7 329.4" style="fill:#b06d29"/><polygon points="231.5 329.9 231.5 329.5 232.2 329.5 232.2 329.9 231.5 329.9" style="fill:#b06d29"/><polygon points="232.3 329.5 232.3 329.9 232.9 329.9 232.9 329.4 232.3 329.5" style="fill:#b06d29"/><path d="M233,329.4v.4h.8v-.4Z" style="fill:#b06d29"/><path d="M236.3,329.1s-.7-.6-.7-3.2h-1.4l-.5,2.2,1.1,1,.3,10,1.5-.2Z" style="fill:#d19753"/><path d="M234,338.9v-9.2s-.6-.4-.7-3.7h-4.9l.6,11.5-.9-.2-.3-9.5-.6-7.8s0-.8.3-.8.5,0,.6,1.3l.3,3.8a31,31,0,0,0,3.5.1c.9-.2,1-.4,1.6-.4s1.4,1.2,1.5,2.2h-.6s-.2,2.1.6,3.1l.3,10Z" style="fill:#b06d29"/><path d="M252.7,427.5a15.5,15.5,0,0,1,5.9,0,15.5,15.5,0,0,1-5.9,0" style="fill:#687833"/><path d="M256.3,409.9l3.3,1.9a1.3,1.3,0,0,1,.6,1.1v3.8a1.3,1.3,0,0,1-.6,1.1l-3.3,1.9a1.3,1.3,0,0,1-1.3,0l-3.3-1.9a1.3,1.3,0,0,1-.6-1.1v-3.8a1.3,1.3,0,0,1,.6-1.1l3.3-1.9a1.3,1.3,0,0,1,1.3,0" style="fill:#728b3a"/><path d="M256.1,409.4l3.3,1.9a1.3,1.3,0,0,1,.6,1.1v3.8a1.3,1.3,0,0,1-.6,1.1l-3.3,1.9a1.3,1.3,0,0,1-1.3,0l-3.3-1.9a1.3,1.3,0,0,1-.6-1.1v-3.8a1.3,1.3,0,0,1,.6-1.1l3.3-1.9a1.3,1.3,0,0,1,1.3,0" style="fill:#93a43a"/><polygon points="255.6 413.5 255.5 415.2 253.8 413 255.5 415.3 255.1 427.5 256 427.5 255.8 417.8 256.5 415.2 255.7 416.9 255.6 413.5" style="fill:#9d802e"/><path d="M236.8,432.4c0-.2,2-.4,4.5-.4s4.5.2,4.5.4-2,.4-4.5.4-4.5-.2-4.5-.4" style="fill:#687833"/><path d="M242.4,405.6l5,2.9a1.9,1.9,0,0,1,1,1.7V416a1.9,1.9,0,0,1-1,1.7l-5,2.9a1.9,1.9,0,0,1-1.9,0l-5-2.9a1.9,1.9,0,0,1-1-1.7v-5.8a1.9,1.9,0,0,1,1-1.7l5-2.9a1.9,1.9,0,0,1,1.9,0" style="fill:#728b3a"/><path d="M242,404.9l5,2.9a1.9,1.9,0,0,1,1,1.7v5.8a1.9,1.9,0,0,1-1,1.7l-5,2.9a1.9,1.9,0,0,1-1.9,0l-5-2.9a1.9,1.9,0,0,1-1-1.7v-5.8a1.9,1.9,0,0,1,1-1.7l5-2.9a1.9,1.9,0,0,1,1.9,0" style="fill:#93a43a"/><polygon points="241.3 411.1 241.2 413.6 238.6 410.3 241.2 413.9 240.6 432.5 241.9 432.5 241.5 417.6 242.7 413.6 241.5 416.3 241.3 411.1" style="fill:#9d802e"/><path d="M259.2,428.7c0-.3,2.2-.5,4.9-.5s4.9.2,4.9.5-2.2.5-4.9.5-4.9-.2-4.9-.5" style="fill:#687833"/><path d="M265.3,399.5l5.5,3.2a2.1,2.1,0,0,1,1,1.8v6.3a2.1,2.1,0,0,1-1,1.8l-5.5,3.2a2.1,2.1,0,0,1-2.1,0l-5.5-3.2a2.1,2.1,0,0,1-1-1.8v-6.3a2.1,2.1,0,0,1,1-1.8l5.5-3.2a2.1,2.1,0,0,1,2.1,0" style="fill:#c4bf2f"/><path d="M264.8,398.7l5.5,3.2a2.1,2.1,0,0,1,1,1.8V410a2.1,2.1,0,0,1-1,1.8l-5.5,3.2a2.1,2.1,0,0,1-2.1,0l-5.5-3.2a2.1,2.1,0,0,1-1-1.8v-6.3a2.1,2.1,0,0,1,1-1.8l5.5-3.2a2.1,2.1,0,0,1,2.1,0" style="fill:#dbdc2b"/><polygon points="264.1 405.4 264 408.2 261.1 404.6 264 408.5 263.3 428.7 264.8 428.7 264.3 412.6 265.6 408.2 264.3 411.1 264.1 405.4" style="fill:#9d802e"/><path d="M170.7,423l3.2,1.8a1.2,1.2,0,0,1,.6,1v3.6a1.2,1.2,0,0,1-.6,1l-3.2,1.8a1.2,1.2,0,0,1-1.2,0l-3.2-1.8a1.2,1.2,0,0,1-.6-1v-3.6a1.2,1.2,0,0,1,.6-1l3.2-1.8a1.2,1.2,0,0,1,1.2,0" style="fill:#c4bf2f"/><path d="M170.7,421.1l3.6,2.1a1.4,1.4,0,0,1,.7,1.2v4.1a1.4,1.4,0,0,1-.7,1.2l-3.6,2.1a1.4,1.4,0,0,1-1.4,0l-3.6-2.1a1.4,1.4,0,0,1-.7-1.2v-4.1a1.4,1.4,0,0,1,.7-1.2l3.6-2.1a1.4,1.4,0,0,1,1.4,0" style="fill:#dbdc2b"/><path d="M163.9,426.4l3.2,1.8a1.2,1.2,0,0,1,.6,1v3.6a1.2,1.2,0,0,1-.6,1l-3.2,1.8a1.2,1.2,0,0,1-1.2,0l-3.2-1.8a1.2,1.2,0,0,1-.6-1v-3.6a1.2,1.2,0,0,1,.6-1l3.2-1.8a1.2,1.2,0,0,1,1.2,0" style="fill:#c4bf2f"/><path d="M163.9,424.5l3.6,2.1a1.4,1.4,0,0,1,.7,1.2v4.1a1.4,1.4,0,0,1-.7,1.2l-3.6,2.1a1.4,1.4,0,0,1-1.4,0l-3.6-2.1a1.4,1.4,0,0,1-.7-1.2v-4.1a1.4,1.4,0,0,1,.7-1.2l3.6-2.1a1.4,1.4,0,0,1,1.4,0" style="fill:#dbdc2b"/><rect x="164.6" y="433.3" width="5.1" height="3.22" style="fill:#728b3a"/><path d="M162.8,424l.7,1.3a.5.5,0,0,1,0,.5l-.8,1.3a.5.5,0,0,1-.4.2h-1.5a.5.5,0,0,1-.4-.3l-.7-1.3a.5.5,0,0,1,0-.5l.8-1.3a.5.5,0,0,1,.4-.2h1.5a.5.5,0,0,1,.4.3" style="fill:#728b3a"/><path d="M162.8,423.7l.7,1.3a.5.5,0,0,1,0,.5l-.8,1.3a.5.5,0,0,1-.4.2h-1.5a.5.5,0,0,1-.4-.3l-.8-1.3a.5.5,0,0,1,0-.5l.8-1.3a.5.5,0,0,1,.4-.2h1.5a.5.5,0,0,1,.4.3" style="fill:#93a43a"/><path d="M168.4,422.5l4.6,2.7a1.8,1.8,0,0,1,.9,1.5V432a1.8,1.8,0,0,1-.9,1.5l-4.6,2.7a1.8,1.8,0,0,1-1.8,0l-4.6-2.7a1.8,1.8,0,0,1-.9-1.5v-5.4a1.8,1.8,0,0,1,.9-1.5l4.6-2.7a1.8,1.8,0,0,1,1.8,0" style="fill:#728b3a"/><path d="M168,421.7l4.6,2.7a1.8,1.8,0,0,1,.9,1.5v5.4a1.8,1.8,0,0,1-.9,1.5l-4.6,2.7a1.8,1.8,0,0,1-1.8,0l-4.6-2.7a1.8,1.8,0,0,1-.9-1.5V426a1.8,1.8,0,0,1,.9-1.5l4.6-2.7a1.8,1.8,0,0,1,1.8,0" style="fill:#aac038"/><path d="M161.5,436.3c0-.2,2.6-.4,5.9-.4s5.9.2,5.9.4-2.6.4-5.9.4-5.9-.2-5.9-.4" style="fill:#687833"/><path d="M174.5,427.5l1.9,3.3a1.3,1.3,0,0,1,0,1.3l-1.9,3.3a1.3,1.3,0,0,1-1.1.6h-3.8a1.3,1.3,0,0,1-1.1-.6l-1.9-3.3a1.3,1.3,0,0,1,0-1.3l1.9-3.3a1.3,1.3,0,0,1,1.1-.6h3.8a1.3,1.3,0,0,1,1.1.6" style="fill:#728b3a"/><path d="M174.5,426.9l1.9,3.3a1.3,1.3,0,0,1,0,1.3l-1.9,3.3a1.3,1.3,0,0,1-1.1.6h-3.8a1.3,1.3,0,0,1-1.1-.6l-1.9-3.3a1.3,1.3,0,0,1,0-1.3l1.9-3.3a1.3,1.3,0,0,1,1.1-.6h3.8a1.3,1.3,0,0,1,1.1.6" style="fill:#93a43a"/><path d="M240,436.7s2.9-6.3,2.5-10.3c0,0,.7,5.9,0,8a14.3,14.3,0,0,1,2-2.9,7.4,7.4,0,0,0-.6,3.7s2.3-.2,2.9-5.2a42.5,42.5,0,0,0,.5,5.9s1.6-5.3,2.3-6.3a31.7,31.7,0,0,0,0,4.9,5.5,5.5,0,0,0,1.5-1.4s-1.1,2-.3,3a5.4,5.4,0,0,0,2.5-3.4,12,12,0,0,0,.8,4Z" style="fill:#d3de46"/><path d="M350.7,436.7s2.4-5.2,2.1-8.4c0,0,.5,4.9,0,6.5a11.7,11.7,0,0,1,1.7-2.3,6.1,6.1,0,0,0-.5,3s1.9-.2,2.4-4.3a34.7,34.7,0,0,0,.4,4.9,34.5,34.5,0,0,1,1.9-5.2,25.9,25.9,0,0,0,0,4,4.5,4.5,0,0,0,1.2-1.2s-.9,1.7-.2,2.5a4.4,4.4,0,0,0,2.1-2.8,9.8,9.8,0,0,0,.7,3.3Z" style="fill:#d3de46"/><path d="M340.1,436.7s2.4-5.2,2.1-8.4c0,0,.5,4.9,0,6.5a11.7,11.7,0,0,1,1.7-2.3,6.1,6.1,0,0,0-.5,3s1.9-.2,2.4-4.3a34.7,34.7,0,0,0,.4,4.9,34.5,34.5,0,0,1,1.9-5.2,25.9,25.9,0,0,0,0,4,4.5,4.5,0,0,0,1.2-1.2s-.9,1.7-.2,2.5a4.4,4.4,0,0,0,2.1-2.8,9.8,9.8,0,0,0,.7,3.3Z" style="fill:#d3de46"/><path d="M209.5,392.6h.3l.9,2,4.5,9.8a5.4,5.4,0,0,0,1.3,2.3c1.3,1,2.4,2.1,3.8,2.9a2.8,2.8,0,0,1,1.5,3.1H200.3a12.1,12.1,0,0,1-.1-1.2,1.5,1.5,0,0,1,.2-.9l3.5-3.9a4.6,4.6,0,0,0,.9-1.3Z" style="fill:#bae5fa"/><path d="M209.5,392.6l-4.7,12.7a4.6,4.6,0,0,1-.9,1.3l-3.5,3.9a1.5,1.5,0,0,0-.2.9,12.1,12.1,0,0,0,.1,1.2H185c-.5,0-.7-.2-.6-.6a1.7,1.7,0,0,0,0-.3.7.7,0,0,1,.6-.9l4.7-1.8,5.1-2,.8-.3a6,6,0,0,0,3-2.1l5.2-5.6,2.7-3,2.6-2.7Z" style="fill:#d7d8ba"/><path d="M221.7,412.6a2.8,2.8,0,0,0-1.5-3.1c-1.3-.9-2.5-1.9-3.8-2.9a5.4,5.4,0,0,1-1.3-2.3l-4.5-9.8-.9-2,.5.4,3.7,3.7,4.1,4.3c1.2,1.2,2.5,2.4,3.6,3.7a7.4,7.4,0,0,0,3.2,2l6.6,2.7,3.1,1.2a.6.6,0,0,1,.5.7c0,1.5,0,1.5-1.4,1.5h-4.8a1.1,1.1,0,0,0-1.5,0Z" style="fill:#f1f2dd"/><path d="M207.8,436.7H191.2c-.4,0-.6-.1-.6-.5s0-2.2,0-3.4l1.5-.2h14.6c0,.5,0,.8.6.7s.5.1.5.5,0,.8,0,1.1v1.7Z" style="fill:#795a3b"/><path d="M228.9,432.8c0,1.2,0,2.3,0,3.5s-.3.4-.6.4H211.7v-2.4h0v-.6h0c.2-.2.3-.5.5-.4s.7-.2.7-.7h14.6Z" style="fill:#795a3b"/><path d="M192.1,432.6l-1.5.2q0-4.5,0-9t0-11.4h1.5q0,4.8,0,9.5c0,1.5,0,2.9,0,4.4Z" style="fill:#c69666"/><path d="M228.9,432.8l-1.4-.2c0-1.5,0-2.9,0-4.4s0-1.3-.1-1.9a3,3,0,0,0,.1-.4q0-6.4,0-12.7a4.3,4.3,0,0,0-.1-.5,1.1,1.1,0,0,1,1.5,0c0,.3,0,.6,0,.9q0,9.3,0,18.5C228.9,432.3,228.9,432.5,228.9,432.8Z" style="fill:#c69666"/><path d="M211.7,435.6v1.1h-4v-1.2Z" style="fill:#c69666"/><path d="M192.6,426.4l6.9-.6h1.3c.5,0,.6-.2.6-.6,0-4.1,0-8.2,0-12.3h1.2q0,6.1,0,12.2c0,.9-.1.8.8.8h3.2v.9Z" style="fill:#a97f54"/><path d="M218.9,412.6c0,4,0,8.1,0,12.1,0,.6.1.8.8.9l7,.6H212.9v-.8H217c.6,0,.7-.1.7-.7,0-4.1,0-8.2,0-12.3Z" style="fill:#a97f54"/><path d="M192.6,426.4h14.1v6.2H192.1v-6.2Z" style="fill:#d7d8ba"/><path d="M206.7,432.6v-7h1.1v4.3c0,.3,0,.6,0,.9s.1.4.4.4h3.2l.4-.2c0-.4.2-.8-.2-1.1a2.2,2.2,0,0,0,.2-.6c0-1.2,0-2.5,0-3.7h1.2v7c0,.5-.1.8-.7.7s-.3.3-.5.4h0v.6h0v.5h-3.9c0-.4,0-.8,0-1.1s-.1-.5-.5-.5S206.6,433.1,206.7,432.6Zm5,0h-3.5c-.5,0-.6.1-.3.5h3.8Z" style="fill:#c69666"/><path d="M207.8,435h3.9v.7h-3.9Z" style="fill:#efdba0"/><path d="M212.9,432.6v-6.2h14.5c0,.6.1,1.3.1,1.9s0,2.9,0,4.4Z" style="fill:#f1f2dd"/><path d="M211.7,433.8h0Z" style="fill:#efdba0"/><path d="M211.7,434.3h0Z" style="fill:#efdba0"/><path d="M207.8,429.8v-4.3h3.9c0,1.2,0,2.5,0,3.7a2.2,2.2,0,0,1-.2.6Z" style="fill:#a97f54"/><path d="M207.8,429.8h3.8c.4.3.3.7.2,1.1l-.4.2h-3.2c-.3,0-.5-.1-.4-.4S207.8,430.1,207.8,429.8Z" style="fill:#efdba0"/><path d="M207.9,433.1c-.2-.4-.2-.5.3-.5h3.5v.4h-3.8Z" style="fill:#efdba0"/><path d="M211.7,432.6h0Z" style="fill:#cdb67e"/><path d="M207.9,433.1h0Z" style="fill:#cdb67e"/><path d="M211.4,433.1h0Z" style="fill:#cdb67e"/><path d="M177.2,436.7s2.9-6.3,2.5-10.3c0,0,.7,5.9,0,8a14.3,14.3,0,0,1,2-2.9,7.4,7.4,0,0,0-.6,3.7s2.3-.2,2.9-5.2a42.5,42.5,0,0,0,.5,5.9s1.6-5.3,2.3-6.3a31.7,31.7,0,0,0,0,4.9,5.5,5.5,0,0,0,1.5-1.4s-1.1,2-.3,3a5.4,5.4,0,0,0,2.5-3.4,12,12,0,0,0,.8,4Z" style="fill:#d3de46"/><path d="M227.1,436.7s2.9-6.3,2.5-10.3c0,0,.7,5.9,0,8a14.3,14.3,0,0,1,2-2.9,7.4,7.4,0,0,0-.6,3.7s2.3-.2,2.9-5.2a42.5,42.5,0,0,0,.5,5.9s1.6-5.3,2.3-6.3a31.7,31.7,0,0,0,0,4.9,5.5,5.5,0,0,0,1.5-1.4s-1.1,2-.3,3a5.4,5.4,0,0,0,2.5-3.4,12,12,0,0,0,.8,4Z" style="fill:#d3de46"/><path d="M381.5,427l.3.2h0c.4.3.4.5.2.8l-.2.2A1.4,1.4,0,0,1,381.5,427Z" style="fill:#343230"/><path d="M364.2,434.8a4.3,4.3,0,0,1,4.3-.3,7.7,7.7,0,0,0,4.1.3l1.5-.2c.4-.1.6.1.6.4v.2H363.8l.2-.2Z" style="fill:none"/><path d="M363.6,435.4a.7.7,0,0,0,.3.9c.4.3.4.6,0,.8a.8.8,0,0,1-1.2-.7c0-.4-.1-.8-.1-1.2h1.2Z" style="fill:#b36a36"/><path d="M375.9,435.9a.6.6,0,0,1,.2.5.7.7,0,0,1-.5.4.8.8,0,0,1-.9-.8v-.8h.7C375.4,435.4,375.5,435.6,375.9,435.9Z" style="fill:#b36a36"/><path d="M360.1,428.5l.4.3,1.8,1.3a2.3,2.3,0,0,0,2.6,0,3.6,3.6,0,0,1,1.5-.5h2a14.1,14.1,0,0,0,4.7-.1,2.6,2.6,0,0,0,2.1-1.8l.7-1.7a2.2,2.2,0,0,1,2.3-1.5,2,2,0,0,1,1.7.8,8.1,8.1,0,0,0,1.1,1.2l.5.4a1.4,1.4,0,0,0,.3,1.2h-.1l-.7.2c-1.6-.8-3.5-1.7-3.3.4s-.6,3.5-1,5l-.9.8-.3.5h-.7v-.2c0-.4-.2-.5-.6-.4l-1.5.2a7.7,7.7,0,0,1-4.1-.3,4.3,4.3,0,0,0-4.3.3H364l-.2.2h-1.2v-.5c0-.3,0-.7.2-.8a3.4,3.4,0,0,0,1-2c.1-.4,0-.5-.3-.6a7.3,7.3,0,0,1-3.4-2.6v-.2Z" style="fill:#2c1d15"/><path d="M377.7,428.8c-.2-2.1,3.1-1.4,3.3-.4a1.2,1.2,0,0,1-1.1.2c-.4-.1-.8-.1-.8.5a.5.5,0,0,1-.3.4c-.6.3-.6.8-.5,1.3a3,3,0,0,1-1.4,2.9l-.2.2C377.1,432.3,377.9,430.4,377.7,428.8Z" style="fill:#b36a36"/><path d="M377.7,426a1,1,0,0,0-1.6.5c-.1.6-.7,3.9,1.5,3.5s1.2-1.8.9-2.1A10.2,10.2,0,0,1,377.7,426Z" style="fill:#b36a36"/><path d="M377.8,425.9a1,1,0,0,0-1.6.5c-.1.6-.7,3.9,1.5,3.5s1.2-1.8.9-2.1A10.2,10.2,0,0,1,377.8,425.9Z" style="fill:#2c1d15"/><path d="M200.5,235.7l.2-.8-.5-1.2h-.3l-.4.9h0l.6-.2Z" style="fill:#343230"/><path d="M198.9,234.5v0Z" style="fill:#343230"/><path d="M199.1,234.8l.2.2v-.3h-.3Z" style="fill:#343230"/><path d="M217.7,245.1c-2-2.7-5-3.5-8.1-3.9l-3.2-.6a6.5,6.5,0,0,1-4.2-2.6,7.5,7.5,0,0,0-1.3,4.5c0,.9.3,1.5,1.3,1.6s1.5-.3,2.1.4l.8.8c2.1,1.8,4.3,3.1,7.3,2l2.3-1.7a2.7,2.7,0,0,1,2.7-.3Z" style="fill:#2c1d15"/><path d="M202.3,244.1c-1,0-1.3-.7-1.3-1.6a7.5,7.5,0,0,1,1.3-4.5l-1.2-2a2.4,2.4,0,0,1-.3.8l-2.5,2.5c1.1,1,.6,1.9.1,2.9l2.1,3.9,1.3,2.7.5.8.2.5h-.2v-.6l-.5-.8-1.1-.5c.2,1.3.5,2.5.7,3.8s.2,2.7-1.1,3.7-.2.4-.3.7,2.4.5,3.8.5l1-2.8c.2-1.3-.8-3,.8-4.2a8,8,0,0,0-2-4.2A14.5,14.5,0,0,1,202.3,244.1Z" style="fill:#b36a36"/><path d="M217.4,245.4a2.7,2.7,0,0,0-2.7.3l-2.3,1.7.9.6c1.9.8,3.4,2,3.9,4.1l1,.6A3.1,3.1,0,0,1,220,255l-1,1.7c1.4.4,1.8.3,2.3-.5s-.1-2.5,0-3.5a1.7,1.7,0,0,0-1-1.9l-1-1-.8-3.1-.4-1.1h0Z" style="fill:#b36a36"/><path d="M217.2,252.1c-.5-2.2-1.9-3.3-3.9-4.1l-.9-.6c-2.9,1.1-5.2-.2-7.3-2h-.7v-.8c-.6-.7-1.4-.5-2.1-.4a14.5,14.5,0,0,0,1.2,1.5,8,8,0,0,1,2,4.2h6.6c.9-.7,1.7-.1,2.4.4l2.4,1.9Z" style="fill:#cd7e4a"/><path d="M198.3,242.1c.5-.9,1-1.9-.1-2.9l2.5-2.5a2.4,2.4,0,0,0,.3-.8l-.4-1-.2.8a.8.8,0,0,1-1.2.4v-1.2l-.2-.2H199v-.2l-.4-.6-.3.2-.4,2c-1.3.8-1.5,3.1-3.6,2.6.3,1.8.2,2.1,3.7,2.4l.4,1.2Z" style="fill:#2c1d15"/><path d="M216.8,252.2l-2.4-1.9c-.7-.5-1.4-1.2-2.4-.4s1.5,2.7,2.9,3.4a2.5,2.5,0,0,1-.9,2.5l.3.8h1.1l.3-.3,2.1-2.5-.2-.2-.6-1.2A.4.4,0,0,1,216.8,252.2Z" style="fill:#895a36"/><path d="M218.4,246.7l.8,3.1,1.3.4,4.6.2a10.3,10.3,0,0,1-5.6-3Z" style="fill:#895a36"/><path d="M198.3,242.1h-.1a15.6,15.6,0,0,0,.4,2.3,12.8,12.8,0,0,0,1,2.2l1,1.6,1.1.5h0l-1.3-2.7Z" style="fill:#ae804e"/><path d="M219.6,247.5a10.3,10.3,0,0,0,5.6,3l.8-.2-6-2.8Z" style="fill:#2c1d15"/><path d="M215.4,256.6h-1.1l-.3-.8-1.1.6A1.6,1.6,0,0,0,215.4,256.6Z" style="fill:#926542"/><path d="M219.6,247.5h.4l-2-1.9.4,1.1Z" style="fill:#62412f"/><path d="M220.6,250.3l-1.3-.4,1,1Z" style="fill:#eedfd2"/><path d="M216.8,252.2a.4.4,0,0,0,.1.2l1.3.3-1-.6Z" style="fill:#ae806a"/><path d="M217.4,245.4l.6.2-.3-.4Z" style="fill:#62412f"/><path d="M215.6,256.3l-.3.3Z" style="fill:#926542"/><path d="M204.4,244.5v.8h.7Z" style="fill:#ae806a"/><path d="M202.3,249.5l-.5-.8h0l.5.8Z" style="fill:#ae804e"/><path d="M202.3,249.5v.6h.2l-.2-.5Z" style="fill:#cd7e4a"/><path d="M199.4,234.7v1.4a.8.8,0,0,0,1.2-.4l-.4-1.2Z" style="fill:#895a36"/><path d="M204.1,257.3s2.6-5.7,2.3-9.3c0,0,.6,5.4,0,7.2a12.8,12.8,0,0,1,1.8-2.6,6.7,6.7,0,0,0-.5,3.3s2.1-.2,2.6-4.7a38.3,38.3,0,0,0,.4,5.4s1.4-4.8,2.1-5.7a28.5,28.5,0,0,0,0,4.4,5,5,0,0,0,1.3-1.3s-1,1.8-.2,2.7a4.9,4.9,0,0,0,2.3-3.1,10.8,10.8,0,0,0,.8,3.6Z" style="fill:#d3de46"/><path d="M192.5,257.3s2.6-5.7,2.3-9.3c0,0,.6,5.4,0,7.2a12.8,12.8,0,0,1,1.8-2.6,6.7,6.7,0,0,0-.5,3.3s2.1-.2,2.6-4.7a38.3,38.3,0,0,0,.4,5.4s1.4-4.8,2.1-5.7a28.5,28.5,0,0,0,0,4.4,5,5,0,0,0,1.3-1.3s-1,1.8-.2,2.7a4.9,4.9,0,0,0,2.3-3.1,10.8,10.8,0,0,0,.8,3.6Z" style="fill:#d3de46"/><path d="M229.1,257.3s2.6-5.7,2.3-9.3c0,0,.6,5.4,0,7.2a12.8,12.8,0,0,1,1.8-2.6,6.7,6.7,0,0,0-.5,3.3s2.1-.2,2.6-4.7a38.3,38.3,0,0,0,.4,5.4s1.4-4.8,2.1-5.7a28.5,28.5,0,0,0,0,4.4,5,5,0,0,0,1.3-1.3s-1,1.8-.2,2.7a4.9,4.9,0,0,0,2.3-3.1,10.8,10.8,0,0,0,.8,3.6Z" style="fill:#d3de46"/><path d="M217.4,257.3s2.6-5.7,2.3-9.3c0,0,.6,5.4,0,7.2a12.8,12.8,0,0,1,1.8-2.6,6.7,6.7,0,0,0-.5,3.3s2.1-.2,2.6-4.7a38.3,38.3,0,0,0,.4,5.4s1.4-4.8,2.1-5.7a28.5,28.5,0,0,0,0,4.4,5,5,0,0,0,1.3-1.3s-1,1.8-.2,2.7a4.9,4.9,0,0,0,2.3-3.1,10.8,10.8,0,0,0,.8,3.6Z" style="fill:#d3de46"/><path d="M353.8,257.1s2.8-6.1,2.5-10c0,0,.7,5.8,0,7.8a13.9,13.9,0,0,1,2-2.8,7.2,7.2,0,0,0-.6,3.6s2.3-.2,2.8-5.1a41.3,41.3,0,0,0,.5,5.8s1.5-5.2,2.2-6.1a30.8,30.8,0,0,0,0,4.7,5.4,5.4,0,0,0,1.4-1.4s-1.1,2-.3,2.9a5.3,5.3,0,0,0,2.5-3.3,11.7,11.7,0,0,0,.8,3.9Z" style="fill:#d3de46"/><path d="M341.2,257.1s2.8-6.1,2.5-10c0,0,.7,5.8,0,7.8a13.9,13.9,0,0,1,2-2.8,7.2,7.2,0,0,0-.6,3.6s2.3-.2,2.8-5.1a41.3,41.3,0,0,0,.5,5.8s1.5-5.2,2.2-6.1a30.8,30.8,0,0,0,0,4.7,5.4,5.4,0,0,0,1.4-1.4s-1.1,2-.3,2.9a5.3,5.3,0,0,0,2.5-3.3,11.7,11.7,0,0,0,.8,3.9Z" style="fill:#d3de46"/><path d="M380.7,257.1s2.8-6.1,2.5-10c0,0,.7,5.8,0,7.8a13.9,13.9,0,0,1,2-2.8,7.2,7.2,0,0,0-.6,3.6s2.3-.2,2.8-5.1a41.3,41.3,0,0,0,.5,5.8s1.5-5.2,2.2-6.1a30.8,30.8,0,0,0,0,4.7,5.4,5.4,0,0,0,1.4-1.4s-1.1,2-.3,2.9a5.3,5.3,0,0,0,2.5-3.3,11.7,11.7,0,0,0,.8,3.9Z" style="fill:#d3de46"/><path d="M368.1,257.1s2.8-6.1,2.5-10c0,0,.7,5.8,0,7.8a13.9,13.9,0,0,1,2-2.8,7.2,7.2,0,0,0-.6,3.6s2.3-.2,2.8-5.1a41.3,41.3,0,0,0,.5,5.8s1.5-5.2,2.2-6.1a30.8,30.8,0,0,0,0,4.7,5.4,5.4,0,0,0,1.4-1.4s-1.1,2-.3,2.9a5.3,5.3,0,0,0,2.5-3.3,11.7,11.7,0,0,0,.8,3.9Z" style="fill:#d3de46"/></svg>