<?xml version="1.0" encoding="utf-8"?>
<!-- Generator: Adobe Illustrator 21.0.0, SVG Export Plug-In . SVG Version: 6.00 Build 0)  -->
<svg version="1.1" xmlns="http://www.w3.org/2000/svg" xmlns:xlink="http://www.w3.org/1999/xlink" x="0px" y="0px"
	 viewBox="0 0 1097.7 154.1" style="enable-background:new 0 0 1097.7 154.1;" xml:space="preserve">
<style type="text/css">
	.st0{fill:#F8F8F8;}
	.st1{fill:#FFFFFF;}
	.st2{fill:#8EA43B;}
	.st3{fill:#6E8C3B;}
	.st4{fill:#A3C23A;}
	.st5{fill:#967E2E;}
	.st6{fill:#687833;}
	.st7{fill:#C4BF2F;}
	.st8{fill:#DBDC2B;}
	.st9{fill:#9D802E;}
	.st10{fill:#BBBE3A;}
	.st11{fill:#D3DE46;}
	.st12{fill:#647633;}
	.st13{fill:#808080;}
	.st14{fill:#A3C23B;}
	.st15{fill:#4D4D4D;}
	.st16{fill:#DBD2BF;}
	.st17{fill:#C6C4C7;}
	.st18{fill:#99989A;}
	.st19{fill:#728B3A;}
	.st20{fill:#93A43A;}
	.st21{fill:#AAC038;}
	.st22{fill:#343230;}
	.st23{fill:#2C1D15;}
	.st24{fill:#B36A36;}
	.st25{fill:#CD7E4A;}
	.st26{fill:#895A36;}
	.st27{fill:#AE804E;}
	.st28{fill:#926542;}
	.st29{fill:#62412F;}
	.st30{fill:#EEDFD2;}
	.st31{fill:#AE806A;}
	.st32{fill:#F2AD58;}
	.st33{fill:#2AA9E0;}
	.st34{fill:#BAE5FA;}
	.st35{fill:#221F1F;}
	.st36{fill:#C0D72F;stroke:#C0D72F;stroke-width:0.1712;stroke-miterlimit:3.8637;}
	.st37{fill:#FFFFFF;stroke:#C0D72F;stroke-width:0.1712;stroke-miterlimit:3.8637;}
	.st38{fill:#231F20;}
	.st39{fill-rule:evenodd;clip-rule:evenodd;fill:#231F20;}
	.st40{fill:#A6A8AB;}
	.st41{fill-rule:evenodd;clip-rule:evenodd;fill:#A6A8AB;}
	.st42{fill:#58595B;}
	.st43{fill-rule:evenodd;clip-rule:evenodd;fill:#58595B;}
	.st44{fill:#F3F3F3;}
	.st45{fill:#C3C3C3;}
	.st46{fill:#1E8FC8;}
	.st47{fill:#59595C;}
	.st48{fill:#6B6B6B;}
	.st49{fill:#E8E7E7;}
	.st50{fill:#919395;}
	.st51{fill:#BABCBE;}
	.st52{fill:#707171;}
	.st53{fill:#C8BB9E;}
	.st54{fill:#A6A7AA;}
	.st55{fill:#14615D;}
	.st56{fill:#414141;}
	.st57{fill:#A4C3CC;}
	.st58{fill:#054D47;}
	.st59{fill:#CFD1D2;}
	.st60{fill:#1F302D;}
	.st61{fill:#494C4C;}
	.st62{fill:#97752C;}
	.st63{fill:#B48F2E;}
	.st64{fill:#07736E;}
	.st65{fill:#068984;}
	.st66{fill:#02B1A8;}
	.st67{fill:#A37B2C;}
	.st68{fill:#1D1E1E;}
	.st69{fill:#D5D5D5;}
	.st70{fill:#6D6F70;}
	.st71{fill:#BB7F2D;}
	.st72{fill:#B06D29;}
	.st73{fill:#7F4D1F;}
	.st74{fill:#D19753;}
	.st75{fill:#868686;}
	.st76{fill:#BFBEBE;}
	.st77{fill:#4A4A4A;}
	.st78{fill:#845D2B;}
	.st79{fill:#C69666;}
	.st80{fill:#F1F2DD;}
	.st81{fill:#579C44;}
	.st82{fill:#6D6E70;}
	.st83{fill:#D7D8BA;}
	.st84{fill:#795A3B;}
	.st85{fill:#A97F54;}
	.st86{fill:#EFDBA0;}
	.st87{fill:#CDB67E;}
	.st88{fill:none;}
	.st89{fill:#D15927;}
	.st90{fill:#F3F5F2;}
	.st91{fill:url(#SVGID_1_);}
	.st92{fill:url(#SVGID_2_);}
	.st93{fill:url(#SVGID_3_);}
	.st94{fill:#A6C0CE;}
	.st95{fill:#2D495F;}
	.st96{fill:#E0E6E4;}
	.st97{fill:#DDE2DE;}
	.st98{fill:#C7C7C5;}
	.st99{fill:#BDBDBD;}
	.st100{fill:#304850;}
	.st101{fill:none;stroke:#B8BAD3;stroke-width:5.399;stroke-miterlimit:10;}
	.st102{fill:#EBD329;}
	.st103{fill:none;stroke:#525870;stroke-width:2.126;stroke-miterlimit:10;}
	.st104{fill:#525870;}
	.st105{fill:url(#SVGID_4_);}
	.st106{fill:url(#SVGID_5_);}
	.st107{fill:url(#SVGID_6_);}
	.st108{fill:none;stroke:#B8BAD3;stroke-width:1.7246;stroke-miterlimit:10;}
	.st109{fill:none;stroke:#525870;stroke-width:0.6791;stroke-miterlimit:10;}
	.st110{fill:url(#SVGID_7_);}
	.st111{fill:url(#SVGID_8_);}
	.st112{fill:url(#SVGID_9_);}
	.st113{fill:url(#SVGID_10_);}
	.st114{fill:url(#SVGID_11_);}
	.st115{fill:url(#SVGID_12_);}
	.st116{fill:url(#SVGID_13_);}
	.st117{fill:url(#SVGID_14_);}
	.st118{fill:url(#SVGID_15_);}
	.st119{fill:none;stroke:#B8BAD3;stroke-width:0.9425;stroke-miterlimit:10;}
	.st120{fill:none;stroke:#525870;stroke-width:0.3711;stroke-miterlimit:10;}
	.st121{fill:url(#SVGID_16_);}
	.st122{fill:url(#SVGID_17_);}
	.st123{fill:url(#SVGID_18_);}
	.st124{fill:none;stroke:#B8BAD3;stroke-width:0.8179;stroke-miterlimit:10;}
	.st125{fill:none;stroke:#525870;stroke-width:0.3221;stroke-miterlimit:10;}
	.st126{fill:url(#SVGID_19_);}
	.st127{fill:url(#SVGID_20_);}
	.st128{fill:url(#SVGID_21_);}
	.st129{fill:none;stroke:#B8BAD3;stroke-width:2.6982;stroke-miterlimit:10;}
	.st130{fill:none;stroke:#525870;stroke-width:1.0625;stroke-miterlimit:10;}
	.st131{fill:url(#SVGID_22_);}
	.st132{fill:url(#SVGID_23_);}
	.st133{fill:url(#SVGID_24_);}
	.st134{fill:url(#SVGID_25_);}
	.st135{fill:url(#SVGID_26_);}
	.st136{fill:url(#SVGID_27_);}
	.st137{fill:none;stroke:#B8BAD3;stroke-width:0.3764;stroke-miterlimit:10;}
	.st138{fill:none;stroke:#525870;stroke-width:0.1482;stroke-miterlimit:10;}
	.st139{fill:url(#SVGID_28_);}
	.st140{fill:url(#SVGID_29_);}
	.st141{fill:url(#SVGID_30_);}
	.st142{fill:none;stroke:#B8BAD3;stroke-width:0.6909;stroke-miterlimit:10;}
	.st143{fill:none;stroke:#525870;stroke-width:0.2721;stroke-miterlimit:10;}
	.st144{fill:url(#SVGID_31_);}
	.st145{fill:url(#SVGID_32_);}
	.st146{fill:url(#SVGID_33_);}
	.st147{fill:none;stroke:#B8BAD3;stroke-width:0.8831;stroke-miterlimit:10;}
	.st148{fill:none;stroke:#525870;stroke-width:0.3478;stroke-miterlimit:10;}
	.st149{fill:url(#SVGID_34_);}
	.st150{fill:url(#SVGID_35_);}
	.st151{fill:url(#SVGID_36_);}
	.st152{fill:none;stroke:#B8BAD3;stroke-width:3.1936;stroke-miterlimit:10;}
	.st153{fill:none;stroke:#525870;stroke-width:1.2576;stroke-miterlimit:10;}
	.st154{fill:url(#SVGID_37_);}
	.st155{fill:url(#SVGID_38_);}
	.st156{fill:url(#SVGID_39_);}
	.st157{fill:none;stroke:#B8BAD3;stroke-width:3.4857;stroke-miterlimit:10;}
	.st158{fill:none;stroke:#525870;stroke-width:1.3726;stroke-miterlimit:10;}
	.st159{fill:url(#SVGID_40_);}
	.st160{fill:url(#SVGID_41_);}
	.st161{fill:url(#SVGID_42_);}
	.st162{fill:none;stroke:#B8BAD3;stroke-width:2.3124;stroke-miterlimit:10;}
	.st163{fill:none;stroke:#525870;stroke-width:0.9106;stroke-miterlimit:10;}
	.st164{fill:url(#SVGID_43_);}
	.st165{fill:url(#SVGID_44_);}
	.st166{fill:url(#SVGID_45_);}
	.st167{fill:none;stroke:#B8BAD3;stroke-width:0.5996;stroke-miterlimit:10;}
	.st168{fill:none;stroke:#525870;stroke-width:0.2361;stroke-miterlimit:10;}
	.st169{fill:url(#SVGID_46_);}
	.st170{fill:url(#SVGID_47_);}
	.st171{fill:url(#SVGID_48_);}
	.st172{fill:url(#SVGID_49_);}
	.st173{fill:url(#SVGID_50_);}
	.st174{fill:url(#SVGID_51_);}
	.st175{fill:none;stroke:#B8BAD3;stroke-width:1.0791;stroke-miterlimit:10;}
	.st176{fill:none;stroke:#525870;stroke-width:0.4249;stroke-miterlimit:10;}
	.st177{fill:url(#SVGID_52_);}
	.st178{fill:url(#SVGID_53_);}
	.st179{fill:url(#SVGID_54_);}
	.st180{fill:url(#SVGID_55_);}
	.st181{fill:url(#SVGID_56_);}
	.st182{fill:url(#SVGID_57_);}
	.st183{fill:url(#SVGID_58_);}
	.st184{fill:url(#SVGID_59_);}
	.st185{fill:url(#SVGID_60_);}
	.st186{fill:none;stroke:#B8BAD3;stroke-width:0.5897;stroke-miterlimit:10;}
	.st187{fill:none;stroke:#525870;stroke-width:0.2322;stroke-miterlimit:10;}
	.st188{fill:url(#SVGID_61_);}
	.st189{fill:url(#SVGID_62_);}
	.st190{fill:url(#SVGID_63_);}
	.st191{fill:none;stroke:#B8BAD3;stroke-width:0.5117;stroke-miterlimit:10;}
	.st192{fill:none;stroke:#525870;stroke-width:0.2015;stroke-miterlimit:10;}
	.st193{fill:url(#SVGID_64_);}
	.st194{fill:url(#SVGID_65_);}
	.st195{fill:url(#SVGID_66_);}
	.st196{fill:none;stroke:#B8BAD3;stroke-width:1.6882;stroke-miterlimit:10;}
	.st197{fill:none;stroke:#525870;stroke-width:0.6648;stroke-miterlimit:10;}
	.st198{fill:url(#SVGID_67_);}
	.st199{fill:url(#SVGID_68_);}
	.st200{fill:url(#SVGID_69_);}
	.st201{fill:url(#SVGID_70_);}
	.st202{fill:url(#SVGID_71_);}
	.st203{fill:url(#SVGID_72_);}
	.st204{fill:none;stroke:#B8BAD3;stroke-width:0.2355;stroke-miterlimit:10;}
	.st205{fill:none;stroke:#525870;stroke-width:9.274184e-02;stroke-miterlimit:10;}
	.st206{fill:url(#SVGID_73_);}
	.st207{fill:url(#SVGID_74_);}
	.st208{fill:url(#SVGID_75_);}
	.st209{fill:none;stroke:#B8BAD3;stroke-width:0.4323;stroke-miterlimit:10;}
	.st210{fill:none;stroke:#525870;stroke-width:0.1702;stroke-miterlimit:10;}
	.st211{fill:url(#SVGID_76_);}
	.st212{fill:url(#SVGID_77_);}
	.st213{fill:url(#SVGID_78_);}
	.st214{fill:none;stroke:#B8BAD3;stroke-width:0.5526;stroke-miterlimit:10;}
	.st215{fill:none;stroke:#525870;stroke-width:0.2176;stroke-miterlimit:10;}
	.st216{fill:url(#SVGID_79_);}
	.st217{fill:url(#SVGID_80_);}
	.st218{fill:url(#SVGID_81_);}
	.st219{fill:none;stroke:#B8BAD3;stroke-width:1.9982;stroke-miterlimit:10;}
	.st220{fill:none;stroke:#525870;stroke-width:0.7868;stroke-miterlimit:10;}
	.st221{fill:url(#SVGID_82_);}
	.st222{fill:url(#SVGID_83_);}
	.st223{fill:url(#SVGID_84_);}
	.st224{fill:none;stroke:#B8BAD3;stroke-width:2.1809;stroke-miterlimit:10;}
	.st225{fill:none;stroke:#525870;stroke-width:0.8588;stroke-miterlimit:10;}
	.st226{fill:url(#SVGID_85_);}
	.st227{fill:url(#SVGID_86_);}
	.st228{fill:url(#SVGID_87_);}
	.st229{fill:none;stroke:#B8BAD3;stroke-width:1.4468;stroke-miterlimit:10;}
	.st230{fill:none;stroke:#525870;stroke-width:0.5697;stroke-miterlimit:10;}
	.st231{fill:url(#SVGID_88_);}
	.st232{fill:url(#SVGID_89_);}
	.st233{fill:url(#SVGID_90_);}
	.st234{fill:none;stroke:#B8BAD3;stroke-width:0.3752;stroke-miterlimit:10;}
	.st235{fill:none;stroke:#525870;stroke-width:0.1477;stroke-miterlimit:10;}
	.st236{fill:url(#SVGID_91_);}
	.st237{fill:url(#SVGID_92_);}
	.st238{fill:url(#SVGID_93_);}
	.st239{fill:url(#SVGID_94_);}
	.st240{fill:url(#SVGID_95_);}
	.st241{fill:url(#SVGID_96_);}
	.st242{fill:none;stroke:#B8BAD3;stroke-width:2.8488;stroke-miterlimit:10;}
	.st243{fill:none;stroke:#525870;stroke-width:1.1218;stroke-miterlimit:10;}
	.st244{fill:none;stroke:#6D6E71;stroke-width:5.8303;stroke-linecap:round;stroke-linejoin:round;stroke-miterlimit:10;}
	.st245{fill:#C1272D;}
	.st246{fill:none;stroke:#FFFFFF;stroke-width:0.7087;stroke-miterlimit:10;}
	.st247{fill:#F8F8F8;stroke:#6D6E71;stroke-width:1.4173;stroke-miterlimit:10;}
	.st248{fill:#FFFFFF;stroke:#ADADAD;stroke-width:1.1326;stroke-miterlimit:10;}
	.st249{fill:#AAAAAA;}
	.st250{fill:#9B9B9B;}
	.st251{fill:url(#SVGID_97_);}
	.st252{fill:url(#SVGID_98_);}
	.st253{fill:url(#SVGID_99_);}
	.st254{fill:url(#SVGID_100_);}
	.st255{fill:url(#SVGID_101_);}
	.st256{fill:url(#SVGID_102_);}
	.st257{fill:url(#SVGID_103_);}
	.st258{fill:url(#SVGID_104_);}
	.st259{fill:url(#SVGID_105_);}
	.st260{fill:url(#SVGID_106_);}
	.st261{fill:url(#SVGID_107_);}
	.st262{fill:url(#SVGID_108_);}
	.st263{fill:url(#SVGID_109_);}
	.st264{fill:url(#SVGID_110_);}
	.st265{fill:url(#SVGID_111_);}
	.st266{fill:url(#SVGID_112_);}
	.st267{fill:url(#SVGID_113_);}
	.st268{fill:url(#SVGID_114_);}
	.st269{fill:url(#SVGID_115_);}
	.st270{fill:url(#SVGID_116_);}
	.st271{fill:url(#SVGID_117_);}
	.st272{fill:url(#SVGID_118_);}
	.st273{fill:url(#SVGID_119_);}
	.st274{fill:url(#SVGID_120_);}
	.st275{fill:url(#SVGID_121_);}
	.st276{fill:url(#SVGID_122_);}
	.st277{fill:url(#SVGID_123_);}
	.st278{fill:url(#SVGID_124_);}
	.st279{fill:url(#SVGID_125_);}
	.st280{fill:url(#SVGID_126_);}
	.st281{fill:url(#SVGID_127_);}
	.st282{fill:url(#SVGID_128_);}
	.st283{fill:url(#SVGID_129_);}
	.st284{fill:url(#SVGID_130_);}
	.st285{fill:url(#SVGID_131_);}
	.st286{fill:url(#SVGID_132_);}
	.st287{fill:url(#SVGID_133_);}
	.st288{fill:url(#SVGID_134_);}
	.st289{fill:url(#SVGID_135_);}
	.st290{fill:url(#SVGID_136_);}
	.st291{fill:url(#SVGID_137_);}
	.st292{fill:url(#SVGID_138_);}
	.st293{fill:url(#SVGID_139_);}
	.st294{fill:url(#SVGID_140_);}
	.st295{fill:url(#SVGID_141_);}
	.st296{fill:url(#SVGID_142_);}
	.st297{fill:url(#SVGID_143_);}
	.st298{fill:url(#SVGID_144_);}
	.st299{fill:url(#SVGID_145_);}
	.st300{fill:url(#SVGID_146_);}
	.st301{fill:url(#SVGID_147_);}
	.st302{fill:url(#SVGID_148_);}
	.st303{fill:url(#SVGID_149_);}
	.st304{fill:url(#SVGID_150_);}
	.st305{fill:url(#SVGID_151_);}
	.st306{fill:url(#SVGID_152_);}
	.st307{fill:url(#SVGID_153_);}
	.st308{fill:url(#SVGID_154_);}
	.st309{fill:url(#SVGID_155_);}
	.st310{fill:url(#SVGID_156_);}
	.st311{fill:url(#SVGID_157_);}
	.st312{fill:url(#SVGID_158_);}
	.st313{fill:url(#SVGID_159_);}
	.st314{fill:url(#SVGID_160_);}
	.st315{fill:url(#SVGID_161_);}
	.st316{fill:url(#SVGID_162_);}
	.st317{fill:url(#SVGID_163_);}
	.st318{fill:url(#SVGID_164_);}
	.st319{fill:url(#SVGID_165_);}
	.st320{fill:url(#SVGID_166_);}
	.st321{fill:url(#SVGID_167_);}
	.st322{fill:url(#SVGID_168_);}
	.st323{fill:url(#SVGID_169_);}
	.st324{fill:url(#SVGID_170_);}
	.st325{fill:url(#SVGID_171_);}
	.st326{fill:url(#SVGID_172_);}
	.st327{fill:url(#SVGID_173_);}
	.st328{fill:url(#SVGID_174_);}
	.st329{fill:url(#SVGID_175_);}
	.st330{fill:url(#SVGID_176_);}
	.st331{fill:url(#SVGID_177_);}
	.st332{fill:url(#SVGID_178_);}
	.st333{fill:url(#SVGID_179_);}
	.st334{fill:url(#SVGID_180_);}
	.st335{fill:url(#SVGID_181_);}
	.st336{fill:url(#SVGID_182_);}
	.st337{fill:url(#SVGID_183_);}
	.st338{fill:url(#SVGID_184_);}
	.st339{fill:url(#SVGID_185_);}
	.st340{fill:url(#SVGID_186_);}
	.st341{fill:url(#SVGID_187_);}
	.st342{fill:url(#SVGID_188_);}
	.st343{fill:url(#SVGID_189_);}
	.st344{fill:url(#SVGID_190_);}
	.st345{fill:url(#SVGID_191_);}
	.st346{fill:url(#SVGID_192_);}
	.st347{display:none;}
	.st348{display:inline;opacity:0.67;}
	.st349{display:inline;}
</style>
<g id="Layer_1">
	<g>
		<path class="st2" d="M307.5,153.8c0,0,269-13.6,406.1-13.6s384,13.6,384,13.6H307.5z"/>
		<g>
			<path class="st3" d="M816.5,131l4.3,2.5c0.5,0.3,0.8,0.8,0.8,1.4v5c0,0.6-0.3,1.1-0.8,1.4l-4.3,2.5c-0.5,0.3-1.1,0.3-1.7,0
				l-4.3-2.5c-0.5-0.3-0.8-0.8-0.8-1.4v-5c0-0.6,0.3-1.1,0.8-1.4l4.3-2.5C815.4,130.7,816,130.7,816.5,131z"/>
			<path class="st4" d="M816.2,130.3l4.3,2.5c0.5,0.3,0.8,0.8,0.8,1.4v5c0,0.6-0.3,1.1-0.8,1.4l-4.3,2.5c-0.5,0.3-1.1,0.3-1.7,0
				l-4.3-2.5c-0.5-0.3-0.8-0.8-0.8-1.4v-5c0-0.6,0.3-1.1,0.8-1.4l4.3-2.5C815,130,815.7,130,816.2,130.3z"/>
			<polygon class="st5" points="815.5,135.7 815.6,137.8 817.8,135 815.6,138.1 816.1,154.1 814.9,154.1 815.3,141.3 814.3,137.8 
				815.3,140.2 			"/>
		</g>
		<g>
			<path class="st6" d="M796.8,150.4c0-0.5,4.2-0.9,9.3-0.9c5.2,0,9.3,0.4,9.3,0.9s-4.2,0.9-9.3,0.9
				C801,151.3,796.8,150.9,796.8,150.4"/>
			<path class="st7" d="M808.4,95l10.4,6c1.2,0.7,2,2,2,3.5v12c0,1.4-0.8,2.7-2,3.5l-10.4,6c-1.2,0.7-2.8,0.7-4,0l-10.4-6
				c-1.2-0.7-2-2-2-3.5v-12c0-1.4,0.8-2.7,2-3.5l10.4-6C805.6,94.3,807.1,94.3,808.4,95"/>
			<path class="st8" d="M807.5,93.4l10.4,6c1.2,0.7,2,2,2,3.5v12c0,1.4-0.8,2.7-2,3.5l-10.4,6c-1.2,0.7-2.8,0.7-4,0l-10.4-6
				c-1.2-0.7-2-2-2-3.5v-12c0-1.4,0.8-2.7,2-3.5l10.4-6C804.8,92.7,806.3,92.7,807.5,93.4"/>
			<polygon class="st9" points="806.1,106.3 805.9,111.5 800.4,104.7 805.9,112.1 804.6,150.5 807.4,150.5 806.5,119.8 809,111.5 
				806.5,117.1 			"/>
		</g>
		<path class="st11" d="M749.1,154.1c0,0,4.5-9.8,4-16c0,0,1,9.2,0,12.4c0,0,2-3.6,3.2-4.4c0,0-1.5,3.5-0.9,5.8c0,0,3.6-0.4,4.5-8.1
			c0,0,0.2,7.5,0.8,9.2c0,0,2.4-8.3,3.6-9.8c0,0-0.4,6,0,7.5c0,0,1.3-0.8,2.3-2.2c0,0-1.7,3.2-0.4,4.7c0,0,3.2-1.7,4-5.3
			c0,0,0.2,4.1,1.3,6.2H749.1z"/>
		<path class="st11" d="M729,154.1c0,0,4.5-9.8,4-16c0,0,1,9.2,0,12.4c0,0,2-3.6,3.2-4.4c0,0-1.5,3.5-0.9,5.8c0,0,3.6-0.4,4.5-8.1
			c0,0,0.2,7.5,0.8,9.2c0,0,2.4-8.3,3.6-9.8c0,0-0.4,6,0,7.5c0,0,1.3-0.8,2.3-2.2c0,0-1.7,3.2-0.4,4.7c0,0,3.2-1.7,4-5.3
			c0,0,0.2,4.1,1.3,6.2H729z"/>
		<g>
			<path class="st3" d="M1054.9,5.7l28.1,16.2c3.3,1.9,5.4,5.5,5.4,9.3v32.4c0,3.8-2.1,7.4-5.4,9.3l-28.1,16.2
				c-3.3,1.9-7.4,1.9-10.8,0L1016,73c-3.3-1.9-5.4-5.5-5.4-9.3V31.2c0-3.8,2.1-7.4,5.4-9.3l28.1-16.2
				C1047.5,3.8,1051.6,3.8,1054.9,5.7z"/>
			<path class="st4" d="M1052.6,1.4l28.1,16.2c3.3,1.9,5.4,5.5,5.4,9.3v32.4c0,3.8-2.1,7.4-5.4,9.3L1052.6,85
				c-3.3,1.9-7.4,1.9-10.8,0l-28.1-16.2c-3.3-1.9-5.4-5.5-5.4-9.3V27c0-3.8,2.1-7.4,5.4-9.3l28.1-16.2
				C1045.2-0.5,1049.3-0.5,1052.6,1.4z"/>
			<polygon class="st5" points="1048.7,36 1048.2,49.6 1033.5,31.8 1048.1,51.2 1044.6,152.2 1052.2,152.2 1049.9,71.6 1056.6,49.6 
				1049.7,64.4 			"/>
			<path class="st10" d="M1021.5,29.5l22,12.7c2.6,1.5,4.2,4.3,4.2,7.3V75c0,3-1.6,5.8-4.2,7.3l-22,12.7c-2.6,1.5-5.8,1.5-8.4,0
				l-22-12.7c-2.6-1.5-4.2-4.3-4.2-7.3V49.6c0-3,1.6-5.8,4.2-7.3l22-12.7C1015.7,28,1018.9,28,1021.5,29.5z"/>
			<path class="st11" d="M1019,26.6l22,12.7c2.6,1.5,4.2,4.3,4.2,7.3v25.5c0,3-1.6,5.8-4.2,7.3l-22,12.7c-2.6,1.5-5.8,1.5-8.4,0
				l-22-12.7c-2.6-1.5-4.2-4.3-4.2-7.3V46.6c0-3,1.6-5.8,4.2-7.3l22-12.7C1013.1,25.1,1016.4,25.1,1019,26.6z"/>
			<polygon class="st5" points="1013.5,59.9 1013.1,70.8 1001.7,56.6 1013.1,72 1010.4,152.1 1016.2,152.1 1014.5,88.2 1019.6,70.8 
				1014.3,82.5 			"/>
		</g>
		<g>
			<path class="st11" d="M20.1,154.1c0,0,4.5-9.8,4-16c0,0,1,9.2,0,12.4c0,0,2-3.6,3.2-4.4c0,0-1.5,3.5-0.9,5.8c0,0,3.6-0.4,4.5-8.1
				c0,0,0.2,7.5,0.8,9.2c0,0,2.4-8.3,3.6-9.8c0,0-0.4,6,0,7.5c0,0,1.3-0.8,2.3-2.2c0,0-1.7,3.2-0.4,4.7c0,0,3.2-1.7,4-5.3
				c0,0,0.2,4.1,1.3,6.2H20.1z"/>
			<path class="st11" d="M0,154.1c0,0,4.5-9.8,4-16c0,0,1,9.2,0,12.4c0,0,2-3.6,3.2-4.4c0,0-1.5,3.5-0.9,5.8c0,0,3.6-0.4,4.5-8.1
				c0,0,0.2,7.5,0.8,9.2c0,0,2.4-8.3,3.6-9.8c0,0-0.4,6,0,7.5c0,0,1.3-0.8,2.3-2.2c0,0-1.7,3.2-0.4,4.7c0,0,3.2-1.7,4-5.3
				c0,0,0.2,4.1,1.3,6.2H0z"/>
			<path class="st11" d="M63.1,154.1c0,0,4.5-9.8,4-16c0,0,1,9.2,0,12.4c0,0,2-3.6,3.2-4.4c0,0-1.5,3.5-0.9,5.8c0,0,3.6-0.4,4.5-8.1
				c0,0,0.2,7.5,0.8,9.2c0,0,2.4-8.3,3.6-9.8c0,0-0.4,6,0,7.5c0,0,1.3-0.8,2.3-2.2c0,0-1.7,3.2-0.4,4.7c0,0,3.2-1.7,4-5.3
				c0,0,0.2,4.1,1.3,6.2H63.1z"/>
			<path class="st11" d="M43,154.1c0,0,4.5-9.8,4-16c0,0,1,9.2,0,12.4c0,0,2-3.6,3.2-4.4c0,0-1.5,3.5-0.9,5.8c0,0,3.6-0.4,4.5-8.1
				c0,0,0.2,7.5,0.8,9.2c0,0,2.4-8.3,3.6-9.8c0,0-0.4,6,0,7.5c0,0,1.3-0.8,2.3-2.2c0,0-1.7,3.2-0.4,4.7c0,0,3.2-1.7,4-5.3
				c0,0,0.2,4.1,1.3,6.2H43z"/>
		</g>
		<path class="st11" d="M464.2,154.1c0,0,5.5-12,4.8-19.6c0,0,1.3,11.3,0.1,15.2c0,0,2.5-4.4,3.9-5.4c0,0-1.8,4.3-1.2,7
			c0,0,4.4-0.4,5.5-9.9c0,0,0.2,9.2,0.9,11.3c0,0,3-10.1,4.4-12c0,0-0.5,7.4,0,9.2c0,0,1.6-1,2.8-2.7c0,0-2.1,3.9-0.5,5.7
			c0,0,3.9-2.1,4.8-6.5c0,0,0.2,5.1,1.6,7.6H464.2z"/>
		<path class="st11" d="M344.8,154.1c0,0,5.5-12,4.8-19.6c0,0,1.3,11.3,0.1,15.2c0,0,2.5-4.4,3.9-5.4c0,0-1.8,4.3-1.2,7
			c0,0,4.4-0.4,5.5-9.9c0,0,0.2,9.2,0.9,11.3c0,0,3-10.1,4.4-12c0,0-0.5,7.4,0,9.2c0,0,1.6-1,2.8-2.7c0,0-2.1,3.9-0.5,5.7
			c0,0,3.9-2.1,4.8-6.5c0,0,0.2,5.1,1.6,7.6H344.8z"/>
		<path class="st11" d="M439.6,154.1c0,0,5.5-12,4.8-19.6c0,0,1.3,11.3,0.1,15.2c0,0,2.5-4.4,3.9-5.4c0,0-1.8,4.3-1.2,7
			c0,0,4.4-0.4,5.5-9.9c0,0,0.2,9.2,0.9,11.3c0,0,3-10.1,4.4-12c0,0-0.5,7.4,0,9.2c0,0,1.6-1,2.8-2.7c0,0-2.1,3.9-0.5,5.7
			c0,0,3.9-2.1,4.8-6.5c0,0,0.2,5.1,1.6,7.6H439.6z"/>
		<g>
			<path class="st10" d="M968.4,110.3l10.1,5.9c1.2,0.7,1.9,2,1.9,3.4v11.7c0,1.4-0.7,2.7-1.9,3.4l-10.1,5.9c-1.2,0.7-2.7,0.7-3.9,0
				l-10.1-5.9c-1.2-0.7-1.9-2-1.9-3.4v-11.7c0-1.4,0.7-2.7,1.9-3.4l10.1-5.9C965.7,109.6,967.2,109.6,968.4,110.3z"/>
			<path class="st11" d="M968.4,104.2l11.5,6.6c1.4,0.8,2.2,2.2,2.2,3.8v13.3c0,1.6-0.8,3-2.2,3.8l-11.5,6.6c-1.4,0.8-3,0.8-4.4,0
				l-11.5-6.6c-1.4-0.8-2.2-2.2-2.2-3.8v-13.3c0-1.6,0.8-3,2.2-3.8l11.5-6.6C965.3,103.4,967,103.4,968.4,104.2z"/>
			<path class="st10" d="M946.6,121.2l10.1,5.9c1.2,0.7,1.9,2,1.9,3.4v11.7c0,1.4-0.7,2.7-1.9,3.4l-10.1,5.9c-1.2,0.7-2.7,0.7-3.9,0
				l-10.1-5.9c-1.2-0.7-1.9-2-1.9-3.4v-11.7c0-1.4,0.7-2.7,1.9-3.4l10.1-5.9C943.9,120.5,945.4,120.5,946.6,121.2z"/>
			<path class="st11" d="M946.6,115.1l11.5,6.6c1.4,0.8,2.2,2.2,2.2,3.8v13.3c0,1.6-0.8,3-2.2,3.8l-11.5,6.6c-1.4,0.8-3,0.8-4.4,0
				l-11.5-6.6c-1.4-0.8-2.2-2.2-2.2-3.8v-13.3c0-1.6,0.8-3,2.2-3.8l11.5-6.6C943.6,114.3,945.2,114.3,946.6,115.1z"/>
			<rect x="948.7" y="143.4" class="st3" width="16.3" height="10.3"/>
			<path class="st3" d="M942.8,113.3l2.4,4.2c0.3,0.5,0.3,1.1,0,1.6l-2.5,4.2c-0.3,0.5-0.8,0.8-1.4,0.8l-4.9,0
				c-0.6,0-1.1-0.3-1.4-0.8l-2.4-4.2c-0.3-0.5-0.3-1.1,0-1.6l2.5-4.2c0.3-0.5,0.8-0.8,1.4-0.8l4.9,0
				C942,112.5,942.5,112.8,942.8,113.3z"/>
			<path class="st2" d="M942.8,112.5l2.4,4.2c0.3,0.5,0.3,1.1,0,1.6l-2.5,4.2c-0.3,0.5-0.8,0.8-1.4,0.8l-4.9,0
				c-0.6,0-1.1-0.3-1.4-0.8l-2.4-4.2c-0.3-0.5-0.3-1.1,0-1.6l2.5-4.2c0.3-0.5,0.8-0.8,1.4-0.8l4.9,0
				C942,111.7,942.6,112,942.8,112.5z"/>
			<path class="st3" d="M960.9,108.4l14.9,8.6c1.8,1,2.8,2.9,2.8,4.9v17.2c0,2-1.1,3.9-2.8,4.9l-14.9,8.6c-1.8,1-3.9,1-5.7,0
				l-14.9-8.6c-1.8-1-2.8-2.9-2.8-4.9V122c0-2,1.1-3.9,2.8-4.9l14.9-8.6C956.9,107.4,959.1,107.4,960.9,108.4z"/>
			<path class="st4" d="M959.6,106.2l14.9,8.6c1.8,1,2.8,2.9,2.8,4.9v17.2c0,2-1.1,3.9-2.8,4.9l-14.9,8.6c-1.8,1-3.9,1-5.7,0
				l-14.9-8.6c-1.8-1-2.8-2.9-2.8-4.9v-17.2c0-2,1.1-3.9,2.8-4.9l14.9-8.6C955.7,105.2,957.9,105.2,959.6,106.2z"/>
			<path class="st3" d="M980.4,124.6l6,10.6c0.7,1.3,0.7,2.8,0,4l-6.2,10.5c-0.7,1.2-2.1,2-3.5,2l-12.2-0.1c-1.4,0-2.8-0.8-3.5-2
				l-6-10.6c-0.7-1.3-0.7-2.8,0-4l6.2-10.5c0.7-1.2,2.1-2,3.5-2l12.2,0.1C978.4,122.5,979.7,123.3,980.4,124.6z"/>
			<path class="st2" d="M980.5,122.8l6,10.6c0.7,1.3,0.7,2.8,0,4l-6.2,10.5c-0.7,1.2-2.1,2-3.5,2l-12.2-0.1c-1.4,0-2.8-0.8-3.5-2
				l-6-10.6c-0.7-1.3-0.7-2.8,0-4l6.2-10.5c0.7-1.2,2.1-2,3.5-2l12.2,0.1C978.4,120.7,979.7,121.5,980.5,122.8z"/>
		</g>
		<path class="st11" d="M969.5,153.8c0,0,3.7-8.1,3.3-13.2c0,0,0.9,7.6,0,10.2c0,0,1.7-3,2.6-3.6c0,0-1.2,2.9-0.8,4.7
			c0,0,3-0.3,3.7-6.7c0,0,0.2,6.2,0.6,7.6c0,0,2-6.8,2.9-8.1c0,0-0.3,5,0,6.2c0,0,1.1-0.7,1.9-1.8c0,0-1.4,2.6-0.3,3.9
			c0,0,2.6-1.4,3.3-4.3c0,0,0.2,3.4,1.1,5.1H969.5z"/>
		<path class="st11" d="M983.5,153.8c0,0,3.7-8.1,3.3-13.2c0,0,0.9,7.6,0,10.2c0,0,1.7-3,2.6-3.6c0,0-1.2,2.9-0.8,4.7
			c0,0,3-0.3,3.7-6.7c0,0,0.2,6.2,0.6,7.6c0,0,2-6.8,2.9-8.1c0,0-0.3,5,0,6.2c0,0,1.1-0.7,1.9-1.8c0,0-1.4,2.6-0.3,3.9
			c0,0,2.6-1.4,3.3-4.3c0,0,0.2,3.4,1.1,5.1H983.5z"/>
	</g>
	<g>
		<path class="st22" d="M860.1,92.8c0.2-0.7,0.4-1.4,0.5-2.1c-0.5-1-1-2.1-1.4-3.1c-0.3,0-0.6,0-0.9,0c-0.4,0.8-0.7,1.6-1.1,2.4l0,0
			c0.6-0.2,1.2-0.4,1.7-0.5C859.4,90.7,859.7,91.8,860.1,92.8z"/>
		<path class="st22" d="M855.7,89.5c0,0.2,0.1,0.4,0.3,0.5C856.1,89.8,856,89.6,855.7,89.5z"/>
		<path class="st22" d="M856.5,90.2c0.2,0.2,0.4,0.3,0.5,0.5c0.1-0.2,0.1-0.5,0.2-0.7l0,0C856.9,90.1,856.7,90.2,856.5,90.2z"/>
		<g>
			<path class="st23" d="M906.9,118.3c-5.5-7.3-13.5-9.5-22.1-10.6c-2.9-0.4-5.8-0.9-8.6-1.6c-4.5-1.1-8.6-2.9-11.3-7
				c-2.5,3.7-3.6,7.8-3.5,12.3c0.1,2.4,0.8,4.2,3.6,4.2c2.1-0.3,4.1-0.8,5.8,1.1c0.7,0.8,1.4,1.5,2.1,2.3c5.7,4.9,11.8,8.5,19.8,5.5
				c2.1-1.5,4-3.2,6.2-4.6c2.2-1.5,4.7-2.1,7.3-0.9C906.4,118.9,906.7,118.6,906.9,118.3z"/>
			<path class="st24" d="M865,115.7c-2.8-0.1-3.5-1.9-3.6-4.2c-0.1-4.5,1-8.6,3.5-12.3c-1.1-1.9-2.2-3.7-3.2-5.6
				c-0.3,0.7-0.4,1.7-0.9,2.2c-2.1,2.2-4.4,4.3-6.8,6.7c2.9,2.6,1.6,5.2,0.3,7.8c1.9,3.5,3.9,7.1,5.8,10.7c1.3,2.4,2.4,4.9,3.5,7.4
				c0.5,0.7,0.9,1.4,1.4,2.1c0.2,0.5,0.4,1,0.6,1.5c-0.2,0-0.3,0.1-0.5,0.1c0-0.5-0.1-1.1-0.1-1.6c-0.5-0.7-0.9-1.4-1.4-2.1
				c-1-0.5-2-1-3.1-1.5c0.7,3.5,1.5,6.9,1.9,10.4c0.5,3.7,0.5,7.4-3,9.9c-0.4,0.3-0.5,1-0.9,1.8c3,3.4,6.6,1.4,10.3,1.2
				c0.9-2.5,1.8-5,2.7-7.6c0.6-3.6-2.1-8.1,2.1-11.3c-1-4.2-2-8.4-5.3-11.5C867.1,118.6,866.1,117.1,865,115.7z"/>
			<path class="st24" d="M906.1,119.1c-2.6-1.2-5.1-0.6-7.3,0.9c-2.1,1.4-4.1,3-6.2,4.6c0.8,0.5,1.6,1.2,2.4,1.6
				c5.2,2.2,9.2,5.4,10.5,11.2c0.9,0.5,1.8,1,2.7,1.6c3.4,2.2,3.6,2.5,4.9,6.3c-0.8,1.5-1.7,3-2.7,4.7c3.7,1.2,4.9,0.7,6.3-1.5
				c0-3.8-0.1-6.7,0-9.6c0.2-2.4-0.6-4.1-2.9-5.1c-0.9-0.9-1.8-1.7-2.7-2.6c-0.8-2.8-1.5-5.7-2.3-8.5c-0.4-1-0.8-2-1.2-3.1l0-0.1
				C907.2,119.4,906.7,119.3,906.1,119.1z"/>
			<path class="st25" d="M905.6,137.4c-1.2-5.8-5.3-9-10.5-11.2c-0.9-0.4-1.6-1-2.4-1.6c-7.9,3-14-0.7-19.8-5.5
				c-0.6-0.1-1.2-0.1-2-0.2c0-0.8-0.1-1.4-0.1-2c-1.6-2-3.7-1.4-5.8-1.1c1.1,1.4,2.1,3,3.4,4.2c3.3,3.2,4.3,7.3,5.3,11.5
				c6,0,11.9,0,17.9,0c2.6-2,4.5-0.3,6.4,1.2c2.2,1.7,4.4,3.4,6.6,5.1C904.9,137.5,905.2,137.5,905.6,137.4z"/>
			<path class="st23" d="M854.3,110.3c1.3-2.6,2.6-5.1-0.3-7.8c2.4-2.4,4.7-4.5,6.8-6.7c0.5-0.5,0.6-1.5,0.9-2.2
				c-0.4-0.9-0.7-1.9-1.1-2.8c-0.2,0.7-0.4,1.4-0.5,2.1c-0.8,1.4-1.9,1.8-3.2,1.1c0.1-1.2,0.1-2.2,0.2-3.1c-0.2-0.2-0.4-0.3-0.5-0.5
				c-0.1-0.2-0.2-0.3-0.4-0.2c-0.2-0.1-0.3-0.3-0.3-0.5c-0.3-0.5-0.6-1-1-1.5c-0.3,0.1-0.6,0.3-0.9,0.4c-0.4,1.8-0.8,3.5-1.2,5.4
				c-3.5,2.1-4,8.3-9.9,7c0.7,4.9,0.7,5.6,10.1,6.5c0.3,1,0.7,2.1,1,3.2C854,110.3,854.1,110.2,854.3,110.3z"/>
			<path class="st26" d="M904.6,137.6c-2.2-1.7-4.4-3.4-6.6-5.1c-1.9-1.5-3.9-3.2-6.4-1.2c0.3,5.1,4.1,7.3,7.8,9.2
				c0.8,3.1-0.8,5-2.5,6.8c0.3,0.8,0.6,1.6,0.8,2.3c1.2,0,2,0,2.9,0l0,0c0.2-0.3,0.5-0.5,0.7-0.8c1.9-2.3,3.8-4.5,5.7-6.8
				c-0.2-0.2-0.4-0.3-0.6-0.5c-0.6-1.1-1.1-2.3-1.7-3.4C904.6,138.1,904.6,137.8,904.6,137.6z"/>
			<path class="st26" d="M909,122.7c0.8,2.8,1.5,5.7,2.3,8.5c1.2,0.4,2.4,0.8,3.6,1.2c4.2,0.2,8.3,0.3,12.5,0.5
				c-5.8-1.3-11.1-3.7-15.2-8.1C911.1,124.1,910,123.4,909,122.7z"/>
			<path class="st27" d="M854.3,110.3c-0.2,0-0.3,0.1-0.3,0.2c0.3,2.1,0.4,4.2,1.1,6.2c0.7,2,1.7,4,2.8,5.9c0.8,1.5,1.8,2.9,2.8,4.3
				c1,0.5,2,1,3.1,1.5l0,0c-1.2-2.5-2.3-5-3.5-7.4C858.2,117.3,856.2,113.8,854.3,110.3z"/>
			<path class="st23" d="M912.2,124.8c4.1,4.5,9.3,6.9,15.2,8.1c0.8-0.2,1.5-0.4,2.2-0.5c-5.5-2.6-10.8-5.2-16.2-7.7
				C913,124.7,912.6,124.8,912.2,124.8z"/>
			<path class="st28" d="M900.6,149.7c-0.9,0-1.8,0-2.9,0c-0.2-0.7-0.5-1.5-0.8-2.3c-1,0.5-1.9,1-3,1.6
				C896.3,151.4,897.9,151.5,900.6,149.7z"/>
			<path class="st29" d="M912.2,124.8c0.4,0,0.8-0.1,1.2-0.1c-1.9-1.7-3.7-3.4-5.6-5.1c0.4,1,0.8,2,1.2,3.1
				C910,123.4,911.1,124.1,912.2,124.8z"/>
			<path class="st30" d="M914.9,132.4c-1.2-0.4-2.4-0.8-3.6-1.2c0.9,0.9,1.8,1.7,2.7,2.6C914.3,133.4,914.6,132.9,914.9,132.4z"/>
			<path class="st31" d="M904.6,137.6c0,0.2,0,0.5,0.2,0.7c1.2,0.2,2.3,0.5,3.5,0.7c-0.9-0.5-1.8-1-2.7-1.6
				C905.2,137.5,904.9,137.5,904.6,137.6z"/>
			<path class="st29" d="M906.1,119.1c0.5,0.1,1.1,0.3,1.6,0.4c-0.3-0.4-0.6-0.8-0.9-1.2C906.7,118.6,906.4,118.9,906.1,119.1z"/>
			<path class="st28" d="M901.3,148.9c-0.2,0.3-0.5,0.5-0.7,0.8C900.8,149.5,901.1,149.2,901.3,148.9z"/>
			<path class="st31" d="M870.8,116.8c0,0.6,0.1,1.2,0.1,2c0.8,0.1,1.4,0.2,2,0.2C872.2,118.3,871.5,117.6,870.8,116.8z"/>
			<path class="st27" d="M865,130.4c-0.5-0.7-0.9-1.4-1.4-2.1l0,0C864.1,129,864.5,129.7,865,130.4L865,130.4z"/>
			<path class="st25" d="M865,130.4c0,0.5,0.1,1.1,0.1,1.6c0.2,0,0.3-0.1,0.5-0.1C865.4,131.4,865.2,130.9,865,130.4L865,130.4z"/>
		</g>
		<path class="st26" d="M857.2,90c-0.1,0.2-0.1,0.5-0.2,0.7c-0.1,1-0.1,2-0.2,3.1c1.3,0.7,2.4,0.4,3.2-1.1c-0.3-1-0.7-2.1-1.1-3.3
			C858.4,89.6,857.8,89.8,857.2,90z"/>
	</g>
	<g>
		<path class="st11" d="M881.8,154.1c0,0,4.5-9.8,4-16c0,0,1,9.2,0,12.4c0,0,2-3.6,3.2-4.4c0,0-1.5,3.5-0.9,5.8c0,0,3.6-0.4,4.5-8.1
			c0,0,0.2,7.5,0.8,9.2c0,0,2.4-8.3,3.6-9.8c0,0-0.4,6,0,7.5c0,0,1.3-0.8,2.3-2.2c0,0-1.7,3.2-0.4,4.7c0,0,3.2-1.7,4-5.3
			c0,0,0.2,4.1,1.3,6.2H881.8z"/>
		<path class="st11" d="M861.7,154.1c0,0,4.5-9.8,4-16c0,0,1,9.2,0,12.4c0,0,2-3.6,3.2-4.4c0,0-1.5,3.5-0.9,5.8c0,0,3.6-0.4,4.5-8.1
			c0,0,0.2,7.5,0.8,9.2c0,0,2.4-8.3,3.6-9.8c0,0-0.4,6,0,7.5c0,0,1.3-0.8,2.3-2.2c0,0-1.7,3.2-0.4,4.7c0,0,3.2-1.7,4-5.3
			c0,0,0.2,4.1,1.3,6.2H861.7z"/>
		<path class="st11" d="M924.8,154.1c0,0,4.5-9.8,4-16c0,0,1,9.2,0,12.4c0,0,2-3.6,3.2-4.4c0,0-1.5,3.5-0.9,5.8c0,0,3.6-0.4,4.5-8.1
			c0,0,0.2,7.5,0.8,9.2c0,0,2.4-8.3,3.6-9.8c0,0-0.4,6,0,7.5c0,0,1.3-0.8,2.3-2.2c0,0-1.7,3.2-0.4,4.7c0,0,3.2-1.7,4-5.3
			c0,0,0.2,4.1,1.3,6.2H924.8z"/>
		<path class="st11" d="M904.7,154.1c0,0,4.5-9.8,4-16c0,0,1,9.2,0,12.4c0,0,2-3.6,3.2-4.4c0,0-1.5,3.5-0.9,5.8c0,0,3.6-0.4,4.5-8.1
			c0,0,0.2,7.5,0.8,9.2c0,0,2.4-8.3,3.6-9.8c0,0-0.4,6,0,7.5c0,0,1.3-0.8,2.3-2.2c0,0-1.7,3.2-0.4,4.7c0,0,3.2-1.7,4-5.3
			c0,0,0.2,4.1,1.3,6.2H904.7z"/>
	</g>
</g>
<g id="Layer_2" class="st347">
</g>
</svg>
