<?xml version="1.0" encoding="UTF-8"?>
<!DOCTYPE svg PUBLIC "-//W3C//DTD SVG 1.1//EN" "http://www.w3.org/Graphics/SVG/1.1/DTD/svg11.dtd">
<svg version="1.1" xmlns="http://www.w3.org/2000/svg" xmlns:xlink="http://www.w3.org/1999/xlink" x="0" y="0" width="1205.7" height="98.5" viewBox="0, 0, 1205.7, 98.5">
  <g id="Layer_1">
    <path d="M-0,98.5 C-0,98.5 410.5,84.9 619.7,84.9 C828.9,84.9 1205.7,98.5 1205.7,98.5 L-0,98.5 z" fill="#8EA43B"/>
    <g>
      <path d="M892.7,77.7 L896.6,80 C897.1,80.3 897.3,80.8 897.3,81.3 L897.3,85.8 C897.3,86.3 897,86.8 896.6,87.1 L892.7,89.4 C892.2,89.7 891.7,89.7 891.2,89.4 L887.3,87.1 C886.8,86.8 886.6,86.3 886.6,85.8 L886.6,81.3 C886.6,80.8 886.9,80.3 887.3,80 L891.2,77.7 C891.6,77.4 892.2,77.4 892.7,77.7 z" fill="#6E8C3B"/>
      <path d="M892.3,77.1 L896.2,79.4 C896.7,79.7 896.9,80.2 896.9,80.7 L896.9,85.2 C896.9,85.7 896.6,86.2 896.2,86.5 L892.3,88.8 C891.8,89.1 891.3,89.1 890.8,88.8 L886.9,86.5 C886.4,86.2 886.2,85.7 886.2,85.2 L886.2,80.7 C886.2,80.2 886.5,79.7 886.9,79.4 L890.8,77.1 C891.3,76.9 891.9,76.9 892.3,77.1 z" fill="#A3C23A"/>
      <path d="M891.7,81.9 L891.8,83.9 L893.8,81.3 L891.8,84.1 L892.3,98.5 L891.2,98.5 L891.5,87 L890.6,83.9 L891.6,86 z" fill="#967E2E"/>
    </g>
    <g>
      <path d="M875,97.7 C875,97.3 878.8,96.9 883.4,96.9 C888,96.9 891.8,97.3 891.8,97.7 C891.8,98.1 888,98.5 883.4,98.5 C878.8,98.5 875,98.1 875,97.7" fill="#687833"/>
      <path d="M885.3,47.9 L894.7,53.3 C895.8,53.9 896.5,55.1 896.5,56.4 L896.5,67.2 C896.5,68.5 895.8,69.7 894.7,70.3 L885.3,75.7 C884.2,76.3 882.8,76.3 881.7,75.7 L872.3,70.3 C871.2,69.7 870.5,68.5 870.5,67.2 L870.5,56.4 C870.5,55.1 871.2,53.9 872.3,53.3 L881.7,47.9 C882.8,47.2 884.2,47.2 885.3,47.9" fill="#C4BF2F"/>
      <path d="M884.5,46.5 L893.9,51.9 C895,52.5 895.7,53.7 895.7,55 L895.7,65.8 C895.7,67.1 895,68.3 893.9,68.9 L884.5,74.3 C883.4,74.9 882,74.9 880.9,74.3 L871.5,68.9 C870.4,68.3 869.7,67.1 869.7,65.8 L869.7,55 C869.7,53.7 870.4,52.5 871.5,51.9 L880.9,46.5 C882.1,45.8 883.4,45.8 884.5,46.5" fill="#DBDC2B"/>
      <path d="M883.2,58 L883.1,62.7 L878.2,56.6 L883.1,63.2 L881.9,97.8 L884.4,97.8 L883.7,70.2 L885.9,62.7 L883.6,67.7 z" fill="#9D802E"/>
    </g>
    <g>
      <path d="M1037.3,59.4 L1046.4,64.7 C1047.5,65.3 1048.1,66.5 1048.1,67.7 L1048.1,78.2 C1048.1,79.4 1047.4,80.6 1046.4,81.2 L1037.3,86.5 C1036.2,87.1 1034.9,87.1 1033.8,86.5 L1024.7,81.2 C1023.6,80.6 1023,79.4 1023,78.2 L1023,67.7 C1023,66.5 1023.7,65.3 1024.7,64.7 L1033.8,59.4 C1034.9,58.8 1036.2,58.8 1037.3,59.4 z" fill="#BBBE3A"/>
      <path d="M1037.3,54 L1047.6,60 C1048.8,60.7 1049.6,62 1049.6,63.4 L1049.6,75.3 C1049.6,76.7 1048.8,78 1047.6,78.7 L1037.3,84.7 C1036.1,85.4 1034.6,85.4 1033.3,84.7 L1023,78.7 C1021.8,78 1021,76.7 1021,75.3 L1021,63.4 C1021,62 1021.8,60.7 1023,60 L1033.3,54 C1034.6,53.3 1036.1,53.3 1037.3,54 z" fill="#D3DE46"/>
      <path d="M1017.7,69.2 L1026.8,74.5 C1027.9,75.1 1028.5,76.3 1028.5,77.5 L1028.5,88 C1028.5,89.2 1027.8,90.4 1026.8,91 L1017.7,96.3 C1016.6,96.9 1015.3,96.9 1014.2,96.3 L1005.1,91 C1004,90.4 1003.4,89.2 1003.4,88 L1003.4,77.5 C1003.4,76.3 1004.1,75.1 1005.1,74.5 L1014.2,69.2 C1015.3,68.6 1016.6,68.6 1017.7,69.2 z" fill="#BBBE3A"/>
      <path d="M1017.7,63.8 L1028,69.8 C1029.2,70.5 1030,71.8 1030,73.2 L1030,85.1 C1030,86.5 1029.2,87.8 1028,88.5 L1017.7,94.5 C1016.5,95.2 1015,95.2 1013.7,94.5 L1003.4,88.5 C1002.2,87.8 1001.4,86.5 1001.4,85.1 L1001.4,73.2 C1001.4,71.8 1002.2,70.5 1003.4,69.8 L1013.7,63.8 C1015,63.1 1016.5,63.1 1017.7,63.8 z" fill="#D3DE46"/>
      <path d="M1019.5,89.2 L1034.2,89.2 L1034.2,98.5 L1019.5,98.5 z" fill="#6E8C3B"/>
      <path d="M1014.3,62.1 L1016.5,65.9 C1016.8,66.4 1016.8,66.9 1016.5,67.4 L1014.3,71.2 C1014,71.6 1013.6,71.9 1013,71.9 L1008.6,71.9 C1008.1,71.9 1007.6,71.6 1007.3,71.2 L1005.1,67.4 C1004.8,66.9 1004.8,66.4 1005.1,65.9 L1007.3,62.1 C1007.6,61.7 1008,61.4 1008.6,61.4 L1013,61.4 C1013.6,61.4 1014,61.7 1014.3,62.1 z" fill="#6E8C3B"/>
      <path d="M1014.3,61.5 L1016.5,65.3 C1016.8,65.8 1016.8,66.3 1016.5,66.8 L1014.3,70.6 C1014,71 1013.6,71.3 1013,71.3 L1008.6,71.3 C1008.1,71.3 1007.6,71 1007.3,70.6 L1005.1,66.8 C1004.8,66.3 1004.8,65.8 1005.1,65.3 L1007.3,61.5 C1007.6,61.1 1008,60.8 1008.6,60.8 L1013,60.8 C1013.6,60.7 1014.1,61 1014.3,61.5 z" fill="#8EA43B"/>
      <path d="M1030.5,57.8 L1043.9,65.5 C1045.5,66.4 1046.5,68.1 1046.5,69.9 L1046.5,85.4 C1046.5,87.2 1045.5,88.9 1043.9,89.8 L1030.5,97.5 C1028.9,98.4 1027,98.4 1025.4,97.5 L1012,89.8 C1010.4,88.9 1009.4,87.2 1009.4,85.4 L1009.4,69.9 C1009.4,68.1 1010.4,66.4 1012,65.5 L1025.4,57.8 C1027,56.9 1028.9,56.9 1030.5,57.8 z" fill="#6E8C3B"/>
      <path d="M1029.4,55.8 L1042.8,63.5 C1044.4,64.4 1045.4,66.1 1045.4,67.9 L1045.4,83.4 C1045.4,85.2 1044.4,86.9 1042.8,87.8 L1029.4,95.5 C1027.8,96.4 1025.9,96.4 1024.3,95.5 L1010.9,87.8 C1009.3,86.9 1008.3,85.2 1008.3,83.4 L1008.3,67.9 C1008.3,66.1 1009.3,64.4 1010.9,63.5 L1024.3,55.8 C1025.9,54.8 1027.8,54.8 1029.4,55.8 z" fill="#A3C23A"/>
      <path d="M1048.1,72.3 L1053.5,81.8 C1054.1,82.9 1054.1,84.3 1053.5,85.4 L1048,94.8 C1047.3,95.9 1046.1,96.6 1044.8,96.6 L1033.9,96.5 C1032.6,96.5 1031.4,95.8 1030.8,94.7 L1025.4,85.2 C1024.8,84.1 1024.8,82.7 1025.4,81.6 L1030.9,72.2 C1031.6,71.1 1032.8,70.4 1034.1,70.4 L1045,70.5 C1046.3,70.5 1047.4,71.2 1048.1,72.3 z" fill="#6E8C3B"/>
      <path d="M1048.1,70.6 L1053.5,80.1 C1054.1,81.2 1054.1,82.6 1053.5,83.7 L1048,93.1 C1047.3,94.2 1046.1,94.9 1044.8,94.9 L1033.9,94.8 C1032.6,94.8 1031.4,94.1 1030.8,93 L1025.4,83.5 C1024.8,82.4 1024.8,81 1025.4,79.9 L1030.9,70.5 C1031.6,69.4 1032.8,68.7 1034.1,68.7 L1045,68.8 C1046.3,68.8 1047.5,69.5 1048.1,70.6 z" fill="#8EA43B"/>
    </g>
    <g>
      <path d="M960.3,98.5 C960.3,98.5 964.4,89.7 963.9,84.1 C963.9,84.1 964.8,92.4 963.9,95.3 C963.9,95.3 965.7,92.1 966.7,91.3 C966.7,91.3 965.3,94.4 965.9,96.5 C965.9,96.5 969.2,96.2 970,89.2 C970,89.2 970.2,96 970.7,97.5 C970.7,97.5 972.9,90.1 973.9,88.7 C973.9,88.7 973.6,94.1 973.9,95.5 C973.9,95.5 975.1,94.8 976,93.5 C976,93.5 974.4,96.4 975.6,97.7 C975.6,97.7 978.5,96.2 979.2,93 C979.2,93 979.4,96.7 980.4,98.6 L960.3,98.6 z" fill="#D3DE46"/>
      <path d="M942.2,98.5 C942.2,98.5 946.3,89.7 945.8,84.1 C945.8,84.1 946.7,92.4 945.8,95.3 C945.8,95.3 947.6,92.1 948.6,91.3 C948.6,91.3 947.2,94.4 947.8,96.5 C947.8,96.5 951.1,96.2 951.9,89.2 C951.9,89.2 952.1,96 952.6,97.5 C952.6,97.5 954.8,90.1 955.8,88.7 C955.8,88.7 955.5,94.1 955.8,95.5 C955.8,95.5 957,94.8 957.9,93.5 C957.9,93.5 956.3,96.4 957.5,97.7 C957.5,97.7 960.4,96.2 961.1,93 C961.1,93 961.3,96.7 962.3,98.6 L942.2,98.6 z" fill="#D3DE46"/>
      <path d="M999,98.5 C999,98.5 1003.1,89.7 1002.6,84.1 C1002.6,84.1 1003.5,92.4 1002.6,95.3 C1002.6,95.3 1004.4,92.1 1005.4,91.3 C1005.4,91.3 1004,94.4 1004.6,96.5 C1004.6,96.5 1007.9,96.2 1008.7,89.2 C1008.7,89.2 1008.9,96 1009.4,97.5 C1009.4,97.5 1011.6,90.1 1012.6,88.7 C1012.6,88.7 1012.3,94.1 1012.6,95.5 C1012.6,95.5 1013.8,94.8 1014.7,93.5 C1014.7,93.5 1013.1,96.4 1014.3,97.7 C1014.3,97.7 1017.2,96.2 1017.9,93 C1017.9,93 1018.1,96.7 1019.1,98.6 L999,98.6 z" fill="#D3DE46"/>
      <path d="M980.9,98.5 C980.9,98.5 985,89.7 984.5,84.1 C984.5,84.1 985.4,92.4 984.5,95.3 C984.5,95.3 986.3,92.1 987.3,91.3 C987.3,91.3 985.9,94.4 986.5,96.5 C986.5,96.5 989.8,96.2 990.6,89.2 C990.6,89.2 990.8,96 991.3,97.5 C991.3,97.5 993.5,90.1 994.5,88.7 C994.5,88.7 994.2,94.1 994.5,95.5 C994.5,95.5 995.7,94.8 996.6,93.5 C996.6,93.5 995,96.4 996.2,97.7 C996.2,97.7 999.1,96.2 999.8,93 C999.8,93 1000,96.7 1001,98.6 L980.9,98.6 z" fill="#D3DE46"/>
    </g>
    <path d="M832,98.5 C832,98.5 836.1,89.7 835.6,84.1 C835.6,84.1 836.5,92.4 835.6,95.3 C835.6,95.3 837.4,92.1 838.4,91.3 C838.4,91.3 837,94.4 837.6,96.5 C837.6,96.5 840.9,96.2 841.7,89.2 C841.7,89.2 841.9,96 842.4,97.5 C842.4,97.5 844.6,90.1 845.6,88.7 C845.6,88.7 845.3,94.1 845.6,95.5 C845.6,95.5 846.8,94.8 847.7,93.5 C847.7,93.5 846.1,96.4 847.3,97.7 C847.3,97.7 850.2,96.2 850.9,93 C850.9,93 851.1,96.7 852.1,98.6 L832,98.6 z" fill="#D3DE46"/>
    <path d="M814,98.5 C814,98.5 818.1,89.7 817.6,84.1 C817.6,84.1 818.5,92.4 817.6,95.3 C817.6,95.3 819.4,92.1 820.4,91.3 C820.4,91.3 819,94.4 819.6,96.5 C819.6,96.5 822.9,96.2 823.7,89.2 C823.7,89.2 823.9,96 824.4,97.5 C824.4,97.5 826.6,90.1 827.6,88.7 C827.6,88.7 827.3,94.1 827.6,95.5 C827.6,95.5 828.8,94.8 829.7,93.5 C829.7,93.5 828.1,96.4 829.3,97.7 C829.3,97.7 832.2,96.2 832.9,93 C832.9,93 833.1,96.7 834.1,98.6 L814,98.6 z" fill="#D3DE46"/>
    <g>
      <path d="M497.2,3.6 L515,13.9 C517.1,15.1 518.4,17.4 518.4,19.8 L518.4,40.4 C518.4,42.8 517.1,45.1 515,46.3 L497.2,56.6 C495.1,57.8 492.5,57.8 490.4,56.6 L472.6,46.3 C470.5,45.1 469.2,42.8 469.2,40.4 L469.2,19.8 C469.2,17.4 470.5,15.1 472.6,13.9 L490.4,3.6 C492.5,2.4 495.1,2.4 497.2,3.6 z" fill="#6E8C3B"/>
      <path d="M495.7,0.9 L513.5,11.2 C515.6,12.4 516.9,14.7 516.9,17.1 L516.9,37.7 C516.9,40.1 515.6,42.4 513.5,43.6 L495.7,53.9 C493.6,55.1 491,55.1 488.9,53.9 L471.1,43.6 C469,42.4 467.7,40.1 467.7,37.7 L467.7,17.1 C467.7,14.7 469,12.4 471.1,11.2 L488.9,0.9 C491,-0.3 493.6,-0.3 495.7,0.9 z" fill="#A3C23A"/>
      <path d="M493.2,22.9 L492.9,31.8 L483.6,20.2 L492.9,32.7 L490.6,98.5 L495.5,98.5 L494,46 L498.3,31.8 L493.9,41.4 z" fill="#967E2E"/>
      <path d="M476,18.7 L490,26.8 C491.7,27.8 492.7,29.5 492.7,31.4 L492.7,47.5 C492.7,49.4 491.7,51.2 490,52.1 L476,60.2 C474.3,61.2 472.3,61.2 470.7,60.2 L456.7,52.1 C455,51.1 454,49.4 454,47.5 L454,31.4 C454,29.5 455,27.7 456.7,26.8 L470.7,18.7 C472.3,17.8 474.4,17.8 476,18.7 z" fill="#BBBE3A"/>
      <path d="M474.4,16.8 L488.4,24.9 C490.1,25.9 491.1,27.6 491.1,29.5 L491.1,45.6 C491.1,47.5 490.1,49.3 488.4,50.2 L474.4,58.3 C472.7,59.3 470.7,59.3 469.1,58.3 L455.1,50.2 C453.4,49.2 452.4,47.5 452.4,45.6 L452.4,29.5 C452.4,27.6 453.4,25.8 455.1,24.9 L469.1,16.8 C470.7,15.9 472.7,15.9 474.4,16.8 z" fill="#D3DE46"/>
      <path d="M470.9,38 L470.7,44.8 L463.5,35.9 L470.7,45.6 L468.9,96.4 L472.7,96.4 L471.6,55.9 L474.8,44.8 L471.5,52.3 z" fill="#967E2E"/>
    </g>
    <g>
      <path d="M176.6,98.5 C176.6,98.5 180.7,89.7 180.2,84.1 C180.2,84.1 181.1,92.4 180.2,95.3 C180.2,95.3 182,92.1 183,91.3 C183,91.3 181.6,94.4 182.2,96.5 C182.2,96.5 185.5,96.2 186.3,89.2 C186.3,89.2 186.5,96 187,97.5 C187,97.5 189.2,90.1 190.2,88.7 C190.2,88.7 189.9,94.1 190.2,95.5 C190.2,95.5 191.4,94.8 192.3,93.5 C192.3,93.5 190.7,96.4 191.9,97.7 C191.9,97.7 194.8,96.2 195.5,93 C195.5,93 195.7,96.7 196.7,98.6 L176.6,98.6 z" fill="#D3DE46"/>
      <path d="M158.5,98.5 C158.5,98.5 162.6,89.7 162.1,84.1 C162.1,84.1 163,92.4 162.1,95.3 C162.1,95.3 163.9,92.1 164.9,91.3 C164.9,91.3 163.5,94.4 164.1,96.5 C164.1,96.5 167.4,96.2 168.2,89.2 C168.2,89.2 168.4,96 168.9,97.5 C168.9,97.5 171.1,90.1 172.1,88.7 C172.1,88.7 171.8,94.1 172.1,95.5 C172.1,95.5 173.3,94.8 174.2,93.5 C174.2,93.5 172.6,96.4 173.8,97.7 C173.8,97.7 176.7,96.2 177.4,93 C177.4,93 177.6,96.7 178.6,98.6 L158.5,98.6 z" fill="#D3DE46"/>
      <path d="M215.2,98.5 C215.2,98.5 219.3,89.7 218.8,84.1 C218.8,84.1 219.7,92.4 218.8,95.3 C218.8,95.3 220.6,92.1 221.6,91.3 C221.6,91.3 220.2,94.4 220.8,96.5 C220.8,96.5 224.1,96.2 224.9,89.2 C224.9,89.2 225.1,96 225.6,97.5 C225.6,97.5 227.8,90.1 228.8,88.7 C228.8,88.7 228.5,94.1 228.8,95.5 C228.8,95.5 230,94.8 230.9,93.5 C230.9,93.5 229.3,96.4 230.5,97.7 C230.5,97.7 233.4,96.2 234.1,93 C234.1,93 234.3,96.7 235.3,98.6 L215.2,98.6 z" fill="#D3DE46"/>
      <path d="M197.2,98.5 C197.2,98.5 201.3,89.7 200.8,84.1 C200.8,84.1 201.7,92.4 200.8,95.3 C200.8,95.3 202.6,92.1 203.6,91.3 C203.6,91.3 202.2,94.4 202.8,96.5 C202.8,96.5 206.1,96.2 206.9,89.2 C206.9,89.2 207.1,96 207.6,97.5 C207.6,97.5 209.8,90.1 210.8,88.7 C210.8,88.7 210.5,94.1 210.8,95.5 C210.8,95.5 212,94.8 212.9,93.5 C212.9,93.5 211.3,96.4 212.5,97.7 C212.5,97.7 215.4,96.2 216.1,93 C216.1,93 216.3,96.7 217.3,98.6 L197.2,98.6 z" fill="#D3DE46"/>
    </g>
    <path d="M575.8,98.5 C575.8,98.5 580.8,87.7 580.2,80.9 C580.2,80.9 581.3,91.1 580.3,94.6 C580.3,94.6 582.5,90.7 583.8,89.7 C583.8,89.7 582.1,93.5 582.8,96 C582.8,96 586.8,95.6 587.8,87.1 C587.8,87.1 588,95.4 588.6,97.2 C588.6,97.2 591.3,88.1 592.5,86.4 C592.5,86.4 592.1,93 592.5,94.7 C592.5,94.7 594,93.8 595,92.2 C595,92.2 593.1,95.7 594.5,97.4 C594.5,97.4 598,95.5 598.9,91.6 C598.9,91.6 599.1,96.1 600.4,98.4 L575.8,98.4 z" fill="#D3DE46"/>
    <path d="M378.6,98.5 C378.6,98.5 383.6,87.7 383,80.9 C383,80.9 384.1,91.1 383.1,94.6 C383.1,94.6 385.3,90.7 386.6,89.7 C386.6,89.7 384.9,93.5 385.6,96 C385.6,96 389.6,95.6 390.6,87.1 C390.6,87.1 390.8,95.4 391.4,97.2 C391.4,97.2 394.1,88.1 395.3,86.4 C395.3,86.4 394.9,93 395.3,94.7 C395.3,94.7 396.8,93.8 397.8,92.2 C397.8,92.2 395.9,95.7 397.3,97.4 C397.3,97.4 400.8,95.5 401.7,91.6 C401.7,91.6 401.9,96.1 403.2,98.4 L378.6,98.4 z" fill="#D3DE46"/>
    <path d="M553.7,98.5 C553.7,98.5 558.7,87.7 558.1,80.9 C558.1,80.9 559.2,91.1 558.2,94.6 C558.2,94.6 560.4,90.7 561.7,89.7 C561.7,89.7 560,93.5 560.7,96 C560.7,96 564.7,95.6 565.7,87.1 C565.7,87.1 565.9,95.4 566.5,97.2 C566.5,97.2 569.2,88.1 570.4,86.4 C570.4,86.4 570,93 570.4,94.7 C570.4,94.7 571.9,93.8 572.9,92.2 C572.9,92.2 571,95.7 572.4,97.4 C572.4,97.4 575.9,95.5 576.8,91.6 C576.8,91.6 577,96.1 578.3,98.4 L553.7,98.4 z" fill="#D3DE46"/>
  </g>
</svg>
