<svg xmlns="http://www.w3.org/2000/svg" viewBox="0 0 103.24 114.79"><defs><style>.cls-1{fill:#a3c23b;}.cls-2{fill:#fff;}</style></defs><title>Asset 3</title><g id="Layer_2" data-name="Layer 2"><g id="Layer_1-2" data-name="Layer 1"><path class="cls-1" d="M58.77,1.91,96.1,23.47a14.29,14.29,0,0,1,7.14,12.37V79A14.29,14.29,0,0,1,96.1,91.33L58.77,112.88a14.29,14.29,0,0,1-14.29,0L7.14,91.33A14.29,14.29,0,0,1,0,79V35.84A14.29,14.29,0,0,1,7.14,23.47L44.48,1.91A14.29,14.29,0,0,1,58.77,1.91Z"/><rect class="cls-2" x="44.93" y="26.74" width="13.55" height="57.57"/><rect class="cls-2" x="26.3" y="49.45" width="13.55" height="33.86"/><rect class="cls-2" x="63.55" y="39.29" width="13.55" height="44.02"/></g></g></svg>
