<?xml version="1.0" encoding="utf-8"?>
<!-- Generator: Adobe Illustrator 21.0.0, SVG Export Plug-In . SVG Version: 6.00 Build 0)  -->
<svg version="1.1" id="Layer_1" xmlns="http://www.w3.org/2000/svg" xmlns:xlink="http://www.w3.org/1999/xlink" x="0px" y="0px"
	 viewBox="0 0 427.1 1414" style="enable-background:new 0 0 427.1 1414;" xml:space="preserve">
<style type="text/css">
	.st0{fill:#6E8C3B;}
	.st1{fill:#A3C23A;}
	.st2{fill:#967E2E;}
	.st3{fill:#BBBE3A;}
	.st4{fill:#D3DE46;}
	.st5{fill:#8EA43B;}
	.st6{fill:#FFFFFF;}
	.st7{fill:#647633;}
	.st8{fill:#687833;}
</style>
<g id="Layer_1_1_">
	<g>
		<path class="st0" d="M418.2,212l7.5,4.3c0.9,0.5,1.4,1.5,1.4,2.5v8.6c0,1-0.5,2-1.4,2.5l-7.5,4.3c-0.9,0.5-2,0.5-2.9,0l-7.5-4.3
			c-0.9-0.5-1.4-1.5-1.4-2.5v-8.6c0-1,0.5-2,1.4-2.5l7.5-4.3C416.2,211.4,417.3,211.4,418.2,212z"/>
		<path class="st1" d="M417.6,210.8l7.5,4.3c0.9,0.5,1.4,1.5,1.4,2.5v8.6c0,1-0.5,2-1.4,2.5l-7.5,4.3c-0.9,0.5-2,0.5-2.9,0l-7.5-4.3
			c-0.9-0.5-1.4-1.5-1.4-2.5v-8.6c0-1,0.5-2,1.4-2.5l7.5-4.3C415.6,210.3,416.7,210.3,417.6,210.8z"/>
		<path class="st2" d="M416.5,220l-0.1,3.7l-3.9-4.8l3.9,5.3l-0.9,27.5h2l-0.6-22l1.8-6l-1.9,4.1L416.5,220z"/>
		<path class="st3" d="M409.3,218.3l5.8,3.4c0.7,0.4,1.1,1.1,1.1,1.9v6.8c0,0.8-0.4,1.5-1.1,1.9l-5.8,3.4c-0.7,0.4-1.5,0.4-2.2,0
			l-5.8-3.4c-0.7-0.4-1.1-1.1-1.1-1.9v-6.8c0-0.8,0.4-1.5,1.1-1.9l5.8-3.4C407.8,217.9,408.6,217.9,409.3,218.3z"/>
		<path class="st4" d="M408.7,217.5l5.8,3.4c0.7,0.4,1.1,1.1,1.1,1.9v6.8c0,0.8-0.4,1.5-1.1,1.9l-5.8,3.4c-0.7,0.4-1.5,0.4-2.2,0
			l-5.8-3.4c-0.7-0.4-1.1-1.1-1.1-1.9v-6.8c0-0.8,0.4-1.5,1.1-1.9l5.8-3.4C407.1,217.1,408,217.1,408.7,217.5z"/>
		<path class="st2" d="M407.2,226.3l-0.1,2.9l-3-3.7l3,4l-0.7,21.3h1.5l-0.4-17l1.3-4.6l-1.4,3.1L407.2,226.3z"/>
	</g>
	<path class="st0" d="M423.1,201.8l-229.8,40.4H4l202.6-40.4H423.1z"/>
	<path class="st0" d="M423.1,92.8l-229.8,57H4l202.6-57H423.1z"/>
	<path class="st5" d="M423.1,244c0,0-177.3-10.8-249.6-10.8S4,244,4,244H423.1z"/>
	<path class="st5" d="M423.1,151.6c0,0-177.3-10.8-249.6-10.8S4,151.6,4,151.6H423.1z"/>
	<path class="st2" d="M209.9,104.2l-4.6,117.5L63.4,68.6l141.4,166.3L182.5,1414h61.3L224.1,306.2l80.1-110l-82,89.6L209.9,104.2z"
		/>
	<path class="st1" d="M4,242.2h419.1v60.6H4V242.2z"/>
	<g>
		<path class="st6" d="M58.1,263.6L56,268c-2.5-1.5-5.5-2.4-7.4-2.4c-1.8,0-3,0.6-3,1.9c0,4.4,12.6,1.9,12.6,10.5
			c0,4.6-4,7.2-9.3,7.2c-3.9,0-7.8-1.5-10.5-3.8l2.1-4.4c2.4,2.2,5.9,3.6,8.4,3.6c2.2,0,3.5-0.8,3.5-2.3c0-4.5-12.6-1.9-12.6-10.3
			c0-4.3,3.7-7,9.2-7C52.4,261,55.7,262,58.1,263.6z"/>
		<path class="st6" d="M78,285v-9.4H67.3v9.4h-5.4v-23.7h5.4v9.9H78v-9.9h5.4V285H78z"/>
		<path class="st6" d="M93.3,280.4l-1.9,4.6h-5.5l10.3-23.7h5.5l10.1,23.7h-5.7l-1.9-4.6H93.3z M98.8,266.8L95,276h7.5L98.8,266.8z"
			/>
		<path class="st6" d="M125.1,278.2h-0.5h-4.9v6.8h-5.4v-23.7h10.3c6.2,0,9.7,3,9.7,8.2c0,3.7-1.6,6.3-4.4,7.7l5,7.8h-6.1
			L125.1,278.2z M124.6,273.7c2.9,0,4.6-1.4,4.6-4.1c0-2.6-1.7-4-4.6-4h-4.9v8h4.9V273.7z"/>
		<path class="st6" d="M144.2,265.7v5.2h11.5v4.4h-11.5v5.3h13.1v4.4h-18.4v-23.7H157v4.4H144.2z"/>
		<path class="st6" d="M181.1,285h-5.4v-7.5l-8.8-16.2h5.4l6.1,10.6l5.9-10.6h5.4l-8.6,16.1V285z"/>
		<path class="st6" d="M215.4,273.1c0,6.8-5.5,12.1-12.7,12.1c-7.3,0-12.7-5.2-12.7-12.1c0-6.9,5.5-12,12.7-12
			S215.4,266.2,215.4,273.1z M195.4,273.1c0,4.2,3.4,7.4,7.3,7.4c4,0,7.2-3.3,7.2-7.4c0-4.2-3.2-7.4-7.2-7.4
			C198.7,265.8,195.4,268.9,195.4,273.1z"/>
		<path class="st6" d="M239.9,275c0,6.3-4.1,10.2-10.6,10.2c-6.6,0-10.8-3.9-10.8-10.2v-13.8h5.4V275c0,3.4,2.2,5.5,5.4,5.5
			s5.3-2.1,5.3-5.5v-13.8h5.4V275H239.9z"/>
		<path class="st6" d="M255.5,278.2H255h-5v6.8h-5.4v-23.7H255c6.2,0,9.7,3,9.7,8.2c0,3.7-1.6,6.3-4.4,7.7l5,7.8h-6.1L255.5,278.2z
			 M255,273.7c2.9,0,4.6-1.4,4.6-4.1c0-2.6-1.7-4-4.6-4h-5v8h5V273.7z"/>
		<path class="st6" d="M277.4,285v-23.7h5.4V285H277.4z"/>
		<path class="st6" d="M298,261.3c7.4,0,12.5,4.8,12.5,11.9c0,7-5.2,11.9-12.7,11.9H288v-23.7h10V261.3z M293.3,280.5h4.8
			c4,0,6.9-3,6.9-7.3c0-4.4-3.1-7.4-7.1-7.4h-4.6V280.5z"/>
		<path class="st6" d="M319.4,265.7v5.2h11.5v4.4h-11.5v5.3h13.1v4.4H314v-23.7h18.1v4.4H319.4z"/>
		<path class="st6" d="M341.4,280.4l-1.9,4.6H334l10.3-23.7h5.5l10.1,23.7h-5.7l-1.9-4.6H341.4z M346.9,266.8l-3.8,9.2h7.5
			L346.9,266.8z"/>
		<path class="st6" d="M380,263.6l-2.1,4.4c-2.5-1.5-5.5-2.4-7.4-2.4c-1.8,0-3,0.6-3,1.9c0,4.4,12.6,1.9,12.6,10.5
			c0,4.6-4,7.2-9.3,7.2c-3.9,0-7.8-1.5-10.5-3.8l2.1-4.4c2.4,2.2,5.9,3.6,8.4,3.6c2.2,0,3.5-0.8,3.5-2.3c0-4.5-12.6-1.9-12.6-10.3
			c0-4.3,3.7-7,9.2-7C374.3,261,377.6,262,380,263.6z"/>
		<path class="st6" d="M388.2,282.6c0,1.6-1.1,2.7-2.6,2.7s-2.6-1.2-2.6-2.7c0-1.6,1.1-2.7,2.6-2.7S388.2,281,388.2,282.6z
			 M387.2,277H384l-0.9-9.6v-6h4.9v6L387.2,277z"/>
	</g>
	<path class="st4" d="M4.8,242.2c0,0,5.6-12.1,4.9-19.8c0,0,1.3,11.4,0.1,15.4c0,0,2.5-4.4,3.9-5.5c0,0-1.9,4.3-1.2,7.1
		c0,0,4.5-0.4,5.6-10c0,0,0.2,9.3,0.9,11.4c0,0,3-10.2,4.4-12.1c0,0-0.5,7.4,0,9.3c0,0,1.6-1,2.8-2.8c0,0-2.1,3.9-0.5,5.8
		c0,0,4-2.1,4.9-6.5c0,0,0.2,5.1,1.6,7.7H4.8z"/>
	<g>
		<path class="st3" d="M142.4,221.7l3.9,2.2c0.5,0.3,0.7,0.8,0.7,1.3v4.4c0,0.5-0.3,1-0.7,1.3l-3.9,2.2c-0.5,0.3-1,0.3-1.5,0
			l-3.9-2.2c-0.5-0.3-0.7-0.8-0.7-1.3v-4.4c0-0.5,0.3-1,0.7-1.3l3.9-2.2C141.4,221.4,142,221.4,142.4,221.7z"/>
		<path class="st4" d="M142.4,219.4l4.4,2.5c0.5,0.3,0.8,0.8,0.8,1.4v5c0,0.6-0.3,1.1-0.8,1.4l-4.4,2.5c-0.5,0.3-1.2,0.3-1.7,0
			l-4.4-2.5c-0.5-0.3-0.8-0.8-0.8-1.4v-5c0-0.6,0.3-1.1,0.8-1.4l4.4-2.5C141.3,219.1,141.9,219.1,142.4,219.4z"/>
		<path class="st3" d="M134.1,225.8l3.9,2.2c0.5,0.3,0.7,0.8,0.7,1.3v4.4c0,0.5-0.3,1-0.7,1.3l-3.9,2.2c-0.5,0.3-1,0.3-1.5,0
			l-3.9-2.2c-0.5-0.3-0.7-0.8-0.7-1.3v-4.4c0-0.5,0.3-1,0.7-1.3l3.9-2.2C133.1,225.5,133.7,225.5,134.1,225.8z"/>
		<path class="st4" d="M134.2,223.5l4.4,2.5c0.5,0.3,0.8,0.8,0.8,1.4v5c0,0.6-0.3,1.1-0.8,1.4l-4.4,2.5c-0.5,0.3-1.2,0.3-1.7,0
			l-4.4-2.5c-0.5-0.3-0.8-0.8-0.8-1.4v-5c0-0.6,0.3-1.1,0.8-1.4l4.4-2.5C133,223.2,133.6,223.2,134.2,223.5z"/>
		<path class="st0" d="M134.9,234.3h6.2v3.9h-6.2V234.3z"/>
		<path class="st0" d="M132.7,222.8l0.9,1.6c0.1,0.2,0.1,0.4,0,0.6l-0.9,1.6c-0.1,0.2-0.3,0.3-0.5,0.3h-1.9c-0.2,0-0.4-0.1-0.5-0.3
			l-0.9-1.6c-0.1-0.2-0.1-0.4,0-0.6l0.9-1.6c0.1-0.2,0.3-0.3,0.5-0.3h1.9C132.4,222.5,132.6,222.6,132.7,222.8z"/>
		<path class="st5" d="M132.7,222.5l0.9,1.6c0.1,0.2,0.1,0.4,0,0.6l-0.9,1.6c-0.1,0.2-0.3,0.3-0.5,0.3h-1.9c-0.2,0-0.4-0.1-0.5-0.3
			l-0.9-1.6c-0.1-0.2-0.1-0.4,0-0.6l0.9-1.6c0.1-0.2,0.3-0.3,0.5-0.3h1.9C132.4,222.2,132.6,222.3,132.7,222.5z"/>
		<path class="st0" d="M139.6,221l5.7,3.3c0.7,0.4,1.1,1.1,1.1,1.9v6.5c0,0.8-0.4,1.5-1.1,1.9l-5.7,3.3c-0.7,0.4-1.5,0.4-2.2,0
			l-5.7-3.3c-0.7-0.4-1.1-1.1-1.1-1.9v-6.5c0-0.8,0.4-1.5,1.1-1.9l5.7-3.3C138.1,220.6,138.9,220.6,139.6,221z"/>
		<path class="st1" d="M139.1,220.1l5.7,3.3c0.7,0.4,1.1,1.1,1.1,1.9v6.5c0,0.8-0.4,1.5-1.1,1.9l-5.7,3.3c-0.7,0.4-1.5,0.4-2.2,0
			l-5.7-3.3c-0.7-0.4-1.1-1.1-1.1-1.9v-6.5c0-0.8,0.4-1.5,1.1-1.9l5.7-3.3C137.6,219.7,138.4,219.7,139.1,220.1z"/>
		<path class="st7" d="M145.5,237.9c0,0.3-3.2,0.5-7.2,0.5s-7.2-0.2-7.2-0.5c0-0.3,3.2-0.5,7.2-0.5S145.5,237.6,145.5,237.9z"/>
		<path class="st0" d="M147,227.1l2.3,4c0.3,0.5,0.3,1.1,0,1.5l-2.3,4c-0.3,0.5-0.8,0.8-1.3,0.8h-4.6c-0.5,0-1.1-0.3-1.3-0.8l-2.3-4
			c-0.3-0.5-0.3-1.1,0-1.5l2.3-4c0.3-0.5,0.8-0.8,1.3-0.8h4.6C146.2,226.3,146.7,226.6,147,227.1z"/>
		<path class="st5" d="M147,226.4l2.3,4c0.3,0.5,0.3,1.1,0,1.5l-2.3,4c-0.3,0.5-0.8,0.8-1.3,0.8h-4.6c-0.5,0-1.1-0.3-1.3-0.8l-2.3-4
			c-0.3-0.5-0.3-1.1,0-1.5l2.3-4c0.3-0.5,0.8-0.8,1.3-0.8h4.6C146.2,225.6,146.8,225.9,147,226.4z"/>
	</g>
	<path class="st4" d="M29.6,242.2c0,0,5.6-12.1,4.9-19.8c0,0,1.3,11.4,0.1,15.4c0,0,2.5-4.4,3.9-5.5c0,0-1.9,4.3-1.2,7.1
		c0,0,4.5-0.4,5.6-10c0,0,0.2,9.3,0.9,11.4c0,0,3-10.2,4.4-12.1c0,0-0.5,7.4,0,9.3c0,0,1.6-1,2.8-2.8c0,0-2.1,3.9-0.5,5.8
		c0,0,4-2.1,4.9-6.5c0,0,0.2,5.1,1.6,7.7H29.6z"/>
	<g>
		<path class="st4" d="M367.6,242.2c0,0,3.8-8.3,3.3-13.5c0,0,0.9,7.8,0,10.5c0,0,1.7-3,2.7-3.7c0,0-1.3,2.9-0.8,4.9
			c0,0,3.1-0.3,3.8-6.8c0,0,0.2,6.4,0.6,7.8c0,0,2.1-7,3-8.3c0,0-0.3,5.1,0,6.4c0,0,1.1-0.7,1.9-1.9c0,0-1.5,2.7-0.4,4
			c0,0,2.7-1.4,3.3-4.5c0,0,0.2,3.5,1.1,5.2h-18.5V242.2z"/>
		<path class="st4" d="M350.6,242.2c0,0,3.8-8.3,3.3-13.5c0,0,0.9,7.8,0,10.5c0,0,1.7-3,2.7-3.7c0,0-1.3,2.9-0.8,4.9
			c0,0,3.1-0.3,3.8-6.8c0,0,0.2,6.4,0.6,7.8c0,0,2.1-7,3-8.3c0,0-0.3,5.1,0,6.4c0,0,1.1-0.7,1.9-1.9c0,0-1.5,2.7-0.4,4
			c0,0,2.7-1.4,3.3-4.5c0,0,0.2,3.5,1.1,5.2h-18.5V242.2z"/>
		<path class="st4" d="M387,242.2c0,0,3.8-8.3,3.3-13.5c0,0,0.9,7.8,0,10.5c0,0,1.7-3,2.7-3.7c0,0-1.3,2.9-0.8,4.9
			c0,0,3.1-0.3,3.8-6.8c0,0,0.2,6.4,0.6,7.8c0,0,2.1-7,3-8.3c0,0-0.3,5.1,0,6.4c0,0,1.1-0.7,1.9-1.9c0,0-1.5,2.7-0.4,4
			c0,0,2.7-1.4,3.3-4.5c0,0,0.2,3.5,1.1,5.2H387V242.2z"/>
	</g>
	<g>
		<path class="st4" d="M230.5,242.2c0,0,3.8-8.3,3.3-13.5c0,0,0.9,7.8,0,10.5c0,0,1.7-3,2.7-3.7c0,0-1.3,2.9-0.8,4.9
			c0,0,3.1-0.3,3.8-6.8c0,0,0.2,6.4,0.6,7.8c0,0,2.1-7,3-8.3c0,0-0.3,5.1,0,6.4c0,0,1.1-0.7,1.9-1.9c0,0-1.5,2.7-0.4,4
			c0,0,2.7-1.4,3.3-4.5c0,0,0.2,3.5,1.1,5.2h-18.5V242.2z"/>
		<path class="st4" d="M213.6,242.2c0,0,3.8-8.3,3.3-13.5c0,0,0.9,7.8,0,10.5c0,0,1.7-3,2.7-3.7c0,0-1.3,2.9-0.8,4.9
			c0,0,3.1-0.3,3.8-6.8c0,0,0.2,6.4,0.6,7.8c0,0,2.1-7,3-8.3c0,0-0.3,5.1,0,6.4c0,0,1.1-0.7,1.9-1.9c0,0-1.5,2.7-0.4,4
			c0,0,2.7-1.4,3.3-4.5c0,0,0.2,3.5,1.1,5.2h-18.5V242.2z"/>
	</g>
	<g>
		<path class="st3" d="M406.2,28.9l8.4,4.8c1,0.6,1.6,1.6,1.6,2.8v9.7c0,1.1-0.6,2.2-1.6,2.8l-8.4,4.8c-1,0.6-2.2,0.6-3.2,0
			l-8.4-4.8c-1-0.6-1.6-1.6-1.6-2.8v-9.7c0-1.1,0.6-2.2,1.6-2.8l8.4-4.8C404,28.3,405.2,28.3,406.2,28.9z"/>
		<path class="st4" d="M406.2,23.9l9.5,5.5c1.1,0.6,1.8,1.8,1.8,3.1v10.9c0,1.3-0.7,2.5-1.8,3.1l-9.5,5.5c-1.1,0.6-2.5,0.6-3.6,0
			l-9.5-5.5c-1.1-0.6-1.8-1.8-1.8-3.1V32.5c0-1.3,0.7-2.5,1.8-3.1l9.5-5.5C403.7,23.2,405.1,23.2,406.2,23.9z"/>
		<path class="st3" d="M388.2,37.8l8.4,4.8c1,0.6,1.6,1.6,1.6,2.8v9.7c0,1.1-0.6,2.2-1.6,2.8l-8.4,4.8c-1,0.6-2.2,0.6-3.2,0
			l-8.4-4.8c-1-0.6-1.6-1.6-1.6-2.8v-9.7c0-1.1,0.6-2.2,1.6-2.8l8.4-4.8C386,37.3,387.2,37.3,388.2,37.8z"/>
		<path class="st4" d="M388.2,32.9l9.5,5.5c1.1,0.6,1.8,1.8,1.8,3.1v10.9c0,1.3-0.7,2.5-1.8,3.1l-9.5,5.5c-1.1,0.6-2.5,0.6-3.6,0
			l-9.5-5.5c-1.1-0.6-1.8-1.8-1.8-3.1V41.5c0-1.3,0.7-2.5,1.8-3.1l9.5-5.5C385.7,32.2,387.1,32.2,388.2,32.9z"/>
		<path class="st0" d="M389.9,56.2h13.5v8.5h-13.5V56.2z"/>
		<path class="st0" d="M385.1,31.3l2,3.5c0.2,0.4,0.2,0.9,0,1.3l-2,3.5c-0.2,0.4-0.7,0.7-1.2,0.7h-4c-0.5,0-0.9-0.3-1.1-0.7l-2-3.5
			c-0.2-0.4-0.2-0.9,0-1.3l2-3.5c0.2-0.4,0.7-0.7,1.2-0.7h4C384.4,30.7,384.9,30.9,385.1,31.3z"/>
		<path class="st5" d="M385.1,30.7l2,3.5c0.2,0.4,0.2,0.9,0,1.3l-2,3.5c-0.2,0.4-0.7,0.7-1.2,0.7h-4c-0.5,0-0.9-0.3-1.1-0.7l-2-3.5
			c-0.2-0.4-0.2-0.9,0-1.3l2-3.5c0.2-0.4,0.7-0.7,1.2-0.7h4C384.5,30.1,384.9,30.3,385.1,30.7z"/>
		<path class="st0" d="M400,27.4l12.3,7.1c1.5,0.8,2.4,2.4,2.4,4.1v14.2c0,1.7-0.9,3.2-2.4,4.1l-12.3,7c-1.5,0.8-3.2,0.8-4.7,0
			L383,56.8c-1.5-0.8-2.4-2.4-2.4-4.1V38.5c0-1.7,0.9-3.2,2.4-4.1l12.3-7.1C396.8,26.5,398.6,26.5,400,27.4z"/>
		<path class="st1" d="M399,25.5l12.3,7.1c1.5,0.8,2.4,2.4,2.4,4.1v14.2c0,1.7-0.9,3.2-2.4,4.1L399,62c-1.5,0.8-3.2,0.8-4.7,0
			L382,54.9c-1.5-0.8-2.4-2.4-2.4-4.1V36.7c0-1.7,0.9-3.2,2.4-4.1l12.3-7.1C395.8,24.7,397.5,24.7,399,25.5z"/>
		<path class="st0" d="M416.1,40.7l5,8.7c0.6,1,0.6,2.3,0,3.3l-5.1,8.7c-0.6,1-1.7,1.7-2.9,1.6l-10-0.1c-1.2,0-2.3-0.7-2.9-1.7
			l-5-8.7c-0.6-1-0.6-2.3,0-3.3l5.1-8.7c0.6-1,1.7-1.7,2.9-1.6l10,0.1C414.5,39,415.6,39.6,416.1,40.7z"/>
		<path class="st5" d="M416.2,39.2l5,8.7c0.6,1,0.6,2.3,0,3.3l-5.1,8.7c-0.6,1-1.7,1.7-2.9,1.6l-10-0.1c-1.2,0-2.3-0.7-2.9-1.7
			l-5-8.7c-0.6-1-0.6-2.3,0-3.3l5.1-8.7c0.6-1,1.7-1.7,2.9-1.6l10,0.1C414.5,37.5,415.6,38.1,416.2,39.2z"/>
	</g>
	<g>
		<path class="st4" d="M392.2,64.7c0,0,6.3-13.7,5.5-22.3c0,0,1.5,12.9,0.1,17.4c0,0,2.8-5,4.4-6.2c0,0-2.1,4.9-1.3,8
			c0,0,5-0.5,6.3-11.3c0,0,0.3,10.5,1.1,12.9c0,0,3.4-11.6,5-13.7c0,0-0.5,8.4,0,10.5c0,0,1.9-1.1,3.2-3.1c0,0-2.4,4.4-0.6,6.5
			c0,0,4.5-2.4,5.5-7.4c0,0,0.3,5.8,1.8,8.7H392.2z"/>
		<path class="st4" d="M364.2,64.7c0,0,6.3-13.7,5.5-22.3c0,0,1.5,12.9,0.1,17.4c0,0,2.8-5,4.4-6.2c0,0-2.1,4.9-1.3,8
			c0,0,5-0.5,6.3-11.3c0,0,0.3,10.5,1.1,12.9c0,0,3.4-11.6,5-13.7c0,0-0.5,8.4,0,10.5c0,0,1.9-1.1,3.2-3.1c0,0-2.4,4.4-0.6,6.5
			c0,0,4.5-2.4,5.5-7.4c0,0,0.3,5.8,1.8,8.7H364.2z"/>
	</g>
	<g>
		<path class="st4" d="M248.1,64.7c0,0,6.3-13.7,5.5-22.3c0,0,1.5,12.9,0.1,17.4c0,0,2.8-5,4.4-6.2c0,0-2.1,4.9-1.3,8
			c0,0,5-0.5,6.3-11.3c0,0,0.3,10.5,1.1,12.9c0,0,3.4-11.6,5-13.7c0,0-0.5,8.4,0,10.5c0,0,1.9-1.1,3.2-3.1c0,0-2.4,4.4-0.6,6.5
			c0,0,4.5-2.4,5.5-7.4c0,0,0.3,5.8,1.8,8.7H248.1z"/>
		<path class="st4" d="M336.2,64.7c0,0,6.3-13.7,5.5-22.3c0,0,1.5,12.9,0.1,17.4c0,0,2.8-5,4.4-6.2c0,0-2.1,4.9-1.3,8
			c0,0,5-0.5,6.3-11.3c0,0,0.3,10.5,1.1,12.9c0,0,3.4-11.6,5-13.7c0,0-0.5,8.4,0,10.5c0,0,1.9-1.1,3.2-3.1c0,0-2.4,4.4-0.6,6.5
			c0,0,4.5-2.4,5.5-7.4c0,0,0.3,5.8,1.8,8.7H336.2z"/>
	</g>
	<g>
		<path class="st7" d="M66.1,73.9c0,0.6-3.8,1-8.4,1s-8.4-0.4-8.4-1c0-0.6,3.8-1,8.4-1S66.1,73.3,66.1,73.9z"/>
		<path class="st3" d="M60.2,2.4l12.9,7.4c1.5,0.9,2.5,2.5,2.5,4.3V29c0,1.8-0.9,3.4-2.5,4.3l-12.9,7.4c-1.5,0.9-3.4,0.9-4.9,0
			l-12.9-7.4c-1.5-0.9-2.5-2.5-2.5-4.3V14.1c0-1.8,0.9-3.4,2.5-4.3l12.9-7.4C56.8,1.5,58.7,1.5,60.2,2.4z"/>
		<path class="st4" d="M58.7,0.7l12.9,7.4c1.5,0.9,2.5,2.5,2.5,4.3v14.9c0,1.8-0.9,3.4-2.5,4.3L58.7,39c-1.5,0.9-3.4,0.9-4.9,0
			l-12.9-7.4c-1.5-0.9-2.5-2.5-2.5-4.3V12.4c0-1.8,0.9-3.4,2.5-4.3l12.9-7.4C55.3-0.2,57.2-0.2,58.7,0.7z"/>
		<path class="st2" d="M56.8,20.2l0.2,6.3l6.7-8.3l-6.7,9l1.6,46.9h-3.4l1-37.4l-3-10.2l3.1,6.8L56.8,20.2z"/>
	</g>
	<g>
		<path class="st0" d="M44.9,32.8l6.1,3.5c0.7,0.4,1.2,1.2,1.2,2v7c0,0.8-0.4,1.6-1.2,2l-6.1,3.5c-0.7,0.4-1.6,0.4-2.3,0l-6.1-3.5
			c-0.7-0.4-1.2-1.2-1.2-2v-7c0-0.8,0.4-1.6,1.2-2l6.1-3.5C43.3,32.4,44.2,32.4,44.9,32.8z"/>
		<path class="st1" d="M44.4,31.9l6.1,3.5c0.7,0.4,1.2,1.2,1.2,2v7c0,0.8-0.4,1.6-1.2,2l-6.1,3.5c-0.7,0.4-1.6,0.4-2.3,0L36,46.4
			c-0.7-0.4-1.2-1.2-1.2-2v-7c0-0.8,0.4-1.6,1.2-2l6.1-3.5C42.8,31.4,43.7,31.4,44.4,31.9z"/>
		<path class="st2" d="M43.4,39.3l0.1,3l3.2-3.9l-3.2,4.3L44.3,65h-1.6l0.5-17.8l-1.5-4.9l1.5,3.3L43.4,39.3z"/>
	</g>
	<path class="st1" d="M4,64h419.1v57.3H4V64z"/>
	<g>
		<path class="st6" d="M137.2,85.4v5.2h11.5V95h-11.5v5.3h13.1v4.4h-18.4V80.9H150v4.4L137.2,85.4L137.2,85.4z"/>
		<path class="st6" d="M175.9,104.7h-6.4l-5.6-7.9l-5.5,7.9h-6.3l8.5-12.1L152.7,81h6.2l4.9,7.3l5-7.3h6.3l-7.9,11.4L175.9,104.7z"
			/>
		<path class="st6" d="M189,80.9c6,0,9.5,3,9.5,8.2c0,5.5-3.5,8.7-9.5,8.7h-4.7v6.8H179V80.9H189z M184.3,93.4h4.4
			c3,0,4.7-1.4,4.7-4.1c0-2.6-1.7-4-4.7-4h-4.4V93.4z"/>
		<path class="st6" d="M217.5,100v4.7H202V80.9h5.4v19L217.5,100L217.5,100z"/>
		<path class="st6" d="M244.4,92.8c0,6.8-5.5,12.1-12.7,12.1c-7.3,0-12.7-5.2-12.7-12.1c0-6.9,5.5-12,12.7-12S244.4,85.9,244.4,92.8
			z M224.4,92.8c0,4.2,3.4,7.4,7.3,7.4c4,0,7.2-3.3,7.2-7.4c0-4.1-3.2-7.4-7.2-7.4C227.8,85.4,224.4,88.6,224.4,92.8z"/>
		<path class="st6" d="M258.8,97.9h-0.5h-4.9v6.8H248V80.9h10.3c6.2,0,9.7,3,9.7,8.2c0,3.7-1.6,6.3-4.4,7.7l5,7.8h-6.1L258.8,97.9z
			 M258.3,93.4c2.9,0,4.6-1.4,4.6-4.1c0-2.6-1.7-4-4.6-4h-4.9v8L258.3,93.4L258.3,93.4z"/>
		<path class="st6" d="M277.8,85.4v5.2h11.5V95h-11.5v5.3h13.1v4.4h-18.4V80.9h18.1v4.4L277.8,85.4L277.8,85.4z"/>
	</g>
	<path class="st4" d="M32,150.1c0,0,6.3-13.7,5.5-22.3c0,0,1.5,12.9,0.1,17.4c0,0,2.8-5,4.4-6.2c0,0-2.1,4.9-1.3,8
		c0,0,5-0.5,6.3-11.3c0,0,0.3,10.5,1.1,12.9c0,0,3.4-11.6,5-13.7c0,0-0.5,8.4,0,10.5c0,0,1.9-1.1,3.2-3.1c0,0-2.4,4.4-0.6,6.5
		c0,0,4.5-2.4,5.5-7.4c0,0,0.3,5.8,1.8,8.7H32z"/>
	<path class="st4" d="M4,172.1c0,0,6.3-13.7,5.5-22.3c0,0,1.5,12.9,0.1,17.4c0,0,2.8-5,4.4-6.2c0,0-2.1,4.9-1.3,8
		c0,0,5-0.5,6.3-11.3c0,0,0.3,10.5,1.1,12.9c0,0,3.4-11.6,5-13.7c0,0-0.5,8.4,0,10.5c0,0,1.9-1.1,3.2-3.1c0,0-2.4,4.4-0.6,6.5
		c0,0,4.5-2.4,5.5-7.4c0,0,0.3,5.8,1.8,8.7H4z"/>
	<path class="st4" d="M6,64.7c0,0,6.3-13.7,5.5-22.3c0,0,1.5,12.9,0.1,17.4c0,0,2.8-5,4.4-6.2c0,0-2.1,4.9-1.3,8c0,0,5-0.5,6.3-11.3
		c0,0,0.3,10.5,1.1,12.9c0,0,3.4-11.6,5-13.7c0,0-0.5,8.4,0,10.5c0,0,1.9-1.1,3.2-3.1c0,0-2.4,4.4-0.6,6.5c0,0,4.5-2.4,5.5-7.4
		c0,0,0.3,5.8,1.8,8.7H6z"/>
	<path class="st4" d="M369.3,150.1c0,0,6.3-13.7,5.5-22.3c0,0,1.5,12.9,0.1,17.4c0,0,2.8-5,4.4-6.2c0,0-2.1,4.9-1.3,8
		c0,0,5-0.5,6.3-11.3c0,0,0.3,10.5,1.1,12.9c0,0,3.4-11.6,5-13.7c0,0-0.5,8.4,0,10.5c0,0,1.9-1.1,3.2-3.1c0,0-2.4,4.4-0.6,6.5
		c0,0,4.5-2.4,5.5-7.4c0,0,0.3,5.8,1.8,8.7H369.3z"/>
	<path class="st4" d="M341.3,150.1c0,0,6.3-13.7,5.5-22.3c0,0,1.5,12.9,0.1,17.4c0,0,2.8-5,4.4-6.2c0,0-2.1,4.9-1.3,8
		c0,0,5-0.5,6.3-11.3c0,0,0.3,10.5,1.1,12.9c0,0,3.4-11.6,5-13.7c0,0-0.5,8.4,0,10.5c0,0,1.9-1.1,3.2-3.1c0,0-2.4,4.4-0.6,6.5
		c0,0,4.5-2.4,5.5-7.4c0,0,0.3,5.8,1.8,8.7H341.3z"/>
	<path class="st1" d="M4,149.8h419.1v58.7H4V149.8z"/>
	<g>
		<path class="st8" d="M177.9,238.2c0-0.3,2.5-0.5,5.5-0.5s5.5,0.2,5.5,0.5c0,0.3-2.5,0.5-5.5,0.5S177.9,238.5,177.9,238.2"/>
		<path class="st3" d="M185.2,207l5.5,3.2c0.7,0.4,1.1,1.1,1.1,1.8v6.4c0,0.8-0.4,1.5-1.1,1.8l-5.5,3.2c-0.7,0.4-1.5,0.4-2.1,0
			l-5.5-3.2c-0.7-0.4-1.1-1.1-1.1-1.8V212c0-0.8,0.4-1.5,1.1-1.8l5.5-3.2C183.7,206.6,184.5,206.6,185.2,207z"/>
		<path class="st4" d="M184.5,206.2l5.5,3.2c0.7,0.4,1.1,1.1,1.1,1.8v6.4c0,0.8-0.4,1.5-1.1,1.8l-5.5,3.2c-0.7,0.4-1.5,0.4-2.1,0
			l-5.5-3.2c-0.7-0.4-1.1-1.1-1.1-1.8v-6.4c0-0.8,0.4-1.5,1.1-1.8l5.5-3.2C183.1,205.8,183.9,205.8,184.5,206.2z"/>
		<path class="st2" d="M183.1,214.6l-0.1,2.7l-2.8-3.5l2.8,3.8l-0.6,20.2h1.4l-0.4-16.1l1.3-4.4l-1.3,3L183.1,214.6z"/>
	</g>
</g>
<g>
	<path class="st6" d="M142.4,171.9l-3.1,3.8c-1.6-1.9-4-3.1-6.2-3.1c-4.1,0-7.2,3.2-7.2,7.3s3.2,7.3,7.2,7.3c2.1,0,4.5-1.1,6.2-2.8
		l3.2,3.4c-2.5,2.6-6.1,4.2-9.6,4.2c-7.1,0-12.4-5.3-12.4-12.1c0-6.8,5.5-12,12.6-12C136.4,168,140,169.5,142.4,171.9z"/>
	<path class="st6" d="M168.9,180c0,6.8-5.5,12.1-12.7,12.1c-7.3,0-12.7-5.2-12.7-12.1c0-6.9,5.5-12,12.7-12
		C163.4,168,168.9,173.2,168.9,180z M148.9,180c0,4.2,3.4,7.4,7.3,7.4s7.2-3.3,7.2-7.4c0-4.2-3.2-7.4-7.2-7.4
		C152.2,172.7,148.9,175.9,148.9,180z"/>
	<path class="st6" d="M189,191.9l-11.5-15.2v15.2h-5.1v-23.7h4.9l11.5,15.2v-15.2h5.1v23.7H189z"/>
	<path class="st6" d="M216.8,170.5l-2.1,4.4c-2.5-1.5-5.5-2.4-7.4-2.4c-1.8,0-3,0.6-3,1.9c0,4.4,12.6,1.9,12.6,10.5
		c0,4.6-4,7.2-9.3,7.2c-3.9,0-7.8-1.5-10.5-3.8l2.1-4.4c2.4,2.2,5.9,3.6,8.4,3.6c2.2,0,3.5-0.8,3.5-2.3c0-4.5-12.6-1.9-12.6-10.3
		c0-4.3,3.7-7,9.2-7C211.1,167.9,214.5,169,216.8,170.5z"/>
	<path class="st6" d="M220.7,191.9v-23.7h5.4v23.7H220.7z"/>
	<path class="st6" d="M241.4,168.2c7.4,0,12.5,4.8,12.5,11.9c0,7-5.2,11.9-12.7,11.9h-9.9v-23.7H241.4z M236.7,187.4h4.8
		c4,0,6.9-3,6.9-7.3c0-4.4-3.1-7.4-7.1-7.4h-4.6V187.4z"/>
	<path class="st6" d="M262.7,172.6v5.2h11.5v4.4h-11.5v5.3h13.1v4.4h-18.4v-23.7h18.1v4.4H262.7z"/>
	<path class="st6" d="M290.8,185.1h-0.5h-4.9v6.8H280v-23.7h10.3c6.2,0,9.7,3,9.7,8.2c0,3.7-1.6,6.3-4.4,7.7l5,7.8h-6.1L290.8,185.1
		z M290.3,180.6c2.9,0,4.6-1.4,4.6-4.1c0-2.6-1.7-4-4.6-4h-4.9v8H290.3z"/>
</g>
</svg>
